G75*
%MOIN*%
%OFA0B0*%
%FSLAX25Y25*%
%IPPOS*%
%LPD*%
%AMOC8*
5,1,8,0,0,1.08239X$1,22.5*
%
%ADD10C,0.00875*%
%ADD11R,0.01181X0.04724*%
%ADD12R,0.04724X0.01181*%
%ADD13R,0.04724X0.01200*%
%ADD14R,0.08000X0.08000*%
%ADD15R,0.07874X0.05906*%
%ADD16R,0.02756X0.05906*%
%ADD17R,0.03937X0.02362*%
%ADD18R,0.03937X0.03150*%
%ADD19C,0.08000*%
%ADD20R,0.13000X0.05000*%
%ADD21R,0.09000X0.05000*%
%ADD22R,0.11000X0.05000*%
%ADD23C,0.03937*%
%ADD24R,0.02500X0.05000*%
%ADD25C,0.02400*%
%ADD26C,0.00600*%
%ADD27C,0.01100*%
%ADD28C,0.00800*%
D10*
X0050587Y0029638D02*
X0053213Y0029638D01*
X0053213Y0027012D01*
X0050587Y0027012D01*
X0050587Y0029638D01*
X0050587Y0027886D02*
X0053213Y0027886D01*
X0053213Y0028760D02*
X0050587Y0028760D01*
X0050587Y0029634D02*
X0053213Y0029634D01*
X0056587Y0029638D02*
X0059213Y0029638D01*
X0059213Y0027012D01*
X0056587Y0027012D01*
X0056587Y0029638D01*
X0056587Y0027886D02*
X0059213Y0027886D01*
X0059213Y0028760D02*
X0056587Y0028760D01*
X0056587Y0029634D02*
X0059213Y0029634D01*
X0059213Y0032917D02*
X0056587Y0032917D01*
X0056587Y0035543D01*
X0059213Y0035543D01*
X0059213Y0032917D01*
X0059213Y0033791D02*
X0056587Y0033791D01*
X0056587Y0034665D02*
X0059213Y0034665D01*
X0059213Y0035539D02*
X0056587Y0035539D01*
X0053213Y0032917D02*
X0050587Y0032917D01*
X0050587Y0035543D01*
X0053213Y0035543D01*
X0053213Y0032917D01*
X0053213Y0033791D02*
X0050587Y0033791D01*
X0050587Y0034665D02*
X0053213Y0034665D01*
X0053213Y0035539D02*
X0050587Y0035539D01*
X0063382Y0035543D02*
X0066008Y0035543D01*
X0066008Y0032917D01*
X0063382Y0032917D01*
X0063382Y0035543D01*
X0063382Y0033791D02*
X0066008Y0033791D01*
X0066008Y0034665D02*
X0063382Y0034665D01*
X0063382Y0035539D02*
X0066008Y0035539D01*
X0069382Y0035543D02*
X0072008Y0035543D01*
X0072008Y0032917D01*
X0069382Y0032917D01*
X0069382Y0035543D01*
X0069382Y0033791D02*
X0072008Y0033791D01*
X0072008Y0034665D02*
X0069382Y0034665D01*
X0069382Y0035539D02*
X0072008Y0035539D01*
X0072008Y0029638D02*
X0069382Y0029638D01*
X0072008Y0029638D02*
X0072008Y0027012D01*
X0069382Y0027012D01*
X0069382Y0029638D01*
X0069382Y0027886D02*
X0072008Y0027886D01*
X0072008Y0028760D02*
X0069382Y0028760D01*
X0069382Y0029634D02*
X0072008Y0029634D01*
X0066008Y0029638D02*
X0063382Y0029638D01*
X0066008Y0029638D02*
X0066008Y0027012D01*
X0063382Y0027012D01*
X0063382Y0029638D01*
X0063382Y0027886D02*
X0066008Y0027886D01*
X0066008Y0028760D02*
X0063382Y0028760D01*
X0063382Y0029634D02*
X0066008Y0029634D01*
X0084051Y0011264D02*
X0086677Y0011264D01*
X0084051Y0011264D02*
X0084051Y0013890D01*
X0086677Y0013890D01*
X0086677Y0011264D01*
X0086677Y0012138D02*
X0084051Y0012138D01*
X0084051Y0013012D02*
X0086677Y0013012D01*
X0086677Y0013886D02*
X0084051Y0013886D01*
X0090051Y0011264D02*
X0092677Y0011264D01*
X0090051Y0011264D02*
X0090051Y0013890D01*
X0092677Y0013890D01*
X0092677Y0011264D01*
X0092677Y0012138D02*
X0090051Y0012138D01*
X0090051Y0013012D02*
X0092677Y0013012D01*
X0092677Y0013886D02*
X0090051Y0013886D01*
X0118547Y0028933D02*
X0118547Y0031559D01*
X0121173Y0031559D01*
X0121173Y0028933D01*
X0118547Y0028933D01*
X0118547Y0029807D02*
X0121173Y0029807D01*
X0121173Y0030681D02*
X0118547Y0030681D01*
X0118547Y0031555D02*
X0121173Y0031555D01*
X0118547Y0034933D02*
X0118547Y0037559D01*
X0121173Y0037559D01*
X0121173Y0034933D01*
X0118547Y0034933D01*
X0118547Y0035807D02*
X0121173Y0035807D01*
X0121173Y0036681D02*
X0118547Y0036681D01*
X0118547Y0037555D02*
X0121173Y0037555D01*
X0119252Y0055228D02*
X0116626Y0055228D01*
X0119252Y0055228D02*
X0119252Y0052602D01*
X0116626Y0052602D01*
X0116626Y0055228D01*
X0116626Y0053476D02*
X0119252Y0053476D01*
X0119252Y0054350D02*
X0116626Y0054350D01*
X0116626Y0055224D02*
X0119252Y0055224D01*
X0113252Y0055228D02*
X0110626Y0055228D01*
X0113252Y0055228D02*
X0113252Y0052602D01*
X0110626Y0052602D01*
X0110626Y0055228D01*
X0110626Y0053476D02*
X0113252Y0053476D01*
X0113252Y0054350D02*
X0110626Y0054350D01*
X0110626Y0055224D02*
X0113252Y0055224D01*
X0101488Y0065350D02*
X0101488Y0067976D01*
X0101488Y0065350D02*
X0098862Y0065350D01*
X0098862Y0067976D01*
X0101488Y0067976D01*
X0101488Y0066224D02*
X0098862Y0066224D01*
X0098862Y0067098D02*
X0101488Y0067098D01*
X0101488Y0067972D02*
X0098862Y0067972D01*
X0101488Y0071350D02*
X0101488Y0073976D01*
X0101488Y0071350D02*
X0098862Y0071350D01*
X0098862Y0073976D01*
X0101488Y0073976D01*
X0101488Y0072224D02*
X0098862Y0072224D01*
X0098862Y0073098D02*
X0101488Y0073098D01*
X0101488Y0073972D02*
X0098862Y0073972D01*
X0093614Y0073976D02*
X0093614Y0071350D01*
X0090988Y0071350D01*
X0090988Y0073976D01*
X0093614Y0073976D01*
X0093614Y0072224D02*
X0090988Y0072224D01*
X0090988Y0073098D02*
X0093614Y0073098D01*
X0093614Y0073972D02*
X0090988Y0073972D01*
X0085740Y0073976D02*
X0085740Y0071350D01*
X0083114Y0071350D01*
X0083114Y0073976D01*
X0085740Y0073976D01*
X0085740Y0072224D02*
X0083114Y0072224D01*
X0083114Y0073098D02*
X0085740Y0073098D01*
X0085740Y0073972D02*
X0083114Y0073972D01*
X0075240Y0073976D02*
X0075240Y0071350D01*
X0075240Y0073976D02*
X0077866Y0073976D01*
X0077866Y0071350D01*
X0075240Y0071350D01*
X0075240Y0072224D02*
X0077866Y0072224D01*
X0077866Y0073098D02*
X0075240Y0073098D01*
X0075240Y0073972D02*
X0077866Y0073972D01*
X0067366Y0073976D02*
X0067366Y0071350D01*
X0067366Y0073976D02*
X0069992Y0073976D01*
X0069992Y0071350D01*
X0067366Y0071350D01*
X0067366Y0072224D02*
X0069992Y0072224D01*
X0069992Y0073098D02*
X0067366Y0073098D01*
X0067366Y0073972D02*
X0069992Y0073972D01*
X0059492Y0073976D02*
X0059492Y0071350D01*
X0059492Y0073976D02*
X0062118Y0073976D01*
X0062118Y0071350D01*
X0059492Y0071350D01*
X0059492Y0072224D02*
X0062118Y0072224D01*
X0062118Y0073098D02*
X0059492Y0073098D01*
X0059492Y0073972D02*
X0062118Y0073972D01*
X0059492Y0067976D02*
X0059492Y0065350D01*
X0059492Y0067976D02*
X0062118Y0067976D01*
X0062118Y0065350D01*
X0059492Y0065350D01*
X0059492Y0066224D02*
X0062118Y0066224D01*
X0062118Y0067098D02*
X0059492Y0067098D01*
X0059492Y0067972D02*
X0062118Y0067972D01*
X0067366Y0067976D02*
X0067366Y0065350D01*
X0067366Y0067976D02*
X0069992Y0067976D01*
X0069992Y0065350D01*
X0067366Y0065350D01*
X0067366Y0066224D02*
X0069992Y0066224D01*
X0069992Y0067098D02*
X0067366Y0067098D01*
X0067366Y0067972D02*
X0069992Y0067972D01*
X0075240Y0067976D02*
X0075240Y0065350D01*
X0075240Y0067976D02*
X0077866Y0067976D01*
X0077866Y0065350D01*
X0075240Y0065350D01*
X0075240Y0066224D02*
X0077866Y0066224D01*
X0077866Y0067098D02*
X0075240Y0067098D01*
X0075240Y0067972D02*
X0077866Y0067972D01*
X0085740Y0067976D02*
X0085740Y0065350D01*
X0083114Y0065350D01*
X0083114Y0067976D01*
X0085740Y0067976D01*
X0085740Y0066224D02*
X0083114Y0066224D01*
X0083114Y0067098D02*
X0085740Y0067098D01*
X0085740Y0067972D02*
X0083114Y0067972D01*
X0093614Y0067976D02*
X0093614Y0065350D01*
X0090988Y0065350D01*
X0090988Y0067976D01*
X0093614Y0067976D01*
X0093614Y0066224D02*
X0090988Y0066224D01*
X0090988Y0067098D02*
X0093614Y0067098D01*
X0093614Y0067972D02*
X0090988Y0067972D01*
X0087756Y0053260D02*
X0085130Y0053260D01*
X0087756Y0053260D02*
X0087756Y0050634D01*
X0085130Y0050634D01*
X0085130Y0053260D01*
X0085130Y0051508D02*
X0087756Y0051508D01*
X0087756Y0052382D02*
X0085130Y0052382D01*
X0085130Y0053256D02*
X0087756Y0053256D01*
X0081756Y0053260D02*
X0079130Y0053260D01*
X0081756Y0053260D02*
X0081756Y0050634D01*
X0079130Y0050634D01*
X0079130Y0053260D01*
X0079130Y0051508D02*
X0081756Y0051508D01*
X0081756Y0052382D02*
X0079130Y0052382D01*
X0079130Y0053256D02*
X0081756Y0053256D01*
X0071024Y0050634D02*
X0068398Y0050634D01*
X0068398Y0053260D01*
X0071024Y0053260D01*
X0071024Y0050634D01*
X0071024Y0051508D02*
X0068398Y0051508D01*
X0068398Y0052382D02*
X0071024Y0052382D01*
X0071024Y0053256D02*
X0068398Y0053256D01*
X0065024Y0050634D02*
X0062398Y0050634D01*
X0062398Y0053260D01*
X0065024Y0053260D01*
X0065024Y0050634D01*
X0065024Y0051508D02*
X0062398Y0051508D01*
X0062398Y0052382D02*
X0065024Y0052382D01*
X0065024Y0053256D02*
X0062398Y0053256D01*
X0056260Y0051618D02*
X0053634Y0051618D01*
X0053634Y0054244D01*
X0056260Y0054244D01*
X0056260Y0051618D01*
X0056260Y0052492D02*
X0053634Y0052492D01*
X0053634Y0053366D02*
X0056260Y0053366D01*
X0056260Y0054240D02*
X0053634Y0054240D01*
X0050260Y0051618D02*
X0047634Y0051618D01*
X0047634Y0054244D01*
X0050260Y0054244D01*
X0050260Y0051618D01*
X0050260Y0052492D02*
X0047634Y0052492D01*
X0047634Y0053366D02*
X0050260Y0053366D01*
X0050260Y0054240D02*
X0047634Y0054240D01*
X0055228Y0059445D02*
X0055228Y0062071D01*
X0055228Y0059445D02*
X0052602Y0059445D01*
X0052602Y0062071D01*
X0055228Y0062071D01*
X0055228Y0060319D02*
X0052602Y0060319D01*
X0052602Y0061193D02*
X0055228Y0061193D01*
X0055228Y0062067D02*
X0052602Y0062067D01*
X0055228Y0065445D02*
X0055228Y0068071D01*
X0055228Y0065445D02*
X0052602Y0065445D01*
X0052602Y0068071D01*
X0055228Y0068071D01*
X0055228Y0066319D02*
X0052602Y0066319D01*
X0052602Y0067193D02*
X0055228Y0067193D01*
X0055228Y0068067D02*
X0052602Y0068067D01*
X0076177Y0084756D02*
X0078803Y0084756D01*
X0078803Y0082130D01*
X0076177Y0082130D01*
X0076177Y0084756D01*
X0076177Y0083004D02*
X0078803Y0083004D01*
X0078803Y0083878D02*
X0076177Y0083878D01*
X0076177Y0084752D02*
X0078803Y0084752D01*
X0082177Y0084756D02*
X0084803Y0084756D01*
X0084803Y0082130D01*
X0082177Y0082130D01*
X0082177Y0084756D01*
X0082177Y0083004D02*
X0084803Y0083004D01*
X0084803Y0083878D02*
X0082177Y0083878D01*
X0082177Y0084752D02*
X0084803Y0084752D01*
D11*
X0090354Y0041907D03*
X0092254Y0041907D03*
X0094254Y0041907D03*
X0096254Y0041907D03*
X0098254Y0041907D03*
X0100154Y0041907D03*
X0100154Y0024585D03*
X0098254Y0024585D03*
X0096254Y0024585D03*
X0094254Y0024585D03*
X0092254Y0024585D03*
X0090354Y0024585D03*
D12*
X0086593Y0032246D03*
X0086593Y0034246D03*
X0086593Y0036246D03*
X0086593Y0038146D03*
X0103915Y0038146D03*
X0103915Y0036246D03*
X0103915Y0034246D03*
X0103915Y0032246D03*
X0103915Y0030246D03*
X0103915Y0028346D03*
D13*
X0086593Y0028346D03*
X0086593Y0030246D03*
D14*
X0095254Y0033246D03*
D15*
X0137577Y0054900D03*
X0137577Y0065726D03*
X0135608Y0083443D03*
X0124781Y0083443D03*
X0113955Y0083443D03*
X0054250Y0083502D03*
X0044250Y0083502D03*
X0034250Y0083502D03*
X0024250Y0083502D03*
X0014250Y0083502D03*
D16*
X0053915Y0020451D03*
X0065726Y0020451D03*
X0071632Y0020451D03*
X0116907Y0020451D03*
X0128719Y0020451D03*
X0134624Y0020451D03*
D17*
X0140136Y0009624D03*
X0111396Y0009624D03*
X0077144Y0009624D03*
X0048404Y0009624D03*
D18*
X0048404Y0017892D03*
X0077144Y0017892D03*
X0111396Y0017892D03*
X0140136Y0017892D03*
D19*
X0132927Y0045057D03*
X0052927Y0045057D03*
D20*
X0010947Y0053994D03*
D21*
X0008947Y0045994D03*
X0039947Y0049994D03*
X0039947Y0031494D03*
X0039947Y0019494D03*
D22*
X0009947Y0019994D03*
D23*
X0008640Y0011593D03*
X0008640Y0064742D03*
X0144467Y0073600D03*
D24*
X0069317Y0041120D03*
X0066073Y0041120D03*
X0020104Y0062774D03*
X0016861Y0062774D03*
D25*
X0032262Y0071632D03*
X0048502Y0074585D03*
X0053915Y0069663D03*
X0060805Y0068679D03*
X0060805Y0074585D03*
X0066711Y0078522D03*
X0068679Y0074585D03*
X0068679Y0068679D03*
X0072616Y0064742D03*
X0076553Y0068679D03*
X0080490Y0072616D03*
X0076553Y0075569D03*
X0079506Y0079506D03*
X0084427Y0075569D03*
X0092301Y0075569D03*
X0091317Y0068679D03*
X0084427Y0068679D03*
X0102144Y0066711D03*
X0109033Y0065726D03*
X0098207Y0051947D03*
X0095254Y0049486D03*
X0086396Y0044073D03*
X0080490Y0044073D03*
X0073600Y0049978D03*
X0065726Y0051947D03*
X0053915Y0062774D03*
X0082459Y0051947D03*
X0093285Y0035215D03*
X0097222Y0035215D03*
X0097222Y0031278D03*
X0093285Y0031278D03*
X0085904Y0025864D03*
X0081474Y0028325D03*
X0077537Y0031278D03*
X0070648Y0030293D03*
X0074585Y0021435D03*
X0079506Y0021435D03*
X0085411Y0014545D03*
X0097222Y0019467D03*
X0100175Y0015530D03*
X0111002Y0022419D03*
X0104112Y0024388D03*
X0123797Y0036199D03*
X0125766Y0042104D03*
X0126258Y0052439D03*
X0142498Y0065726D03*
X0133640Y0071632D03*
X0130687Y0077537D03*
X0140530Y0083443D03*
X0086396Y0083443D03*
X0070648Y0083443D03*
X0008640Y0083443D03*
X0047026Y0039152D03*
X0047518Y0035215D03*
X0057360Y0038167D03*
X0048010Y0022419D03*
X0040136Y0015530D03*
X0060805Y0020451D03*
X0020451Y0036199D03*
X0016514Y0019467D03*
D26*
X0032262Y0024388D02*
X0020451Y0036199D01*
X0029309Y0041120D02*
X0032262Y0038167D01*
X0044565Y0038167D01*
X0047518Y0035215D01*
X0050470Y0034230D02*
X0047518Y0031278D01*
X0047518Y0029309D01*
X0045057Y0026848D01*
X0034722Y0026848D01*
X0015577Y0045994D01*
X0018482Y0048900D01*
X0018482Y0057852D01*
X0016861Y0059474D01*
X0016861Y0062774D01*
X0019959Y0062427D02*
X0020104Y0062774D01*
X0019959Y0062427D02*
X0019959Y0046533D01*
X0034998Y0031494D01*
X0039947Y0031494D01*
X0046041Y0024388D02*
X0032262Y0024388D01*
X0046041Y0024388D02*
X0048010Y0022419D01*
X0054900Y0025372D02*
X0054900Y0031230D01*
X0051900Y0034230D01*
X0050470Y0034230D01*
X0051947Y0038167D02*
X0048010Y0042104D01*
X0034230Y0042104D01*
X0033246Y0043089D01*
X0033246Y0056868D01*
X0029309Y0060805D01*
X0029309Y0072616D01*
X0032262Y0075569D01*
X0037183Y0075569D01*
X0044250Y0082636D01*
X0044250Y0083502D01*
X0052439Y0078522D02*
X0048502Y0074585D01*
X0052439Y0078522D02*
X0066711Y0078522D01*
X0070648Y0083443D02*
X0077490Y0083443D01*
X0084427Y0075569D02*
X0084427Y0072663D01*
X0080490Y0072616D02*
X0080490Y0062774D01*
X0083443Y0059821D01*
X0099191Y0059821D01*
X0101159Y0057852D01*
X0101159Y0049978D01*
X0096238Y0045057D01*
X0096254Y0045041D01*
X0096254Y0041907D01*
X0098254Y0041907D02*
X0098254Y0045010D01*
X0098207Y0045057D01*
X0104604Y0051455D01*
X0104604Y0055884D01*
X0112970Y0064250D01*
X0112970Y0082459D01*
X0113955Y0083443D01*
X0124781Y0083443D02*
X0124781Y0073600D01*
X0106081Y0054900D01*
X0106081Y0050963D01*
X0100154Y0045036D01*
X0100154Y0041907D01*
X0094270Y0041923D02*
X0094254Y0041907D01*
X0094270Y0041923D02*
X0094270Y0045057D01*
X0098207Y0048994D01*
X0098207Y0051947D01*
X0095254Y0049486D02*
X0087872Y0056868D01*
X0073600Y0056868D01*
X0072616Y0057852D01*
X0072616Y0064742D01*
X0075175Y0065285D02*
X0076553Y0066663D01*
X0076553Y0068679D01*
X0076553Y0066663D02*
X0075616Y0066663D01*
X0068679Y0066663D02*
X0068679Y0068679D01*
X0060805Y0068679D02*
X0060805Y0066663D01*
X0053915Y0062774D02*
X0053915Y0060758D01*
X0054947Y0052931D02*
X0054947Y0052884D01*
X0062774Y0045057D01*
X0079506Y0045057D01*
X0080490Y0044073D01*
X0086396Y0044073D02*
X0086396Y0038343D01*
X0086593Y0038146D01*
X0086593Y0036246D02*
X0074632Y0036246D01*
X0072616Y0034230D01*
X0070695Y0034230D01*
X0070695Y0039742D01*
X0069317Y0041120D01*
X0066073Y0041120D02*
X0064695Y0039742D01*
X0064695Y0034230D01*
X0064695Y0028325D01*
X0068679Y0025372D02*
X0073600Y0025372D01*
X0074585Y0026356D01*
X0074585Y0032262D01*
X0076553Y0034230D01*
X0086577Y0034230D01*
X0086593Y0034246D01*
X0086545Y0036199D02*
X0086593Y0036246D01*
X0086593Y0032246D02*
X0078537Y0032246D01*
X0077537Y0031278D01*
X0081474Y0028325D02*
X0083396Y0030246D01*
X0086593Y0030246D01*
X0086593Y0028346D02*
X0085925Y0028346D01*
X0085904Y0025864D01*
X0092254Y0024585D02*
X0092254Y0020404D01*
X0089348Y0017498D01*
X0083443Y0017498D01*
X0079506Y0021435D01*
X0068679Y0025372D02*
X0065726Y0022419D01*
X0065726Y0020451D01*
X0060805Y0020451D02*
X0059821Y0020451D01*
X0054900Y0025372D01*
X0051947Y0028278D02*
X0051900Y0028325D01*
X0057900Y0028325D02*
X0057900Y0034230D01*
X0064695Y0034230D01*
X0057360Y0038167D02*
X0051947Y0038167D01*
X0047026Y0039152D02*
X0046041Y0040136D01*
X0033246Y0040136D01*
X0031278Y0042104D01*
X0031278Y0055884D01*
X0027341Y0059821D01*
X0027341Y0073600D01*
X0034250Y0080510D01*
X0034250Y0083502D01*
X0025234Y0082596D02*
X0025372Y0073600D01*
X0025372Y0058837D01*
X0029309Y0054900D01*
X0029309Y0041120D01*
X0015577Y0045994D02*
X0008947Y0045994D01*
X0032262Y0070600D02*
X0048947Y0052931D01*
X0063711Y0051947D02*
X0065726Y0051947D01*
X0063711Y0051947D02*
X0068632Y0047026D01*
X0089348Y0047026D01*
X0090333Y0046041D01*
X0090333Y0041929D01*
X0090354Y0041907D01*
X0092254Y0041907D02*
X0092301Y0041955D01*
X0092301Y0048994D01*
X0089348Y0051947D01*
X0086443Y0051947D01*
X0086396Y0051947D01*
X0083443Y0048994D01*
X0074585Y0048994D01*
X0073600Y0049978D01*
X0070648Y0051947D02*
X0071632Y0052931D01*
X0079459Y0052931D01*
X0080443Y0051947D01*
X0082459Y0051947D01*
X0070648Y0051947D02*
X0069711Y0051947D01*
X0069663Y0051994D01*
X0084427Y0066663D02*
X0084427Y0068679D01*
X0091317Y0068679D02*
X0092301Y0066663D01*
X0092301Y0072663D02*
X0092301Y0075569D01*
X0100175Y0073600D02*
X0100175Y0072663D01*
X0100222Y0072616D01*
X0117939Y0062821D02*
X0130687Y0075569D01*
X0130687Y0077537D01*
X0133640Y0071632D02*
X0122813Y0060805D01*
X0122813Y0052931D01*
X0110018Y0040136D01*
X0110018Y0035215D01*
X0109049Y0034246D01*
X0103915Y0034246D01*
X0103931Y0032262D02*
X0103915Y0032246D01*
X0103931Y0032262D02*
X0111002Y0032262D01*
X0111986Y0033246D01*
X0111986Y0038167D01*
X0126258Y0052439D01*
X0133148Y0054900D02*
X0137577Y0054900D01*
X0133148Y0054900D02*
X0113955Y0036199D01*
X0113955Y0025372D01*
X0111002Y0022419D01*
X0109033Y0024388D02*
X0100175Y0015530D01*
X0091317Y0013608D02*
X0091364Y0012577D01*
X0103915Y0024585D02*
X0104112Y0024388D01*
X0103915Y0024585D02*
X0103915Y0028346D01*
X0103915Y0030246D02*
X0108096Y0030246D01*
X0109033Y0029309D01*
X0109033Y0024388D01*
X0107065Y0036199D02*
X0108049Y0037183D01*
X0108049Y0042104D01*
X0111986Y0046041D01*
X0111986Y0053868D01*
X0111939Y0053915D01*
X0117939Y0053915D02*
X0117939Y0062821D01*
X0132927Y0045057D02*
X0134624Y0043360D01*
X0134624Y0020451D01*
X0128719Y0020451D01*
X0107065Y0036199D02*
X0107018Y0036246D01*
X0103915Y0036246D01*
X0032262Y0070600D02*
X0032262Y0071632D01*
X0025234Y0082596D02*
X0024250Y0083502D01*
D27*
X0013128Y0083502D02*
X0008640Y0083443D01*
X0054250Y0083502D02*
X0065667Y0083502D01*
X0069663Y0079506D01*
X0072616Y0079506D01*
X0072616Y0069663D01*
X0075616Y0066663D01*
X0072616Y0079506D02*
X0079506Y0079506D01*
X0094270Y0079506D01*
X0100175Y0073600D01*
X0100222Y0072616D02*
X0102144Y0072616D01*
X0109033Y0065726D01*
X0125766Y0042104D02*
X0127734Y0040136D01*
X0127734Y0035215D01*
X0122766Y0030246D01*
X0119860Y0030246D01*
X0119860Y0023404D01*
X0116907Y0020451D01*
X0116907Y0017498D01*
X0111986Y0012577D01*
X0091364Y0012577D01*
X0091364Y0008687D01*
X0090333Y0007656D01*
X0082459Y0007656D01*
X0081474Y0008640D01*
X0081474Y0012577D01*
X0080490Y0013561D01*
X0074585Y0013561D01*
X0070648Y0009624D01*
X0066711Y0009624D01*
X0055884Y0020451D01*
X0053915Y0020451D01*
X0051947Y0022419D01*
X0051947Y0028278D01*
X0039947Y0019494D02*
X0039947Y0016325D01*
X0040136Y0015530D01*
X0091317Y0016514D02*
X0091317Y0013608D01*
X0091317Y0016514D02*
X0094254Y0019451D01*
X0094254Y0024585D01*
X0096254Y0024585D02*
X0096254Y0020435D01*
X0097222Y0019467D01*
X0096254Y0024585D02*
X0096254Y0033246D01*
D28*
X0095254Y0033246D01*
X0074585Y0021435D02*
X0073600Y0020451D01*
X0071632Y0020451D01*
X0070695Y0028325D02*
X0070648Y0030293D01*
X0085411Y0014545D02*
X0085364Y0013514D01*
X0085364Y0012577D01*
X0119860Y0036246D02*
X0122766Y0036246D01*
X0123797Y0036199D01*
X0137577Y0065726D02*
X0142498Y0065726D01*
X0140530Y0083443D02*
X0135608Y0083443D01*
X0102144Y0066711D02*
X0102096Y0066663D01*
X0100175Y0066663D01*
X0076553Y0072663D02*
X0076553Y0075569D01*
X0068679Y0074585D02*
X0068679Y0072663D01*
X0060805Y0072663D02*
X0060805Y0074585D01*
X0053915Y0069663D02*
X0053915Y0066758D01*
X0083490Y0083443D02*
X0086396Y0083443D01*
X0014250Y0083502D02*
X0013128Y0083502D01*
X0015986Y0019994D02*
X0009947Y0019994D01*
X0015986Y0019994D02*
X0016514Y0019467D01*
M02*
