G75*
%MOIN*%
%OFA0B0*%
%FSLAX24Y24*%
%IPPOS*%
%LPD*%
%AMOC8*
5,1,8,0,0,1.08239X$1,22.5*
%
%ADD10C,0.0050*%
D10*
X001337Y002518D02*
X003737Y002518D01*
X003737Y004918D01*
X001337Y004918D01*
X001337Y002518D01*
X004801Y002624D02*
X004801Y007978D01*
X010510Y007978D01*
X010510Y002624D01*
X004801Y002624D01*
X007483Y000766D02*
X007483Y000676D01*
X007844Y000676D01*
X007844Y000766D02*
X007844Y000585D01*
X007754Y000495D01*
X007573Y000495D01*
X007483Y000766D02*
X007573Y000856D01*
X007754Y000856D01*
X007844Y000766D01*
X008027Y000766D02*
X008027Y000495D01*
X008207Y000495D02*
X008207Y000766D01*
X008117Y000856D01*
X008027Y000766D01*
X008207Y000766D02*
X008297Y000856D01*
X008388Y000856D01*
X008388Y000495D01*
X008571Y000495D02*
X008841Y000495D01*
X008931Y000585D01*
X008841Y000676D01*
X008571Y000676D01*
X008571Y000766D02*
X008571Y000495D01*
X008571Y000766D02*
X008661Y000856D01*
X008841Y000856D01*
X009114Y000946D02*
X009205Y001036D01*
X009385Y001036D01*
X009475Y000946D01*
X009475Y000585D01*
X009385Y000495D01*
X009205Y000495D01*
X009114Y000585D01*
X009114Y000766D01*
X009295Y000766D01*
X009658Y000856D02*
X009658Y000405D01*
X009748Y000315D01*
X009839Y000315D01*
X009929Y000495D02*
X009658Y000495D01*
X009929Y000495D02*
X010019Y000585D01*
X010019Y000856D01*
X010202Y000766D02*
X010202Y000495D01*
X010202Y000766D02*
X010292Y000856D01*
X010563Y000856D01*
X010563Y000495D01*
X010745Y000495D02*
X010925Y000495D01*
X010835Y000495D02*
X010835Y000856D01*
X010925Y000856D01*
X010835Y001036D02*
X010835Y001126D01*
X011108Y001036D02*
X011469Y001036D01*
X011289Y001036D02*
X011289Y000495D01*
X011573Y002518D02*
X013973Y002518D01*
X013973Y004918D01*
X011573Y004918D01*
X011573Y002518D01*
X011573Y005274D02*
X013973Y005274D01*
X013973Y007674D01*
X011573Y007674D01*
X011573Y005274D01*
X008443Y006427D02*
X006868Y006427D01*
X006868Y006431D02*
X008443Y006431D01*
X007655Y006955D02*
X007655Y005773D01*
X007655Y005777D02*
X007655Y006958D01*
X007130Y008094D02*
X008180Y008094D01*
X008180Y008594D01*
X007130Y008594D01*
X007130Y008094D01*
X007605Y008344D02*
X007655Y008419D01*
X007655Y008269D01*
X007605Y008344D01*
X007655Y008269D02*
X007705Y008194D01*
X007705Y008494D01*
X007655Y008419D01*
X007680Y008444D02*
X007680Y008244D01*
X003737Y007674D02*
X003737Y005274D01*
X001337Y005274D01*
X001337Y007674D01*
X003737Y007674D01*
X003062Y007799D02*
X003062Y008299D01*
X002012Y008299D01*
X002012Y007799D01*
X003062Y007799D01*
X002587Y007899D02*
X002587Y008199D01*
X002537Y008124D01*
X002537Y007974D01*
X002487Y008049D01*
X002537Y008124D01*
X002562Y008149D02*
X002562Y007949D01*
X002537Y007974D02*
X002587Y007899D01*
X012248Y007799D02*
X013298Y007799D01*
X013298Y008299D01*
X012248Y008299D01*
X012248Y007799D01*
X012723Y008049D02*
X012773Y008124D01*
X012773Y007974D01*
X012723Y008049D01*
X012773Y007974D02*
X012823Y007899D01*
X012823Y008199D01*
X012773Y008124D01*
X012798Y008149D02*
X012798Y007949D01*
M02*
