%
M48
M72
T01C0.0120
T02C0.0354
T03C0.0500
%
T01
X9230Y7557
X8443Y7557
X10214Y6671
X864Y8147
X14053Y8344
X14250Y6573
X8640Y8344
X1651Y1947
X7458Y2144
X7065Y3029
X5392Y6966
X6081Y7458
X6868Y7458
X7655Y7557
X12380Y3620
X9722Y1947
X8541Y1455
X4112Y2340
X6868Y6868
X5392Y6277
X6081Y6868
X9132Y6868
X8443Y6868
X7655Y7951
X7655Y6868
X8246Y5195
X12577Y4210
X10903Y6573
X7360Y4998
X6573Y5195
X7262Y6474
X9525Y4949
X8640Y4407
X10411Y2439
X11100Y2242
X13069Y7754
X3226Y7163
X7065Y8344
X8049Y7262
X6671Y7852
X5490Y7458
X13364Y7163
X12478Y5096
X7951Y2144
X4801Y2242
X2045Y3620
X8590Y2586
X4407Y3718
X7754Y3128
X5539Y3817
X4703Y3915
X8147Y2832
X8049Y4407
X9821Y5195
X10018Y1553
X6081Y2045
T02
X13167Y1356
X11986Y1356
X6868Y1356
X5687Y1356
T03
X5293Y4506
X13293Y4506
X2445Y5099
M30
