G75*
%MOIN*%
%OFA0B0*%
%FSLAX24Y24*%
%IPPOS*%
%LPD*%
%AMOC8*
5,1,8,0,0,1.08239X$1,22.5*
%
%ADD10R,0.0138X0.0787*%
%ADD11C,0.0075*%
%ADD12R,0.1000X0.0500*%
%ADD13C,0.0800*%
%ADD14C,0.0060*%
%ADD15C,0.0240*%
%ADD16C,0.0080*%
D10*
X005864Y005888D03*
X006140Y005888D03*
X006415Y005888D03*
X006691Y005888D03*
X006966Y005888D03*
X007242Y005888D03*
X007518Y005888D03*
X007793Y005888D03*
X008069Y005888D03*
X008344Y005888D03*
X008620Y005888D03*
X008895Y005888D03*
X009171Y005888D03*
X009447Y005888D03*
D11*
X012360Y008187D02*
X012586Y008187D01*
X012586Y007911D01*
X012360Y007911D01*
X012360Y008187D01*
X012360Y007985D02*
X012586Y007985D01*
X012586Y008059D02*
X012360Y008059D01*
X012360Y008133D02*
X012586Y008133D01*
X012960Y008187D02*
X013186Y008187D01*
X013186Y007911D01*
X012960Y007911D01*
X012960Y008187D01*
X012960Y007985D02*
X013186Y007985D01*
X013186Y008059D02*
X012960Y008059D01*
X012960Y008133D02*
X013186Y008133D01*
X008068Y008482D02*
X007842Y008482D01*
X008068Y008482D02*
X008068Y008206D01*
X007842Y008206D01*
X007842Y008482D01*
X007842Y008280D02*
X008068Y008280D01*
X008068Y008354D02*
X007842Y008354D01*
X007842Y008428D02*
X008068Y008428D01*
X007468Y008482D02*
X007242Y008482D01*
X007468Y008482D02*
X007468Y008206D01*
X007242Y008206D01*
X007242Y008482D01*
X007242Y008280D02*
X007468Y008280D01*
X007468Y008354D02*
X007242Y008354D01*
X007242Y008428D02*
X007468Y008428D01*
X002950Y008187D02*
X002724Y008187D01*
X002950Y008187D02*
X002950Y007911D01*
X002724Y007911D01*
X002724Y008187D01*
X002724Y007985D02*
X002950Y007985D01*
X002950Y008059D02*
X002724Y008059D01*
X002724Y008133D02*
X002950Y008133D01*
X002350Y008187D02*
X002124Y008187D01*
X002350Y008187D02*
X002350Y007911D01*
X002124Y007911D01*
X002124Y008187D01*
X002124Y007985D02*
X002350Y007985D01*
X002350Y008059D02*
X002124Y008059D01*
X002124Y008133D02*
X002350Y008133D01*
D12*
X000912Y007324D03*
X000912Y005624D03*
X000912Y004568D03*
X000912Y002868D03*
X004163Y002868D03*
X004163Y004568D03*
X004163Y005624D03*
X004163Y007324D03*
X011148Y007324D03*
X011148Y005624D03*
X011148Y004568D03*
X011148Y002868D03*
X014399Y002868D03*
X014399Y004568D03*
X014399Y005624D03*
X014399Y007324D03*
D13*
X013293Y004506D03*
X005293Y004506D03*
D14*
X004703Y003915D02*
X005884Y002734D01*
X008049Y002734D01*
X008147Y002832D01*
X007754Y003128D02*
X007409Y003128D01*
X007212Y003325D01*
X006917Y003325D01*
X006819Y003226D01*
X006130Y003226D01*
X005539Y003817D01*
X004801Y003620D02*
X004506Y003620D01*
X004407Y003718D01*
X004801Y003620D02*
X005834Y002586D01*
X008590Y002586D01*
X007951Y002144D02*
X007655Y002439D01*
X004998Y002439D01*
X004801Y002242D01*
X006081Y002045D02*
X006868Y002045D01*
X007852Y001061D01*
X009525Y001061D01*
X010018Y001553D01*
X010657Y002193D02*
X011051Y002193D01*
X011100Y002242D01*
X010657Y002193D02*
X010411Y002439D01*
X012577Y004210D02*
X011986Y004801D01*
X011986Y006081D01*
X011691Y006376D01*
X011100Y006376D01*
X010903Y006573D01*
X009447Y005888D02*
X009447Y007340D01*
X009230Y007557D01*
X008895Y007104D02*
X008443Y007557D01*
X008049Y007262D02*
X007458Y007262D01*
X006868Y007852D01*
X006671Y007852D01*
X007065Y008344D02*
X007355Y008344D01*
X007655Y008044D02*
X007955Y008344D01*
X007655Y008044D02*
X007655Y007951D01*
X008895Y007104D02*
X008895Y005888D01*
X008620Y005888D02*
X008620Y006691D01*
X008443Y006868D01*
X009132Y006868D02*
X009171Y006809D01*
X009171Y005888D01*
X009082Y005195D02*
X009821Y005195D01*
X009525Y004949D02*
X009181Y004949D01*
X008640Y004407D01*
X008295Y004407D02*
X009082Y005195D01*
X008344Y005293D02*
X008246Y005195D01*
X007655Y005195D01*
X007518Y005332D01*
X007518Y005888D01*
X007518Y006730D01*
X007655Y006868D01*
X007262Y006474D02*
X007242Y006455D01*
X007242Y005888D01*
X006966Y005888D02*
X006966Y005293D01*
X007262Y004998D01*
X007360Y004998D01*
X006691Y005313D02*
X006573Y005195D01*
X006691Y005313D02*
X006691Y005888D01*
X006415Y005888D02*
X006415Y006415D01*
X006868Y006868D01*
X006140Y006809D02*
X006081Y006868D01*
X006140Y006809D02*
X006140Y005888D01*
X005864Y005888D02*
X005781Y005888D01*
X005392Y006277D01*
X004297Y007458D02*
X004163Y007324D01*
X004297Y007458D02*
X005490Y007458D01*
X003231Y007355D02*
X003226Y007163D01*
X003231Y007355D02*
X002837Y007749D01*
X002837Y008049D01*
X002994Y004568D02*
X004163Y004568D01*
X002994Y004568D02*
X002045Y003620D01*
X008049Y004407D02*
X008295Y004407D01*
X008344Y005293D02*
X008344Y005888D01*
X012478Y005096D02*
X013758Y005096D01*
X014286Y004568D01*
X014399Y004568D01*
X013364Y007163D02*
X013525Y007324D01*
X014399Y007324D01*
X013069Y007754D02*
X013069Y008044D01*
X013073Y008049D01*
D15*
X013069Y007754D03*
X013364Y007163D03*
X014250Y006573D03*
X012478Y005096D03*
X012577Y004210D03*
X012380Y003620D03*
X011100Y002242D03*
X010411Y002439D03*
X009722Y001947D03*
X010018Y001553D03*
X008541Y001455D03*
X007951Y002144D03*
X007458Y002144D03*
X008147Y002832D03*
X007754Y003128D03*
X007065Y003029D03*
X006081Y002045D03*
X004801Y002242D03*
X004112Y002340D03*
X004407Y003718D03*
X004703Y003915D03*
X005539Y003817D03*
X007360Y004998D03*
X006573Y005195D03*
X008049Y004407D03*
X008640Y004407D03*
X009525Y004949D03*
X009821Y005195D03*
X008246Y005195D03*
X007262Y006474D03*
X007655Y006868D03*
X008049Y007262D03*
X007655Y007557D03*
X007655Y007951D03*
X007065Y008344D03*
X006671Y007852D03*
X006868Y007458D03*
X006868Y006868D03*
X006081Y006868D03*
X005392Y006966D03*
X005490Y007458D03*
X006081Y007458D03*
X005392Y006277D03*
X003226Y007163D03*
X000864Y008147D03*
X002045Y003620D03*
X001651Y001947D03*
X008590Y002586D03*
X010903Y006573D03*
X010214Y006671D03*
X009132Y006868D03*
X008443Y006868D03*
X008443Y007557D03*
X009230Y007557D03*
X008640Y008344D03*
X014053Y008344D03*
D16*
X000897Y000455D02*
X000641Y000641D01*
X000455Y000897D01*
X000357Y001198D01*
X000345Y001356D01*
X000345Y002495D01*
X000358Y002488D01*
X000393Y002478D01*
X000872Y002478D01*
X000872Y002828D01*
X000952Y002828D01*
X000952Y002908D01*
X001552Y002908D01*
X001552Y003137D01*
X001542Y003172D01*
X001524Y003204D01*
X001498Y003230D01*
X001466Y003249D01*
X001430Y003258D01*
X000952Y003258D01*
X000952Y002908D01*
X000872Y002908D01*
X000872Y003258D01*
X000393Y003258D01*
X000358Y003249D01*
X000345Y003242D01*
X000345Y004215D01*
X000362Y004198D01*
X001461Y004198D01*
X001532Y004269D01*
X001532Y004868D01*
X001461Y004938D01*
X000362Y004938D01*
X000345Y004921D01*
X000345Y005251D01*
X000358Y005244D01*
X000393Y005234D01*
X000872Y005234D01*
X000872Y005584D01*
X000952Y005584D01*
X000952Y005664D01*
X001552Y005664D01*
X001552Y005893D01*
X001542Y005928D01*
X001524Y005960D01*
X001498Y005986D01*
X001466Y006005D01*
X001430Y006014D01*
X000952Y006014D01*
X000952Y005664D01*
X000872Y005664D01*
X000872Y006014D01*
X000393Y006014D01*
X000358Y006005D01*
X000345Y005997D01*
X000345Y006971D01*
X000362Y006954D01*
X001461Y006954D01*
X001532Y007025D01*
X001532Y007624D01*
X001461Y007694D01*
X000362Y007694D01*
X000347Y007679D01*
X000357Y007813D01*
X000455Y008114D01*
X000641Y008370D01*
X000897Y008556D01*
X001198Y008654D01*
X001356Y008666D01*
X013955Y008666D01*
X014113Y008654D01*
X014414Y008556D01*
X014669Y008370D01*
X014855Y008114D01*
X014953Y007813D01*
X014964Y007679D01*
X014949Y007694D01*
X013849Y007694D01*
X013779Y007624D01*
X013779Y007474D01*
X013463Y007474D01*
X013392Y007403D01*
X013316Y007403D01*
X013228Y007367D01*
X013161Y007299D01*
X013124Y007211D01*
X013124Y007115D01*
X013161Y007027D01*
X013228Y006960D01*
X013316Y006923D01*
X013412Y006923D01*
X013500Y006960D01*
X013567Y007027D01*
X013604Y007115D01*
X013604Y007174D01*
X013779Y007174D01*
X013779Y007025D01*
X013849Y006954D01*
X014949Y006954D01*
X014966Y006971D01*
X014966Y005997D01*
X014953Y006005D01*
X014917Y006014D01*
X014439Y006014D01*
X014439Y005664D01*
X014359Y005664D01*
X014359Y005584D01*
X014439Y005584D01*
X014439Y005234D01*
X014917Y005234D01*
X014953Y005244D01*
X014966Y005251D01*
X014966Y004921D01*
X014949Y004938D01*
X014128Y004938D01*
X013908Y005158D01*
X013820Y005246D01*
X012668Y005246D01*
X012614Y005300D01*
X012526Y005336D01*
X012430Y005336D01*
X012342Y005300D01*
X012275Y005232D01*
X012238Y005144D01*
X012238Y005049D01*
X012275Y004960D01*
X012342Y004893D01*
X012430Y004856D01*
X012526Y004856D01*
X012614Y004893D01*
X012668Y004946D01*
X012998Y004946D01*
X012852Y004800D01*
X012773Y004609D01*
X012773Y004402D01*
X012852Y004211D01*
X012998Y004065D01*
X013189Y003986D01*
X013396Y003986D01*
X013587Y004065D01*
X013734Y004211D01*
X013779Y004321D01*
X013779Y004269D01*
X013849Y004198D01*
X014949Y004198D01*
X014966Y004215D01*
X014966Y003242D01*
X014953Y003249D01*
X014917Y003258D01*
X014439Y003258D01*
X014439Y002908D01*
X014359Y002908D01*
X014359Y002828D01*
X014439Y002828D01*
X014439Y002478D01*
X014917Y002478D01*
X014953Y002488D01*
X014966Y002495D01*
X014966Y001356D01*
X014953Y001198D01*
X014855Y000897D01*
X014669Y000641D01*
X014414Y000455D01*
X014113Y000357D01*
X013955Y000345D01*
X013782Y000345D01*
X013632Y000793D01*
X013632Y000836D01*
X013611Y000857D01*
X013601Y000886D01*
X013563Y000905D01*
X013533Y000936D01*
X013503Y000936D01*
X013475Y000949D01*
X013435Y000936D01*
X011718Y000936D01*
X011678Y000949D01*
X011651Y000936D01*
X011620Y000936D01*
X011590Y000905D01*
X011552Y000886D01*
X011542Y000857D01*
X011521Y000836D01*
X011521Y000793D01*
X011371Y000345D01*
X007483Y000345D01*
X007333Y000793D01*
X007333Y000836D01*
X007312Y000857D01*
X007302Y000886D01*
X007264Y000905D01*
X007234Y000936D01*
X007203Y000936D01*
X007176Y000949D01*
X007136Y000936D01*
X005321Y000936D01*
X005280Y000949D01*
X005253Y000936D01*
X005223Y000936D01*
X005192Y000905D01*
X005154Y000886D01*
X005145Y000857D01*
X005123Y000836D01*
X005123Y000793D01*
X004974Y000345D01*
X003691Y000345D01*
X003691Y001033D01*
X003592Y001132D01*
X003341Y001132D01*
X003199Y001487D01*
X003199Y001525D01*
X003174Y001550D01*
X003161Y001583D01*
X003126Y001598D01*
X003100Y001625D01*
X003064Y001625D01*
X003032Y001639D01*
X002997Y001625D01*
X001881Y001625D01*
X001846Y001639D01*
X001813Y001625D01*
X001778Y001625D01*
X001751Y001598D01*
X001717Y001583D01*
X001703Y001550D01*
X001678Y001525D01*
X001678Y001487D01*
X001536Y001132D01*
X001286Y001132D01*
X001186Y001033D01*
X001186Y000361D01*
X000897Y000455D01*
X000851Y000489D02*
X001186Y000489D01*
X001186Y000411D02*
X001035Y000411D01*
X001186Y000568D02*
X000743Y000568D01*
X000638Y000646D02*
X001186Y000646D01*
X001186Y000725D02*
X000581Y000725D01*
X000524Y000803D02*
X001186Y000803D01*
X001186Y000882D02*
X000467Y000882D01*
X000435Y000960D02*
X001186Y000960D01*
X001192Y001039D02*
X000409Y001039D01*
X000384Y001117D02*
X001270Y001117D01*
X001562Y001196D02*
X000358Y001196D01*
X000351Y001274D02*
X001593Y001274D01*
X001624Y001353D02*
X000345Y001353D01*
X000345Y001431D02*
X001656Y001431D01*
X001678Y001510D02*
X000345Y001510D01*
X000345Y001588D02*
X001728Y001588D01*
X001750Y001947D02*
X001651Y001947D01*
X001466Y002488D02*
X001498Y002506D01*
X001524Y002532D01*
X001542Y002564D01*
X001552Y002600D01*
X001552Y002828D01*
X000952Y002828D01*
X000952Y002478D01*
X001430Y002478D01*
X001466Y002488D01*
X001521Y002530D02*
X003553Y002530D01*
X003551Y002532D02*
X003577Y002506D01*
X003609Y002488D01*
X003644Y002478D01*
X004123Y002478D01*
X004123Y002828D01*
X004203Y002828D01*
X004203Y002478D01*
X004681Y002478D01*
X004717Y002488D01*
X004749Y002506D01*
X004775Y002532D01*
X004793Y002564D01*
X004803Y002600D01*
X004803Y002828D01*
X004203Y002828D01*
X004203Y002908D01*
X004803Y002908D01*
X004803Y003137D01*
X004793Y003172D01*
X004775Y003204D01*
X004749Y003230D01*
X004717Y003249D01*
X004681Y003258D01*
X004203Y003258D01*
X004203Y002908D01*
X004123Y002908D01*
X004123Y002828D01*
X003523Y002828D01*
X003523Y002600D01*
X003532Y002564D01*
X003551Y002532D01*
X003523Y002609D02*
X001552Y002609D01*
X001552Y002687D02*
X003523Y002687D01*
X003523Y002766D02*
X001552Y002766D01*
X001552Y002923D02*
X003523Y002923D01*
X003523Y002908D02*
X004123Y002908D01*
X004123Y003258D01*
X003644Y003258D01*
X003609Y003249D01*
X003577Y003230D01*
X003551Y003204D01*
X003532Y003172D01*
X003523Y003137D01*
X003523Y002908D01*
X003523Y003001D02*
X001552Y003001D01*
X001552Y003080D02*
X003523Y003080D01*
X003528Y003158D02*
X001546Y003158D01*
X001487Y003237D02*
X003588Y003237D01*
X004123Y003237D02*
X004203Y003237D01*
X004203Y003158D02*
X004123Y003158D01*
X004123Y003080D02*
X004203Y003080D01*
X004203Y003001D02*
X004123Y003001D01*
X004123Y002923D02*
X004203Y002923D01*
X004203Y002844D02*
X005365Y002844D01*
X005443Y002766D02*
X004803Y002766D01*
X004803Y002687D02*
X005522Y002687D01*
X005600Y002609D02*
X004803Y002609D01*
X004772Y002530D02*
X004877Y002530D01*
X004829Y002482D02*
X004753Y002482D01*
X004665Y002445D01*
X004598Y002378D01*
X004561Y002290D01*
X004561Y002194D01*
X004598Y002106D01*
X004665Y002038D01*
X004753Y002002D01*
X004849Y002002D01*
X004937Y002038D01*
X005004Y002106D01*
X005041Y002194D01*
X005041Y002270D01*
X005060Y002289D01*
X007593Y002289D01*
X007711Y002171D01*
X007711Y002096D01*
X007747Y002008D01*
X007815Y001940D01*
X007903Y001904D01*
X007998Y001904D01*
X008087Y001940D01*
X008154Y002008D01*
X008191Y002096D01*
X008191Y002191D01*
X008154Y002279D01*
X008087Y002347D01*
X007998Y002384D01*
X007923Y002384D01*
X007870Y002436D01*
X008401Y002436D01*
X008454Y002383D01*
X008543Y002346D01*
X008638Y002346D01*
X008726Y002383D01*
X008794Y002450D01*
X008830Y002539D01*
X008830Y002634D01*
X008794Y002722D01*
X008726Y002790D01*
X008638Y002826D01*
X008543Y002826D01*
X008454Y002790D01*
X008401Y002736D01*
X008367Y002736D01*
X008387Y002785D01*
X008387Y002880D01*
X008351Y002968D01*
X008283Y003036D01*
X008195Y003072D01*
X008100Y003072D01*
X008011Y003036D01*
X007944Y002968D01*
X007909Y002884D01*
X005946Y002884D01*
X004943Y003887D01*
X004943Y003963D01*
X004906Y004051D01*
X004839Y004119D01*
X004750Y004155D01*
X004655Y004155D01*
X004567Y004119D01*
X004499Y004051D01*
X004463Y003963D01*
X004463Y003955D01*
X004455Y003958D01*
X004360Y003958D01*
X004271Y003922D01*
X004204Y003854D01*
X004167Y003766D01*
X004167Y003671D01*
X004204Y003582D01*
X004271Y003515D01*
X004360Y003478D01*
X004435Y003478D01*
X004444Y003470D01*
X004739Y003470D01*
X005620Y002589D01*
X004936Y002589D01*
X004829Y002482D01*
X004680Y002452D02*
X000345Y002452D01*
X000345Y002373D02*
X004596Y002373D01*
X004563Y002295D02*
X000345Y002295D01*
X000345Y002216D02*
X004561Y002216D01*
X004584Y002138D02*
X000345Y002138D01*
X000345Y002059D02*
X004644Y002059D01*
X004957Y002059D02*
X005841Y002059D01*
X005841Y002093D02*
X005841Y001997D01*
X005877Y001909D01*
X005945Y001842D01*
X006033Y001805D01*
X006128Y001805D01*
X006216Y001842D01*
X006270Y001895D01*
X006806Y001895D01*
X007040Y001660D01*
X006937Y001703D01*
X006799Y001703D01*
X006671Y001650D01*
X006574Y001553D01*
X006521Y001425D01*
X006521Y001287D01*
X006574Y001159D01*
X006671Y001062D01*
X006799Y001009D01*
X006937Y001009D01*
X007065Y001062D01*
X007162Y001159D01*
X007215Y001287D01*
X007215Y001425D01*
X007172Y001529D01*
X007790Y000911D01*
X009588Y000911D01*
X009675Y000999D01*
X009990Y001313D01*
X010065Y001313D01*
X010153Y001349D01*
X010221Y001417D01*
X010258Y001505D01*
X010258Y001601D01*
X010221Y001689D01*
X010153Y001756D01*
X010065Y001793D01*
X009970Y001793D01*
X009882Y001756D01*
X009814Y001689D01*
X009778Y001601D01*
X009778Y001525D01*
X009463Y001211D01*
X007914Y001211D01*
X007018Y002107D01*
X006930Y002195D01*
X006270Y002195D01*
X006216Y002249D01*
X006128Y002285D01*
X006033Y002285D01*
X005945Y002249D01*
X005877Y002181D01*
X005841Y002093D01*
X005859Y002138D02*
X005018Y002138D01*
X005041Y002216D02*
X005912Y002216D01*
X006249Y002216D02*
X007666Y002216D01*
X007711Y002138D02*
X006988Y002138D01*
X007066Y002059D02*
X007726Y002059D01*
X007774Y001981D02*
X007145Y001981D01*
X007223Y001902D02*
X014966Y001902D01*
X014966Y001824D02*
X007302Y001824D01*
X007380Y001745D02*
X009870Y001745D01*
X009805Y001667D02*
X007459Y001667D01*
X007537Y001588D02*
X009778Y001588D01*
X009762Y001510D02*
X007616Y001510D01*
X007694Y001431D02*
X009683Y001431D01*
X009605Y001353D02*
X007773Y001353D01*
X007851Y001274D02*
X009526Y001274D01*
X009794Y001117D02*
X011734Y001117D01*
X011692Y001159D02*
X011789Y001062D01*
X011917Y001009D01*
X012055Y001009D01*
X012183Y001062D01*
X012280Y001159D01*
X012333Y001287D01*
X012333Y001425D01*
X012280Y001553D01*
X012183Y001650D01*
X012055Y001703D01*
X011917Y001703D01*
X011789Y001650D01*
X011692Y001553D01*
X011639Y001425D01*
X011639Y001287D01*
X011692Y001159D01*
X011677Y001196D02*
X009872Y001196D01*
X009951Y001274D02*
X011644Y001274D01*
X011639Y001353D02*
X010156Y001353D01*
X010227Y001431D02*
X011641Y001431D01*
X011674Y001510D02*
X010258Y001510D01*
X010258Y001588D02*
X011727Y001588D01*
X011828Y001667D02*
X010230Y001667D01*
X010165Y001745D02*
X014966Y001745D01*
X014966Y001667D02*
X013325Y001667D01*
X013364Y001650D02*
X013236Y001703D01*
X013098Y001703D01*
X012970Y001650D01*
X012873Y001553D01*
X012820Y001425D01*
X012820Y001287D01*
X012873Y001159D01*
X012970Y001062D01*
X013098Y001009D01*
X013236Y001009D01*
X013364Y001062D01*
X013461Y001159D01*
X013514Y001287D01*
X013514Y001425D01*
X013461Y001553D01*
X013364Y001650D01*
X013426Y001588D02*
X014966Y001588D01*
X014966Y001510D02*
X013479Y001510D01*
X013512Y001431D02*
X014966Y001431D01*
X014965Y001353D02*
X013514Y001353D01*
X013509Y001274D02*
X014959Y001274D01*
X014952Y001196D02*
X013476Y001196D01*
X013419Y001117D02*
X014927Y001117D01*
X014901Y001039D02*
X013308Y001039D01*
X013027Y001039D02*
X012126Y001039D01*
X012238Y001117D02*
X012915Y001117D01*
X012858Y001196D02*
X012295Y001196D01*
X012328Y001274D02*
X012825Y001274D01*
X012820Y001353D02*
X012333Y001353D01*
X012331Y001431D02*
X012822Y001431D01*
X012855Y001510D02*
X012298Y001510D01*
X012245Y001588D02*
X012908Y001588D01*
X013009Y001667D02*
X012144Y001667D01*
X011304Y002106D02*
X011340Y002194D01*
X011340Y002290D01*
X011304Y002378D01*
X011236Y002445D01*
X011148Y002482D01*
X011108Y002482D01*
X011108Y002828D01*
X011188Y002828D01*
X011188Y002478D01*
X011666Y002478D01*
X011702Y002488D01*
X011734Y002506D01*
X011760Y002532D01*
X011778Y002564D01*
X011788Y002600D01*
X011788Y002828D01*
X011188Y002828D01*
X011188Y002908D01*
X011788Y002908D01*
X011788Y003137D01*
X011778Y003172D01*
X011760Y003204D01*
X011734Y003230D01*
X011702Y003249D01*
X011666Y003258D01*
X011188Y003258D01*
X011188Y002908D01*
X011108Y002908D01*
X011108Y002828D01*
X010508Y002828D01*
X010508Y002659D01*
X010459Y002679D01*
X010363Y002679D01*
X010275Y002642D01*
X010208Y002575D01*
X010171Y002487D01*
X010171Y002391D01*
X010208Y002303D01*
X010275Y002235D01*
X010363Y002199D01*
X010439Y002199D01*
X010507Y002131D01*
X010595Y002043D01*
X010960Y002043D01*
X010964Y002038D01*
X011052Y002002D01*
X011148Y002002D01*
X011236Y002038D01*
X011304Y002106D01*
X011317Y002138D02*
X014966Y002138D01*
X014966Y002216D02*
X011340Y002216D01*
X011338Y002295D02*
X014966Y002295D01*
X014966Y002373D02*
X011306Y002373D01*
X011221Y002452D02*
X014966Y002452D01*
X014439Y002530D02*
X014359Y002530D01*
X014359Y002478D02*
X014359Y002828D01*
X013759Y002828D01*
X013759Y002600D01*
X013769Y002564D01*
X013787Y002532D01*
X013813Y002506D01*
X013845Y002488D01*
X013881Y002478D01*
X014359Y002478D01*
X014359Y002609D02*
X014439Y002609D01*
X014439Y002687D02*
X014359Y002687D01*
X014359Y002766D02*
X014439Y002766D01*
X014359Y002844D02*
X011188Y002844D01*
X011188Y002766D02*
X011108Y002766D01*
X011108Y002844D02*
X008387Y002844D01*
X008379Y002766D02*
X008430Y002766D01*
X008370Y002923D02*
X010508Y002923D01*
X010508Y002908D02*
X011108Y002908D01*
X011108Y003258D01*
X010629Y003258D01*
X010594Y003249D01*
X010562Y003230D01*
X010536Y003204D01*
X010517Y003172D01*
X010508Y003137D01*
X010508Y002908D01*
X010508Y003001D02*
X008318Y003001D01*
X007994Y003080D02*
X007994Y003175D01*
X007957Y003264D01*
X007890Y003331D01*
X007801Y003368D01*
X007706Y003368D01*
X007618Y003331D01*
X007564Y003278D01*
X007471Y003278D01*
X007362Y003387D01*
X007275Y003475D01*
X006855Y003475D01*
X006757Y003376D01*
X006192Y003376D01*
X005779Y003789D01*
X005779Y003864D01*
X005743Y003953D01*
X005675Y004020D01*
X005591Y004055D01*
X005645Y004094D01*
X005705Y004154D01*
X005755Y004223D01*
X005793Y004298D01*
X005819Y004379D01*
X005833Y004463D01*
X005833Y004466D01*
X005333Y004466D01*
X005333Y004546D01*
X005253Y004546D01*
X005253Y005046D01*
X005250Y005046D01*
X005166Y005032D01*
X005085Y005006D01*
X005010Y004968D01*
X004941Y004918D01*
X004881Y004857D01*
X004831Y004789D01*
X004792Y004713D01*
X004783Y004684D01*
X004783Y004868D01*
X004713Y004938D01*
X003613Y004938D01*
X003543Y004868D01*
X003543Y004718D01*
X002931Y004718D01*
X002844Y004630D01*
X002073Y003860D01*
X001997Y003860D01*
X001909Y003823D01*
X001842Y003756D01*
X001805Y003668D01*
X001805Y003572D01*
X001842Y003484D01*
X001909Y003416D01*
X001997Y003380D01*
X002093Y003380D01*
X002181Y003416D01*
X002249Y003484D01*
X002285Y003572D01*
X002285Y003648D01*
X003056Y004418D01*
X003543Y004418D01*
X003543Y004269D01*
X003613Y004198D01*
X004713Y004198D01*
X004783Y004269D01*
X004783Y004328D01*
X004792Y004298D01*
X004831Y004223D01*
X004881Y004154D01*
X004941Y004094D01*
X005010Y004044D01*
X005085Y004005D01*
X005166Y003979D01*
X005250Y003966D01*
X005253Y003966D01*
X005253Y004466D01*
X005333Y004466D01*
X005333Y003966D01*
X005335Y003966D01*
X005351Y003968D01*
X005336Y003953D01*
X005299Y003864D01*
X005299Y003769D01*
X005336Y003681D01*
X005403Y003613D01*
X005491Y003577D01*
X005567Y003577D01*
X006068Y003076D01*
X006881Y003076D01*
X006969Y003164D01*
X006979Y003175D01*
X007150Y003175D01*
X007347Y002978D01*
X007564Y002978D01*
X007618Y002924D01*
X007706Y002888D01*
X007801Y002888D01*
X007890Y002924D01*
X007957Y002992D01*
X007994Y003080D01*
X010508Y003080D01*
X010514Y003158D02*
X007994Y003158D01*
X007968Y003237D02*
X010573Y003237D01*
X011108Y003237D02*
X011188Y003237D01*
X011188Y003158D02*
X011108Y003158D01*
X011108Y003080D02*
X011188Y003080D01*
X011188Y003001D02*
X011108Y003001D01*
X011108Y002923D02*
X011188Y002923D01*
X011188Y002687D02*
X011108Y002687D01*
X011108Y002609D02*
X011188Y002609D01*
X011188Y002530D02*
X011108Y002530D01*
X011257Y002059D02*
X014966Y002059D01*
X014966Y001981D02*
X008127Y001981D01*
X008175Y002059D02*
X010579Y002059D01*
X010500Y002138D02*
X008191Y002138D01*
X008180Y002216D02*
X010322Y002216D01*
X010216Y002295D02*
X008139Y002295D01*
X008024Y002373D02*
X008478Y002373D01*
X008702Y002373D02*
X010179Y002373D01*
X010171Y002452D02*
X008794Y002452D01*
X008827Y002530D02*
X010189Y002530D01*
X010242Y002609D02*
X008830Y002609D01*
X008808Y002687D02*
X010508Y002687D01*
X010508Y002766D02*
X008751Y002766D01*
X007977Y003001D02*
X007961Y003001D01*
X007925Y002923D02*
X007885Y002923D01*
X007622Y002923D02*
X005907Y002923D01*
X005829Y003001D02*
X007324Y003001D01*
X007245Y003080D02*
X006884Y003080D01*
X006963Y003158D02*
X007167Y003158D01*
X007434Y003315D02*
X007602Y003315D01*
X007356Y003394D02*
X014966Y003394D01*
X014966Y003472D02*
X007277Y003472D01*
X006852Y003472D02*
X006096Y003472D01*
X006018Y003551D02*
X014966Y003551D01*
X014966Y003629D02*
X005939Y003629D01*
X005861Y003708D02*
X014966Y003708D01*
X014966Y003786D02*
X005782Y003786D01*
X005779Y003865D02*
X014966Y003865D01*
X014966Y003943D02*
X005747Y003943D01*
X005672Y004022D02*
X012426Y004022D01*
X012441Y004007D02*
X012529Y003970D01*
X012624Y003970D01*
X012713Y004007D01*
X012780Y004074D01*
X012817Y004163D01*
X012817Y004258D01*
X012780Y004346D01*
X012713Y004414D01*
X012624Y004450D01*
X012549Y004450D01*
X012136Y004863D01*
X012136Y006143D01*
X011841Y006438D01*
X011753Y006526D01*
X011162Y006526D01*
X011143Y006545D01*
X011143Y006620D01*
X011107Y006709D01*
X011039Y006776D01*
X010951Y006813D01*
X010856Y006813D01*
X010767Y006776D01*
X010700Y006709D01*
X010663Y006620D01*
X010663Y006525D01*
X010700Y006437D01*
X010767Y006369D01*
X010856Y006333D01*
X010931Y006333D01*
X011038Y006226D01*
X011629Y006226D01*
X011836Y006018D01*
X011836Y004739D01*
X011924Y004651D01*
X012337Y004238D01*
X012337Y004163D01*
X012373Y004074D01*
X012441Y004007D01*
X012363Y004100D02*
X005651Y004100D01*
X005722Y004179D02*
X007974Y004179D01*
X008001Y004167D02*
X008097Y004167D01*
X008185Y004204D01*
X008238Y004257D01*
X008450Y004257D01*
X008436Y004271D02*
X008504Y004204D01*
X008592Y004167D01*
X008687Y004167D01*
X008776Y004204D01*
X008843Y004271D01*
X008880Y004360D01*
X008880Y004435D01*
X009243Y004799D01*
X009336Y004799D01*
X009389Y004745D01*
X009478Y004709D01*
X009573Y004709D01*
X009661Y004745D01*
X009729Y004813D01*
X009765Y004901D01*
X009765Y004958D01*
X009773Y004955D01*
X009868Y004955D01*
X009957Y004991D01*
X010024Y005059D01*
X010061Y005147D01*
X010061Y005242D01*
X010024Y005331D01*
X009957Y005398D01*
X009868Y005435D01*
X009773Y005435D01*
X009685Y005398D01*
X009631Y005345D01*
X009020Y005345D01*
X008932Y005257D01*
X008236Y004560D01*
X008185Y004611D01*
X008097Y004647D01*
X008001Y004647D01*
X007913Y004611D01*
X007846Y004543D01*
X007809Y004455D01*
X007809Y004360D01*
X007846Y004271D01*
X007913Y004204D01*
X008001Y004167D01*
X008124Y004179D02*
X008565Y004179D01*
X008714Y004179D02*
X012337Y004179D01*
X012318Y004257D02*
X011756Y004257D01*
X011768Y004269D02*
X011698Y004198D01*
X010598Y004198D01*
X010528Y004269D01*
X010528Y004868D01*
X010598Y004938D01*
X011698Y004938D01*
X011768Y004868D01*
X011768Y004269D01*
X011768Y004336D02*
X012239Y004336D01*
X012161Y004414D02*
X011768Y004414D01*
X011768Y004493D02*
X012082Y004493D01*
X012004Y004571D02*
X011768Y004571D01*
X011768Y004650D02*
X011925Y004650D01*
X011847Y004728D02*
X011768Y004728D01*
X011768Y004807D02*
X011836Y004807D01*
X011836Y004885D02*
X011751Y004885D01*
X011836Y004964D02*
X009890Y004964D01*
X010007Y005042D02*
X011836Y005042D01*
X011836Y005121D02*
X010050Y005121D01*
X010061Y005199D02*
X011836Y005199D01*
X011836Y005278D02*
X011749Y005278D01*
X011760Y005288D02*
X011778Y005320D01*
X011788Y005356D01*
X011836Y005356D01*
X011788Y005356D02*
X011788Y005584D01*
X011188Y005584D01*
X011188Y005664D01*
X011788Y005664D01*
X011788Y005893D01*
X011778Y005928D01*
X011760Y005960D01*
X011734Y005986D01*
X011702Y006005D01*
X011666Y006014D01*
X011188Y006014D01*
X011188Y005664D01*
X011108Y005664D01*
X011108Y005584D01*
X011188Y005584D01*
X011188Y005234D01*
X011666Y005234D01*
X011702Y005244D01*
X011734Y005262D01*
X011760Y005288D01*
X011788Y005435D02*
X011836Y005435D01*
X011836Y005513D02*
X011788Y005513D01*
X011836Y005592D02*
X011188Y005592D01*
X011188Y005670D02*
X011108Y005670D01*
X011108Y005664D02*
X011108Y006014D01*
X010629Y006014D01*
X010594Y006005D01*
X010562Y005986D01*
X010536Y005960D01*
X010517Y005928D01*
X010508Y005893D01*
X010508Y005664D01*
X011108Y005664D01*
X011108Y005592D02*
X009636Y005592D01*
X009636Y005670D02*
X010508Y005670D01*
X010508Y005749D02*
X009636Y005749D01*
X009636Y005827D02*
X010508Y005827D01*
X010511Y005906D02*
X009636Y005906D01*
X009636Y005984D02*
X010560Y005984D01*
X010966Y006298D02*
X009636Y006298D01*
X009636Y006331D02*
X009597Y006370D01*
X009597Y007402D01*
X009470Y007529D01*
X009470Y007605D01*
X009434Y007693D01*
X009366Y007760D01*
X009278Y007797D01*
X009182Y007797D01*
X009094Y007760D01*
X009027Y007693D01*
X008990Y007605D01*
X008990Y007509D01*
X009027Y007421D01*
X009094Y007353D01*
X009182Y007317D01*
X009258Y007317D01*
X009297Y007278D01*
X009297Y007042D01*
X009268Y007071D01*
X009179Y007108D01*
X009084Y007108D01*
X009045Y007092D01*
X009045Y007166D01*
X008683Y007529D01*
X008683Y007605D01*
X008646Y007693D01*
X008579Y007760D01*
X008490Y007797D01*
X008395Y007797D01*
X008307Y007760D01*
X008239Y007693D01*
X008203Y007605D01*
X008203Y007509D01*
X008239Y007421D01*
X008307Y007353D01*
X008395Y007317D01*
X008471Y007317D01*
X008745Y007042D01*
X008745Y006777D01*
X008683Y006840D01*
X008683Y006916D01*
X008646Y007004D01*
X008579Y007071D01*
X008490Y007108D01*
X008395Y007108D01*
X008307Y007071D01*
X008239Y007004D01*
X008203Y006916D01*
X008203Y006820D01*
X008239Y006732D01*
X008307Y006664D01*
X008395Y006628D01*
X008470Y006628D01*
X008470Y006394D01*
X008463Y006401D01*
X008226Y006401D01*
X008206Y006382D01*
X008187Y006401D01*
X007950Y006401D01*
X007944Y006395D01*
X007916Y006412D01*
X007880Y006421D01*
X007793Y006421D01*
X007706Y006421D01*
X007670Y006412D01*
X007668Y006410D01*
X007668Y006628D01*
X007703Y006628D01*
X007791Y006664D01*
X007859Y006732D01*
X007895Y006820D01*
X007895Y006916D01*
X007859Y007004D01*
X007791Y007071D01*
X007703Y007108D01*
X007608Y007108D01*
X007519Y007071D01*
X007452Y007004D01*
X007415Y006916D01*
X007415Y006840D01*
X007368Y006792D01*
X007368Y006690D01*
X007309Y006714D01*
X007214Y006714D01*
X007126Y006678D01*
X007058Y006610D01*
X007022Y006522D01*
X007022Y006426D01*
X007032Y006401D01*
X006848Y006401D01*
X006829Y006382D01*
X006809Y006401D01*
X006613Y006401D01*
X006840Y006628D01*
X006916Y006628D01*
X007004Y006664D01*
X007071Y006732D01*
X007108Y006820D01*
X007108Y006916D01*
X007071Y007004D01*
X007004Y007071D01*
X006916Y007108D01*
X006820Y007108D01*
X006732Y007071D01*
X006664Y007004D01*
X006628Y006916D01*
X006628Y006840D01*
X006290Y006502D01*
X006290Y006745D01*
X006321Y006820D01*
X006321Y006916D01*
X006284Y007004D01*
X006216Y007071D01*
X006128Y007108D01*
X006033Y007108D01*
X005945Y007071D01*
X005877Y007004D01*
X005841Y006916D01*
X005841Y006820D01*
X005877Y006732D01*
X005945Y006664D01*
X005990Y006646D01*
X005990Y006394D01*
X005983Y006401D01*
X005745Y006401D01*
X005675Y006331D01*
X005675Y006206D01*
X005632Y006249D01*
X005632Y006325D01*
X005595Y006413D01*
X005527Y006481D01*
X005439Y006517D01*
X005344Y006517D01*
X005256Y006481D01*
X005188Y006413D01*
X005152Y006325D01*
X005152Y006230D01*
X005188Y006141D01*
X005256Y006074D01*
X005344Y006037D01*
X005419Y006037D01*
X005675Y005782D01*
X005675Y005444D01*
X005745Y005374D01*
X005983Y005374D01*
X006002Y005393D01*
X006021Y005374D01*
X006258Y005374D01*
X006277Y005393D01*
X006297Y005374D01*
X006412Y005374D01*
X006369Y005331D01*
X006333Y005242D01*
X006333Y005147D01*
X006369Y005059D01*
X006437Y004991D01*
X006525Y004955D01*
X006620Y004955D01*
X006709Y004991D01*
X006776Y005059D01*
X006813Y005147D01*
X006813Y005223D01*
X006819Y005229D01*
X006904Y005143D01*
X007136Y004911D01*
X007157Y004862D01*
X007224Y004794D01*
X007312Y004758D01*
X007408Y004758D01*
X007496Y004794D01*
X007564Y004862D01*
X007600Y004950D01*
X007600Y005045D01*
X008056Y005045D01*
X008110Y004991D01*
X008198Y004955D01*
X008294Y004955D01*
X008382Y004991D01*
X008449Y005059D01*
X008486Y005147D01*
X008486Y005223D01*
X008494Y005231D01*
X008494Y005381D01*
X008501Y005374D01*
X008738Y005374D01*
X008758Y005393D01*
X008777Y005374D01*
X009014Y005374D01*
X009033Y005393D01*
X009052Y005374D01*
X009290Y005374D01*
X009309Y005393D01*
X009328Y005374D01*
X009565Y005374D01*
X009636Y005444D01*
X009636Y006331D01*
X009597Y006377D02*
X010760Y006377D01*
X010692Y006455D02*
X009597Y006455D01*
X009597Y006534D02*
X010663Y006534D01*
X010663Y006612D02*
X009597Y006612D01*
X009597Y006691D02*
X010692Y006691D01*
X010760Y006769D02*
X009597Y006769D01*
X009597Y006848D02*
X014966Y006848D01*
X014966Y006926D02*
X013419Y006926D01*
X013309Y006926D02*
X009597Y006926D01*
X009597Y007005D02*
X010548Y007005D01*
X010528Y007025D02*
X010598Y006954D01*
X011698Y006954D01*
X011768Y007025D01*
X011768Y007624D01*
X011698Y007694D01*
X010598Y007694D01*
X010528Y007624D01*
X010528Y007025D01*
X010528Y007083D02*
X009597Y007083D01*
X009597Y007162D02*
X010528Y007162D01*
X010528Y007240D02*
X009597Y007240D01*
X009597Y007319D02*
X010528Y007319D01*
X010528Y007397D02*
X009597Y007397D01*
X009524Y007476D02*
X010528Y007476D01*
X010528Y007554D02*
X009470Y007554D01*
X009459Y007633D02*
X010536Y007633D01*
X009415Y007711D02*
X012829Y007711D01*
X012829Y007706D02*
X012865Y007618D01*
X012933Y007550D01*
X013021Y007514D01*
X013116Y007514D01*
X013205Y007550D01*
X013272Y007618D01*
X013309Y007706D01*
X013309Y007801D01*
X013306Y007809D01*
X013343Y007846D01*
X013343Y008252D01*
X013251Y008344D01*
X012896Y008344D01*
X012803Y008252D01*
X012803Y007846D01*
X012834Y007815D01*
X012829Y007801D01*
X012829Y007706D01*
X012859Y007633D02*
X011759Y007633D01*
X011768Y007554D02*
X012929Y007554D01*
X012829Y007790D02*
X012715Y007790D01*
X012728Y007803D02*
X012751Y007843D01*
X012763Y007888D01*
X012763Y008014D01*
X012508Y008014D01*
X012508Y007734D01*
X012609Y007734D01*
X012654Y007746D01*
X012695Y007769D01*
X012728Y007803D01*
X012758Y007868D02*
X012803Y007868D01*
X012803Y007947D02*
X012763Y007947D01*
X012803Y008025D02*
X012508Y008025D01*
X012508Y008014D02*
X012508Y008084D01*
X012438Y008084D01*
X012438Y008014D01*
X012183Y008014D01*
X012183Y007888D01*
X012196Y007843D01*
X012219Y007803D01*
X012252Y007769D01*
X012292Y007746D01*
X012338Y007734D01*
X012438Y007734D01*
X012438Y008014D01*
X012508Y008014D01*
X012508Y007947D02*
X012438Y007947D01*
X012438Y008025D02*
X007884Y008025D01*
X007874Y008049D02*
X008133Y008049D01*
X008225Y008142D01*
X008225Y008547D01*
X008133Y008639D01*
X007778Y008639D01*
X007685Y008547D01*
X007685Y008286D01*
X007625Y008226D01*
X007625Y008547D01*
X007533Y008639D01*
X007178Y008639D01*
X007120Y008581D01*
X007113Y008584D01*
X007017Y008584D01*
X006929Y008548D01*
X006861Y008480D01*
X006825Y008392D01*
X006825Y008297D01*
X006861Y008208D01*
X006929Y008141D01*
X007017Y008104D01*
X007113Y008104D01*
X007120Y008107D01*
X007178Y008049D01*
X007436Y008049D01*
X007415Y007998D01*
X007415Y007903D01*
X007452Y007815D01*
X007519Y007747D01*
X007608Y007711D01*
X007703Y007711D01*
X007791Y007747D01*
X007859Y007815D01*
X007895Y007903D01*
X007895Y007998D01*
X007874Y008049D01*
X007895Y007947D02*
X012183Y007947D01*
X012189Y007868D02*
X007881Y007868D01*
X007834Y007790D02*
X008377Y007790D01*
X008508Y007790D02*
X009165Y007790D01*
X009296Y007790D02*
X012232Y007790D01*
X012438Y007790D02*
X012508Y007790D01*
X012508Y007868D02*
X012438Y007868D01*
X012438Y008084D02*
X012183Y008084D01*
X012183Y008210D01*
X012196Y008255D01*
X012219Y008296D01*
X012252Y008329D01*
X012292Y008352D01*
X012338Y008364D01*
X012438Y008364D01*
X012438Y008084D01*
X012438Y008104D02*
X012508Y008104D01*
X012508Y008084D02*
X012508Y008364D01*
X012609Y008364D01*
X012654Y008352D01*
X012695Y008329D01*
X012728Y008296D01*
X012751Y008255D01*
X012763Y008210D01*
X012763Y008084D01*
X012508Y008084D01*
X012508Y008182D02*
X012438Y008182D01*
X012438Y008261D02*
X012508Y008261D01*
X012508Y008339D02*
X012438Y008339D01*
X012270Y008339D02*
X008225Y008339D01*
X008225Y008261D02*
X012199Y008261D01*
X012183Y008182D02*
X008225Y008182D01*
X008187Y008104D02*
X012183Y008104D01*
X012677Y008339D02*
X012891Y008339D01*
X012812Y008261D02*
X012748Y008261D01*
X012763Y008182D02*
X012803Y008182D01*
X012803Y008104D02*
X012763Y008104D01*
X013256Y008339D02*
X014692Y008339D01*
X014749Y008261D02*
X013335Y008261D01*
X013343Y008182D02*
X014806Y008182D01*
X014859Y008104D02*
X013343Y008104D01*
X013343Y008025D02*
X014884Y008025D01*
X014910Y007947D02*
X013343Y007947D01*
X013343Y007868D02*
X014935Y007868D01*
X014955Y007790D02*
X013309Y007790D01*
X013309Y007711D02*
X014961Y007711D01*
X014604Y008418D02*
X008225Y008418D01*
X008225Y008496D02*
X014496Y008496D01*
X014357Y008575D02*
X008198Y008575D01*
X007713Y008575D02*
X007598Y008575D01*
X007625Y008496D02*
X007685Y008496D01*
X007685Y008418D02*
X007625Y008418D01*
X007625Y008339D02*
X007685Y008339D01*
X007659Y008261D02*
X007625Y008261D01*
X007426Y008025D02*
X006838Y008025D01*
X006860Y008002D02*
X006807Y008056D01*
X006719Y008092D01*
X006623Y008092D01*
X006535Y008056D01*
X006468Y007988D01*
X006431Y007900D01*
X006431Y007804D01*
X006468Y007716D01*
X006535Y007649D01*
X006623Y007612D01*
X006719Y007612D01*
X006807Y007649D01*
X006833Y007675D01*
X007396Y007112D01*
X007860Y007112D01*
X007913Y007058D01*
X008001Y007022D01*
X008097Y007022D01*
X008185Y007058D01*
X008252Y007126D01*
X008289Y007214D01*
X008289Y007309D01*
X008252Y007398D01*
X008185Y007465D01*
X008097Y007502D01*
X008001Y007502D01*
X007913Y007465D01*
X007860Y007412D01*
X007521Y007412D01*
X007018Y007914D01*
X006930Y008002D01*
X006860Y008002D01*
X006986Y007947D02*
X007415Y007947D01*
X007430Y007868D02*
X007064Y007868D01*
X007143Y007790D02*
X007477Y007790D01*
X007607Y007711D02*
X007221Y007711D01*
X007300Y007633D02*
X008214Y007633D01*
X008203Y007554D02*
X007378Y007554D01*
X007457Y007476D02*
X007938Y007476D01*
X008160Y007476D02*
X008217Y007476D01*
X008253Y007397D02*
X008263Y007397D01*
X008285Y007319D02*
X008391Y007319D01*
X008289Y007240D02*
X008547Y007240D01*
X008626Y007162D02*
X008267Y007162D01*
X008210Y007083D02*
X008335Y007083D01*
X008240Y007005D02*
X007858Y007005D01*
X007888Y007083D02*
X007763Y007083D01*
X007547Y007083D02*
X006976Y007083D01*
X007071Y007005D02*
X007453Y007005D01*
X007420Y006926D02*
X007104Y006926D01*
X007108Y006848D02*
X007415Y006848D01*
X007368Y006769D02*
X007087Y006769D01*
X007030Y006691D02*
X007157Y006691D01*
X007060Y006612D02*
X006824Y006612D01*
X006746Y006534D02*
X007026Y006534D01*
X007022Y006455D02*
X006667Y006455D01*
X006478Y006691D02*
X006290Y006691D01*
X006299Y006769D02*
X006557Y006769D01*
X006628Y006848D02*
X006321Y006848D01*
X006316Y006926D02*
X006632Y006926D01*
X006665Y007005D02*
X006283Y007005D01*
X006188Y007083D02*
X006760Y007083D01*
X006868Y007458D02*
X006868Y007557D01*
X006875Y007633D02*
X006768Y007633D01*
X006574Y007633D02*
X005655Y007633D01*
X005626Y007662D02*
X005693Y007594D01*
X005730Y007506D01*
X005730Y007411D01*
X005693Y007323D01*
X005626Y007255D01*
X005538Y007218D01*
X005442Y007218D01*
X005354Y007255D01*
X005301Y007308D01*
X004783Y007308D01*
X004783Y007025D01*
X004713Y006954D01*
X003613Y006954D01*
X003543Y007025D01*
X003543Y007624D01*
X003613Y007694D01*
X004713Y007694D01*
X004783Y007624D01*
X004783Y007608D01*
X005301Y007608D01*
X005354Y007662D01*
X005442Y007698D01*
X005538Y007698D01*
X005626Y007662D01*
X005710Y007554D02*
X006954Y007554D01*
X007032Y007476D02*
X005730Y007476D01*
X005724Y007397D02*
X007111Y007397D01*
X007189Y007319D02*
X005689Y007319D01*
X005590Y007240D02*
X007268Y007240D01*
X007346Y007162D02*
X004783Y007162D01*
X004783Y007240D02*
X005390Y007240D01*
X005392Y007065D02*
X005392Y006966D01*
X005845Y006926D02*
X003281Y006926D01*
X003274Y006923D02*
X003362Y006960D01*
X003430Y007027D01*
X003466Y007115D01*
X003466Y007211D01*
X003430Y007299D01*
X003381Y007348D01*
X003381Y007353D01*
X003382Y007414D01*
X003381Y007415D01*
X003381Y007417D01*
X003338Y007460D01*
X003297Y007504D01*
X003295Y007504D01*
X003030Y007769D01*
X003107Y007846D01*
X003107Y008252D01*
X003015Y008344D01*
X002659Y008344D01*
X002567Y008252D01*
X002567Y007846D01*
X002659Y007754D01*
X002687Y007754D01*
X002687Y007687D01*
X003049Y007325D01*
X003023Y007299D01*
X002986Y007211D01*
X002986Y007115D01*
X003023Y007027D01*
X003090Y006960D01*
X003178Y006923D01*
X003274Y006923D01*
X003172Y006926D02*
X000345Y006926D01*
X000345Y006848D02*
X005841Y006848D01*
X005862Y006769D02*
X000345Y006769D01*
X000345Y006691D02*
X005918Y006691D01*
X005990Y006612D02*
X000345Y006612D01*
X000345Y006534D02*
X005990Y006534D01*
X005990Y006455D02*
X005553Y006455D01*
X005610Y006377D02*
X005721Y006377D01*
X005675Y006298D02*
X005632Y006298D01*
X005662Y006220D02*
X005675Y006220D01*
X005473Y005984D02*
X004751Y005984D01*
X004749Y005986D02*
X004717Y006005D01*
X004681Y006014D01*
X004203Y006014D01*
X004203Y005664D01*
X004803Y005664D01*
X004803Y005893D01*
X004793Y005928D01*
X004775Y005960D01*
X004749Y005986D01*
X004799Y005906D02*
X005551Y005906D01*
X005630Y005827D02*
X004803Y005827D01*
X004803Y005749D02*
X005675Y005749D01*
X005675Y005670D02*
X004803Y005670D01*
X004803Y005584D02*
X004203Y005584D01*
X004203Y005664D01*
X004123Y005664D01*
X004123Y005584D01*
X004203Y005584D01*
X004203Y005234D01*
X004681Y005234D01*
X004717Y005244D01*
X004749Y005262D01*
X004775Y005288D01*
X004793Y005320D01*
X004803Y005356D01*
X006395Y005356D01*
X006347Y005278D02*
X004764Y005278D01*
X004803Y005356D02*
X004803Y005584D01*
X004803Y005513D02*
X005675Y005513D01*
X005675Y005592D02*
X004203Y005592D01*
X004203Y005670D02*
X004123Y005670D01*
X004123Y005664D02*
X004123Y006014D01*
X003644Y006014D01*
X003609Y006005D01*
X003577Y005986D01*
X003551Y005960D01*
X003532Y005928D01*
X003523Y005893D01*
X003523Y005664D01*
X004123Y005664D01*
X004123Y005592D02*
X000952Y005592D01*
X000952Y005584D02*
X001552Y005584D01*
X001552Y005356D01*
X002107Y005356D01*
X002089Y005337D02*
X002025Y005183D01*
X002025Y005016D01*
X002089Y004861D01*
X002207Y004743D01*
X002361Y004679D01*
X002528Y004679D01*
X002683Y004743D01*
X002801Y004861D01*
X002865Y005016D01*
X002865Y005183D01*
X002801Y005337D01*
X002683Y005455D01*
X002528Y005519D01*
X002361Y005519D01*
X002207Y005455D01*
X002089Y005337D01*
X002064Y005278D02*
X001513Y005278D01*
X001524Y005288D02*
X001542Y005320D01*
X001552Y005356D01*
X001524Y005288D02*
X001498Y005262D01*
X001466Y005244D01*
X001430Y005234D01*
X000952Y005234D01*
X000952Y005584D01*
X000952Y005513D02*
X000872Y005513D01*
X000872Y005435D02*
X000952Y005435D01*
X000952Y005356D02*
X000872Y005356D01*
X000872Y005278D02*
X000952Y005278D01*
X000952Y005670D02*
X000872Y005670D01*
X000872Y005749D02*
X000952Y005749D01*
X000952Y005827D02*
X000872Y005827D01*
X000872Y005906D02*
X000952Y005906D01*
X000952Y005984D02*
X000872Y005984D01*
X000345Y006063D02*
X005283Y006063D01*
X005188Y006141D02*
X000345Y006141D01*
X000345Y006220D02*
X005156Y006220D01*
X005152Y006298D02*
X000345Y006298D01*
X000345Y006377D02*
X005173Y006377D01*
X005230Y006455D02*
X000345Y006455D01*
X001500Y005984D02*
X003575Y005984D01*
X003526Y005906D02*
X001548Y005906D01*
X001552Y005827D02*
X003523Y005827D01*
X003523Y005749D02*
X001552Y005749D01*
X001552Y005670D02*
X003523Y005670D01*
X003523Y005584D02*
X003523Y005356D01*
X002782Y005356D01*
X002826Y005278D02*
X003562Y005278D01*
X003551Y005288D02*
X003577Y005262D01*
X003609Y005244D01*
X003644Y005234D01*
X004123Y005234D01*
X004123Y005584D01*
X003523Y005584D01*
X003523Y005513D02*
X002544Y005513D01*
X002704Y005435D02*
X003523Y005435D01*
X003523Y005356D02*
X003532Y005320D01*
X003551Y005288D01*
X004123Y005278D02*
X004203Y005278D01*
X004203Y005356D02*
X004123Y005356D01*
X004123Y005435D02*
X004203Y005435D01*
X004203Y005513D02*
X004123Y005513D01*
X004123Y005749D02*
X004203Y005749D01*
X004203Y005827D02*
X004123Y005827D01*
X004123Y005906D02*
X004203Y005906D01*
X004203Y005984D02*
X004123Y005984D01*
X004803Y005435D02*
X005685Y005435D01*
X005500Y005006D02*
X005419Y005032D01*
X005335Y005046D01*
X005333Y005046D01*
X005333Y004546D01*
X005833Y004546D01*
X005833Y004548D01*
X005819Y004632D01*
X005793Y004713D01*
X005755Y004789D01*
X005705Y004857D01*
X005645Y004918D01*
X005576Y004968D01*
X005500Y005006D01*
X005581Y004964D02*
X006504Y004964D01*
X006642Y004964D02*
X007084Y004964D01*
X007147Y004885D02*
X005677Y004885D01*
X005742Y004807D02*
X007212Y004807D01*
X007508Y004807D02*
X008482Y004807D01*
X008561Y004885D02*
X007573Y004885D01*
X007600Y004964D02*
X008177Y004964D01*
X008315Y004964D02*
X008639Y004964D01*
X008718Y005042D02*
X008433Y005042D01*
X008475Y005121D02*
X008796Y005121D01*
X008875Y005199D02*
X008486Y005199D01*
X008494Y005278D02*
X008953Y005278D01*
X008932Y005257D02*
X008932Y005257D01*
X008494Y005356D02*
X009643Y005356D01*
X009626Y005435D02*
X009773Y005435D01*
X009869Y005435D02*
X010508Y005435D01*
X010508Y005513D02*
X009636Y005513D01*
X009999Y005356D02*
X010508Y005356D01*
X010517Y005320D01*
X010536Y005288D01*
X010562Y005262D01*
X010594Y005244D01*
X010629Y005234D01*
X011108Y005234D01*
X011108Y005584D01*
X010508Y005584D01*
X010508Y005356D01*
X010547Y005278D02*
X010046Y005278D01*
X009759Y004885D02*
X010545Y004885D01*
X010528Y004807D02*
X009723Y004807D01*
X009620Y004728D02*
X010528Y004728D01*
X010528Y004650D02*
X009094Y004650D01*
X009172Y004728D02*
X009431Y004728D01*
X009015Y004571D02*
X010528Y004571D01*
X010528Y004493D02*
X008937Y004493D01*
X008880Y004414D02*
X010528Y004414D01*
X010528Y004336D02*
X008870Y004336D01*
X008829Y004257D02*
X010539Y004257D01*
X011108Y005278D02*
X011188Y005278D01*
X011188Y005356D02*
X011108Y005356D01*
X011108Y005435D02*
X011188Y005435D01*
X011188Y005513D02*
X011108Y005513D01*
X011108Y005749D02*
X011188Y005749D01*
X011188Y005827D02*
X011108Y005827D01*
X011108Y005906D02*
X011188Y005906D01*
X011188Y005984D02*
X011108Y005984D01*
X011635Y006220D02*
X009636Y006220D01*
X009636Y006141D02*
X011713Y006141D01*
X011792Y006063D02*
X009636Y006063D01*
X010214Y006671D02*
X010313Y006671D01*
X011046Y006769D02*
X014966Y006769D01*
X014966Y006691D02*
X011114Y006691D01*
X011143Y006612D02*
X014966Y006612D01*
X014966Y006534D02*
X011155Y006534D01*
X011824Y006455D02*
X014966Y006455D01*
X014966Y006377D02*
X011902Y006377D01*
X011981Y006298D02*
X014966Y006298D01*
X014966Y006220D02*
X012059Y006220D01*
X012136Y006141D02*
X014966Y006141D01*
X014966Y006063D02*
X012136Y006063D01*
X012136Y005984D02*
X013811Y005984D01*
X013813Y005986D02*
X013787Y005960D01*
X013769Y005928D01*
X013759Y005893D01*
X013759Y005664D01*
X014359Y005664D01*
X014359Y006014D01*
X013881Y006014D01*
X013845Y006005D01*
X013813Y005986D01*
X013762Y005906D02*
X012136Y005906D01*
X012136Y005827D02*
X013759Y005827D01*
X013759Y005749D02*
X012136Y005749D01*
X012136Y005670D02*
X013759Y005670D01*
X013759Y005584D02*
X013759Y005356D01*
X012136Y005356D01*
X012136Y005278D02*
X012320Y005278D01*
X012261Y005199D02*
X012136Y005199D01*
X012136Y005121D02*
X012238Y005121D01*
X012241Y005042D02*
X012136Y005042D01*
X012136Y004964D02*
X012273Y004964D01*
X012361Y004885D02*
X012136Y004885D01*
X012193Y004807D02*
X012858Y004807D01*
X012822Y004728D02*
X012271Y004728D01*
X012350Y004650D02*
X012789Y004650D01*
X012773Y004571D02*
X012428Y004571D01*
X012507Y004493D02*
X012773Y004493D01*
X012773Y004414D02*
X012712Y004414D01*
X012785Y004336D02*
X012800Y004336D01*
X012817Y004257D02*
X012833Y004257D01*
X012817Y004179D02*
X012885Y004179D01*
X012963Y004100D02*
X012791Y004100D01*
X012727Y004022D02*
X013103Y004022D01*
X013483Y004022D02*
X014966Y004022D01*
X014966Y004100D02*
X013622Y004100D01*
X013701Y004179D02*
X014966Y004179D01*
X013791Y004257D02*
X013753Y004257D01*
X012937Y004885D02*
X012595Y004885D01*
X012636Y005278D02*
X013798Y005278D01*
X013787Y005288D02*
X013813Y005262D01*
X013845Y005244D01*
X013881Y005234D01*
X014359Y005234D01*
X014359Y005584D01*
X013759Y005584D01*
X013759Y005513D02*
X012136Y005513D01*
X012136Y005435D02*
X013759Y005435D01*
X013759Y005356D02*
X013769Y005320D01*
X013787Y005288D01*
X013867Y005199D02*
X014966Y005199D01*
X014966Y005121D02*
X013946Y005121D01*
X014024Y005042D02*
X014966Y005042D01*
X014966Y004964D02*
X014103Y004964D01*
X014359Y005278D02*
X014439Y005278D01*
X014439Y005356D02*
X014359Y005356D01*
X014359Y005435D02*
X014439Y005435D01*
X014439Y005513D02*
X014359Y005513D01*
X014359Y005592D02*
X012136Y005592D01*
X011836Y005670D02*
X011788Y005670D01*
X011788Y005749D02*
X011836Y005749D01*
X011836Y005827D02*
X011788Y005827D01*
X011784Y005906D02*
X011836Y005906D01*
X011836Y005984D02*
X011736Y005984D01*
X011748Y007005D02*
X013183Y007005D01*
X013137Y007083D02*
X011768Y007083D01*
X011768Y007162D02*
X013124Y007162D01*
X013136Y007240D02*
X011768Y007240D01*
X011768Y007319D02*
X013180Y007319D01*
X013301Y007397D02*
X011768Y007397D01*
X011768Y007476D02*
X013779Y007476D01*
X013779Y007554D02*
X013208Y007554D01*
X013278Y007633D02*
X013788Y007633D01*
X013779Y007162D02*
X013604Y007162D01*
X013591Y007083D02*
X013779Y007083D01*
X013799Y007005D02*
X013545Y007005D01*
X014250Y006573D02*
X014348Y006573D01*
X014359Y005984D02*
X014439Y005984D01*
X014439Y005906D02*
X014359Y005906D01*
X014359Y005827D02*
X014439Y005827D01*
X014439Y005749D02*
X014359Y005749D01*
X014359Y005670D02*
X014439Y005670D01*
X012380Y003620D02*
X012281Y003521D01*
X011782Y003158D02*
X013765Y003158D01*
X013769Y003172D02*
X013759Y003137D01*
X013759Y002908D01*
X014359Y002908D01*
X014359Y003258D01*
X013881Y003258D01*
X013845Y003249D01*
X013813Y003230D01*
X013787Y003204D01*
X013769Y003172D01*
X013824Y003237D02*
X011723Y003237D01*
X011788Y003080D02*
X013759Y003080D01*
X013759Y003001D02*
X011788Y003001D01*
X011788Y002923D02*
X013759Y002923D01*
X013759Y002766D02*
X011788Y002766D01*
X011788Y002687D02*
X013759Y002687D01*
X013759Y002609D02*
X011788Y002609D01*
X011758Y002530D02*
X013789Y002530D01*
X014359Y002923D02*
X014439Y002923D01*
X014439Y003001D02*
X014359Y003001D01*
X014359Y003080D02*
X014439Y003080D01*
X014439Y003158D02*
X014359Y003158D01*
X014359Y003237D02*
X014439Y003237D01*
X014966Y003315D02*
X007906Y003315D01*
X006774Y003394D02*
X006175Y003394D01*
X005907Y003237D02*
X005593Y003237D01*
X005515Y003315D02*
X005829Y003315D01*
X005750Y003394D02*
X005436Y003394D01*
X005358Y003472D02*
X005672Y003472D01*
X005593Y003551D02*
X005279Y003551D01*
X005201Y003629D02*
X005387Y003629D01*
X005325Y003708D02*
X005122Y003708D01*
X005044Y003786D02*
X005299Y003786D01*
X005299Y003865D02*
X004965Y003865D01*
X004943Y003943D02*
X005332Y003943D01*
X005333Y004022D02*
X005253Y004022D01*
X005253Y004100D02*
X005333Y004100D01*
X005333Y004179D02*
X005253Y004179D01*
X005253Y004257D02*
X005333Y004257D01*
X005333Y004336D02*
X005253Y004336D01*
X005253Y004414D02*
X005333Y004414D01*
X005333Y004493D02*
X007825Y004493D01*
X007809Y004414D02*
X005825Y004414D01*
X005805Y004336D02*
X007819Y004336D01*
X007860Y004257D02*
X005772Y004257D01*
X005829Y004571D02*
X007873Y004571D01*
X008225Y004571D02*
X008247Y004571D01*
X008325Y004650D02*
X005814Y004650D01*
X005786Y004728D02*
X008404Y004728D01*
X008059Y005042D02*
X007600Y005042D01*
X007717Y005345D02*
X007708Y005354D01*
X007793Y005354D01*
X007793Y005888D01*
X007793Y006421D01*
X007793Y005888D01*
X007793Y005888D01*
X007793Y005888D01*
X007793Y005354D01*
X007880Y005354D01*
X007916Y005363D01*
X007944Y005380D01*
X007950Y005374D01*
X008086Y005374D01*
X008056Y005345D01*
X007717Y005345D01*
X007793Y005356D02*
X007793Y005356D01*
X007793Y005435D02*
X007793Y005435D01*
X007793Y005513D02*
X007793Y005513D01*
X007793Y005592D02*
X007793Y005592D01*
X007793Y005670D02*
X007793Y005670D01*
X007793Y005749D02*
X007793Y005749D01*
X007793Y005827D02*
X007793Y005827D01*
X007793Y005906D02*
X007793Y005906D01*
X007793Y005984D02*
X007793Y005984D01*
X007793Y006063D02*
X007793Y006063D01*
X007793Y006141D02*
X007793Y006141D01*
X007793Y006220D02*
X007793Y006220D01*
X007793Y006298D02*
X007793Y006298D01*
X007793Y006377D02*
X007793Y006377D01*
X007668Y006455D02*
X008470Y006455D01*
X008470Y006534D02*
X007668Y006534D01*
X007668Y006612D02*
X008470Y006612D01*
X008281Y006691D02*
X007817Y006691D01*
X007874Y006769D02*
X008224Y006769D01*
X008203Y006848D02*
X007895Y006848D01*
X007891Y006926D02*
X008207Y006926D01*
X008551Y007083D02*
X008704Y007083D01*
X008745Y007005D02*
X008646Y007005D01*
X008678Y006926D02*
X008745Y006926D01*
X008745Y006848D02*
X008683Y006848D01*
X009045Y007162D02*
X009297Y007162D01*
X009297Y007240D02*
X008972Y007240D01*
X008893Y007319D02*
X009178Y007319D01*
X009051Y007397D02*
X008815Y007397D01*
X008736Y007476D02*
X009004Y007476D01*
X008990Y007554D02*
X008683Y007554D01*
X008671Y007633D02*
X009002Y007633D01*
X009045Y007711D02*
X008628Y007711D01*
X008257Y007711D02*
X007704Y007711D01*
X007123Y008104D02*
X003107Y008104D01*
X003107Y008182D02*
X006888Y008182D01*
X006840Y008261D02*
X003098Y008261D01*
X003020Y008339D02*
X006825Y008339D01*
X006835Y008418D02*
X000706Y008418D01*
X000618Y008339D02*
X002034Y008339D01*
X002016Y008329D02*
X002056Y008352D01*
X002101Y008364D01*
X002202Y008364D01*
X002202Y008084D01*
X002202Y008014D01*
X001947Y008014D01*
X001947Y007888D01*
X001959Y007843D01*
X001983Y007803D01*
X002016Y007769D01*
X002056Y007746D01*
X002101Y007734D01*
X002202Y007734D01*
X002202Y008014D01*
X002272Y008014D01*
X002272Y007734D01*
X002373Y007734D01*
X002418Y007746D01*
X002459Y007769D01*
X002492Y007803D01*
X002515Y007843D01*
X002527Y007888D01*
X002527Y008014D01*
X002272Y008014D01*
X002272Y008084D01*
X002202Y008084D01*
X001947Y008084D01*
X001947Y008210D01*
X001959Y008255D01*
X001983Y008296D01*
X002016Y008329D01*
X001962Y008261D02*
X000561Y008261D01*
X000504Y008182D02*
X001947Y008182D01*
X001947Y008104D02*
X000452Y008104D01*
X000426Y008025D02*
X002202Y008025D01*
X002272Y008025D02*
X002567Y008025D01*
X002527Y008084D02*
X002527Y008210D01*
X002515Y008255D01*
X002492Y008296D01*
X002459Y008329D01*
X002418Y008352D01*
X002373Y008364D01*
X002272Y008364D01*
X002272Y008084D01*
X002527Y008084D01*
X002527Y008104D02*
X002567Y008104D01*
X002567Y008182D02*
X002527Y008182D01*
X002512Y008261D02*
X002576Y008261D01*
X002654Y008339D02*
X002441Y008339D01*
X002272Y008339D02*
X002202Y008339D01*
X002202Y008261D02*
X002272Y008261D01*
X002272Y008182D02*
X002202Y008182D01*
X002202Y008104D02*
X002272Y008104D01*
X002272Y007947D02*
X002202Y007947D01*
X002202Y007868D02*
X002272Y007868D01*
X002272Y007790D02*
X002202Y007790D01*
X001996Y007790D02*
X000356Y007790D01*
X000349Y007711D02*
X002687Y007711D01*
X002742Y007633D02*
X001523Y007633D01*
X001532Y007554D02*
X002820Y007554D01*
X002899Y007476D02*
X001532Y007476D01*
X001532Y007397D02*
X002977Y007397D01*
X003042Y007319D02*
X001532Y007319D01*
X001532Y007240D02*
X002998Y007240D01*
X002986Y007162D02*
X001532Y007162D01*
X001532Y007083D02*
X003000Y007083D01*
X003045Y007005D02*
X001512Y007005D01*
X002479Y007790D02*
X002624Y007790D01*
X002567Y007868D02*
X002522Y007868D01*
X002527Y007947D02*
X002567Y007947D01*
X003050Y007790D02*
X006437Y007790D01*
X006431Y007868D02*
X003107Y007868D01*
X003107Y007947D02*
X006450Y007947D01*
X006505Y008025D02*
X003107Y008025D01*
X003087Y007711D02*
X006473Y007711D01*
X005973Y007083D02*
X004783Y007083D01*
X004763Y007005D02*
X005878Y007005D01*
X006290Y006612D02*
X006400Y006612D01*
X006321Y006534D02*
X006290Y006534D01*
X007367Y006691D02*
X007368Y006691D01*
X009240Y007083D02*
X009297Y007083D01*
X008836Y008344D02*
X008640Y008344D01*
X006993Y008575D02*
X000953Y008575D01*
X000814Y008496D02*
X006877Y008496D01*
X005325Y007633D02*
X004774Y007633D01*
X003551Y007633D02*
X003166Y007633D01*
X003244Y007554D02*
X003543Y007554D01*
X003543Y007476D02*
X003324Y007476D01*
X003382Y007397D02*
X003543Y007397D01*
X003543Y007319D02*
X003410Y007319D01*
X003454Y007240D02*
X003543Y007240D01*
X003543Y007162D02*
X003466Y007162D01*
X003453Y007083D02*
X003543Y007083D01*
X003563Y007005D02*
X003407Y007005D01*
X001953Y007868D02*
X000375Y007868D01*
X000401Y007947D02*
X001947Y007947D01*
X001195Y008653D02*
X014116Y008653D01*
X014151Y008344D02*
X014053Y008344D01*
X008068Y005356D02*
X007888Y005356D01*
X007005Y005042D02*
X006759Y005042D01*
X006802Y005121D02*
X006927Y005121D01*
X006848Y005199D02*
X006813Y005199D01*
X006386Y005042D02*
X005359Y005042D01*
X005333Y005042D02*
X005253Y005042D01*
X005227Y005042D02*
X002865Y005042D01*
X002865Y005121D02*
X006344Y005121D01*
X006333Y005199D02*
X002858Y005199D01*
X002843Y004964D02*
X005004Y004964D01*
X004908Y004885D02*
X004766Y004885D01*
X004783Y004807D02*
X004844Y004807D01*
X004800Y004728D02*
X004783Y004728D01*
X005253Y004728D02*
X005333Y004728D01*
X005333Y004650D02*
X005253Y004650D01*
X005253Y004571D02*
X005333Y004571D01*
X005333Y004807D02*
X005253Y004807D01*
X005253Y004885D02*
X005333Y004885D01*
X005333Y004964D02*
X005253Y004964D01*
X004813Y004257D02*
X004771Y004257D01*
X004863Y004179D02*
X002816Y004179D01*
X002894Y004257D02*
X003554Y004257D01*
X003543Y004336D02*
X002973Y004336D01*
X003051Y004414D02*
X003543Y004414D01*
X003543Y004728D02*
X002646Y004728D01*
X002746Y004807D02*
X003543Y004807D01*
X003560Y004885D02*
X002810Y004885D01*
X002863Y004650D02*
X001532Y004650D01*
X001532Y004728D02*
X002244Y004728D01*
X002144Y004807D02*
X001532Y004807D01*
X001515Y004885D02*
X002079Y004885D01*
X002046Y004964D02*
X000345Y004964D01*
X000345Y005042D02*
X002025Y005042D01*
X002025Y005121D02*
X000345Y005121D01*
X000345Y005199D02*
X002031Y005199D01*
X002186Y005435D02*
X001552Y005435D01*
X001552Y005513D02*
X002346Y005513D01*
X002784Y004571D02*
X001532Y004571D01*
X001532Y004493D02*
X002706Y004493D01*
X002627Y004414D02*
X001532Y004414D01*
X001532Y004336D02*
X002549Y004336D01*
X002470Y004257D02*
X001520Y004257D01*
X002078Y003865D02*
X000345Y003865D01*
X000345Y003943D02*
X002156Y003943D01*
X002235Y004022D02*
X000345Y004022D01*
X000345Y004100D02*
X002313Y004100D01*
X002392Y004179D02*
X000345Y004179D01*
X000345Y003786D02*
X001872Y003786D01*
X001822Y003708D02*
X000345Y003708D01*
X000345Y003629D02*
X001805Y003629D01*
X001814Y003551D02*
X000345Y003551D01*
X000345Y003472D02*
X001854Y003472D01*
X001964Y003394D02*
X000345Y003394D01*
X000345Y003315D02*
X004894Y003315D01*
X004972Y003237D02*
X004738Y003237D01*
X004797Y003158D02*
X005051Y003158D01*
X005129Y003080D02*
X004803Y003080D01*
X004803Y003001D02*
X005208Y003001D01*
X005286Y002923D02*
X004803Y002923D01*
X004203Y002766D02*
X004123Y002766D01*
X004123Y002844D02*
X000952Y002844D01*
X000952Y002766D02*
X000872Y002766D01*
X000872Y002687D02*
X000952Y002687D01*
X000952Y002609D02*
X000872Y002609D01*
X000872Y002530D02*
X000952Y002530D01*
X000952Y002923D02*
X000872Y002923D01*
X000872Y003001D02*
X000952Y003001D01*
X000952Y003080D02*
X000872Y003080D01*
X000872Y003158D02*
X000952Y003158D01*
X000952Y003237D02*
X000872Y003237D01*
X002126Y003394D02*
X004815Y003394D01*
X004441Y003472D02*
X002237Y003472D01*
X002276Y003551D02*
X004236Y003551D01*
X004184Y003629D02*
X002285Y003629D01*
X002345Y003708D02*
X004167Y003708D01*
X004176Y003786D02*
X002423Y003786D01*
X002502Y003865D02*
X004214Y003865D01*
X004323Y003943D02*
X002580Y003943D01*
X002659Y004022D02*
X004487Y004022D01*
X004548Y004100D02*
X002737Y004100D01*
X004123Y002687D02*
X004203Y002687D01*
X004203Y002609D02*
X004123Y002609D01*
X004123Y002530D02*
X004203Y002530D01*
X004210Y002340D02*
X004112Y002340D01*
X003149Y001588D02*
X005428Y001588D01*
X005392Y001553D02*
X005490Y001650D01*
X005618Y001703D01*
X005756Y001703D01*
X005883Y001650D01*
X005981Y001553D01*
X006034Y001425D01*
X006034Y001287D01*
X005981Y001159D01*
X005883Y001062D01*
X005756Y001009D01*
X005618Y001009D01*
X005490Y001062D01*
X005392Y001159D01*
X005340Y001287D01*
X005340Y001425D01*
X005392Y001553D01*
X005375Y001510D02*
X003199Y001510D01*
X003222Y001431D02*
X005342Y001431D01*
X005340Y001353D02*
X003253Y001353D01*
X003285Y001274D02*
X005345Y001274D01*
X005378Y001196D02*
X003316Y001196D01*
X003607Y001117D02*
X005435Y001117D01*
X005546Y001039D02*
X003686Y001039D01*
X003691Y000960D02*
X007741Y000960D01*
X007662Y001039D02*
X007008Y001039D01*
X007120Y001117D02*
X007584Y001117D01*
X007505Y001196D02*
X007177Y001196D01*
X007210Y001274D02*
X007427Y001274D01*
X007348Y001353D02*
X007215Y001353D01*
X007213Y001431D02*
X007270Y001431D01*
X007191Y001510D02*
X007180Y001510D01*
X007034Y001667D02*
X007026Y001667D01*
X006956Y001745D02*
X000345Y001745D01*
X000345Y001667D02*
X005529Y001667D01*
X005845Y001667D02*
X006710Y001667D01*
X006609Y001588D02*
X005946Y001588D01*
X005999Y001510D02*
X006556Y001510D01*
X006523Y001431D02*
X006032Y001431D01*
X006034Y001353D02*
X006521Y001353D01*
X006526Y001274D02*
X006029Y001274D01*
X005996Y001196D02*
X006559Y001196D01*
X006616Y001117D02*
X005939Y001117D01*
X005827Y001039D02*
X006727Y001039D01*
X007304Y000882D02*
X011550Y000882D01*
X011521Y000803D02*
X007333Y000803D01*
X007356Y000725D02*
X011498Y000725D01*
X011472Y000646D02*
X007382Y000646D01*
X007408Y000568D02*
X011446Y000568D01*
X011419Y000489D02*
X007435Y000489D01*
X007461Y000411D02*
X011393Y000411D01*
X011846Y001039D02*
X009715Y001039D01*
X009637Y000960D02*
X014876Y000960D01*
X014844Y000882D02*
X013603Y000882D01*
X013632Y000803D02*
X014787Y000803D01*
X014730Y000725D02*
X013655Y000725D01*
X013681Y000646D02*
X014673Y000646D01*
X014568Y000568D02*
X013708Y000568D01*
X013734Y000489D02*
X014460Y000489D01*
X014276Y000411D02*
X013760Y000411D01*
X008436Y004271D02*
X008417Y004317D01*
X008357Y004257D01*
X008238Y004257D01*
X006064Y003080D02*
X005750Y003080D01*
X005672Y003158D02*
X005986Y003158D01*
X005054Y004022D02*
X004918Y004022D01*
X004935Y004100D02*
X004857Y004100D01*
X007458Y002144D02*
X007557Y002144D01*
X006877Y001824D02*
X006173Y001824D01*
X005988Y001824D02*
X000345Y001824D01*
X000345Y001902D02*
X005884Y001902D01*
X005847Y001981D02*
X000345Y001981D01*
X003691Y000882D02*
X005153Y000882D01*
X005123Y000803D02*
X003691Y000803D01*
X003691Y000725D02*
X005100Y000725D01*
X005074Y000646D02*
X003691Y000646D01*
X003691Y000568D02*
X005048Y000568D01*
X005022Y000489D02*
X003691Y000489D01*
X003691Y000411D02*
X004996Y000411D01*
X000864Y008147D02*
X000864Y008246D01*
M02*
