G75*
%MOIN*%
%OFA0B0*%
%FSLAX25Y25*%
%IPPOS*%
%LPD*%
%AMOC8*
5,1,8,0,0,1.08239X$1,22.5*
%
%ADD10R,0.01378X0.07874*%
%ADD11C,0.00750*%
%ADD12R,0.10000X0.05000*%
%ADD13C,0.08000*%
%ADD14C,0.00600*%
%ADD15C,0.02400*%
%ADD16C,0.00800*%
%ADD17C,0.01100*%
D10*
X0058577Y0062913D03*
X0061333Y0062913D03*
X0064089Y0062913D03*
X0066845Y0062913D03*
X0069601Y0062913D03*
X0072357Y0062913D03*
X0075113Y0062913D03*
X0077868Y0062913D03*
X0080624Y0062913D03*
X0083380Y0062913D03*
X0086136Y0062913D03*
X0088892Y0062913D03*
X0091648Y0062913D03*
X0094404Y0062913D03*
D11*
X0123547Y0085903D02*
X0125797Y0085903D01*
X0125797Y0083153D01*
X0123547Y0083153D01*
X0123547Y0085903D01*
X0123547Y0083902D02*
X0125797Y0083902D01*
X0125797Y0084651D02*
X0123547Y0084651D01*
X0123547Y0085400D02*
X0125797Y0085400D01*
X0129547Y0085903D02*
X0131797Y0085903D01*
X0131797Y0083153D01*
X0129547Y0083153D01*
X0129547Y0085903D01*
X0129547Y0083902D02*
X0131797Y0083902D01*
X0131797Y0084651D02*
X0129547Y0084651D01*
X0129547Y0085400D02*
X0131797Y0085400D01*
X0080615Y0088855D02*
X0078365Y0088855D01*
X0080615Y0088855D02*
X0080615Y0086105D01*
X0078365Y0086105D01*
X0078365Y0088855D01*
X0078365Y0086854D02*
X0080615Y0086854D01*
X0080615Y0087603D02*
X0078365Y0087603D01*
X0078365Y0088352D02*
X0080615Y0088352D01*
X0074615Y0088855D02*
X0072365Y0088855D01*
X0074615Y0088855D02*
X0074615Y0086105D01*
X0072365Y0086105D01*
X0072365Y0088855D01*
X0072365Y0086854D02*
X0074615Y0086854D01*
X0074615Y0087603D02*
X0072365Y0087603D01*
X0072365Y0088352D02*
X0074615Y0088352D01*
X0029434Y0085903D02*
X0027184Y0085903D01*
X0029434Y0085903D02*
X0029434Y0083153D01*
X0027184Y0083153D01*
X0027184Y0085903D01*
X0027184Y0083902D02*
X0029434Y0083902D01*
X0029434Y0084651D02*
X0027184Y0084651D01*
X0027184Y0085400D02*
X0029434Y0085400D01*
X0023434Y0085903D02*
X0021184Y0085903D01*
X0023434Y0085903D02*
X0023434Y0083153D01*
X0021184Y0083153D01*
X0021184Y0085903D01*
X0021184Y0083902D02*
X0023434Y0083902D01*
X0023434Y0084651D02*
X0021184Y0084651D01*
X0021184Y0085400D02*
X0023434Y0085400D01*
D12*
X0009053Y0077280D03*
X0009053Y0060280D03*
X0009053Y0049720D03*
X0009053Y0032720D03*
X0041565Y0032720D03*
X0041565Y0049720D03*
X0041565Y0060280D03*
X0041565Y0077280D03*
X0111416Y0077280D03*
X0111416Y0060280D03*
X0111416Y0049720D03*
X0111416Y0032720D03*
X0143927Y0032720D03*
X0143927Y0049720D03*
X0143927Y0060280D03*
X0143927Y0077280D03*
D13*
X0132864Y0049094D03*
X0052864Y0049094D03*
D14*
X0046963Y0043189D02*
X0058774Y0031378D01*
X0080427Y0031378D01*
X0081412Y0032362D01*
X0085841Y0029902D02*
X0058282Y0029902D01*
X0048931Y0039252D01*
X0047455Y0039252D01*
X0057298Y0042205D02*
X0062219Y0037283D01*
X0072061Y0037283D01*
X0074030Y0035315D01*
X0077475Y0035315D01*
X0076490Y0028425D02*
X0049916Y0028425D01*
X0047947Y0026457D01*
X0060742Y0024488D02*
X0069109Y0024488D01*
X0078951Y0014646D01*
X0095191Y0014646D01*
X0100112Y0019567D01*
X0106510Y0025965D02*
X0110447Y0025965D01*
X0110939Y0026457D01*
X0106510Y0025965D02*
X0104050Y0028425D01*
X0079443Y0025472D02*
X0076490Y0028425D01*
X0080427Y0048110D02*
X0082888Y0048110D01*
X0090762Y0055984D01*
X0098144Y0055984D01*
X0095191Y0053524D02*
X0091746Y0053524D01*
X0086333Y0048110D01*
X0082396Y0055984D02*
X0076490Y0055984D01*
X0075113Y0057362D01*
X0075113Y0062913D01*
X0075113Y0071339D01*
X0076490Y0072717D01*
X0074522Y0076654D02*
X0068616Y0082559D01*
X0066648Y0082559D01*
X0070585Y0087480D02*
X0073490Y0087480D01*
X0084364Y0079606D02*
X0088892Y0075079D01*
X0088892Y0062913D01*
X0086136Y0062913D02*
X0086136Y0070945D01*
X0084364Y0072717D01*
X0080427Y0076654D02*
X0074522Y0076654D01*
X0068616Y0072717D02*
X0064089Y0068189D01*
X0064089Y0062913D01*
X0066845Y0062913D02*
X0066845Y0057165D01*
X0065664Y0055984D01*
X0069601Y0056969D02*
X0069601Y0062913D01*
X0072357Y0062913D02*
X0072357Y0068583D01*
X0072553Y0068780D01*
X0061333Y0072126D02*
X0061333Y0062913D01*
X0058577Y0062913D02*
X0057750Y0062913D01*
X0053853Y0066811D01*
X0060742Y0072717D02*
X0061333Y0072126D01*
X0048439Y0078622D02*
X0042908Y0078622D01*
X0041565Y0077280D01*
X0032246Y0077591D02*
X0032199Y0075669D01*
X0032246Y0077591D02*
X0028309Y0081528D01*
X0028309Y0084528D01*
X0069601Y0056969D02*
X0072553Y0054016D01*
X0073538Y0054016D01*
X0082396Y0055984D02*
X0083380Y0056969D01*
X0083380Y0062913D01*
X0091648Y0062913D02*
X0091648Y0072126D01*
X0091254Y0072717D01*
X0094404Y0077441D02*
X0092238Y0079606D01*
X0094404Y0077441D02*
X0094404Y0062913D01*
X0126195Y0056476D02*
X0136038Y0056476D01*
X0142794Y0049720D01*
X0143927Y0049720D01*
X0133577Y0075669D02*
X0135187Y0077280D01*
X0143927Y0077280D01*
X0130624Y0081575D02*
X0130624Y0084480D01*
X0130672Y0084528D01*
X0041565Y0049720D02*
X0029872Y0049720D01*
X0020388Y0040236D01*
D15*
X0020388Y0040236D03*
X0016451Y0023504D03*
X0040073Y0019567D03*
X0047947Y0026457D03*
X0060742Y0024488D03*
X0074522Y0025472D03*
X0079443Y0025472D03*
X0085841Y0029902D03*
X0081412Y0032362D03*
X0077475Y0035315D03*
X0070585Y0034331D03*
X0057298Y0042205D03*
X0047455Y0039252D03*
X0046963Y0043189D03*
X0065664Y0055984D03*
X0073538Y0054016D03*
X0082396Y0055984D03*
X0080427Y0048110D03*
X0086333Y0048110D03*
X0095191Y0053524D03*
X0098144Y0055984D03*
X0108971Y0069764D03*
X0102081Y0070748D03*
X0091254Y0072717D03*
X0084364Y0072717D03*
X0080427Y0076654D03*
X0076490Y0079606D03*
X0079443Y0083543D03*
X0084364Y0079606D03*
X0092238Y0079606D03*
X0086333Y0087480D03*
X0070585Y0087480D03*
X0066648Y0082559D03*
X0068616Y0078622D03*
X0060742Y0078622D03*
X0053853Y0073701D03*
X0060742Y0072717D03*
X0068616Y0072717D03*
X0072553Y0068780D03*
X0076490Y0072717D03*
X0053853Y0066811D03*
X0048439Y0078622D03*
X0032199Y0075669D03*
X0008577Y0087480D03*
X0093223Y0039252D03*
X0097160Y0039252D03*
X0097160Y0035315D03*
X0093223Y0035315D03*
X0104050Y0028425D03*
X0110939Y0026457D03*
X0100112Y0019567D03*
X0097160Y0023504D03*
X0085349Y0018583D03*
X0123735Y0040236D03*
X0125703Y0046142D03*
X0126195Y0056476D03*
X0142435Y0069764D03*
X0133577Y0075669D03*
X0130624Y0081575D03*
X0140467Y0087480D03*
D16*
X0011798Y0007650D02*
X0008908Y0008589D01*
X0006349Y0010449D01*
X0004489Y0013008D01*
X0003512Y0016017D01*
X0003387Y0017598D01*
X0003387Y0028989D01*
X0003513Y0028916D01*
X0003869Y0028820D01*
X0008653Y0028820D01*
X0008653Y0032320D01*
X0009453Y0032320D01*
X0009453Y0028820D01*
X0014238Y0028820D01*
X0014594Y0028916D01*
X0014913Y0029100D01*
X0015174Y0029361D01*
X0015358Y0029680D01*
X0015453Y0030036D01*
X0015453Y0032320D01*
X0009453Y0032320D01*
X0009453Y0033120D01*
X0009453Y0033121D02*
X0008653Y0033121D01*
X0008653Y0036620D01*
X0003869Y0036620D01*
X0003513Y0036525D01*
X0003387Y0036452D01*
X0003387Y0046190D01*
X0003556Y0046020D01*
X0014550Y0046020D01*
X0015253Y0046723D01*
X0015253Y0052718D01*
X0014550Y0053420D01*
X0003556Y0053420D01*
X0003387Y0053251D01*
X0003387Y0056548D01*
X0003513Y0056475D01*
X0003869Y0056380D01*
X0008653Y0056380D01*
X0008653Y0059879D01*
X0009453Y0059879D01*
X0009453Y0056380D01*
X0014238Y0056380D01*
X0014594Y0056475D01*
X0014913Y0056659D01*
X0015174Y0056920D01*
X0015358Y0057239D01*
X0015453Y0057595D01*
X0015453Y0059880D01*
X0009453Y0059880D01*
X0009453Y0060679D01*
X0015453Y0060679D01*
X0015453Y0062964D01*
X0015358Y0063320D01*
X0015174Y0063639D01*
X0014913Y0063900D01*
X0014594Y0064084D01*
X0014238Y0064180D01*
X0009453Y0064180D01*
X0009453Y0060680D01*
X0008653Y0060680D01*
X0008653Y0064180D01*
X0003869Y0064180D01*
X0003513Y0064084D01*
X0003387Y0064011D01*
X0003387Y0073749D01*
X0003556Y0073580D01*
X0014550Y0073580D01*
X0015253Y0074282D01*
X0015253Y0080277D01*
X0014550Y0080980D01*
X0003556Y0080980D01*
X0003406Y0080829D01*
X0003512Y0082172D01*
X0004489Y0085181D01*
X0006349Y0087740D01*
X0008908Y0089600D01*
X0011917Y0090577D01*
X0013498Y0090702D01*
X0139483Y0090702D01*
X0141064Y0090577D01*
X0144073Y0089600D01*
X0146632Y0087740D01*
X0148492Y0085181D01*
X0149469Y0082172D01*
X0149575Y0080829D01*
X0149425Y0080980D01*
X0138430Y0080980D01*
X0137727Y0080277D01*
X0137727Y0078780D01*
X0134566Y0078780D01*
X0133856Y0078069D01*
X0133100Y0078069D01*
X0132218Y0077704D01*
X0131542Y0077029D01*
X0131177Y0076147D01*
X0131177Y0075192D01*
X0131542Y0074310D01*
X0132218Y0073635D01*
X0133100Y0073269D01*
X0134054Y0073269D01*
X0134937Y0073635D01*
X0135612Y0074310D01*
X0135977Y0075192D01*
X0135977Y0075780D01*
X0137727Y0075780D01*
X0137727Y0074282D01*
X0138430Y0073580D01*
X0149425Y0073580D01*
X0149594Y0073749D01*
X0149594Y0064011D01*
X0149468Y0064084D01*
X0149112Y0064180D01*
X0144327Y0064180D01*
X0144327Y0060680D01*
X0143527Y0060680D01*
X0143527Y0064180D01*
X0138743Y0064180D01*
X0138387Y0064084D01*
X0138068Y0063900D01*
X0137807Y0063639D01*
X0137623Y0063320D01*
X0137527Y0062964D01*
X0137527Y0060679D01*
X0143527Y0060679D01*
X0143527Y0059880D01*
X0137527Y0059880D01*
X0137527Y0057595D01*
X0137623Y0057239D01*
X0137807Y0056920D01*
X0138068Y0056659D01*
X0138387Y0056475D01*
X0138743Y0056380D01*
X0143527Y0056380D01*
X0143527Y0059879D01*
X0144327Y0059879D01*
X0144327Y0056380D01*
X0149112Y0056380D01*
X0149468Y0056475D01*
X0149594Y0056548D01*
X0149594Y0053251D01*
X0149425Y0053420D01*
X0141215Y0053420D01*
X0137538Y0057098D01*
X0136659Y0057976D01*
X0128089Y0057976D01*
X0127555Y0058511D01*
X0126673Y0058876D01*
X0125718Y0058876D01*
X0124836Y0058511D01*
X0124161Y0057836D01*
X0123795Y0056954D01*
X0123795Y0055999D01*
X0124161Y0055117D01*
X0124836Y0054442D01*
X0125718Y0054076D01*
X0126673Y0054076D01*
X0127555Y0054442D01*
X0128089Y0054976D01*
X0135416Y0054976D01*
X0137727Y0052665D01*
X0137727Y0050942D01*
X0137273Y0052040D01*
X0135810Y0053503D01*
X0133899Y0054294D01*
X0131830Y0054294D01*
X0129919Y0053503D01*
X0128456Y0052040D01*
X0127664Y0050129D01*
X0127664Y0048060D01*
X0128456Y0046149D01*
X0129919Y0044686D01*
X0131830Y0043894D01*
X0133899Y0043894D01*
X0135810Y0044686D01*
X0137273Y0046149D01*
X0137727Y0047247D01*
X0137727Y0046723D01*
X0138430Y0046020D01*
X0149425Y0046020D01*
X0149594Y0046190D01*
X0149594Y0036452D01*
X0149468Y0036525D01*
X0149112Y0036620D01*
X0144327Y0036620D01*
X0144327Y0033121D01*
X0143527Y0033121D01*
X0143527Y0036620D01*
X0138743Y0036620D01*
X0138387Y0036525D01*
X0138068Y0036341D01*
X0137807Y0036080D01*
X0137623Y0035761D01*
X0137527Y0035405D01*
X0137527Y0033120D01*
X0143527Y0033120D01*
X0143527Y0032320D01*
X0144327Y0032320D01*
X0144327Y0028820D01*
X0149112Y0028820D01*
X0149468Y0028916D01*
X0149594Y0028989D01*
X0149594Y0017598D01*
X0149469Y0016017D01*
X0148492Y0013008D01*
X0146632Y0010449D01*
X0144073Y0008589D01*
X0141064Y0007612D01*
X0139483Y0007487D01*
X0137755Y0007487D01*
X0136261Y0011969D01*
X0136261Y0012397D01*
X0136047Y0012611D01*
X0135951Y0012899D01*
X0135568Y0013090D01*
X0135265Y0013393D01*
X0134963Y0013393D01*
X0134692Y0013528D01*
X0134285Y0013393D01*
X0117121Y0013393D01*
X0116714Y0013528D01*
X0116443Y0013393D01*
X0116141Y0013393D01*
X0115838Y0013090D01*
X0115455Y0012899D01*
X0115359Y0012611D01*
X0115145Y0012397D01*
X0115145Y0011969D01*
X0113651Y0007487D01*
X0074763Y0007487D01*
X0073269Y0011969D01*
X0073269Y0012397D01*
X0073055Y0012611D01*
X0072959Y0012899D01*
X0072576Y0013090D01*
X0072273Y0013393D01*
X0071970Y0013393D01*
X0071700Y0013528D01*
X0071293Y0013393D01*
X0053144Y0013393D01*
X0052738Y0013528D01*
X0052467Y0013393D01*
X0052164Y0013393D01*
X0051861Y0013090D01*
X0051478Y0012899D01*
X0051383Y0012611D01*
X0051168Y0012397D01*
X0051168Y0011969D01*
X0049675Y0007487D01*
X0036852Y0007487D01*
X0036852Y0014366D01*
X0035856Y0015361D01*
X0033350Y0015361D01*
X0031931Y0018910D01*
X0031931Y0019287D01*
X0031679Y0019538D01*
X0031547Y0019868D01*
X0031201Y0020016D01*
X0030935Y0020283D01*
X0030580Y0020283D01*
X0030253Y0020423D01*
X0029903Y0020283D01*
X0018747Y0020283D01*
X0018397Y0020423D01*
X0018071Y0020283D01*
X0017715Y0020283D01*
X0017449Y0020016D01*
X0017103Y0019868D01*
X0016971Y0019538D01*
X0016720Y0019287D01*
X0016720Y0018910D01*
X0015300Y0015361D01*
X0012794Y0015361D01*
X0011798Y0014366D01*
X0011798Y0007650D01*
X0011798Y0008183D02*
X0010159Y0008183D01*
X0011798Y0008981D02*
X0008368Y0008981D01*
X0007269Y0009780D02*
X0011798Y0009780D01*
X0011798Y0010578D02*
X0006255Y0010578D01*
X0005674Y0011377D02*
X0011798Y0011377D01*
X0011798Y0012175D02*
X0005094Y0012175D01*
X0004514Y0012974D02*
X0011798Y0012974D01*
X0011798Y0013773D02*
X0004241Y0013773D01*
X0003982Y0014571D02*
X0012004Y0014571D01*
X0015303Y0015370D02*
X0003722Y0015370D01*
X0003500Y0016168D02*
X0015623Y0016168D01*
X0015942Y0016967D02*
X0003437Y0016967D01*
X0003387Y0017765D02*
X0016262Y0017765D01*
X0016581Y0018564D02*
X0003387Y0018564D01*
X0003387Y0019362D02*
X0016795Y0019362D01*
X0017593Y0020161D02*
X0003387Y0020161D01*
X0003387Y0020959D02*
X0055847Y0020959D01*
X0056115Y0021070D02*
X0054839Y0020542D01*
X0053862Y0019565D01*
X0053334Y0018289D01*
X0053334Y0016908D01*
X0053862Y0015632D01*
X0054839Y0014655D01*
X0056115Y0014127D01*
X0057496Y0014127D01*
X0058772Y0014655D01*
X0059749Y0015632D01*
X0060277Y0016908D01*
X0060277Y0018289D01*
X0059749Y0019565D01*
X0058772Y0020542D01*
X0057496Y0021070D01*
X0056115Y0021070D01*
X0057764Y0020959D02*
X0067658Y0020959D01*
X0067926Y0021070D02*
X0066650Y0020542D01*
X0065673Y0019565D01*
X0065145Y0018289D01*
X0065145Y0016908D01*
X0065673Y0015632D01*
X0066650Y0014655D01*
X0067926Y0014127D01*
X0069307Y0014127D01*
X0070583Y0014655D01*
X0071560Y0015632D01*
X0072088Y0016908D01*
X0072088Y0018289D01*
X0071560Y0019565D01*
X0070583Y0020542D01*
X0069307Y0021070D01*
X0067926Y0021070D01*
X0069575Y0020959D02*
X0070516Y0020959D01*
X0070964Y0020161D02*
X0071315Y0020161D01*
X0071644Y0019362D02*
X0072113Y0019362D01*
X0071974Y0018564D02*
X0072912Y0018564D01*
X0073710Y0017765D02*
X0072088Y0017765D01*
X0072088Y0016967D02*
X0074509Y0016967D01*
X0075307Y0016168D02*
X0071782Y0016168D01*
X0071297Y0015370D02*
X0076106Y0015370D01*
X0076904Y0014571D02*
X0070379Y0014571D01*
X0072808Y0012974D02*
X0115606Y0012974D01*
X0115145Y0012175D02*
X0073269Y0012175D01*
X0073466Y0011377D02*
X0114948Y0011377D01*
X0114681Y0010578D02*
X0073733Y0010578D01*
X0073999Y0009780D02*
X0114415Y0009780D01*
X0114149Y0008981D02*
X0074265Y0008981D01*
X0074531Y0008183D02*
X0113883Y0008183D01*
X0117831Y0014655D02*
X0119107Y0014127D01*
X0120488Y0014127D01*
X0121764Y0014655D01*
X0122741Y0015632D01*
X0123269Y0016908D01*
X0123269Y0018289D01*
X0122741Y0019565D01*
X0121764Y0020542D01*
X0120488Y0021070D01*
X0119107Y0021070D01*
X0117831Y0020542D01*
X0116854Y0019565D01*
X0116326Y0018289D01*
X0116326Y0016908D01*
X0116854Y0015632D01*
X0117831Y0014655D01*
X0118034Y0014571D02*
X0097238Y0014571D01*
X0096691Y0014024D02*
X0095813Y0013146D01*
X0078330Y0013146D01*
X0068487Y0022988D01*
X0062637Y0022988D01*
X0062102Y0022454D01*
X0061220Y0022088D01*
X0060265Y0022088D01*
X0059383Y0022454D01*
X0058708Y0023129D01*
X0058342Y0024011D01*
X0058342Y0024966D01*
X0058708Y0025848D01*
X0059383Y0026523D01*
X0060265Y0026888D01*
X0061220Y0026888D01*
X0062102Y0026523D01*
X0062637Y0025988D01*
X0069730Y0025988D01*
X0070609Y0025110D01*
X0079572Y0016146D01*
X0094570Y0016146D01*
X0097712Y0019288D01*
X0097712Y0020044D01*
X0098078Y0020926D01*
X0098753Y0021602D01*
X0099635Y0021967D01*
X0100590Y0021967D01*
X0101472Y0021602D01*
X0102147Y0020926D01*
X0102512Y0020044D01*
X0102512Y0019090D01*
X0102147Y0018207D01*
X0101472Y0017532D01*
X0100590Y0017167D01*
X0099834Y0017167D01*
X0096691Y0014024D01*
X0096439Y0013773D02*
X0148740Y0013773D01*
X0148999Y0014571D02*
X0133372Y0014571D01*
X0133575Y0014655D02*
X0134552Y0015632D01*
X0135080Y0016908D01*
X0135080Y0018289D01*
X0134552Y0019565D01*
X0133575Y0020542D01*
X0132299Y0021070D01*
X0130918Y0021070D01*
X0129642Y0020542D01*
X0128665Y0019565D01*
X0128137Y0018289D01*
X0128137Y0016908D01*
X0128665Y0015632D01*
X0129642Y0014655D01*
X0130918Y0014127D01*
X0132299Y0014127D01*
X0133575Y0014655D01*
X0134289Y0015370D02*
X0149259Y0015370D01*
X0149481Y0016168D02*
X0134774Y0016168D01*
X0135080Y0016967D02*
X0149544Y0016967D01*
X0149594Y0017765D02*
X0135080Y0017765D01*
X0134966Y0018564D02*
X0149594Y0018564D01*
X0149594Y0019362D02*
X0134636Y0019362D01*
X0133956Y0020161D02*
X0149594Y0020161D01*
X0149594Y0020959D02*
X0132567Y0020959D01*
X0130650Y0020959D02*
X0120756Y0020959D01*
X0122145Y0020161D02*
X0129261Y0020161D01*
X0128581Y0019362D02*
X0122825Y0019362D01*
X0123155Y0018564D02*
X0128251Y0018564D01*
X0128137Y0017765D02*
X0123269Y0017765D01*
X0123269Y0016967D02*
X0128137Y0016967D01*
X0128443Y0016168D02*
X0122963Y0016168D01*
X0122478Y0015370D02*
X0128928Y0015370D01*
X0129845Y0014571D02*
X0121561Y0014571D01*
X0117117Y0015370D02*
X0098036Y0015370D01*
X0098835Y0016168D02*
X0116632Y0016168D01*
X0116326Y0016967D02*
X0099633Y0016967D01*
X0101705Y0017765D02*
X0116326Y0017765D01*
X0116440Y0018564D02*
X0102295Y0018564D01*
X0102512Y0019362D02*
X0116770Y0019362D01*
X0117450Y0020161D02*
X0102464Y0020161D01*
X0102114Y0020959D02*
X0118839Y0020959D01*
X0112974Y0025097D02*
X0113339Y0025979D01*
X0113339Y0026934D01*
X0112974Y0027816D01*
X0112299Y0028491D01*
X0111417Y0028857D01*
X0111016Y0028857D01*
X0111016Y0032320D01*
X0111816Y0032320D01*
X0111816Y0033120D01*
X0117816Y0033120D01*
X0117816Y0035405D01*
X0117720Y0035761D01*
X0117536Y0036080D01*
X0117275Y0036341D01*
X0116956Y0036525D01*
X0116600Y0036620D01*
X0111816Y0036620D01*
X0111816Y0033121D01*
X0111016Y0033121D01*
X0111016Y0036620D01*
X0106231Y0036620D01*
X0105875Y0036525D01*
X0105556Y0036341D01*
X0105295Y0036080D01*
X0105111Y0035761D01*
X0105016Y0035405D01*
X0105016Y0033120D01*
X0111016Y0033120D01*
X0111016Y0032320D01*
X0105016Y0032320D01*
X0105016Y0030623D01*
X0104527Y0030825D01*
X0103572Y0030825D01*
X0102690Y0030460D01*
X0102015Y0029785D01*
X0101650Y0028903D01*
X0101650Y0027948D01*
X0102015Y0027066D01*
X0102690Y0026391D01*
X0103572Y0026025D01*
X0104328Y0026025D01*
X0105010Y0025343D01*
X0105889Y0024465D01*
X0109537Y0024465D01*
X0109580Y0024422D01*
X0110462Y0024057D01*
X0111417Y0024057D01*
X0112299Y0024422D01*
X0112974Y0025097D01*
X0112828Y0024952D02*
X0149594Y0024952D01*
X0149594Y0025750D02*
X0113244Y0025750D01*
X0113339Y0026549D02*
X0149594Y0026549D01*
X0149594Y0027347D02*
X0113168Y0027347D01*
X0112644Y0028146D02*
X0149594Y0028146D01*
X0149594Y0028944D02*
X0149517Y0028944D01*
X0144327Y0028944D02*
X0143527Y0028944D01*
X0143527Y0028820D02*
X0143527Y0032320D01*
X0137527Y0032320D01*
X0137527Y0030036D01*
X0137623Y0029680D01*
X0137807Y0029361D01*
X0138068Y0029100D01*
X0138387Y0028916D01*
X0138743Y0028820D01*
X0143527Y0028820D01*
X0143527Y0029743D02*
X0144327Y0029743D01*
X0144327Y0030541D02*
X0143527Y0030541D01*
X0143527Y0031340D02*
X0144327Y0031340D01*
X0144327Y0032138D02*
X0143527Y0032138D01*
X0143527Y0032937D02*
X0111816Y0032937D01*
X0111816Y0032320D02*
X0117816Y0032320D01*
X0117816Y0030036D01*
X0117720Y0029680D01*
X0117536Y0029361D01*
X0117275Y0029100D01*
X0116956Y0028916D01*
X0116600Y0028820D01*
X0111816Y0028820D01*
X0111816Y0032320D01*
X0111816Y0032138D02*
X0111016Y0032138D01*
X0111016Y0031340D02*
X0111816Y0031340D01*
X0111816Y0030541D02*
X0111016Y0030541D01*
X0111016Y0029743D02*
X0111816Y0029743D01*
X0111816Y0028944D02*
X0111016Y0028944D01*
X0111016Y0032937D02*
X0083771Y0032937D01*
X0083812Y0032840D02*
X0083446Y0033722D01*
X0082771Y0034397D01*
X0081889Y0034762D01*
X0080934Y0034762D01*
X0080052Y0034397D01*
X0079377Y0033722D01*
X0079028Y0032878D01*
X0059395Y0032878D01*
X0049363Y0042910D01*
X0049363Y0043666D01*
X0048998Y0044548D01*
X0048322Y0045224D01*
X0047440Y0045589D01*
X0046485Y0045589D01*
X0045603Y0045224D01*
X0044928Y0044548D01*
X0044563Y0043666D01*
X0044563Y0042712D01*
X0044928Y0041829D01*
X0045603Y0041154D01*
X0045858Y0041049D01*
X0045420Y0040611D01*
X0045055Y0039729D01*
X0045055Y0038775D01*
X0045420Y0037892D01*
X0046096Y0037217D01*
X0046978Y0036852D01*
X0047932Y0036852D01*
X0048815Y0037217D01*
X0048830Y0037232D01*
X0056137Y0029925D01*
X0049294Y0029925D01*
X0048226Y0028857D01*
X0047470Y0028857D01*
X0046588Y0028491D01*
X0045913Y0027816D01*
X0045547Y0026934D01*
X0045547Y0025979D01*
X0045913Y0025097D01*
X0046588Y0024422D01*
X0047470Y0024057D01*
X0048425Y0024057D01*
X0049307Y0024422D01*
X0049982Y0025097D01*
X0050347Y0025979D01*
X0050347Y0026735D01*
X0050537Y0026925D01*
X0075869Y0026925D01*
X0077043Y0025751D01*
X0077043Y0024995D01*
X0077409Y0024113D01*
X0078084Y0023438D01*
X0078966Y0023072D01*
X0079921Y0023072D01*
X0080803Y0023438D01*
X0081478Y0024113D01*
X0081843Y0024995D01*
X0081843Y0025950D01*
X0081478Y0026832D01*
X0080803Y0027507D01*
X0079921Y0027872D01*
X0079165Y0027872D01*
X0078635Y0028402D01*
X0083947Y0028402D01*
X0084481Y0027867D01*
X0085363Y0027502D01*
X0086318Y0027502D01*
X0087200Y0027867D01*
X0087875Y0028542D01*
X0088241Y0029424D01*
X0088241Y0030379D01*
X0087875Y0031261D01*
X0087200Y0031936D01*
X0086318Y0032302D01*
X0085363Y0032302D01*
X0084481Y0031936D01*
X0083947Y0031402D01*
X0083612Y0031402D01*
X0083812Y0031885D01*
X0083812Y0032840D01*
X0083812Y0032138D02*
X0084969Y0032138D01*
X0086712Y0032138D02*
X0105016Y0032138D01*
X0105016Y0031340D02*
X0087797Y0031340D01*
X0088174Y0030541D02*
X0102887Y0030541D01*
X0101998Y0029743D02*
X0088241Y0029743D01*
X0088042Y0028944D02*
X0101667Y0028944D01*
X0101650Y0028146D02*
X0087479Y0028146D01*
X0084203Y0028146D02*
X0078891Y0028146D01*
X0080963Y0027347D02*
X0101898Y0027347D01*
X0102532Y0026549D02*
X0081595Y0026549D01*
X0081843Y0025750D02*
X0104603Y0025750D01*
X0105402Y0024952D02*
X0081825Y0024952D01*
X0081494Y0024153D02*
X0110229Y0024153D01*
X0111650Y0024153D02*
X0149594Y0024153D01*
X0149594Y0023355D02*
X0080602Y0023355D01*
X0078284Y0023355D02*
X0072363Y0023355D01*
X0071565Y0024153D02*
X0077392Y0024153D01*
X0077061Y0024952D02*
X0070766Y0024952D01*
X0069968Y0025750D02*
X0077043Y0025750D01*
X0076246Y0026549D02*
X0062039Y0026549D01*
X0059445Y0026549D02*
X0050347Y0026549D01*
X0050252Y0025750D02*
X0058667Y0025750D01*
X0058342Y0024952D02*
X0049836Y0024952D01*
X0048657Y0024153D02*
X0058342Y0024153D01*
X0058614Y0023355D02*
X0003387Y0023355D01*
X0003387Y0024153D02*
X0047237Y0024153D01*
X0046058Y0024952D02*
X0003387Y0024952D01*
X0003387Y0025750D02*
X0045642Y0025750D01*
X0045547Y0026549D02*
X0003387Y0026549D01*
X0003387Y0027347D02*
X0045718Y0027347D01*
X0046242Y0028146D02*
X0003387Y0028146D01*
X0003387Y0028944D02*
X0003464Y0028944D01*
X0008653Y0028944D02*
X0009453Y0028944D01*
X0009453Y0029743D02*
X0008653Y0029743D01*
X0008653Y0030541D02*
X0009453Y0030541D01*
X0009453Y0031340D02*
X0008653Y0031340D01*
X0008653Y0032138D02*
X0009453Y0032138D01*
X0009453Y0032937D02*
X0041165Y0032937D01*
X0041165Y0033120D02*
X0041165Y0032320D01*
X0041965Y0032320D01*
X0041965Y0028820D01*
X0046750Y0028820D01*
X0047106Y0028916D01*
X0047425Y0029100D01*
X0047686Y0029361D01*
X0047870Y0029680D01*
X0047965Y0030036D01*
X0047965Y0032320D01*
X0041965Y0032320D01*
X0041965Y0033120D01*
X0047965Y0033120D01*
X0047965Y0035405D01*
X0047870Y0035761D01*
X0047686Y0036080D01*
X0047425Y0036341D01*
X0047106Y0036525D01*
X0046750Y0036620D01*
X0041965Y0036620D01*
X0041965Y0033121D01*
X0041165Y0033121D01*
X0041165Y0036620D01*
X0036381Y0036620D01*
X0036025Y0036525D01*
X0035706Y0036341D01*
X0035445Y0036080D01*
X0035261Y0035761D01*
X0035165Y0035405D01*
X0035165Y0033120D01*
X0041165Y0033120D01*
X0041165Y0033735D02*
X0041965Y0033735D01*
X0041965Y0032937D02*
X0053125Y0032937D01*
X0052327Y0033735D02*
X0047965Y0033735D01*
X0047965Y0034534D02*
X0051528Y0034534D01*
X0050730Y0035332D02*
X0047965Y0035332D01*
X0047635Y0036131D02*
X0049931Y0036131D01*
X0049133Y0036929D02*
X0048119Y0036929D01*
X0046791Y0036929D02*
X0003387Y0036929D01*
X0003387Y0037728D02*
X0045585Y0037728D01*
X0045158Y0038526D02*
X0022072Y0038526D01*
X0021748Y0038202D02*
X0022423Y0038877D01*
X0022788Y0039759D01*
X0022788Y0040515D01*
X0030494Y0048220D01*
X0035365Y0048220D01*
X0035365Y0046723D01*
X0036068Y0046020D01*
X0047062Y0046020D01*
X0047765Y0046723D01*
X0047765Y0047314D01*
X0047860Y0047022D01*
X0048246Y0046264D01*
X0048746Y0045577D01*
X0049347Y0044976D01*
X0050034Y0044476D01*
X0050792Y0044090D01*
X0051600Y0043827D01*
X0052439Y0043694D01*
X0052464Y0043694D01*
X0052464Y0048694D01*
X0053264Y0048694D01*
X0053264Y0043694D01*
X0053289Y0043694D01*
X0054129Y0043827D01*
X0054937Y0044090D01*
X0055695Y0044476D01*
X0056382Y0044976D01*
X0056983Y0045577D01*
X0057483Y0046264D01*
X0057869Y0047022D01*
X0058131Y0047830D01*
X0058264Y0048669D01*
X0058264Y0048694D01*
X0053265Y0048694D01*
X0053265Y0049494D01*
X0058264Y0049494D01*
X0058264Y0049519D01*
X0058131Y0050359D01*
X0057869Y0051167D01*
X0057483Y0051925D01*
X0056983Y0052612D01*
X0056382Y0053213D01*
X0055695Y0053713D01*
X0054937Y0054099D01*
X0054129Y0054362D01*
X0053289Y0054494D01*
X0053264Y0054494D01*
X0053264Y0049495D01*
X0052464Y0049495D01*
X0052464Y0054494D01*
X0052439Y0054494D01*
X0051600Y0054362D01*
X0050792Y0054099D01*
X0050034Y0053713D01*
X0049347Y0053213D01*
X0048746Y0052612D01*
X0048246Y0051925D01*
X0047860Y0051167D01*
X0047765Y0050875D01*
X0047765Y0052718D01*
X0047062Y0053420D01*
X0036068Y0053420D01*
X0035365Y0052718D01*
X0035365Y0051220D01*
X0029251Y0051220D01*
X0028372Y0050342D01*
X0020667Y0042636D01*
X0019911Y0042636D01*
X0019029Y0042271D01*
X0018353Y0041596D01*
X0017988Y0040714D01*
X0017988Y0039759D01*
X0018353Y0038877D01*
X0019029Y0038202D01*
X0019911Y0037836D01*
X0020865Y0037836D01*
X0021748Y0038202D01*
X0022608Y0039325D02*
X0045055Y0039325D01*
X0045218Y0040123D02*
X0022788Y0040123D01*
X0023195Y0040922D02*
X0045731Y0040922D01*
X0045037Y0041720D02*
X0023994Y0041720D01*
X0024792Y0042519D02*
X0044643Y0042519D01*
X0044563Y0043317D02*
X0025591Y0043317D01*
X0026389Y0044116D02*
X0044749Y0044116D01*
X0045294Y0044914D02*
X0027188Y0044914D01*
X0027986Y0045713D02*
X0048647Y0045713D01*
X0048632Y0044914D02*
X0049431Y0044914D01*
X0049177Y0044116D02*
X0050741Y0044116D01*
X0049363Y0043317D02*
X0055161Y0043317D01*
X0055263Y0043564D02*
X0054898Y0042682D01*
X0054898Y0041727D01*
X0055263Y0040845D01*
X0055938Y0040170D01*
X0056820Y0039805D01*
X0057576Y0039805D01*
X0061597Y0035783D01*
X0071440Y0035783D01*
X0073408Y0033815D01*
X0075581Y0033815D01*
X0076115Y0033280D01*
X0076997Y0032915D01*
X0077952Y0032915D01*
X0078834Y0033280D01*
X0079509Y0033955D01*
X0079875Y0034838D01*
X0079875Y0035792D01*
X0079509Y0036674D01*
X0078834Y0037350D01*
X0077952Y0037715D01*
X0076997Y0037715D01*
X0076115Y0037350D01*
X0075581Y0036815D01*
X0074651Y0036815D01*
X0073561Y0037905D01*
X0072683Y0038783D01*
X0062840Y0038783D01*
X0059698Y0041926D01*
X0059698Y0042682D01*
X0059332Y0043564D01*
X0058657Y0044239D01*
X0057775Y0044605D01*
X0056820Y0044605D01*
X0055938Y0044239D01*
X0055263Y0043564D01*
X0054988Y0044116D02*
X0055815Y0044116D01*
X0056298Y0044914D02*
X0123614Y0044914D01*
X0123668Y0044782D02*
X0124344Y0044107D01*
X0125226Y0043742D01*
X0126180Y0043742D01*
X0127063Y0044107D01*
X0127738Y0044782D01*
X0128103Y0045664D01*
X0128103Y0046619D01*
X0127738Y0047501D01*
X0127063Y0048176D01*
X0126180Y0048542D01*
X0125778Y0048542D01*
X0122532Y0051788D01*
X0122532Y0064583D01*
X0118595Y0068520D01*
X0117570Y0069545D01*
X0111664Y0069545D01*
X0111371Y0069839D01*
X0111371Y0070241D01*
X0111005Y0071123D01*
X0110330Y0071798D01*
X0109448Y0072164D01*
X0108493Y0072164D01*
X0107611Y0071798D01*
X0106936Y0071123D01*
X0106571Y0070241D01*
X0106571Y0069286D01*
X0106936Y0068404D01*
X0107611Y0067729D01*
X0108493Y0067364D01*
X0108896Y0067364D01*
X0110214Y0066045D01*
X0116120Y0066045D01*
X0119032Y0063133D01*
X0119032Y0050338D01*
X0120057Y0049313D01*
X0123303Y0046067D01*
X0123303Y0045664D01*
X0123668Y0044782D01*
X0124335Y0044116D02*
X0058780Y0044116D01*
X0059434Y0043317D02*
X0149594Y0043317D01*
X0149594Y0042519D02*
X0059698Y0042519D01*
X0059903Y0041720D02*
X0149594Y0041720D01*
X0149594Y0040922D02*
X0060702Y0040922D01*
X0061500Y0040123D02*
X0149594Y0040123D01*
X0149594Y0039325D02*
X0062299Y0039325D01*
X0060452Y0036929D02*
X0055344Y0036929D01*
X0056142Y0036131D02*
X0061250Y0036131D01*
X0059653Y0037728D02*
X0054545Y0037728D01*
X0053747Y0038526D02*
X0058855Y0038526D01*
X0058056Y0039325D02*
X0052948Y0039325D01*
X0052150Y0040123D02*
X0056051Y0040123D01*
X0055231Y0040922D02*
X0051351Y0040922D01*
X0050553Y0041720D02*
X0054900Y0041720D01*
X0054898Y0042519D02*
X0049754Y0042519D01*
X0052464Y0044116D02*
X0053264Y0044116D01*
X0053264Y0044914D02*
X0052464Y0044914D01*
X0052464Y0045713D02*
X0053264Y0045713D01*
X0053264Y0046511D02*
X0052464Y0046511D01*
X0052464Y0047310D02*
X0053264Y0047310D01*
X0053264Y0048109D02*
X0052464Y0048109D01*
X0053265Y0048907D02*
X0078160Y0048907D01*
X0078027Y0048588D02*
X0078027Y0047633D01*
X0078393Y0046751D01*
X0079068Y0046076D01*
X0079950Y0045710D01*
X0080905Y0045710D01*
X0081787Y0046076D01*
X0082322Y0046610D01*
X0083509Y0046610D01*
X0084108Y0047209D01*
X0084298Y0046751D01*
X0084973Y0046076D01*
X0085856Y0045710D01*
X0086810Y0045710D01*
X0087692Y0046076D01*
X0088368Y0046751D01*
X0088733Y0047633D01*
X0088733Y0048389D01*
X0092368Y0052024D01*
X0093297Y0052024D01*
X0093832Y0051489D01*
X0094714Y0051124D01*
X0095669Y0051124D01*
X0096551Y0051489D01*
X0097226Y0052164D01*
X0097591Y0053046D01*
X0097591Y0053615D01*
X0097667Y0053584D01*
X0098621Y0053584D01*
X0099503Y0053950D01*
X0100179Y0054625D01*
X0100544Y0055507D01*
X0100544Y0056462D01*
X0100179Y0057344D01*
X0099503Y0058019D01*
X0098621Y0058384D01*
X0097667Y0058384D01*
X0096784Y0058019D01*
X0096250Y0057484D01*
X0090141Y0057484D01*
X0089262Y0056606D01*
X0082294Y0049638D01*
X0081787Y0050145D01*
X0080905Y0050510D01*
X0079950Y0050510D01*
X0079068Y0050145D01*
X0078393Y0049470D01*
X0078027Y0048588D01*
X0078027Y0048109D02*
X0058176Y0048109D01*
X0057963Y0047310D02*
X0078161Y0047310D01*
X0078632Y0046511D02*
X0057609Y0046511D01*
X0057082Y0045713D02*
X0079943Y0045713D01*
X0080911Y0045713D02*
X0085849Y0045713D01*
X0086817Y0045713D02*
X0123303Y0045713D01*
X0122858Y0046511D02*
X0117404Y0046511D01*
X0117616Y0046723D02*
X0117616Y0052718D01*
X0116913Y0053420D01*
X0105919Y0053420D01*
X0105216Y0052718D01*
X0105216Y0046723D01*
X0105919Y0046020D01*
X0116913Y0046020D01*
X0117616Y0046723D01*
X0117616Y0047310D02*
X0122060Y0047310D01*
X0121261Y0048109D02*
X0117616Y0048109D01*
X0117616Y0048907D02*
X0120463Y0048907D01*
X0119664Y0049706D02*
X0117616Y0049706D01*
X0117616Y0050504D02*
X0119032Y0050504D01*
X0119032Y0051303D02*
X0117616Y0051303D01*
X0117616Y0052101D02*
X0119032Y0052101D01*
X0119032Y0052900D02*
X0117434Y0052900D01*
X0119032Y0053698D02*
X0098896Y0053698D01*
X0100050Y0054497D02*
X0119032Y0054497D01*
X0119032Y0055295D02*
X0100456Y0055295D01*
X0100544Y0056094D02*
X0119032Y0056094D01*
X0119032Y0056892D02*
X0117508Y0056892D01*
X0117536Y0056920D02*
X0117720Y0057239D01*
X0117816Y0057595D01*
X0117816Y0059880D01*
X0111816Y0059880D01*
X0111816Y0060679D01*
X0117816Y0060679D01*
X0117816Y0062964D01*
X0117720Y0063320D01*
X0117536Y0063639D01*
X0117275Y0063900D01*
X0116956Y0064084D01*
X0116600Y0064180D01*
X0111816Y0064180D01*
X0111816Y0060680D01*
X0111016Y0060680D01*
X0111016Y0064180D01*
X0106231Y0064180D01*
X0105875Y0064084D01*
X0105556Y0063900D01*
X0105295Y0063639D01*
X0105111Y0063320D01*
X0105016Y0062964D01*
X0105016Y0060679D01*
X0111016Y0060679D01*
X0111016Y0059880D01*
X0105016Y0059880D01*
X0105016Y0057595D01*
X0105111Y0057239D01*
X0105295Y0056920D01*
X0105556Y0056659D01*
X0105875Y0056475D01*
X0106231Y0056380D01*
X0111016Y0056380D01*
X0111016Y0059879D01*
X0111816Y0059879D01*
X0111816Y0056380D01*
X0116600Y0056380D01*
X0116956Y0056475D01*
X0117275Y0056659D01*
X0117536Y0056920D01*
X0117816Y0057691D02*
X0119032Y0057691D01*
X0119032Y0058489D02*
X0117816Y0058489D01*
X0117816Y0059288D02*
X0119032Y0059288D01*
X0119032Y0060086D02*
X0111816Y0060086D01*
X0111816Y0059288D02*
X0111016Y0059288D01*
X0111016Y0060086D02*
X0096293Y0060086D01*
X0096293Y0059288D02*
X0105016Y0059288D01*
X0105016Y0058489D02*
X0096293Y0058489D01*
X0096293Y0058479D02*
X0096293Y0067347D01*
X0095904Y0067736D01*
X0095904Y0078062D01*
X0094638Y0079328D01*
X0094638Y0080084D01*
X0094273Y0080966D01*
X0093598Y0081641D01*
X0092716Y0082006D01*
X0091761Y0082006D01*
X0090879Y0081641D01*
X0090204Y0080966D01*
X0089838Y0080084D01*
X0089838Y0079129D01*
X0090204Y0078247D01*
X0090879Y0077572D01*
X0091761Y0077206D01*
X0092517Y0077206D01*
X0092904Y0076820D01*
X0092904Y0074461D01*
X0092614Y0074751D01*
X0091732Y0075117D01*
X0090777Y0075117D01*
X0090392Y0074957D01*
X0090392Y0075700D01*
X0086764Y0079328D01*
X0086764Y0080084D01*
X0086399Y0080966D01*
X0085724Y0081641D01*
X0084842Y0082006D01*
X0083887Y0082006D01*
X0083005Y0081641D01*
X0082330Y0080966D01*
X0081964Y0080084D01*
X0081964Y0079129D01*
X0082330Y0078247D01*
X0083005Y0077572D01*
X0083887Y0077206D01*
X0084643Y0077206D01*
X0087392Y0074457D01*
X0087392Y0071810D01*
X0086764Y0072438D01*
X0086764Y0073194D01*
X0086399Y0074076D01*
X0085724Y0074751D01*
X0084842Y0075117D01*
X0083887Y0075117D01*
X0083005Y0074751D01*
X0082330Y0074076D01*
X0081964Y0073194D01*
X0081964Y0072239D01*
X0082330Y0071357D01*
X0083005Y0070682D01*
X0083887Y0070317D01*
X0084636Y0070317D01*
X0084636Y0067980D01*
X0084566Y0068050D01*
X0082194Y0068050D01*
X0082002Y0067858D01*
X0081810Y0068050D01*
X0079438Y0068050D01*
X0079380Y0067992D01*
X0079098Y0068155D01*
X0078742Y0068250D01*
X0077868Y0068250D01*
X0076995Y0068250D01*
X0076639Y0068155D01*
X0076612Y0068140D01*
X0076612Y0070317D01*
X0076968Y0070317D01*
X0077850Y0070682D01*
X0078525Y0071357D01*
X0078890Y0072239D01*
X0078890Y0073194D01*
X0078525Y0074076D01*
X0077850Y0074751D01*
X0076968Y0075117D01*
X0076013Y0075117D01*
X0075131Y0074751D01*
X0074456Y0074076D01*
X0074090Y0073194D01*
X0074090Y0072438D01*
X0073613Y0071960D01*
X0073613Y0070939D01*
X0073031Y0071180D01*
X0072076Y0071180D01*
X0071194Y0070814D01*
X0070519Y0070139D01*
X0070153Y0069257D01*
X0070153Y0068302D01*
X0070258Y0068050D01*
X0068415Y0068050D01*
X0068223Y0067858D01*
X0068031Y0068050D01*
X0066072Y0068050D01*
X0068338Y0070317D01*
X0069094Y0070317D01*
X0069976Y0070682D01*
X0070651Y0071357D01*
X0071016Y0072239D01*
X0071016Y0073194D01*
X0070651Y0074076D01*
X0069976Y0074751D01*
X0069094Y0075117D01*
X0068139Y0075117D01*
X0067257Y0074751D01*
X0066582Y0074076D01*
X0066216Y0073194D01*
X0066216Y0072438D01*
X0062833Y0069054D01*
X0062833Y0071492D01*
X0063142Y0072239D01*
X0063142Y0073194D01*
X0062777Y0074076D01*
X0062102Y0074751D01*
X0061220Y0075117D01*
X0060265Y0075117D01*
X0059383Y0074751D01*
X0058708Y0074076D01*
X0058342Y0073194D01*
X0058342Y0072239D01*
X0058708Y0071357D01*
X0059383Y0070682D01*
X0059833Y0070495D01*
X0059833Y0067980D01*
X0059763Y0068050D01*
X0057391Y0068050D01*
X0056688Y0067347D01*
X0056688Y0066097D01*
X0056253Y0066532D01*
X0056253Y0067288D01*
X0055887Y0068171D01*
X0055212Y0068846D01*
X0054330Y0069211D01*
X0053375Y0069211D01*
X0052493Y0068846D01*
X0051818Y0068171D01*
X0051453Y0067288D01*
X0051453Y0066334D01*
X0051818Y0065452D01*
X0052493Y0064776D01*
X0053375Y0064411D01*
X0054131Y0064411D01*
X0056688Y0061854D01*
X0056688Y0058479D01*
X0057391Y0057776D01*
X0059763Y0057776D01*
X0059955Y0057968D01*
X0060147Y0057776D01*
X0062519Y0057776D01*
X0062711Y0057968D01*
X0062903Y0057776D01*
X0064062Y0057776D01*
X0063629Y0057344D01*
X0063264Y0056462D01*
X0063264Y0055507D01*
X0063629Y0054625D01*
X0064304Y0053950D01*
X0065186Y0053584D01*
X0066141Y0053584D01*
X0067023Y0053950D01*
X0067698Y0054625D01*
X0068064Y0055507D01*
X0068064Y0056263D01*
X0068124Y0056324D01*
X0068979Y0055469D01*
X0071299Y0053149D01*
X0071503Y0052656D01*
X0072178Y0051981D01*
X0073060Y0051616D01*
X0074015Y0051616D01*
X0074897Y0051981D01*
X0075572Y0052656D01*
X0075938Y0053538D01*
X0075938Y0054484D01*
X0080502Y0054484D01*
X0081036Y0053950D01*
X0081919Y0053584D01*
X0082873Y0053584D01*
X0083755Y0053950D01*
X0084431Y0054625D01*
X0084796Y0055507D01*
X0084796Y0056263D01*
X0084880Y0056347D01*
X0084880Y0057846D01*
X0084950Y0057776D01*
X0087322Y0057776D01*
X0087514Y0057968D01*
X0087706Y0057776D01*
X0090078Y0057776D01*
X0090270Y0057968D01*
X0090462Y0057776D01*
X0092834Y0057776D01*
X0093026Y0057968D01*
X0093218Y0057776D01*
X0095590Y0057776D01*
X0096293Y0058479D01*
X0096456Y0057691D02*
X0084880Y0057691D01*
X0084880Y0056892D02*
X0089549Y0056892D01*
X0088750Y0056094D02*
X0084796Y0056094D01*
X0084708Y0055295D02*
X0087952Y0055295D01*
X0087153Y0054497D02*
X0084302Y0054497D01*
X0083148Y0053698D02*
X0086355Y0053698D01*
X0085556Y0052900D02*
X0075673Y0052900D01*
X0075938Y0053698D02*
X0081644Y0053698D01*
X0084758Y0052101D02*
X0075017Y0052101D01*
X0072058Y0052101D02*
X0057355Y0052101D01*
X0057800Y0051303D02*
X0083959Y0051303D01*
X0083161Y0050504D02*
X0080920Y0050504D01*
X0079935Y0050504D02*
X0058084Y0050504D01*
X0058235Y0049706D02*
X0078629Y0049706D01*
X0082226Y0049706D02*
X0082362Y0049706D01*
X0082223Y0046511D02*
X0084538Y0046511D01*
X0088128Y0046511D02*
X0105428Y0046511D01*
X0105216Y0047310D02*
X0088599Y0047310D01*
X0088733Y0048109D02*
X0105216Y0048109D01*
X0105216Y0048907D02*
X0089251Y0048907D01*
X0090050Y0049706D02*
X0105216Y0049706D01*
X0105216Y0050504D02*
X0090848Y0050504D01*
X0091647Y0051303D02*
X0094282Y0051303D01*
X0096101Y0051303D02*
X0105216Y0051303D01*
X0105216Y0052101D02*
X0097163Y0052101D01*
X0097530Y0052900D02*
X0105398Y0052900D01*
X0105323Y0056892D02*
X0100366Y0056892D01*
X0099832Y0057691D02*
X0105016Y0057691D01*
X0105016Y0060885D02*
X0096293Y0060885D01*
X0096293Y0061683D02*
X0105016Y0061683D01*
X0105016Y0062482D02*
X0096293Y0062482D01*
X0096293Y0063280D02*
X0105100Y0063280D01*
X0105866Y0064079D02*
X0096293Y0064079D01*
X0096293Y0064877D02*
X0117288Y0064877D01*
X0116965Y0064079D02*
X0118086Y0064079D01*
X0117731Y0063280D02*
X0118885Y0063280D01*
X0119032Y0062482D02*
X0117816Y0062482D01*
X0117816Y0061683D02*
X0119032Y0061683D01*
X0119032Y0060885D02*
X0117816Y0060885D01*
X0122532Y0060885D02*
X0137527Y0060885D01*
X0137527Y0061683D02*
X0122532Y0061683D01*
X0122532Y0062482D02*
X0137527Y0062482D01*
X0137612Y0063280D02*
X0122532Y0063280D01*
X0122532Y0064079D02*
X0138378Y0064079D01*
X0143527Y0064079D02*
X0144327Y0064079D01*
X0144327Y0063280D02*
X0143527Y0063280D01*
X0143527Y0062482D02*
X0144327Y0062482D01*
X0144327Y0061683D02*
X0143527Y0061683D01*
X0143527Y0060885D02*
X0144327Y0060885D01*
X0143527Y0060086D02*
X0122532Y0060086D01*
X0122532Y0059288D02*
X0137527Y0059288D01*
X0137527Y0058489D02*
X0127577Y0058489D01*
X0124814Y0058489D02*
X0122532Y0058489D01*
X0122532Y0057691D02*
X0124100Y0057691D01*
X0123795Y0056892D02*
X0122532Y0056892D01*
X0122532Y0056094D02*
X0123795Y0056094D01*
X0124087Y0055295D02*
X0122532Y0055295D01*
X0122532Y0054497D02*
X0124781Y0054497D01*
X0122532Y0053698D02*
X0130390Y0053698D01*
X0129316Y0052900D02*
X0122532Y0052900D01*
X0122532Y0052101D02*
X0128517Y0052101D01*
X0128151Y0051303D02*
X0123017Y0051303D01*
X0123816Y0050504D02*
X0127820Y0050504D01*
X0127664Y0049706D02*
X0124614Y0049706D01*
X0125413Y0048907D02*
X0127664Y0048907D01*
X0127664Y0048109D02*
X0127130Y0048109D01*
X0127817Y0047310D02*
X0127975Y0047310D01*
X0128103Y0046511D02*
X0128306Y0046511D01*
X0128103Y0045713D02*
X0128892Y0045713D01*
X0129691Y0044914D02*
X0127792Y0044914D01*
X0127071Y0044116D02*
X0131295Y0044116D01*
X0134433Y0044116D02*
X0149594Y0044116D01*
X0149594Y0044914D02*
X0136038Y0044914D01*
X0136837Y0045713D02*
X0149594Y0045713D01*
X0137939Y0046511D02*
X0137423Y0046511D01*
X0137578Y0051303D02*
X0137727Y0051303D01*
X0137727Y0052101D02*
X0137212Y0052101D01*
X0137493Y0052900D02*
X0136413Y0052900D01*
X0136695Y0053698D02*
X0135339Y0053698D01*
X0135896Y0054497D02*
X0127609Y0054497D01*
X0136945Y0057691D02*
X0137527Y0057691D01*
X0137743Y0056892D02*
X0137835Y0056892D01*
X0138542Y0056094D02*
X0149594Y0056094D01*
X0149594Y0055295D02*
X0139340Y0055295D01*
X0140139Y0054497D02*
X0149594Y0054497D01*
X0149594Y0053698D02*
X0140937Y0053698D01*
X0143527Y0056892D02*
X0144327Y0056892D01*
X0144327Y0057691D02*
X0143527Y0057691D01*
X0143527Y0058489D02*
X0144327Y0058489D01*
X0144327Y0059288D02*
X0143527Y0059288D01*
X0149477Y0064079D02*
X0149594Y0064079D01*
X0149594Y0064877D02*
X0122238Y0064877D01*
X0121439Y0065676D02*
X0149594Y0065676D01*
X0149594Y0066474D02*
X0120641Y0066474D01*
X0119842Y0067273D02*
X0149594Y0067273D01*
X0149594Y0068071D02*
X0119044Y0068071D01*
X0118245Y0068870D02*
X0149594Y0068870D01*
X0149594Y0069668D02*
X0111541Y0069668D01*
X0111277Y0070467D02*
X0149594Y0070467D01*
X0149594Y0071265D02*
X0110863Y0071265D01*
X0109689Y0072064D02*
X0149594Y0072064D01*
X0149594Y0072862D02*
X0095904Y0072862D01*
X0095904Y0072064D02*
X0108252Y0072064D01*
X0107078Y0071265D02*
X0095904Y0071265D01*
X0095904Y0070467D02*
X0106664Y0070467D01*
X0106571Y0069668D02*
X0095904Y0069668D01*
X0095904Y0068870D02*
X0106743Y0068870D01*
X0107269Y0068071D02*
X0095904Y0068071D01*
X0096293Y0067273D02*
X0108987Y0067273D01*
X0109785Y0066474D02*
X0096293Y0066474D01*
X0096293Y0065676D02*
X0116489Y0065676D01*
X0111816Y0064079D02*
X0111016Y0064079D01*
X0111016Y0063280D02*
X0111816Y0063280D01*
X0111816Y0062482D02*
X0111016Y0062482D01*
X0111016Y0061683D02*
X0111816Y0061683D01*
X0111816Y0060885D02*
X0111016Y0060885D01*
X0111016Y0058489D02*
X0111816Y0058489D01*
X0111816Y0057691D02*
X0111016Y0057691D01*
X0111016Y0056892D02*
X0111816Y0056892D01*
X0103065Y0070748D02*
X0102081Y0070748D01*
X0105216Y0074282D02*
X0105919Y0073580D01*
X0116913Y0073580D01*
X0117616Y0074282D01*
X0117616Y0080277D01*
X0116913Y0080980D01*
X0105919Y0080980D01*
X0105216Y0080277D01*
X0105216Y0074282D01*
X0105216Y0074459D02*
X0095904Y0074459D01*
X0095904Y0073661D02*
X0105837Y0073661D01*
X0105216Y0075258D02*
X0095904Y0075258D01*
X0095904Y0076056D02*
X0105216Y0076056D01*
X0105216Y0076855D02*
X0095904Y0076855D01*
X0095904Y0077653D02*
X0105216Y0077653D01*
X0105216Y0078452D02*
X0095514Y0078452D01*
X0094716Y0079250D02*
X0105216Y0079250D01*
X0105216Y0080049D02*
X0094638Y0080049D01*
X0094322Y0080847D02*
X0105787Y0080847D01*
X0117045Y0080847D02*
X0128328Y0080847D01*
X0128224Y0081097D02*
X0128590Y0080215D01*
X0129265Y0079540D01*
X0130147Y0079175D01*
X0131102Y0079175D01*
X0131984Y0079540D01*
X0132659Y0080215D01*
X0133024Y0081097D01*
X0133024Y0082052D01*
X0132995Y0082123D01*
X0133372Y0082500D01*
X0133372Y0086555D01*
X0132449Y0087478D01*
X0128894Y0087478D01*
X0127972Y0086555D01*
X0127972Y0082500D01*
X0128281Y0082190D01*
X0128224Y0082052D01*
X0128224Y0081097D01*
X0128224Y0081646D02*
X0126737Y0081646D01*
X0126886Y0081732D02*
X0127217Y0082063D01*
X0127451Y0082467D01*
X0127572Y0082919D01*
X0127572Y0084178D01*
X0125022Y0084178D01*
X0125022Y0084878D01*
X0124322Y0084878D01*
X0124322Y0087678D01*
X0123313Y0087678D01*
X0122861Y0087557D01*
X0122457Y0087323D01*
X0122126Y0086992D01*
X0121893Y0086588D01*
X0121772Y0086136D01*
X0121772Y0084878D01*
X0124321Y0084878D01*
X0124321Y0084178D01*
X0121772Y0084178D01*
X0121772Y0082919D01*
X0121893Y0082467D01*
X0122126Y0082063D01*
X0122457Y0081732D01*
X0122861Y0081499D01*
X0123313Y0081378D01*
X0124322Y0081378D01*
X0124322Y0084177D01*
X0125022Y0084177D01*
X0125022Y0081378D01*
X0126030Y0081378D01*
X0126482Y0081499D01*
X0126886Y0081732D01*
X0127437Y0082444D02*
X0128027Y0082444D01*
X0127972Y0083243D02*
X0127572Y0083243D01*
X0127572Y0084042D02*
X0127972Y0084042D01*
X0127972Y0084840D02*
X0125022Y0084840D01*
X0125022Y0084878D02*
X0127572Y0084878D01*
X0127572Y0086136D01*
X0127451Y0086588D01*
X0127217Y0086992D01*
X0126886Y0087323D01*
X0126482Y0087557D01*
X0126030Y0087678D01*
X0125022Y0087678D01*
X0125022Y0084878D01*
X0124321Y0084840D02*
X0081578Y0084840D01*
X0081525Y0084788D02*
X0082190Y0085453D01*
X0082190Y0089508D01*
X0081268Y0090430D01*
X0077713Y0090430D01*
X0076790Y0089508D01*
X0076790Y0085453D01*
X0077389Y0084855D01*
X0077043Y0084021D01*
X0077043Y0083066D01*
X0077409Y0082184D01*
X0078084Y0081509D01*
X0078966Y0081143D01*
X0079921Y0081143D01*
X0080803Y0081509D01*
X0081478Y0082184D01*
X0081843Y0083066D01*
X0081843Y0084021D01*
X0081525Y0084788D01*
X0081835Y0084042D02*
X0121772Y0084042D01*
X0121772Y0083243D02*
X0081843Y0083243D01*
X0081586Y0082444D02*
X0121906Y0082444D01*
X0122606Y0081646D02*
X0093586Y0081646D01*
X0090891Y0081646D02*
X0085712Y0081646D01*
X0086448Y0080847D02*
X0090155Y0080847D01*
X0089838Y0080049D02*
X0086764Y0080049D01*
X0086842Y0079250D02*
X0089838Y0079250D01*
X0090119Y0078452D02*
X0087640Y0078452D01*
X0088439Y0077653D02*
X0090797Y0077653D01*
X0089237Y0076855D02*
X0092869Y0076855D01*
X0092904Y0076056D02*
X0090036Y0076056D01*
X0090392Y0075258D02*
X0092904Y0075258D01*
X0087390Y0074459D02*
X0086016Y0074459D01*
X0086571Y0073661D02*
X0087392Y0073661D01*
X0087392Y0072862D02*
X0086764Y0072862D01*
X0087138Y0072064D02*
X0087392Y0072064D01*
X0084636Y0069668D02*
X0076612Y0069668D01*
X0076612Y0068870D02*
X0084636Y0068870D01*
X0084636Y0068071D02*
X0079243Y0068071D01*
X0077868Y0068071D02*
X0077868Y0068071D01*
X0077868Y0068250D02*
X0077868Y0062914D01*
X0077868Y0062914D01*
X0077868Y0068250D01*
X0077868Y0067273D02*
X0077868Y0067273D01*
X0077868Y0066474D02*
X0077868Y0066474D01*
X0077868Y0065676D02*
X0077868Y0065676D01*
X0077868Y0064877D02*
X0077868Y0064877D01*
X0077868Y0064079D02*
X0077868Y0064079D01*
X0077868Y0063280D02*
X0077868Y0063280D01*
X0077868Y0062913D02*
X0077868Y0057576D01*
X0077020Y0057576D01*
X0077112Y0057484D01*
X0080502Y0057484D01*
X0080794Y0057776D01*
X0079438Y0057776D01*
X0079380Y0057835D01*
X0079098Y0057672D01*
X0078742Y0057576D01*
X0077868Y0057576D01*
X0077868Y0062913D01*
X0077868Y0062913D01*
X0077868Y0062482D02*
X0077868Y0062482D01*
X0077868Y0061683D02*
X0077868Y0061683D01*
X0077868Y0060885D02*
X0077868Y0060885D01*
X0077868Y0060086D02*
X0077868Y0060086D01*
X0077868Y0059288D02*
X0077868Y0059288D01*
X0077868Y0058489D02*
X0077868Y0058489D01*
X0077868Y0057691D02*
X0077868Y0057691D01*
X0079130Y0057691D02*
X0080708Y0057691D01*
X0071402Y0052900D02*
X0056696Y0052900D01*
X0055715Y0053698D02*
X0064911Y0053698D01*
X0063757Y0054497D02*
X0028584Y0054497D01*
X0028584Y0054196D02*
X0027945Y0052652D01*
X0026763Y0051471D01*
X0025220Y0050831D01*
X0023549Y0050831D01*
X0022005Y0051471D01*
X0020824Y0052652D01*
X0020184Y0054196D01*
X0020184Y0055867D01*
X0020824Y0057411D01*
X0022005Y0058592D01*
X0023549Y0059231D01*
X0025220Y0059231D01*
X0026763Y0058592D01*
X0027945Y0057411D01*
X0028584Y0055867D01*
X0028584Y0054196D01*
X0028378Y0053698D02*
X0050014Y0053698D01*
X0049033Y0052900D02*
X0047583Y0052900D01*
X0047765Y0052101D02*
X0048374Y0052101D01*
X0047929Y0051303D02*
X0047765Y0051303D01*
X0052464Y0051303D02*
X0053264Y0051303D01*
X0053264Y0052101D02*
X0052464Y0052101D01*
X0052464Y0052900D02*
X0053264Y0052900D01*
X0053264Y0053698D02*
X0052464Y0053698D01*
X0052464Y0050504D02*
X0053264Y0050504D01*
X0053264Y0049706D02*
X0052464Y0049706D01*
X0047766Y0047310D02*
X0047765Y0047310D01*
X0047553Y0046511D02*
X0048120Y0046511D01*
X0035577Y0046511D02*
X0028785Y0046511D01*
X0029583Y0047310D02*
X0035365Y0047310D01*
X0035365Y0048109D02*
X0030382Y0048109D01*
X0027736Y0049706D02*
X0015253Y0049706D01*
X0015253Y0050504D02*
X0028535Y0050504D01*
X0027393Y0052101D02*
X0035365Y0052101D01*
X0035365Y0051303D02*
X0026357Y0051303D01*
X0028047Y0052900D02*
X0035547Y0052900D01*
X0036381Y0056380D02*
X0041165Y0056380D01*
X0041165Y0059879D01*
X0041965Y0059879D01*
X0041965Y0056380D01*
X0046750Y0056380D01*
X0047106Y0056475D01*
X0047425Y0056659D01*
X0047686Y0056920D01*
X0047870Y0057239D01*
X0047965Y0057595D01*
X0047965Y0059880D01*
X0041965Y0059880D01*
X0041965Y0060679D01*
X0047965Y0060679D01*
X0047965Y0062964D01*
X0047870Y0063320D01*
X0047686Y0063639D01*
X0047425Y0063900D01*
X0047106Y0064084D01*
X0046750Y0064180D01*
X0041965Y0064180D01*
X0041965Y0060680D01*
X0041165Y0060680D01*
X0041165Y0064180D01*
X0036381Y0064180D01*
X0036025Y0064084D01*
X0035706Y0063900D01*
X0035445Y0063639D01*
X0035261Y0063320D01*
X0035165Y0062964D01*
X0035165Y0060679D01*
X0041165Y0060679D01*
X0041165Y0059880D01*
X0035165Y0059880D01*
X0035165Y0057595D01*
X0035261Y0057239D01*
X0035445Y0056920D01*
X0035706Y0056659D01*
X0036025Y0056475D01*
X0036381Y0056380D01*
X0035473Y0056892D02*
X0028159Y0056892D01*
X0028490Y0056094D02*
X0063264Y0056094D01*
X0063351Y0055295D02*
X0028584Y0055295D01*
X0027665Y0057691D02*
X0035165Y0057691D01*
X0035165Y0058489D02*
X0026866Y0058489D01*
X0021902Y0058489D02*
X0015453Y0058489D01*
X0015453Y0057691D02*
X0021104Y0057691D01*
X0020609Y0056892D02*
X0015146Y0056892D01*
X0015453Y0059288D02*
X0035165Y0059288D01*
X0035165Y0060885D02*
X0015453Y0060885D01*
X0015453Y0061683D02*
X0035165Y0061683D01*
X0035165Y0062482D02*
X0015453Y0062482D01*
X0015369Y0063280D02*
X0035250Y0063280D01*
X0036016Y0064079D02*
X0014603Y0064079D01*
X0009453Y0064079D02*
X0008653Y0064079D01*
X0008653Y0063280D02*
X0009453Y0063280D01*
X0009453Y0062482D02*
X0008653Y0062482D01*
X0008653Y0061683D02*
X0009453Y0061683D01*
X0009453Y0060885D02*
X0008653Y0060885D01*
X0009453Y0060086D02*
X0041165Y0060086D01*
X0041165Y0059288D02*
X0041965Y0059288D01*
X0041965Y0060086D02*
X0056688Y0060086D01*
X0056688Y0059288D02*
X0047965Y0059288D01*
X0047965Y0058489D02*
X0056688Y0058489D01*
X0056688Y0060885D02*
X0047965Y0060885D01*
X0047965Y0061683D02*
X0056688Y0061683D01*
X0056061Y0062482D02*
X0047965Y0062482D01*
X0047880Y0063280D02*
X0055262Y0063280D01*
X0054464Y0064079D02*
X0047115Y0064079D01*
X0051725Y0065676D02*
X0003387Y0065676D01*
X0003387Y0066474D02*
X0051453Y0066474D01*
X0051453Y0067273D02*
X0003387Y0067273D01*
X0003387Y0068071D02*
X0051777Y0068071D01*
X0052552Y0068870D02*
X0003387Y0068870D01*
X0003387Y0069668D02*
X0059833Y0069668D01*
X0059833Y0068870D02*
X0055154Y0068870D01*
X0055928Y0068071D02*
X0059833Y0068071D01*
X0056688Y0067273D02*
X0056253Y0067273D01*
X0056311Y0066474D02*
X0056688Y0066474D01*
X0052392Y0064877D02*
X0003387Y0064877D01*
X0003387Y0064079D02*
X0003504Y0064079D01*
X0008653Y0059288D02*
X0009453Y0059288D01*
X0009453Y0058489D02*
X0008653Y0058489D01*
X0008653Y0057691D02*
X0009453Y0057691D01*
X0009453Y0056892D02*
X0008653Y0056892D01*
X0003387Y0056094D02*
X0020278Y0056094D01*
X0020184Y0055295D02*
X0003387Y0055295D01*
X0003387Y0054497D02*
X0020184Y0054497D01*
X0020390Y0053698D02*
X0003387Y0053698D01*
X0015071Y0052900D02*
X0020721Y0052900D01*
X0021375Y0052101D02*
X0015253Y0052101D01*
X0015253Y0051303D02*
X0022411Y0051303D01*
X0026938Y0048907D02*
X0015253Y0048907D01*
X0015253Y0048109D02*
X0026139Y0048109D01*
X0025341Y0047310D02*
X0015253Y0047310D01*
X0015041Y0046511D02*
X0024542Y0046511D01*
X0023744Y0045713D02*
X0003387Y0045713D01*
X0003387Y0044914D02*
X0022945Y0044914D01*
X0022146Y0044116D02*
X0003387Y0044116D01*
X0003387Y0043317D02*
X0021348Y0043317D01*
X0019628Y0042519D02*
X0003387Y0042519D01*
X0003387Y0041720D02*
X0018478Y0041720D01*
X0018074Y0040922D02*
X0003387Y0040922D01*
X0003387Y0040123D02*
X0017988Y0040123D01*
X0018168Y0039325D02*
X0003387Y0039325D01*
X0003387Y0038526D02*
X0018704Y0038526D01*
X0015174Y0036080D02*
X0014913Y0036341D01*
X0014594Y0036525D01*
X0014238Y0036620D01*
X0009453Y0036620D01*
X0009453Y0033121D01*
X0009453Y0033120D02*
X0015453Y0033120D01*
X0015453Y0035405D01*
X0015358Y0035761D01*
X0015174Y0036080D01*
X0015123Y0036131D02*
X0035496Y0036131D01*
X0035165Y0035332D02*
X0015453Y0035332D01*
X0015453Y0034534D02*
X0035165Y0034534D01*
X0035165Y0033735D02*
X0015453Y0033735D01*
X0015453Y0032138D02*
X0035165Y0032138D01*
X0035165Y0032320D02*
X0035165Y0030036D01*
X0035261Y0029680D01*
X0035445Y0029361D01*
X0035706Y0029100D01*
X0036025Y0028916D01*
X0036381Y0028820D01*
X0041165Y0028820D01*
X0041165Y0032320D01*
X0035165Y0032320D01*
X0035165Y0031340D02*
X0015453Y0031340D01*
X0015453Y0030541D02*
X0035165Y0030541D01*
X0035244Y0029743D02*
X0015375Y0029743D01*
X0014643Y0028944D02*
X0035976Y0028944D01*
X0041165Y0028944D02*
X0041965Y0028944D01*
X0041965Y0029743D02*
X0041165Y0029743D01*
X0041165Y0030541D02*
X0041965Y0030541D01*
X0041965Y0031340D02*
X0041165Y0031340D01*
X0041165Y0032138D02*
X0041965Y0032138D01*
X0041965Y0034534D02*
X0041165Y0034534D01*
X0041165Y0035332D02*
X0041965Y0035332D01*
X0041965Y0036131D02*
X0041165Y0036131D01*
X0047965Y0032138D02*
X0053924Y0032138D01*
X0054722Y0031340D02*
X0047965Y0031340D01*
X0047965Y0030541D02*
X0055521Y0030541D01*
X0059336Y0032937D02*
X0076945Y0032937D01*
X0078005Y0032937D02*
X0079052Y0032937D01*
X0079289Y0033735D02*
X0079391Y0033735D01*
X0079749Y0034534D02*
X0080383Y0034534D01*
X0079875Y0035332D02*
X0105016Y0035332D01*
X0105016Y0034534D02*
X0082440Y0034534D01*
X0083433Y0033735D02*
X0105016Y0033735D01*
X0105346Y0036131D02*
X0079734Y0036131D01*
X0079254Y0036929D02*
X0149594Y0036929D01*
X0149594Y0037728D02*
X0073738Y0037728D01*
X0072940Y0038526D02*
X0149594Y0038526D01*
X0144327Y0036131D02*
X0143527Y0036131D01*
X0143527Y0035332D02*
X0144327Y0035332D01*
X0144327Y0034534D02*
X0143527Y0034534D01*
X0143527Y0033735D02*
X0144327Y0033735D01*
X0137527Y0033735D02*
X0117816Y0033735D01*
X0117816Y0034534D02*
X0137527Y0034534D01*
X0137527Y0035332D02*
X0117816Y0035332D01*
X0117485Y0036131D02*
X0137858Y0036131D01*
X0137527Y0032138D02*
X0117816Y0032138D01*
X0117816Y0031340D02*
X0137527Y0031340D01*
X0137527Y0030541D02*
X0117816Y0030541D01*
X0117737Y0029743D02*
X0137606Y0029743D01*
X0138338Y0028944D02*
X0117005Y0028944D01*
X0111816Y0033735D02*
X0111016Y0033735D01*
X0111016Y0034534D02*
X0111816Y0034534D01*
X0111816Y0035332D02*
X0111016Y0035332D01*
X0111016Y0036131D02*
X0111816Y0036131D01*
X0122750Y0039252D02*
X0123735Y0040236D01*
X0101095Y0021758D02*
X0149594Y0021758D01*
X0149594Y0022556D02*
X0073162Y0022556D01*
X0073960Y0021758D02*
X0099130Y0021758D01*
X0098111Y0020959D02*
X0074759Y0020959D01*
X0075557Y0020161D02*
X0097761Y0020161D01*
X0097712Y0019362D02*
X0076356Y0019362D01*
X0077154Y0018564D02*
X0096988Y0018564D01*
X0096189Y0017765D02*
X0077953Y0017765D01*
X0078752Y0016967D02*
X0095391Y0016967D01*
X0094592Y0016168D02*
X0079550Y0016168D01*
X0077703Y0013773D02*
X0036852Y0013773D01*
X0036852Y0012974D02*
X0051629Y0012974D01*
X0051168Y0012175D02*
X0036852Y0012175D01*
X0036852Y0011377D02*
X0050971Y0011377D01*
X0050705Y0010578D02*
X0036852Y0010578D01*
X0036852Y0009780D02*
X0050439Y0009780D01*
X0050173Y0008981D02*
X0036852Y0008981D01*
X0036852Y0008183D02*
X0049906Y0008183D01*
X0055042Y0014571D02*
X0036646Y0014571D01*
X0033347Y0015370D02*
X0054125Y0015370D01*
X0053640Y0016168D02*
X0033027Y0016168D01*
X0032708Y0016967D02*
X0053334Y0016967D01*
X0053334Y0017765D02*
X0032389Y0017765D01*
X0032069Y0018564D02*
X0053448Y0018564D01*
X0053778Y0019362D02*
X0031855Y0019362D01*
X0031057Y0020161D02*
X0054458Y0020161D01*
X0059153Y0020161D02*
X0066269Y0020161D01*
X0065589Y0019362D02*
X0059833Y0019362D01*
X0060163Y0018564D02*
X0065259Y0018564D01*
X0065145Y0017765D02*
X0060277Y0017765D01*
X0060277Y0016967D02*
X0065145Y0016967D01*
X0065451Y0016168D02*
X0059971Y0016168D01*
X0059486Y0015370D02*
X0065936Y0015370D01*
X0066853Y0014571D02*
X0058568Y0014571D01*
X0059280Y0022556D02*
X0003387Y0022556D01*
X0003387Y0021758D02*
X0069718Y0021758D01*
X0068919Y0022556D02*
X0062204Y0022556D01*
X0074522Y0025472D02*
X0075506Y0025472D01*
X0075660Y0033735D02*
X0058538Y0033735D01*
X0057739Y0034534D02*
X0072690Y0034534D01*
X0071891Y0035332D02*
X0056941Y0035332D01*
X0049112Y0029743D02*
X0047887Y0029743D01*
X0048313Y0028944D02*
X0047155Y0028944D01*
X0040073Y0020551D02*
X0040073Y0019567D01*
X0017435Y0023504D02*
X0016451Y0023504D01*
X0009453Y0033735D02*
X0008653Y0033735D01*
X0008653Y0034534D02*
X0009453Y0034534D01*
X0009453Y0035332D02*
X0008653Y0035332D01*
X0008653Y0036131D02*
X0009453Y0036131D01*
X0041165Y0056892D02*
X0041965Y0056892D01*
X0041965Y0057691D02*
X0041165Y0057691D01*
X0041165Y0058489D02*
X0041965Y0058489D01*
X0041965Y0060885D02*
X0041165Y0060885D01*
X0041165Y0061683D02*
X0041965Y0061683D01*
X0041965Y0062482D02*
X0041165Y0062482D01*
X0041165Y0063280D02*
X0041965Y0063280D01*
X0041965Y0064079D02*
X0041165Y0064079D01*
X0047965Y0057691D02*
X0063976Y0057691D01*
X0063442Y0056892D02*
X0047658Y0056892D01*
X0066416Y0053698D02*
X0070750Y0053698D01*
X0069951Y0054497D02*
X0067570Y0054497D01*
X0067976Y0055295D02*
X0069153Y0055295D01*
X0068354Y0056094D02*
X0068064Y0056094D01*
X0066092Y0068071D02*
X0070249Y0068071D01*
X0070153Y0068870D02*
X0066891Y0068870D01*
X0067690Y0069668D02*
X0070324Y0069668D01*
X0070847Y0070467D02*
X0069457Y0070467D01*
X0070559Y0071265D02*
X0073613Y0071265D01*
X0073716Y0072064D02*
X0070944Y0072064D01*
X0071016Y0072862D02*
X0074090Y0072862D01*
X0074284Y0073661D02*
X0070823Y0073661D01*
X0070268Y0074459D02*
X0074839Y0074459D01*
X0073901Y0075154D02*
X0078533Y0075154D01*
X0079068Y0074619D01*
X0079950Y0074254D01*
X0080905Y0074254D01*
X0081787Y0074619D01*
X0082462Y0075294D01*
X0082827Y0076176D01*
X0082827Y0077131D01*
X0082462Y0078013D01*
X0081787Y0078688D01*
X0080905Y0079054D01*
X0079950Y0079054D01*
X0079068Y0078688D01*
X0078533Y0078154D01*
X0075143Y0078154D01*
X0070116Y0083180D01*
X0069238Y0084059D01*
X0068542Y0084059D01*
X0068007Y0084594D01*
X0067125Y0084959D01*
X0066171Y0084959D01*
X0065288Y0084594D01*
X0064613Y0083919D01*
X0064248Y0083036D01*
X0064248Y0082082D01*
X0064613Y0081200D01*
X0065288Y0080524D01*
X0066171Y0080159D01*
X0067125Y0080159D01*
X0068007Y0080524D01*
X0068269Y0080786D01*
X0073901Y0075154D01*
X0073796Y0075258D02*
X0047765Y0075258D01*
X0047765Y0076056D02*
X0072998Y0076056D01*
X0072199Y0076855D02*
X0050066Y0076855D01*
X0049799Y0076587D02*
X0050474Y0077263D01*
X0050839Y0078145D01*
X0050839Y0079099D01*
X0050474Y0079982D01*
X0049799Y0080657D01*
X0048917Y0081022D01*
X0047962Y0081022D01*
X0047296Y0080746D01*
X0047062Y0080980D01*
X0036068Y0080980D01*
X0035365Y0080277D01*
X0035365Y0074282D01*
X0036068Y0073580D01*
X0047062Y0073580D01*
X0047765Y0074282D01*
X0047765Y0076303D01*
X0047962Y0076222D01*
X0048917Y0076222D01*
X0049799Y0076587D01*
X0050636Y0077653D02*
X0071401Y0077653D01*
X0070602Y0078452D02*
X0050839Y0078452D01*
X0050777Y0079250D02*
X0069804Y0079250D01*
X0069005Y0080049D02*
X0050406Y0080049D01*
X0049338Y0080847D02*
X0064965Y0080847D01*
X0064428Y0081646D02*
X0030312Y0081646D01*
X0030234Y0081725D02*
X0031009Y0082500D01*
X0031009Y0086555D01*
X0030087Y0087478D01*
X0026532Y0087478D01*
X0025609Y0086555D01*
X0025609Y0082500D01*
X0026532Y0081578D01*
X0026809Y0081578D01*
X0026809Y0080906D01*
X0030426Y0077290D01*
X0030164Y0077029D01*
X0029799Y0076147D01*
X0029799Y0075192D01*
X0030164Y0074310D01*
X0030840Y0073635D01*
X0031722Y0073269D01*
X0032677Y0073269D01*
X0033559Y0073635D01*
X0034234Y0074310D01*
X0034599Y0075192D01*
X0034599Y0076147D01*
X0034234Y0077029D01*
X0033746Y0077516D01*
X0033746Y0077572D01*
X0033761Y0078175D01*
X0033746Y0078190D01*
X0033746Y0078212D01*
X0033320Y0078638D01*
X0032904Y0079075D01*
X0032883Y0079075D01*
X0030234Y0081725D01*
X0030954Y0082444D02*
X0064248Y0082444D01*
X0064334Y0083243D02*
X0031009Y0083243D01*
X0031009Y0084042D02*
X0064736Y0084042D01*
X0065883Y0084840D02*
X0031009Y0084840D01*
X0031009Y0085639D02*
X0069033Y0085639D01*
X0069225Y0085446D02*
X0070108Y0085080D01*
X0071062Y0085080D01*
X0071134Y0085110D01*
X0071713Y0084530D01*
X0075268Y0084530D01*
X0076190Y0085453D01*
X0076190Y0089508D01*
X0075268Y0090430D01*
X0071713Y0090430D01*
X0071134Y0089851D01*
X0071062Y0089880D01*
X0070108Y0089880D01*
X0069225Y0089515D01*
X0068550Y0088840D01*
X0068185Y0087958D01*
X0068185Y0087003D01*
X0068550Y0086121D01*
X0069225Y0085446D01*
X0068419Y0086437D02*
X0031009Y0086437D01*
X0030329Y0087236D02*
X0068185Y0087236D01*
X0068217Y0088034D02*
X0006753Y0088034D01*
X0005982Y0087236D02*
X0020007Y0087236D01*
X0020094Y0087323D02*
X0019764Y0086992D01*
X0019530Y0086588D01*
X0019409Y0086136D01*
X0019409Y0084878D01*
X0021959Y0084878D01*
X0021959Y0087678D01*
X0020951Y0087678D01*
X0020499Y0087557D01*
X0020094Y0087323D01*
X0019490Y0086437D02*
X0005402Y0086437D01*
X0004822Y0085639D02*
X0019409Y0085639D01*
X0019409Y0084178D02*
X0019409Y0082919D01*
X0019530Y0082467D01*
X0019764Y0082063D01*
X0020094Y0081732D01*
X0020499Y0081499D01*
X0020951Y0081378D01*
X0021959Y0081378D01*
X0021959Y0084177D01*
X0022659Y0084177D01*
X0022659Y0081378D01*
X0023668Y0081378D01*
X0024119Y0081499D01*
X0024524Y0081732D01*
X0024855Y0082063D01*
X0025088Y0082467D01*
X0025209Y0082919D01*
X0025209Y0084178D01*
X0022659Y0084178D01*
X0022659Y0084878D01*
X0021959Y0084878D01*
X0021959Y0084178D01*
X0019409Y0084178D01*
X0019409Y0084042D02*
X0004119Y0084042D01*
X0004379Y0084840D02*
X0021959Y0084840D01*
X0022659Y0084840D02*
X0025609Y0084840D01*
X0025209Y0084878D02*
X0025209Y0086136D01*
X0025088Y0086588D01*
X0024855Y0086992D01*
X0024524Y0087323D01*
X0024119Y0087557D01*
X0023668Y0087678D01*
X0022659Y0087678D01*
X0022659Y0084878D01*
X0025209Y0084878D01*
X0025209Y0085639D02*
X0025609Y0085639D01*
X0025609Y0086437D02*
X0025129Y0086437D01*
X0024612Y0087236D02*
X0026290Y0087236D01*
X0022659Y0087236D02*
X0021959Y0087236D01*
X0021959Y0086437D02*
X0022659Y0086437D01*
X0022659Y0085639D02*
X0021959Y0085639D01*
X0021959Y0084042D02*
X0022659Y0084042D01*
X0022659Y0083243D02*
X0021959Y0083243D01*
X0021959Y0082444D02*
X0022659Y0082444D01*
X0022659Y0081646D02*
X0021959Y0081646D01*
X0020244Y0081646D02*
X0003470Y0081646D01*
X0003424Y0080847D02*
X0003407Y0080847D01*
X0003600Y0082444D02*
X0019544Y0082444D01*
X0019409Y0083243D02*
X0003860Y0083243D01*
X0008577Y0086496D02*
X0008577Y0087480D01*
X0007852Y0088833D02*
X0068547Y0088833D01*
X0069506Y0089631D02*
X0009005Y0089631D01*
X0011463Y0090430D02*
X0071712Y0090430D01*
X0075269Y0090430D02*
X0077712Y0090430D01*
X0076914Y0089631D02*
X0076067Y0089631D01*
X0076190Y0088833D02*
X0076790Y0088833D01*
X0076790Y0088034D02*
X0076190Y0088034D01*
X0076190Y0087236D02*
X0076790Y0087236D01*
X0076790Y0086437D02*
X0076190Y0086437D01*
X0076190Y0085639D02*
X0076790Y0085639D01*
X0077383Y0084840D02*
X0075578Y0084840D01*
X0077052Y0084042D02*
X0069255Y0084042D01*
X0070054Y0083243D02*
X0077043Y0083243D01*
X0077301Y0082444D02*
X0070852Y0082444D01*
X0071651Y0081646D02*
X0077946Y0081646D01*
X0080940Y0081646D02*
X0083017Y0081646D01*
X0082281Y0080847D02*
X0072449Y0080847D01*
X0073248Y0080049D02*
X0081964Y0080049D01*
X0081964Y0079250D02*
X0074046Y0079250D01*
X0074845Y0078452D02*
X0078832Y0078452D01*
X0082023Y0078452D02*
X0082245Y0078452D01*
X0082611Y0077653D02*
X0082923Y0077653D01*
X0082827Y0076855D02*
X0084995Y0076855D01*
X0085793Y0076056D02*
X0082778Y0076056D01*
X0082426Y0075258D02*
X0086592Y0075258D01*
X0082713Y0074459D02*
X0081402Y0074459D01*
X0082158Y0073661D02*
X0078697Y0073661D01*
X0078890Y0072862D02*
X0081964Y0072862D01*
X0082037Y0072064D02*
X0078818Y0072064D01*
X0078433Y0071265D02*
X0082422Y0071265D01*
X0083524Y0070467D02*
X0077331Y0070467D01*
X0078142Y0074459D02*
X0079453Y0074459D01*
X0068616Y0078622D02*
X0068616Y0079606D01*
X0067413Y0084840D02*
X0071403Y0084840D01*
X0082190Y0085639D02*
X0121772Y0085639D01*
X0121852Y0086437D02*
X0082190Y0086437D01*
X0082190Y0087236D02*
X0122369Y0087236D01*
X0124322Y0087236D02*
X0125022Y0087236D01*
X0125022Y0086437D02*
X0124322Y0086437D01*
X0124322Y0085639D02*
X0125022Y0085639D01*
X0125022Y0084042D02*
X0124322Y0084042D01*
X0124322Y0083243D02*
X0125022Y0083243D01*
X0125022Y0082444D02*
X0124322Y0082444D01*
X0124322Y0081646D02*
X0125022Y0081646D01*
X0128756Y0080049D02*
X0117616Y0080049D01*
X0117616Y0079250D02*
X0129964Y0079250D01*
X0131284Y0079250D02*
X0137727Y0079250D01*
X0137727Y0080049D02*
X0132493Y0080049D01*
X0132921Y0080847D02*
X0138298Y0080847D01*
X0134238Y0078452D02*
X0117616Y0078452D01*
X0117616Y0077653D02*
X0132167Y0077653D01*
X0131470Y0076855D02*
X0117616Y0076855D01*
X0117616Y0076056D02*
X0131177Y0076056D01*
X0131177Y0075258D02*
X0117616Y0075258D01*
X0117616Y0074459D02*
X0131480Y0074459D01*
X0132191Y0073661D02*
X0116994Y0073661D01*
X0133024Y0081646D02*
X0149511Y0081646D01*
X0149557Y0080847D02*
X0149573Y0080847D01*
X0149381Y0082444D02*
X0133316Y0082444D01*
X0133372Y0083243D02*
X0149121Y0083243D01*
X0148862Y0084042D02*
X0133372Y0084042D01*
X0133372Y0084840D02*
X0148602Y0084840D01*
X0148159Y0085639D02*
X0133372Y0085639D01*
X0133372Y0086437D02*
X0147579Y0086437D01*
X0146999Y0087236D02*
X0132691Y0087236D01*
X0128652Y0087236D02*
X0126974Y0087236D01*
X0127491Y0086437D02*
X0127972Y0086437D01*
X0127972Y0085639D02*
X0127572Y0085639D01*
X0140467Y0087480D02*
X0141451Y0087480D01*
X0143976Y0089631D02*
X0082067Y0089631D01*
X0082190Y0088833D02*
X0145129Y0088833D01*
X0146228Y0088034D02*
X0082190Y0088034D01*
X0081269Y0090430D02*
X0141518Y0090430D01*
X0137727Y0075258D02*
X0135977Y0075258D01*
X0135674Y0074459D02*
X0137727Y0074459D01*
X0138349Y0073661D02*
X0134963Y0073661D01*
X0142435Y0069764D02*
X0143420Y0069764D01*
X0149506Y0073661D02*
X0149594Y0073661D01*
X0088301Y0087480D02*
X0086333Y0087480D01*
X0066965Y0074459D02*
X0062394Y0074459D01*
X0062949Y0073661D02*
X0066410Y0073661D01*
X0066216Y0072862D02*
X0063142Y0072862D01*
X0063070Y0072064D02*
X0065842Y0072064D01*
X0065044Y0071265D02*
X0062833Y0071265D01*
X0062833Y0070467D02*
X0064245Y0070467D01*
X0063447Y0069668D02*
X0062833Y0069668D01*
X0059833Y0070467D02*
X0003387Y0070467D01*
X0003387Y0071265D02*
X0058800Y0071265D01*
X0058415Y0072064D02*
X0003387Y0072064D01*
X0003387Y0072862D02*
X0058342Y0072862D01*
X0058536Y0073661D02*
X0047144Y0073661D01*
X0047765Y0074459D02*
X0059091Y0074459D01*
X0053853Y0074685D02*
X0053853Y0073701D01*
X0047540Y0080847D02*
X0047194Y0080847D01*
X0035936Y0080847D02*
X0031111Y0080847D01*
X0031909Y0080049D02*
X0035365Y0080049D01*
X0035365Y0079250D02*
X0032708Y0079250D01*
X0033506Y0078452D02*
X0035365Y0078452D01*
X0035365Y0077653D02*
X0033748Y0077653D01*
X0034306Y0076855D02*
X0035365Y0076855D01*
X0035365Y0076056D02*
X0034599Y0076056D01*
X0034599Y0075258D02*
X0035365Y0075258D01*
X0035365Y0074459D02*
X0034296Y0074459D01*
X0033585Y0073661D02*
X0035987Y0073661D01*
X0030813Y0073661D02*
X0014632Y0073661D01*
X0015253Y0074459D02*
X0030103Y0074459D01*
X0029799Y0075258D02*
X0015253Y0075258D01*
X0015253Y0076056D02*
X0029799Y0076056D01*
X0030092Y0076855D02*
X0015253Y0076855D01*
X0015253Y0077653D02*
X0030062Y0077653D01*
X0029264Y0078452D02*
X0015253Y0078452D01*
X0015253Y0079250D02*
X0028465Y0079250D01*
X0027667Y0080049D02*
X0015253Y0080049D01*
X0014683Y0080847D02*
X0026868Y0080847D01*
X0026464Y0081646D02*
X0024375Y0081646D01*
X0025075Y0082444D02*
X0025665Y0082444D01*
X0025609Y0083243D02*
X0025209Y0083243D01*
X0025209Y0084042D02*
X0025609Y0084042D01*
X0003475Y0073661D02*
X0003387Y0073661D01*
X0074537Y0036929D02*
X0075695Y0036929D01*
X0135800Y0012974D02*
X0148467Y0012974D01*
X0147887Y0012175D02*
X0136261Y0012175D01*
X0136459Y0011377D02*
X0147306Y0011377D01*
X0146726Y0010578D02*
X0136725Y0010578D01*
X0136991Y0009780D02*
X0145712Y0009780D01*
X0144612Y0008981D02*
X0137257Y0008981D01*
X0137523Y0008183D02*
X0142822Y0008183D01*
D17*
X0125703Y0046142D02*
X0120782Y0051063D01*
X0120782Y0063858D01*
X0116845Y0067795D01*
X0110939Y0067795D01*
X0108971Y0069764D01*
X0079443Y0083543D02*
X0079443Y0084480D01*
X0079490Y0087480D01*
M02*
