G75*
%MOIN*%
%OFA0B0*%
%FSLAX25Y25*%
%IPPOS*%
%LPD*%
%AMOC8*
5,1,8,0,0,1.08239X$1,22.5*
%
%ADD10R,0.01378X0.07874*%
%ADD11C,0.00750*%
%ADD12R,0.10000X0.05000*%
%ADD13C,0.08000*%
%ADD14C,0.00600*%
%ADD15C,0.02400*%
%ADD16C,0.00800*%
%ADD17C,0.01100*%
D10*
X0058640Y0058876D03*
X0061396Y0058876D03*
X0064152Y0058876D03*
X0066907Y0058876D03*
X0069663Y0058876D03*
X0072419Y0058876D03*
X0075175Y0058876D03*
X0077931Y0058876D03*
X0080687Y0058876D03*
X0083443Y0058876D03*
X0086199Y0058876D03*
X0088955Y0058876D03*
X0091711Y0058876D03*
X0094467Y0058876D03*
D11*
X0123609Y0081865D02*
X0125859Y0081865D01*
X0125859Y0079115D01*
X0123609Y0079115D01*
X0123609Y0081865D01*
X0123609Y0079864D02*
X0125859Y0079864D01*
X0125859Y0080613D02*
X0123609Y0080613D01*
X0123609Y0081362D02*
X0125859Y0081362D01*
X0129609Y0081865D02*
X0131859Y0081865D01*
X0131859Y0079115D01*
X0129609Y0079115D01*
X0129609Y0081865D01*
X0129609Y0079864D02*
X0131859Y0079864D01*
X0131859Y0080613D02*
X0129609Y0080613D01*
X0129609Y0081362D02*
X0131859Y0081362D01*
X0080678Y0084818D02*
X0078428Y0084818D01*
X0080678Y0084818D02*
X0080678Y0082068D01*
X0078428Y0082068D01*
X0078428Y0084818D01*
X0078428Y0082817D02*
X0080678Y0082817D01*
X0080678Y0083566D02*
X0078428Y0083566D01*
X0078428Y0084315D02*
X0080678Y0084315D01*
X0074678Y0084818D02*
X0072428Y0084818D01*
X0074678Y0084818D02*
X0074678Y0082068D01*
X0072428Y0082068D01*
X0072428Y0084818D01*
X0072428Y0082817D02*
X0074678Y0082817D01*
X0074678Y0083566D02*
X0072428Y0083566D01*
X0072428Y0084315D02*
X0074678Y0084315D01*
X0029497Y0081865D02*
X0027247Y0081865D01*
X0029497Y0081865D02*
X0029497Y0079115D01*
X0027247Y0079115D01*
X0027247Y0081865D01*
X0027247Y0079864D02*
X0029497Y0079864D01*
X0029497Y0080613D02*
X0027247Y0080613D01*
X0027247Y0081362D02*
X0029497Y0081362D01*
X0023497Y0081865D02*
X0021247Y0081865D01*
X0023497Y0081865D02*
X0023497Y0079115D01*
X0021247Y0079115D01*
X0021247Y0081865D01*
X0021247Y0079864D02*
X0023497Y0079864D01*
X0023497Y0080613D02*
X0021247Y0080613D01*
X0021247Y0081362D02*
X0023497Y0081362D01*
D12*
X0009116Y0073242D03*
X0009116Y0056242D03*
X0009116Y0045683D03*
X0009116Y0028683D03*
X0041628Y0028683D03*
X0041628Y0045683D03*
X0041628Y0056242D03*
X0041628Y0073242D03*
X0111478Y0073242D03*
X0111478Y0056242D03*
X0111478Y0045683D03*
X0111478Y0028683D03*
X0143990Y0028683D03*
X0143990Y0045683D03*
X0143990Y0056242D03*
X0143990Y0073242D03*
D13*
X0132927Y0045057D03*
X0052927Y0045057D03*
D14*
X0047026Y0039152D02*
X0058837Y0027341D01*
X0080490Y0027341D01*
X0081474Y0028325D01*
X0077537Y0031278D02*
X0074093Y0031278D01*
X0072124Y0033246D01*
X0062281Y0033246D01*
X0057360Y0038167D01*
X0048994Y0035215D02*
X0047518Y0035215D01*
X0048994Y0035215D02*
X0058344Y0025864D01*
X0085904Y0025864D01*
X0079506Y0021435D02*
X0076553Y0024388D01*
X0049978Y0024388D01*
X0048010Y0022419D01*
X0060805Y0020451D02*
X0069171Y0020451D01*
X0079014Y0010608D01*
X0095254Y0010608D01*
X0100175Y0015530D01*
X0106573Y0021927D02*
X0110510Y0021927D01*
X0111002Y0022419D01*
X0106573Y0021927D02*
X0104112Y0024388D01*
X0086396Y0044073D02*
X0091809Y0049486D01*
X0095254Y0049486D01*
X0098207Y0051947D02*
X0090825Y0051947D01*
X0082951Y0044073D01*
X0080490Y0044073D01*
X0073600Y0049978D02*
X0072616Y0049978D01*
X0069663Y0052931D01*
X0069663Y0058876D01*
X0066907Y0058876D02*
X0066907Y0053128D01*
X0065726Y0051947D01*
X0064152Y0058876D02*
X0064152Y0064152D01*
X0068679Y0068679D01*
X0072616Y0064742D02*
X0072419Y0064545D01*
X0072419Y0058876D01*
X0075175Y0058876D02*
X0075175Y0053325D01*
X0076553Y0051947D01*
X0082459Y0051947D01*
X0083443Y0052931D01*
X0083443Y0058876D01*
X0086199Y0058876D02*
X0086199Y0066907D01*
X0084427Y0068679D01*
X0088955Y0071041D02*
X0084427Y0075569D01*
X0080490Y0072616D02*
X0074585Y0072616D01*
X0068679Y0078522D01*
X0066711Y0078522D01*
X0070648Y0083443D02*
X0073553Y0083443D01*
X0088955Y0071041D02*
X0088955Y0058876D01*
X0091711Y0058876D02*
X0091711Y0068089D01*
X0091317Y0068679D01*
X0094467Y0073404D02*
X0092301Y0075569D01*
X0094467Y0073404D02*
X0094467Y0058876D01*
X0076553Y0068679D02*
X0075175Y0067301D01*
X0075175Y0058876D01*
X0061396Y0058876D02*
X0061396Y0068089D01*
X0060805Y0068679D01*
X0053915Y0062774D02*
X0057813Y0058876D01*
X0058640Y0058876D01*
X0041628Y0045683D02*
X0029935Y0045683D01*
X0020451Y0036199D01*
X0032262Y0071632D02*
X0032309Y0073553D01*
X0028372Y0077490D01*
X0028372Y0080490D01*
X0041628Y0073242D02*
X0042970Y0074585D01*
X0048502Y0074585D01*
X0126258Y0052439D02*
X0136100Y0052439D01*
X0142856Y0045683D01*
X0143990Y0045683D01*
X0133640Y0071632D02*
X0135250Y0073242D01*
X0143990Y0073242D01*
X0130687Y0077537D02*
X0130687Y0080443D01*
X0130734Y0080490D01*
D15*
X0130687Y0077537D03*
X0133640Y0071632D03*
X0142498Y0065726D03*
X0126258Y0052439D03*
X0125766Y0042104D03*
X0123797Y0036199D03*
X0111002Y0022419D03*
X0104112Y0024388D03*
X0097222Y0019467D03*
X0100175Y0015530D03*
X0085411Y0014545D03*
X0079506Y0021435D03*
X0074585Y0021435D03*
X0081474Y0028325D03*
X0077537Y0031278D03*
X0070648Y0030293D03*
X0060805Y0020451D03*
X0048010Y0022419D03*
X0040136Y0015530D03*
X0016514Y0019467D03*
X0020451Y0036199D03*
X0047026Y0039152D03*
X0047518Y0035215D03*
X0057360Y0038167D03*
X0073600Y0049978D03*
X0065726Y0051947D03*
X0080490Y0044073D03*
X0086396Y0044073D03*
X0095254Y0049486D03*
X0098207Y0051947D03*
X0082459Y0051947D03*
X0072616Y0064742D03*
X0068679Y0068679D03*
X0068679Y0074585D03*
X0066711Y0078522D03*
X0060805Y0074585D03*
X0053915Y0069663D03*
X0060805Y0068679D03*
X0053915Y0062774D03*
X0048502Y0074585D03*
X0032262Y0071632D03*
X0008640Y0083443D03*
X0070648Y0083443D03*
X0079506Y0079506D03*
X0076553Y0075569D03*
X0080490Y0072616D03*
X0084427Y0075569D03*
X0092301Y0075569D03*
X0091317Y0068679D03*
X0084427Y0068679D03*
X0076553Y0068679D03*
X0086396Y0083443D03*
X0102144Y0066711D03*
X0109033Y0065726D03*
X0140530Y0083443D03*
X0097222Y0035215D03*
X0093285Y0035215D03*
X0093285Y0031278D03*
X0097222Y0031278D03*
X0085904Y0025864D03*
D16*
X0008971Y0004552D02*
X0006411Y0006411D01*
X0004552Y0008971D01*
X0003574Y0011979D01*
X0003450Y0013561D01*
X0003450Y0024951D01*
X0003576Y0024878D01*
X0003932Y0024783D01*
X0008716Y0024783D01*
X0008716Y0028283D01*
X0009516Y0028283D01*
X0009516Y0024783D01*
X0014300Y0024783D01*
X0014657Y0024878D01*
X0014976Y0025063D01*
X0015236Y0025323D01*
X0015421Y0025643D01*
X0015516Y0025999D01*
X0015516Y0028283D01*
X0009516Y0028283D01*
X0009516Y0029083D01*
X0008716Y0029083D01*
X0008716Y0032583D01*
X0003932Y0032583D01*
X0003576Y0032488D01*
X0003450Y0032415D01*
X0003450Y0042152D01*
X0003619Y0041983D01*
X0014613Y0041983D01*
X0015316Y0042686D01*
X0015316Y0048680D01*
X0014613Y0049383D01*
X0003619Y0049383D01*
X0003450Y0049214D01*
X0003450Y0052510D01*
X0003576Y0052438D01*
X0003932Y0052342D01*
X0008716Y0052342D01*
X0008716Y0055842D01*
X0009516Y0055842D01*
X0009516Y0052342D01*
X0014300Y0052342D01*
X0014657Y0052438D01*
X0014976Y0052622D01*
X0015236Y0052883D01*
X0015421Y0053202D01*
X0015516Y0053558D01*
X0015516Y0055842D01*
X0009516Y0055842D01*
X0009516Y0056642D01*
X0008716Y0056642D01*
X0008716Y0060142D01*
X0003932Y0060142D01*
X0003576Y0060047D01*
X0003450Y0059974D01*
X0003450Y0069711D01*
X0003619Y0069542D01*
X0014613Y0069542D01*
X0015316Y0070245D01*
X0015316Y0076239D01*
X0014613Y0076942D01*
X0003619Y0076942D01*
X0003469Y0076792D01*
X0003574Y0078135D01*
X0004552Y0081143D01*
X0006411Y0083703D01*
X0008971Y0085562D01*
X0011979Y0086540D01*
X0013561Y0086664D01*
X0139545Y0086664D01*
X0141127Y0086540D01*
X0144136Y0085562D01*
X0146695Y0083703D01*
X0148554Y0081143D01*
X0149532Y0078135D01*
X0149638Y0076792D01*
X0149487Y0076942D01*
X0138493Y0076942D01*
X0137790Y0076239D01*
X0137790Y0074742D01*
X0134629Y0074742D01*
X0133918Y0074032D01*
X0133162Y0074032D01*
X0132280Y0073666D01*
X0131605Y0072991D01*
X0131240Y0072109D01*
X0131240Y0071154D01*
X0131605Y0070272D01*
X0132280Y0069597D01*
X0133162Y0069232D01*
X0134117Y0069232D01*
X0134999Y0069597D01*
X0135674Y0070272D01*
X0136040Y0071154D01*
X0136040Y0071742D01*
X0137790Y0071742D01*
X0137790Y0070245D01*
X0138493Y0069542D01*
X0149487Y0069542D01*
X0149656Y0069711D01*
X0149656Y0059974D01*
X0149531Y0060047D01*
X0149174Y0060142D01*
X0144390Y0060142D01*
X0144390Y0056642D01*
X0143590Y0056642D01*
X0143590Y0055842D01*
X0137590Y0055842D01*
X0137590Y0053558D01*
X0137686Y0053202D01*
X0137870Y0052883D01*
X0138131Y0052622D01*
X0138450Y0052438D01*
X0138806Y0052342D01*
X0143590Y0052342D01*
X0143590Y0055842D01*
X0144390Y0055842D01*
X0144390Y0052342D01*
X0149174Y0052342D01*
X0149531Y0052438D01*
X0149656Y0052510D01*
X0149656Y0049214D01*
X0149487Y0049383D01*
X0141278Y0049383D01*
X0137600Y0053060D01*
X0136722Y0053939D01*
X0128152Y0053939D01*
X0127617Y0054474D01*
X0126735Y0054839D01*
X0125780Y0054839D01*
X0124898Y0054474D01*
X0124223Y0053798D01*
X0123858Y0052916D01*
X0123858Y0051962D01*
X0124223Y0051079D01*
X0124898Y0050404D01*
X0125780Y0050039D01*
X0126735Y0050039D01*
X0127617Y0050404D01*
X0128152Y0050939D01*
X0135479Y0050939D01*
X0137790Y0048628D01*
X0137790Y0046905D01*
X0137336Y0048003D01*
X0135873Y0049465D01*
X0133962Y0050257D01*
X0131893Y0050257D01*
X0129982Y0049465D01*
X0128519Y0048003D01*
X0127727Y0046091D01*
X0127727Y0044023D01*
X0128519Y0042112D01*
X0129982Y0040649D01*
X0131893Y0039857D01*
X0133962Y0039857D01*
X0135873Y0040649D01*
X0137336Y0042112D01*
X0137790Y0043209D01*
X0137790Y0042686D01*
X0138493Y0041983D01*
X0149487Y0041983D01*
X0149656Y0042152D01*
X0149656Y0032415D01*
X0149531Y0032488D01*
X0149174Y0032583D01*
X0144390Y0032583D01*
X0144390Y0029083D01*
X0143590Y0029083D01*
X0143590Y0028283D01*
X0137590Y0028283D01*
X0137590Y0025999D01*
X0137686Y0025643D01*
X0137870Y0025323D01*
X0138131Y0025063D01*
X0138450Y0024878D01*
X0138806Y0024783D01*
X0143590Y0024783D01*
X0143590Y0028283D01*
X0144390Y0028283D01*
X0144390Y0024783D01*
X0149174Y0024783D01*
X0149531Y0024878D01*
X0149656Y0024951D01*
X0149656Y0013561D01*
X0149532Y0011979D01*
X0148554Y0008971D01*
X0146695Y0006411D01*
X0144136Y0004552D01*
X0141127Y0003574D01*
X0139545Y0003450D01*
X0137818Y0003450D01*
X0136324Y0007931D01*
X0136324Y0008360D01*
X0136110Y0008574D01*
X0136014Y0008861D01*
X0135631Y0009053D01*
X0135328Y0009355D01*
X0135025Y0009355D01*
X0134754Y0009491D01*
X0134348Y0009355D01*
X0117183Y0009355D01*
X0116777Y0009491D01*
X0116506Y0009355D01*
X0116203Y0009355D01*
X0115900Y0009053D01*
X0115517Y0008861D01*
X0115422Y0008574D01*
X0115207Y0008360D01*
X0115207Y0007931D01*
X0113714Y0003450D01*
X0074826Y0003450D01*
X0073332Y0007931D01*
X0073332Y0008360D01*
X0073118Y0008574D01*
X0073022Y0008861D01*
X0072639Y0009053D01*
X0072336Y0009355D01*
X0072033Y0009355D01*
X0071762Y0009491D01*
X0071356Y0009355D01*
X0053207Y0009355D01*
X0052801Y0009491D01*
X0052530Y0009355D01*
X0052227Y0009355D01*
X0051924Y0009053D01*
X0051541Y0008861D01*
X0051445Y0008574D01*
X0051231Y0008360D01*
X0051231Y0007931D01*
X0049737Y0003450D01*
X0036915Y0003450D01*
X0036915Y0010328D01*
X0035919Y0011324D01*
X0033413Y0011324D01*
X0031993Y0014873D01*
X0031993Y0015249D01*
X0031742Y0015501D01*
X0031610Y0015830D01*
X0031264Y0015979D01*
X0030997Y0016245D01*
X0030642Y0016245D01*
X0030316Y0016385D01*
X0029966Y0016245D01*
X0018810Y0016245D01*
X0018460Y0016385D01*
X0018133Y0016245D01*
X0017778Y0016245D01*
X0017512Y0015979D01*
X0017165Y0015830D01*
X0017033Y0015501D01*
X0016782Y0015249D01*
X0016782Y0014873D01*
X0015363Y0011324D01*
X0012857Y0011324D01*
X0011861Y0010328D01*
X0011861Y0003613D01*
X0008971Y0004552D01*
X0008431Y0004944D02*
X0011861Y0004944D01*
X0011861Y0004146D02*
X0010222Y0004146D01*
X0011861Y0005743D02*
X0007332Y0005743D01*
X0006317Y0006541D02*
X0011861Y0006541D01*
X0011861Y0007340D02*
X0005737Y0007340D01*
X0005157Y0008138D02*
X0011861Y0008138D01*
X0011861Y0008937D02*
X0004577Y0008937D01*
X0004304Y0009735D02*
X0011861Y0009735D01*
X0012066Y0010534D02*
X0004044Y0010534D01*
X0003785Y0011332D02*
X0015366Y0011332D01*
X0015685Y0012131D02*
X0003563Y0012131D01*
X0003500Y0012929D02*
X0016005Y0012929D01*
X0016324Y0013728D02*
X0003450Y0013728D01*
X0003450Y0014526D02*
X0016644Y0014526D01*
X0016858Y0015325D02*
X0003450Y0015325D01*
X0003450Y0016123D02*
X0017656Y0016123D01*
X0017498Y0019467D02*
X0016514Y0019467D01*
X0014706Y0024907D02*
X0036038Y0024907D01*
X0036088Y0024878D02*
X0036444Y0024783D01*
X0041228Y0024783D01*
X0041228Y0028283D01*
X0042028Y0028283D01*
X0042028Y0029083D01*
X0048028Y0029083D01*
X0048028Y0031367D01*
X0047933Y0031723D01*
X0047748Y0032043D01*
X0047488Y0032303D01*
X0047168Y0032488D01*
X0046812Y0032583D01*
X0042028Y0032583D01*
X0042028Y0029083D01*
X0041228Y0029083D01*
X0041228Y0028283D01*
X0035228Y0028283D01*
X0035228Y0025999D01*
X0035323Y0025643D01*
X0035508Y0025323D01*
X0035768Y0025063D01*
X0036088Y0024878D01*
X0035307Y0025705D02*
X0015437Y0025705D01*
X0015516Y0026504D02*
X0035228Y0026504D01*
X0035228Y0027302D02*
X0015516Y0027302D01*
X0015516Y0028101D02*
X0035228Y0028101D01*
X0035228Y0029083D02*
X0041228Y0029083D01*
X0041228Y0032583D01*
X0036444Y0032583D01*
X0036088Y0032488D01*
X0035768Y0032303D01*
X0035508Y0032043D01*
X0035323Y0031723D01*
X0035228Y0031367D01*
X0035228Y0029083D01*
X0035228Y0029698D02*
X0015516Y0029698D01*
X0015516Y0029083D02*
X0015516Y0031367D01*
X0015421Y0031723D01*
X0015236Y0032043D01*
X0014976Y0032303D01*
X0014657Y0032488D01*
X0014300Y0032583D01*
X0009516Y0032583D01*
X0009516Y0029083D01*
X0015516Y0029083D01*
X0015516Y0030496D02*
X0035228Y0030496D01*
X0035228Y0031295D02*
X0015516Y0031295D01*
X0015186Y0032093D02*
X0035558Y0032093D01*
X0041228Y0032093D02*
X0042028Y0032093D01*
X0042028Y0031295D02*
X0041228Y0031295D01*
X0041228Y0030496D02*
X0042028Y0030496D01*
X0042028Y0029698D02*
X0041228Y0029698D01*
X0041228Y0028899D02*
X0009516Y0028899D01*
X0009516Y0028101D02*
X0008716Y0028101D01*
X0008716Y0027302D02*
X0009516Y0027302D01*
X0009516Y0026504D02*
X0008716Y0026504D01*
X0008716Y0025705D02*
X0009516Y0025705D01*
X0009516Y0024907D02*
X0008716Y0024907D01*
X0003527Y0024907D02*
X0003450Y0024907D01*
X0003450Y0024108D02*
X0046305Y0024108D01*
X0045975Y0023779D02*
X0045610Y0022897D01*
X0045610Y0021942D01*
X0045975Y0021060D01*
X0046650Y0020385D01*
X0047532Y0020019D01*
X0048487Y0020019D01*
X0049369Y0020385D01*
X0050044Y0021060D01*
X0050410Y0021942D01*
X0050410Y0022698D01*
X0050600Y0022888D01*
X0075932Y0022888D01*
X0077106Y0021714D01*
X0077106Y0020958D01*
X0077471Y0020076D01*
X0078146Y0019400D01*
X0079029Y0019035D01*
X0079983Y0019035D01*
X0080865Y0019400D01*
X0081541Y0020076D01*
X0081906Y0020958D01*
X0081906Y0021912D01*
X0081541Y0022795D01*
X0080865Y0023470D01*
X0079983Y0023835D01*
X0079227Y0023835D01*
X0078698Y0024364D01*
X0084009Y0024364D01*
X0084544Y0023830D01*
X0085426Y0023464D01*
X0086381Y0023464D01*
X0087263Y0023830D01*
X0087938Y0024505D01*
X0088304Y0025387D01*
X0088304Y0026342D01*
X0087938Y0027224D01*
X0087263Y0027899D01*
X0086381Y0028264D01*
X0085426Y0028264D01*
X0084544Y0027899D01*
X0084009Y0027364D01*
X0083674Y0027364D01*
X0083874Y0027847D01*
X0083874Y0028802D01*
X0083509Y0029684D01*
X0082834Y0030359D01*
X0081952Y0030725D01*
X0080997Y0030725D01*
X0080115Y0030359D01*
X0079440Y0029684D01*
X0079090Y0028841D01*
X0059458Y0028841D01*
X0049426Y0038873D01*
X0049426Y0039629D01*
X0049060Y0040511D01*
X0048385Y0041186D01*
X0047503Y0041552D01*
X0046548Y0041552D01*
X0045666Y0041186D01*
X0044991Y0040511D01*
X0044626Y0039629D01*
X0044626Y0038674D01*
X0044991Y0037792D01*
X0045666Y0037117D01*
X0045921Y0037012D01*
X0045483Y0036574D01*
X0045118Y0035692D01*
X0045118Y0034737D01*
X0045483Y0033855D01*
X0046158Y0033180D01*
X0047040Y0032815D01*
X0047995Y0032815D01*
X0048877Y0033180D01*
X0048892Y0033195D01*
X0056200Y0025888D01*
X0049357Y0025888D01*
X0048289Y0024819D01*
X0047532Y0024819D01*
X0046650Y0024454D01*
X0045975Y0023779D01*
X0045781Y0023310D02*
X0003450Y0023310D01*
X0003450Y0022511D02*
X0045610Y0022511D01*
X0045705Y0021713D02*
X0003450Y0021713D01*
X0003450Y0020914D02*
X0046121Y0020914D01*
X0047300Y0020116D02*
X0003450Y0020116D01*
X0003450Y0019317D02*
X0058677Y0019317D01*
X0058770Y0019091D02*
X0059446Y0018416D01*
X0060328Y0018051D01*
X0061283Y0018051D01*
X0062165Y0018416D01*
X0062699Y0018951D01*
X0068550Y0018951D01*
X0078392Y0009108D01*
X0095875Y0009108D01*
X0096754Y0009987D01*
X0099897Y0013130D01*
X0100653Y0013130D01*
X0101535Y0013495D01*
X0102210Y0014170D01*
X0102575Y0015052D01*
X0102575Y0016007D01*
X0102210Y0016889D01*
X0101535Y0017564D01*
X0100653Y0017930D01*
X0099698Y0017930D01*
X0098816Y0017564D01*
X0098141Y0016889D01*
X0097775Y0016007D01*
X0097775Y0015251D01*
X0094633Y0012108D01*
X0079635Y0012108D01*
X0070671Y0021072D01*
X0069793Y0021951D01*
X0062699Y0021951D01*
X0062165Y0022485D01*
X0061283Y0022851D01*
X0060328Y0022851D01*
X0059446Y0022485D01*
X0058770Y0021810D01*
X0058405Y0020928D01*
X0058405Y0019973D01*
X0058770Y0019091D01*
X0059343Y0018519D02*
X0003450Y0018519D01*
X0003450Y0017720D02*
X0069780Y0017720D01*
X0069370Y0017033D02*
X0067989Y0017033D01*
X0066713Y0016504D01*
X0065736Y0015528D01*
X0065207Y0014252D01*
X0065207Y0012870D01*
X0065736Y0011594D01*
X0066713Y0010618D01*
X0067989Y0010089D01*
X0069370Y0010089D01*
X0070646Y0010618D01*
X0071622Y0011594D01*
X0072151Y0012870D01*
X0072151Y0014252D01*
X0071622Y0015528D01*
X0070646Y0016504D01*
X0069370Y0017033D01*
X0069638Y0016922D02*
X0070579Y0016922D01*
X0071027Y0016123D02*
X0071378Y0016123D01*
X0071706Y0015325D02*
X0072176Y0015325D01*
X0072037Y0014526D02*
X0072975Y0014526D01*
X0073773Y0013728D02*
X0072151Y0013728D01*
X0072151Y0012929D02*
X0074572Y0012929D01*
X0075370Y0012131D02*
X0071844Y0012131D01*
X0071360Y0011332D02*
X0076169Y0011332D01*
X0076967Y0010534D02*
X0070442Y0010534D01*
X0072871Y0008937D02*
X0115668Y0008937D01*
X0115207Y0008138D02*
X0073332Y0008138D01*
X0073529Y0007340D02*
X0115010Y0007340D01*
X0114744Y0006541D02*
X0073795Y0006541D01*
X0074061Y0005743D02*
X0114478Y0005743D01*
X0114212Y0004944D02*
X0074328Y0004944D01*
X0074594Y0004146D02*
X0113946Y0004146D01*
X0117894Y0010618D02*
X0119170Y0010089D01*
X0120551Y0010089D01*
X0121827Y0010618D01*
X0122803Y0011594D01*
X0123332Y0012870D01*
X0123332Y0014252D01*
X0122803Y0015528D01*
X0121827Y0016504D01*
X0120551Y0017033D01*
X0119170Y0017033D01*
X0117894Y0016504D01*
X0116917Y0015528D01*
X0116389Y0014252D01*
X0116389Y0012870D01*
X0116917Y0011594D01*
X0117894Y0010618D01*
X0118097Y0010534D02*
X0097301Y0010534D01*
X0098099Y0011332D02*
X0117179Y0011332D01*
X0116695Y0012131D02*
X0098898Y0012131D01*
X0099696Y0012929D02*
X0116389Y0012929D01*
X0116389Y0013728D02*
X0101767Y0013728D01*
X0102357Y0014526D02*
X0116502Y0014526D01*
X0116833Y0015325D02*
X0102575Y0015325D01*
X0102527Y0016123D02*
X0117513Y0016123D01*
X0118902Y0016922D02*
X0102177Y0016922D01*
X0101158Y0017720D02*
X0149656Y0017720D01*
X0149656Y0016922D02*
X0132630Y0016922D01*
X0132362Y0017033D02*
X0130981Y0017033D01*
X0129705Y0016504D01*
X0128728Y0015528D01*
X0128200Y0014252D01*
X0128200Y0012870D01*
X0128728Y0011594D01*
X0129705Y0010618D01*
X0130981Y0010089D01*
X0132362Y0010089D01*
X0133638Y0010618D01*
X0134614Y0011594D01*
X0135143Y0012870D01*
X0135143Y0014252D01*
X0134614Y0015528D01*
X0133638Y0016504D01*
X0132362Y0017033D01*
X0130713Y0016922D02*
X0120819Y0016922D01*
X0122208Y0016123D02*
X0129324Y0016123D01*
X0128644Y0015325D02*
X0122887Y0015325D01*
X0123218Y0014526D02*
X0128313Y0014526D01*
X0128200Y0013728D02*
X0123332Y0013728D01*
X0123332Y0012929D02*
X0128200Y0012929D01*
X0128506Y0012131D02*
X0123025Y0012131D01*
X0122541Y0011332D02*
X0128990Y0011332D01*
X0129908Y0010534D02*
X0121623Y0010534D01*
X0133434Y0010534D02*
X0149062Y0010534D01*
X0149322Y0011332D02*
X0134352Y0011332D01*
X0134836Y0012131D02*
X0149544Y0012131D01*
X0149607Y0012929D02*
X0135143Y0012929D01*
X0135143Y0013728D02*
X0149656Y0013728D01*
X0149656Y0014526D02*
X0135029Y0014526D01*
X0134698Y0015325D02*
X0149656Y0015325D01*
X0149656Y0016123D02*
X0134019Y0016123D01*
X0135863Y0008937D02*
X0148529Y0008937D01*
X0148803Y0009735D02*
X0096502Y0009735D01*
X0094655Y0012131D02*
X0079613Y0012131D01*
X0078814Y0012929D02*
X0095454Y0012929D01*
X0096252Y0013728D02*
X0078016Y0013728D01*
X0077217Y0014526D02*
X0097051Y0014526D01*
X0097775Y0015325D02*
X0076419Y0015325D01*
X0075620Y0016123D02*
X0097823Y0016123D01*
X0098173Y0016922D02*
X0074822Y0016922D01*
X0074023Y0017720D02*
X0099193Y0017720D01*
X0102753Y0022353D02*
X0103635Y0021988D01*
X0104391Y0021988D01*
X0105073Y0021306D01*
X0105952Y0020427D01*
X0109600Y0020427D01*
X0109642Y0020385D01*
X0110525Y0020019D01*
X0111479Y0020019D01*
X0112361Y0020385D01*
X0113037Y0021060D01*
X0113402Y0021942D01*
X0113402Y0022897D01*
X0113037Y0023779D01*
X0112361Y0024454D01*
X0111479Y0024819D01*
X0111078Y0024819D01*
X0111078Y0028283D01*
X0105078Y0028283D01*
X0105078Y0026585D01*
X0104590Y0026788D01*
X0103635Y0026788D01*
X0102753Y0026422D01*
X0102078Y0025747D01*
X0101712Y0024865D01*
X0101712Y0023910D01*
X0102078Y0023028D01*
X0102753Y0022353D01*
X0102595Y0022511D02*
X0081658Y0022511D01*
X0081906Y0021713D02*
X0104666Y0021713D01*
X0105464Y0020914D02*
X0081888Y0020914D01*
X0081557Y0020116D02*
X0110292Y0020116D01*
X0111712Y0020116D02*
X0149656Y0020116D01*
X0149656Y0020914D02*
X0112891Y0020914D01*
X0113307Y0021713D02*
X0149656Y0021713D01*
X0149656Y0022511D02*
X0113402Y0022511D01*
X0113231Y0023310D02*
X0149656Y0023310D01*
X0149656Y0024108D02*
X0112707Y0024108D01*
X0111878Y0024783D02*
X0116663Y0024783D01*
X0117019Y0024878D01*
X0117338Y0025063D01*
X0117599Y0025323D01*
X0117783Y0025643D01*
X0117878Y0025999D01*
X0117878Y0028283D01*
X0111878Y0028283D01*
X0111878Y0024783D01*
X0111878Y0024907D02*
X0111078Y0024907D01*
X0111078Y0025705D02*
X0111878Y0025705D01*
X0111878Y0026504D02*
X0111078Y0026504D01*
X0111078Y0027302D02*
X0111878Y0027302D01*
X0111878Y0028101D02*
X0111078Y0028101D01*
X0111078Y0028283D02*
X0111878Y0028283D01*
X0111878Y0029083D01*
X0111078Y0029083D01*
X0111078Y0028283D01*
X0111078Y0028899D02*
X0083834Y0028899D01*
X0083874Y0028101D02*
X0085032Y0028101D01*
X0086775Y0028101D02*
X0105078Y0028101D01*
X0105078Y0027302D02*
X0087859Y0027302D01*
X0088236Y0026504D02*
X0102949Y0026504D01*
X0102060Y0025705D02*
X0088304Y0025705D01*
X0088105Y0024907D02*
X0101729Y0024907D01*
X0101712Y0024108D02*
X0087542Y0024108D01*
X0084265Y0024108D02*
X0078954Y0024108D01*
X0081025Y0023310D02*
X0101961Y0023310D01*
X0105078Y0029083D02*
X0111078Y0029083D01*
X0111078Y0032583D01*
X0106294Y0032583D01*
X0105938Y0032488D01*
X0105619Y0032303D01*
X0105358Y0032043D01*
X0105174Y0031723D01*
X0105078Y0031367D01*
X0105078Y0029083D01*
X0105078Y0029698D02*
X0083495Y0029698D01*
X0082503Y0030496D02*
X0105078Y0030496D01*
X0105078Y0031295D02*
X0079937Y0031295D01*
X0079937Y0031755D02*
X0079937Y0030800D01*
X0079572Y0029918D01*
X0078897Y0029243D01*
X0078015Y0028878D01*
X0077060Y0028878D01*
X0076178Y0029243D01*
X0075643Y0029778D01*
X0073471Y0029778D01*
X0071503Y0031746D01*
X0061660Y0031746D01*
X0057639Y0035767D01*
X0056883Y0035767D01*
X0056001Y0036133D01*
X0055326Y0036808D01*
X0054960Y0037690D01*
X0054960Y0038645D01*
X0055326Y0039527D01*
X0056001Y0040202D01*
X0056883Y0040567D01*
X0057838Y0040567D01*
X0058720Y0040202D01*
X0059395Y0039527D01*
X0059760Y0038645D01*
X0059760Y0037889D01*
X0062903Y0034746D01*
X0072745Y0034746D01*
X0073624Y0033867D01*
X0074714Y0032778D01*
X0075643Y0032778D01*
X0076178Y0033312D01*
X0077060Y0033678D01*
X0078015Y0033678D01*
X0078897Y0033312D01*
X0079572Y0032637D01*
X0079937Y0031755D01*
X0079797Y0032093D02*
X0105409Y0032093D01*
X0111078Y0032093D02*
X0111878Y0032093D01*
X0111878Y0032583D02*
X0111878Y0029083D01*
X0117878Y0029083D01*
X0117878Y0031367D01*
X0117783Y0031723D01*
X0117599Y0032043D01*
X0117338Y0032303D01*
X0117019Y0032488D01*
X0116663Y0032583D01*
X0111878Y0032583D01*
X0111878Y0031295D02*
X0111078Y0031295D01*
X0111078Y0030496D02*
X0111878Y0030496D01*
X0111878Y0029698D02*
X0111078Y0029698D01*
X0111878Y0028899D02*
X0143590Y0028899D01*
X0143590Y0029083D02*
X0137590Y0029083D01*
X0137590Y0031367D01*
X0137686Y0031723D01*
X0137870Y0032043D01*
X0138131Y0032303D01*
X0138450Y0032488D01*
X0138806Y0032583D01*
X0143590Y0032583D01*
X0143590Y0029083D01*
X0143590Y0029698D02*
X0144390Y0029698D01*
X0144390Y0030496D02*
X0143590Y0030496D01*
X0143590Y0031295D02*
X0144390Y0031295D01*
X0144390Y0032093D02*
X0143590Y0032093D01*
X0137921Y0032093D02*
X0117548Y0032093D01*
X0117878Y0031295D02*
X0137590Y0031295D01*
X0137590Y0030496D02*
X0117878Y0030496D01*
X0117878Y0029698D02*
X0137590Y0029698D01*
X0137590Y0028101D02*
X0117878Y0028101D01*
X0117878Y0027302D02*
X0137590Y0027302D01*
X0137590Y0026504D02*
X0117878Y0026504D01*
X0117800Y0025705D02*
X0137669Y0025705D01*
X0138401Y0024907D02*
X0117068Y0024907D01*
X0122813Y0035215D02*
X0123797Y0036199D01*
X0125288Y0039704D02*
X0124406Y0040070D01*
X0123731Y0040745D01*
X0123366Y0041627D01*
X0123366Y0042029D01*
X0120120Y0045276D01*
X0119094Y0046301D01*
X0119094Y0059096D01*
X0116183Y0062008D01*
X0110277Y0062008D01*
X0108959Y0063326D01*
X0108556Y0063326D01*
X0107674Y0063692D01*
X0106999Y0064367D01*
X0106633Y0065249D01*
X0106633Y0066204D01*
X0106999Y0067086D01*
X0107674Y0067761D01*
X0108556Y0068126D01*
X0109511Y0068126D01*
X0110393Y0067761D01*
X0111068Y0067086D01*
X0111433Y0066204D01*
X0111433Y0065801D01*
X0111727Y0065508D01*
X0117632Y0065508D01*
X0118657Y0064483D01*
X0122594Y0060546D01*
X0122594Y0047750D01*
X0125841Y0044504D01*
X0126243Y0044504D01*
X0127125Y0044139D01*
X0127800Y0043464D01*
X0128166Y0042582D01*
X0128166Y0041627D01*
X0127800Y0040745D01*
X0127125Y0040070D01*
X0126243Y0039704D01*
X0125288Y0039704D01*
X0124397Y0040079D02*
X0058843Y0040079D01*
X0059497Y0039280D02*
X0149656Y0039280D01*
X0149656Y0038482D02*
X0059760Y0038482D01*
X0059966Y0037683D02*
X0149656Y0037683D01*
X0149656Y0036884D02*
X0060764Y0036884D01*
X0061563Y0036086D02*
X0149656Y0036086D01*
X0149656Y0035287D02*
X0062361Y0035287D01*
X0060514Y0032892D02*
X0055407Y0032892D01*
X0056205Y0032093D02*
X0061313Y0032093D01*
X0059716Y0033690D02*
X0054608Y0033690D01*
X0053810Y0034489D02*
X0058917Y0034489D01*
X0058119Y0035287D02*
X0053011Y0035287D01*
X0052212Y0036086D02*
X0056114Y0036086D01*
X0055294Y0036884D02*
X0051414Y0036884D01*
X0050615Y0037683D02*
X0054963Y0037683D01*
X0054960Y0038482D02*
X0049817Y0038482D01*
X0049426Y0039280D02*
X0055223Y0039280D01*
X0055000Y0040053D02*
X0055757Y0040439D01*
X0056445Y0040938D01*
X0057046Y0041539D01*
X0057546Y0042227D01*
X0057932Y0042984D01*
X0058194Y0043793D01*
X0058327Y0044632D01*
X0058327Y0044657D01*
X0053327Y0044657D01*
X0053327Y0039657D01*
X0053352Y0039657D01*
X0054192Y0039790D01*
X0055000Y0040053D01*
X0055051Y0040079D02*
X0055877Y0040079D01*
X0056361Y0040877D02*
X0123676Y0040877D01*
X0123366Y0041676D02*
X0086880Y0041676D01*
X0086873Y0041673D02*
X0087755Y0042038D01*
X0088430Y0042713D01*
X0088796Y0043595D01*
X0088796Y0044352D01*
X0092430Y0047986D01*
X0093360Y0047986D01*
X0093894Y0047452D01*
X0094777Y0047086D01*
X0095731Y0047086D01*
X0096613Y0047452D01*
X0097289Y0048127D01*
X0097654Y0049009D01*
X0097654Y0049578D01*
X0097729Y0049547D01*
X0098684Y0049547D01*
X0099566Y0049912D01*
X0100241Y0050587D01*
X0100607Y0051469D01*
X0100607Y0052424D01*
X0100241Y0053306D01*
X0099566Y0053981D01*
X0098684Y0054347D01*
X0097729Y0054347D01*
X0096847Y0053981D01*
X0096313Y0053447D01*
X0090203Y0053447D01*
X0089325Y0052568D01*
X0082357Y0045600D01*
X0081850Y0046107D01*
X0080968Y0046473D01*
X0080013Y0046473D01*
X0079131Y0046107D01*
X0078456Y0045432D01*
X0078090Y0044550D01*
X0078090Y0043595D01*
X0078456Y0042713D01*
X0079131Y0042038D01*
X0080013Y0041673D01*
X0080968Y0041673D01*
X0081850Y0042038D01*
X0082384Y0042573D01*
X0083572Y0042573D01*
X0084171Y0043172D01*
X0084361Y0042713D01*
X0085036Y0042038D01*
X0085918Y0041673D01*
X0086873Y0041673D01*
X0085912Y0041676D02*
X0080974Y0041676D01*
X0080006Y0041676D02*
X0057145Y0041676D01*
X0057672Y0042474D02*
X0078695Y0042474D01*
X0078224Y0043273D02*
X0058025Y0043273D01*
X0058238Y0044071D02*
X0078090Y0044071D01*
X0078222Y0044870D02*
X0053327Y0044870D01*
X0053327Y0044657D02*
X0053327Y0045457D01*
X0052527Y0045457D01*
X0052527Y0050457D01*
X0052502Y0050457D01*
X0051663Y0050324D01*
X0050854Y0050061D01*
X0050097Y0049676D01*
X0049409Y0049176D01*
X0048808Y0048575D01*
X0048309Y0047887D01*
X0047923Y0047130D01*
X0047828Y0046838D01*
X0047828Y0048680D01*
X0047125Y0049383D01*
X0036131Y0049383D01*
X0035428Y0048680D01*
X0035428Y0047183D01*
X0029314Y0047183D01*
X0028435Y0046304D01*
X0020729Y0038599D01*
X0019973Y0038599D01*
X0019091Y0038233D01*
X0018416Y0037558D01*
X0018051Y0036676D01*
X0018051Y0035721D01*
X0018416Y0034839D01*
X0019091Y0034164D01*
X0019973Y0033799D01*
X0020928Y0033799D01*
X0021810Y0034164D01*
X0022485Y0034839D01*
X0022851Y0035721D01*
X0022851Y0036477D01*
X0030556Y0044183D01*
X0035428Y0044183D01*
X0035428Y0042686D01*
X0036131Y0041983D01*
X0047125Y0041983D01*
X0047828Y0042686D01*
X0047828Y0043276D01*
X0047923Y0042984D01*
X0048309Y0042227D01*
X0048808Y0041539D01*
X0049409Y0040938D01*
X0050097Y0040439D01*
X0050854Y0040053D01*
X0051663Y0039790D01*
X0052502Y0039657D01*
X0052527Y0039657D01*
X0052527Y0044657D01*
X0053327Y0044657D01*
X0053327Y0044071D02*
X0052527Y0044071D01*
X0052527Y0043273D02*
X0053327Y0043273D01*
X0053327Y0042474D02*
X0052527Y0042474D01*
X0052527Y0041676D02*
X0053327Y0041676D01*
X0053327Y0040877D02*
X0052527Y0040877D01*
X0052527Y0040079D02*
X0053327Y0040079D01*
X0050804Y0040079D02*
X0049239Y0040079D01*
X0049493Y0040877D02*
X0048694Y0040877D01*
X0048709Y0041676D02*
X0028049Y0041676D01*
X0028847Y0042474D02*
X0035640Y0042474D01*
X0035428Y0043273D02*
X0029646Y0043273D01*
X0030444Y0044071D02*
X0035428Y0044071D01*
X0035428Y0047265D02*
X0026419Y0047265D01*
X0026826Y0047434D02*
X0028007Y0048615D01*
X0028647Y0050159D01*
X0028647Y0051830D01*
X0028007Y0053373D01*
X0026826Y0054555D01*
X0025282Y0055194D01*
X0023611Y0055194D01*
X0022068Y0054555D01*
X0020886Y0053373D01*
X0020247Y0051830D01*
X0020247Y0050159D01*
X0020886Y0048615D01*
X0022068Y0047434D01*
X0023611Y0046794D01*
X0025282Y0046794D01*
X0026826Y0047434D01*
X0027456Y0048064D02*
X0035428Y0048064D01*
X0035610Y0048862D02*
X0028110Y0048862D01*
X0028441Y0049661D02*
X0050076Y0049661D01*
X0049095Y0048862D02*
X0047646Y0048862D01*
X0047828Y0048064D02*
X0048437Y0048064D01*
X0047992Y0047265D02*
X0047828Y0047265D01*
X0047828Y0043273D02*
X0047829Y0043273D01*
X0047616Y0042474D02*
X0048183Y0042474D01*
X0045357Y0040877D02*
X0027250Y0040877D01*
X0026452Y0040079D02*
X0044812Y0040079D01*
X0044626Y0039280D02*
X0025653Y0039280D01*
X0024855Y0038482D02*
X0044705Y0038482D01*
X0045100Y0037683D02*
X0024056Y0037683D01*
X0023258Y0036884D02*
X0045794Y0036884D01*
X0045281Y0036086D02*
X0022851Y0036086D01*
X0022671Y0035287D02*
X0045118Y0035287D01*
X0045221Y0034489D02*
X0022135Y0034489D01*
X0018767Y0034489D02*
X0003450Y0034489D01*
X0003450Y0035287D02*
X0018231Y0035287D01*
X0018051Y0036086D02*
X0003450Y0036086D01*
X0003450Y0036884D02*
X0018137Y0036884D01*
X0018541Y0037683D02*
X0003450Y0037683D01*
X0003450Y0038482D02*
X0019690Y0038482D01*
X0021411Y0039280D02*
X0003450Y0039280D01*
X0003450Y0040079D02*
X0022209Y0040079D01*
X0023008Y0040877D02*
X0003450Y0040877D01*
X0003450Y0041676D02*
X0023806Y0041676D01*
X0024605Y0042474D02*
X0015104Y0042474D01*
X0015316Y0043273D02*
X0025403Y0043273D01*
X0026202Y0044071D02*
X0015316Y0044071D01*
X0015316Y0044870D02*
X0027000Y0044870D01*
X0027799Y0045668D02*
X0015316Y0045668D01*
X0015316Y0046467D02*
X0028597Y0046467D01*
X0028647Y0050459D02*
X0063820Y0050459D01*
X0063692Y0050587D02*
X0064367Y0049912D01*
X0065249Y0049547D01*
X0066204Y0049547D01*
X0067086Y0049912D01*
X0067761Y0050587D01*
X0068126Y0051469D01*
X0068126Y0052226D01*
X0068187Y0052286D01*
X0069042Y0051431D01*
X0071362Y0049111D01*
X0071566Y0048619D01*
X0072241Y0047944D01*
X0073123Y0047578D01*
X0074078Y0047578D01*
X0074960Y0047944D01*
X0075635Y0048619D01*
X0076000Y0049501D01*
X0076000Y0050447D01*
X0080565Y0050447D01*
X0081099Y0049912D01*
X0081981Y0049547D01*
X0082936Y0049547D01*
X0083818Y0049912D01*
X0084493Y0050587D01*
X0084859Y0051469D01*
X0084859Y0052226D01*
X0084943Y0052310D01*
X0084943Y0053809D01*
X0085013Y0053739D01*
X0087385Y0053739D01*
X0087577Y0053931D01*
X0087769Y0053739D01*
X0090141Y0053739D01*
X0090333Y0053931D01*
X0090525Y0053739D01*
X0092897Y0053739D01*
X0093089Y0053931D01*
X0093280Y0053739D01*
X0095653Y0053739D01*
X0096355Y0054442D01*
X0096355Y0063310D01*
X0095967Y0063699D01*
X0095967Y0074025D01*
X0094701Y0075290D01*
X0094701Y0076046D01*
X0094336Y0076928D01*
X0093661Y0077604D01*
X0092779Y0077969D01*
X0091824Y0077969D01*
X0090942Y0077604D01*
X0090267Y0076928D01*
X0089901Y0076046D01*
X0089901Y0075091D01*
X0090267Y0074209D01*
X0090942Y0073534D01*
X0091824Y0073169D01*
X0092580Y0073169D01*
X0092967Y0072782D01*
X0092967Y0070424D01*
X0092676Y0070714D01*
X0091794Y0071079D01*
X0090840Y0071079D01*
X0090455Y0070920D01*
X0090455Y0071663D01*
X0086827Y0075290D01*
X0086827Y0076046D01*
X0086462Y0076928D01*
X0085787Y0077604D01*
X0084905Y0077969D01*
X0083950Y0077969D01*
X0083068Y0077604D01*
X0082393Y0076928D01*
X0082027Y0076046D01*
X0082027Y0075091D01*
X0082393Y0074209D01*
X0083068Y0073534D01*
X0083950Y0073169D01*
X0084706Y0073169D01*
X0087455Y0070420D01*
X0087455Y0067773D01*
X0086827Y0068400D01*
X0086827Y0069157D01*
X0086462Y0070039D01*
X0085787Y0070714D01*
X0084905Y0071079D01*
X0083950Y0071079D01*
X0083068Y0070714D01*
X0082393Y0070039D01*
X0082027Y0069157D01*
X0082027Y0068202D01*
X0082393Y0067320D01*
X0083068Y0066645D01*
X0083950Y0066279D01*
X0084699Y0066279D01*
X0084699Y0063943D01*
X0084629Y0064013D01*
X0082257Y0064013D01*
X0082065Y0063821D01*
X0081873Y0064013D01*
X0079501Y0064013D01*
X0079443Y0063955D01*
X0079160Y0064118D01*
X0078804Y0064213D01*
X0077931Y0064213D01*
X0077058Y0064213D01*
X0076702Y0064118D01*
X0076675Y0064102D01*
X0076675Y0066279D01*
X0077031Y0066279D01*
X0077913Y0066645D01*
X0078588Y0067320D01*
X0078953Y0068202D01*
X0078953Y0069157D01*
X0078588Y0070039D01*
X0077913Y0070714D01*
X0077031Y0071079D01*
X0076076Y0071079D01*
X0075194Y0070714D01*
X0074519Y0070039D01*
X0074153Y0069157D01*
X0074153Y0068400D01*
X0073675Y0067923D01*
X0073675Y0066901D01*
X0073094Y0067142D01*
X0072139Y0067142D01*
X0071257Y0066777D01*
X0070582Y0066102D01*
X0070216Y0065220D01*
X0070216Y0064265D01*
X0070320Y0064013D01*
X0068477Y0064013D01*
X0068285Y0063821D01*
X0068094Y0064013D01*
X0066134Y0064013D01*
X0068400Y0066279D01*
X0069157Y0066279D01*
X0070039Y0066645D01*
X0070714Y0067320D01*
X0071079Y0068202D01*
X0071079Y0069157D01*
X0070714Y0070039D01*
X0070039Y0070714D01*
X0069157Y0071079D01*
X0068202Y0071079D01*
X0067320Y0070714D01*
X0066645Y0070039D01*
X0066279Y0069157D01*
X0066279Y0068400D01*
X0062896Y0065017D01*
X0062896Y0067455D01*
X0063205Y0068202D01*
X0063205Y0069157D01*
X0062840Y0070039D01*
X0062165Y0070714D01*
X0061283Y0071079D01*
X0060328Y0071079D01*
X0059446Y0070714D01*
X0058770Y0070039D01*
X0058405Y0069157D01*
X0058405Y0068202D01*
X0058770Y0067320D01*
X0059446Y0066645D01*
X0059896Y0066458D01*
X0059896Y0063943D01*
X0059826Y0064013D01*
X0057454Y0064013D01*
X0056751Y0063310D01*
X0056751Y0062059D01*
X0056315Y0062495D01*
X0056315Y0063251D01*
X0055950Y0064133D01*
X0055275Y0064808D01*
X0054393Y0065174D01*
X0053438Y0065174D01*
X0052556Y0064808D01*
X0051881Y0064133D01*
X0051515Y0063251D01*
X0051515Y0062296D01*
X0051881Y0061414D01*
X0052556Y0060739D01*
X0053438Y0060374D01*
X0054194Y0060374D01*
X0056751Y0057817D01*
X0056751Y0054442D01*
X0057454Y0053739D01*
X0059826Y0053739D01*
X0060018Y0053931D01*
X0060210Y0053739D01*
X0062582Y0053739D01*
X0062774Y0053931D01*
X0062966Y0053739D01*
X0064124Y0053739D01*
X0063692Y0053306D01*
X0063326Y0052424D01*
X0063326Y0051469D01*
X0063692Y0050587D01*
X0063414Y0051258D02*
X0028647Y0051258D01*
X0028553Y0052056D02*
X0063326Y0052056D01*
X0063505Y0052855D02*
X0047720Y0052855D01*
X0047748Y0052883D02*
X0047933Y0053202D01*
X0048028Y0053558D01*
X0048028Y0055842D01*
X0042028Y0055842D01*
X0042028Y0052342D01*
X0046812Y0052342D01*
X0047168Y0052438D01*
X0047488Y0052622D01*
X0047748Y0052883D01*
X0048028Y0053653D02*
X0064039Y0053653D01*
X0064974Y0049661D02*
X0055778Y0049661D01*
X0055757Y0049676D02*
X0055000Y0050061D01*
X0054192Y0050324D01*
X0053352Y0050457D01*
X0053327Y0050457D01*
X0053327Y0045457D01*
X0058327Y0045457D01*
X0058327Y0045482D01*
X0058194Y0046322D01*
X0057932Y0047130D01*
X0057546Y0047887D01*
X0057046Y0048575D01*
X0056445Y0049176D01*
X0055757Y0049676D01*
X0056759Y0048862D02*
X0071465Y0048862D01*
X0070812Y0049661D02*
X0066479Y0049661D01*
X0067633Y0050459D02*
X0070014Y0050459D01*
X0069215Y0051258D02*
X0068039Y0051258D01*
X0068126Y0052056D02*
X0068417Y0052056D01*
X0072121Y0048064D02*
X0057418Y0048064D01*
X0057863Y0047265D02*
X0084022Y0047265D01*
X0084820Y0048064D02*
X0075080Y0048064D01*
X0075736Y0048862D02*
X0085619Y0048862D01*
X0086417Y0049661D02*
X0083211Y0049661D01*
X0084365Y0050459D02*
X0087216Y0050459D01*
X0088014Y0051258D02*
X0084771Y0051258D01*
X0084859Y0052056D02*
X0088813Y0052056D01*
X0089611Y0052855D02*
X0084943Y0052855D01*
X0084943Y0053653D02*
X0096519Y0053653D01*
X0096355Y0054452D02*
X0105078Y0054452D01*
X0105078Y0055250D02*
X0096355Y0055250D01*
X0096355Y0056049D02*
X0111078Y0056049D01*
X0111078Y0055842D02*
X0111078Y0056642D01*
X0105078Y0056642D01*
X0105078Y0058926D01*
X0105174Y0059283D01*
X0105358Y0059602D01*
X0105619Y0059862D01*
X0105938Y0060047D01*
X0106294Y0060142D01*
X0111078Y0060142D01*
X0111078Y0056642D01*
X0111878Y0056642D01*
X0111878Y0060142D01*
X0116663Y0060142D01*
X0117019Y0060047D01*
X0117338Y0059862D01*
X0117599Y0059602D01*
X0117783Y0059283D01*
X0117878Y0058926D01*
X0117878Y0056642D01*
X0111878Y0056642D01*
X0111878Y0055842D01*
X0111878Y0052342D01*
X0116663Y0052342D01*
X0117019Y0052438D01*
X0117338Y0052622D01*
X0117599Y0052883D01*
X0117783Y0053202D01*
X0117878Y0053558D01*
X0117878Y0055842D01*
X0111878Y0055842D01*
X0111078Y0055842D01*
X0105078Y0055842D01*
X0105078Y0053558D01*
X0105174Y0053202D01*
X0105358Y0052883D01*
X0105619Y0052622D01*
X0105938Y0052438D01*
X0106294Y0052342D01*
X0111078Y0052342D01*
X0111078Y0055842D01*
X0111078Y0055250D02*
X0111878Y0055250D01*
X0111878Y0054452D02*
X0111078Y0054452D01*
X0111078Y0053653D02*
X0111878Y0053653D01*
X0111878Y0052855D02*
X0111078Y0052855D01*
X0111878Y0056049D02*
X0119094Y0056049D01*
X0119094Y0056847D02*
X0117878Y0056847D01*
X0117878Y0057646D02*
X0119094Y0057646D01*
X0119094Y0058444D02*
X0117878Y0058444D01*
X0117794Y0059243D02*
X0118948Y0059243D01*
X0118149Y0060041D02*
X0117028Y0060041D01*
X0117351Y0060840D02*
X0096355Y0060840D01*
X0096355Y0061638D02*
X0116552Y0061638D01*
X0119106Y0064034D02*
X0149656Y0064034D01*
X0149656Y0064832D02*
X0118308Y0064832D01*
X0119905Y0063235D02*
X0149656Y0063235D01*
X0149656Y0062437D02*
X0120703Y0062437D01*
X0121502Y0061638D02*
X0149656Y0061638D01*
X0149656Y0060840D02*
X0122300Y0060840D01*
X0122594Y0060041D02*
X0138440Y0060041D01*
X0138450Y0060047D02*
X0138131Y0059862D01*
X0137870Y0059602D01*
X0137686Y0059283D01*
X0137590Y0058926D01*
X0137590Y0056642D01*
X0143590Y0056642D01*
X0143590Y0060142D01*
X0138806Y0060142D01*
X0138450Y0060047D01*
X0137675Y0059243D02*
X0122594Y0059243D01*
X0122594Y0058444D02*
X0137590Y0058444D01*
X0137590Y0057646D02*
X0122594Y0057646D01*
X0122594Y0056847D02*
X0137590Y0056847D01*
X0137590Y0055250D02*
X0122594Y0055250D01*
X0122594Y0054452D02*
X0124877Y0054452D01*
X0124163Y0053653D02*
X0122594Y0053653D01*
X0122594Y0052855D02*
X0123858Y0052855D01*
X0123858Y0052056D02*
X0122594Y0052056D01*
X0122594Y0051258D02*
X0124149Y0051258D01*
X0124844Y0050459D02*
X0122594Y0050459D01*
X0122594Y0049661D02*
X0130453Y0049661D01*
X0129378Y0048862D02*
X0122594Y0048862D01*
X0122594Y0048064D02*
X0128580Y0048064D01*
X0128213Y0047265D02*
X0123080Y0047265D01*
X0123878Y0046467D02*
X0127883Y0046467D01*
X0127727Y0045668D02*
X0124677Y0045668D01*
X0125475Y0044870D02*
X0127727Y0044870D01*
X0127727Y0044071D02*
X0127193Y0044071D01*
X0127880Y0043273D02*
X0128038Y0043273D01*
X0128166Y0042474D02*
X0128369Y0042474D01*
X0128166Y0041676D02*
X0128955Y0041676D01*
X0129753Y0040877D02*
X0127855Y0040877D01*
X0127134Y0040079D02*
X0131358Y0040079D01*
X0134496Y0040079D02*
X0149656Y0040079D01*
X0149656Y0040877D02*
X0136101Y0040877D01*
X0136900Y0041676D02*
X0149656Y0041676D01*
X0149656Y0034489D02*
X0073002Y0034489D01*
X0073801Y0033690D02*
X0149656Y0033690D01*
X0149656Y0032892D02*
X0079317Y0032892D01*
X0075758Y0032892D02*
X0074599Y0032892D01*
X0071954Y0031295D02*
X0057004Y0031295D01*
X0057802Y0030496D02*
X0072752Y0030496D01*
X0075723Y0029698D02*
X0058601Y0029698D01*
X0059399Y0028899D02*
X0077007Y0028899D01*
X0078067Y0028899D02*
X0079115Y0028899D01*
X0079352Y0029698D02*
X0079453Y0029698D01*
X0079812Y0030496D02*
X0080446Y0030496D01*
X0076308Y0022511D02*
X0062102Y0022511D01*
X0059508Y0022511D02*
X0050410Y0022511D01*
X0050315Y0021713D02*
X0058730Y0021713D01*
X0058405Y0020914D02*
X0049899Y0020914D01*
X0048720Y0020116D02*
X0058405Y0020116D01*
X0062267Y0018519D02*
X0068982Y0018519D01*
X0067721Y0016922D02*
X0057827Y0016922D01*
X0057559Y0017033D02*
X0056178Y0017033D01*
X0054902Y0016504D01*
X0053925Y0015528D01*
X0053396Y0014252D01*
X0053396Y0012870D01*
X0053925Y0011594D01*
X0054902Y0010618D01*
X0056178Y0010089D01*
X0057559Y0010089D01*
X0058835Y0010618D01*
X0059811Y0011594D01*
X0060340Y0012870D01*
X0060340Y0014252D01*
X0059811Y0015528D01*
X0058835Y0016504D01*
X0057559Y0017033D01*
X0055910Y0016922D02*
X0003450Y0016922D01*
X0008716Y0029698D02*
X0009516Y0029698D01*
X0009516Y0030496D02*
X0008716Y0030496D01*
X0008716Y0031295D02*
X0009516Y0031295D01*
X0009516Y0032093D02*
X0008716Y0032093D01*
X0003450Y0032892D02*
X0046854Y0032892D01*
X0047697Y0032093D02*
X0049994Y0032093D01*
X0050792Y0031295D02*
X0048028Y0031295D01*
X0048028Y0030496D02*
X0051591Y0030496D01*
X0052389Y0029698D02*
X0048028Y0029698D01*
X0048028Y0028283D02*
X0042028Y0028283D01*
X0042028Y0024783D01*
X0046812Y0024783D01*
X0047168Y0024878D01*
X0047488Y0025063D01*
X0047748Y0025323D01*
X0047933Y0025643D01*
X0048028Y0025999D01*
X0048028Y0028283D01*
X0048028Y0028101D02*
X0053986Y0028101D01*
X0053188Y0028899D02*
X0042028Y0028899D01*
X0042028Y0028101D02*
X0041228Y0028101D01*
X0041228Y0027302D02*
X0042028Y0027302D01*
X0042028Y0026504D02*
X0041228Y0026504D01*
X0041228Y0025705D02*
X0042028Y0025705D01*
X0042028Y0024907D02*
X0041228Y0024907D01*
X0047217Y0024907D02*
X0048376Y0024907D01*
X0047949Y0025705D02*
X0049175Y0025705D01*
X0048028Y0026504D02*
X0055583Y0026504D01*
X0054785Y0027302D02*
X0048028Y0027302D01*
X0048182Y0032892D02*
X0049195Y0032892D01*
X0045648Y0033690D02*
X0003450Y0033690D01*
X0015316Y0047265D02*
X0022474Y0047265D01*
X0021438Y0048064D02*
X0015316Y0048064D01*
X0015134Y0048862D02*
X0020784Y0048862D01*
X0020453Y0049661D02*
X0003450Y0049661D01*
X0003450Y0050459D02*
X0020247Y0050459D01*
X0020247Y0051258D02*
X0003450Y0051258D01*
X0003450Y0052056D02*
X0020341Y0052056D01*
X0020672Y0052855D02*
X0015209Y0052855D01*
X0015516Y0053653D02*
X0021166Y0053653D01*
X0021965Y0054452D02*
X0015516Y0054452D01*
X0015516Y0055250D02*
X0035228Y0055250D01*
X0035228Y0055842D02*
X0035228Y0053558D01*
X0035323Y0053202D01*
X0035508Y0052883D01*
X0035768Y0052622D01*
X0036088Y0052438D01*
X0036444Y0052342D01*
X0041228Y0052342D01*
X0041228Y0055842D01*
X0042028Y0055842D01*
X0042028Y0056642D01*
X0048028Y0056642D01*
X0048028Y0058926D01*
X0047933Y0059283D01*
X0047748Y0059602D01*
X0047488Y0059862D01*
X0047168Y0060047D01*
X0046812Y0060142D01*
X0042028Y0060142D01*
X0042028Y0056642D01*
X0041228Y0056642D01*
X0041228Y0055842D01*
X0035228Y0055842D01*
X0035228Y0056642D02*
X0041228Y0056642D01*
X0041228Y0060142D01*
X0036444Y0060142D01*
X0036088Y0060047D01*
X0035768Y0059862D01*
X0035508Y0059602D01*
X0035323Y0059283D01*
X0035228Y0058926D01*
X0035228Y0056642D01*
X0035228Y0056847D02*
X0015516Y0056847D01*
X0015516Y0056642D02*
X0015516Y0058926D01*
X0015421Y0059283D01*
X0015236Y0059602D01*
X0014976Y0059862D01*
X0014657Y0060047D01*
X0014300Y0060142D01*
X0009516Y0060142D01*
X0009516Y0056642D01*
X0015516Y0056642D01*
X0015516Y0057646D02*
X0035228Y0057646D01*
X0035228Y0058444D02*
X0015516Y0058444D01*
X0015431Y0059243D02*
X0035313Y0059243D01*
X0036078Y0060041D02*
X0014666Y0060041D01*
X0009516Y0060041D02*
X0008716Y0060041D01*
X0008716Y0059243D02*
X0009516Y0059243D01*
X0009516Y0058444D02*
X0008716Y0058444D01*
X0008716Y0057646D02*
X0009516Y0057646D01*
X0009516Y0056847D02*
X0008716Y0056847D01*
X0009516Y0056049D02*
X0041228Y0056049D01*
X0041228Y0056847D02*
X0042028Y0056847D01*
X0042028Y0056049D02*
X0056751Y0056049D01*
X0056751Y0056847D02*
X0048028Y0056847D01*
X0048028Y0057646D02*
X0056751Y0057646D01*
X0056123Y0058444D02*
X0048028Y0058444D01*
X0047943Y0059243D02*
X0055325Y0059243D01*
X0054526Y0060041D02*
X0047178Y0060041D01*
X0051788Y0061638D02*
X0003450Y0061638D01*
X0003450Y0060840D02*
X0052455Y0060840D01*
X0051515Y0062437D02*
X0003450Y0062437D01*
X0003450Y0063235D02*
X0051515Y0063235D01*
X0051840Y0064034D02*
X0003450Y0064034D01*
X0003450Y0064832D02*
X0052614Y0064832D01*
X0055217Y0064832D02*
X0059896Y0064832D01*
X0059896Y0064034D02*
X0055991Y0064034D01*
X0056315Y0063235D02*
X0056751Y0063235D01*
X0056751Y0062437D02*
X0056373Y0062437D01*
X0059896Y0065631D02*
X0003450Y0065631D01*
X0003450Y0066429D02*
X0059896Y0066429D01*
X0058862Y0067228D02*
X0003450Y0067228D01*
X0003450Y0068026D02*
X0058478Y0068026D01*
X0058405Y0068825D02*
X0003450Y0068825D01*
X0003450Y0069623D02*
X0003538Y0069623D01*
X0003470Y0076810D02*
X0003487Y0076810D01*
X0003533Y0077609D02*
X0020307Y0077609D01*
X0020157Y0077695D02*
X0020562Y0077461D01*
X0021013Y0077340D01*
X0022022Y0077340D01*
X0022022Y0080140D01*
X0022722Y0080140D01*
X0022722Y0077340D01*
X0023731Y0077340D01*
X0024182Y0077461D01*
X0024587Y0077695D01*
X0024917Y0078025D01*
X0025151Y0078430D01*
X0025272Y0078881D01*
X0025272Y0080140D01*
X0022722Y0080140D01*
X0022722Y0080840D01*
X0025272Y0080840D01*
X0025272Y0082099D01*
X0025151Y0082550D01*
X0024917Y0082955D01*
X0024587Y0083286D01*
X0024182Y0083519D01*
X0023731Y0083640D01*
X0022722Y0083640D01*
X0022722Y0080840D01*
X0022022Y0080840D01*
X0022022Y0080140D01*
X0019472Y0080140D01*
X0019472Y0078881D01*
X0019593Y0078430D01*
X0019827Y0078025D01*
X0020157Y0077695D01*
X0019606Y0078407D02*
X0003663Y0078407D01*
X0003922Y0079206D02*
X0019472Y0079206D01*
X0019472Y0080004D02*
X0004182Y0080004D01*
X0004441Y0080803D02*
X0022022Y0080803D01*
X0022022Y0080840D02*
X0019472Y0080840D01*
X0019472Y0082099D01*
X0019593Y0082550D01*
X0019827Y0082955D01*
X0020157Y0083286D01*
X0020562Y0083519D01*
X0021013Y0083640D01*
X0022022Y0083640D01*
X0022022Y0080840D01*
X0022722Y0080803D02*
X0025672Y0080803D01*
X0025672Y0081601D02*
X0025272Y0081601D01*
X0025191Y0082400D02*
X0025672Y0082400D01*
X0025672Y0082518D02*
X0025672Y0078463D01*
X0026595Y0077540D01*
X0026872Y0077540D01*
X0026872Y0076869D01*
X0030488Y0073253D01*
X0030227Y0072991D01*
X0029862Y0072109D01*
X0029862Y0071154D01*
X0030227Y0070272D01*
X0030902Y0069597D01*
X0031784Y0069232D01*
X0032739Y0069232D01*
X0033621Y0069597D01*
X0034296Y0070272D01*
X0034662Y0071154D01*
X0034662Y0072109D01*
X0034296Y0072991D01*
X0033809Y0073479D01*
X0033809Y0073535D01*
X0033824Y0074137D01*
X0033809Y0074153D01*
X0033809Y0074174D01*
X0033383Y0074601D01*
X0032967Y0075037D01*
X0032946Y0075038D01*
X0030296Y0077687D01*
X0031072Y0078463D01*
X0031072Y0082518D01*
X0030149Y0083440D01*
X0026595Y0083440D01*
X0025672Y0082518D01*
X0026353Y0083198D02*
X0024674Y0083198D01*
X0022722Y0083198D02*
X0022022Y0083198D01*
X0022022Y0082400D02*
X0022722Y0082400D01*
X0022722Y0081601D02*
X0022022Y0081601D01*
X0020070Y0083198D02*
X0006045Y0083198D01*
X0005465Y0082400D02*
X0019553Y0082400D01*
X0019472Y0081601D02*
X0004885Y0081601D01*
X0006816Y0083997D02*
X0068279Y0083997D01*
X0068248Y0083920D02*
X0068248Y0082966D01*
X0068613Y0082083D01*
X0069288Y0081408D01*
X0070170Y0081043D01*
X0071125Y0081043D01*
X0071196Y0081072D01*
X0071776Y0080493D01*
X0075331Y0080493D01*
X0076253Y0081416D01*
X0076253Y0085470D01*
X0075331Y0086393D01*
X0071776Y0086393D01*
X0071196Y0085813D01*
X0071125Y0085843D01*
X0070170Y0085843D01*
X0069288Y0085478D01*
X0068613Y0084802D01*
X0068248Y0083920D01*
X0068248Y0083198D02*
X0030391Y0083198D01*
X0031072Y0082400D02*
X0068482Y0082400D01*
X0069095Y0081601D02*
X0031072Y0081601D01*
X0031072Y0080803D02*
X0065946Y0080803D01*
X0066233Y0080922D02*
X0065351Y0080556D01*
X0064676Y0079881D01*
X0064311Y0078999D01*
X0064311Y0078044D01*
X0064676Y0077162D01*
X0065351Y0076487D01*
X0066233Y0076122D01*
X0067188Y0076122D01*
X0068070Y0076487D01*
X0068331Y0076748D01*
X0073963Y0071116D01*
X0078596Y0071116D01*
X0079131Y0070582D01*
X0080013Y0070216D01*
X0080968Y0070216D01*
X0081850Y0070582D01*
X0082525Y0071257D01*
X0082890Y0072139D01*
X0082890Y0073094D01*
X0082525Y0073976D01*
X0081850Y0074651D01*
X0080968Y0075016D01*
X0080013Y0075016D01*
X0079131Y0074651D01*
X0078596Y0074116D01*
X0075206Y0074116D01*
X0070179Y0079143D01*
X0069300Y0080022D01*
X0068605Y0080022D01*
X0068070Y0080556D01*
X0067188Y0080922D01*
X0066233Y0080922D01*
X0067475Y0080803D02*
X0071466Y0080803D01*
X0070116Y0079206D02*
X0077106Y0079206D01*
X0077106Y0079029D02*
X0077106Y0079983D01*
X0077451Y0080817D01*
X0076853Y0081416D01*
X0076853Y0085470D01*
X0077776Y0086393D01*
X0081331Y0086393D01*
X0082253Y0085470D01*
X0082253Y0081416D01*
X0081588Y0080750D01*
X0081906Y0079983D01*
X0081906Y0079029D01*
X0081541Y0078146D01*
X0080865Y0077471D01*
X0079983Y0077106D01*
X0079029Y0077106D01*
X0078146Y0077471D01*
X0077471Y0078146D01*
X0077106Y0079029D01*
X0077363Y0078407D02*
X0070915Y0078407D01*
X0071714Y0077609D02*
X0078009Y0077609D01*
X0077115Y0080004D02*
X0069318Y0080004D01*
X0069068Y0076012D02*
X0050469Y0076012D01*
X0050537Y0075944D02*
X0049861Y0076619D01*
X0048979Y0076985D01*
X0048025Y0076985D01*
X0047358Y0076709D01*
X0047125Y0076942D01*
X0036131Y0076942D01*
X0035428Y0076239D01*
X0035428Y0070245D01*
X0036131Y0069542D01*
X0047125Y0069542D01*
X0047828Y0070245D01*
X0047828Y0072266D01*
X0048025Y0072185D01*
X0048979Y0072185D01*
X0049861Y0072550D01*
X0050537Y0073225D01*
X0050902Y0074107D01*
X0050902Y0075062D01*
X0050537Y0075944D01*
X0050839Y0075213D02*
X0069866Y0075213D01*
X0070665Y0074415D02*
X0050902Y0074415D01*
X0050698Y0073616D02*
X0071463Y0073616D01*
X0072262Y0072818D02*
X0050129Y0072818D01*
X0047828Y0072019D02*
X0073060Y0072019D01*
X0073859Y0071220D02*
X0047828Y0071220D01*
X0047828Y0070422D02*
X0059154Y0070422D01*
X0058599Y0069623D02*
X0047206Y0069623D01*
X0053915Y0069663D02*
X0053915Y0070648D01*
X0062456Y0070422D02*
X0067028Y0070422D01*
X0066473Y0069623D02*
X0063012Y0069623D01*
X0063205Y0068825D02*
X0066279Y0068825D01*
X0065905Y0068026D02*
X0063132Y0068026D01*
X0062896Y0067228D02*
X0065107Y0067228D01*
X0064308Y0066429D02*
X0062896Y0066429D01*
X0062896Y0065631D02*
X0063510Y0065631D01*
X0066155Y0064034D02*
X0070312Y0064034D01*
X0070216Y0064832D02*
X0066954Y0064832D01*
X0067752Y0065631D02*
X0070387Y0065631D01*
X0070909Y0066429D02*
X0069519Y0066429D01*
X0070622Y0067228D02*
X0073675Y0067228D01*
X0073779Y0068026D02*
X0071007Y0068026D01*
X0071079Y0068825D02*
X0074153Y0068825D01*
X0074347Y0069623D02*
X0070886Y0069623D01*
X0070330Y0070422D02*
X0074902Y0070422D01*
X0078204Y0070422D02*
X0079516Y0070422D01*
X0078760Y0069623D02*
X0082221Y0069623D01*
X0082027Y0068825D02*
X0078953Y0068825D01*
X0078881Y0068026D02*
X0082100Y0068026D01*
X0082484Y0067228D02*
X0078496Y0067228D01*
X0077393Y0066429D02*
X0083587Y0066429D01*
X0084699Y0065631D02*
X0076675Y0065631D01*
X0076675Y0064832D02*
X0084699Y0064832D01*
X0084699Y0064034D02*
X0079305Y0064034D01*
X0077931Y0064034D02*
X0077931Y0064034D01*
X0077931Y0064213D02*
X0077931Y0058876D01*
X0077931Y0058876D01*
X0077931Y0058876D01*
X0077931Y0053539D01*
X0077082Y0053539D01*
X0077174Y0053447D01*
X0080565Y0053447D01*
X0080857Y0053739D01*
X0079501Y0053739D01*
X0079443Y0053797D01*
X0079160Y0053634D01*
X0078804Y0053539D01*
X0077931Y0053539D01*
X0077931Y0058876D01*
X0077931Y0064213D01*
X0077931Y0063235D02*
X0077931Y0063235D01*
X0077931Y0062437D02*
X0077931Y0062437D01*
X0077931Y0061638D02*
X0077931Y0061638D01*
X0077931Y0060840D02*
X0077931Y0060840D01*
X0077931Y0060041D02*
X0077931Y0060041D01*
X0077931Y0059243D02*
X0077931Y0059243D01*
X0077931Y0058444D02*
X0077931Y0058444D01*
X0077931Y0057646D02*
X0077931Y0057646D01*
X0077931Y0056847D02*
X0077931Y0056847D01*
X0077931Y0056049D02*
X0077931Y0056049D01*
X0077931Y0055250D02*
X0077931Y0055250D01*
X0077931Y0054452D02*
X0077931Y0054452D01*
X0077931Y0053653D02*
X0077931Y0053653D01*
X0079193Y0053653D02*
X0080771Y0053653D01*
X0081706Y0049661D02*
X0076000Y0049661D01*
X0079998Y0046467D02*
X0058147Y0046467D01*
X0058298Y0045668D02*
X0078691Y0045668D01*
X0080982Y0046467D02*
X0083223Y0046467D01*
X0082425Y0045668D02*
X0082289Y0045668D01*
X0082286Y0042474D02*
X0084600Y0042474D01*
X0088191Y0042474D02*
X0105490Y0042474D01*
X0105278Y0042686D02*
X0105981Y0041983D01*
X0116975Y0041983D01*
X0117678Y0042686D01*
X0117678Y0048680D01*
X0116975Y0049383D01*
X0105981Y0049383D01*
X0105278Y0048680D01*
X0105278Y0042686D01*
X0105278Y0043273D02*
X0088662Y0043273D01*
X0088796Y0044071D02*
X0105278Y0044071D01*
X0105278Y0044870D02*
X0089314Y0044870D01*
X0090112Y0045668D02*
X0105278Y0045668D01*
X0105278Y0046467D02*
X0090911Y0046467D01*
X0091709Y0047265D02*
X0094345Y0047265D01*
X0096163Y0047265D02*
X0105278Y0047265D01*
X0105278Y0048064D02*
X0097225Y0048064D01*
X0097593Y0048862D02*
X0105460Y0048862D01*
X0105386Y0052855D02*
X0100428Y0052855D01*
X0100607Y0052056D02*
X0119094Y0052056D01*
X0119094Y0051258D02*
X0100519Y0051258D01*
X0100113Y0050459D02*
X0119094Y0050459D01*
X0119094Y0049661D02*
X0098959Y0049661D01*
X0099894Y0053653D02*
X0105078Y0053653D01*
X0105078Y0056847D02*
X0096355Y0056847D01*
X0096355Y0057646D02*
X0105078Y0057646D01*
X0105078Y0058444D02*
X0096355Y0058444D01*
X0096355Y0059243D02*
X0105163Y0059243D01*
X0105929Y0060041D02*
X0096355Y0060041D01*
X0096355Y0062437D02*
X0109848Y0062437D01*
X0109050Y0063235D02*
X0096355Y0063235D01*
X0095967Y0064034D02*
X0107332Y0064034D01*
X0106806Y0064832D02*
X0095967Y0064832D01*
X0095967Y0065631D02*
X0106633Y0065631D01*
X0106727Y0066429D02*
X0095967Y0066429D01*
X0095967Y0067228D02*
X0107141Y0067228D01*
X0108315Y0068026D02*
X0095967Y0068026D01*
X0095967Y0068825D02*
X0149656Y0068825D01*
X0149656Y0069623D02*
X0149569Y0069623D01*
X0149656Y0068026D02*
X0109752Y0068026D01*
X0110926Y0067228D02*
X0149656Y0067228D01*
X0149656Y0066429D02*
X0111340Y0066429D01*
X0111604Y0065631D02*
X0149656Y0065631D01*
X0143482Y0065726D02*
X0142498Y0065726D01*
X0138412Y0069623D02*
X0135025Y0069623D01*
X0135736Y0070422D02*
X0137790Y0070422D01*
X0137790Y0071220D02*
X0136040Y0071220D01*
X0134301Y0074415D02*
X0117678Y0074415D01*
X0117678Y0075213D02*
X0130027Y0075213D01*
X0130210Y0075137D02*
X0131164Y0075137D01*
X0132046Y0075503D01*
X0132722Y0076178D01*
X0133087Y0077060D01*
X0133087Y0078015D01*
X0133057Y0078086D01*
X0133434Y0078463D01*
X0133434Y0082518D01*
X0132512Y0083440D01*
X0128957Y0083440D01*
X0128034Y0082518D01*
X0128034Y0078463D01*
X0128344Y0078153D01*
X0128287Y0078015D01*
X0128287Y0077060D01*
X0128652Y0076178D01*
X0129328Y0075503D01*
X0130210Y0075137D01*
X0131347Y0075213D02*
X0137790Y0075213D01*
X0137790Y0076012D02*
X0132555Y0076012D01*
X0132983Y0076810D02*
X0138361Y0076810D01*
X0133379Y0078407D02*
X0149443Y0078407D01*
X0149573Y0077609D02*
X0133087Y0077609D01*
X0133434Y0079206D02*
X0149184Y0079206D01*
X0148924Y0080004D02*
X0133434Y0080004D01*
X0133434Y0080803D02*
X0148665Y0080803D01*
X0148222Y0081601D02*
X0133434Y0081601D01*
X0133434Y0082400D02*
X0147642Y0082400D01*
X0147061Y0083198D02*
X0132754Y0083198D01*
X0128715Y0083198D02*
X0127036Y0083198D01*
X0126949Y0083286D02*
X0126544Y0083519D01*
X0126093Y0083640D01*
X0125084Y0083640D01*
X0125084Y0080840D01*
X0124384Y0080840D01*
X0124384Y0080140D01*
X0121834Y0080140D01*
X0121834Y0078881D01*
X0121955Y0078430D01*
X0122189Y0078025D01*
X0122519Y0077695D01*
X0122924Y0077461D01*
X0123376Y0077340D01*
X0124384Y0077340D01*
X0124384Y0080140D01*
X0125084Y0080140D01*
X0125084Y0077340D01*
X0126093Y0077340D01*
X0126544Y0077461D01*
X0126949Y0077695D01*
X0127280Y0078025D01*
X0127513Y0078430D01*
X0127634Y0078881D01*
X0127634Y0080140D01*
X0125084Y0080140D01*
X0125084Y0080840D01*
X0127634Y0080840D01*
X0127634Y0082099D01*
X0127513Y0082550D01*
X0127280Y0082955D01*
X0126949Y0083286D01*
X0127554Y0082400D02*
X0128034Y0082400D01*
X0128034Y0081601D02*
X0127634Y0081601D01*
X0128034Y0080803D02*
X0125084Y0080803D01*
X0124384Y0080803D02*
X0081640Y0080803D01*
X0081897Y0080004D02*
X0121834Y0080004D01*
X0121834Y0079206D02*
X0081906Y0079206D01*
X0081648Y0078407D02*
X0121968Y0078407D01*
X0122669Y0077609D02*
X0093648Y0077609D01*
X0094385Y0076810D02*
X0105849Y0076810D01*
X0105981Y0076942D02*
X0105278Y0076239D01*
X0105278Y0070245D01*
X0105981Y0069542D01*
X0116975Y0069542D01*
X0117678Y0070245D01*
X0117678Y0076239D01*
X0116975Y0076942D01*
X0105981Y0076942D01*
X0105278Y0076012D02*
X0094701Y0076012D01*
X0094778Y0075213D02*
X0105278Y0075213D01*
X0105278Y0074415D02*
X0095577Y0074415D01*
X0095967Y0073616D02*
X0105278Y0073616D01*
X0105278Y0072818D02*
X0095967Y0072818D01*
X0095967Y0072019D02*
X0105278Y0072019D01*
X0105278Y0071220D02*
X0095967Y0071220D01*
X0095967Y0070422D02*
X0105278Y0070422D01*
X0105900Y0069623D02*
X0095967Y0069623D01*
X0092967Y0071220D02*
X0090455Y0071220D01*
X0090098Y0072019D02*
X0092967Y0072019D01*
X0092931Y0072818D02*
X0089300Y0072818D01*
X0088501Y0073616D02*
X0090860Y0073616D01*
X0090182Y0074415D02*
X0087703Y0074415D01*
X0086904Y0075213D02*
X0089901Y0075213D01*
X0089901Y0076012D02*
X0086827Y0076012D01*
X0086511Y0076810D02*
X0090218Y0076810D01*
X0090954Y0077609D02*
X0085774Y0077609D01*
X0083080Y0077609D02*
X0081003Y0077609D01*
X0082344Y0076810D02*
X0072512Y0076810D01*
X0073311Y0076012D02*
X0082027Y0076012D01*
X0082027Y0075213D02*
X0074109Y0075213D01*
X0074908Y0074415D02*
X0078894Y0074415D01*
X0082086Y0074415D02*
X0082308Y0074415D01*
X0082674Y0073616D02*
X0082986Y0073616D01*
X0082890Y0072818D02*
X0085057Y0072818D01*
X0085856Y0072019D02*
X0082841Y0072019D01*
X0082489Y0071220D02*
X0086654Y0071220D01*
X0086078Y0070422D02*
X0087453Y0070422D01*
X0087455Y0069623D02*
X0086634Y0069623D01*
X0086827Y0068825D02*
X0087455Y0068825D01*
X0087455Y0068026D02*
X0087201Y0068026D01*
X0082776Y0070422D02*
X0081464Y0070422D01*
X0068679Y0074585D02*
X0068679Y0075569D01*
X0065028Y0076810D02*
X0049401Y0076810D01*
X0047603Y0076810D02*
X0047257Y0076810D01*
X0035999Y0076810D02*
X0031173Y0076810D01*
X0030375Y0077609D02*
X0064491Y0077609D01*
X0064311Y0078407D02*
X0031016Y0078407D01*
X0031072Y0079206D02*
X0064396Y0079206D01*
X0064799Y0080004D02*
X0031072Y0080004D01*
X0031972Y0076012D02*
X0035428Y0076012D01*
X0035428Y0075213D02*
X0032770Y0075213D01*
X0033569Y0074415D02*
X0035428Y0074415D01*
X0035428Y0073616D02*
X0033811Y0073616D01*
X0034368Y0072818D02*
X0035428Y0072818D01*
X0035428Y0072019D02*
X0034662Y0072019D01*
X0034662Y0071220D02*
X0035428Y0071220D01*
X0035428Y0070422D02*
X0034358Y0070422D01*
X0033647Y0069623D02*
X0036050Y0069623D01*
X0030876Y0069623D02*
X0014695Y0069623D01*
X0015316Y0070422D02*
X0030165Y0070422D01*
X0029862Y0071220D02*
X0015316Y0071220D01*
X0015316Y0072019D02*
X0029862Y0072019D01*
X0030155Y0072818D02*
X0015316Y0072818D01*
X0015316Y0073616D02*
X0030125Y0073616D01*
X0029326Y0074415D02*
X0015316Y0074415D01*
X0015316Y0075213D02*
X0028528Y0075213D01*
X0027729Y0076012D02*
X0015316Y0076012D01*
X0014745Y0076810D02*
X0026931Y0076810D01*
X0026526Y0077609D02*
X0024438Y0077609D01*
X0025138Y0078407D02*
X0025728Y0078407D01*
X0025672Y0079206D02*
X0025272Y0079206D01*
X0025272Y0080004D02*
X0025672Y0080004D01*
X0022722Y0080004D02*
X0022022Y0080004D01*
X0022022Y0079206D02*
X0022722Y0079206D01*
X0022722Y0078407D02*
X0022022Y0078407D01*
X0022022Y0077609D02*
X0022722Y0077609D01*
X0011525Y0086392D02*
X0071775Y0086392D01*
X0069569Y0085594D02*
X0009068Y0085594D01*
X0007915Y0084795D02*
X0068610Y0084795D01*
X0075331Y0086392D02*
X0077775Y0086392D01*
X0076977Y0085594D02*
X0076130Y0085594D01*
X0076253Y0084795D02*
X0076853Y0084795D01*
X0076853Y0083997D02*
X0076253Y0083997D01*
X0076253Y0083198D02*
X0076853Y0083198D01*
X0076853Y0082400D02*
X0076253Y0082400D01*
X0076253Y0081601D02*
X0076853Y0081601D01*
X0077445Y0080803D02*
X0075640Y0080803D01*
X0082253Y0081601D02*
X0121834Y0081601D01*
X0121834Y0082099D02*
X0121834Y0080840D01*
X0124384Y0080840D01*
X0124384Y0083640D01*
X0123376Y0083640D01*
X0122924Y0083519D01*
X0122519Y0083286D01*
X0122189Y0082955D01*
X0121955Y0082550D01*
X0121834Y0082099D01*
X0121915Y0082400D02*
X0082253Y0082400D01*
X0082253Y0083198D02*
X0122432Y0083198D01*
X0124384Y0083198D02*
X0125084Y0083198D01*
X0125084Y0082400D02*
X0124384Y0082400D01*
X0124384Y0081601D02*
X0125084Y0081601D01*
X0125084Y0080004D02*
X0124384Y0080004D01*
X0124384Y0079206D02*
X0125084Y0079206D01*
X0125084Y0078407D02*
X0124384Y0078407D01*
X0124384Y0077609D02*
X0125084Y0077609D01*
X0126800Y0077609D02*
X0128287Y0077609D01*
X0128391Y0076810D02*
X0117107Y0076810D01*
X0117678Y0076012D02*
X0128819Y0076012D01*
X0128090Y0078407D02*
X0127500Y0078407D01*
X0127634Y0079206D02*
X0128034Y0079206D01*
X0128034Y0080004D02*
X0127634Y0080004D01*
X0132230Y0073616D02*
X0117678Y0073616D01*
X0117678Y0072818D02*
X0131533Y0072818D01*
X0131240Y0072019D02*
X0117678Y0072019D01*
X0117678Y0071220D02*
X0131240Y0071220D01*
X0131543Y0070422D02*
X0117678Y0070422D01*
X0117057Y0069623D02*
X0132254Y0069623D01*
X0143590Y0060041D02*
X0144390Y0060041D01*
X0144390Y0059243D02*
X0143590Y0059243D01*
X0143590Y0058444D02*
X0144390Y0058444D01*
X0144390Y0057646D02*
X0143590Y0057646D01*
X0143590Y0056847D02*
X0144390Y0056847D01*
X0143590Y0056049D02*
X0122594Y0056049D01*
X0119094Y0055250D02*
X0117878Y0055250D01*
X0117878Y0054452D02*
X0119094Y0054452D01*
X0119094Y0053653D02*
X0117878Y0053653D01*
X0117571Y0052855D02*
X0119094Y0052855D01*
X0119094Y0048862D02*
X0117496Y0048862D01*
X0117678Y0048064D02*
X0119094Y0048064D01*
X0119094Y0047265D02*
X0117678Y0047265D01*
X0117678Y0046467D02*
X0119094Y0046467D01*
X0119727Y0045668D02*
X0117678Y0045668D01*
X0117678Y0044870D02*
X0120526Y0044870D01*
X0121324Y0044071D02*
X0117678Y0044071D01*
X0117678Y0043273D02*
X0122123Y0043273D01*
X0122921Y0042474D02*
X0117466Y0042474D01*
X0127672Y0050459D02*
X0135959Y0050459D01*
X0135401Y0049661D02*
X0136757Y0049661D01*
X0136476Y0048862D02*
X0137556Y0048862D01*
X0137790Y0048064D02*
X0137274Y0048064D01*
X0137641Y0047265D02*
X0137790Y0047265D01*
X0140201Y0050459D02*
X0149656Y0050459D01*
X0149656Y0049661D02*
X0141000Y0049661D01*
X0139403Y0051258D02*
X0149656Y0051258D01*
X0149656Y0052056D02*
X0138604Y0052056D01*
X0137898Y0052855D02*
X0137806Y0052855D01*
X0137590Y0053653D02*
X0137007Y0053653D01*
X0137590Y0054452D02*
X0127639Y0054452D01*
X0111878Y0056847D02*
X0111078Y0056847D01*
X0111078Y0057646D02*
X0111878Y0057646D01*
X0111878Y0058444D02*
X0111078Y0058444D01*
X0111078Y0059243D02*
X0111878Y0059243D01*
X0111878Y0060041D02*
X0111078Y0060041D01*
X0103128Y0066711D02*
X0102144Y0066711D01*
X0088364Y0083443D02*
X0086396Y0083443D01*
X0082253Y0083997D02*
X0146290Y0083997D01*
X0145191Y0084795D02*
X0082253Y0084795D01*
X0082130Y0085594D02*
X0144038Y0085594D01*
X0141581Y0086392D02*
X0081331Y0086392D01*
X0042028Y0060041D02*
X0041228Y0060041D01*
X0041228Y0059243D02*
X0042028Y0059243D01*
X0042028Y0058444D02*
X0041228Y0058444D01*
X0041228Y0057646D02*
X0042028Y0057646D01*
X0042028Y0055250D02*
X0041228Y0055250D01*
X0041228Y0054452D02*
X0042028Y0054452D01*
X0042028Y0053653D02*
X0041228Y0053653D01*
X0041228Y0052855D02*
X0042028Y0052855D01*
X0048028Y0054452D02*
X0056751Y0054452D01*
X0056751Y0055250D02*
X0048028Y0055250D01*
X0052527Y0049661D02*
X0053327Y0049661D01*
X0053327Y0048862D02*
X0052527Y0048862D01*
X0052527Y0048064D02*
X0053327Y0048064D01*
X0053327Y0047265D02*
X0052527Y0047265D01*
X0052527Y0046467D02*
X0053327Y0046467D01*
X0053327Y0045668D02*
X0052527Y0045668D01*
X0035535Y0052855D02*
X0028222Y0052855D01*
X0027727Y0053653D02*
X0035228Y0053653D01*
X0035228Y0054452D02*
X0026929Y0054452D01*
X0009516Y0054452D02*
X0008716Y0054452D01*
X0008716Y0055250D02*
X0009516Y0055250D01*
X0009516Y0053653D02*
X0008716Y0053653D01*
X0008716Y0052855D02*
X0009516Y0052855D01*
X0003566Y0060041D02*
X0003450Y0060041D01*
X0008640Y0082459D02*
X0008640Y0083443D01*
X0070031Y0021713D02*
X0077106Y0021713D01*
X0077124Y0020914D02*
X0070829Y0020914D01*
X0071628Y0020116D02*
X0077455Y0020116D01*
X0078347Y0019317D02*
X0072426Y0019317D01*
X0073225Y0018519D02*
X0149656Y0018519D01*
X0149656Y0019317D02*
X0080665Y0019317D01*
X0075569Y0021435D02*
X0074585Y0021435D01*
X0066332Y0016123D02*
X0059216Y0016123D01*
X0059895Y0015325D02*
X0065652Y0015325D01*
X0065321Y0014526D02*
X0060226Y0014526D01*
X0060340Y0013728D02*
X0065207Y0013728D01*
X0065207Y0012929D02*
X0060340Y0012929D01*
X0060033Y0012131D02*
X0065514Y0012131D01*
X0065998Y0011332D02*
X0059549Y0011332D01*
X0058631Y0010534D02*
X0066916Y0010534D01*
X0077766Y0009735D02*
X0036915Y0009735D01*
X0036915Y0008937D02*
X0051692Y0008937D01*
X0051231Y0008138D02*
X0036915Y0008138D01*
X0036915Y0007340D02*
X0051034Y0007340D01*
X0050768Y0006541D02*
X0036915Y0006541D01*
X0036915Y0005743D02*
X0050502Y0005743D01*
X0050235Y0004944D02*
X0036915Y0004944D01*
X0036915Y0004146D02*
X0049969Y0004146D01*
X0055105Y0010534D02*
X0036709Y0010534D01*
X0033409Y0011332D02*
X0054187Y0011332D01*
X0053703Y0012131D02*
X0033090Y0012131D01*
X0032771Y0012929D02*
X0053396Y0012929D01*
X0053396Y0013728D02*
X0032451Y0013728D01*
X0032132Y0014526D02*
X0053510Y0014526D01*
X0053841Y0015325D02*
X0031918Y0015325D01*
X0031120Y0016123D02*
X0054521Y0016123D01*
X0040136Y0016514D02*
X0040136Y0015530D01*
X0136324Y0008138D02*
X0147949Y0008138D01*
X0147369Y0007340D02*
X0136521Y0007340D01*
X0136787Y0006541D02*
X0146789Y0006541D01*
X0145774Y0005743D02*
X0137054Y0005743D01*
X0137320Y0004944D02*
X0144675Y0004944D01*
X0142885Y0004146D02*
X0137586Y0004146D01*
X0143590Y0024907D02*
X0144390Y0024907D01*
X0144390Y0025705D02*
X0143590Y0025705D01*
X0143590Y0026504D02*
X0144390Y0026504D01*
X0144390Y0027302D02*
X0143590Y0027302D01*
X0143590Y0028101D02*
X0144390Y0028101D01*
X0149580Y0024907D02*
X0149656Y0024907D01*
X0138002Y0042474D02*
X0137486Y0042474D01*
X0143590Y0052855D02*
X0144390Y0052855D01*
X0144390Y0053653D02*
X0143590Y0053653D01*
X0143590Y0054452D02*
X0144390Y0054452D01*
X0144390Y0055250D02*
X0143590Y0055250D01*
X0149540Y0060041D02*
X0149656Y0060041D01*
X0149619Y0076810D02*
X0149636Y0076810D01*
X0141514Y0083443D02*
X0140530Y0083443D01*
D17*
X0120844Y0059821D02*
X0116907Y0063758D01*
X0111002Y0063758D01*
X0109033Y0065726D01*
X0120844Y0059821D02*
X0120844Y0047026D01*
X0125766Y0042104D01*
X0079506Y0079506D02*
X0079506Y0080443D01*
X0079553Y0083443D01*
M02*
