G75*
%MOIN*%
%OFA0B0*%
%FSLAX24Y24*%
%IPPOS*%
%LPD*%
%AMOC8*
5,1,8,0,0,1.08239X$1,22.5*
%
%ADD10R,0.0138X0.0787*%
%ADD11C,0.0075*%
%ADD12R,0.1000X0.0500*%
D10*
X005864Y005888D03*
X006140Y005888D03*
X006415Y005888D03*
X006691Y005888D03*
X006966Y005888D03*
X007242Y005888D03*
X007518Y005888D03*
X007793Y005888D03*
X008069Y005888D03*
X008344Y005888D03*
X008620Y005888D03*
X008895Y005888D03*
X009171Y005888D03*
X009447Y005888D03*
D11*
X012360Y008187D02*
X012586Y008187D01*
X012586Y007911D01*
X012360Y007911D01*
X012360Y008187D01*
X012360Y007985D02*
X012586Y007985D01*
X012586Y008059D02*
X012360Y008059D01*
X012360Y008133D02*
X012586Y008133D01*
X012960Y008187D02*
X013186Y008187D01*
X013186Y007911D01*
X012960Y007911D01*
X012960Y008187D01*
X012960Y007985D02*
X013186Y007985D01*
X013186Y008059D02*
X012960Y008059D01*
X012960Y008133D02*
X013186Y008133D01*
X008068Y008482D02*
X007842Y008482D01*
X008068Y008482D02*
X008068Y008206D01*
X007842Y008206D01*
X007842Y008482D01*
X007842Y008280D02*
X008068Y008280D01*
X008068Y008354D02*
X007842Y008354D01*
X007842Y008428D02*
X008068Y008428D01*
X007468Y008482D02*
X007242Y008482D01*
X007468Y008482D02*
X007468Y008206D01*
X007242Y008206D01*
X007242Y008482D01*
X007242Y008280D02*
X007468Y008280D01*
X007468Y008354D02*
X007242Y008354D01*
X007242Y008428D02*
X007468Y008428D01*
X002950Y008187D02*
X002724Y008187D01*
X002950Y008187D02*
X002950Y007911D01*
X002724Y007911D01*
X002724Y008187D01*
X002724Y007985D02*
X002950Y007985D01*
X002950Y008059D02*
X002724Y008059D01*
X002724Y008133D02*
X002950Y008133D01*
X002350Y008187D02*
X002124Y008187D01*
X002350Y008187D02*
X002350Y007911D01*
X002124Y007911D01*
X002124Y008187D01*
X002124Y007985D02*
X002350Y007985D01*
X002350Y008059D02*
X002124Y008059D01*
X002124Y008133D02*
X002350Y008133D01*
D12*
X000912Y002868D03*
X000912Y004568D03*
X000912Y005624D03*
X000912Y007324D03*
X004163Y007324D03*
X004163Y005624D03*
X004163Y004568D03*
X004163Y002868D03*
X011148Y002868D03*
X011148Y004568D03*
X011148Y005624D03*
X011148Y007324D03*
X014399Y007324D03*
X014399Y005624D03*
X014399Y004568D03*
X014399Y002868D03*
M02*
