G75*
%MOIN*%
%OFA0B0*%
%FSLAX25Y25*%
%IPPOS*%
%LPD*%
%AMOC8*
5,1,8,0,0,1.08239X$1,22.5*
%
%ADD10C,0.00875*%
%ADD11R,0.01181X0.04724*%
%ADD12R,0.04724X0.01181*%
%ADD13R,0.04724X0.01200*%
%ADD14R,0.08000X0.08000*%
%ADD15R,0.07874X0.05906*%
%ADD16R,0.02756X0.05906*%
%ADD17R,0.03937X0.02362*%
%ADD18R,0.03937X0.03150*%
%ADD19C,0.08000*%
%ADD20R,0.13000X0.05000*%
%ADD21R,0.09000X0.05000*%
%ADD22R,0.11000X0.05000*%
%ADD23C,0.03937*%
%ADD24R,0.02500X0.05000*%
%ADD25C,0.02400*%
%ADD26C,0.00600*%
%ADD27C,0.01100*%
%ADD28C,0.00800*%
D10*
X0050524Y0033675D02*
X0053150Y0033675D01*
X0053150Y0031049D01*
X0050524Y0031049D01*
X0050524Y0033675D01*
X0050524Y0031923D02*
X0053150Y0031923D01*
X0053150Y0032797D02*
X0050524Y0032797D01*
X0050524Y0033671D02*
X0053150Y0033671D01*
X0056524Y0033675D02*
X0059150Y0033675D01*
X0059150Y0031049D01*
X0056524Y0031049D01*
X0056524Y0033675D01*
X0056524Y0031923D02*
X0059150Y0031923D01*
X0059150Y0032797D02*
X0056524Y0032797D01*
X0056524Y0033671D02*
X0059150Y0033671D01*
X0063319Y0033675D02*
X0065945Y0033675D01*
X0065945Y0031049D01*
X0063319Y0031049D01*
X0063319Y0033675D01*
X0063319Y0031923D02*
X0065945Y0031923D01*
X0065945Y0032797D02*
X0063319Y0032797D01*
X0063319Y0033671D02*
X0065945Y0033671D01*
X0069319Y0033675D02*
X0071945Y0033675D01*
X0071945Y0031049D01*
X0069319Y0031049D01*
X0069319Y0033675D01*
X0069319Y0031923D02*
X0071945Y0031923D01*
X0071945Y0032797D02*
X0069319Y0032797D01*
X0069319Y0033671D02*
X0071945Y0033671D01*
X0071945Y0039581D02*
X0069319Y0039581D01*
X0071945Y0039581D02*
X0071945Y0036955D01*
X0069319Y0036955D01*
X0069319Y0039581D01*
X0069319Y0037829D02*
X0071945Y0037829D01*
X0071945Y0038703D02*
X0069319Y0038703D01*
X0069319Y0039577D02*
X0071945Y0039577D01*
X0065945Y0039581D02*
X0063319Y0039581D01*
X0065945Y0039581D02*
X0065945Y0036955D01*
X0063319Y0036955D01*
X0063319Y0039581D01*
X0063319Y0037829D02*
X0065945Y0037829D01*
X0065945Y0038703D02*
X0063319Y0038703D01*
X0063319Y0039577D02*
X0065945Y0039577D01*
X0059150Y0036955D02*
X0056524Y0036955D01*
X0056524Y0039581D01*
X0059150Y0039581D01*
X0059150Y0036955D01*
X0059150Y0037829D02*
X0056524Y0037829D01*
X0056524Y0038703D02*
X0059150Y0038703D01*
X0059150Y0039577D02*
X0056524Y0039577D01*
X0053150Y0036955D02*
X0050524Y0036955D01*
X0050524Y0039581D01*
X0053150Y0039581D01*
X0053150Y0036955D01*
X0053150Y0037829D02*
X0050524Y0037829D01*
X0050524Y0038703D02*
X0053150Y0038703D01*
X0053150Y0039577D02*
X0050524Y0039577D01*
X0062335Y0054671D02*
X0064961Y0054671D01*
X0062335Y0054671D02*
X0062335Y0057297D01*
X0064961Y0057297D01*
X0064961Y0054671D01*
X0064961Y0055545D02*
X0062335Y0055545D01*
X0062335Y0056419D02*
X0064961Y0056419D01*
X0064961Y0057293D02*
X0062335Y0057293D01*
X0068335Y0054671D02*
X0070961Y0054671D01*
X0068335Y0054671D02*
X0068335Y0057297D01*
X0070961Y0057297D01*
X0070961Y0054671D01*
X0070961Y0055545D02*
X0068335Y0055545D01*
X0068335Y0056419D02*
X0070961Y0056419D01*
X0070961Y0057293D02*
X0068335Y0057293D01*
X0079067Y0057297D02*
X0081693Y0057297D01*
X0081693Y0054671D01*
X0079067Y0054671D01*
X0079067Y0057297D01*
X0079067Y0055545D02*
X0081693Y0055545D01*
X0081693Y0056419D02*
X0079067Y0056419D01*
X0079067Y0057293D02*
X0081693Y0057293D01*
X0085067Y0057297D02*
X0087693Y0057297D01*
X0087693Y0054671D01*
X0085067Y0054671D01*
X0085067Y0057297D01*
X0085067Y0055545D02*
X0087693Y0055545D01*
X0087693Y0056419D02*
X0085067Y0056419D01*
X0085067Y0057293D02*
X0087693Y0057293D01*
X0085677Y0069388D02*
X0085677Y0072014D01*
X0085677Y0069388D02*
X0083051Y0069388D01*
X0083051Y0072014D01*
X0085677Y0072014D01*
X0085677Y0070262D02*
X0083051Y0070262D01*
X0083051Y0071136D02*
X0085677Y0071136D01*
X0085677Y0072010D02*
X0083051Y0072010D01*
X0075177Y0072014D02*
X0075177Y0069388D01*
X0075177Y0072014D02*
X0077803Y0072014D01*
X0077803Y0069388D01*
X0075177Y0069388D01*
X0075177Y0070262D02*
X0077803Y0070262D01*
X0077803Y0071136D02*
X0075177Y0071136D01*
X0075177Y0072010D02*
X0077803Y0072010D01*
X0075177Y0075388D02*
X0075177Y0078014D01*
X0077803Y0078014D01*
X0077803Y0075388D01*
X0075177Y0075388D01*
X0075177Y0076262D02*
X0077803Y0076262D01*
X0077803Y0077136D02*
X0075177Y0077136D01*
X0075177Y0078010D02*
X0077803Y0078010D01*
X0085677Y0078014D02*
X0085677Y0075388D01*
X0083051Y0075388D01*
X0083051Y0078014D01*
X0085677Y0078014D01*
X0085677Y0076262D02*
X0083051Y0076262D01*
X0083051Y0077136D02*
X0085677Y0077136D01*
X0085677Y0078010D02*
X0083051Y0078010D01*
X0093551Y0078014D02*
X0093551Y0075388D01*
X0090925Y0075388D01*
X0090925Y0078014D01*
X0093551Y0078014D01*
X0093551Y0076262D02*
X0090925Y0076262D01*
X0090925Y0077136D02*
X0093551Y0077136D01*
X0093551Y0078010D02*
X0090925Y0078010D01*
X0101425Y0078014D02*
X0101425Y0075388D01*
X0098799Y0075388D01*
X0098799Y0078014D01*
X0101425Y0078014D01*
X0101425Y0076262D02*
X0098799Y0076262D01*
X0098799Y0077136D02*
X0101425Y0077136D01*
X0101425Y0078010D02*
X0098799Y0078010D01*
X0101425Y0072014D02*
X0101425Y0069388D01*
X0098799Y0069388D01*
X0098799Y0072014D01*
X0101425Y0072014D01*
X0101425Y0070262D02*
X0098799Y0070262D01*
X0098799Y0071136D02*
X0101425Y0071136D01*
X0101425Y0072010D02*
X0098799Y0072010D01*
X0093551Y0072014D02*
X0093551Y0069388D01*
X0090925Y0069388D01*
X0090925Y0072014D01*
X0093551Y0072014D01*
X0093551Y0070262D02*
X0090925Y0070262D01*
X0090925Y0071136D02*
X0093551Y0071136D01*
X0093551Y0072010D02*
X0090925Y0072010D01*
X0067303Y0072014D02*
X0067303Y0069388D01*
X0067303Y0072014D02*
X0069929Y0072014D01*
X0069929Y0069388D01*
X0067303Y0069388D01*
X0067303Y0070262D02*
X0069929Y0070262D01*
X0069929Y0071136D02*
X0067303Y0071136D01*
X0067303Y0072010D02*
X0069929Y0072010D01*
X0067303Y0075388D02*
X0067303Y0078014D01*
X0069929Y0078014D01*
X0069929Y0075388D01*
X0067303Y0075388D01*
X0067303Y0076262D02*
X0069929Y0076262D01*
X0069929Y0077136D02*
X0067303Y0077136D01*
X0067303Y0078010D02*
X0069929Y0078010D01*
X0059429Y0078014D02*
X0059429Y0075388D01*
X0059429Y0078014D02*
X0062055Y0078014D01*
X0062055Y0075388D01*
X0059429Y0075388D01*
X0059429Y0076262D02*
X0062055Y0076262D01*
X0062055Y0077136D02*
X0059429Y0077136D01*
X0059429Y0078010D02*
X0062055Y0078010D01*
X0059429Y0072014D02*
X0059429Y0069388D01*
X0059429Y0072014D02*
X0062055Y0072014D01*
X0062055Y0069388D01*
X0059429Y0069388D01*
X0059429Y0070262D02*
X0062055Y0070262D01*
X0062055Y0071136D02*
X0059429Y0071136D01*
X0059429Y0072010D02*
X0062055Y0072010D01*
X0055166Y0072108D02*
X0055166Y0069482D01*
X0052540Y0069482D01*
X0052540Y0072108D01*
X0055166Y0072108D01*
X0055166Y0070356D02*
X0052540Y0070356D01*
X0052540Y0071230D02*
X0055166Y0071230D01*
X0055166Y0072104D02*
X0052540Y0072104D01*
X0055166Y0066108D02*
X0055166Y0063482D01*
X0052540Y0063482D01*
X0052540Y0066108D01*
X0055166Y0066108D01*
X0055166Y0064356D02*
X0052540Y0064356D01*
X0052540Y0065230D02*
X0055166Y0065230D01*
X0055166Y0066104D02*
X0052540Y0066104D01*
X0053571Y0055656D02*
X0056197Y0055656D01*
X0053571Y0055656D02*
X0053571Y0058282D01*
X0056197Y0058282D01*
X0056197Y0055656D01*
X0056197Y0056530D02*
X0053571Y0056530D01*
X0053571Y0057404D02*
X0056197Y0057404D01*
X0056197Y0058278D02*
X0053571Y0058278D01*
X0050197Y0055656D02*
X0047571Y0055656D01*
X0047571Y0058282D01*
X0050197Y0058282D01*
X0050197Y0055656D01*
X0050197Y0056530D02*
X0047571Y0056530D01*
X0047571Y0057404D02*
X0050197Y0057404D01*
X0050197Y0058278D02*
X0047571Y0058278D01*
X0076114Y0088793D02*
X0078740Y0088793D01*
X0078740Y0086167D01*
X0076114Y0086167D01*
X0076114Y0088793D01*
X0076114Y0087041D02*
X0078740Y0087041D01*
X0078740Y0087915D02*
X0076114Y0087915D01*
X0076114Y0088789D02*
X0078740Y0088789D01*
X0082114Y0088793D02*
X0084740Y0088793D01*
X0084740Y0086167D01*
X0082114Y0086167D01*
X0082114Y0088793D01*
X0082114Y0087041D02*
X0084740Y0087041D01*
X0084740Y0087915D02*
X0082114Y0087915D01*
X0082114Y0088789D02*
X0084740Y0088789D01*
X0110563Y0059266D02*
X0113189Y0059266D01*
X0113189Y0056640D01*
X0110563Y0056640D01*
X0110563Y0059266D01*
X0110563Y0057514D02*
X0113189Y0057514D01*
X0113189Y0058388D02*
X0110563Y0058388D01*
X0110563Y0059262D02*
X0113189Y0059262D01*
X0116563Y0059266D02*
X0119189Y0059266D01*
X0119189Y0056640D01*
X0116563Y0056640D01*
X0116563Y0059266D01*
X0116563Y0057514D02*
X0119189Y0057514D01*
X0119189Y0058388D02*
X0116563Y0058388D01*
X0116563Y0059262D02*
X0119189Y0059262D01*
X0118485Y0041596D02*
X0118485Y0038970D01*
X0118485Y0041596D02*
X0121111Y0041596D01*
X0121111Y0038970D01*
X0118485Y0038970D01*
X0118485Y0039844D02*
X0121111Y0039844D01*
X0121111Y0040718D02*
X0118485Y0040718D01*
X0118485Y0041592D02*
X0121111Y0041592D01*
X0118485Y0035596D02*
X0118485Y0032970D01*
X0118485Y0035596D02*
X0121111Y0035596D01*
X0121111Y0032970D01*
X0118485Y0032970D01*
X0118485Y0033844D02*
X0121111Y0033844D01*
X0121111Y0034718D02*
X0118485Y0034718D01*
X0118485Y0035592D02*
X0121111Y0035592D01*
X0092614Y0015301D02*
X0089988Y0015301D01*
X0089988Y0017927D01*
X0092614Y0017927D01*
X0092614Y0015301D01*
X0092614Y0016175D02*
X0089988Y0016175D01*
X0089988Y0017049D02*
X0092614Y0017049D01*
X0092614Y0017923D02*
X0089988Y0017923D01*
X0086614Y0015301D02*
X0083988Y0015301D01*
X0083988Y0017927D01*
X0086614Y0017927D01*
X0086614Y0015301D01*
X0086614Y0016175D02*
X0083988Y0016175D01*
X0083988Y0017049D02*
X0086614Y0017049D01*
X0086614Y0017923D02*
X0083988Y0017923D01*
D11*
X0090291Y0028622D03*
X0092191Y0028622D03*
X0094191Y0028622D03*
X0096191Y0028622D03*
X0098191Y0028622D03*
X0100091Y0028622D03*
X0100091Y0045945D03*
X0098191Y0045945D03*
X0096191Y0045945D03*
X0094191Y0045945D03*
X0092191Y0045945D03*
X0090291Y0045945D03*
D12*
X0086530Y0042183D03*
X0086530Y0040283D03*
X0086530Y0038283D03*
X0086530Y0036283D03*
X0103853Y0036283D03*
X0103853Y0034283D03*
X0103853Y0032383D03*
X0103853Y0038283D03*
X0103853Y0040283D03*
X0103853Y0042183D03*
D13*
X0086530Y0034283D03*
X0086530Y0032383D03*
D14*
X0095191Y0037283D03*
D15*
X0137514Y0058937D03*
X0137514Y0069764D03*
X0135546Y0087480D03*
X0124719Y0087480D03*
X0113892Y0087480D03*
X0054187Y0087539D03*
X0044187Y0087539D03*
X0034187Y0087539D03*
X0024187Y0087539D03*
X0014187Y0087539D03*
D16*
X0053853Y0024488D03*
X0065664Y0024488D03*
X0071569Y0024488D03*
X0116845Y0024488D03*
X0128656Y0024488D03*
X0134561Y0024488D03*
D17*
X0140073Y0013661D03*
X0111333Y0013661D03*
X0077081Y0013661D03*
X0048341Y0013661D03*
D18*
X0048341Y0021929D03*
X0077081Y0021929D03*
X0111333Y0021929D03*
X0140073Y0021929D03*
D19*
X0132864Y0049094D03*
X0052864Y0049094D03*
D20*
X0010884Y0058031D03*
D21*
X0008884Y0050031D03*
X0039884Y0054031D03*
X0039884Y0035531D03*
X0039884Y0023531D03*
D22*
X0009884Y0024031D03*
D23*
X0008577Y0015630D03*
X0008577Y0068780D03*
X0144404Y0077638D03*
D24*
X0069254Y0045157D03*
X0066011Y0045157D03*
X0020041Y0066811D03*
X0016798Y0066811D03*
D25*
X0032199Y0075669D03*
X0048439Y0078622D03*
X0053853Y0073701D03*
X0060742Y0072717D03*
X0068616Y0072717D03*
X0072553Y0068780D03*
X0076490Y0072717D03*
X0080427Y0076654D03*
X0076490Y0079606D03*
X0079443Y0083543D03*
X0084364Y0079606D03*
X0092238Y0079606D03*
X0091254Y0072717D03*
X0084364Y0072717D03*
X0068616Y0078622D03*
X0066648Y0082559D03*
X0060742Y0078622D03*
X0070585Y0087480D03*
X0086333Y0087480D03*
X0102081Y0070748D03*
X0108971Y0069764D03*
X0126195Y0056476D03*
X0125703Y0046142D03*
X0123735Y0040236D03*
X0104050Y0028425D03*
X0110939Y0026457D03*
X0100112Y0019567D03*
X0097160Y0023504D03*
X0085349Y0018583D03*
X0079443Y0025472D03*
X0074522Y0025472D03*
X0081412Y0032362D03*
X0085841Y0029902D03*
X0093223Y0035315D03*
X0097160Y0035315D03*
X0097160Y0039252D03*
X0093223Y0039252D03*
X0086333Y0048110D03*
X0080427Y0048110D03*
X0073538Y0054016D03*
X0065664Y0055984D03*
X0082396Y0055984D03*
X0095191Y0053524D03*
X0098144Y0055984D03*
X0077475Y0035315D03*
X0070585Y0034331D03*
X0057298Y0042205D03*
X0047455Y0039252D03*
X0046963Y0043189D03*
X0047947Y0026457D03*
X0040073Y0019567D03*
X0060742Y0024488D03*
X0020388Y0040236D03*
X0016451Y0023504D03*
X0053853Y0066811D03*
X0008577Y0087480D03*
X0130624Y0081575D03*
X0133577Y0075669D03*
X0142435Y0069764D03*
X0140467Y0087480D03*
D26*
X0130624Y0081575D02*
X0130624Y0079606D01*
X0117876Y0066858D01*
X0117876Y0057953D01*
X0122750Y0056969D02*
X0122750Y0064843D01*
X0133577Y0075669D01*
X0124719Y0077638D02*
X0106018Y0058937D01*
X0106018Y0055000D01*
X0100091Y0049073D01*
X0100091Y0045945D01*
X0098191Y0045945D02*
X0098191Y0049047D01*
X0098144Y0049094D01*
X0104542Y0055492D01*
X0104542Y0059921D01*
X0112908Y0068287D01*
X0112908Y0086496D01*
X0113892Y0087480D01*
X0124719Y0087480D02*
X0124719Y0077638D01*
X0100160Y0076654D02*
X0100112Y0076701D01*
X0100112Y0077638D01*
X0092238Y0076701D02*
X0092238Y0079606D01*
X0084364Y0079606D02*
X0084364Y0076701D01*
X0080427Y0076654D02*
X0080427Y0066811D01*
X0083380Y0063858D01*
X0099128Y0063858D01*
X0101097Y0061890D01*
X0101097Y0054016D01*
X0096175Y0049094D01*
X0096191Y0049079D01*
X0096191Y0045945D01*
X0094207Y0045961D02*
X0094191Y0045945D01*
X0094207Y0045961D02*
X0094207Y0049094D01*
X0098144Y0053031D01*
X0098144Y0055984D01*
X0095191Y0053524D02*
X0087809Y0060906D01*
X0073538Y0060906D01*
X0072553Y0061890D01*
X0072553Y0068780D01*
X0075113Y0069323D02*
X0076490Y0070701D01*
X0076490Y0072717D01*
X0076490Y0070701D02*
X0075553Y0070701D01*
X0068616Y0070701D02*
X0068616Y0072717D01*
X0060742Y0072717D02*
X0060742Y0070701D01*
X0053853Y0066811D02*
X0053853Y0064795D01*
X0054884Y0056969D02*
X0054884Y0056921D01*
X0062711Y0049094D01*
X0079443Y0049094D01*
X0080427Y0048110D01*
X0086333Y0048110D02*
X0086333Y0042380D01*
X0086530Y0042183D01*
X0086530Y0040283D02*
X0074569Y0040283D01*
X0072553Y0038268D01*
X0070632Y0038268D01*
X0070632Y0043779D01*
X0069254Y0045157D01*
X0066011Y0045157D02*
X0064632Y0043779D01*
X0064632Y0038268D01*
X0064632Y0032362D01*
X0068616Y0029409D02*
X0073538Y0029409D01*
X0074522Y0030394D01*
X0074522Y0036299D01*
X0076490Y0038268D01*
X0086514Y0038268D01*
X0086530Y0038283D01*
X0086483Y0040236D02*
X0086530Y0040283D01*
X0086530Y0036283D02*
X0078475Y0036283D01*
X0077475Y0035315D01*
X0081412Y0032362D02*
X0083333Y0034283D01*
X0086530Y0034283D01*
X0086530Y0032383D02*
X0085862Y0032383D01*
X0085841Y0029902D01*
X0092191Y0028622D02*
X0092191Y0024441D01*
X0089286Y0021535D01*
X0083380Y0021535D01*
X0079443Y0025472D01*
X0068616Y0029409D02*
X0065664Y0026457D01*
X0065664Y0024488D01*
X0060742Y0024488D02*
X0059758Y0024488D01*
X0054837Y0029409D01*
X0054837Y0035268D01*
X0051837Y0038268D01*
X0050408Y0038268D01*
X0047455Y0035315D01*
X0047455Y0033346D01*
X0044994Y0030886D01*
X0034660Y0030886D01*
X0015514Y0050031D01*
X0018420Y0052937D01*
X0018420Y0061890D01*
X0016798Y0063511D01*
X0016798Y0066811D01*
X0019896Y0066464D02*
X0020041Y0066811D01*
X0019896Y0066464D02*
X0019896Y0050571D01*
X0034935Y0035531D01*
X0039884Y0035531D01*
X0044502Y0042205D02*
X0047455Y0039252D01*
X0044502Y0042205D02*
X0032199Y0042205D01*
X0029246Y0045157D01*
X0029246Y0058937D01*
X0025309Y0062874D01*
X0025309Y0077638D01*
X0025172Y0086634D01*
X0024187Y0087539D01*
X0034187Y0087539D02*
X0034187Y0084547D01*
X0027278Y0077638D01*
X0027278Y0063858D01*
X0031215Y0059921D01*
X0031215Y0046142D01*
X0033183Y0044173D01*
X0045979Y0044173D01*
X0046963Y0043189D01*
X0047947Y0046142D02*
X0051884Y0042205D01*
X0057298Y0042205D01*
X0057837Y0038268D02*
X0064632Y0038268D01*
X0057837Y0038268D02*
X0057837Y0032362D01*
X0051884Y0032315D02*
X0051837Y0032362D01*
X0045979Y0028425D02*
X0032199Y0028425D01*
X0020388Y0040236D01*
X0033183Y0047126D02*
X0034168Y0046142D01*
X0047947Y0046142D01*
X0033183Y0047126D02*
X0033183Y0060906D01*
X0029246Y0064843D01*
X0029246Y0076654D01*
X0032199Y0079606D01*
X0037120Y0079606D01*
X0044187Y0086673D01*
X0044187Y0087539D01*
X0052376Y0082559D02*
X0048439Y0078622D01*
X0052376Y0082559D02*
X0066648Y0082559D01*
X0070585Y0087480D02*
X0077427Y0087480D01*
X0084364Y0072717D02*
X0084364Y0070701D01*
X0091254Y0072717D02*
X0092238Y0070701D01*
X0111876Y0057953D02*
X0111924Y0057906D01*
X0111924Y0050079D01*
X0107987Y0046142D01*
X0107987Y0041220D01*
X0107002Y0040236D01*
X0106955Y0040283D01*
X0103853Y0040283D01*
X0103853Y0038283D02*
X0108987Y0038283D01*
X0109955Y0039252D01*
X0109955Y0044173D01*
X0122750Y0056969D01*
X0126195Y0056476D02*
X0111924Y0042205D01*
X0111924Y0037283D01*
X0110939Y0036299D01*
X0103868Y0036299D01*
X0103853Y0036283D01*
X0103853Y0034283D02*
X0108034Y0034283D01*
X0108971Y0033346D01*
X0108971Y0028425D01*
X0100112Y0019567D01*
X0091254Y0017646D02*
X0091301Y0016614D01*
X0103853Y0028622D02*
X0104050Y0028425D01*
X0103853Y0028622D02*
X0103853Y0032383D01*
X0110939Y0026457D02*
X0113892Y0029409D01*
X0113892Y0040236D01*
X0133085Y0058937D01*
X0137514Y0058937D01*
X0132864Y0049094D02*
X0134561Y0047398D01*
X0134561Y0024488D01*
X0128656Y0024488D01*
X0092238Y0045992D02*
X0092191Y0045945D01*
X0092238Y0045992D02*
X0092238Y0053031D01*
X0089286Y0055984D01*
X0086380Y0055984D01*
X0086333Y0055984D01*
X0083380Y0053031D01*
X0074522Y0053031D01*
X0073538Y0054016D01*
X0070585Y0055984D02*
X0071569Y0056969D01*
X0079396Y0056969D01*
X0080380Y0055984D01*
X0082396Y0055984D01*
X0089286Y0051063D02*
X0090270Y0050079D01*
X0090270Y0045966D01*
X0090291Y0045945D01*
X0089286Y0051063D02*
X0068569Y0051063D01*
X0063648Y0055984D01*
X0065664Y0055984D01*
X0069601Y0056031D02*
X0069648Y0055984D01*
X0070585Y0055984D01*
X0048884Y0056969D02*
X0032199Y0074638D01*
X0032199Y0075669D01*
X0015514Y0050031D02*
X0008884Y0050031D01*
X0045979Y0028425D02*
X0047947Y0026457D01*
D27*
X0051884Y0026457D02*
X0053853Y0024488D01*
X0055821Y0024488D01*
X0066648Y0013661D01*
X0070585Y0013661D01*
X0074522Y0017598D01*
X0080427Y0017598D01*
X0081412Y0016614D01*
X0081412Y0012677D01*
X0082396Y0011693D01*
X0090270Y0011693D01*
X0091301Y0012724D01*
X0091301Y0016614D01*
X0111924Y0016614D01*
X0116845Y0021535D01*
X0116845Y0024488D01*
X0119798Y0027441D01*
X0119798Y0034283D01*
X0122703Y0034283D01*
X0127672Y0039252D01*
X0127672Y0044173D01*
X0125703Y0046142D01*
X0096191Y0037283D02*
X0096191Y0028622D01*
X0096191Y0024472D01*
X0097160Y0023504D01*
X0094191Y0023488D02*
X0091254Y0020551D01*
X0091254Y0017646D01*
X0094191Y0023488D02*
X0094191Y0028622D01*
X0051884Y0026457D02*
X0051884Y0032315D01*
X0039884Y0023531D02*
X0039884Y0020362D01*
X0040073Y0019567D01*
X0102081Y0076654D02*
X0108971Y0069764D01*
X0102081Y0076654D02*
X0100160Y0076654D01*
X0100112Y0077638D02*
X0094207Y0083543D01*
X0079443Y0083543D01*
X0072553Y0083543D01*
X0072553Y0073701D01*
X0075553Y0070701D01*
X0072553Y0083543D02*
X0069601Y0083543D01*
X0065605Y0087539D01*
X0054187Y0087539D01*
X0013065Y0087539D02*
X0008577Y0087480D01*
D28*
X0013065Y0087539D02*
X0014187Y0087539D01*
X0053853Y0073701D02*
X0053853Y0070795D01*
X0060742Y0076701D02*
X0060742Y0078622D01*
X0068616Y0078622D02*
X0068616Y0076701D01*
X0076490Y0076701D02*
X0076490Y0079606D01*
X0083427Y0087480D02*
X0086333Y0087480D01*
X0100112Y0070701D02*
X0102034Y0070701D01*
X0102081Y0070748D01*
X0135546Y0087480D02*
X0140467Y0087480D01*
X0142435Y0069764D02*
X0137514Y0069764D01*
X0123735Y0040236D02*
X0122703Y0040283D01*
X0119798Y0040283D01*
X0096191Y0037283D02*
X0095191Y0037283D01*
X0074522Y0025472D02*
X0073538Y0024488D01*
X0071569Y0024488D01*
X0070632Y0032362D02*
X0070585Y0034331D01*
X0085349Y0018583D02*
X0085301Y0017551D01*
X0085301Y0016614D01*
X0016451Y0023504D02*
X0015924Y0024031D01*
X0009884Y0024031D01*
M02*
