G75*
%MOIN*%
%OFA0B0*%
%FSLAX25Y25*%
%IPPOS*%
%LPD*%
%AMOC8*
5,1,8,0,0,1.08239X$1,22.5*
%
%ADD10C,0.00975*%
%ADD11R,0.01581X0.05124*%
%ADD12R,0.05124X0.01581*%
%ADD13R,0.05124X0.01600*%
%ADD14R,0.08400X0.08400*%
%ADD15R,0.08274X0.06306*%
%ADD16R,0.03156X0.06306*%
%ADD17R,0.04337X0.02762*%
%ADD18R,0.04337X0.03550*%
%ADD19C,0.03943*%
%ADD20C,0.08400*%
%ADD21R,0.13400X0.05400*%
%ADD22R,0.09400X0.05400*%
%ADD23R,0.11400X0.05400*%
%ADD24C,0.05400*%
%ADD25C,0.00500*%
%ADD26R,0.02900X0.05400*%
D10*
X0050374Y0033825D02*
X0053300Y0033825D01*
X0053300Y0030899D01*
X0050374Y0030899D01*
X0050374Y0033825D01*
X0050374Y0031873D02*
X0053300Y0031873D01*
X0053300Y0032847D02*
X0050374Y0032847D01*
X0050374Y0033821D02*
X0053300Y0033821D01*
X0056374Y0033825D02*
X0059300Y0033825D01*
X0059300Y0030899D01*
X0056374Y0030899D01*
X0056374Y0033825D01*
X0056374Y0031873D02*
X0059300Y0031873D01*
X0059300Y0032847D02*
X0056374Y0032847D01*
X0056374Y0033821D02*
X0059300Y0033821D01*
X0063169Y0033825D02*
X0066095Y0033825D01*
X0066095Y0030899D01*
X0063169Y0030899D01*
X0063169Y0033825D01*
X0063169Y0031873D02*
X0066095Y0031873D01*
X0066095Y0032847D02*
X0063169Y0032847D01*
X0063169Y0033821D02*
X0066095Y0033821D01*
X0069169Y0033825D02*
X0072095Y0033825D01*
X0072095Y0030899D01*
X0069169Y0030899D01*
X0069169Y0033825D01*
X0069169Y0031873D02*
X0072095Y0031873D01*
X0072095Y0032847D02*
X0069169Y0032847D01*
X0069169Y0033821D02*
X0072095Y0033821D01*
X0072095Y0039731D02*
X0069169Y0039731D01*
X0072095Y0039731D02*
X0072095Y0036805D01*
X0069169Y0036805D01*
X0069169Y0039731D01*
X0069169Y0037779D02*
X0072095Y0037779D01*
X0072095Y0038753D02*
X0069169Y0038753D01*
X0069169Y0039727D02*
X0072095Y0039727D01*
X0066095Y0039731D02*
X0063169Y0039731D01*
X0066095Y0039731D02*
X0066095Y0036805D01*
X0063169Y0036805D01*
X0063169Y0039731D01*
X0063169Y0037779D02*
X0066095Y0037779D01*
X0066095Y0038753D02*
X0063169Y0038753D01*
X0063169Y0039727D02*
X0066095Y0039727D01*
X0059300Y0036805D02*
X0056374Y0036805D01*
X0056374Y0039731D01*
X0059300Y0039731D01*
X0059300Y0036805D01*
X0059300Y0037779D02*
X0056374Y0037779D01*
X0056374Y0038753D02*
X0059300Y0038753D01*
X0059300Y0039727D02*
X0056374Y0039727D01*
X0053300Y0036805D02*
X0050374Y0036805D01*
X0050374Y0039731D01*
X0053300Y0039731D01*
X0053300Y0036805D01*
X0053300Y0037779D02*
X0050374Y0037779D01*
X0050374Y0038753D02*
X0053300Y0038753D01*
X0053300Y0039727D02*
X0050374Y0039727D01*
X0062185Y0054521D02*
X0065111Y0054521D01*
X0062185Y0054521D02*
X0062185Y0057447D01*
X0065111Y0057447D01*
X0065111Y0054521D01*
X0065111Y0055495D02*
X0062185Y0055495D01*
X0062185Y0056469D02*
X0065111Y0056469D01*
X0065111Y0057443D02*
X0062185Y0057443D01*
X0068185Y0054521D02*
X0071111Y0054521D01*
X0068185Y0054521D02*
X0068185Y0057447D01*
X0071111Y0057447D01*
X0071111Y0054521D01*
X0071111Y0055495D02*
X0068185Y0055495D01*
X0068185Y0056469D02*
X0071111Y0056469D01*
X0071111Y0057443D02*
X0068185Y0057443D01*
X0078917Y0057447D02*
X0081843Y0057447D01*
X0081843Y0054521D01*
X0078917Y0054521D01*
X0078917Y0057447D01*
X0078917Y0055495D02*
X0081843Y0055495D01*
X0081843Y0056469D02*
X0078917Y0056469D01*
X0078917Y0057443D02*
X0081843Y0057443D01*
X0084917Y0057447D02*
X0087843Y0057447D01*
X0087843Y0054521D01*
X0084917Y0054521D01*
X0084917Y0057447D01*
X0084917Y0055495D02*
X0087843Y0055495D01*
X0087843Y0056469D02*
X0084917Y0056469D01*
X0084917Y0057443D02*
X0087843Y0057443D01*
X0085827Y0069238D02*
X0085827Y0072164D01*
X0085827Y0069238D02*
X0082901Y0069238D01*
X0082901Y0072164D01*
X0085827Y0072164D01*
X0085827Y0070212D02*
X0082901Y0070212D01*
X0082901Y0071186D02*
X0085827Y0071186D01*
X0085827Y0072160D02*
X0082901Y0072160D01*
X0075027Y0072164D02*
X0075027Y0069238D01*
X0075027Y0072164D02*
X0077953Y0072164D01*
X0077953Y0069238D01*
X0075027Y0069238D01*
X0075027Y0070212D02*
X0077953Y0070212D01*
X0077953Y0071186D02*
X0075027Y0071186D01*
X0075027Y0072160D02*
X0077953Y0072160D01*
X0075027Y0075238D02*
X0075027Y0078164D01*
X0077953Y0078164D01*
X0077953Y0075238D01*
X0075027Y0075238D01*
X0075027Y0076212D02*
X0077953Y0076212D01*
X0077953Y0077186D02*
X0075027Y0077186D01*
X0075027Y0078160D02*
X0077953Y0078160D01*
X0085827Y0078164D02*
X0085827Y0075238D01*
X0082901Y0075238D01*
X0082901Y0078164D01*
X0085827Y0078164D01*
X0085827Y0076212D02*
X0082901Y0076212D01*
X0082901Y0077186D02*
X0085827Y0077186D01*
X0085827Y0078160D02*
X0082901Y0078160D01*
X0093701Y0078164D02*
X0093701Y0075238D01*
X0090775Y0075238D01*
X0090775Y0078164D01*
X0093701Y0078164D01*
X0093701Y0076212D02*
X0090775Y0076212D01*
X0090775Y0077186D02*
X0093701Y0077186D01*
X0093701Y0078160D02*
X0090775Y0078160D01*
X0101575Y0078164D02*
X0101575Y0075238D01*
X0098649Y0075238D01*
X0098649Y0078164D01*
X0101575Y0078164D01*
X0101575Y0076212D02*
X0098649Y0076212D01*
X0098649Y0077186D02*
X0101575Y0077186D01*
X0101575Y0078160D02*
X0098649Y0078160D01*
X0101575Y0072164D02*
X0101575Y0069238D01*
X0098649Y0069238D01*
X0098649Y0072164D01*
X0101575Y0072164D01*
X0101575Y0070212D02*
X0098649Y0070212D01*
X0098649Y0071186D02*
X0101575Y0071186D01*
X0101575Y0072160D02*
X0098649Y0072160D01*
X0093701Y0072164D02*
X0093701Y0069238D01*
X0090775Y0069238D01*
X0090775Y0072164D01*
X0093701Y0072164D01*
X0093701Y0070212D02*
X0090775Y0070212D01*
X0090775Y0071186D02*
X0093701Y0071186D01*
X0093701Y0072160D02*
X0090775Y0072160D01*
X0067153Y0072164D02*
X0067153Y0069238D01*
X0067153Y0072164D02*
X0070079Y0072164D01*
X0070079Y0069238D01*
X0067153Y0069238D01*
X0067153Y0070212D02*
X0070079Y0070212D01*
X0070079Y0071186D02*
X0067153Y0071186D01*
X0067153Y0072160D02*
X0070079Y0072160D01*
X0067153Y0075238D02*
X0067153Y0078164D01*
X0070079Y0078164D01*
X0070079Y0075238D01*
X0067153Y0075238D01*
X0067153Y0076212D02*
X0070079Y0076212D01*
X0070079Y0077186D02*
X0067153Y0077186D01*
X0067153Y0078160D02*
X0070079Y0078160D01*
X0059279Y0078164D02*
X0059279Y0075238D01*
X0059279Y0078164D02*
X0062205Y0078164D01*
X0062205Y0075238D01*
X0059279Y0075238D01*
X0059279Y0076212D02*
X0062205Y0076212D01*
X0062205Y0077186D02*
X0059279Y0077186D01*
X0059279Y0078160D02*
X0062205Y0078160D01*
X0059279Y0072164D02*
X0059279Y0069238D01*
X0059279Y0072164D02*
X0062205Y0072164D01*
X0062205Y0069238D01*
X0059279Y0069238D01*
X0059279Y0070212D02*
X0062205Y0070212D01*
X0062205Y0071186D02*
X0059279Y0071186D01*
X0059279Y0072160D02*
X0062205Y0072160D01*
X0055316Y0072258D02*
X0055316Y0069332D01*
X0052390Y0069332D01*
X0052390Y0072258D01*
X0055316Y0072258D01*
X0055316Y0070306D02*
X0052390Y0070306D01*
X0052390Y0071280D02*
X0055316Y0071280D01*
X0055316Y0072254D02*
X0052390Y0072254D01*
X0055316Y0066258D02*
X0055316Y0063332D01*
X0052390Y0063332D01*
X0052390Y0066258D01*
X0055316Y0066258D01*
X0055316Y0064306D02*
X0052390Y0064306D01*
X0052390Y0065280D02*
X0055316Y0065280D01*
X0055316Y0066254D02*
X0052390Y0066254D01*
X0053421Y0055506D02*
X0056347Y0055506D01*
X0053421Y0055506D02*
X0053421Y0058432D01*
X0056347Y0058432D01*
X0056347Y0055506D01*
X0056347Y0056480D02*
X0053421Y0056480D01*
X0053421Y0057454D02*
X0056347Y0057454D01*
X0056347Y0058428D02*
X0053421Y0058428D01*
X0050347Y0055506D02*
X0047421Y0055506D01*
X0047421Y0058432D01*
X0050347Y0058432D01*
X0050347Y0055506D01*
X0050347Y0056480D02*
X0047421Y0056480D01*
X0047421Y0057454D02*
X0050347Y0057454D01*
X0050347Y0058428D02*
X0047421Y0058428D01*
X0075964Y0088943D02*
X0078890Y0088943D01*
X0078890Y0086017D01*
X0075964Y0086017D01*
X0075964Y0088943D01*
X0075964Y0086991D02*
X0078890Y0086991D01*
X0078890Y0087965D02*
X0075964Y0087965D01*
X0075964Y0088939D02*
X0078890Y0088939D01*
X0081964Y0088943D02*
X0084890Y0088943D01*
X0084890Y0086017D01*
X0081964Y0086017D01*
X0081964Y0088943D01*
X0081964Y0086991D02*
X0084890Y0086991D01*
X0084890Y0087965D02*
X0081964Y0087965D01*
X0081964Y0088939D02*
X0084890Y0088939D01*
X0110413Y0059416D02*
X0113339Y0059416D01*
X0113339Y0056490D01*
X0110413Y0056490D01*
X0110413Y0059416D01*
X0110413Y0057464D02*
X0113339Y0057464D01*
X0113339Y0058438D02*
X0110413Y0058438D01*
X0110413Y0059412D02*
X0113339Y0059412D01*
X0116413Y0059416D02*
X0119339Y0059416D01*
X0119339Y0056490D01*
X0116413Y0056490D01*
X0116413Y0059416D01*
X0116413Y0057464D02*
X0119339Y0057464D01*
X0119339Y0058438D02*
X0116413Y0058438D01*
X0116413Y0059412D02*
X0119339Y0059412D01*
X0118335Y0041746D02*
X0118335Y0038820D01*
X0118335Y0041746D02*
X0121261Y0041746D01*
X0121261Y0038820D01*
X0118335Y0038820D01*
X0118335Y0039794D02*
X0121261Y0039794D01*
X0121261Y0040768D02*
X0118335Y0040768D01*
X0118335Y0041742D02*
X0121261Y0041742D01*
X0118335Y0035746D02*
X0118335Y0032820D01*
X0118335Y0035746D02*
X0121261Y0035746D01*
X0121261Y0032820D01*
X0118335Y0032820D01*
X0118335Y0033794D02*
X0121261Y0033794D01*
X0121261Y0034768D02*
X0118335Y0034768D01*
X0118335Y0035742D02*
X0121261Y0035742D01*
X0092764Y0015151D02*
X0089838Y0015151D01*
X0089838Y0018077D01*
X0092764Y0018077D01*
X0092764Y0015151D01*
X0092764Y0016125D02*
X0089838Y0016125D01*
X0089838Y0017099D02*
X0092764Y0017099D01*
X0092764Y0018073D02*
X0089838Y0018073D01*
X0086764Y0015151D02*
X0083838Y0015151D01*
X0083838Y0018077D01*
X0086764Y0018077D01*
X0086764Y0015151D01*
X0086764Y0016125D02*
X0083838Y0016125D01*
X0083838Y0017099D02*
X0086764Y0017099D01*
X0086764Y0018073D02*
X0083838Y0018073D01*
D11*
X0090291Y0028622D03*
X0092191Y0028622D03*
X0094191Y0028622D03*
X0096191Y0028622D03*
X0098191Y0028622D03*
X0100091Y0028622D03*
X0100091Y0045945D03*
X0098191Y0045945D03*
X0096191Y0045945D03*
X0094191Y0045945D03*
X0092191Y0045945D03*
X0090291Y0045945D03*
D12*
X0086530Y0042183D03*
X0086530Y0040283D03*
X0086530Y0038283D03*
X0086530Y0036283D03*
X0103853Y0036283D03*
X0103853Y0034283D03*
X0103853Y0032383D03*
X0103853Y0038283D03*
X0103853Y0040283D03*
X0103853Y0042183D03*
D13*
X0086530Y0034283D03*
X0086530Y0032383D03*
D14*
X0095191Y0037283D03*
D15*
X0137514Y0058937D03*
X0137514Y0069764D03*
X0135546Y0087480D03*
X0124719Y0087480D03*
X0113892Y0087480D03*
X0054187Y0087539D03*
X0044187Y0087539D03*
X0034187Y0087539D03*
X0024187Y0087539D03*
X0014187Y0087539D03*
D16*
X0053853Y0024488D03*
X0065664Y0024488D03*
X0071569Y0024488D03*
X0116845Y0024488D03*
X0128656Y0024488D03*
X0134561Y0024488D03*
D17*
X0140073Y0013661D03*
X0111333Y0013661D03*
X0077081Y0013661D03*
X0048341Y0013661D03*
D18*
X0048341Y0021929D03*
X0077081Y0021929D03*
X0111333Y0021929D03*
X0140073Y0021929D03*
D19*
X0131609Y0017598D03*
X0119798Y0017598D03*
X0068616Y0017598D03*
X0056805Y0017598D03*
D20*
X0052864Y0049094D03*
X0132864Y0049094D03*
D21*
X0010884Y0058031D03*
D22*
X0008884Y0050031D03*
X0039884Y0054031D03*
X0039884Y0035531D03*
X0039884Y0023531D03*
D23*
X0009884Y0024031D03*
D24*
X0024384Y0055031D03*
D25*
X0007893Y0011753D02*
X0007231Y0011930D01*
X0006609Y0012220D01*
X0006046Y0012614D01*
X0005561Y0013099D01*
X0005168Y0013661D01*
X0004877Y0014283D01*
X0004700Y0014946D01*
X0004640Y0015630D01*
X0004700Y0016314D01*
X0004877Y0016976D01*
X0005168Y0017598D01*
X0005561Y0018161D01*
X0006046Y0018646D01*
X0006609Y0019039D01*
X0007231Y0019330D01*
X0007893Y0019507D01*
X0008577Y0019567D01*
X0009261Y0019507D01*
X0009924Y0019330D01*
X0010546Y0019039D01*
X0011108Y0018646D01*
X0011593Y0018161D01*
X0011987Y0017598D01*
X0012277Y0016976D01*
X0012454Y0016314D01*
X0012514Y0015630D01*
X0012454Y0014946D01*
X0012277Y0014283D01*
X0011987Y0013661D01*
X0011593Y0013099D01*
X0011108Y0012614D01*
X0010546Y0012220D01*
X0009924Y0011930D01*
X0009261Y0011753D01*
X0008577Y0011693D01*
X0007893Y0011753D01*
X0007831Y0011770D02*
X0009323Y0011770D01*
X0010614Y0012268D02*
X0006540Y0012268D01*
X0005894Y0012767D02*
X0011260Y0012767D01*
X0011709Y0013265D02*
X0005445Y0013265D01*
X0005120Y0013764D02*
X0012034Y0013764D01*
X0012267Y0014262D02*
X0004887Y0014262D01*
X0004750Y0014761D02*
X0012405Y0014761D01*
X0012482Y0015259D02*
X0004673Y0015259D01*
X0004651Y0015758D02*
X0012503Y0015758D01*
X0012459Y0016256D02*
X0004695Y0016256D01*
X0004818Y0016755D02*
X0012336Y0016755D01*
X0012148Y0017253D02*
X0005007Y0017253D01*
X0005275Y0017752D02*
X0011879Y0017752D01*
X0011503Y0018250D02*
X0005651Y0018250D01*
X0006193Y0018749D02*
X0010961Y0018749D01*
X0010100Y0019247D02*
X0007054Y0019247D01*
X0008577Y0064843D02*
X0007893Y0064902D01*
X0007231Y0065080D01*
X0006609Y0065370D01*
X0006046Y0065764D01*
X0005561Y0066249D01*
X0005168Y0066811D01*
X0004877Y0067433D01*
X0004700Y0068096D01*
X0004640Y0068780D01*
X0004700Y0069463D01*
X0004877Y0070126D01*
X0005168Y0070748D01*
X0005561Y0071310D01*
X0006046Y0071795D01*
X0006609Y0072189D01*
X0007231Y0072479D01*
X0007893Y0072657D01*
X0008577Y0072717D01*
X0009261Y0072657D01*
X0009924Y0072479D01*
X0010546Y0072189D01*
X0011108Y0071795D01*
X0011593Y0071310D01*
X0011987Y0070748D01*
X0012277Y0070126D01*
X0012454Y0069463D01*
X0012514Y0068780D01*
X0012454Y0068096D01*
X0012277Y0067433D01*
X0011987Y0066811D01*
X0011593Y0066249D01*
X0011108Y0065764D01*
X0010546Y0065370D01*
X0009924Y0065080D01*
X0009261Y0064902D01*
X0008577Y0064843D01*
X0007166Y0065110D02*
X0009989Y0065110D01*
X0010887Y0065609D02*
X0006268Y0065609D01*
X0005703Y0066107D02*
X0011451Y0066107D01*
X0011843Y0066606D02*
X0005311Y0066606D01*
X0005031Y0067104D02*
X0012123Y0067104D01*
X0012322Y0067603D02*
X0004832Y0067603D01*
X0004699Y0068101D02*
X0012455Y0068101D01*
X0012498Y0068600D02*
X0004656Y0068600D01*
X0004668Y0069098D02*
X0012486Y0069098D01*
X0012418Y0069597D02*
X0004736Y0069597D01*
X0004869Y0070095D02*
X0012285Y0070095D01*
X0012059Y0070594D02*
X0005096Y0070594D01*
X0005409Y0071092D02*
X0011745Y0071092D01*
X0011312Y0071591D02*
X0005842Y0071591D01*
X0006466Y0072089D02*
X0010688Y0072089D01*
X0009517Y0072588D02*
X0007637Y0072588D01*
X0140467Y0077638D02*
X0140527Y0076954D01*
X0140704Y0076291D01*
X0140994Y0075669D01*
X0141388Y0075107D01*
X0141873Y0074622D01*
X0142435Y0074228D01*
X0143057Y0073938D01*
X0143720Y0073761D01*
X0144404Y0073701D01*
X0145087Y0073761D01*
X0145750Y0073938D01*
X0146372Y0074228D01*
X0146934Y0074622D01*
X0147420Y0075107D01*
X0147813Y0075669D01*
X0148103Y0076291D01*
X0148281Y0076954D01*
X0148341Y0077638D01*
X0148281Y0078321D01*
X0148103Y0078984D01*
X0147813Y0079606D01*
X0147420Y0080168D01*
X0146934Y0080654D01*
X0146372Y0081047D01*
X0145750Y0081337D01*
X0145087Y0081515D01*
X0144404Y0081575D01*
X0143720Y0081515D01*
X0143057Y0081337D01*
X0142435Y0081047D01*
X0141873Y0080654D01*
X0141388Y0080168D01*
X0140994Y0079606D01*
X0140704Y0078984D01*
X0140527Y0078321D01*
X0140467Y0077638D01*
X0140472Y0077573D02*
X0148335Y0077573D01*
X0148303Y0078072D02*
X0140505Y0078072D01*
X0140593Y0078570D02*
X0148214Y0078570D01*
X0148064Y0079069D02*
X0140744Y0079069D01*
X0140976Y0079567D02*
X0147832Y0079567D01*
X0147492Y0080066D02*
X0141316Y0080066D01*
X0141784Y0080564D02*
X0147024Y0080564D01*
X0146340Y0081063D02*
X0142468Y0081063D01*
X0144247Y0081561D02*
X0144560Y0081561D01*
X0148292Y0077075D02*
X0140516Y0077075D01*
X0140628Y0076576D02*
X0148180Y0076576D01*
X0148004Y0076077D02*
X0140804Y0076077D01*
X0141058Y0075579D02*
X0147750Y0075579D01*
X0147393Y0075080D02*
X0141415Y0075080D01*
X0141930Y0074582D02*
X0146877Y0074582D01*
X0146062Y0074083D02*
X0142746Y0074083D01*
D26*
X0069254Y0045157D03*
X0066011Y0045157D03*
X0020041Y0066811D03*
X0016798Y0066811D03*
M02*
