G75*
%MOIN*%
%OFA0B0*%
%FSLAX25Y25*%
%IPPOS*%
%LPD*%
%AMOC8*
5,1,8,0,0,1.08239X$1,22.5*
%
%ADD10C,0.00875*%
%ADD11R,0.01181X0.04724*%
%ADD12R,0.04724X0.01181*%
%ADD13R,0.04724X0.01200*%
%ADD14R,0.08000X0.08000*%
%ADD15R,0.07874X0.05906*%
%ADD16R,0.02756X0.05906*%
%ADD17R,0.03937X0.02362*%
%ADD18R,0.03937X0.03150*%
%ADD19R,0.13000X0.05000*%
%ADD20R,0.09000X0.05000*%
%ADD21R,0.11000X0.05000*%
%ADD22R,0.02500X0.05000*%
%ADD23R,0.09600X0.09000*%
D10*
X0050524Y0033675D02*
X0053150Y0033675D01*
X0053150Y0031049D01*
X0050524Y0031049D01*
X0050524Y0033675D01*
X0050524Y0031923D02*
X0053150Y0031923D01*
X0053150Y0032797D02*
X0050524Y0032797D01*
X0050524Y0033671D02*
X0053150Y0033671D01*
X0056524Y0033675D02*
X0059150Y0033675D01*
X0059150Y0031049D01*
X0056524Y0031049D01*
X0056524Y0033675D01*
X0056524Y0031923D02*
X0059150Y0031923D01*
X0059150Y0032797D02*
X0056524Y0032797D01*
X0056524Y0033671D02*
X0059150Y0033671D01*
X0063319Y0033675D02*
X0065945Y0033675D01*
X0065945Y0031049D01*
X0063319Y0031049D01*
X0063319Y0033675D01*
X0063319Y0031923D02*
X0065945Y0031923D01*
X0065945Y0032797D02*
X0063319Y0032797D01*
X0063319Y0033671D02*
X0065945Y0033671D01*
X0069319Y0033675D02*
X0071945Y0033675D01*
X0071945Y0031049D01*
X0069319Y0031049D01*
X0069319Y0033675D01*
X0069319Y0031923D02*
X0071945Y0031923D01*
X0071945Y0032797D02*
X0069319Y0032797D01*
X0069319Y0033671D02*
X0071945Y0033671D01*
X0071945Y0039581D02*
X0069319Y0039581D01*
X0071945Y0039581D02*
X0071945Y0036955D01*
X0069319Y0036955D01*
X0069319Y0039581D01*
X0069319Y0037829D02*
X0071945Y0037829D01*
X0071945Y0038703D02*
X0069319Y0038703D01*
X0069319Y0039577D02*
X0071945Y0039577D01*
X0065945Y0039581D02*
X0063319Y0039581D01*
X0065945Y0039581D02*
X0065945Y0036955D01*
X0063319Y0036955D01*
X0063319Y0039581D01*
X0063319Y0037829D02*
X0065945Y0037829D01*
X0065945Y0038703D02*
X0063319Y0038703D01*
X0063319Y0039577D02*
X0065945Y0039577D01*
X0059150Y0036955D02*
X0056524Y0036955D01*
X0056524Y0039581D01*
X0059150Y0039581D01*
X0059150Y0036955D01*
X0059150Y0037829D02*
X0056524Y0037829D01*
X0056524Y0038703D02*
X0059150Y0038703D01*
X0059150Y0039577D02*
X0056524Y0039577D01*
X0053150Y0036955D02*
X0050524Y0036955D01*
X0050524Y0039581D01*
X0053150Y0039581D01*
X0053150Y0036955D01*
X0053150Y0037829D02*
X0050524Y0037829D01*
X0050524Y0038703D02*
X0053150Y0038703D01*
X0053150Y0039577D02*
X0050524Y0039577D01*
X0062335Y0054671D02*
X0064961Y0054671D01*
X0062335Y0054671D02*
X0062335Y0057297D01*
X0064961Y0057297D01*
X0064961Y0054671D01*
X0064961Y0055545D02*
X0062335Y0055545D01*
X0062335Y0056419D02*
X0064961Y0056419D01*
X0064961Y0057293D02*
X0062335Y0057293D01*
X0068335Y0054671D02*
X0070961Y0054671D01*
X0068335Y0054671D02*
X0068335Y0057297D01*
X0070961Y0057297D01*
X0070961Y0054671D01*
X0070961Y0055545D02*
X0068335Y0055545D01*
X0068335Y0056419D02*
X0070961Y0056419D01*
X0070961Y0057293D02*
X0068335Y0057293D01*
X0079067Y0057297D02*
X0081693Y0057297D01*
X0081693Y0054671D01*
X0079067Y0054671D01*
X0079067Y0057297D01*
X0079067Y0055545D02*
X0081693Y0055545D01*
X0081693Y0056419D02*
X0079067Y0056419D01*
X0079067Y0057293D02*
X0081693Y0057293D01*
X0085067Y0057297D02*
X0087693Y0057297D01*
X0087693Y0054671D01*
X0085067Y0054671D01*
X0085067Y0057297D01*
X0085067Y0055545D02*
X0087693Y0055545D01*
X0087693Y0056419D02*
X0085067Y0056419D01*
X0085067Y0057293D02*
X0087693Y0057293D01*
X0085677Y0069388D02*
X0085677Y0072014D01*
X0085677Y0069388D02*
X0083051Y0069388D01*
X0083051Y0072014D01*
X0085677Y0072014D01*
X0085677Y0070262D02*
X0083051Y0070262D01*
X0083051Y0071136D02*
X0085677Y0071136D01*
X0085677Y0072010D02*
X0083051Y0072010D01*
X0075177Y0072014D02*
X0075177Y0069388D01*
X0075177Y0072014D02*
X0077803Y0072014D01*
X0077803Y0069388D01*
X0075177Y0069388D01*
X0075177Y0070262D02*
X0077803Y0070262D01*
X0077803Y0071136D02*
X0075177Y0071136D01*
X0075177Y0072010D02*
X0077803Y0072010D01*
X0075177Y0075388D02*
X0075177Y0078014D01*
X0077803Y0078014D01*
X0077803Y0075388D01*
X0075177Y0075388D01*
X0075177Y0076262D02*
X0077803Y0076262D01*
X0077803Y0077136D02*
X0075177Y0077136D01*
X0075177Y0078010D02*
X0077803Y0078010D01*
X0085677Y0078014D02*
X0085677Y0075388D01*
X0083051Y0075388D01*
X0083051Y0078014D01*
X0085677Y0078014D01*
X0085677Y0076262D02*
X0083051Y0076262D01*
X0083051Y0077136D02*
X0085677Y0077136D01*
X0085677Y0078010D02*
X0083051Y0078010D01*
X0093551Y0078014D02*
X0093551Y0075388D01*
X0090925Y0075388D01*
X0090925Y0078014D01*
X0093551Y0078014D01*
X0093551Y0076262D02*
X0090925Y0076262D01*
X0090925Y0077136D02*
X0093551Y0077136D01*
X0093551Y0078010D02*
X0090925Y0078010D01*
X0101425Y0078014D02*
X0101425Y0075388D01*
X0098799Y0075388D01*
X0098799Y0078014D01*
X0101425Y0078014D01*
X0101425Y0076262D02*
X0098799Y0076262D01*
X0098799Y0077136D02*
X0101425Y0077136D01*
X0101425Y0078010D02*
X0098799Y0078010D01*
X0101425Y0072014D02*
X0101425Y0069388D01*
X0098799Y0069388D01*
X0098799Y0072014D01*
X0101425Y0072014D01*
X0101425Y0070262D02*
X0098799Y0070262D01*
X0098799Y0071136D02*
X0101425Y0071136D01*
X0101425Y0072010D02*
X0098799Y0072010D01*
X0093551Y0072014D02*
X0093551Y0069388D01*
X0090925Y0069388D01*
X0090925Y0072014D01*
X0093551Y0072014D01*
X0093551Y0070262D02*
X0090925Y0070262D01*
X0090925Y0071136D02*
X0093551Y0071136D01*
X0093551Y0072010D02*
X0090925Y0072010D01*
X0067303Y0072014D02*
X0067303Y0069388D01*
X0067303Y0072014D02*
X0069929Y0072014D01*
X0069929Y0069388D01*
X0067303Y0069388D01*
X0067303Y0070262D02*
X0069929Y0070262D01*
X0069929Y0071136D02*
X0067303Y0071136D01*
X0067303Y0072010D02*
X0069929Y0072010D01*
X0067303Y0075388D02*
X0067303Y0078014D01*
X0069929Y0078014D01*
X0069929Y0075388D01*
X0067303Y0075388D01*
X0067303Y0076262D02*
X0069929Y0076262D01*
X0069929Y0077136D02*
X0067303Y0077136D01*
X0067303Y0078010D02*
X0069929Y0078010D01*
X0059429Y0078014D02*
X0059429Y0075388D01*
X0059429Y0078014D02*
X0062055Y0078014D01*
X0062055Y0075388D01*
X0059429Y0075388D01*
X0059429Y0076262D02*
X0062055Y0076262D01*
X0062055Y0077136D02*
X0059429Y0077136D01*
X0059429Y0078010D02*
X0062055Y0078010D01*
X0059429Y0072014D02*
X0059429Y0069388D01*
X0059429Y0072014D02*
X0062055Y0072014D01*
X0062055Y0069388D01*
X0059429Y0069388D01*
X0059429Y0070262D02*
X0062055Y0070262D01*
X0062055Y0071136D02*
X0059429Y0071136D01*
X0059429Y0072010D02*
X0062055Y0072010D01*
X0055166Y0072108D02*
X0055166Y0069482D01*
X0052540Y0069482D01*
X0052540Y0072108D01*
X0055166Y0072108D01*
X0055166Y0070356D02*
X0052540Y0070356D01*
X0052540Y0071230D02*
X0055166Y0071230D01*
X0055166Y0072104D02*
X0052540Y0072104D01*
X0055166Y0066108D02*
X0055166Y0063482D01*
X0052540Y0063482D01*
X0052540Y0066108D01*
X0055166Y0066108D01*
X0055166Y0064356D02*
X0052540Y0064356D01*
X0052540Y0065230D02*
X0055166Y0065230D01*
X0055166Y0066104D02*
X0052540Y0066104D01*
X0053571Y0055656D02*
X0056197Y0055656D01*
X0053571Y0055656D02*
X0053571Y0058282D01*
X0056197Y0058282D01*
X0056197Y0055656D01*
X0056197Y0056530D02*
X0053571Y0056530D01*
X0053571Y0057404D02*
X0056197Y0057404D01*
X0056197Y0058278D02*
X0053571Y0058278D01*
X0050197Y0055656D02*
X0047571Y0055656D01*
X0047571Y0058282D01*
X0050197Y0058282D01*
X0050197Y0055656D01*
X0050197Y0056530D02*
X0047571Y0056530D01*
X0047571Y0057404D02*
X0050197Y0057404D01*
X0050197Y0058278D02*
X0047571Y0058278D01*
X0076114Y0088793D02*
X0078740Y0088793D01*
X0078740Y0086167D01*
X0076114Y0086167D01*
X0076114Y0088793D01*
X0076114Y0087041D02*
X0078740Y0087041D01*
X0078740Y0087915D02*
X0076114Y0087915D01*
X0076114Y0088789D02*
X0078740Y0088789D01*
X0082114Y0088793D02*
X0084740Y0088793D01*
X0084740Y0086167D01*
X0082114Y0086167D01*
X0082114Y0088793D01*
X0082114Y0087041D02*
X0084740Y0087041D01*
X0084740Y0087915D02*
X0082114Y0087915D01*
X0082114Y0088789D02*
X0084740Y0088789D01*
X0110563Y0059266D02*
X0113189Y0059266D01*
X0113189Y0056640D01*
X0110563Y0056640D01*
X0110563Y0059266D01*
X0110563Y0057514D02*
X0113189Y0057514D01*
X0113189Y0058388D02*
X0110563Y0058388D01*
X0110563Y0059262D02*
X0113189Y0059262D01*
X0116563Y0059266D02*
X0119189Y0059266D01*
X0119189Y0056640D01*
X0116563Y0056640D01*
X0116563Y0059266D01*
X0116563Y0057514D02*
X0119189Y0057514D01*
X0119189Y0058388D02*
X0116563Y0058388D01*
X0116563Y0059262D02*
X0119189Y0059262D01*
X0118485Y0041596D02*
X0118485Y0038970D01*
X0118485Y0041596D02*
X0121111Y0041596D01*
X0121111Y0038970D01*
X0118485Y0038970D01*
X0118485Y0039844D02*
X0121111Y0039844D01*
X0121111Y0040718D02*
X0118485Y0040718D01*
X0118485Y0041592D02*
X0121111Y0041592D01*
X0118485Y0035596D02*
X0118485Y0032970D01*
X0118485Y0035596D02*
X0121111Y0035596D01*
X0121111Y0032970D01*
X0118485Y0032970D01*
X0118485Y0033844D02*
X0121111Y0033844D01*
X0121111Y0034718D02*
X0118485Y0034718D01*
X0118485Y0035592D02*
X0121111Y0035592D01*
X0092614Y0015301D02*
X0089988Y0015301D01*
X0089988Y0017927D01*
X0092614Y0017927D01*
X0092614Y0015301D01*
X0092614Y0016175D02*
X0089988Y0016175D01*
X0089988Y0017049D02*
X0092614Y0017049D01*
X0092614Y0017923D02*
X0089988Y0017923D01*
X0086614Y0015301D02*
X0083988Y0015301D01*
X0083988Y0017927D01*
X0086614Y0017927D01*
X0086614Y0015301D01*
X0086614Y0016175D02*
X0083988Y0016175D01*
X0083988Y0017049D02*
X0086614Y0017049D01*
X0086614Y0017923D02*
X0083988Y0017923D01*
D11*
X0090291Y0028622D03*
X0092191Y0028622D03*
X0094191Y0028622D03*
X0096191Y0028622D03*
X0098191Y0028622D03*
X0100091Y0028622D03*
X0100091Y0045945D03*
X0098191Y0045945D03*
X0096191Y0045945D03*
X0094191Y0045945D03*
X0092191Y0045945D03*
X0090291Y0045945D03*
D12*
X0086530Y0042183D03*
X0086530Y0040283D03*
X0086530Y0038283D03*
X0086530Y0036283D03*
X0103853Y0036283D03*
X0103853Y0034283D03*
X0103853Y0032383D03*
X0103853Y0038283D03*
X0103853Y0040283D03*
X0103853Y0042183D03*
D13*
X0086530Y0034283D03*
X0086530Y0032383D03*
D14*
X0095191Y0037283D03*
D15*
X0137514Y0058937D03*
X0137514Y0069764D03*
X0135546Y0087480D03*
X0124719Y0087480D03*
X0113892Y0087480D03*
X0054187Y0087539D03*
X0044187Y0087539D03*
X0034187Y0087539D03*
X0024187Y0087539D03*
X0014187Y0087539D03*
D16*
X0053853Y0024488D03*
X0065664Y0024488D03*
X0071569Y0024488D03*
X0116845Y0024488D03*
X0128656Y0024488D03*
X0134561Y0024488D03*
D17*
X0140073Y0013661D03*
X0111333Y0013661D03*
X0077081Y0013661D03*
X0048341Y0013661D03*
D18*
X0048341Y0021929D03*
X0077081Y0021929D03*
X0111333Y0021929D03*
X0140073Y0021929D03*
D19*
X0010884Y0058031D03*
D20*
X0008884Y0050031D03*
X0039884Y0054031D03*
X0039884Y0035531D03*
X0039884Y0023531D03*
D21*
X0009884Y0024031D03*
D22*
X0066011Y0045157D03*
X0069254Y0045157D03*
X0020041Y0066811D03*
X0016798Y0066811D03*
D23*
X0018420Y0066811D03*
X0067632Y0045157D03*
M02*
