G75*
%MOIN*%
%OFA0B0*%
%FSLAX24Y24*%
%IPPOS*%
%LPD*%
%AMOC8*
5,1,8,0,0,1.08239X$1,22.5*
%
%ADD10C,0.0020*%
%ADD11C,0.0050*%
%ADD12C,0.0060*%
%ADD13R,0.0591X0.0591*%
%ADD14C,0.0080*%
D10*
X001145Y007624D02*
X001217Y007624D01*
X001253Y007660D01*
X001253Y007732D01*
X001181Y007732D01*
X001109Y007804D02*
X001109Y007660D01*
X001145Y007624D01*
X001326Y007624D02*
X001326Y007840D01*
X001471Y007624D01*
X001471Y007840D01*
X001544Y007840D02*
X001652Y007840D01*
X001688Y007804D01*
X001688Y007660D01*
X001652Y007624D01*
X001544Y007624D01*
X001544Y007840D01*
X001253Y007804D02*
X001217Y007840D01*
X001145Y007840D01*
X001109Y007804D01*
X002145Y007840D02*
X002145Y007624D01*
X002253Y007624D01*
X002289Y007660D01*
X002289Y007804D01*
X002253Y007840D01*
X002145Y007840D01*
X002362Y007840D02*
X002435Y007840D01*
X002399Y007840D02*
X002399Y007624D01*
X002435Y007624D02*
X002362Y007624D01*
X002508Y007660D02*
X002508Y007804D01*
X002544Y007840D01*
X002616Y007840D01*
X002652Y007804D01*
X002652Y007660D01*
X002616Y007624D01*
X002544Y007624D01*
X002508Y007660D01*
X003109Y007624D02*
X003109Y007840D01*
X003217Y007840D01*
X003253Y007804D01*
X003253Y007732D01*
X003217Y007696D01*
X003109Y007696D01*
X003181Y007696D02*
X003253Y007624D01*
X003326Y007660D02*
X003362Y007624D01*
X003434Y007624D01*
X003471Y007660D01*
X003471Y007696D01*
X003434Y007732D01*
X003362Y007732D01*
X003326Y007768D01*
X003326Y007804D01*
X003362Y007840D01*
X003434Y007840D01*
X003471Y007804D01*
X003544Y007840D02*
X003688Y007840D01*
X003616Y007840D02*
X003616Y007624D01*
X004109Y007660D02*
X004145Y007624D01*
X004217Y007624D01*
X004253Y007660D01*
X004326Y007624D02*
X004471Y007624D01*
X004544Y007624D02*
X004544Y007840D01*
X004580Y007732D02*
X004688Y007624D01*
X004544Y007696D02*
X004688Y007840D01*
X004326Y007840D02*
X004326Y007624D01*
X004253Y007804D02*
X004217Y007840D01*
X004145Y007840D01*
X004109Y007804D01*
X004109Y007660D01*
X005054Y007660D02*
X005090Y007624D01*
X005163Y007624D01*
X005199Y007660D01*
X005199Y007696D01*
X005163Y007732D01*
X005126Y007732D01*
X005163Y007732D02*
X005199Y007768D01*
X005199Y007804D01*
X005163Y007840D01*
X005090Y007840D01*
X005054Y007804D01*
X005272Y007660D02*
X005308Y007660D01*
X005308Y007624D01*
X005272Y007624D01*
X005272Y007660D01*
X005381Y007660D02*
X005417Y007624D01*
X005489Y007624D01*
X005525Y007660D01*
X005525Y007696D01*
X005489Y007732D01*
X005453Y007732D01*
X005489Y007732D02*
X005525Y007768D01*
X005525Y007804D01*
X005489Y007840D01*
X005417Y007840D01*
X005381Y007804D01*
X005598Y007840D02*
X005598Y007696D01*
X005670Y007624D01*
X005742Y007696D01*
X005742Y007840D01*
X011188Y007941D02*
X011332Y007941D01*
X011260Y007941D02*
X011260Y007724D01*
X011405Y007724D02*
X011550Y007941D01*
X011405Y007941D02*
X011550Y007724D01*
X012271Y007724D02*
X012271Y007941D01*
X012379Y007941D01*
X012415Y007905D01*
X012415Y007833D01*
X012379Y007797D01*
X012271Y007797D01*
X012343Y007797D02*
X012415Y007724D01*
X012488Y007724D02*
X012632Y007941D01*
X012488Y007941D02*
X012632Y007724D01*
X013235Y007758D02*
X013271Y007722D01*
X013343Y007722D01*
X013379Y007758D01*
X013379Y007831D01*
X013307Y007831D01*
X013379Y007903D02*
X013343Y007939D01*
X013271Y007939D01*
X013235Y007903D01*
X013235Y007758D01*
X013452Y007722D02*
X013452Y007939D01*
X013596Y007722D01*
X013596Y007939D01*
X013670Y007939D02*
X013778Y007939D01*
X013814Y007903D01*
X013814Y007758D01*
X013778Y007722D01*
X013670Y007722D01*
X013670Y007939D01*
X014298Y006660D02*
X014370Y006660D01*
X014406Y006624D01*
X014406Y006516D01*
X014406Y006588D02*
X014478Y006660D01*
X014298Y006660D02*
X014262Y006624D01*
X014262Y006516D01*
X014478Y006516D01*
X014478Y006442D02*
X014478Y006298D01*
X014262Y006298D01*
X014262Y006442D01*
X014370Y006370D02*
X014370Y006298D01*
X014298Y006225D02*
X014442Y006081D01*
X014478Y006081D01*
X014478Y006225D01*
X014298Y006225D02*
X014262Y006225D01*
X014262Y006081D01*
X014262Y006007D02*
X014298Y006007D01*
X014442Y005863D01*
X014478Y005863D01*
X014478Y006007D01*
X014262Y006007D02*
X014262Y005863D01*
X014262Y005790D02*
X014442Y005790D01*
X014478Y005754D01*
X014478Y005682D01*
X014442Y005646D01*
X014262Y005646D01*
X014298Y005572D02*
X014334Y005572D01*
X014370Y005536D01*
X014370Y005428D01*
X014478Y005428D02*
X014478Y005536D01*
X014442Y005572D01*
X014406Y005572D01*
X014370Y005536D01*
X014298Y005572D02*
X014262Y005536D01*
X014262Y005428D01*
X014478Y005428D01*
D11*
X001445Y000899D02*
X001195Y000899D01*
X001195Y005649D01*
X003695Y005649D01*
X003695Y000899D01*
X003445Y000899D01*
X003445Y000149D01*
X001445Y000149D02*
X001445Y000899D01*
X004940Y002582D02*
X004940Y003082D01*
X006040Y003082D01*
X006040Y002582D01*
X004940Y002582D01*
X004940Y003173D02*
X004940Y003673D01*
X006040Y003673D01*
X006040Y003173D01*
X004940Y003173D01*
X006219Y003173D02*
X006219Y003673D01*
X007319Y003673D01*
X007319Y003173D01*
X006219Y003173D01*
X006219Y003082D02*
X007319Y003082D01*
X007319Y002582D01*
X006219Y002582D01*
X006219Y003082D01*
X008344Y002144D02*
X010706Y002144D01*
X010706Y004506D01*
X008344Y004506D01*
X008344Y002144D01*
X008286Y001508D02*
X008286Y001008D01*
X009386Y001008D01*
X009386Y001508D01*
X008286Y001508D01*
X011736Y002775D02*
X011736Y003875D01*
X012236Y003875D01*
X012236Y002775D01*
X011736Y002775D01*
X012543Y003256D02*
X014043Y003256D01*
X014043Y005756D01*
X012543Y005756D01*
X012044Y005642D02*
X012044Y005142D01*
X010944Y005142D01*
X010944Y005642D01*
X012044Y005642D01*
X010268Y006416D02*
X009768Y006416D01*
X009768Y007516D01*
X010268Y007516D01*
X010268Y006416D01*
X009480Y006416D02*
X008980Y006416D01*
X008980Y007516D01*
X009480Y007516D01*
X009480Y006416D01*
X008693Y006416D02*
X008193Y006416D01*
X008193Y007516D01*
X008693Y007516D01*
X008693Y006416D01*
X007905Y006416D02*
X007405Y006416D01*
X007405Y007516D01*
X007905Y007516D01*
X007905Y006416D01*
X007118Y006416D02*
X006618Y006416D01*
X006618Y007516D01*
X007118Y007516D01*
X007118Y006416D01*
X006331Y006416D02*
X005831Y006416D01*
X005831Y007516D01*
X006331Y007516D01*
X006331Y006416D01*
X005642Y006926D02*
X005642Y005826D01*
X005142Y005826D01*
X005142Y006926D01*
X005642Y006926D01*
X005745Y005543D02*
X004645Y005543D01*
X004645Y005043D01*
X005745Y005043D01*
X005745Y005543D01*
X006121Y005445D02*
X006121Y004945D01*
X007221Y004945D01*
X007221Y005445D01*
X006121Y005445D01*
X007794Y005445D02*
X007794Y004945D01*
X008894Y004945D01*
X008894Y005445D01*
X007794Y005445D01*
X004143Y004506D02*
X004145Y004637D01*
X004151Y004767D01*
X004161Y004897D01*
X004175Y005027D01*
X004192Y005156D01*
X004214Y005285D01*
X004240Y005413D01*
X004269Y005540D01*
X004302Y005666D01*
X004340Y005791D01*
X004380Y005915D01*
X004425Y006038D01*
X004473Y006159D01*
X004525Y006279D01*
X004581Y006397D01*
X004640Y006513D01*
X004703Y006628D01*
X004769Y006740D01*
X004838Y006851D01*
X004911Y006959D01*
X004987Y007065D01*
X005067Y007169D01*
X005149Y007270D01*
X005234Y007369D01*
X005323Y007465D01*
X005414Y007558D01*
X005508Y007649D01*
X005605Y007736D01*
X005704Y007821D01*
X005806Y007902D01*
X005910Y007981D01*
X006017Y008056D01*
X006126Y008128D01*
X006237Y008197D01*
X006350Y008262D01*
X006465Y008324D01*
X006582Y008382D01*
X006700Y008437D01*
X006820Y008488D01*
X006942Y008535D01*
X007065Y008579D01*
X007189Y008619D01*
X007314Y008655D01*
X007441Y008688D01*
X007568Y008716D01*
X007696Y008741D01*
X007825Y008761D01*
X007955Y008778D01*
X008084Y008791D01*
X008215Y008800D01*
X008345Y008805D01*
X008476Y008806D01*
X008606Y008803D01*
X008736Y008796D01*
X008867Y008785D01*
X008996Y008770D01*
X009125Y008752D01*
X009254Y008729D01*
X009382Y008702D01*
X009509Y008672D01*
X009635Y008638D01*
X009759Y008600D01*
X009883Y008558D01*
X010005Y008512D01*
X010126Y008463D01*
X010245Y008410D01*
X010363Y008353D01*
X010479Y008293D01*
X010593Y008230D01*
X010705Y008163D01*
X010815Y008093D01*
X010923Y008019D01*
X011028Y007942D01*
X011131Y007862D01*
X011232Y007779D01*
X011330Y007693D01*
X011425Y007604D01*
X011518Y007512D01*
X011608Y007417D01*
X011695Y007320D01*
X011779Y007220D01*
X011859Y007117D01*
X011937Y007012D01*
X012012Y006905D01*
X012083Y006796D01*
X012150Y006684D01*
X012215Y006571D01*
X012276Y006455D01*
X012333Y006338D01*
X012387Y006219D01*
X012437Y006099D01*
X012484Y005977D01*
X012526Y005853D01*
X012565Y005729D01*
X012601Y005603D01*
X012632Y005476D01*
X012660Y005349D01*
X012683Y005221D01*
X012703Y005092D01*
X012719Y004962D01*
X012731Y004832D01*
X012739Y004702D01*
X012743Y004571D01*
X012743Y004441D01*
X012739Y004310D01*
X012731Y004180D01*
X012719Y004050D01*
X012703Y003920D01*
X012683Y003791D01*
X012660Y003663D01*
X012632Y003536D01*
X012601Y003409D01*
X012565Y003283D01*
X012526Y003159D01*
X012484Y003035D01*
X012437Y002913D01*
X012387Y002793D01*
X012333Y002674D01*
X012276Y002557D01*
X012215Y002441D01*
X012150Y002328D01*
X012083Y002216D01*
X012012Y002107D01*
X011937Y002000D01*
X011859Y001895D01*
X011779Y001792D01*
X011695Y001692D01*
X011608Y001595D01*
X011518Y001500D01*
X011425Y001408D01*
X011330Y001319D01*
X011232Y001233D01*
X011131Y001150D01*
X011028Y001070D01*
X010923Y000993D01*
X010815Y000919D01*
X010705Y000849D01*
X010593Y000782D01*
X010479Y000719D01*
X010363Y000659D01*
X010245Y000602D01*
X010126Y000549D01*
X010005Y000500D01*
X009883Y000454D01*
X009759Y000412D01*
X009635Y000374D01*
X009509Y000340D01*
X009382Y000310D01*
X009254Y000283D01*
X009125Y000260D01*
X008996Y000242D01*
X008867Y000227D01*
X008736Y000216D01*
X008606Y000209D01*
X008476Y000206D01*
X008345Y000207D01*
X008215Y000212D01*
X008084Y000221D01*
X007955Y000234D01*
X007825Y000251D01*
X007696Y000271D01*
X007568Y000296D01*
X007441Y000324D01*
X007314Y000357D01*
X007189Y000393D01*
X007065Y000433D01*
X006942Y000477D01*
X006820Y000524D01*
X006700Y000575D01*
X006582Y000630D01*
X006465Y000688D01*
X006350Y000750D01*
X006237Y000815D01*
X006126Y000884D01*
X006017Y000956D01*
X005910Y001031D01*
X005806Y001110D01*
X005704Y001191D01*
X005605Y001276D01*
X005508Y001363D01*
X005414Y001454D01*
X005323Y001547D01*
X005234Y001643D01*
X005149Y001742D01*
X005067Y001843D01*
X004987Y001947D01*
X004911Y002053D01*
X004838Y002161D01*
X004769Y002272D01*
X004703Y002384D01*
X004640Y002499D01*
X004581Y002615D01*
X004525Y002733D01*
X004473Y002853D01*
X004425Y002974D01*
X004380Y003097D01*
X004340Y003221D01*
X004302Y003346D01*
X004269Y003472D01*
X004240Y003599D01*
X004214Y003727D01*
X004192Y003856D01*
X004175Y003985D01*
X004161Y004115D01*
X004151Y004245D01*
X004145Y004375D01*
X004143Y004506D01*
X007499Y008094D02*
X007499Y008594D01*
X008599Y008594D01*
X008599Y008094D01*
X007499Y008094D01*
D12*
X007084Y004407D02*
X006455Y004407D01*
X006455Y004408D02*
X006436Y004408D01*
X006417Y004404D01*
X006399Y004398D01*
X006383Y004388D01*
X006368Y004376D01*
X006356Y004362D01*
X006346Y004345D01*
X006340Y004328D01*
X006336Y004309D01*
X006336Y003718D01*
X006340Y003700D01*
X006346Y003682D01*
X006356Y003665D01*
X006368Y003651D01*
X006383Y003638D01*
X006399Y003629D01*
X006417Y003623D01*
X006436Y003619D01*
X006455Y003619D01*
X006455Y003620D02*
X007084Y003620D01*
X007084Y003619D02*
X007103Y003619D01*
X007122Y003623D01*
X007140Y003629D01*
X007156Y003639D01*
X007171Y003651D01*
X007183Y003665D01*
X007193Y003682D01*
X007199Y003699D01*
X007203Y003718D01*
X007203Y004309D01*
X007199Y004328D01*
X007193Y004345D01*
X007183Y004362D01*
X007171Y004376D01*
X007156Y004388D01*
X007140Y004398D01*
X007122Y004404D01*
X007103Y004408D01*
X007084Y004408D01*
X008735Y004115D02*
X008735Y004005D01*
X008735Y004115D02*
X008845Y004115D01*
X010205Y004115D02*
X010315Y004115D01*
X010315Y004005D01*
X010315Y002645D02*
X010315Y002535D01*
X010205Y002535D01*
X008845Y002535D02*
X008735Y002535D01*
X008735Y002645D01*
D13*
X008640Y002439D03*
D14*
X007596Y001474D02*
X007596Y001238D01*
X007340Y000844D02*
X005214Y000844D01*
X004958Y001238D02*
X004958Y001474D01*
X005687Y001868D02*
X006277Y001868D01*
X011258Y001474D02*
X011258Y001238D01*
X011514Y000844D02*
X013640Y000844D01*
X013895Y001238D02*
X013895Y001474D01*
X012577Y001868D02*
X011986Y001868D01*
M02*
