G75*
%MOIN*%
%OFA0B0*%
%FSLAX25Y25*%
%IPPOS*%
%LPD*%
%AMOC8*
5,1,8,0,0,1.08239X$1,22.5*
%
%ADD10C,0.00000*%
D10*
X0013561Y0001750D02*
X0013561Y0009624D01*
X0016514Y0009624D01*
X0018482Y0014545D01*
X0030293Y0014545D01*
X0032262Y0009624D01*
X0035215Y0009624D01*
X0035215Y0001750D01*
X0050963Y0001750D01*
X0052931Y0007656D01*
X0071632Y0007656D01*
X0073600Y0001750D01*
X0114939Y0001750D01*
X0116907Y0007656D01*
X0134624Y0007656D01*
X0136593Y0001750D01*
X0139545Y0001750D01*
X0139830Y0001753D01*
X0140116Y0001764D01*
X0140401Y0001781D01*
X0140685Y0001805D01*
X0140969Y0001836D01*
X0141252Y0001874D01*
X0141533Y0001919D01*
X0141814Y0001970D01*
X0142094Y0002028D01*
X0142372Y0002093D01*
X0142648Y0002165D01*
X0142922Y0002243D01*
X0143195Y0002328D01*
X0143465Y0002420D01*
X0143733Y0002518D01*
X0143999Y0002622D01*
X0144262Y0002733D01*
X0144522Y0002850D01*
X0144780Y0002973D01*
X0145034Y0003103D01*
X0145285Y0003239D01*
X0145533Y0003380D01*
X0145777Y0003528D01*
X0146018Y0003681D01*
X0146254Y0003841D01*
X0146487Y0004006D01*
X0146716Y0004176D01*
X0146941Y0004352D01*
X0147161Y0004534D01*
X0147377Y0004720D01*
X0147588Y0004912D01*
X0147795Y0005109D01*
X0147997Y0005311D01*
X0148194Y0005518D01*
X0148386Y0005729D01*
X0148572Y0005945D01*
X0148754Y0006165D01*
X0148930Y0006390D01*
X0149100Y0006619D01*
X0149265Y0006852D01*
X0149425Y0007088D01*
X0149578Y0007329D01*
X0149726Y0007573D01*
X0149867Y0007821D01*
X0150003Y0008072D01*
X0150133Y0008326D01*
X0150256Y0008584D01*
X0150373Y0008844D01*
X0150484Y0009107D01*
X0150588Y0009373D01*
X0150686Y0009641D01*
X0150778Y0009911D01*
X0150863Y0010184D01*
X0150941Y0010458D01*
X0151013Y0010734D01*
X0151078Y0011012D01*
X0151136Y0011292D01*
X0151187Y0011573D01*
X0151232Y0011854D01*
X0151270Y0012137D01*
X0151301Y0012421D01*
X0151325Y0012705D01*
X0151342Y0012990D01*
X0151353Y0013276D01*
X0151356Y0013561D01*
X0151356Y0076553D01*
X0151353Y0076838D01*
X0151342Y0077124D01*
X0151325Y0077409D01*
X0151301Y0077693D01*
X0151270Y0077977D01*
X0151232Y0078260D01*
X0151187Y0078541D01*
X0151136Y0078822D01*
X0151078Y0079102D01*
X0151013Y0079380D01*
X0150941Y0079656D01*
X0150863Y0079930D01*
X0150778Y0080203D01*
X0150686Y0080473D01*
X0150588Y0080741D01*
X0150484Y0081007D01*
X0150373Y0081270D01*
X0150256Y0081530D01*
X0150133Y0081788D01*
X0150003Y0082042D01*
X0149867Y0082293D01*
X0149726Y0082541D01*
X0149578Y0082785D01*
X0149425Y0083026D01*
X0149265Y0083262D01*
X0149100Y0083495D01*
X0148930Y0083724D01*
X0148754Y0083949D01*
X0148572Y0084169D01*
X0148386Y0084385D01*
X0148194Y0084596D01*
X0147997Y0084803D01*
X0147795Y0085005D01*
X0147588Y0085202D01*
X0147377Y0085394D01*
X0147161Y0085580D01*
X0146941Y0085762D01*
X0146716Y0085938D01*
X0146487Y0086108D01*
X0146254Y0086273D01*
X0146018Y0086433D01*
X0145777Y0086586D01*
X0145533Y0086734D01*
X0145285Y0086875D01*
X0145034Y0087011D01*
X0144780Y0087141D01*
X0144522Y0087264D01*
X0144262Y0087381D01*
X0143999Y0087492D01*
X0143733Y0087596D01*
X0143465Y0087694D01*
X0143195Y0087786D01*
X0142922Y0087871D01*
X0142648Y0087949D01*
X0142372Y0088021D01*
X0142094Y0088086D01*
X0141814Y0088144D01*
X0141533Y0088195D01*
X0141252Y0088240D01*
X0140969Y0088278D01*
X0140685Y0088309D01*
X0140401Y0088333D01*
X0140116Y0088350D01*
X0139830Y0088361D01*
X0139545Y0088364D01*
X0013561Y0088364D01*
X0013276Y0088361D01*
X0012990Y0088350D01*
X0012705Y0088333D01*
X0012421Y0088309D01*
X0012137Y0088278D01*
X0011854Y0088240D01*
X0011573Y0088195D01*
X0011292Y0088144D01*
X0011012Y0088086D01*
X0010734Y0088021D01*
X0010458Y0087949D01*
X0010184Y0087871D01*
X0009911Y0087786D01*
X0009641Y0087694D01*
X0009373Y0087596D01*
X0009107Y0087492D01*
X0008844Y0087381D01*
X0008584Y0087264D01*
X0008326Y0087141D01*
X0008072Y0087011D01*
X0007821Y0086875D01*
X0007573Y0086734D01*
X0007329Y0086586D01*
X0007088Y0086433D01*
X0006852Y0086273D01*
X0006619Y0086108D01*
X0006390Y0085938D01*
X0006165Y0085762D01*
X0005945Y0085580D01*
X0005729Y0085394D01*
X0005518Y0085202D01*
X0005311Y0085005D01*
X0005109Y0084803D01*
X0004912Y0084596D01*
X0004720Y0084385D01*
X0004534Y0084169D01*
X0004352Y0083949D01*
X0004176Y0083724D01*
X0004006Y0083495D01*
X0003841Y0083262D01*
X0003681Y0083026D01*
X0003528Y0082785D01*
X0003380Y0082541D01*
X0003239Y0082293D01*
X0003103Y0082042D01*
X0002973Y0081788D01*
X0002850Y0081530D01*
X0002733Y0081270D01*
X0002622Y0081007D01*
X0002518Y0080741D01*
X0002420Y0080473D01*
X0002328Y0080203D01*
X0002243Y0079930D01*
X0002165Y0079656D01*
X0002093Y0079380D01*
X0002028Y0079102D01*
X0001970Y0078822D01*
X0001919Y0078541D01*
X0001874Y0078260D01*
X0001836Y0077977D01*
X0001805Y0077693D01*
X0001781Y0077409D01*
X0001764Y0077124D01*
X0001753Y0076838D01*
X0001750Y0076553D01*
X0001750Y0013561D01*
X0001753Y0013276D01*
X0001764Y0012990D01*
X0001781Y0012705D01*
X0001805Y0012421D01*
X0001836Y0012137D01*
X0001874Y0011854D01*
X0001919Y0011573D01*
X0001970Y0011292D01*
X0002028Y0011012D01*
X0002093Y0010734D01*
X0002165Y0010458D01*
X0002243Y0010184D01*
X0002328Y0009911D01*
X0002420Y0009641D01*
X0002518Y0009373D01*
X0002622Y0009107D01*
X0002733Y0008844D01*
X0002850Y0008584D01*
X0002973Y0008326D01*
X0003103Y0008072D01*
X0003239Y0007821D01*
X0003380Y0007573D01*
X0003528Y0007329D01*
X0003681Y0007088D01*
X0003841Y0006852D01*
X0004006Y0006619D01*
X0004176Y0006390D01*
X0004352Y0006165D01*
X0004534Y0005945D01*
X0004720Y0005729D01*
X0004912Y0005518D01*
X0005109Y0005311D01*
X0005311Y0005109D01*
X0005518Y0004912D01*
X0005729Y0004720D01*
X0005945Y0004534D01*
X0006165Y0004352D01*
X0006390Y0004176D01*
X0006619Y0004006D01*
X0006852Y0003841D01*
X0007088Y0003681D01*
X0007329Y0003528D01*
X0007573Y0003380D01*
X0007821Y0003239D01*
X0008072Y0003103D01*
X0008326Y0002973D01*
X0008584Y0002850D01*
X0008844Y0002733D01*
X0009107Y0002622D01*
X0009373Y0002518D01*
X0009641Y0002420D01*
X0009911Y0002328D01*
X0010184Y0002243D01*
X0010458Y0002165D01*
X0010734Y0002093D01*
X0011012Y0002028D01*
X0011292Y0001970D01*
X0011573Y0001919D01*
X0011854Y0001874D01*
X0012137Y0001836D01*
X0012421Y0001805D01*
X0012705Y0001781D01*
X0012990Y0001764D01*
X0013276Y0001753D01*
X0013561Y0001750D01*
X0055096Y0013561D02*
X0055098Y0013645D01*
X0055104Y0013728D01*
X0055114Y0013811D01*
X0055128Y0013894D01*
X0055145Y0013976D01*
X0055167Y0014057D01*
X0055192Y0014136D01*
X0055221Y0014215D01*
X0055254Y0014292D01*
X0055290Y0014367D01*
X0055330Y0014441D01*
X0055373Y0014513D01*
X0055420Y0014582D01*
X0055470Y0014649D01*
X0055523Y0014714D01*
X0055579Y0014776D01*
X0055637Y0014836D01*
X0055699Y0014893D01*
X0055763Y0014946D01*
X0055830Y0014997D01*
X0055899Y0015044D01*
X0055970Y0015089D01*
X0056043Y0015129D01*
X0056118Y0015166D01*
X0056195Y0015200D01*
X0056273Y0015230D01*
X0056352Y0015256D01*
X0056433Y0015279D01*
X0056515Y0015297D01*
X0056597Y0015312D01*
X0056680Y0015323D01*
X0056763Y0015330D01*
X0056847Y0015333D01*
X0056931Y0015332D01*
X0057014Y0015327D01*
X0057098Y0015318D01*
X0057180Y0015305D01*
X0057262Y0015289D01*
X0057343Y0015268D01*
X0057424Y0015244D01*
X0057502Y0015216D01*
X0057580Y0015184D01*
X0057656Y0015148D01*
X0057730Y0015109D01*
X0057802Y0015067D01*
X0057872Y0015021D01*
X0057940Y0014972D01*
X0058005Y0014920D01*
X0058068Y0014865D01*
X0058128Y0014807D01*
X0058186Y0014746D01*
X0058240Y0014682D01*
X0058292Y0014616D01*
X0058340Y0014548D01*
X0058385Y0014477D01*
X0058426Y0014404D01*
X0058465Y0014330D01*
X0058499Y0014254D01*
X0058530Y0014176D01*
X0058557Y0014097D01*
X0058581Y0014016D01*
X0058600Y0013935D01*
X0058616Y0013853D01*
X0058628Y0013770D01*
X0058636Y0013686D01*
X0058640Y0013603D01*
X0058640Y0013519D01*
X0058636Y0013436D01*
X0058628Y0013352D01*
X0058616Y0013269D01*
X0058600Y0013187D01*
X0058581Y0013106D01*
X0058557Y0013025D01*
X0058530Y0012946D01*
X0058499Y0012868D01*
X0058465Y0012792D01*
X0058426Y0012718D01*
X0058385Y0012645D01*
X0058340Y0012574D01*
X0058292Y0012506D01*
X0058240Y0012440D01*
X0058186Y0012376D01*
X0058128Y0012315D01*
X0058068Y0012257D01*
X0058005Y0012202D01*
X0057940Y0012150D01*
X0057872Y0012101D01*
X0057802Y0012055D01*
X0057730Y0012013D01*
X0057656Y0011974D01*
X0057580Y0011938D01*
X0057502Y0011906D01*
X0057424Y0011878D01*
X0057343Y0011854D01*
X0057262Y0011833D01*
X0057180Y0011817D01*
X0057098Y0011804D01*
X0057014Y0011795D01*
X0056931Y0011790D01*
X0056847Y0011789D01*
X0056763Y0011792D01*
X0056680Y0011799D01*
X0056597Y0011810D01*
X0056515Y0011825D01*
X0056433Y0011843D01*
X0056352Y0011866D01*
X0056273Y0011892D01*
X0056195Y0011922D01*
X0056118Y0011956D01*
X0056043Y0011993D01*
X0055970Y0012033D01*
X0055899Y0012078D01*
X0055830Y0012125D01*
X0055763Y0012176D01*
X0055699Y0012229D01*
X0055637Y0012286D01*
X0055579Y0012346D01*
X0055523Y0012408D01*
X0055470Y0012473D01*
X0055420Y0012540D01*
X0055373Y0012609D01*
X0055330Y0012681D01*
X0055290Y0012755D01*
X0055254Y0012830D01*
X0055221Y0012907D01*
X0055192Y0012986D01*
X0055167Y0013065D01*
X0055145Y0013146D01*
X0055128Y0013228D01*
X0055114Y0013311D01*
X0055104Y0013394D01*
X0055098Y0013477D01*
X0055096Y0013561D01*
X0066907Y0013561D02*
X0066909Y0013645D01*
X0066915Y0013728D01*
X0066925Y0013811D01*
X0066939Y0013894D01*
X0066956Y0013976D01*
X0066978Y0014057D01*
X0067003Y0014136D01*
X0067032Y0014215D01*
X0067065Y0014292D01*
X0067101Y0014367D01*
X0067141Y0014441D01*
X0067184Y0014513D01*
X0067231Y0014582D01*
X0067281Y0014649D01*
X0067334Y0014714D01*
X0067390Y0014776D01*
X0067448Y0014836D01*
X0067510Y0014893D01*
X0067574Y0014946D01*
X0067641Y0014997D01*
X0067710Y0015044D01*
X0067781Y0015089D01*
X0067854Y0015129D01*
X0067929Y0015166D01*
X0068006Y0015200D01*
X0068084Y0015230D01*
X0068163Y0015256D01*
X0068244Y0015279D01*
X0068326Y0015297D01*
X0068408Y0015312D01*
X0068491Y0015323D01*
X0068574Y0015330D01*
X0068658Y0015333D01*
X0068742Y0015332D01*
X0068825Y0015327D01*
X0068909Y0015318D01*
X0068991Y0015305D01*
X0069073Y0015289D01*
X0069154Y0015268D01*
X0069235Y0015244D01*
X0069313Y0015216D01*
X0069391Y0015184D01*
X0069467Y0015148D01*
X0069541Y0015109D01*
X0069613Y0015067D01*
X0069683Y0015021D01*
X0069751Y0014972D01*
X0069816Y0014920D01*
X0069879Y0014865D01*
X0069939Y0014807D01*
X0069997Y0014746D01*
X0070051Y0014682D01*
X0070103Y0014616D01*
X0070151Y0014548D01*
X0070196Y0014477D01*
X0070237Y0014404D01*
X0070276Y0014330D01*
X0070310Y0014254D01*
X0070341Y0014176D01*
X0070368Y0014097D01*
X0070392Y0014016D01*
X0070411Y0013935D01*
X0070427Y0013853D01*
X0070439Y0013770D01*
X0070447Y0013686D01*
X0070451Y0013603D01*
X0070451Y0013519D01*
X0070447Y0013436D01*
X0070439Y0013352D01*
X0070427Y0013269D01*
X0070411Y0013187D01*
X0070392Y0013106D01*
X0070368Y0013025D01*
X0070341Y0012946D01*
X0070310Y0012868D01*
X0070276Y0012792D01*
X0070237Y0012718D01*
X0070196Y0012645D01*
X0070151Y0012574D01*
X0070103Y0012506D01*
X0070051Y0012440D01*
X0069997Y0012376D01*
X0069939Y0012315D01*
X0069879Y0012257D01*
X0069816Y0012202D01*
X0069751Y0012150D01*
X0069683Y0012101D01*
X0069613Y0012055D01*
X0069541Y0012013D01*
X0069467Y0011974D01*
X0069391Y0011938D01*
X0069313Y0011906D01*
X0069235Y0011878D01*
X0069154Y0011854D01*
X0069073Y0011833D01*
X0068991Y0011817D01*
X0068909Y0011804D01*
X0068825Y0011795D01*
X0068742Y0011790D01*
X0068658Y0011789D01*
X0068574Y0011792D01*
X0068491Y0011799D01*
X0068408Y0011810D01*
X0068326Y0011825D01*
X0068244Y0011843D01*
X0068163Y0011866D01*
X0068084Y0011892D01*
X0068006Y0011922D01*
X0067929Y0011956D01*
X0067854Y0011993D01*
X0067781Y0012033D01*
X0067710Y0012078D01*
X0067641Y0012125D01*
X0067574Y0012176D01*
X0067510Y0012229D01*
X0067448Y0012286D01*
X0067390Y0012346D01*
X0067334Y0012408D01*
X0067281Y0012473D01*
X0067231Y0012540D01*
X0067184Y0012609D01*
X0067141Y0012681D01*
X0067101Y0012755D01*
X0067065Y0012830D01*
X0067032Y0012907D01*
X0067003Y0012986D01*
X0066978Y0013065D01*
X0066956Y0013146D01*
X0066939Y0013228D01*
X0066925Y0013311D01*
X0066915Y0013394D01*
X0066909Y0013477D01*
X0066907Y0013561D01*
X0118088Y0013561D02*
X0118090Y0013645D01*
X0118096Y0013728D01*
X0118106Y0013811D01*
X0118120Y0013894D01*
X0118137Y0013976D01*
X0118159Y0014057D01*
X0118184Y0014136D01*
X0118213Y0014215D01*
X0118246Y0014292D01*
X0118282Y0014367D01*
X0118322Y0014441D01*
X0118365Y0014513D01*
X0118412Y0014582D01*
X0118462Y0014649D01*
X0118515Y0014714D01*
X0118571Y0014776D01*
X0118629Y0014836D01*
X0118691Y0014893D01*
X0118755Y0014946D01*
X0118822Y0014997D01*
X0118891Y0015044D01*
X0118962Y0015089D01*
X0119035Y0015129D01*
X0119110Y0015166D01*
X0119187Y0015200D01*
X0119265Y0015230D01*
X0119344Y0015256D01*
X0119425Y0015279D01*
X0119507Y0015297D01*
X0119589Y0015312D01*
X0119672Y0015323D01*
X0119755Y0015330D01*
X0119839Y0015333D01*
X0119923Y0015332D01*
X0120006Y0015327D01*
X0120090Y0015318D01*
X0120172Y0015305D01*
X0120254Y0015289D01*
X0120335Y0015268D01*
X0120416Y0015244D01*
X0120494Y0015216D01*
X0120572Y0015184D01*
X0120648Y0015148D01*
X0120722Y0015109D01*
X0120794Y0015067D01*
X0120864Y0015021D01*
X0120932Y0014972D01*
X0120997Y0014920D01*
X0121060Y0014865D01*
X0121120Y0014807D01*
X0121178Y0014746D01*
X0121232Y0014682D01*
X0121284Y0014616D01*
X0121332Y0014548D01*
X0121377Y0014477D01*
X0121418Y0014404D01*
X0121457Y0014330D01*
X0121491Y0014254D01*
X0121522Y0014176D01*
X0121549Y0014097D01*
X0121573Y0014016D01*
X0121592Y0013935D01*
X0121608Y0013853D01*
X0121620Y0013770D01*
X0121628Y0013686D01*
X0121632Y0013603D01*
X0121632Y0013519D01*
X0121628Y0013436D01*
X0121620Y0013352D01*
X0121608Y0013269D01*
X0121592Y0013187D01*
X0121573Y0013106D01*
X0121549Y0013025D01*
X0121522Y0012946D01*
X0121491Y0012868D01*
X0121457Y0012792D01*
X0121418Y0012718D01*
X0121377Y0012645D01*
X0121332Y0012574D01*
X0121284Y0012506D01*
X0121232Y0012440D01*
X0121178Y0012376D01*
X0121120Y0012315D01*
X0121060Y0012257D01*
X0120997Y0012202D01*
X0120932Y0012150D01*
X0120864Y0012101D01*
X0120794Y0012055D01*
X0120722Y0012013D01*
X0120648Y0011974D01*
X0120572Y0011938D01*
X0120494Y0011906D01*
X0120416Y0011878D01*
X0120335Y0011854D01*
X0120254Y0011833D01*
X0120172Y0011817D01*
X0120090Y0011804D01*
X0120006Y0011795D01*
X0119923Y0011790D01*
X0119839Y0011789D01*
X0119755Y0011792D01*
X0119672Y0011799D01*
X0119589Y0011810D01*
X0119507Y0011825D01*
X0119425Y0011843D01*
X0119344Y0011866D01*
X0119265Y0011892D01*
X0119187Y0011922D01*
X0119110Y0011956D01*
X0119035Y0011993D01*
X0118962Y0012033D01*
X0118891Y0012078D01*
X0118822Y0012125D01*
X0118755Y0012176D01*
X0118691Y0012229D01*
X0118629Y0012286D01*
X0118571Y0012346D01*
X0118515Y0012408D01*
X0118462Y0012473D01*
X0118412Y0012540D01*
X0118365Y0012609D01*
X0118322Y0012681D01*
X0118282Y0012755D01*
X0118246Y0012830D01*
X0118213Y0012907D01*
X0118184Y0012986D01*
X0118159Y0013065D01*
X0118137Y0013146D01*
X0118120Y0013228D01*
X0118106Y0013311D01*
X0118096Y0013394D01*
X0118090Y0013477D01*
X0118088Y0013561D01*
X0129899Y0013561D02*
X0129901Y0013645D01*
X0129907Y0013728D01*
X0129917Y0013811D01*
X0129931Y0013894D01*
X0129948Y0013976D01*
X0129970Y0014057D01*
X0129995Y0014136D01*
X0130024Y0014215D01*
X0130057Y0014292D01*
X0130093Y0014367D01*
X0130133Y0014441D01*
X0130176Y0014513D01*
X0130223Y0014582D01*
X0130273Y0014649D01*
X0130326Y0014714D01*
X0130382Y0014776D01*
X0130440Y0014836D01*
X0130502Y0014893D01*
X0130566Y0014946D01*
X0130633Y0014997D01*
X0130702Y0015044D01*
X0130773Y0015089D01*
X0130846Y0015129D01*
X0130921Y0015166D01*
X0130998Y0015200D01*
X0131076Y0015230D01*
X0131155Y0015256D01*
X0131236Y0015279D01*
X0131318Y0015297D01*
X0131400Y0015312D01*
X0131483Y0015323D01*
X0131566Y0015330D01*
X0131650Y0015333D01*
X0131734Y0015332D01*
X0131817Y0015327D01*
X0131901Y0015318D01*
X0131983Y0015305D01*
X0132065Y0015289D01*
X0132146Y0015268D01*
X0132227Y0015244D01*
X0132305Y0015216D01*
X0132383Y0015184D01*
X0132459Y0015148D01*
X0132533Y0015109D01*
X0132605Y0015067D01*
X0132675Y0015021D01*
X0132743Y0014972D01*
X0132808Y0014920D01*
X0132871Y0014865D01*
X0132931Y0014807D01*
X0132989Y0014746D01*
X0133043Y0014682D01*
X0133095Y0014616D01*
X0133143Y0014548D01*
X0133188Y0014477D01*
X0133229Y0014404D01*
X0133268Y0014330D01*
X0133302Y0014254D01*
X0133333Y0014176D01*
X0133360Y0014097D01*
X0133384Y0014016D01*
X0133403Y0013935D01*
X0133419Y0013853D01*
X0133431Y0013770D01*
X0133439Y0013686D01*
X0133443Y0013603D01*
X0133443Y0013519D01*
X0133439Y0013436D01*
X0133431Y0013352D01*
X0133419Y0013269D01*
X0133403Y0013187D01*
X0133384Y0013106D01*
X0133360Y0013025D01*
X0133333Y0012946D01*
X0133302Y0012868D01*
X0133268Y0012792D01*
X0133229Y0012718D01*
X0133188Y0012645D01*
X0133143Y0012574D01*
X0133095Y0012506D01*
X0133043Y0012440D01*
X0132989Y0012376D01*
X0132931Y0012315D01*
X0132871Y0012257D01*
X0132808Y0012202D01*
X0132743Y0012150D01*
X0132675Y0012101D01*
X0132605Y0012055D01*
X0132533Y0012013D01*
X0132459Y0011974D01*
X0132383Y0011938D01*
X0132305Y0011906D01*
X0132227Y0011878D01*
X0132146Y0011854D01*
X0132065Y0011833D01*
X0131983Y0011817D01*
X0131901Y0011804D01*
X0131817Y0011795D01*
X0131734Y0011790D01*
X0131650Y0011789D01*
X0131566Y0011792D01*
X0131483Y0011799D01*
X0131400Y0011810D01*
X0131318Y0011825D01*
X0131236Y0011843D01*
X0131155Y0011866D01*
X0131076Y0011892D01*
X0130998Y0011922D01*
X0130921Y0011956D01*
X0130846Y0011993D01*
X0130773Y0012033D01*
X0130702Y0012078D01*
X0130633Y0012125D01*
X0130566Y0012176D01*
X0130502Y0012229D01*
X0130440Y0012286D01*
X0130382Y0012346D01*
X0130326Y0012408D01*
X0130273Y0012473D01*
X0130223Y0012540D01*
X0130176Y0012609D01*
X0130133Y0012681D01*
X0130093Y0012755D01*
X0130057Y0012830D01*
X0130024Y0012907D01*
X0129995Y0012986D01*
X0129970Y0013065D01*
X0129948Y0013146D01*
X0129931Y0013228D01*
X0129917Y0013311D01*
X0129907Y0013394D01*
X0129901Y0013477D01*
X0129899Y0013561D01*
X0021947Y0050994D02*
X0021949Y0051093D01*
X0021955Y0051193D01*
X0021965Y0051292D01*
X0021979Y0051390D01*
X0021996Y0051488D01*
X0022018Y0051585D01*
X0022043Y0051681D01*
X0022072Y0051776D01*
X0022105Y0051870D01*
X0022142Y0051962D01*
X0022182Y0052053D01*
X0022226Y0052142D01*
X0022274Y0052230D01*
X0022325Y0052315D01*
X0022379Y0052398D01*
X0022436Y0052480D01*
X0022497Y0052558D01*
X0022561Y0052635D01*
X0022627Y0052708D01*
X0022697Y0052779D01*
X0022769Y0052847D01*
X0022844Y0052913D01*
X0022922Y0052975D01*
X0023002Y0053034D01*
X0023084Y0053090D01*
X0023168Y0053142D01*
X0023255Y0053191D01*
X0023343Y0053237D01*
X0023433Y0053279D01*
X0023525Y0053318D01*
X0023618Y0053353D01*
X0023712Y0053384D01*
X0023808Y0053411D01*
X0023905Y0053434D01*
X0024002Y0053454D01*
X0024100Y0053470D01*
X0024199Y0053482D01*
X0024298Y0053490D01*
X0024397Y0053494D01*
X0024497Y0053494D01*
X0024596Y0053490D01*
X0024695Y0053482D01*
X0024794Y0053470D01*
X0024892Y0053454D01*
X0024989Y0053434D01*
X0025086Y0053411D01*
X0025182Y0053384D01*
X0025276Y0053353D01*
X0025369Y0053318D01*
X0025461Y0053279D01*
X0025551Y0053237D01*
X0025639Y0053191D01*
X0025726Y0053142D01*
X0025810Y0053090D01*
X0025892Y0053034D01*
X0025972Y0052975D01*
X0026050Y0052913D01*
X0026125Y0052847D01*
X0026197Y0052779D01*
X0026267Y0052708D01*
X0026333Y0052635D01*
X0026397Y0052558D01*
X0026458Y0052480D01*
X0026515Y0052398D01*
X0026569Y0052315D01*
X0026620Y0052230D01*
X0026668Y0052142D01*
X0026712Y0052053D01*
X0026752Y0051962D01*
X0026789Y0051870D01*
X0026822Y0051776D01*
X0026851Y0051681D01*
X0026876Y0051585D01*
X0026898Y0051488D01*
X0026915Y0051390D01*
X0026929Y0051292D01*
X0026939Y0051193D01*
X0026945Y0051093D01*
X0026947Y0050994D01*
X0026945Y0050895D01*
X0026939Y0050795D01*
X0026929Y0050696D01*
X0026915Y0050598D01*
X0026898Y0050500D01*
X0026876Y0050403D01*
X0026851Y0050307D01*
X0026822Y0050212D01*
X0026789Y0050118D01*
X0026752Y0050026D01*
X0026712Y0049935D01*
X0026668Y0049846D01*
X0026620Y0049758D01*
X0026569Y0049673D01*
X0026515Y0049590D01*
X0026458Y0049508D01*
X0026397Y0049430D01*
X0026333Y0049353D01*
X0026267Y0049280D01*
X0026197Y0049209D01*
X0026125Y0049141D01*
X0026050Y0049075D01*
X0025972Y0049013D01*
X0025892Y0048954D01*
X0025810Y0048898D01*
X0025726Y0048846D01*
X0025639Y0048797D01*
X0025551Y0048751D01*
X0025461Y0048709D01*
X0025369Y0048670D01*
X0025276Y0048635D01*
X0025182Y0048604D01*
X0025086Y0048577D01*
X0024989Y0048554D01*
X0024892Y0048534D01*
X0024794Y0048518D01*
X0024695Y0048506D01*
X0024596Y0048498D01*
X0024497Y0048494D01*
X0024397Y0048494D01*
X0024298Y0048498D01*
X0024199Y0048506D01*
X0024100Y0048518D01*
X0024002Y0048534D01*
X0023905Y0048554D01*
X0023808Y0048577D01*
X0023712Y0048604D01*
X0023618Y0048635D01*
X0023525Y0048670D01*
X0023433Y0048709D01*
X0023343Y0048751D01*
X0023255Y0048797D01*
X0023168Y0048846D01*
X0023084Y0048898D01*
X0023002Y0048954D01*
X0022922Y0049013D01*
X0022844Y0049075D01*
X0022769Y0049141D01*
X0022697Y0049209D01*
X0022627Y0049280D01*
X0022561Y0049353D01*
X0022497Y0049430D01*
X0022436Y0049508D01*
X0022379Y0049590D01*
X0022325Y0049673D01*
X0022274Y0049758D01*
X0022226Y0049846D01*
X0022182Y0049935D01*
X0022142Y0050026D01*
X0022105Y0050118D01*
X0022072Y0050212D01*
X0022043Y0050307D01*
X0022018Y0050403D01*
X0021996Y0050500D01*
X0021979Y0050598D01*
X0021965Y0050696D01*
X0021955Y0050795D01*
X0021949Y0050895D01*
X0021947Y0050994D01*
M02*
