%
M48
M72
T01C0.01200
T02C0.03543
T03C0.05000
%
T01
X92301Y75569
X84427Y75569
X102144Y66711
X8640Y83443
X140530Y83443
X142498Y65726
X86396Y83443
X16514Y19467
X74585Y21435
X70648Y30293
X53915Y69663
X60805Y74585
X68679Y74585
X76553Y75569
X123797Y36199
X97222Y19467
X85411Y14545
X40136Y15530
X93285Y35215
X97222Y35215
X97222Y31278
X93285Y31278
X68679Y68679
X53915Y62774
X60805Y68679
X91317Y68679
X84427Y68679
X79506Y79506
X76553Y68679
X82459Y51947
X125766Y42104
X109033Y65726
X73600Y49978
X65726Y51947
X72616Y64742
X95254Y49486
X86396Y44073
X104112Y24388
X111002Y22419
X130687Y77537
X32262Y71632
X70648Y83443
X80490Y72616
X66711Y78522
X48502Y74585
X133640Y71632
X126258Y52439
X79506Y21435
X48010Y22419
X20451Y36199
X85904Y25864
X47518Y35215
X77537Y31278
X57360Y38167
X47026Y39152
X81474Y28325
X80490Y44073
X98207Y51947
X100175Y15530
X60805Y20451
T02
X131671Y13561
X119860Y13561
X68679Y13561
X56868Y13561
T03
X52927Y45057
X132927Y45057
X24447Y50994
M30
