G75*
%MOIN*%
%OFA0B0*%
%FSLAX25Y25*%
%IPPOS*%
%LPD*%
%AMOC8*
5,1,8,0,0,1.08239X$1,22.5*
%
%ADD10C,0.00200*%
%ADD11C,0.00300*%
%ADD12C,0.00500*%
%ADD13C,0.00600*%
%ADD14R,0.05906X0.05906*%
%ADD15C,0.00800*%
%ADD16C,0.00400*%
D10*
X0012061Y0072403D02*
X0011700Y0072764D01*
X0012061Y0072403D02*
X0012782Y0072403D01*
X0013143Y0072764D01*
X0013143Y0073124D01*
X0012782Y0073485D01*
X0012061Y0073485D01*
X0011700Y0073846D01*
X0011700Y0074207D01*
X0012061Y0074567D01*
X0012782Y0074567D01*
X0013143Y0074207D01*
X0013875Y0074567D02*
X0015318Y0074567D01*
X0014596Y0074567D02*
X0014596Y0072403D01*
X0016050Y0072403D02*
X0017493Y0072403D01*
X0018225Y0072403D02*
X0018225Y0074567D01*
X0019307Y0074567D01*
X0019668Y0074207D01*
X0019668Y0073485D01*
X0019307Y0073124D01*
X0018225Y0073124D01*
X0018946Y0073124D02*
X0019668Y0072403D01*
X0020400Y0072403D02*
X0021843Y0072403D01*
X0022575Y0072764D02*
X0022936Y0072403D01*
X0023657Y0072403D01*
X0024018Y0072764D01*
X0024018Y0074207D01*
X0023657Y0074567D01*
X0022936Y0074567D01*
X0022575Y0074207D01*
X0022575Y0072764D01*
X0021122Y0073485D02*
X0020400Y0073485D01*
X0020400Y0074567D02*
X0020400Y0072403D01*
X0020400Y0074567D02*
X0021843Y0074567D01*
X0017493Y0074567D02*
X0016050Y0074567D01*
X0016050Y0072403D01*
X0016050Y0073485D02*
X0016771Y0073485D01*
X0016457Y0080277D02*
X0015375Y0080277D01*
X0015375Y0082441D01*
X0016457Y0082441D01*
X0016818Y0082081D01*
X0016818Y0080638D01*
X0016457Y0080277D01*
X0014642Y0080277D02*
X0014642Y0082441D01*
X0013200Y0082441D02*
X0014642Y0080277D01*
X0013200Y0080277D02*
X0013200Y0082441D01*
X0012467Y0082081D02*
X0012107Y0082441D01*
X0011385Y0082441D01*
X0011025Y0082081D01*
X0011025Y0080638D01*
X0011385Y0080277D01*
X0012107Y0080277D01*
X0012467Y0080638D01*
X0012467Y0081359D01*
X0011746Y0081359D01*
X0021387Y0080277D02*
X0022469Y0080277D01*
X0022830Y0080638D01*
X0022830Y0082081D01*
X0022469Y0082441D01*
X0021387Y0082441D01*
X0021387Y0080277D01*
X0023562Y0080277D02*
X0024284Y0080277D01*
X0023923Y0080277D02*
X0023923Y0082441D01*
X0023562Y0082441D02*
X0024284Y0082441D01*
X0025012Y0082081D02*
X0025012Y0080638D01*
X0025373Y0080277D01*
X0026094Y0080277D01*
X0026455Y0080638D01*
X0026455Y0082081D01*
X0026094Y0082441D01*
X0025373Y0082441D01*
X0025012Y0082081D01*
X0031025Y0082441D02*
X0031025Y0080277D01*
X0031025Y0080999D02*
X0032107Y0080999D01*
X0032467Y0081359D01*
X0032467Y0082081D01*
X0032107Y0082441D01*
X0031025Y0082441D01*
X0033200Y0082081D02*
X0033200Y0081720D01*
X0033560Y0081359D01*
X0034282Y0081359D01*
X0034642Y0080999D01*
X0034642Y0080638D01*
X0034282Y0080277D01*
X0033560Y0080277D01*
X0033200Y0080638D01*
X0032467Y0080277D02*
X0031746Y0080999D01*
X0033200Y0082081D02*
X0033560Y0082441D01*
X0034282Y0082441D01*
X0034642Y0082081D01*
X0035375Y0082441D02*
X0036818Y0082441D01*
X0036096Y0082441D02*
X0036096Y0080277D01*
X0041025Y0080638D02*
X0041385Y0080277D01*
X0042107Y0080277D01*
X0042467Y0080638D01*
X0043200Y0080277D02*
X0044642Y0080277D01*
X0045375Y0080277D02*
X0045375Y0082441D01*
X0045736Y0081359D02*
X0046818Y0080277D01*
X0045375Y0080999D02*
X0046818Y0082441D01*
X0043200Y0082441D02*
X0043200Y0080277D01*
X0042467Y0082081D02*
X0042107Y0082441D01*
X0041385Y0082441D01*
X0041025Y0082081D01*
X0041025Y0080638D01*
X0050481Y0080638D02*
X0050842Y0080277D01*
X0051563Y0080277D01*
X0051924Y0080638D01*
X0051924Y0080999D01*
X0051563Y0081359D01*
X0051202Y0081359D01*
X0051563Y0081359D02*
X0051924Y0081720D01*
X0051924Y0082081D01*
X0051563Y0082441D01*
X0050842Y0082441D01*
X0050481Y0082081D01*
X0052656Y0080638D02*
X0053017Y0080638D01*
X0053017Y0080277D01*
X0052656Y0080277D01*
X0052656Y0080638D01*
X0053744Y0080638D02*
X0054104Y0080277D01*
X0054826Y0080277D01*
X0055186Y0080638D01*
X0055186Y0080999D01*
X0054826Y0081359D01*
X0054465Y0081359D01*
X0054826Y0081359D02*
X0055186Y0081720D01*
X0055186Y0082081D01*
X0054826Y0082441D01*
X0054104Y0082441D01*
X0053744Y0082081D01*
X0055919Y0082441D02*
X0055919Y0080999D01*
X0056640Y0080277D01*
X0057361Y0080999D01*
X0057361Y0082441D01*
X0113470Y0083445D02*
X0114913Y0083445D01*
X0114192Y0083445D02*
X0114192Y0081281D01*
X0115646Y0081281D02*
X0117088Y0083445D01*
X0115646Y0083445D02*
X0117088Y0081281D01*
X0122644Y0081281D02*
X0122644Y0083445D01*
X0123726Y0083445D01*
X0124086Y0083084D01*
X0124086Y0082363D01*
X0123726Y0082002D01*
X0122644Y0082002D01*
X0123365Y0082002D02*
X0124086Y0081281D01*
X0124819Y0081281D02*
X0126261Y0083445D01*
X0124819Y0083445D02*
X0126261Y0081281D01*
X0132285Y0081622D02*
X0132645Y0081261D01*
X0133367Y0081261D01*
X0133727Y0081622D01*
X0133727Y0082343D01*
X0133006Y0082343D01*
X0132285Y0081622D02*
X0132285Y0083065D01*
X0132645Y0083425D01*
X0133367Y0083425D01*
X0133727Y0083065D01*
X0134460Y0083425D02*
X0135902Y0081261D01*
X0135902Y0083425D01*
X0136635Y0083425D02*
X0137717Y0083425D01*
X0138077Y0083065D01*
X0138077Y0081622D01*
X0137717Y0081261D01*
X0136635Y0081261D01*
X0136635Y0083425D01*
X0134460Y0083425D02*
X0134460Y0081261D01*
X0142914Y0070637D02*
X0143635Y0070637D01*
X0143996Y0070276D01*
X0143996Y0069194D01*
X0144717Y0069194D02*
X0142553Y0069194D01*
X0142553Y0070276D01*
X0142914Y0070637D01*
X0143996Y0069916D02*
X0144717Y0070637D01*
X0144717Y0068462D02*
X0144717Y0067019D01*
X0142553Y0067019D01*
X0142553Y0068462D01*
X0143635Y0067741D02*
X0143635Y0067019D01*
X0142914Y0066287D02*
X0144357Y0064844D01*
X0144717Y0064844D01*
X0144717Y0066287D01*
X0142914Y0066287D02*
X0142553Y0066287D01*
X0142553Y0064844D01*
X0142553Y0064112D02*
X0142914Y0064112D01*
X0144357Y0062669D01*
X0144717Y0062669D01*
X0144717Y0064112D01*
X0142553Y0064112D02*
X0142553Y0062669D01*
X0142553Y0061937D02*
X0144357Y0061937D01*
X0144717Y0061576D01*
X0144717Y0060855D01*
X0144357Y0060494D01*
X0142553Y0060494D01*
X0142914Y0059762D02*
X0143275Y0059762D01*
X0143635Y0059401D01*
X0143635Y0058319D01*
X0144717Y0058319D02*
X0142553Y0058319D01*
X0142553Y0059401D01*
X0142914Y0059762D01*
X0143635Y0059401D02*
X0143996Y0059762D01*
X0144357Y0059762D01*
X0144717Y0059401D01*
X0144717Y0058319D01*
D11*
X0121222Y0051136D02*
X0121222Y0050186D01*
X0120747Y0049710D01*
X0118846Y0051612D01*
X0120747Y0051612D01*
X0121222Y0051136D01*
X0120747Y0049710D02*
X0118846Y0049710D01*
X0118370Y0050186D01*
X0118370Y0051136D01*
X0118846Y0051612D01*
X0121222Y0048712D02*
X0121222Y0046810D01*
X0121222Y0047761D02*
X0118370Y0047761D01*
X0119321Y0046810D01*
X0118846Y0045811D02*
X0118370Y0045336D01*
X0118370Y0044385D01*
X0118846Y0043910D01*
X0120747Y0043910D01*
X0121222Y0044385D01*
X0121222Y0045336D01*
X0120747Y0045811D01*
X0107695Y0056964D02*
X0107695Y0057439D01*
X0107220Y0057915D01*
X0105794Y0057915D01*
X0105794Y0056964D01*
X0106269Y0056489D01*
X0107220Y0056489D01*
X0107695Y0056964D01*
X0106745Y0058865D02*
X0105794Y0057915D01*
X0104795Y0057915D02*
X0104795Y0058865D01*
X0104320Y0059341D01*
X0102894Y0059341D01*
X0102894Y0056489D01*
X0102894Y0057439D02*
X0104320Y0057439D01*
X0104795Y0057915D01*
X0103845Y0057439D02*
X0104795Y0056489D01*
X0106745Y0058865D02*
X0107695Y0059341D01*
X0102164Y0064877D02*
X0101689Y0064402D01*
X0100738Y0064402D01*
X0100262Y0064877D01*
X0100262Y0065828D01*
X0101689Y0065828D01*
X0102164Y0065353D01*
X0102164Y0064877D01*
X0101213Y0066779D02*
X0100262Y0065828D01*
X0101213Y0066779D02*
X0102164Y0067254D01*
X0099264Y0066779D02*
X0098788Y0067254D01*
X0097838Y0067254D01*
X0097362Y0066779D01*
X0097362Y0064877D01*
X0097838Y0064402D01*
X0098788Y0064402D01*
X0099264Y0064877D01*
X0094290Y0064877D02*
X0093815Y0064402D01*
X0092864Y0064402D01*
X0092388Y0064877D01*
X0091390Y0064877D02*
X0090914Y0064402D01*
X0089964Y0064402D01*
X0089488Y0064877D01*
X0089488Y0066779D01*
X0089964Y0067254D01*
X0090914Y0067254D01*
X0091390Y0066779D01*
X0092388Y0066779D02*
X0092864Y0067254D01*
X0093815Y0067254D01*
X0094290Y0066779D01*
X0094290Y0066303D01*
X0093815Y0065828D01*
X0094290Y0065353D01*
X0094290Y0064877D01*
X0093815Y0065828D02*
X0093339Y0065828D01*
X0086534Y0065828D02*
X0084633Y0065828D01*
X0086059Y0067254D01*
X0086059Y0064402D01*
X0084956Y0062333D02*
X0083530Y0060907D01*
X0085432Y0060907D01*
X0084956Y0059481D02*
X0084956Y0062333D01*
X0082531Y0061857D02*
X0082531Y0060907D01*
X0082056Y0060431D01*
X0080630Y0060431D01*
X0080630Y0059481D02*
X0080630Y0062333D01*
X0082056Y0062333D01*
X0082531Y0061857D01*
X0081581Y0060431D02*
X0082531Y0059481D01*
X0082208Y0064402D02*
X0083158Y0064402D01*
X0083634Y0064877D01*
X0082208Y0064402D02*
X0081732Y0064877D01*
X0081732Y0066779D01*
X0082208Y0067254D01*
X0083158Y0067254D01*
X0083634Y0066779D01*
X0078542Y0067254D02*
X0076640Y0067254D01*
X0076640Y0065828D01*
X0077591Y0066303D01*
X0078066Y0066303D01*
X0078542Y0065828D01*
X0078542Y0064877D01*
X0078066Y0064402D01*
X0077116Y0064402D01*
X0076640Y0064877D01*
X0075642Y0064877D02*
X0075166Y0064402D01*
X0074216Y0064402D01*
X0073740Y0064877D01*
X0073740Y0066779D01*
X0074216Y0067254D01*
X0075166Y0067254D01*
X0075642Y0066779D01*
X0070668Y0066779D02*
X0070668Y0066303D01*
X0070192Y0065828D01*
X0070668Y0065353D01*
X0070668Y0064877D01*
X0070192Y0064402D01*
X0069242Y0064402D01*
X0068766Y0064877D01*
X0067768Y0064402D02*
X0066817Y0065353D01*
X0067292Y0065353D02*
X0065866Y0065353D01*
X0065866Y0064402D02*
X0065866Y0067254D01*
X0067292Y0067254D01*
X0067768Y0066779D01*
X0067768Y0065828D01*
X0067292Y0065353D01*
X0068766Y0066779D02*
X0069242Y0067254D01*
X0070192Y0067254D01*
X0070668Y0066779D01*
X0070192Y0065828D02*
X0069717Y0065828D01*
X0069191Y0062333D02*
X0067290Y0062333D01*
X0067290Y0060907D01*
X0068241Y0061382D01*
X0068716Y0061382D01*
X0069191Y0060907D01*
X0069191Y0059956D01*
X0068716Y0059481D01*
X0067765Y0059481D01*
X0067290Y0059956D01*
X0066291Y0059481D02*
X0065341Y0060431D01*
X0065816Y0060431D02*
X0064390Y0060431D01*
X0064390Y0059481D02*
X0064390Y0062333D01*
X0065816Y0062333D01*
X0066291Y0061857D01*
X0066291Y0060907D01*
X0065816Y0060431D01*
X0062794Y0064402D02*
X0060892Y0064402D01*
X0062794Y0066303D01*
X0062794Y0066779D01*
X0062318Y0067254D01*
X0061368Y0067254D01*
X0060892Y0066779D01*
X0059894Y0066779D02*
X0059418Y0067254D01*
X0058468Y0067254D01*
X0057992Y0066779D01*
X0057992Y0064877D01*
X0058468Y0064402D01*
X0059418Y0064402D01*
X0059894Y0064877D01*
X0049864Y0065603D02*
X0049864Y0067504D01*
X0049864Y0066553D02*
X0047012Y0066553D01*
X0047963Y0065603D01*
X0047487Y0064604D02*
X0047012Y0064129D01*
X0047012Y0063178D01*
X0047487Y0062703D01*
X0049389Y0062703D01*
X0049864Y0063178D01*
X0049864Y0064129D01*
X0049389Y0064604D01*
X0047774Y0050522D02*
X0045873Y0050522D01*
X0044874Y0050046D02*
X0044874Y0049096D01*
X0044399Y0048620D01*
X0042973Y0048620D01*
X0043923Y0048620D02*
X0044874Y0047670D01*
X0045873Y0047670D02*
X0045873Y0048145D01*
X0047774Y0050046D01*
X0047774Y0050522D01*
X0044874Y0050046D02*
X0044399Y0050522D01*
X0042973Y0050522D01*
X0042973Y0047670D01*
X0056024Y0045771D02*
X0056024Y0043869D01*
X0056499Y0043394D01*
X0057450Y0043394D01*
X0057925Y0043869D01*
X0058924Y0043869D02*
X0058924Y0043394D01*
X0058924Y0043869D02*
X0060825Y0045771D01*
X0060825Y0046246D01*
X0058924Y0046246D01*
X0057925Y0045771D02*
X0057450Y0046246D01*
X0056499Y0046246D01*
X0056024Y0045771D01*
X0073393Y0045794D02*
X0073393Y0045319D01*
X0073869Y0044844D01*
X0074819Y0044844D01*
X0075295Y0044368D01*
X0075295Y0043893D01*
X0074819Y0043418D01*
X0073869Y0043418D01*
X0073393Y0043893D01*
X0076293Y0043893D02*
X0076769Y0043418D01*
X0077244Y0043418D01*
X0077719Y0043893D01*
X0077719Y0046270D01*
X0077244Y0046270D02*
X0078195Y0046270D01*
X0079193Y0045319D02*
X0080144Y0046270D01*
X0080144Y0043418D01*
X0079193Y0043418D02*
X0081095Y0043418D01*
X0081288Y0040325D02*
X0080337Y0040325D01*
X0079862Y0039850D01*
X0079862Y0037948D01*
X0081763Y0039850D01*
X0081763Y0037948D01*
X0081288Y0037473D01*
X0080337Y0037473D01*
X0079862Y0037948D01*
X0078863Y0037473D02*
X0076962Y0037473D01*
X0077913Y0037473D02*
X0077913Y0040325D01*
X0076962Y0039374D01*
X0075963Y0038899D02*
X0075488Y0038424D01*
X0074062Y0038424D01*
X0075012Y0038424D02*
X0075963Y0037473D01*
X0074062Y0037473D02*
X0074062Y0040325D01*
X0075488Y0040325D01*
X0075963Y0039850D01*
X0075963Y0038899D01*
X0081288Y0040325D02*
X0081763Y0039850D01*
X0075295Y0045794D02*
X0074819Y0046270D01*
X0073869Y0046270D01*
X0073393Y0045794D01*
X0074062Y0032943D02*
X0075488Y0032943D01*
X0075963Y0032468D01*
X0075963Y0031517D01*
X0075488Y0031042D01*
X0074062Y0031042D01*
X0075012Y0031042D02*
X0075963Y0030091D01*
X0076962Y0030091D02*
X0078863Y0031992D01*
X0078863Y0032468D01*
X0078388Y0032943D01*
X0077437Y0032943D01*
X0076962Y0032468D01*
X0076962Y0030091D02*
X0078863Y0030091D01*
X0074062Y0030091D02*
X0074062Y0032943D01*
X0060287Y0028550D02*
X0060287Y0026649D01*
X0059812Y0026174D01*
X0058861Y0026174D01*
X0058386Y0026649D01*
X0058861Y0027600D02*
X0060287Y0027600D01*
X0060287Y0028550D02*
X0059812Y0029026D01*
X0058861Y0029026D01*
X0058386Y0028550D01*
X0058386Y0028075D01*
X0058861Y0027600D01*
X0057387Y0027600D02*
X0056912Y0027124D01*
X0055486Y0027124D01*
X0055486Y0026174D02*
X0055486Y0029026D01*
X0056912Y0029026D01*
X0057387Y0028550D01*
X0057387Y0027600D01*
X0056437Y0027124D02*
X0057387Y0026174D01*
X0060436Y0019026D02*
X0059961Y0018550D01*
X0059961Y0018075D01*
X0060436Y0017600D01*
X0061387Y0017600D01*
X0061862Y0017124D01*
X0061862Y0016649D01*
X0061387Y0016174D01*
X0060436Y0016174D01*
X0059961Y0016649D01*
X0061862Y0018550D02*
X0061387Y0019026D01*
X0060436Y0019026D01*
X0062861Y0018075D02*
X0063812Y0019026D01*
X0063812Y0016174D01*
X0064762Y0016174D02*
X0062861Y0016174D01*
X0094410Y0015665D02*
X0094885Y0015189D01*
X0095836Y0015189D01*
X0096311Y0015665D01*
X0097310Y0015665D02*
X0097785Y0015189D01*
X0098736Y0015189D01*
X0099211Y0015665D01*
X0099211Y0017566D01*
X0098736Y0018041D01*
X0097785Y0018041D01*
X0097310Y0017566D01*
X0097310Y0017091D01*
X0097785Y0016615D01*
X0099211Y0016615D01*
X0096311Y0017566D02*
X0095836Y0018041D01*
X0094885Y0018041D01*
X0094410Y0017566D01*
X0094410Y0015665D01*
X0103707Y0020209D02*
X0104921Y0020209D01*
X0104314Y0020209D02*
X0104314Y0023849D01*
X0103707Y0023849D02*
X0104921Y0023849D01*
X0106124Y0023242D02*
X0106124Y0020816D01*
X0106731Y0020209D01*
X0107944Y0020209D01*
X0108551Y0020816D01*
X0109749Y0020209D02*
X0112176Y0020209D01*
X0110963Y0020209D02*
X0110963Y0023849D01*
X0109749Y0022636D01*
X0108551Y0023242D02*
X0107944Y0023849D01*
X0106731Y0023849D01*
X0106124Y0023242D01*
X0122953Y0018550D02*
X0122953Y0018075D01*
X0123428Y0017600D01*
X0124379Y0017600D01*
X0124854Y0017124D01*
X0124854Y0016649D01*
X0124379Y0016174D01*
X0123428Y0016174D01*
X0122953Y0016649D01*
X0122953Y0018550D02*
X0123428Y0019026D01*
X0124379Y0019026D01*
X0124854Y0018550D01*
X0125853Y0018550D02*
X0126328Y0019026D01*
X0127279Y0019026D01*
X0127754Y0018550D01*
X0127754Y0018075D01*
X0125853Y0016174D01*
X0127754Y0016174D01*
X0091846Y0086056D02*
X0090895Y0086056D01*
X0090420Y0086531D01*
X0090420Y0087006D01*
X0090895Y0087482D01*
X0091846Y0087482D01*
X0092321Y0087006D01*
X0092321Y0086531D01*
X0091846Y0086056D01*
X0091846Y0087482D02*
X0092321Y0087957D01*
X0092321Y0088432D01*
X0091846Y0088908D01*
X0090895Y0088908D01*
X0090420Y0088432D01*
X0090420Y0087957D01*
X0090895Y0087482D01*
X0089421Y0087482D02*
X0089421Y0088432D01*
X0088946Y0088908D01*
X0087520Y0088908D01*
X0087520Y0086056D01*
X0087520Y0087006D02*
X0088946Y0087006D01*
X0089421Y0087482D01*
X0088471Y0087006D02*
X0089421Y0086056D01*
D12*
X0014384Y0013031D02*
X0014384Y0005531D01*
X0014384Y0013031D02*
X0011884Y0013031D01*
X0011884Y0060531D01*
X0036884Y0060531D01*
X0036884Y0013031D01*
X0034384Y0013031D01*
X0034384Y0005531D01*
X0049337Y0029862D02*
X0049337Y0034862D01*
X0060337Y0034862D01*
X0060337Y0029862D01*
X0049337Y0029862D01*
X0049337Y0035768D02*
X0049337Y0040768D01*
X0060337Y0040768D01*
X0060337Y0035768D01*
X0049337Y0035768D01*
X0062132Y0035768D02*
X0062132Y0040768D01*
X0073132Y0040768D01*
X0073132Y0035768D01*
X0062132Y0035768D01*
X0062132Y0034862D02*
X0073132Y0034862D01*
X0073132Y0029862D01*
X0062132Y0029862D01*
X0062132Y0034862D01*
X0083380Y0025472D02*
X0107002Y0025472D01*
X0107002Y0049094D01*
X0083380Y0049094D01*
X0083380Y0025472D01*
X0082801Y0019114D02*
X0082801Y0014114D01*
X0093801Y0014114D01*
X0093801Y0019114D01*
X0082801Y0019114D01*
X0117298Y0031783D02*
X0117298Y0042783D01*
X0122298Y0042783D01*
X0122298Y0031783D01*
X0117298Y0031783D01*
X0125364Y0036594D02*
X0140364Y0036594D01*
X0140364Y0061594D01*
X0125364Y0061594D01*
X0120376Y0060453D02*
X0120376Y0055453D01*
X0109376Y0055453D01*
X0109376Y0060453D01*
X0120376Y0060453D01*
X0102612Y0068201D02*
X0097612Y0068201D01*
X0097612Y0079201D01*
X0102612Y0079201D01*
X0102612Y0068201D01*
X0094738Y0068201D02*
X0089738Y0068201D01*
X0089738Y0079201D01*
X0094738Y0079201D01*
X0094738Y0068201D01*
X0086864Y0068201D02*
X0081864Y0068201D01*
X0081864Y0079201D01*
X0086864Y0079201D01*
X0086864Y0068201D01*
X0078990Y0068201D02*
X0073990Y0068201D01*
X0073990Y0079201D01*
X0078990Y0079201D01*
X0078990Y0068201D01*
X0071116Y0068201D02*
X0066116Y0068201D01*
X0066116Y0079201D01*
X0071116Y0079201D01*
X0071116Y0068201D01*
X0063242Y0068201D02*
X0058242Y0068201D01*
X0058242Y0079201D01*
X0063242Y0079201D01*
X0063242Y0068201D01*
X0056353Y0073295D02*
X0056353Y0062295D01*
X0051353Y0062295D01*
X0051353Y0073295D01*
X0056353Y0073295D01*
X0074927Y0084980D02*
X0074927Y0089980D01*
X0085927Y0089980D01*
X0085927Y0084980D01*
X0074927Y0084980D01*
X0057384Y0059469D02*
X0046384Y0059469D01*
X0046384Y0054469D01*
X0057384Y0054469D01*
X0057384Y0059469D01*
X0061148Y0058484D02*
X0061148Y0053484D01*
X0072148Y0053484D01*
X0072148Y0058484D01*
X0061148Y0058484D01*
X0077880Y0058484D02*
X0077880Y0053484D01*
X0088880Y0053484D01*
X0088880Y0058484D01*
X0077880Y0058484D01*
X0041364Y0049094D02*
X0041377Y0050149D01*
X0041416Y0051204D01*
X0041481Y0052257D01*
X0041571Y0053309D01*
X0041687Y0054358D01*
X0041829Y0055403D01*
X0041997Y0056445D01*
X0042190Y0057483D01*
X0042409Y0058515D01*
X0042653Y0059542D01*
X0042922Y0060563D01*
X0043216Y0061576D01*
X0043534Y0062582D01*
X0043878Y0063580D01*
X0044245Y0064569D01*
X0044637Y0065549D01*
X0045053Y0066519D01*
X0045492Y0067479D01*
X0045955Y0068427D01*
X0046441Y0069364D01*
X0046950Y0070289D01*
X0047482Y0071200D01*
X0048035Y0072099D01*
X0048611Y0072984D01*
X0049208Y0073854D01*
X0049826Y0074709D01*
X0050465Y0075549D01*
X0051125Y0076373D01*
X0051804Y0077180D01*
X0052503Y0077971D01*
X0053221Y0078744D01*
X0053958Y0079500D01*
X0054714Y0080237D01*
X0055487Y0080955D01*
X0056278Y0081654D01*
X0057085Y0082333D01*
X0057909Y0082993D01*
X0058749Y0083632D01*
X0059604Y0084250D01*
X0060474Y0084847D01*
X0061359Y0085423D01*
X0062258Y0085976D01*
X0063169Y0086508D01*
X0064094Y0087017D01*
X0065031Y0087503D01*
X0065979Y0087966D01*
X0066939Y0088405D01*
X0067909Y0088821D01*
X0068889Y0089213D01*
X0069878Y0089580D01*
X0070876Y0089924D01*
X0071882Y0090242D01*
X0072895Y0090536D01*
X0073916Y0090805D01*
X0074943Y0091049D01*
X0075975Y0091268D01*
X0077013Y0091461D01*
X0078055Y0091629D01*
X0079100Y0091771D01*
X0080149Y0091887D01*
X0081201Y0091977D01*
X0082254Y0092042D01*
X0083309Y0092081D01*
X0084364Y0092094D01*
X0085419Y0092081D01*
X0086474Y0092042D01*
X0087527Y0091977D01*
X0088579Y0091887D01*
X0089628Y0091771D01*
X0090673Y0091629D01*
X0091715Y0091461D01*
X0092753Y0091268D01*
X0093785Y0091049D01*
X0094812Y0090805D01*
X0095833Y0090536D01*
X0096846Y0090242D01*
X0097852Y0089924D01*
X0098850Y0089580D01*
X0099839Y0089213D01*
X0100819Y0088821D01*
X0101789Y0088405D01*
X0102749Y0087966D01*
X0103697Y0087503D01*
X0104634Y0087017D01*
X0105559Y0086508D01*
X0106470Y0085976D01*
X0107369Y0085423D01*
X0108254Y0084847D01*
X0109124Y0084250D01*
X0109979Y0083632D01*
X0110819Y0082993D01*
X0111643Y0082333D01*
X0112450Y0081654D01*
X0113241Y0080955D01*
X0114014Y0080237D01*
X0114770Y0079500D01*
X0115507Y0078744D01*
X0116225Y0077971D01*
X0116924Y0077180D01*
X0117603Y0076373D01*
X0118263Y0075549D01*
X0118902Y0074709D01*
X0119520Y0073854D01*
X0120117Y0072984D01*
X0120693Y0072099D01*
X0121246Y0071200D01*
X0121778Y0070289D01*
X0122287Y0069364D01*
X0122773Y0068427D01*
X0123236Y0067479D01*
X0123675Y0066519D01*
X0124091Y0065549D01*
X0124483Y0064569D01*
X0124850Y0063580D01*
X0125194Y0062582D01*
X0125512Y0061576D01*
X0125806Y0060563D01*
X0126075Y0059542D01*
X0126319Y0058515D01*
X0126538Y0057483D01*
X0126731Y0056445D01*
X0126899Y0055403D01*
X0127041Y0054358D01*
X0127157Y0053309D01*
X0127247Y0052257D01*
X0127312Y0051204D01*
X0127351Y0050149D01*
X0127364Y0049094D01*
X0127351Y0048039D01*
X0127312Y0046984D01*
X0127247Y0045931D01*
X0127157Y0044879D01*
X0127041Y0043830D01*
X0126899Y0042785D01*
X0126731Y0041743D01*
X0126538Y0040705D01*
X0126319Y0039673D01*
X0126075Y0038646D01*
X0125806Y0037625D01*
X0125512Y0036612D01*
X0125194Y0035606D01*
X0124850Y0034608D01*
X0124483Y0033619D01*
X0124091Y0032639D01*
X0123675Y0031669D01*
X0123236Y0030709D01*
X0122773Y0029761D01*
X0122287Y0028824D01*
X0121778Y0027899D01*
X0121246Y0026988D01*
X0120693Y0026089D01*
X0120117Y0025204D01*
X0119520Y0024334D01*
X0118902Y0023479D01*
X0118263Y0022639D01*
X0117603Y0021815D01*
X0116924Y0021008D01*
X0116225Y0020217D01*
X0115507Y0019444D01*
X0114770Y0018688D01*
X0114014Y0017951D01*
X0113241Y0017233D01*
X0112450Y0016534D01*
X0111643Y0015855D01*
X0110819Y0015195D01*
X0109979Y0014556D01*
X0109124Y0013938D01*
X0108254Y0013341D01*
X0107369Y0012765D01*
X0106470Y0012212D01*
X0105559Y0011680D01*
X0104634Y0011171D01*
X0103697Y0010685D01*
X0102749Y0010222D01*
X0101789Y0009783D01*
X0100819Y0009367D01*
X0099839Y0008975D01*
X0098850Y0008608D01*
X0097852Y0008264D01*
X0096846Y0007946D01*
X0095833Y0007652D01*
X0094812Y0007383D01*
X0093785Y0007139D01*
X0092753Y0006920D01*
X0091715Y0006727D01*
X0090673Y0006559D01*
X0089628Y0006417D01*
X0088579Y0006301D01*
X0087527Y0006211D01*
X0086474Y0006146D01*
X0085419Y0006107D01*
X0084364Y0006094D01*
X0083309Y0006107D01*
X0082254Y0006146D01*
X0081201Y0006211D01*
X0080149Y0006301D01*
X0079100Y0006417D01*
X0078055Y0006559D01*
X0077013Y0006727D01*
X0075975Y0006920D01*
X0074943Y0007139D01*
X0073916Y0007383D01*
X0072895Y0007652D01*
X0071882Y0007946D01*
X0070876Y0008264D01*
X0069878Y0008608D01*
X0068889Y0008975D01*
X0067909Y0009367D01*
X0066939Y0009783D01*
X0065979Y0010222D01*
X0065031Y0010685D01*
X0064094Y0011171D01*
X0063169Y0011680D01*
X0062258Y0012212D01*
X0061359Y0012765D01*
X0060474Y0013341D01*
X0059604Y0013938D01*
X0058749Y0014556D01*
X0057909Y0015195D01*
X0057085Y0015855D01*
X0056278Y0016534D01*
X0055487Y0017233D01*
X0054714Y0017951D01*
X0053958Y0018688D01*
X0053221Y0019444D01*
X0052503Y0020217D01*
X0051804Y0021008D01*
X0051125Y0021815D01*
X0050465Y0022639D01*
X0049826Y0023479D01*
X0049208Y0024334D01*
X0048611Y0025204D01*
X0048035Y0026089D01*
X0047482Y0026988D01*
X0046950Y0027899D01*
X0046441Y0028824D01*
X0045955Y0029761D01*
X0045492Y0030709D01*
X0045053Y0031669D01*
X0044637Y0032639D01*
X0044245Y0033619D01*
X0043878Y0034608D01*
X0043534Y0035606D01*
X0043216Y0036612D01*
X0042922Y0037625D01*
X0042653Y0038646D01*
X0042409Y0039673D01*
X0042190Y0040705D01*
X0041997Y0041743D01*
X0041829Y0042785D01*
X0041687Y0043830D01*
X0041571Y0044879D01*
X0041481Y0045931D01*
X0041416Y0046984D01*
X0041377Y0048039D01*
X0041364Y0049094D01*
D13*
X0063301Y0048110D02*
X0063301Y0042205D01*
X0063309Y0042142D01*
X0063320Y0042080D01*
X0063335Y0042018D01*
X0063353Y0041958D01*
X0063375Y0041898D01*
X0063400Y0041840D01*
X0063429Y0041784D01*
X0063460Y0041729D01*
X0063495Y0041676D01*
X0063533Y0041626D01*
X0063574Y0041577D01*
X0063618Y0041532D01*
X0063664Y0041488D01*
X0063712Y0041448D01*
X0063763Y0041410D01*
X0063816Y0041376D01*
X0063871Y0041344D01*
X0063928Y0041316D01*
X0063986Y0041291D01*
X0064045Y0041270D01*
X0064106Y0041252D01*
X0064168Y0041238D01*
X0064230Y0041227D01*
X0064293Y0041220D01*
X0064356Y0041216D01*
X0064419Y0041217D01*
X0064482Y0041221D01*
X0064483Y0041220D02*
X0070782Y0041220D01*
X0070845Y0041217D01*
X0070908Y0041216D01*
X0070971Y0041220D01*
X0071034Y0041227D01*
X0071096Y0041238D01*
X0071158Y0041252D01*
X0071218Y0041270D01*
X0071278Y0041291D01*
X0071336Y0041316D01*
X0071393Y0041344D01*
X0071448Y0041376D01*
X0071500Y0041410D01*
X0071551Y0041448D01*
X0071600Y0041489D01*
X0071646Y0041532D01*
X0071690Y0041578D01*
X0071730Y0041626D01*
X0071768Y0041677D01*
X0071803Y0041729D01*
X0071835Y0041784D01*
X0071864Y0041840D01*
X0071889Y0041898D01*
X0071911Y0041958D01*
X0071929Y0042018D01*
X0071944Y0042080D01*
X0071955Y0042142D01*
X0071963Y0042205D01*
X0071963Y0048110D01*
X0071955Y0048173D01*
X0071944Y0048235D01*
X0071929Y0048297D01*
X0071911Y0048357D01*
X0071889Y0048417D01*
X0071864Y0048475D01*
X0071835Y0048531D01*
X0071803Y0048586D01*
X0071768Y0048638D01*
X0071730Y0048689D01*
X0071690Y0048737D01*
X0071646Y0048783D01*
X0071600Y0048826D01*
X0071551Y0048867D01*
X0071500Y0048905D01*
X0071448Y0048939D01*
X0071393Y0048971D01*
X0071336Y0048999D01*
X0071278Y0049024D01*
X0071218Y0049045D01*
X0071158Y0049063D01*
X0071096Y0049077D01*
X0071034Y0049088D01*
X0070971Y0049095D01*
X0070908Y0049099D01*
X0070845Y0049098D01*
X0070782Y0049095D01*
X0070782Y0049094D02*
X0064483Y0049094D01*
X0064482Y0049095D02*
X0064419Y0049098D01*
X0064356Y0049099D01*
X0064293Y0049095D01*
X0064230Y0049088D01*
X0064168Y0049077D01*
X0064106Y0049063D01*
X0064046Y0049045D01*
X0063986Y0049024D01*
X0063928Y0048999D01*
X0063871Y0048971D01*
X0063816Y0048939D01*
X0063764Y0048905D01*
X0063713Y0048867D01*
X0063664Y0048826D01*
X0063618Y0048783D01*
X0063574Y0048737D01*
X0063534Y0048689D01*
X0063496Y0048638D01*
X0063461Y0048586D01*
X0063429Y0048531D01*
X0063400Y0048475D01*
X0063375Y0048417D01*
X0063353Y0048357D01*
X0063335Y0048297D01*
X0063320Y0048235D01*
X0063309Y0048173D01*
X0063301Y0048110D01*
X0087291Y0045183D02*
X0087291Y0044083D01*
X0087291Y0045183D02*
X0088391Y0045183D01*
X0101991Y0045183D02*
X0103091Y0045183D01*
X0103091Y0044083D01*
X0103091Y0030483D02*
X0103091Y0029383D01*
X0101991Y0029383D01*
X0088391Y0029383D02*
X0087291Y0029383D01*
X0087291Y0030483D01*
X0022750Y0063858D02*
X0022750Y0069764D01*
X0022751Y0069764D02*
X0022743Y0069827D01*
X0022732Y0069889D01*
X0022717Y0069951D01*
X0022699Y0070011D01*
X0022677Y0070071D01*
X0022652Y0070129D01*
X0022623Y0070185D01*
X0022592Y0070240D01*
X0022557Y0070293D01*
X0022519Y0070343D01*
X0022478Y0070392D01*
X0022434Y0070437D01*
X0022388Y0070481D01*
X0022340Y0070521D01*
X0022289Y0070559D01*
X0022236Y0070593D01*
X0022181Y0070625D01*
X0022124Y0070653D01*
X0022066Y0070678D01*
X0022007Y0070699D01*
X0021946Y0070717D01*
X0021884Y0070731D01*
X0021822Y0070742D01*
X0021759Y0070749D01*
X0021696Y0070753D01*
X0021633Y0070752D01*
X0021570Y0070748D01*
X0021569Y0070748D02*
X0015270Y0070748D01*
X0015207Y0070751D01*
X0015144Y0070752D01*
X0015081Y0070748D01*
X0015018Y0070741D01*
X0014956Y0070730D01*
X0014894Y0070716D01*
X0014834Y0070698D01*
X0014774Y0070677D01*
X0014716Y0070652D01*
X0014659Y0070624D01*
X0014604Y0070592D01*
X0014552Y0070558D01*
X0014501Y0070520D01*
X0014452Y0070479D01*
X0014406Y0070436D01*
X0014362Y0070390D01*
X0014322Y0070342D01*
X0014284Y0070291D01*
X0014249Y0070239D01*
X0014217Y0070184D01*
X0014188Y0070128D01*
X0014163Y0070070D01*
X0014141Y0070010D01*
X0014123Y0069950D01*
X0014108Y0069888D01*
X0014097Y0069826D01*
X0014089Y0069763D01*
X0014089Y0069764D02*
X0014089Y0063858D01*
X0014089Y0063859D02*
X0014097Y0063796D01*
X0014108Y0063734D01*
X0014123Y0063672D01*
X0014141Y0063612D01*
X0014163Y0063552D01*
X0014188Y0063494D01*
X0014217Y0063438D01*
X0014249Y0063383D01*
X0014284Y0063331D01*
X0014322Y0063280D01*
X0014362Y0063232D01*
X0014406Y0063186D01*
X0014452Y0063143D01*
X0014501Y0063102D01*
X0014552Y0063064D01*
X0014604Y0063030D01*
X0014659Y0062998D01*
X0014716Y0062970D01*
X0014774Y0062945D01*
X0014834Y0062924D01*
X0014894Y0062906D01*
X0014956Y0062892D01*
X0015018Y0062881D01*
X0015081Y0062874D01*
X0015144Y0062870D01*
X0015207Y0062871D01*
X0015270Y0062874D01*
X0021569Y0062874D01*
X0021570Y0062874D02*
X0021633Y0062871D01*
X0021696Y0062870D01*
X0021759Y0062874D01*
X0021822Y0062881D01*
X0021884Y0062892D01*
X0021946Y0062906D01*
X0022006Y0062924D01*
X0022066Y0062945D01*
X0022124Y0062970D01*
X0022181Y0062998D01*
X0022236Y0063030D01*
X0022288Y0063064D01*
X0022339Y0063102D01*
X0022388Y0063143D01*
X0022434Y0063186D01*
X0022478Y0063232D01*
X0022518Y0063280D01*
X0022556Y0063331D01*
X0022591Y0063383D01*
X0022623Y0063438D01*
X0022652Y0063494D01*
X0022677Y0063552D01*
X0022699Y0063612D01*
X0022717Y0063672D01*
X0022732Y0063734D01*
X0022743Y0063796D01*
X0022751Y0063859D01*
D14*
X0086333Y0028425D03*
D15*
X0075900Y0018780D02*
X0075900Y0016417D01*
X0073341Y0012480D02*
X0052081Y0012480D01*
X0049522Y0016417D02*
X0049522Y0018780D01*
X0056805Y0022717D02*
X0062711Y0022717D01*
X0112514Y0018780D02*
X0112514Y0016417D01*
X0115073Y0012480D02*
X0136333Y0012480D01*
X0138892Y0016417D02*
X0138892Y0018780D01*
X0125703Y0022717D02*
X0119798Y0022717D01*
D16*
X0026360Y0023113D02*
X0024525Y0023113D01*
X0025442Y0023113D02*
X0025442Y0025865D01*
X0024525Y0024948D01*
X0023460Y0025865D02*
X0022542Y0025865D01*
X0023001Y0025865D02*
X0023001Y0023572D01*
X0022542Y0023113D01*
X0022084Y0023113D01*
X0021625Y0023572D01*
M02*
