G75*
%MOIN*%
%OFA0B0*%
%FSLAX25Y25*%
%IPPOS*%
%LPD*%
%AMOC8*
5,1,8,0,0,1.08239X$1,22.5*
%
%ADD10R,0.01778X0.08274*%
%ADD11C,0.00850*%
%ADD12R,0.10400X0.05400*%
%ADD13C,0.03943*%
%ADD14C,0.08400*%
%ADD15C,0.05400*%
D10*
X0058577Y0062913D03*
X0061333Y0062913D03*
X0064089Y0062913D03*
X0066845Y0062913D03*
X0069601Y0062913D03*
X0072357Y0062913D03*
X0075113Y0062913D03*
X0077868Y0062913D03*
X0080624Y0062913D03*
X0083380Y0062913D03*
X0086136Y0062913D03*
X0088892Y0062913D03*
X0091648Y0062913D03*
X0094404Y0062913D03*
D11*
X0123397Y0086053D02*
X0125947Y0086053D01*
X0125947Y0083003D01*
X0123397Y0083003D01*
X0123397Y0086053D01*
X0123397Y0083852D02*
X0125947Y0083852D01*
X0125947Y0084701D02*
X0123397Y0084701D01*
X0123397Y0085550D02*
X0125947Y0085550D01*
X0129397Y0086053D02*
X0131947Y0086053D01*
X0131947Y0083003D01*
X0129397Y0083003D01*
X0129397Y0086053D01*
X0129397Y0083852D02*
X0131947Y0083852D01*
X0131947Y0084701D02*
X0129397Y0084701D01*
X0129397Y0085550D02*
X0131947Y0085550D01*
X0080765Y0089005D02*
X0078215Y0089005D01*
X0080765Y0089005D02*
X0080765Y0085955D01*
X0078215Y0085955D01*
X0078215Y0089005D01*
X0078215Y0086804D02*
X0080765Y0086804D01*
X0080765Y0087653D02*
X0078215Y0087653D01*
X0078215Y0088502D02*
X0080765Y0088502D01*
X0074765Y0089005D02*
X0072215Y0089005D01*
X0074765Y0089005D02*
X0074765Y0085955D01*
X0072215Y0085955D01*
X0072215Y0089005D01*
X0072215Y0086804D02*
X0074765Y0086804D01*
X0074765Y0087653D02*
X0072215Y0087653D01*
X0072215Y0088502D02*
X0074765Y0088502D01*
X0029584Y0086053D02*
X0027034Y0086053D01*
X0029584Y0086053D02*
X0029584Y0083003D01*
X0027034Y0083003D01*
X0027034Y0086053D01*
X0027034Y0083852D02*
X0029584Y0083852D01*
X0029584Y0084701D02*
X0027034Y0084701D01*
X0027034Y0085550D02*
X0029584Y0085550D01*
X0023584Y0086053D02*
X0021034Y0086053D01*
X0023584Y0086053D02*
X0023584Y0083003D01*
X0021034Y0083003D01*
X0021034Y0086053D01*
X0021034Y0083852D02*
X0023584Y0083852D01*
X0023584Y0084701D02*
X0021034Y0084701D01*
X0021034Y0085550D02*
X0023584Y0085550D01*
D12*
X0009053Y0032720D03*
X0009053Y0049720D03*
X0009053Y0060280D03*
X0009053Y0077280D03*
X0041565Y0077280D03*
X0041565Y0060280D03*
X0041565Y0049720D03*
X0041565Y0032720D03*
X0111416Y0032720D03*
X0111416Y0049720D03*
X0111416Y0060280D03*
X0111416Y0077280D03*
X0143927Y0077280D03*
X0143927Y0060280D03*
X0143927Y0049720D03*
X0143927Y0032720D03*
D13*
X0131609Y0017598D03*
X0119798Y0017598D03*
X0068616Y0017598D03*
X0056805Y0017598D03*
D14*
X0052864Y0049094D03*
X0132864Y0049094D03*
D15*
X0024384Y0055031D03*
M02*
