%
M48
M72
T01C0.01200
T02C0.03543
T03C0.05000
%
T01
X92238Y79606
X84364Y79606
X102081Y70748
X8577Y87480
X140467Y87480
X142435Y69764
X86333Y87480
X16451Y23504
X74522Y25472
X70585Y34331
X53853Y73701
X60742Y78622
X68616Y78622
X76490Y79606
X123735Y40236
X97160Y23504
X85349Y18583
X40073Y19567
X93223Y39252
X97160Y39252
X97160Y35315
X93223Y35315
X68616Y72717
X53853Y66811
X60742Y72717
X91254Y72717
X84364Y72717
X79443Y83543
X76490Y72717
X82396Y55984
X125703Y46142
X108971Y69764
X73538Y54016
X65664Y55984
X72553Y68780
X95191Y53524
X86333Y48110
X104050Y28425
X110939Y26457
X130624Y81575
X32199Y75669
X70585Y87480
X80427Y76654
X66648Y82559
X48439Y78622
X133577Y75669
X126195Y56476
X79443Y25472
X47947Y26457
X20388Y40236
X85841Y29902
X47455Y39252
X77475Y35315
X57298Y42205
X46963Y43189
X81412Y32362
X80427Y48110
X98144Y55984
X100112Y19567
X60742Y24488
T02
X131609Y17598
X119798Y17598
X68616Y17598
X56805Y17598
T03
X52864Y49094
X132864Y49094
X24384Y55031
M30
