G75*
%MOIN*%
%OFA0B0*%
%FSLAX25Y25*%
%IPPOS*%
%LPD*%
%AMOC8*
5,1,8,0,0,1.08239X$1,22.5*
%
%ADD10C,0.00200*%
%ADD11C,0.00300*%
%ADD12C,0.00500*%
%ADD13C,0.00600*%
%ADD14R,0.05906X0.05906*%
%ADD15C,0.00800*%
%ADD16C,0.00400*%
%ADD17C,0.00100*%
D10*
X0050396Y0028580D02*
X0051597Y0028580D01*
X0050996Y0028580D02*
X0050996Y0030382D01*
X0050396Y0029781D01*
X0052237Y0030082D02*
X0052237Y0028881D01*
X0053438Y0030082D01*
X0053438Y0028881D01*
X0053138Y0028580D01*
X0052537Y0028580D01*
X0052237Y0028881D01*
X0052237Y0030082D02*
X0052537Y0030382D01*
X0053138Y0030382D01*
X0053438Y0030082D01*
X0054079Y0030082D02*
X0054079Y0028881D01*
X0055280Y0030082D01*
X0055280Y0028881D01*
X0054980Y0028580D01*
X0054379Y0028580D01*
X0054079Y0028881D01*
X0054079Y0030082D02*
X0054379Y0030382D01*
X0054980Y0030382D01*
X0055280Y0030082D01*
X0055920Y0029781D02*
X0056821Y0029781D01*
X0057121Y0029481D01*
X0057121Y0028580D01*
X0057762Y0028580D02*
X0057762Y0030382D01*
X0058963Y0030382D01*
X0058362Y0029481D02*
X0057762Y0029481D01*
X0055920Y0029781D02*
X0055920Y0028580D01*
X0023720Y0068366D02*
X0024081Y0068726D01*
X0024081Y0070169D01*
X0023720Y0070530D01*
X0022999Y0070530D01*
X0022638Y0070169D01*
X0022638Y0068726D01*
X0022999Y0068366D01*
X0023720Y0068366D01*
X0021906Y0068366D02*
X0020463Y0068366D01*
X0020463Y0070530D01*
X0021906Y0070530D01*
X0021184Y0069448D02*
X0020463Y0069448D01*
X0019730Y0069448D02*
X0019730Y0070169D01*
X0019370Y0070530D01*
X0018288Y0070530D01*
X0018288Y0068366D01*
X0018288Y0069087D02*
X0019370Y0069087D01*
X0019730Y0069448D01*
X0019009Y0069087D02*
X0019730Y0068366D01*
X0017555Y0068366D02*
X0016113Y0068366D01*
X0016113Y0070530D01*
X0017555Y0070530D01*
X0016834Y0069448D02*
X0016113Y0069448D01*
X0015380Y0070530D02*
X0013938Y0070530D01*
X0014659Y0070530D02*
X0014659Y0068366D01*
X0013205Y0068726D02*
X0012845Y0068366D01*
X0012123Y0068366D01*
X0011763Y0068726D01*
X0012123Y0069448D02*
X0012845Y0069448D01*
X0013205Y0069087D01*
X0013205Y0068726D01*
X0012123Y0069448D02*
X0011763Y0069808D01*
X0011763Y0070169D01*
X0012123Y0070530D01*
X0012845Y0070530D01*
X0013205Y0070169D01*
X0013262Y0076240D02*
X0013262Y0078404D01*
X0014705Y0076240D01*
X0014705Y0078404D01*
X0015438Y0078404D02*
X0016520Y0078404D01*
X0016880Y0078043D01*
X0016880Y0076600D01*
X0016520Y0076240D01*
X0015438Y0076240D01*
X0015438Y0078404D01*
X0012530Y0078043D02*
X0012169Y0078404D01*
X0011448Y0078404D01*
X0011087Y0078043D01*
X0011087Y0076600D01*
X0011448Y0076240D01*
X0012169Y0076240D01*
X0012530Y0076600D01*
X0012530Y0077322D01*
X0011809Y0077322D01*
X0021450Y0078404D02*
X0021450Y0076240D01*
X0022532Y0076240D01*
X0022893Y0076600D01*
X0022893Y0078043D01*
X0022532Y0078404D01*
X0021450Y0078404D01*
X0023625Y0078404D02*
X0024346Y0078404D01*
X0023986Y0078404D02*
X0023986Y0076240D01*
X0024346Y0076240D02*
X0023625Y0076240D01*
X0025075Y0076600D02*
X0025075Y0078043D01*
X0025436Y0078404D01*
X0026157Y0078404D01*
X0026518Y0078043D01*
X0026518Y0076600D01*
X0026157Y0076240D01*
X0025436Y0076240D01*
X0025075Y0076600D01*
X0031087Y0076240D02*
X0031087Y0078404D01*
X0032169Y0078404D01*
X0032530Y0078043D01*
X0032530Y0077322D01*
X0032169Y0076961D01*
X0031087Y0076961D01*
X0031809Y0076961D02*
X0032530Y0076240D01*
X0033262Y0076600D02*
X0033623Y0076240D01*
X0034344Y0076240D01*
X0034705Y0076600D01*
X0034705Y0076961D01*
X0034344Y0077322D01*
X0033623Y0077322D01*
X0033262Y0077682D01*
X0033262Y0078043D01*
X0033623Y0078404D01*
X0034344Y0078404D01*
X0034705Y0078043D01*
X0035438Y0078404D02*
X0036880Y0078404D01*
X0036159Y0078404D02*
X0036159Y0076240D01*
X0041087Y0076600D02*
X0041448Y0076240D01*
X0042169Y0076240D01*
X0042530Y0076600D01*
X0043262Y0076240D02*
X0044705Y0076240D01*
X0045438Y0076240D02*
X0045438Y0078404D01*
X0045798Y0077322D02*
X0046880Y0076240D01*
X0045438Y0076961D02*
X0046880Y0078404D01*
X0043262Y0078404D02*
X0043262Y0076240D01*
X0042530Y0078043D02*
X0042169Y0078404D01*
X0041448Y0078404D01*
X0041087Y0078043D01*
X0041087Y0076600D01*
X0050544Y0076600D02*
X0050904Y0076240D01*
X0051626Y0076240D01*
X0051986Y0076600D01*
X0051986Y0076961D01*
X0051626Y0077322D01*
X0051265Y0077322D01*
X0051626Y0077322D02*
X0051986Y0077682D01*
X0051986Y0078043D01*
X0051626Y0078404D01*
X0050904Y0078404D01*
X0050544Y0078043D01*
X0052719Y0076600D02*
X0053079Y0076600D01*
X0053079Y0076240D01*
X0052719Y0076240D01*
X0052719Y0076600D01*
X0053806Y0076600D02*
X0054167Y0076240D01*
X0054888Y0076240D01*
X0055249Y0076600D01*
X0055249Y0076961D01*
X0054888Y0077322D01*
X0054528Y0077322D01*
X0054888Y0077322D02*
X0055249Y0077682D01*
X0055249Y0078043D01*
X0054888Y0078404D01*
X0054167Y0078404D01*
X0053806Y0078043D01*
X0055981Y0078404D02*
X0055981Y0076961D01*
X0056703Y0076240D01*
X0057424Y0076961D01*
X0057424Y0078404D01*
X0111880Y0079408D02*
X0113322Y0079408D01*
X0112601Y0079408D02*
X0112601Y0077244D01*
X0114055Y0077244D02*
X0115497Y0079408D01*
X0114055Y0079408D02*
X0115497Y0077244D01*
X0122706Y0077244D02*
X0122706Y0079408D01*
X0123788Y0079408D01*
X0124149Y0079047D01*
X0124149Y0078326D01*
X0123788Y0077965D01*
X0122706Y0077965D01*
X0123428Y0077965D02*
X0124149Y0077244D01*
X0124881Y0077244D02*
X0126324Y0079408D01*
X0124881Y0079408D02*
X0126324Y0077244D01*
X0132347Y0077585D02*
X0132708Y0077224D01*
X0133429Y0077224D01*
X0133790Y0077585D01*
X0133790Y0078306D01*
X0133069Y0078306D01*
X0133790Y0079027D02*
X0133429Y0079388D01*
X0132708Y0079388D01*
X0132347Y0079027D01*
X0132347Y0077585D01*
X0134522Y0077224D02*
X0134522Y0079388D01*
X0135965Y0077224D01*
X0135965Y0079388D01*
X0136697Y0079388D02*
X0137779Y0079388D01*
X0138140Y0079027D01*
X0138140Y0077585D01*
X0137779Y0077224D01*
X0136697Y0077224D01*
X0136697Y0079388D01*
X0142977Y0066600D02*
X0143698Y0066600D01*
X0144059Y0066239D01*
X0144059Y0065157D01*
X0144780Y0065157D02*
X0142616Y0065157D01*
X0142616Y0066239D01*
X0142977Y0066600D01*
X0144059Y0065878D02*
X0144780Y0066600D01*
X0144780Y0064424D02*
X0144780Y0062982D01*
X0142616Y0062982D01*
X0142616Y0064424D01*
X0143698Y0063703D02*
X0143698Y0062982D01*
X0142977Y0062249D02*
X0144419Y0060807D01*
X0144780Y0060807D01*
X0144780Y0062249D01*
X0142977Y0062249D02*
X0142616Y0062249D01*
X0142616Y0060807D01*
X0142616Y0060074D02*
X0142977Y0060074D01*
X0144419Y0058632D01*
X0144780Y0058632D01*
X0144780Y0060074D01*
X0142616Y0060074D02*
X0142616Y0058632D01*
X0142616Y0057899D02*
X0144419Y0057899D01*
X0144780Y0057539D01*
X0144780Y0056817D01*
X0144419Y0056457D01*
X0142616Y0056457D01*
X0142977Y0055724D02*
X0143337Y0055724D01*
X0143698Y0055363D01*
X0143698Y0054281D01*
X0144780Y0054281D02*
X0144780Y0055363D01*
X0144419Y0055724D01*
X0144059Y0055724D01*
X0143698Y0055363D01*
X0142977Y0055724D02*
X0142616Y0055363D01*
X0142616Y0054281D01*
X0144780Y0054281D01*
D11*
X0121285Y0047099D02*
X0121285Y0046148D01*
X0120810Y0045673D01*
X0118908Y0047574D01*
X0120810Y0047574D01*
X0121285Y0047099D01*
X0120810Y0045673D02*
X0118908Y0045673D01*
X0118433Y0046148D01*
X0118433Y0047099D01*
X0118908Y0047574D01*
X0121285Y0044674D02*
X0121285Y0042773D01*
X0121285Y0043723D02*
X0118433Y0043723D01*
X0119384Y0042773D01*
X0118908Y0041774D02*
X0118433Y0041299D01*
X0118433Y0040348D01*
X0118908Y0039873D01*
X0120810Y0039873D01*
X0121285Y0040348D01*
X0121285Y0041299D01*
X0120810Y0041774D01*
X0107758Y0052927D02*
X0107283Y0052451D01*
X0106332Y0052451D01*
X0105857Y0052927D01*
X0105857Y0053877D01*
X0107283Y0053877D01*
X0107758Y0053402D01*
X0107758Y0052927D01*
X0106807Y0054828D02*
X0105857Y0053877D01*
X0104858Y0053877D02*
X0104383Y0053402D01*
X0102957Y0053402D01*
X0103907Y0053402D02*
X0104858Y0052451D01*
X0102957Y0052451D02*
X0102957Y0055303D01*
X0104383Y0055303D01*
X0104858Y0054828D01*
X0104858Y0053877D01*
X0106807Y0054828D02*
X0107758Y0055303D01*
X0102227Y0060840D02*
X0102227Y0061315D01*
X0101751Y0061791D01*
X0100325Y0061791D01*
X0100325Y0060840D01*
X0100801Y0060365D01*
X0101751Y0060365D01*
X0102227Y0060840D01*
X0101276Y0062741D02*
X0100325Y0061791D01*
X0101276Y0062741D02*
X0102227Y0063217D01*
X0099326Y0062741D02*
X0098851Y0063217D01*
X0097900Y0063217D01*
X0097425Y0062741D01*
X0097425Y0060840D01*
X0097900Y0060365D01*
X0098851Y0060365D01*
X0099326Y0060840D01*
X0094353Y0060840D02*
X0093877Y0060365D01*
X0092927Y0060365D01*
X0092451Y0060840D01*
X0091452Y0060840D02*
X0090977Y0060365D01*
X0090026Y0060365D01*
X0089551Y0060840D01*
X0089551Y0062741D01*
X0090026Y0063217D01*
X0090977Y0063217D01*
X0091452Y0062741D01*
X0092451Y0062741D02*
X0092927Y0063217D01*
X0093877Y0063217D01*
X0094353Y0062741D01*
X0094353Y0062266D01*
X0093877Y0061791D01*
X0094353Y0061315D01*
X0094353Y0060840D01*
X0093877Y0061791D02*
X0093402Y0061791D01*
X0086597Y0061791D02*
X0084695Y0061791D01*
X0086121Y0063217D01*
X0086121Y0060365D01*
X0085019Y0058295D02*
X0083593Y0056869D01*
X0085494Y0056869D01*
X0085019Y0055443D02*
X0085019Y0058295D01*
X0082594Y0057820D02*
X0082594Y0056869D01*
X0082119Y0056394D01*
X0080693Y0056394D01*
X0081643Y0056394D02*
X0082594Y0055443D01*
X0080693Y0055443D02*
X0080693Y0058295D01*
X0082119Y0058295D01*
X0082594Y0057820D01*
X0082270Y0060365D02*
X0083221Y0060365D01*
X0083697Y0060840D01*
X0082270Y0060365D02*
X0081795Y0060840D01*
X0081795Y0062741D01*
X0082270Y0063217D01*
X0083221Y0063217D01*
X0083697Y0062741D01*
X0078605Y0063217D02*
X0076703Y0063217D01*
X0076703Y0061791D01*
X0077654Y0062266D01*
X0078129Y0062266D01*
X0078605Y0061791D01*
X0078605Y0060840D01*
X0078129Y0060365D01*
X0077178Y0060365D01*
X0076703Y0060840D01*
X0075704Y0060840D02*
X0075229Y0060365D01*
X0074278Y0060365D01*
X0073803Y0060840D01*
X0073803Y0062741D01*
X0074278Y0063217D01*
X0075229Y0063217D01*
X0075704Y0062741D01*
X0070730Y0062741D02*
X0070730Y0062266D01*
X0070255Y0061791D01*
X0070730Y0061315D01*
X0070730Y0060840D01*
X0070255Y0060365D01*
X0069304Y0060365D01*
X0068829Y0060840D01*
X0067830Y0060365D02*
X0066880Y0061315D01*
X0067355Y0061315D02*
X0065929Y0061315D01*
X0065929Y0060365D02*
X0065929Y0063217D01*
X0067355Y0063217D01*
X0067830Y0062741D01*
X0067830Y0061791D01*
X0067355Y0061315D01*
X0068829Y0062741D02*
X0069304Y0063217D01*
X0070255Y0063217D01*
X0070730Y0062741D01*
X0070255Y0061791D02*
X0069780Y0061791D01*
X0069254Y0058295D02*
X0067353Y0058295D01*
X0067353Y0056869D01*
X0068303Y0057345D01*
X0068779Y0057345D01*
X0069254Y0056869D01*
X0069254Y0055919D01*
X0068779Y0055443D01*
X0067828Y0055443D01*
X0067353Y0055919D01*
X0066354Y0055443D02*
X0065403Y0056394D01*
X0065879Y0056394D02*
X0064453Y0056394D01*
X0064453Y0055443D02*
X0064453Y0058295D01*
X0065879Y0058295D01*
X0066354Y0057820D01*
X0066354Y0056869D01*
X0065879Y0056394D01*
X0062856Y0060365D02*
X0060955Y0060365D01*
X0062856Y0062266D01*
X0062856Y0062741D01*
X0062381Y0063217D01*
X0061430Y0063217D01*
X0060955Y0062741D01*
X0059956Y0062741D02*
X0059481Y0063217D01*
X0058530Y0063217D01*
X0058055Y0062741D01*
X0058055Y0060840D01*
X0058530Y0060365D01*
X0059481Y0060365D01*
X0059956Y0060840D01*
X0049927Y0061565D02*
X0049927Y0063467D01*
X0049927Y0062516D02*
X0047075Y0062516D01*
X0048025Y0061565D01*
X0047550Y0060567D02*
X0047075Y0060091D01*
X0047075Y0059141D01*
X0047550Y0058665D01*
X0049451Y0058665D01*
X0049927Y0059141D01*
X0049927Y0060091D01*
X0049451Y0060567D01*
X0047601Y0049437D02*
X0045699Y0049437D01*
X0044700Y0048962D02*
X0044700Y0048011D01*
X0044225Y0047536D01*
X0042799Y0047536D01*
X0043750Y0047536D02*
X0044700Y0046585D01*
X0045699Y0046585D02*
X0045699Y0047060D01*
X0047601Y0048962D01*
X0047601Y0049437D01*
X0044700Y0048962D02*
X0044225Y0049437D01*
X0042799Y0049437D01*
X0042799Y0046585D01*
X0056087Y0041733D02*
X0056087Y0039832D01*
X0056562Y0039357D01*
X0057513Y0039357D01*
X0057988Y0039832D01*
X0058987Y0039832D02*
X0058987Y0039357D01*
X0058987Y0039832D02*
X0060888Y0041733D01*
X0060888Y0042209D01*
X0058987Y0042209D01*
X0057988Y0041733D02*
X0057513Y0042209D01*
X0056562Y0042209D01*
X0056087Y0041733D01*
X0074124Y0036287D02*
X0074124Y0033435D01*
X0074124Y0034386D02*
X0075550Y0034386D01*
X0076026Y0034861D01*
X0076026Y0035812D01*
X0075550Y0036287D01*
X0074124Y0036287D01*
X0075075Y0034386D02*
X0076026Y0033435D01*
X0077025Y0033435D02*
X0078926Y0033435D01*
X0077975Y0033435D02*
X0077975Y0036287D01*
X0077025Y0035337D01*
X0079925Y0035812D02*
X0079925Y0033911D01*
X0081826Y0035812D01*
X0081826Y0033911D01*
X0081351Y0033435D01*
X0080400Y0033435D01*
X0079925Y0033911D01*
X0079925Y0035812D02*
X0080400Y0036287D01*
X0081351Y0036287D01*
X0081826Y0035812D01*
X0078451Y0028906D02*
X0077500Y0028906D01*
X0077025Y0028430D01*
X0076026Y0028430D02*
X0075550Y0028906D01*
X0074124Y0028906D01*
X0074124Y0026054D01*
X0074124Y0027004D02*
X0075550Y0027004D01*
X0076026Y0027480D01*
X0076026Y0028430D01*
X0075075Y0027004D02*
X0076026Y0026054D01*
X0077025Y0026054D02*
X0078926Y0027955D01*
X0078926Y0028430D01*
X0078451Y0028906D01*
X0078926Y0026054D02*
X0077025Y0026054D01*
X0063874Y0014988D02*
X0063874Y0012136D01*
X0062924Y0012136D02*
X0064825Y0012136D01*
X0062924Y0014038D02*
X0063874Y0014988D01*
X0061925Y0014513D02*
X0061450Y0014988D01*
X0060499Y0014988D01*
X0060024Y0014513D01*
X0060024Y0014038D01*
X0060499Y0013562D01*
X0061450Y0013562D01*
X0061925Y0013087D01*
X0061925Y0012612D01*
X0061450Y0012136D01*
X0060499Y0012136D01*
X0060024Y0012612D01*
X0056646Y0021349D02*
X0055696Y0021349D01*
X0055220Y0021824D01*
X0055696Y0022775D02*
X0057122Y0022775D01*
X0057122Y0021824D02*
X0057122Y0023726D01*
X0056646Y0024201D01*
X0055696Y0024201D01*
X0055220Y0023726D01*
X0055220Y0023250D01*
X0055696Y0022775D01*
X0054222Y0022775D02*
X0054222Y0023726D01*
X0053746Y0024201D01*
X0052320Y0024201D01*
X0052320Y0021349D01*
X0052320Y0022299D02*
X0053746Y0022299D01*
X0054222Y0022775D01*
X0053271Y0022299D02*
X0054222Y0021349D01*
X0056646Y0021349D02*
X0057122Y0021824D01*
X0094472Y0013529D02*
X0094472Y0011627D01*
X0094948Y0011152D01*
X0095898Y0011152D01*
X0096374Y0011627D01*
X0097372Y0011627D02*
X0097848Y0011152D01*
X0098798Y0011152D01*
X0099274Y0011627D01*
X0099274Y0013529D01*
X0098798Y0014004D01*
X0097848Y0014004D01*
X0097372Y0013529D01*
X0097372Y0013053D01*
X0097848Y0012578D01*
X0099274Y0012578D01*
X0096374Y0013529D02*
X0095898Y0014004D01*
X0094948Y0014004D01*
X0094472Y0013529D01*
X0103770Y0016172D02*
X0104983Y0016172D01*
X0104377Y0016172D02*
X0104377Y0019812D01*
X0104983Y0019812D02*
X0103770Y0019812D01*
X0106187Y0019205D02*
X0106187Y0016778D01*
X0106794Y0016172D01*
X0108007Y0016172D01*
X0108614Y0016778D01*
X0109812Y0016172D02*
X0112239Y0016172D01*
X0111025Y0016172D02*
X0111025Y0019812D01*
X0109812Y0018598D01*
X0108614Y0019205D02*
X0108007Y0019812D01*
X0106794Y0019812D01*
X0106187Y0019205D01*
X0123016Y0014513D02*
X0123016Y0014038D01*
X0123491Y0013562D01*
X0124442Y0013562D01*
X0124917Y0013087D01*
X0124917Y0012612D01*
X0124442Y0012136D01*
X0123491Y0012136D01*
X0123016Y0012612D01*
X0123016Y0014513D02*
X0123491Y0014988D01*
X0124442Y0014988D01*
X0124917Y0014513D01*
X0125916Y0014513D02*
X0126391Y0014988D01*
X0127342Y0014988D01*
X0127817Y0014513D01*
X0127817Y0014038D01*
X0125916Y0012136D01*
X0127817Y0012136D01*
X0091909Y0082018D02*
X0090958Y0082018D01*
X0090483Y0082493D01*
X0090483Y0082969D01*
X0090958Y0083444D01*
X0091909Y0083444D01*
X0092384Y0082969D01*
X0092384Y0082493D01*
X0091909Y0082018D01*
X0091909Y0083444D02*
X0092384Y0083919D01*
X0092384Y0084395D01*
X0091909Y0084870D01*
X0090958Y0084870D01*
X0090483Y0084395D01*
X0090483Y0083919D01*
X0090958Y0083444D01*
X0089484Y0083444D02*
X0089009Y0082969D01*
X0087583Y0082969D01*
X0088533Y0082969D02*
X0089484Y0082018D01*
X0087583Y0082018D02*
X0087583Y0084870D01*
X0089009Y0084870D01*
X0089484Y0084395D01*
X0089484Y0083444D01*
D12*
X0014447Y0008994D02*
X0011947Y0008994D01*
X0011947Y0056494D01*
X0036947Y0056494D01*
X0036947Y0008994D01*
X0034447Y0008994D01*
X0034447Y0001494D01*
X0014447Y0001494D02*
X0014447Y0008994D01*
X0049400Y0025825D02*
X0049400Y0030825D01*
X0060400Y0030825D01*
X0060400Y0025825D01*
X0049400Y0025825D01*
X0049400Y0031730D02*
X0049400Y0036730D01*
X0060400Y0036730D01*
X0060400Y0031730D01*
X0049400Y0031730D01*
X0062195Y0031730D02*
X0062195Y0036730D01*
X0073195Y0036730D01*
X0073195Y0031730D01*
X0062195Y0031730D01*
X0062195Y0030825D02*
X0073195Y0030825D01*
X0073195Y0025825D01*
X0062195Y0025825D01*
X0062195Y0030825D01*
X0083443Y0021435D02*
X0107065Y0021435D01*
X0107065Y0045057D01*
X0083443Y0045057D01*
X0083443Y0021435D01*
X0082864Y0015077D02*
X0082864Y0010077D01*
X0093864Y0010077D01*
X0093864Y0015077D01*
X0082864Y0015077D01*
X0117360Y0027746D02*
X0117360Y0038746D01*
X0122360Y0038746D01*
X0122360Y0027746D01*
X0117360Y0027746D01*
X0125427Y0032557D02*
X0140427Y0032557D01*
X0140427Y0057557D01*
X0125427Y0057557D01*
X0120439Y0056415D02*
X0120439Y0051415D01*
X0109439Y0051415D01*
X0109439Y0056415D01*
X0120439Y0056415D01*
X0102675Y0064163D02*
X0097675Y0064163D01*
X0097675Y0075163D01*
X0102675Y0075163D01*
X0102675Y0064163D01*
X0094801Y0064163D02*
X0089801Y0064163D01*
X0089801Y0075163D01*
X0094801Y0075163D01*
X0094801Y0064163D01*
X0086927Y0064163D02*
X0081927Y0064163D01*
X0081927Y0075163D01*
X0086927Y0075163D01*
X0086927Y0064163D01*
X0079053Y0064163D02*
X0074053Y0064163D01*
X0074053Y0075163D01*
X0079053Y0075163D01*
X0079053Y0064163D01*
X0071179Y0064163D02*
X0066179Y0064163D01*
X0066179Y0075163D01*
X0071179Y0075163D01*
X0071179Y0064163D01*
X0063305Y0064163D02*
X0058305Y0064163D01*
X0058305Y0075163D01*
X0063305Y0075163D01*
X0063305Y0064163D01*
X0056415Y0069258D02*
X0056415Y0058258D01*
X0051415Y0058258D01*
X0051415Y0069258D01*
X0056415Y0069258D01*
X0057447Y0055431D02*
X0046447Y0055431D01*
X0046447Y0050431D01*
X0057447Y0050431D01*
X0057447Y0055431D01*
X0061211Y0054447D02*
X0061211Y0049447D01*
X0072211Y0049447D01*
X0072211Y0054447D01*
X0061211Y0054447D01*
X0077943Y0054447D02*
X0077943Y0049447D01*
X0088943Y0049447D01*
X0088943Y0054447D01*
X0077943Y0054447D01*
X0041427Y0045057D02*
X0041440Y0046112D01*
X0041479Y0047167D01*
X0041544Y0048220D01*
X0041634Y0049272D01*
X0041750Y0050321D01*
X0041892Y0051366D01*
X0042060Y0052408D01*
X0042253Y0053446D01*
X0042472Y0054478D01*
X0042716Y0055505D01*
X0042985Y0056526D01*
X0043279Y0057539D01*
X0043597Y0058545D01*
X0043941Y0059543D01*
X0044308Y0060532D01*
X0044700Y0061512D01*
X0045116Y0062482D01*
X0045555Y0063442D01*
X0046018Y0064390D01*
X0046504Y0065327D01*
X0047013Y0066252D01*
X0047545Y0067163D01*
X0048098Y0068062D01*
X0048674Y0068947D01*
X0049271Y0069817D01*
X0049889Y0070672D01*
X0050528Y0071512D01*
X0051188Y0072336D01*
X0051867Y0073143D01*
X0052566Y0073934D01*
X0053284Y0074707D01*
X0054021Y0075463D01*
X0054777Y0076200D01*
X0055550Y0076918D01*
X0056341Y0077617D01*
X0057148Y0078296D01*
X0057972Y0078956D01*
X0058812Y0079595D01*
X0059667Y0080213D01*
X0060537Y0080810D01*
X0061422Y0081386D01*
X0062321Y0081939D01*
X0063232Y0082471D01*
X0064157Y0082980D01*
X0065094Y0083466D01*
X0066042Y0083929D01*
X0067002Y0084368D01*
X0067972Y0084784D01*
X0068952Y0085176D01*
X0069941Y0085543D01*
X0070939Y0085887D01*
X0071945Y0086205D01*
X0072958Y0086499D01*
X0073979Y0086768D01*
X0075006Y0087012D01*
X0076038Y0087231D01*
X0077076Y0087424D01*
X0078118Y0087592D01*
X0079163Y0087734D01*
X0080212Y0087850D01*
X0081264Y0087940D01*
X0082317Y0088005D01*
X0083372Y0088044D01*
X0084427Y0088057D01*
X0085482Y0088044D01*
X0086537Y0088005D01*
X0087590Y0087940D01*
X0088642Y0087850D01*
X0089691Y0087734D01*
X0090736Y0087592D01*
X0091778Y0087424D01*
X0092816Y0087231D01*
X0093848Y0087012D01*
X0094875Y0086768D01*
X0095896Y0086499D01*
X0096909Y0086205D01*
X0097915Y0085887D01*
X0098913Y0085543D01*
X0099902Y0085176D01*
X0100882Y0084784D01*
X0101852Y0084368D01*
X0102812Y0083929D01*
X0103760Y0083466D01*
X0104697Y0082980D01*
X0105622Y0082471D01*
X0106533Y0081939D01*
X0107432Y0081386D01*
X0108317Y0080810D01*
X0109187Y0080213D01*
X0110042Y0079595D01*
X0110882Y0078956D01*
X0111706Y0078296D01*
X0112513Y0077617D01*
X0113304Y0076918D01*
X0114077Y0076200D01*
X0114833Y0075463D01*
X0115570Y0074707D01*
X0116288Y0073934D01*
X0116987Y0073143D01*
X0117666Y0072336D01*
X0118326Y0071512D01*
X0118965Y0070672D01*
X0119583Y0069817D01*
X0120180Y0068947D01*
X0120756Y0068062D01*
X0121309Y0067163D01*
X0121841Y0066252D01*
X0122350Y0065327D01*
X0122836Y0064390D01*
X0123299Y0063442D01*
X0123738Y0062482D01*
X0124154Y0061512D01*
X0124546Y0060532D01*
X0124913Y0059543D01*
X0125257Y0058545D01*
X0125575Y0057539D01*
X0125869Y0056526D01*
X0126138Y0055505D01*
X0126382Y0054478D01*
X0126601Y0053446D01*
X0126794Y0052408D01*
X0126962Y0051366D01*
X0127104Y0050321D01*
X0127220Y0049272D01*
X0127310Y0048220D01*
X0127375Y0047167D01*
X0127414Y0046112D01*
X0127427Y0045057D01*
X0127414Y0044002D01*
X0127375Y0042947D01*
X0127310Y0041894D01*
X0127220Y0040842D01*
X0127104Y0039793D01*
X0126962Y0038748D01*
X0126794Y0037706D01*
X0126601Y0036668D01*
X0126382Y0035636D01*
X0126138Y0034609D01*
X0125869Y0033588D01*
X0125575Y0032575D01*
X0125257Y0031569D01*
X0124913Y0030571D01*
X0124546Y0029582D01*
X0124154Y0028602D01*
X0123738Y0027632D01*
X0123299Y0026672D01*
X0122836Y0025724D01*
X0122350Y0024787D01*
X0121841Y0023862D01*
X0121309Y0022951D01*
X0120756Y0022052D01*
X0120180Y0021167D01*
X0119583Y0020297D01*
X0118965Y0019442D01*
X0118326Y0018602D01*
X0117666Y0017778D01*
X0116987Y0016971D01*
X0116288Y0016180D01*
X0115570Y0015407D01*
X0114833Y0014651D01*
X0114077Y0013914D01*
X0113304Y0013196D01*
X0112513Y0012497D01*
X0111706Y0011818D01*
X0110882Y0011158D01*
X0110042Y0010519D01*
X0109187Y0009901D01*
X0108317Y0009304D01*
X0107432Y0008728D01*
X0106533Y0008175D01*
X0105622Y0007643D01*
X0104697Y0007134D01*
X0103760Y0006648D01*
X0102812Y0006185D01*
X0101852Y0005746D01*
X0100882Y0005330D01*
X0099902Y0004938D01*
X0098913Y0004571D01*
X0097915Y0004227D01*
X0096909Y0003909D01*
X0095896Y0003615D01*
X0094875Y0003346D01*
X0093848Y0003102D01*
X0092816Y0002883D01*
X0091778Y0002690D01*
X0090736Y0002522D01*
X0089691Y0002380D01*
X0088642Y0002264D01*
X0087590Y0002174D01*
X0086537Y0002109D01*
X0085482Y0002070D01*
X0084427Y0002057D01*
X0083372Y0002070D01*
X0082317Y0002109D01*
X0081264Y0002174D01*
X0080212Y0002264D01*
X0079163Y0002380D01*
X0078118Y0002522D01*
X0077076Y0002690D01*
X0076038Y0002883D01*
X0075006Y0003102D01*
X0073979Y0003346D01*
X0072958Y0003615D01*
X0071945Y0003909D01*
X0070939Y0004227D01*
X0069941Y0004571D01*
X0068952Y0004938D01*
X0067972Y0005330D01*
X0067002Y0005746D01*
X0066042Y0006185D01*
X0065094Y0006648D01*
X0064157Y0007134D01*
X0063232Y0007643D01*
X0062321Y0008175D01*
X0061422Y0008728D01*
X0060537Y0009304D01*
X0059667Y0009901D01*
X0058812Y0010519D01*
X0057972Y0011158D01*
X0057148Y0011818D01*
X0056341Y0012497D01*
X0055550Y0013196D01*
X0054777Y0013914D01*
X0054021Y0014651D01*
X0053284Y0015407D01*
X0052566Y0016180D01*
X0051867Y0016971D01*
X0051188Y0017778D01*
X0050528Y0018602D01*
X0049889Y0019442D01*
X0049271Y0020297D01*
X0048674Y0021167D01*
X0048098Y0022052D01*
X0047545Y0022951D01*
X0047013Y0023862D01*
X0046504Y0024787D01*
X0046018Y0025724D01*
X0045555Y0026672D01*
X0045116Y0027632D01*
X0044700Y0028602D01*
X0044308Y0029582D01*
X0043941Y0030571D01*
X0043597Y0031569D01*
X0043279Y0032575D01*
X0042985Y0033588D01*
X0042716Y0034609D01*
X0042472Y0035636D01*
X0042253Y0036668D01*
X0042060Y0037706D01*
X0041892Y0038748D01*
X0041750Y0039793D01*
X0041634Y0040842D01*
X0041544Y0041894D01*
X0041479Y0042947D01*
X0041440Y0044002D01*
X0041427Y0045057D01*
X0074990Y0080943D02*
X0074990Y0085943D01*
X0085990Y0085943D01*
X0085990Y0080943D01*
X0074990Y0080943D01*
D13*
X0070844Y0045057D02*
X0064545Y0045057D01*
X0064482Y0045060D01*
X0064419Y0045061D01*
X0064356Y0045057D01*
X0064293Y0045050D01*
X0064231Y0045039D01*
X0064169Y0045025D01*
X0064109Y0045007D01*
X0064049Y0044986D01*
X0063991Y0044961D01*
X0063934Y0044933D01*
X0063879Y0044901D01*
X0063827Y0044867D01*
X0063776Y0044829D01*
X0063727Y0044788D01*
X0063681Y0044745D01*
X0063637Y0044699D01*
X0063597Y0044651D01*
X0063559Y0044600D01*
X0063524Y0044548D01*
X0063492Y0044493D01*
X0063463Y0044437D01*
X0063438Y0044379D01*
X0063416Y0044319D01*
X0063398Y0044259D01*
X0063383Y0044197D01*
X0063372Y0044135D01*
X0063364Y0044072D01*
X0063364Y0044073D02*
X0063364Y0038167D01*
X0063364Y0038168D02*
X0063372Y0038105D01*
X0063383Y0038043D01*
X0063398Y0037981D01*
X0063416Y0037921D01*
X0063438Y0037861D01*
X0063463Y0037803D01*
X0063492Y0037747D01*
X0063523Y0037692D01*
X0063558Y0037639D01*
X0063596Y0037589D01*
X0063637Y0037540D01*
X0063681Y0037495D01*
X0063727Y0037451D01*
X0063775Y0037411D01*
X0063826Y0037373D01*
X0063879Y0037339D01*
X0063934Y0037307D01*
X0063991Y0037279D01*
X0064049Y0037254D01*
X0064108Y0037233D01*
X0064169Y0037215D01*
X0064231Y0037201D01*
X0064293Y0037190D01*
X0064356Y0037183D01*
X0064419Y0037179D01*
X0064482Y0037180D01*
X0064545Y0037184D01*
X0064545Y0037183D02*
X0070844Y0037183D01*
X0070845Y0037183D02*
X0070908Y0037180D01*
X0070971Y0037179D01*
X0071034Y0037183D01*
X0071097Y0037190D01*
X0071159Y0037201D01*
X0071221Y0037215D01*
X0071281Y0037233D01*
X0071341Y0037254D01*
X0071399Y0037279D01*
X0071456Y0037307D01*
X0071511Y0037339D01*
X0071563Y0037373D01*
X0071614Y0037411D01*
X0071663Y0037452D01*
X0071709Y0037495D01*
X0071753Y0037541D01*
X0071793Y0037589D01*
X0071831Y0037640D01*
X0071866Y0037692D01*
X0071898Y0037747D01*
X0071927Y0037803D01*
X0071952Y0037861D01*
X0071974Y0037921D01*
X0071992Y0037981D01*
X0072007Y0038043D01*
X0072018Y0038105D01*
X0072026Y0038168D01*
X0072026Y0038167D02*
X0072026Y0044073D01*
X0072026Y0044072D02*
X0072018Y0044135D01*
X0072007Y0044197D01*
X0071992Y0044259D01*
X0071974Y0044319D01*
X0071952Y0044379D01*
X0071927Y0044437D01*
X0071898Y0044493D01*
X0071866Y0044548D01*
X0071831Y0044600D01*
X0071793Y0044651D01*
X0071753Y0044699D01*
X0071709Y0044745D01*
X0071663Y0044788D01*
X0071614Y0044829D01*
X0071563Y0044867D01*
X0071511Y0044901D01*
X0071456Y0044933D01*
X0071399Y0044961D01*
X0071341Y0044986D01*
X0071281Y0045007D01*
X0071221Y0045025D01*
X0071159Y0045039D01*
X0071097Y0045050D01*
X0071034Y0045057D01*
X0070971Y0045061D01*
X0070908Y0045060D01*
X0070845Y0045057D01*
X0087354Y0041146D02*
X0087354Y0040046D01*
X0087354Y0041146D02*
X0088454Y0041146D01*
X0102054Y0041146D02*
X0103154Y0041146D01*
X0103154Y0040046D01*
X0103154Y0026446D02*
X0103154Y0025346D01*
X0102054Y0025346D01*
X0088454Y0025346D02*
X0087354Y0025346D01*
X0087354Y0026446D01*
X0022813Y0059821D02*
X0022813Y0065726D01*
X0022805Y0065789D01*
X0022794Y0065851D01*
X0022779Y0065913D01*
X0022761Y0065973D01*
X0022739Y0066033D01*
X0022714Y0066091D01*
X0022685Y0066147D01*
X0022654Y0066202D01*
X0022619Y0066255D01*
X0022581Y0066305D01*
X0022540Y0066354D01*
X0022496Y0066399D01*
X0022450Y0066443D01*
X0022402Y0066483D01*
X0022351Y0066521D01*
X0022298Y0066555D01*
X0022243Y0066587D01*
X0022186Y0066615D01*
X0022128Y0066640D01*
X0022069Y0066661D01*
X0022008Y0066679D01*
X0021946Y0066693D01*
X0021884Y0066704D01*
X0021821Y0066711D01*
X0021758Y0066715D01*
X0021695Y0066714D01*
X0021632Y0066710D01*
X0021632Y0066711D02*
X0015333Y0066711D01*
X0015332Y0066711D02*
X0015269Y0066714D01*
X0015206Y0066715D01*
X0015143Y0066711D01*
X0015080Y0066704D01*
X0015018Y0066693D01*
X0014956Y0066679D01*
X0014896Y0066661D01*
X0014836Y0066640D01*
X0014778Y0066615D01*
X0014721Y0066587D01*
X0014666Y0066555D01*
X0014614Y0066521D01*
X0014563Y0066483D01*
X0014514Y0066442D01*
X0014468Y0066399D01*
X0014424Y0066353D01*
X0014384Y0066305D01*
X0014346Y0066254D01*
X0014311Y0066202D01*
X0014279Y0066147D01*
X0014250Y0066091D01*
X0014225Y0066033D01*
X0014203Y0065973D01*
X0014185Y0065913D01*
X0014170Y0065851D01*
X0014159Y0065789D01*
X0014151Y0065726D01*
X0014152Y0065726D02*
X0014152Y0059821D01*
X0014151Y0059821D02*
X0014159Y0059758D01*
X0014170Y0059696D01*
X0014185Y0059634D01*
X0014203Y0059574D01*
X0014225Y0059514D01*
X0014250Y0059456D01*
X0014279Y0059400D01*
X0014311Y0059345D01*
X0014346Y0059293D01*
X0014384Y0059242D01*
X0014424Y0059194D01*
X0014468Y0059148D01*
X0014514Y0059105D01*
X0014563Y0059064D01*
X0014614Y0059026D01*
X0014666Y0058992D01*
X0014721Y0058960D01*
X0014778Y0058932D01*
X0014836Y0058907D01*
X0014896Y0058886D01*
X0014956Y0058868D01*
X0015018Y0058854D01*
X0015080Y0058843D01*
X0015143Y0058836D01*
X0015206Y0058832D01*
X0015269Y0058833D01*
X0015332Y0058836D01*
X0015333Y0058837D02*
X0021632Y0058837D01*
X0021632Y0058836D02*
X0021695Y0058833D01*
X0021758Y0058832D01*
X0021821Y0058836D01*
X0021884Y0058843D01*
X0021946Y0058854D01*
X0022008Y0058868D01*
X0022068Y0058886D01*
X0022128Y0058907D01*
X0022186Y0058932D01*
X0022243Y0058960D01*
X0022298Y0058992D01*
X0022350Y0059026D01*
X0022401Y0059064D01*
X0022450Y0059105D01*
X0022496Y0059148D01*
X0022540Y0059194D01*
X0022580Y0059242D01*
X0022618Y0059293D01*
X0022653Y0059345D01*
X0022685Y0059400D01*
X0022714Y0059456D01*
X0022739Y0059514D01*
X0022761Y0059574D01*
X0022779Y0059634D01*
X0022794Y0059696D01*
X0022805Y0059758D01*
X0022813Y0059821D01*
D14*
X0086396Y0024388D03*
D15*
X0075963Y0014742D02*
X0075963Y0012380D01*
X0073404Y0008443D02*
X0052144Y0008443D01*
X0049585Y0012380D02*
X0049585Y0014742D01*
X0056868Y0018679D02*
X0062774Y0018679D01*
X0112577Y0014742D02*
X0112577Y0012380D01*
X0115136Y0008443D02*
X0136396Y0008443D01*
X0138955Y0012380D02*
X0138955Y0014742D01*
X0125766Y0018679D02*
X0119860Y0018679D01*
D16*
X0026422Y0019076D02*
X0024588Y0019076D01*
X0025505Y0019076D02*
X0025505Y0021828D01*
X0024588Y0020911D01*
X0023522Y0021828D02*
X0022605Y0021828D01*
X0023064Y0021828D02*
X0023064Y0019535D01*
X0022605Y0019076D01*
X0022146Y0019076D01*
X0021688Y0019535D01*
D17*
X0064006Y0034920D02*
X0064256Y0034670D01*
X0064756Y0034670D01*
X0065006Y0034920D01*
X0065006Y0035170D01*
X0064756Y0035421D01*
X0064256Y0035421D01*
X0064006Y0035671D01*
X0064006Y0035921D01*
X0064256Y0036171D01*
X0064756Y0036171D01*
X0065006Y0035921D01*
X0065479Y0035921D02*
X0065479Y0034920D01*
X0065729Y0034670D01*
X0066229Y0034670D01*
X0066480Y0034920D01*
X0066480Y0035921D01*
X0066229Y0036171D01*
X0065729Y0036171D01*
X0065479Y0035921D01*
X0066952Y0036171D02*
X0066952Y0034670D01*
X0067953Y0034670D01*
X0068425Y0034670D02*
X0069176Y0034670D01*
X0069426Y0034920D01*
X0069426Y0035921D01*
X0069176Y0036171D01*
X0068425Y0036171D01*
X0068425Y0034670D01*
X0069899Y0034670D02*
X0070899Y0034670D01*
X0071372Y0034670D02*
X0071372Y0036171D01*
X0072122Y0036171D01*
X0072373Y0035921D01*
X0072373Y0035421D01*
X0072122Y0035170D01*
X0071372Y0035170D01*
X0071872Y0035170D02*
X0072373Y0034670D01*
X0072845Y0034920D02*
X0073095Y0034670D01*
X0073345Y0034670D01*
X0073596Y0034920D01*
X0073596Y0036171D01*
X0073846Y0036171D02*
X0073345Y0036171D01*
X0074318Y0036171D02*
X0074318Y0034920D01*
X0074568Y0034670D01*
X0075069Y0034670D01*
X0075319Y0034920D01*
X0075319Y0036171D01*
X0075792Y0036171D02*
X0076292Y0035671D01*
X0076792Y0036171D01*
X0076792Y0034670D01*
X0077265Y0034670D02*
X0077265Y0036171D01*
X0078015Y0036171D01*
X0078266Y0035921D01*
X0078266Y0035421D01*
X0078015Y0035170D01*
X0077265Y0035170D01*
X0078738Y0035421D02*
X0079238Y0035421D01*
X0078738Y0036171D02*
X0078738Y0034670D01*
X0079739Y0034670D01*
X0080211Y0034670D02*
X0080211Y0036171D01*
X0080962Y0036171D01*
X0081212Y0035921D01*
X0081212Y0035421D01*
X0080962Y0035170D01*
X0080211Y0035170D01*
X0080712Y0035170D02*
X0081212Y0034670D01*
X0081685Y0034670D02*
X0081685Y0036171D01*
X0082685Y0034670D01*
X0082685Y0036171D01*
X0083158Y0035921D02*
X0083158Y0034920D01*
X0083408Y0034670D01*
X0083908Y0034670D01*
X0084159Y0034920D01*
X0084159Y0035921D02*
X0083908Y0036171D01*
X0083408Y0036171D01*
X0083158Y0035921D01*
X0079739Y0036171D02*
X0078738Y0036171D01*
X0075792Y0036171D02*
X0075792Y0034670D01*
X0070899Y0036171D02*
X0069899Y0036171D01*
X0069899Y0034670D01*
X0069899Y0035421D02*
X0070399Y0035421D01*
X0067953Y0046170D02*
X0066952Y0046170D01*
X0067452Y0046170D02*
X0067452Y0047671D01*
X0066952Y0047171D01*
X0066480Y0047671D02*
X0065979Y0047671D01*
X0066229Y0047671D02*
X0066229Y0046420D01*
X0065979Y0046170D01*
X0065729Y0046170D01*
X0065479Y0046420D01*
X0065006Y0046420D02*
X0064756Y0046170D01*
X0064256Y0046170D01*
X0064006Y0046420D01*
X0064256Y0046921D02*
X0064006Y0047171D01*
X0064006Y0047421D01*
X0064256Y0047671D01*
X0064756Y0047671D01*
X0065006Y0047421D01*
X0064756Y0046921D02*
X0065006Y0046670D01*
X0065006Y0046420D01*
X0064756Y0046921D02*
X0064256Y0046921D01*
X0021799Y0067974D02*
X0021549Y0067724D01*
X0021049Y0067724D01*
X0020798Y0067974D01*
X0020798Y0068975D01*
X0021049Y0069225D01*
X0021549Y0069225D01*
X0021799Y0068975D01*
X0020326Y0069225D02*
X0020326Y0067724D01*
X0019325Y0069225D01*
X0019325Y0067724D01*
X0018853Y0067724D02*
X0018352Y0068224D01*
X0018602Y0068224D02*
X0017852Y0068224D01*
X0017852Y0067724D02*
X0017852Y0069225D01*
X0018602Y0069225D01*
X0018853Y0068975D01*
X0018853Y0068474D01*
X0018602Y0068224D01*
X0017379Y0067724D02*
X0016379Y0067724D01*
X0016379Y0069225D01*
X0017379Y0069225D01*
X0016879Y0068474D02*
X0016379Y0068474D01*
X0015906Y0068474D02*
X0015656Y0068224D01*
X0014905Y0068224D01*
X0014905Y0067724D02*
X0014905Y0069225D01*
X0015656Y0069225D01*
X0015906Y0068975D01*
X0015906Y0068474D01*
X0014433Y0067724D02*
X0014433Y0069225D01*
X0013932Y0068724D01*
X0013432Y0069225D01*
X0013432Y0067724D01*
X0012960Y0067974D02*
X0012960Y0069225D01*
X0011959Y0069225D02*
X0011959Y0067974D01*
X0012209Y0067724D01*
X0012709Y0067724D01*
X0012960Y0067974D01*
X0011236Y0067974D02*
X0011236Y0069225D01*
X0010986Y0069225D02*
X0011486Y0069225D01*
X0011236Y0067974D02*
X0010986Y0067724D01*
X0010736Y0067724D01*
X0010486Y0067974D01*
X0010013Y0067724D02*
X0009513Y0068224D01*
X0009763Y0068224D02*
X0009012Y0068224D01*
X0009012Y0067724D02*
X0009012Y0069225D01*
X0009763Y0069225D01*
X0010013Y0068975D01*
X0010013Y0068474D01*
X0009763Y0068224D01*
X0008540Y0067724D02*
X0007539Y0067724D01*
X0007539Y0069225D01*
X0008540Y0069225D01*
X0008039Y0068474D02*
X0007539Y0068474D01*
X0007067Y0067974D02*
X0007067Y0068975D01*
X0006816Y0069225D01*
X0006066Y0069225D01*
X0006066Y0067724D01*
X0006816Y0067724D01*
X0007067Y0067974D01*
X0005593Y0067724D02*
X0004593Y0067724D01*
X0004593Y0069225D01*
X0004120Y0068975D02*
X0004120Y0067974D01*
X0003870Y0067724D01*
X0003369Y0067724D01*
X0003119Y0067974D01*
X0003119Y0068975D01*
X0003369Y0069225D01*
X0003870Y0069225D01*
X0004120Y0068975D01*
X0002647Y0068975D02*
X0002397Y0069225D01*
X0001896Y0069225D01*
X0001646Y0068975D01*
X0001646Y0068724D01*
X0001896Y0068474D01*
X0002397Y0068474D01*
X0002647Y0068224D01*
X0002647Y0067974D01*
X0002397Y0067724D01*
X0001896Y0067724D01*
X0001646Y0067974D01*
M02*
