G75*
%MOIN*%
%OFA0B0*%
%FSLAX25Y25*%
%IPPOS*%
%LPD*%
%AMOC8*
5,1,8,0,0,1.08239X$1,22.5*
%
%ADD10C,0.00875*%
%ADD11R,0.01181X0.04724*%
%ADD12R,0.04724X0.01181*%
%ADD13R,0.04724X0.01200*%
%ADD14R,0.08000X0.08000*%
%ADD15R,0.07874X0.05906*%
%ADD16R,0.02756X0.05906*%
%ADD17R,0.03937X0.02362*%
%ADD18R,0.03937X0.03150*%
%ADD19R,0.13000X0.05000*%
%ADD20R,0.09000X0.05000*%
%ADD21R,0.11000X0.05000*%
%ADD22R,0.02500X0.05000*%
%ADD23R,0.09600X0.09000*%
D10*
X0050587Y0029638D02*
X0053213Y0029638D01*
X0053213Y0027012D01*
X0050587Y0027012D01*
X0050587Y0029638D01*
X0050587Y0027886D02*
X0053213Y0027886D01*
X0053213Y0028760D02*
X0050587Y0028760D01*
X0050587Y0029634D02*
X0053213Y0029634D01*
X0056587Y0029638D02*
X0059213Y0029638D01*
X0059213Y0027012D01*
X0056587Y0027012D01*
X0056587Y0029638D01*
X0056587Y0027886D02*
X0059213Y0027886D01*
X0059213Y0028760D02*
X0056587Y0028760D01*
X0056587Y0029634D02*
X0059213Y0029634D01*
X0059213Y0032917D02*
X0056587Y0032917D01*
X0056587Y0035543D01*
X0059213Y0035543D01*
X0059213Y0032917D01*
X0059213Y0033791D02*
X0056587Y0033791D01*
X0056587Y0034665D02*
X0059213Y0034665D01*
X0059213Y0035539D02*
X0056587Y0035539D01*
X0053213Y0032917D02*
X0050587Y0032917D01*
X0050587Y0035543D01*
X0053213Y0035543D01*
X0053213Y0032917D01*
X0053213Y0033791D02*
X0050587Y0033791D01*
X0050587Y0034665D02*
X0053213Y0034665D01*
X0053213Y0035539D02*
X0050587Y0035539D01*
X0063382Y0035543D02*
X0066008Y0035543D01*
X0066008Y0032917D01*
X0063382Y0032917D01*
X0063382Y0035543D01*
X0063382Y0033791D02*
X0066008Y0033791D01*
X0066008Y0034665D02*
X0063382Y0034665D01*
X0063382Y0035539D02*
X0066008Y0035539D01*
X0069382Y0035543D02*
X0072008Y0035543D01*
X0072008Y0032917D01*
X0069382Y0032917D01*
X0069382Y0035543D01*
X0069382Y0033791D02*
X0072008Y0033791D01*
X0072008Y0034665D02*
X0069382Y0034665D01*
X0069382Y0035539D02*
X0072008Y0035539D01*
X0072008Y0029638D02*
X0069382Y0029638D01*
X0072008Y0029638D02*
X0072008Y0027012D01*
X0069382Y0027012D01*
X0069382Y0029638D01*
X0069382Y0027886D02*
X0072008Y0027886D01*
X0072008Y0028760D02*
X0069382Y0028760D01*
X0069382Y0029634D02*
X0072008Y0029634D01*
X0066008Y0029638D02*
X0063382Y0029638D01*
X0066008Y0029638D02*
X0066008Y0027012D01*
X0063382Y0027012D01*
X0063382Y0029638D01*
X0063382Y0027886D02*
X0066008Y0027886D01*
X0066008Y0028760D02*
X0063382Y0028760D01*
X0063382Y0029634D02*
X0066008Y0029634D01*
X0084051Y0011264D02*
X0086677Y0011264D01*
X0084051Y0011264D02*
X0084051Y0013890D01*
X0086677Y0013890D01*
X0086677Y0011264D01*
X0086677Y0012138D02*
X0084051Y0012138D01*
X0084051Y0013012D02*
X0086677Y0013012D01*
X0086677Y0013886D02*
X0084051Y0013886D01*
X0090051Y0011264D02*
X0092677Y0011264D01*
X0090051Y0011264D02*
X0090051Y0013890D01*
X0092677Y0013890D01*
X0092677Y0011264D01*
X0092677Y0012138D02*
X0090051Y0012138D01*
X0090051Y0013012D02*
X0092677Y0013012D01*
X0092677Y0013886D02*
X0090051Y0013886D01*
X0118547Y0028933D02*
X0118547Y0031559D01*
X0121173Y0031559D01*
X0121173Y0028933D01*
X0118547Y0028933D01*
X0118547Y0029807D02*
X0121173Y0029807D01*
X0121173Y0030681D02*
X0118547Y0030681D01*
X0118547Y0031555D02*
X0121173Y0031555D01*
X0118547Y0034933D02*
X0118547Y0037559D01*
X0121173Y0037559D01*
X0121173Y0034933D01*
X0118547Y0034933D01*
X0118547Y0035807D02*
X0121173Y0035807D01*
X0121173Y0036681D02*
X0118547Y0036681D01*
X0118547Y0037555D02*
X0121173Y0037555D01*
X0119252Y0055228D02*
X0116626Y0055228D01*
X0119252Y0055228D02*
X0119252Y0052602D01*
X0116626Y0052602D01*
X0116626Y0055228D01*
X0116626Y0053476D02*
X0119252Y0053476D01*
X0119252Y0054350D02*
X0116626Y0054350D01*
X0116626Y0055224D02*
X0119252Y0055224D01*
X0113252Y0055228D02*
X0110626Y0055228D01*
X0113252Y0055228D02*
X0113252Y0052602D01*
X0110626Y0052602D01*
X0110626Y0055228D01*
X0110626Y0053476D02*
X0113252Y0053476D01*
X0113252Y0054350D02*
X0110626Y0054350D01*
X0110626Y0055224D02*
X0113252Y0055224D01*
X0101488Y0065350D02*
X0101488Y0067976D01*
X0101488Y0065350D02*
X0098862Y0065350D01*
X0098862Y0067976D01*
X0101488Y0067976D01*
X0101488Y0066224D02*
X0098862Y0066224D01*
X0098862Y0067098D02*
X0101488Y0067098D01*
X0101488Y0067972D02*
X0098862Y0067972D01*
X0101488Y0071350D02*
X0101488Y0073976D01*
X0101488Y0071350D02*
X0098862Y0071350D01*
X0098862Y0073976D01*
X0101488Y0073976D01*
X0101488Y0072224D02*
X0098862Y0072224D01*
X0098862Y0073098D02*
X0101488Y0073098D01*
X0101488Y0073972D02*
X0098862Y0073972D01*
X0093614Y0073976D02*
X0093614Y0071350D01*
X0090988Y0071350D01*
X0090988Y0073976D01*
X0093614Y0073976D01*
X0093614Y0072224D02*
X0090988Y0072224D01*
X0090988Y0073098D02*
X0093614Y0073098D01*
X0093614Y0073972D02*
X0090988Y0073972D01*
X0085740Y0073976D02*
X0085740Y0071350D01*
X0083114Y0071350D01*
X0083114Y0073976D01*
X0085740Y0073976D01*
X0085740Y0072224D02*
X0083114Y0072224D01*
X0083114Y0073098D02*
X0085740Y0073098D01*
X0085740Y0073972D02*
X0083114Y0073972D01*
X0075240Y0073976D02*
X0075240Y0071350D01*
X0075240Y0073976D02*
X0077866Y0073976D01*
X0077866Y0071350D01*
X0075240Y0071350D01*
X0075240Y0072224D02*
X0077866Y0072224D01*
X0077866Y0073098D02*
X0075240Y0073098D01*
X0075240Y0073972D02*
X0077866Y0073972D01*
X0067366Y0073976D02*
X0067366Y0071350D01*
X0067366Y0073976D02*
X0069992Y0073976D01*
X0069992Y0071350D01*
X0067366Y0071350D01*
X0067366Y0072224D02*
X0069992Y0072224D01*
X0069992Y0073098D02*
X0067366Y0073098D01*
X0067366Y0073972D02*
X0069992Y0073972D01*
X0059492Y0073976D02*
X0059492Y0071350D01*
X0059492Y0073976D02*
X0062118Y0073976D01*
X0062118Y0071350D01*
X0059492Y0071350D01*
X0059492Y0072224D02*
X0062118Y0072224D01*
X0062118Y0073098D02*
X0059492Y0073098D01*
X0059492Y0073972D02*
X0062118Y0073972D01*
X0059492Y0067976D02*
X0059492Y0065350D01*
X0059492Y0067976D02*
X0062118Y0067976D01*
X0062118Y0065350D01*
X0059492Y0065350D01*
X0059492Y0066224D02*
X0062118Y0066224D01*
X0062118Y0067098D02*
X0059492Y0067098D01*
X0059492Y0067972D02*
X0062118Y0067972D01*
X0067366Y0067976D02*
X0067366Y0065350D01*
X0067366Y0067976D02*
X0069992Y0067976D01*
X0069992Y0065350D01*
X0067366Y0065350D01*
X0067366Y0066224D02*
X0069992Y0066224D01*
X0069992Y0067098D02*
X0067366Y0067098D01*
X0067366Y0067972D02*
X0069992Y0067972D01*
X0075240Y0067976D02*
X0075240Y0065350D01*
X0075240Y0067976D02*
X0077866Y0067976D01*
X0077866Y0065350D01*
X0075240Y0065350D01*
X0075240Y0066224D02*
X0077866Y0066224D01*
X0077866Y0067098D02*
X0075240Y0067098D01*
X0075240Y0067972D02*
X0077866Y0067972D01*
X0085740Y0067976D02*
X0085740Y0065350D01*
X0083114Y0065350D01*
X0083114Y0067976D01*
X0085740Y0067976D01*
X0085740Y0066224D02*
X0083114Y0066224D01*
X0083114Y0067098D02*
X0085740Y0067098D01*
X0085740Y0067972D02*
X0083114Y0067972D01*
X0093614Y0067976D02*
X0093614Y0065350D01*
X0090988Y0065350D01*
X0090988Y0067976D01*
X0093614Y0067976D01*
X0093614Y0066224D02*
X0090988Y0066224D01*
X0090988Y0067098D02*
X0093614Y0067098D01*
X0093614Y0067972D02*
X0090988Y0067972D01*
X0087756Y0053260D02*
X0085130Y0053260D01*
X0087756Y0053260D02*
X0087756Y0050634D01*
X0085130Y0050634D01*
X0085130Y0053260D01*
X0085130Y0051508D02*
X0087756Y0051508D01*
X0087756Y0052382D02*
X0085130Y0052382D01*
X0085130Y0053256D02*
X0087756Y0053256D01*
X0081756Y0053260D02*
X0079130Y0053260D01*
X0081756Y0053260D02*
X0081756Y0050634D01*
X0079130Y0050634D01*
X0079130Y0053260D01*
X0079130Y0051508D02*
X0081756Y0051508D01*
X0081756Y0052382D02*
X0079130Y0052382D01*
X0079130Y0053256D02*
X0081756Y0053256D01*
X0071024Y0050634D02*
X0068398Y0050634D01*
X0068398Y0053260D01*
X0071024Y0053260D01*
X0071024Y0050634D01*
X0071024Y0051508D02*
X0068398Y0051508D01*
X0068398Y0052382D02*
X0071024Y0052382D01*
X0071024Y0053256D02*
X0068398Y0053256D01*
X0065024Y0050634D02*
X0062398Y0050634D01*
X0062398Y0053260D01*
X0065024Y0053260D01*
X0065024Y0050634D01*
X0065024Y0051508D02*
X0062398Y0051508D01*
X0062398Y0052382D02*
X0065024Y0052382D01*
X0065024Y0053256D02*
X0062398Y0053256D01*
X0056260Y0051618D02*
X0053634Y0051618D01*
X0053634Y0054244D01*
X0056260Y0054244D01*
X0056260Y0051618D01*
X0056260Y0052492D02*
X0053634Y0052492D01*
X0053634Y0053366D02*
X0056260Y0053366D01*
X0056260Y0054240D02*
X0053634Y0054240D01*
X0050260Y0051618D02*
X0047634Y0051618D01*
X0047634Y0054244D01*
X0050260Y0054244D01*
X0050260Y0051618D01*
X0050260Y0052492D02*
X0047634Y0052492D01*
X0047634Y0053366D02*
X0050260Y0053366D01*
X0050260Y0054240D02*
X0047634Y0054240D01*
X0055228Y0059445D02*
X0055228Y0062071D01*
X0055228Y0059445D02*
X0052602Y0059445D01*
X0052602Y0062071D01*
X0055228Y0062071D01*
X0055228Y0060319D02*
X0052602Y0060319D01*
X0052602Y0061193D02*
X0055228Y0061193D01*
X0055228Y0062067D02*
X0052602Y0062067D01*
X0055228Y0065445D02*
X0055228Y0068071D01*
X0055228Y0065445D02*
X0052602Y0065445D01*
X0052602Y0068071D01*
X0055228Y0068071D01*
X0055228Y0066319D02*
X0052602Y0066319D01*
X0052602Y0067193D02*
X0055228Y0067193D01*
X0055228Y0068067D02*
X0052602Y0068067D01*
X0076177Y0084756D02*
X0078803Y0084756D01*
X0078803Y0082130D01*
X0076177Y0082130D01*
X0076177Y0084756D01*
X0076177Y0083004D02*
X0078803Y0083004D01*
X0078803Y0083878D02*
X0076177Y0083878D01*
X0076177Y0084752D02*
X0078803Y0084752D01*
X0082177Y0084756D02*
X0084803Y0084756D01*
X0084803Y0082130D01*
X0082177Y0082130D01*
X0082177Y0084756D01*
X0082177Y0083004D02*
X0084803Y0083004D01*
X0084803Y0083878D02*
X0082177Y0083878D01*
X0082177Y0084752D02*
X0084803Y0084752D01*
D11*
X0090354Y0041907D03*
X0092254Y0041907D03*
X0094254Y0041907D03*
X0096254Y0041907D03*
X0098254Y0041907D03*
X0100154Y0041907D03*
X0100154Y0024585D03*
X0098254Y0024585D03*
X0096254Y0024585D03*
X0094254Y0024585D03*
X0092254Y0024585D03*
X0090354Y0024585D03*
D12*
X0086593Y0032246D03*
X0086593Y0034246D03*
X0086593Y0036246D03*
X0086593Y0038146D03*
X0103915Y0038146D03*
X0103915Y0036246D03*
X0103915Y0034246D03*
X0103915Y0032246D03*
X0103915Y0030246D03*
X0103915Y0028346D03*
D13*
X0086593Y0028346D03*
X0086593Y0030246D03*
D14*
X0095254Y0033246D03*
D15*
X0137577Y0054900D03*
X0137577Y0065726D03*
X0135608Y0083443D03*
X0124781Y0083443D03*
X0113955Y0083443D03*
X0054250Y0083502D03*
X0044250Y0083502D03*
X0034250Y0083502D03*
X0024250Y0083502D03*
X0014250Y0083502D03*
D16*
X0053915Y0020451D03*
X0065726Y0020451D03*
X0071632Y0020451D03*
X0116907Y0020451D03*
X0128719Y0020451D03*
X0134624Y0020451D03*
D17*
X0140136Y0009624D03*
X0111396Y0009624D03*
X0077144Y0009624D03*
X0048404Y0009624D03*
D18*
X0048404Y0017892D03*
X0077144Y0017892D03*
X0111396Y0017892D03*
X0140136Y0017892D03*
D19*
X0010947Y0053994D03*
D20*
X0008947Y0045994D03*
X0039947Y0049994D03*
X0039947Y0031494D03*
X0039947Y0019494D03*
D21*
X0009947Y0019994D03*
D22*
X0066073Y0041120D03*
X0069317Y0041120D03*
X0020104Y0062774D03*
X0016861Y0062774D03*
D23*
X0018482Y0062774D03*
X0067695Y0041120D03*
M02*
