G75*
%MOIN*%
%OFA0B0*%
%FSLAX24Y24*%
%IPPOS*%
%LPD*%
%AMOC8*
5,1,8,0,0,1.08239X$1,22.5*
%
%ADD10C,0.0088*%
%ADD11R,0.0118X0.0472*%
%ADD12R,0.0472X0.0118*%
%ADD13R,0.0472X0.0120*%
%ADD14R,0.0800X0.0800*%
%ADD15R,0.0787X0.0591*%
%ADD16R,0.0276X0.0591*%
%ADD17R,0.0394X0.0236*%
%ADD18R,0.0394X0.0315*%
%ADD19R,0.1300X0.0500*%
%ADD20R,0.0900X0.0500*%
%ADD21R,0.1100X0.0500*%
%ADD22R,0.0250X0.0500*%
%ADD23R,0.0960X0.0900*%
D10*
X005059Y002963D02*
X005321Y002963D01*
X005321Y002701D01*
X005059Y002701D01*
X005059Y002963D01*
X005059Y002788D02*
X005321Y002788D01*
X005321Y002875D02*
X005059Y002875D01*
X005059Y002962D02*
X005321Y002962D01*
X005659Y002963D02*
X005921Y002963D01*
X005921Y002701D01*
X005659Y002701D01*
X005659Y002963D01*
X005659Y002788D02*
X005921Y002788D01*
X005921Y002875D02*
X005659Y002875D01*
X005659Y002962D02*
X005921Y002962D01*
X005921Y003292D02*
X005659Y003292D01*
X005659Y003554D01*
X005921Y003554D01*
X005921Y003292D01*
X005921Y003379D02*
X005659Y003379D01*
X005659Y003466D02*
X005921Y003466D01*
X005921Y003553D02*
X005659Y003553D01*
X005321Y003292D02*
X005059Y003292D01*
X005059Y003554D01*
X005321Y003554D01*
X005321Y003292D01*
X005321Y003379D02*
X005059Y003379D01*
X005059Y003466D02*
X005321Y003466D01*
X005321Y003553D02*
X005059Y003553D01*
X006338Y003554D02*
X006600Y003554D01*
X006600Y003292D01*
X006338Y003292D01*
X006338Y003554D01*
X006338Y003379D02*
X006600Y003379D01*
X006600Y003466D02*
X006338Y003466D01*
X006338Y003553D02*
X006600Y003553D01*
X006938Y003554D02*
X007200Y003554D01*
X007200Y003292D01*
X006938Y003292D01*
X006938Y003554D01*
X006938Y003379D02*
X007200Y003379D01*
X007200Y003466D02*
X006938Y003466D01*
X006938Y003553D02*
X007200Y003553D01*
X007200Y002963D02*
X006938Y002963D01*
X007200Y002963D02*
X007200Y002701D01*
X006938Y002701D01*
X006938Y002963D01*
X006938Y002788D02*
X007200Y002788D01*
X007200Y002875D02*
X006938Y002875D01*
X006938Y002962D02*
X007200Y002962D01*
X006600Y002963D02*
X006338Y002963D01*
X006600Y002963D02*
X006600Y002701D01*
X006338Y002701D01*
X006338Y002963D01*
X006338Y002788D02*
X006600Y002788D01*
X006600Y002875D02*
X006338Y002875D01*
X006338Y002962D02*
X006600Y002962D01*
X008405Y001127D02*
X008667Y001127D01*
X008405Y001127D02*
X008405Y001389D01*
X008667Y001389D01*
X008667Y001127D01*
X008667Y001214D02*
X008405Y001214D01*
X008405Y001301D02*
X008667Y001301D01*
X008667Y001388D02*
X008405Y001388D01*
X009005Y001127D02*
X009267Y001127D01*
X009005Y001127D02*
X009005Y001389D01*
X009267Y001389D01*
X009267Y001127D01*
X009267Y001214D02*
X009005Y001214D01*
X009005Y001301D02*
X009267Y001301D01*
X009267Y001388D02*
X009005Y001388D01*
X011855Y002894D02*
X011855Y003156D01*
X012117Y003156D01*
X012117Y002894D01*
X011855Y002894D01*
X011855Y002981D02*
X012117Y002981D01*
X012117Y003068D02*
X011855Y003068D01*
X011855Y003155D02*
X012117Y003155D01*
X011855Y003494D02*
X011855Y003756D01*
X012117Y003756D01*
X012117Y003494D01*
X011855Y003494D01*
X011855Y003581D02*
X012117Y003581D01*
X012117Y003668D02*
X011855Y003668D01*
X011855Y003755D02*
X012117Y003755D01*
X011925Y005523D02*
X011663Y005523D01*
X011925Y005523D02*
X011925Y005261D01*
X011663Y005261D01*
X011663Y005523D01*
X011663Y005348D02*
X011925Y005348D01*
X011925Y005435D02*
X011663Y005435D01*
X011663Y005522D02*
X011925Y005522D01*
X011325Y005523D02*
X011063Y005523D01*
X011325Y005523D02*
X011325Y005261D01*
X011063Y005261D01*
X011063Y005523D01*
X011063Y005348D02*
X011325Y005348D01*
X011325Y005435D02*
X011063Y005435D01*
X011063Y005522D02*
X011325Y005522D01*
X010149Y006535D02*
X010149Y006797D01*
X010149Y006535D02*
X009887Y006535D01*
X009887Y006797D01*
X010149Y006797D01*
X010149Y006622D02*
X009887Y006622D01*
X009887Y006709D02*
X010149Y006709D01*
X010149Y006796D02*
X009887Y006796D01*
X010149Y007135D02*
X010149Y007397D01*
X010149Y007135D02*
X009887Y007135D01*
X009887Y007397D01*
X010149Y007397D01*
X010149Y007222D02*
X009887Y007222D01*
X009887Y007309D02*
X010149Y007309D01*
X010149Y007396D02*
X009887Y007396D01*
X009361Y007397D02*
X009361Y007135D01*
X009099Y007135D01*
X009099Y007397D01*
X009361Y007397D01*
X009361Y007222D02*
X009099Y007222D01*
X009099Y007309D02*
X009361Y007309D01*
X009361Y007396D02*
X009099Y007396D01*
X008574Y007397D02*
X008574Y007135D01*
X008312Y007135D01*
X008312Y007397D01*
X008574Y007397D01*
X008574Y007222D02*
X008312Y007222D01*
X008312Y007309D02*
X008574Y007309D01*
X008574Y007396D02*
X008312Y007396D01*
X007524Y007397D02*
X007524Y007135D01*
X007524Y007397D02*
X007786Y007397D01*
X007786Y007135D01*
X007524Y007135D01*
X007524Y007222D02*
X007786Y007222D01*
X007786Y007309D02*
X007524Y007309D01*
X007524Y007396D02*
X007786Y007396D01*
X006737Y007397D02*
X006737Y007135D01*
X006737Y007397D02*
X006999Y007397D01*
X006999Y007135D01*
X006737Y007135D01*
X006737Y007222D02*
X006999Y007222D01*
X006999Y007309D02*
X006737Y007309D01*
X006737Y007396D02*
X006999Y007396D01*
X005950Y007397D02*
X005950Y007135D01*
X005950Y007397D02*
X006212Y007397D01*
X006212Y007135D01*
X005950Y007135D01*
X005950Y007222D02*
X006212Y007222D01*
X006212Y007309D02*
X005950Y007309D01*
X005950Y007396D02*
X006212Y007396D01*
X005950Y006797D02*
X005950Y006535D01*
X005950Y006797D02*
X006212Y006797D01*
X006212Y006535D01*
X005950Y006535D01*
X005950Y006622D02*
X006212Y006622D01*
X006212Y006709D02*
X005950Y006709D01*
X005950Y006796D02*
X006212Y006796D01*
X006737Y006797D02*
X006737Y006535D01*
X006737Y006797D02*
X006999Y006797D01*
X006999Y006535D01*
X006737Y006535D01*
X006737Y006622D02*
X006999Y006622D01*
X006999Y006709D02*
X006737Y006709D01*
X006737Y006796D02*
X006999Y006796D01*
X007524Y006797D02*
X007524Y006535D01*
X007524Y006797D02*
X007786Y006797D01*
X007786Y006535D01*
X007524Y006535D01*
X007524Y006622D02*
X007786Y006622D01*
X007786Y006709D02*
X007524Y006709D01*
X007524Y006796D02*
X007786Y006796D01*
X008574Y006797D02*
X008574Y006535D01*
X008312Y006535D01*
X008312Y006797D01*
X008574Y006797D01*
X008574Y006622D02*
X008312Y006622D01*
X008312Y006709D02*
X008574Y006709D01*
X008574Y006796D02*
X008312Y006796D01*
X009361Y006797D02*
X009361Y006535D01*
X009099Y006535D01*
X009099Y006797D01*
X009361Y006797D01*
X009361Y006622D02*
X009099Y006622D01*
X009099Y006709D02*
X009361Y006709D01*
X009361Y006796D02*
X009099Y006796D01*
X008775Y005326D02*
X008513Y005326D01*
X008775Y005326D02*
X008775Y005064D01*
X008513Y005064D01*
X008513Y005326D01*
X008513Y005151D02*
X008775Y005151D01*
X008775Y005238D02*
X008513Y005238D01*
X008513Y005325D02*
X008775Y005325D01*
X008175Y005326D02*
X007913Y005326D01*
X008175Y005326D02*
X008175Y005064D01*
X007913Y005064D01*
X007913Y005326D01*
X007913Y005151D02*
X008175Y005151D01*
X008175Y005238D02*
X007913Y005238D01*
X007913Y005325D02*
X008175Y005325D01*
X007102Y005064D02*
X006840Y005064D01*
X006840Y005326D01*
X007102Y005326D01*
X007102Y005064D01*
X007102Y005151D02*
X006840Y005151D01*
X006840Y005238D02*
X007102Y005238D01*
X007102Y005325D02*
X006840Y005325D01*
X006502Y005064D02*
X006240Y005064D01*
X006240Y005326D01*
X006502Y005326D01*
X006502Y005064D01*
X006502Y005151D02*
X006240Y005151D01*
X006240Y005238D02*
X006502Y005238D01*
X006502Y005325D02*
X006240Y005325D01*
X005626Y005162D02*
X005364Y005162D01*
X005364Y005424D01*
X005626Y005424D01*
X005626Y005162D01*
X005626Y005249D02*
X005364Y005249D01*
X005364Y005336D02*
X005626Y005336D01*
X005626Y005423D02*
X005364Y005423D01*
X005026Y005162D02*
X004764Y005162D01*
X004764Y005424D01*
X005026Y005424D01*
X005026Y005162D01*
X005026Y005249D02*
X004764Y005249D01*
X004764Y005336D02*
X005026Y005336D01*
X005026Y005423D02*
X004764Y005423D01*
X005523Y005945D02*
X005523Y006207D01*
X005523Y005945D02*
X005261Y005945D01*
X005261Y006207D01*
X005523Y006207D01*
X005523Y006032D02*
X005261Y006032D01*
X005261Y006119D02*
X005523Y006119D01*
X005523Y006206D02*
X005261Y006206D01*
X005523Y006545D02*
X005523Y006807D01*
X005523Y006545D02*
X005261Y006545D01*
X005261Y006807D01*
X005523Y006807D01*
X005523Y006632D02*
X005261Y006632D01*
X005261Y006719D02*
X005523Y006719D01*
X005523Y006806D02*
X005261Y006806D01*
X007618Y008475D02*
X007880Y008475D01*
X007880Y008213D01*
X007618Y008213D01*
X007618Y008475D01*
X007618Y008300D02*
X007880Y008300D01*
X007880Y008387D02*
X007618Y008387D01*
X007618Y008474D02*
X007880Y008474D01*
X008218Y008475D02*
X008480Y008475D01*
X008480Y008213D01*
X008218Y008213D01*
X008218Y008475D01*
X008218Y008300D02*
X008480Y008300D01*
X008480Y008387D02*
X008218Y008387D01*
X008218Y008474D02*
X008480Y008474D01*
D11*
X009035Y004191D03*
X009225Y004191D03*
X009425Y004191D03*
X009625Y004191D03*
X009825Y004191D03*
X010015Y004191D03*
X010015Y002458D03*
X009825Y002458D03*
X009625Y002458D03*
X009425Y002458D03*
X009225Y002458D03*
X009035Y002458D03*
D12*
X008659Y003225D03*
X008659Y003425D03*
X008659Y003625D03*
X008659Y003815D03*
X010392Y003815D03*
X010392Y003625D03*
X010392Y003425D03*
X010392Y003225D03*
X010392Y003025D03*
X010392Y002835D03*
D13*
X008659Y002835D03*
X008659Y003025D03*
D14*
X009525Y003325D03*
D15*
X013758Y005490D03*
X013758Y006573D03*
X013561Y008344D03*
X012478Y008344D03*
X011395Y008344D03*
X005425Y008350D03*
X004425Y008350D03*
X003425Y008350D03*
X002425Y008350D03*
X001425Y008350D03*
D16*
X005392Y002045D03*
X006573Y002045D03*
X007163Y002045D03*
X011691Y002045D03*
X012872Y002045D03*
X013462Y002045D03*
D17*
X014014Y000962D03*
X011140Y000962D03*
X007714Y000962D03*
X004840Y000962D03*
D18*
X004840Y001789D03*
X007714Y001789D03*
X011140Y001789D03*
X014014Y001789D03*
D19*
X001095Y005399D03*
D20*
X000895Y004599D03*
X003995Y004999D03*
X003995Y003149D03*
X003995Y001949D03*
D21*
X000995Y001999D03*
D22*
X006607Y004014D03*
X006932Y004014D03*
D23*
X006769Y004014D03*
M02*
