%
M48
M72
T01C0.0120
T02C0.0354
T03C0.0500
%
T01
X9224Y7961
X8436Y7961
X10208Y7075
X858Y8748
X14047Y8748
X14244Y6976
X8633Y8748
X1645Y2350
X7452Y2547
X7058Y3433
X5385Y7370
X6074Y7862
X6862Y7862
X7649Y7961
X12373Y4024
X9716Y2350
X8535Y1858
X4007Y1957
X9322Y3925
X9716Y3925
X9716Y3531
X9322Y3531
X6862Y7272
X5385Y6681
X6074Y7272
X9125Y7272
X8436Y7272
X7944Y8354
X7649Y7272
X8240Y5598
X12570Y4614
X10897Y6976
X7354Y5402
X6566Y5598
X7255Y6878
X9519Y5352
X8633Y4811
X10405Y2843
X11094Y2646
X13062Y8157
X3220Y7567
X7058Y8748
X8043Y7665
X6665Y8256
X4844Y7862
X13358Y7567
X12620Y5648
X7944Y2547
X4795Y2646
X2039Y4024
X8584Y2990
X4746Y3925
X7747Y3531
X5730Y4220
X4696Y4319
X8141Y3236
X8043Y4811
X9814Y5598
X10011Y1957
X6074Y2449
T02
X13161Y1760
X11980Y1760
X6862Y1760
X5681Y1760
T03
X5286Y4909
X13286Y4909
X2438Y5503
M30
