G75*
%MOIN*%
%OFA0B0*%
%FSLAX25Y25*%
%IPPOS*%
%LPD*%
%AMOC8*
5,1,8,0,0,1.08239X$1,22.5*
%
%ADD10R,0.01378X0.07874*%
%ADD11C,0.00750*%
%ADD12R,0.10000X0.05000*%
D10*
X0058640Y0058876D03*
X0061396Y0058876D03*
X0064152Y0058876D03*
X0066907Y0058876D03*
X0069663Y0058876D03*
X0072419Y0058876D03*
X0075175Y0058876D03*
X0077931Y0058876D03*
X0080687Y0058876D03*
X0083443Y0058876D03*
X0086199Y0058876D03*
X0088955Y0058876D03*
X0091711Y0058876D03*
X0094467Y0058876D03*
D11*
X0123609Y0081865D02*
X0125859Y0081865D01*
X0125859Y0079115D01*
X0123609Y0079115D01*
X0123609Y0081865D01*
X0123609Y0079864D02*
X0125859Y0079864D01*
X0125859Y0080613D02*
X0123609Y0080613D01*
X0123609Y0081362D02*
X0125859Y0081362D01*
X0129609Y0081865D02*
X0131859Y0081865D01*
X0131859Y0079115D01*
X0129609Y0079115D01*
X0129609Y0081865D01*
X0129609Y0079864D02*
X0131859Y0079864D01*
X0131859Y0080613D02*
X0129609Y0080613D01*
X0129609Y0081362D02*
X0131859Y0081362D01*
X0080678Y0084818D02*
X0078428Y0084818D01*
X0080678Y0084818D02*
X0080678Y0082068D01*
X0078428Y0082068D01*
X0078428Y0084818D01*
X0078428Y0082817D02*
X0080678Y0082817D01*
X0080678Y0083566D02*
X0078428Y0083566D01*
X0078428Y0084315D02*
X0080678Y0084315D01*
X0074678Y0084818D02*
X0072428Y0084818D01*
X0074678Y0084818D02*
X0074678Y0082068D01*
X0072428Y0082068D01*
X0072428Y0084818D01*
X0072428Y0082817D02*
X0074678Y0082817D01*
X0074678Y0083566D02*
X0072428Y0083566D01*
X0072428Y0084315D02*
X0074678Y0084315D01*
X0029497Y0081865D02*
X0027247Y0081865D01*
X0029497Y0081865D02*
X0029497Y0079115D01*
X0027247Y0079115D01*
X0027247Y0081865D01*
X0027247Y0079864D02*
X0029497Y0079864D01*
X0029497Y0080613D02*
X0027247Y0080613D01*
X0027247Y0081362D02*
X0029497Y0081362D01*
X0023497Y0081865D02*
X0021247Y0081865D01*
X0023497Y0081865D02*
X0023497Y0079115D01*
X0021247Y0079115D01*
X0021247Y0081865D01*
X0021247Y0079864D02*
X0023497Y0079864D01*
X0023497Y0080613D02*
X0021247Y0080613D01*
X0021247Y0081362D02*
X0023497Y0081362D01*
D12*
X0009116Y0028683D03*
X0009116Y0045683D03*
X0009116Y0056242D03*
X0009116Y0073242D03*
X0041628Y0073242D03*
X0041628Y0056242D03*
X0041628Y0045683D03*
X0041628Y0028683D03*
X0111478Y0028683D03*
X0111478Y0045683D03*
X0111478Y0056242D03*
X0111478Y0073242D03*
X0143990Y0073242D03*
X0143990Y0056242D03*
X0143990Y0045683D03*
X0143990Y0028683D03*
M02*
