G75*
%MOIN*%
%OFA0B0*%
%FSLAX24Y24*%
%IPPOS*%
%LPD*%
%AMOC8*
5,1,8,0,0,1.08239X$1,22.5*
%
%ADD10C,0.0098*%
%ADD11R,0.0158X0.0512*%
%ADD12R,0.0512X0.0158*%
%ADD13R,0.0512X0.0160*%
%ADD14R,0.0840X0.0840*%
%ADD15R,0.0827X0.0631*%
%ADD16R,0.0316X0.0631*%
%ADD17R,0.0434X0.0276*%
%ADD18R,0.0434X0.0355*%
%ADD19C,0.0394*%
%ADD20C,0.0840*%
%ADD21R,0.1340X0.0540*%
%ADD22R,0.0940X0.0540*%
%ADD23R,0.1140X0.0540*%
%ADD24C,0.0540*%
%ADD25C,0.0050*%
D10*
X005733Y002686D02*
X006025Y002686D01*
X005733Y002686D02*
X005733Y002978D01*
X006025Y002978D01*
X006025Y002686D01*
X006025Y002783D02*
X005733Y002783D01*
X005733Y002880D02*
X006025Y002880D01*
X006025Y002977D02*
X005733Y002977D01*
X006333Y002686D02*
X006625Y002686D01*
X006333Y002686D02*
X006333Y002978D01*
X006625Y002978D01*
X006625Y002686D01*
X006625Y002783D02*
X006333Y002783D01*
X006333Y002880D02*
X006625Y002880D01*
X006625Y002977D02*
X006333Y002977D01*
X006222Y003769D02*
X005930Y003769D01*
X005930Y004061D01*
X006222Y004061D01*
X006222Y003769D01*
X006222Y003866D02*
X005930Y003866D01*
X005930Y003963D02*
X006222Y003963D01*
X006222Y004060D02*
X005930Y004060D01*
X006530Y003769D02*
X006822Y003769D01*
X006530Y003769D02*
X006530Y004061D01*
X006822Y004061D01*
X006822Y003769D01*
X006822Y003866D02*
X006530Y003866D01*
X006530Y003963D02*
X006822Y003963D01*
X006822Y004060D02*
X006530Y004060D01*
X006520Y005341D02*
X006812Y005341D01*
X006812Y005049D01*
X006520Y005049D01*
X006520Y005341D01*
X006520Y005146D02*
X006812Y005146D01*
X006812Y005243D02*
X006520Y005243D01*
X006520Y005340D02*
X006812Y005340D01*
X007120Y005341D02*
X007412Y005341D01*
X007412Y005049D01*
X007120Y005049D01*
X007120Y005341D01*
X007120Y005146D02*
X007412Y005146D01*
X007412Y005243D02*
X007120Y005243D01*
X007120Y005340D02*
X007412Y005340D01*
X007898Y005341D02*
X008190Y005341D01*
X008190Y005049D01*
X007898Y005049D01*
X007898Y005341D01*
X007898Y005146D02*
X008190Y005146D01*
X008190Y005243D02*
X007898Y005243D01*
X007898Y005340D02*
X008190Y005340D01*
X008498Y005341D02*
X008790Y005341D01*
X008790Y005049D01*
X008498Y005049D01*
X008498Y005341D01*
X008498Y005146D02*
X008790Y005146D01*
X008790Y005243D02*
X008498Y005243D01*
X008498Y005340D02*
X008790Y005340D01*
X008589Y006520D02*
X008589Y006812D01*
X008589Y006520D02*
X008297Y006520D01*
X008297Y006812D01*
X008589Y006812D01*
X008589Y006617D02*
X008297Y006617D01*
X008297Y006714D02*
X008589Y006714D01*
X008589Y006811D02*
X008297Y006811D01*
X008589Y007120D02*
X008589Y007412D01*
X008589Y007120D02*
X008297Y007120D01*
X008297Y007412D01*
X008589Y007412D01*
X008589Y007217D02*
X008297Y007217D01*
X008297Y007314D02*
X008589Y007314D01*
X008589Y007411D02*
X008297Y007411D01*
X007509Y007412D02*
X007509Y007120D01*
X007509Y007412D02*
X007801Y007412D01*
X007801Y007120D01*
X007509Y007120D01*
X007509Y007217D02*
X007801Y007217D01*
X007801Y007314D02*
X007509Y007314D01*
X007509Y007411D02*
X007801Y007411D01*
X007509Y006812D02*
X007509Y006520D01*
X007509Y006812D02*
X007801Y006812D01*
X007801Y006520D01*
X007509Y006520D01*
X007509Y006617D02*
X007801Y006617D01*
X007801Y006714D02*
X007509Y006714D01*
X007509Y006811D02*
X007801Y006811D01*
X006722Y006812D02*
X006722Y006520D01*
X006722Y006812D02*
X007014Y006812D01*
X007014Y006520D01*
X006722Y006520D01*
X006722Y006617D02*
X007014Y006617D01*
X007014Y006714D02*
X006722Y006714D01*
X006722Y006811D02*
X007014Y006811D01*
X006722Y007120D02*
X006722Y007412D01*
X007014Y007412D01*
X007014Y007120D01*
X006722Y007120D01*
X006722Y007217D02*
X007014Y007217D01*
X007014Y007314D02*
X006722Y007314D01*
X006722Y007411D02*
X007014Y007411D01*
X005935Y007412D02*
X005935Y007120D01*
X005935Y007412D02*
X006227Y007412D01*
X006227Y007120D01*
X005935Y007120D01*
X005935Y007217D02*
X006227Y007217D01*
X006227Y007314D02*
X005935Y007314D01*
X005935Y007411D02*
X006227Y007411D01*
X005935Y006812D02*
X005935Y006520D01*
X005935Y006812D02*
X006227Y006812D01*
X006227Y006520D01*
X005935Y006520D01*
X005935Y006617D02*
X006227Y006617D01*
X006227Y006714D02*
X005935Y006714D01*
X005935Y006811D02*
X006227Y006811D01*
X005538Y006822D02*
X005538Y006530D01*
X005246Y006530D01*
X005246Y006822D01*
X005538Y006822D01*
X005538Y006627D02*
X005246Y006627D01*
X005246Y006724D02*
X005538Y006724D01*
X005538Y006821D02*
X005246Y006821D01*
X005538Y006222D02*
X005538Y005930D01*
X005246Y005930D01*
X005246Y006222D01*
X005538Y006222D01*
X005538Y006027D02*
X005246Y006027D01*
X005246Y006124D02*
X005538Y006124D01*
X005538Y006221D02*
X005246Y006221D01*
X008292Y008293D02*
X008584Y008293D01*
X008584Y008001D01*
X008292Y008001D01*
X008292Y008293D01*
X008292Y008098D02*
X008584Y008098D01*
X008584Y008195D02*
X008292Y008195D01*
X008292Y008292D02*
X008584Y008292D01*
X008892Y008293D02*
X009184Y008293D01*
X009184Y008001D01*
X008892Y008001D01*
X008892Y008293D01*
X008892Y008098D02*
X009184Y008098D01*
X009184Y008195D02*
X008892Y008195D01*
X008892Y008292D02*
X009184Y008292D01*
X009376Y007412D02*
X009376Y007120D01*
X009084Y007120D01*
X009084Y007412D01*
X009376Y007412D01*
X009376Y007217D02*
X009084Y007217D01*
X009084Y007314D02*
X009376Y007314D01*
X009376Y007411D02*
X009084Y007411D01*
X010164Y007412D02*
X010164Y007120D01*
X009872Y007120D01*
X009872Y007412D01*
X010164Y007412D01*
X010164Y007217D02*
X009872Y007217D01*
X009872Y007314D02*
X010164Y007314D01*
X010164Y007411D02*
X009872Y007411D01*
X010164Y006812D02*
X010164Y006520D01*
X009872Y006520D01*
X009872Y006812D01*
X010164Y006812D01*
X010164Y006617D02*
X009872Y006617D01*
X009872Y006714D02*
X010164Y006714D01*
X010164Y006811D02*
X009872Y006811D01*
X009376Y006812D02*
X009376Y006520D01*
X009084Y006520D01*
X009084Y006812D01*
X009376Y006812D01*
X009376Y006617D02*
X009084Y006617D01*
X009084Y006714D02*
X009376Y006714D01*
X009376Y006811D02*
X009084Y006811D01*
X011048Y005538D02*
X011340Y005538D01*
X011340Y005246D01*
X011048Y005246D01*
X011048Y005538D01*
X011048Y005343D02*
X011340Y005343D01*
X011340Y005440D02*
X011048Y005440D01*
X011048Y005537D02*
X011340Y005537D01*
X011648Y005538D02*
X011940Y005538D01*
X011940Y005246D01*
X011648Y005246D01*
X011648Y005538D01*
X011648Y005343D02*
X011940Y005343D01*
X011940Y005440D02*
X011648Y005440D01*
X011648Y005537D02*
X011940Y005537D01*
X011742Y003672D02*
X011742Y003380D01*
X011742Y003672D02*
X012034Y003672D01*
X012034Y003380D01*
X011742Y003380D01*
X011742Y003477D02*
X012034Y003477D01*
X012034Y003574D02*
X011742Y003574D01*
X011742Y003671D02*
X012034Y003671D01*
X011742Y003072D02*
X011742Y002780D01*
X011742Y003072D02*
X012034Y003072D01*
X012034Y002780D01*
X011742Y002780D01*
X011742Y002877D02*
X012034Y002877D01*
X012034Y002974D02*
X011742Y002974D01*
X011742Y003071D02*
X012034Y003071D01*
X009676Y001207D02*
X009384Y001207D01*
X009676Y001207D02*
X009676Y000915D01*
X009384Y000915D01*
X009384Y001207D01*
X009384Y001012D02*
X009676Y001012D01*
X009676Y001109D02*
X009384Y001109D01*
X009384Y001206D02*
X009676Y001206D01*
X009076Y001207D02*
X008784Y001207D01*
X009076Y001207D02*
X009076Y000915D01*
X008784Y000915D01*
X008784Y001207D01*
X008784Y001012D02*
X009076Y001012D01*
X009076Y001109D02*
X008784Y001109D01*
X008784Y001206D02*
X009076Y001206D01*
D11*
X009035Y002557D03*
X009235Y002557D03*
X009425Y002557D03*
X008835Y002557D03*
X008635Y002557D03*
X008445Y002557D03*
X008445Y004289D03*
X008635Y004289D03*
X008835Y004289D03*
X009035Y004289D03*
X009235Y004289D03*
X009425Y004289D03*
D12*
X009801Y003913D03*
X009801Y003723D03*
X009801Y003523D03*
X009801Y003323D03*
X009801Y003123D03*
X009801Y002933D03*
X008069Y003323D03*
X008069Y003523D03*
X008069Y003723D03*
X008069Y003913D03*
D13*
X008069Y003123D03*
X008069Y002933D03*
D14*
X008935Y003423D03*
D15*
X013758Y005490D03*
X013758Y006573D03*
X013561Y008344D03*
X012478Y008344D03*
X011395Y008344D03*
X005425Y008350D03*
X004425Y008350D03*
X003425Y008350D03*
X002425Y008350D03*
X001425Y008350D03*
D16*
X005392Y002045D03*
X006573Y002045D03*
X007163Y002045D03*
X011691Y002045D03*
X012872Y002045D03*
X013462Y002045D03*
D17*
X014014Y000962D03*
X011140Y000962D03*
X007714Y000962D03*
X004840Y000962D03*
D18*
X004840Y001789D03*
X007714Y001789D03*
X011140Y001789D03*
X014014Y001789D03*
D19*
X013167Y001356D03*
X011986Y001356D03*
X006868Y001356D03*
X005687Y001356D03*
D20*
X005293Y004506D03*
X013293Y004506D03*
D21*
X001095Y005399D03*
D22*
X000895Y004599D03*
X003995Y004999D03*
X003995Y003149D03*
X003995Y001949D03*
D23*
X000995Y001999D03*
D24*
X002445Y005099D03*
D25*
X000611Y000858D02*
X000667Y000818D01*
X000729Y000789D01*
X000796Y000772D01*
X000864Y000766D01*
X000932Y000772D01*
X000999Y000789D01*
X001061Y000818D01*
X001117Y000858D01*
X001166Y000906D01*
X001205Y000962D01*
X001234Y001025D01*
X001252Y001091D01*
X001258Y001159D01*
X001252Y001228D01*
X001234Y001294D01*
X001205Y001356D01*
X001166Y001412D01*
X001117Y001461D01*
X001061Y001500D01*
X000999Y001529D01*
X000932Y001547D01*
X000864Y001553D01*
X000796Y001547D01*
X000729Y001529D01*
X000667Y001500D01*
X000611Y001461D01*
X000562Y001412D01*
X000523Y001356D01*
X000494Y001294D01*
X000476Y001228D01*
X000470Y001159D01*
X000476Y001091D01*
X000494Y001025D01*
X000523Y000962D01*
X000562Y000906D01*
X000611Y000858D01*
X000616Y000854D02*
X001112Y000854D01*
X001162Y000903D02*
X000566Y000903D01*
X000531Y000951D02*
X001197Y000951D01*
X001222Y001000D02*
X000506Y001000D01*
X000488Y001048D02*
X001240Y001048D01*
X001252Y001097D02*
X000476Y001097D01*
X000472Y001145D02*
X001256Y001145D01*
X001255Y001194D02*
X000473Y001194D01*
X000480Y001242D02*
X001248Y001242D01*
X001235Y001291D02*
X000493Y001291D01*
X000515Y001339D02*
X001213Y001339D01*
X001183Y001388D02*
X000545Y001388D01*
X000586Y001436D02*
X001142Y001436D01*
X001083Y001485D02*
X000645Y001485D01*
X000743Y001533D02*
X000984Y001533D01*
X001033Y000806D02*
X000695Y000806D01*
X000864Y006081D02*
X000932Y006086D01*
X000999Y006104D01*
X001061Y006133D01*
X001117Y006173D01*
X001166Y006221D01*
X001205Y006277D01*
X001234Y006340D01*
X001252Y006406D01*
X001258Y006474D01*
X001252Y006543D01*
X001234Y006609D01*
X001205Y006671D01*
X001166Y006727D01*
X001117Y006776D01*
X001061Y006815D01*
X000999Y006844D01*
X000932Y006862D01*
X000864Y006868D01*
X000796Y006862D01*
X000729Y006844D01*
X000667Y006815D01*
X000611Y006776D01*
X000562Y006727D01*
X000523Y006671D01*
X000494Y006609D01*
X000476Y006543D01*
X000470Y006474D01*
X000476Y006406D01*
X000494Y006340D01*
X000523Y006277D01*
X000562Y006221D01*
X000611Y006173D01*
X000667Y006133D01*
X000729Y006104D01*
X000796Y006086D01*
X000864Y006081D01*
X000775Y006092D02*
X000953Y006092D01*
X001071Y006141D02*
X000657Y006141D01*
X000595Y006189D02*
X001133Y006189D01*
X001177Y006238D02*
X000551Y006238D01*
X000519Y006286D02*
X001209Y006286D01*
X001232Y006335D02*
X000496Y006335D01*
X000482Y006383D02*
X001246Y006383D01*
X001254Y006432D02*
X000474Y006432D01*
X000471Y006480D02*
X001257Y006480D01*
X001253Y006529D02*
X000475Y006529D01*
X000485Y006577D02*
X001242Y006577D01*
X001226Y006626D02*
X000502Y006626D01*
X000525Y006674D02*
X001203Y006674D01*
X001169Y006723D02*
X000559Y006723D01*
X000606Y006771D02*
X001122Y006771D01*
X001051Y006820D02*
X000676Y006820D01*
X014053Y007360D02*
X014059Y007428D01*
X014077Y007495D01*
X014106Y007557D01*
X014145Y007613D01*
X014194Y007662D01*
X014250Y007701D01*
X014312Y007730D01*
X014378Y007748D01*
X014447Y007754D01*
X014515Y007748D01*
X014581Y007730D01*
X014644Y007701D01*
X014700Y007662D01*
X014748Y007613D01*
X014788Y007557D01*
X014817Y007495D01*
X014834Y007428D01*
X014840Y007360D01*
X014834Y007292D01*
X014817Y007225D01*
X014788Y007163D01*
X014748Y007107D01*
X014700Y007058D01*
X014644Y007019D01*
X014581Y006990D01*
X014515Y006972D01*
X014447Y006966D01*
X014378Y006972D01*
X014312Y006990D01*
X014250Y007019D01*
X014194Y007058D01*
X014145Y007107D01*
X014106Y007163D01*
X014077Y007225D01*
X014059Y007292D01*
X014053Y007360D01*
X014054Y007353D02*
X014840Y007353D01*
X014837Y007402D02*
X014057Y007402D01*
X014065Y007450D02*
X014829Y007450D01*
X014815Y007499D02*
X014078Y007499D01*
X014101Y007547D02*
X014792Y007547D01*
X014761Y007596D02*
X014133Y007596D01*
X014176Y007644D02*
X014717Y007644D01*
X014656Y007693D02*
X014238Y007693D01*
X014353Y007741D02*
X014540Y007741D01*
X014835Y007305D02*
X014058Y007305D01*
X014068Y007256D02*
X014825Y007256D01*
X014808Y007208D02*
X014085Y007208D01*
X014109Y007159D02*
X014785Y007159D01*
X014751Y007111D02*
X014143Y007111D01*
X014190Y007062D02*
X014703Y007062D01*
X014632Y007014D02*
X014262Y007014D01*
M02*
