G75*
%MOIN*%
%OFA0B0*%
%FSLAX24Y24*%
%IPPOS*%
%LPD*%
%AMOC8*
5,1,8,0,0,1.08239X$1,22.5*
%
%ADD10C,0.0088*%
%ADD11R,0.0118X0.0472*%
%ADD12R,0.0472X0.0118*%
%ADD13R,0.0472X0.0120*%
%ADD14R,0.0800X0.0800*%
%ADD15R,0.0787X0.0591*%
%ADD16R,0.0276X0.0591*%
%ADD17R,0.0394X0.0236*%
%ADD18R,0.0394X0.0315*%
%ADD19C,0.0800*%
%ADD20R,0.1300X0.0500*%
%ADD21R,0.0900X0.0500*%
%ADD22R,0.1100X0.0500*%
%ADD23C,0.0394*%
%ADD24C,0.0060*%
%ADD25C,0.0240*%
%ADD26C,0.0080*%
D10*
X005748Y002701D02*
X006010Y002701D01*
X005748Y002701D02*
X005748Y002963D01*
X006010Y002963D01*
X006010Y002701D01*
X006010Y002788D02*
X005748Y002788D01*
X005748Y002875D02*
X006010Y002875D01*
X006010Y002962D02*
X005748Y002962D01*
X006348Y002701D02*
X006610Y002701D01*
X006348Y002701D02*
X006348Y002963D01*
X006610Y002963D01*
X006610Y002701D01*
X006610Y002788D02*
X006348Y002788D01*
X006348Y002875D02*
X006610Y002875D01*
X006610Y002962D02*
X006348Y002962D01*
X006207Y003784D02*
X005945Y003784D01*
X005945Y004046D01*
X006207Y004046D01*
X006207Y003784D01*
X006207Y003871D02*
X005945Y003871D01*
X005945Y003958D02*
X006207Y003958D01*
X006207Y004045D02*
X005945Y004045D01*
X006545Y003784D02*
X006807Y003784D01*
X006545Y003784D02*
X006545Y004046D01*
X006807Y004046D01*
X006807Y003784D01*
X006807Y003871D02*
X006545Y003871D01*
X006545Y003958D02*
X006807Y003958D01*
X006807Y004045D02*
X006545Y004045D01*
X006535Y005326D02*
X006797Y005326D01*
X006797Y005064D01*
X006535Y005064D01*
X006535Y005326D01*
X006535Y005151D02*
X006797Y005151D01*
X006797Y005238D02*
X006535Y005238D01*
X006535Y005325D02*
X006797Y005325D01*
X007135Y005326D02*
X007397Y005326D01*
X007397Y005064D01*
X007135Y005064D01*
X007135Y005326D01*
X007135Y005151D02*
X007397Y005151D01*
X007397Y005238D02*
X007135Y005238D01*
X007135Y005325D02*
X007397Y005325D01*
X007913Y005326D02*
X008175Y005326D01*
X008175Y005064D01*
X007913Y005064D01*
X007913Y005326D01*
X007913Y005151D02*
X008175Y005151D01*
X008175Y005238D02*
X007913Y005238D01*
X007913Y005325D02*
X008175Y005325D01*
X008513Y005326D02*
X008775Y005326D01*
X008775Y005064D01*
X008513Y005064D01*
X008513Y005326D01*
X008513Y005151D02*
X008775Y005151D01*
X008775Y005238D02*
X008513Y005238D01*
X008513Y005325D02*
X008775Y005325D01*
X008574Y006535D02*
X008574Y006797D01*
X008574Y006535D02*
X008312Y006535D01*
X008312Y006797D01*
X008574Y006797D01*
X008574Y006622D02*
X008312Y006622D01*
X008312Y006709D02*
X008574Y006709D01*
X008574Y006796D02*
X008312Y006796D01*
X008574Y007135D02*
X008574Y007397D01*
X008574Y007135D02*
X008312Y007135D01*
X008312Y007397D01*
X008574Y007397D01*
X008574Y007222D02*
X008312Y007222D01*
X008312Y007309D02*
X008574Y007309D01*
X008574Y007396D02*
X008312Y007396D01*
X007524Y007397D02*
X007524Y007135D01*
X007524Y007397D02*
X007786Y007397D01*
X007786Y007135D01*
X007524Y007135D01*
X007524Y007222D02*
X007786Y007222D01*
X007786Y007309D02*
X007524Y007309D01*
X007524Y007396D02*
X007786Y007396D01*
X006737Y007397D02*
X006737Y007135D01*
X006737Y007397D02*
X006999Y007397D01*
X006999Y007135D01*
X006737Y007135D01*
X006737Y007222D02*
X006999Y007222D01*
X006999Y007309D02*
X006737Y007309D01*
X006737Y007396D02*
X006999Y007396D01*
X005950Y007397D02*
X005950Y007135D01*
X005950Y007397D02*
X006212Y007397D01*
X006212Y007135D01*
X005950Y007135D01*
X005950Y007222D02*
X006212Y007222D01*
X006212Y007309D02*
X005950Y007309D01*
X005950Y007396D02*
X006212Y007396D01*
X005950Y006797D02*
X005950Y006535D01*
X005950Y006797D02*
X006212Y006797D01*
X006212Y006535D01*
X005950Y006535D01*
X005950Y006622D02*
X006212Y006622D01*
X006212Y006709D02*
X005950Y006709D01*
X005950Y006796D02*
X006212Y006796D01*
X006737Y006797D02*
X006737Y006535D01*
X006737Y006797D02*
X006999Y006797D01*
X006999Y006535D01*
X006737Y006535D01*
X006737Y006622D02*
X006999Y006622D01*
X006999Y006709D02*
X006737Y006709D01*
X006737Y006796D02*
X006999Y006796D01*
X007524Y006797D02*
X007524Y006535D01*
X007524Y006797D02*
X007786Y006797D01*
X007786Y006535D01*
X007524Y006535D01*
X007524Y006622D02*
X007786Y006622D01*
X007786Y006709D02*
X007524Y006709D01*
X007524Y006796D02*
X007786Y006796D01*
X009361Y006797D02*
X009361Y006535D01*
X009099Y006535D01*
X009099Y006797D01*
X009361Y006797D01*
X009361Y006622D02*
X009099Y006622D01*
X009099Y006709D02*
X009361Y006709D01*
X009361Y006796D02*
X009099Y006796D01*
X009361Y007135D02*
X009361Y007397D01*
X009361Y007135D02*
X009099Y007135D01*
X009099Y007397D01*
X009361Y007397D01*
X009361Y007222D02*
X009099Y007222D01*
X009099Y007309D02*
X009361Y007309D01*
X009361Y007396D02*
X009099Y007396D01*
X010149Y007397D02*
X010149Y007135D01*
X009887Y007135D01*
X009887Y007397D01*
X010149Y007397D01*
X010149Y007222D02*
X009887Y007222D01*
X009887Y007309D02*
X010149Y007309D01*
X010149Y007396D02*
X009887Y007396D01*
X010149Y006797D02*
X010149Y006535D01*
X009887Y006535D01*
X009887Y006797D01*
X010149Y006797D01*
X010149Y006622D02*
X009887Y006622D01*
X009887Y006709D02*
X010149Y006709D01*
X010149Y006796D02*
X009887Y006796D01*
X009169Y008278D02*
X008907Y008278D01*
X009169Y008278D02*
X009169Y008016D01*
X008907Y008016D01*
X008907Y008278D01*
X008907Y008103D02*
X009169Y008103D01*
X009169Y008190D02*
X008907Y008190D01*
X008907Y008277D02*
X009169Y008277D01*
X008569Y008278D02*
X008307Y008278D01*
X008569Y008278D02*
X008569Y008016D01*
X008307Y008016D01*
X008307Y008278D01*
X008307Y008103D02*
X008569Y008103D01*
X008569Y008190D02*
X008307Y008190D01*
X008307Y008277D02*
X008569Y008277D01*
X005523Y006807D02*
X005523Y006545D01*
X005261Y006545D01*
X005261Y006807D01*
X005523Y006807D01*
X005523Y006632D02*
X005261Y006632D01*
X005261Y006719D02*
X005523Y006719D01*
X005523Y006806D02*
X005261Y006806D01*
X005523Y006207D02*
X005523Y005945D01*
X005261Y005945D01*
X005261Y006207D01*
X005523Y006207D01*
X005523Y006032D02*
X005261Y006032D01*
X005261Y006119D02*
X005523Y006119D01*
X005523Y006206D02*
X005261Y006206D01*
X011063Y005523D02*
X011325Y005523D01*
X011325Y005261D01*
X011063Y005261D01*
X011063Y005523D01*
X011063Y005348D02*
X011325Y005348D01*
X011325Y005435D02*
X011063Y005435D01*
X011063Y005522D02*
X011325Y005522D01*
X011663Y005523D02*
X011925Y005523D01*
X011925Y005261D01*
X011663Y005261D01*
X011663Y005523D01*
X011663Y005348D02*
X011925Y005348D01*
X011925Y005435D02*
X011663Y005435D01*
X011663Y005522D02*
X011925Y005522D01*
X011757Y003657D02*
X011757Y003395D01*
X011757Y003657D02*
X012019Y003657D01*
X012019Y003395D01*
X011757Y003395D01*
X011757Y003482D02*
X012019Y003482D01*
X012019Y003569D02*
X011757Y003569D01*
X011757Y003656D02*
X012019Y003656D01*
X011757Y003057D02*
X011757Y002795D01*
X011757Y003057D02*
X012019Y003057D01*
X012019Y002795D01*
X011757Y002795D01*
X011757Y002882D02*
X012019Y002882D01*
X012019Y002969D02*
X011757Y002969D01*
X011757Y003056D02*
X012019Y003056D01*
X009661Y001192D02*
X009399Y001192D01*
X009661Y001192D02*
X009661Y000930D01*
X009399Y000930D01*
X009399Y001192D01*
X009399Y001017D02*
X009661Y001017D01*
X009661Y001104D02*
X009399Y001104D01*
X009399Y001191D02*
X009661Y001191D01*
X009061Y001192D02*
X008799Y001192D01*
X009061Y001192D02*
X009061Y000930D01*
X008799Y000930D01*
X008799Y001192D01*
X008799Y001017D02*
X009061Y001017D01*
X009061Y001104D02*
X008799Y001104D01*
X008799Y001191D02*
X009061Y001191D01*
D11*
X009035Y002557D03*
X009235Y002557D03*
X009425Y002557D03*
X008835Y002557D03*
X008635Y002557D03*
X008445Y002557D03*
X008445Y004289D03*
X008635Y004289D03*
X008835Y004289D03*
X009035Y004289D03*
X009235Y004289D03*
X009425Y004289D03*
D12*
X009801Y003913D03*
X009801Y003723D03*
X009801Y003523D03*
X009801Y003323D03*
X009801Y003123D03*
X009801Y002933D03*
X008069Y003323D03*
X008069Y003523D03*
X008069Y003723D03*
X008069Y003913D03*
D13*
X008069Y003123D03*
X008069Y002933D03*
D14*
X008935Y003423D03*
D15*
X013758Y005490D03*
X013758Y006573D03*
X013561Y008344D03*
X012478Y008344D03*
X011395Y008344D03*
X005425Y008350D03*
X004425Y008350D03*
X003425Y008350D03*
X002425Y008350D03*
X001425Y008350D03*
D16*
X005392Y002045D03*
X006573Y002045D03*
X007163Y002045D03*
X011691Y002045D03*
X012872Y002045D03*
X013462Y002045D03*
D17*
X014014Y000962D03*
X011140Y000962D03*
X007714Y000962D03*
X004840Y000962D03*
D18*
X004840Y001789D03*
X007714Y001789D03*
X011140Y001789D03*
X014014Y001789D03*
D19*
X013293Y004506D03*
X005293Y004506D03*
D20*
X001095Y005399D03*
D21*
X000895Y004599D03*
X003995Y004999D03*
X003995Y003149D03*
X003995Y001949D03*
D22*
X000995Y001999D03*
D23*
X000864Y001159D03*
X000864Y006474D03*
X014447Y007360D03*
D24*
X014447Y006523D02*
X014447Y005342D01*
X014151Y005047D01*
X013118Y005047D01*
X012773Y004703D01*
X012773Y003915D01*
X012084Y003226D01*
X011691Y003226D01*
X010165Y001701D01*
X009329Y001701D01*
X009230Y001947D02*
X008984Y001701D01*
X008738Y001602D02*
X008738Y002193D01*
X008836Y002291D01*
X008836Y002537D01*
X008835Y002557D01*
X008640Y002537D02*
X008635Y002557D01*
X008640Y002537D02*
X008640Y002291D01*
X008590Y002242D01*
X008590Y001405D01*
X008738Y001602D02*
X008886Y001455D01*
X011346Y001455D01*
X011691Y001799D01*
X011691Y002045D01*
X011888Y002242D01*
X011888Y002926D01*
X011346Y003374D02*
X011199Y003374D01*
X009771Y001947D01*
X009230Y001947D01*
X008886Y001455D02*
X008886Y001159D01*
X008930Y001061D01*
X008886Y001061D01*
X008886Y001159D01*
X008000Y001159D01*
X007951Y001208D01*
X007212Y001208D01*
X007016Y001012D01*
X006523Y001012D01*
X005392Y002144D01*
X005392Y002045D01*
X005392Y002144D02*
X005392Y003866D01*
X006130Y004604D01*
X006130Y004703D01*
X006622Y005195D01*
X006666Y005195D01*
X006671Y005195D01*
X006671Y005638D01*
X007114Y006081D01*
X008000Y005195D01*
X008044Y005195D01*
X007951Y004801D02*
X007557Y005195D01*
X007266Y005195D01*
X007262Y005195D01*
X006966Y004899D01*
X007360Y004801D02*
X007606Y004555D01*
X008147Y004555D01*
X008246Y004801D02*
X007951Y004801D01*
X008246Y004801D02*
X008443Y004604D01*
X008443Y004309D01*
X008445Y004289D01*
X008635Y004289D02*
X008640Y004309D01*
X008640Y004801D01*
X008590Y004801D01*
X008640Y004801D02*
X008640Y005195D01*
X008644Y005195D01*
X009033Y005293D02*
X010018Y006277D01*
X009624Y006671D02*
X009230Y006671D01*
X009230Y006666D01*
X008836Y006474D02*
X008689Y006622D01*
X008443Y006622D01*
X008443Y006666D01*
X008049Y006573D02*
X007803Y006819D01*
X007655Y006666D01*
X007655Y006671D01*
X007803Y006819D01*
X007951Y006966D01*
X007951Y007557D01*
X009427Y007557D01*
X009673Y007311D01*
X010018Y007311D01*
X010018Y007266D01*
X009624Y007016D02*
X009378Y007262D01*
X009230Y007262D01*
X009230Y007266D01*
X008836Y007262D02*
X008443Y007262D01*
X008443Y007266D01*
X007951Y007557D02*
X007951Y007951D01*
X007557Y008344D01*
X005441Y008344D01*
X005425Y008350D01*
X004456Y008344D02*
X004425Y008350D01*
X004456Y008344D02*
X004456Y006474D01*
X005834Y005096D01*
X006277Y005293D02*
X006277Y005441D01*
X006868Y006031D01*
X006868Y006666D01*
X006474Y006622D02*
X006081Y006622D01*
X006081Y006666D01*
X005392Y006076D02*
X005392Y005884D01*
X005588Y005687D01*
X004555Y006179D02*
X003079Y007655D01*
X002832Y007557D02*
X002832Y007754D01*
X003423Y008344D01*
X003425Y008350D01*
X002586Y008197D02*
X002439Y008344D01*
X002425Y008350D01*
X002586Y008197D02*
X002586Y007606D01*
X002832Y007557D02*
X003177Y007212D01*
X003177Y003768D01*
X002685Y003275D02*
X003325Y002636D01*
X004210Y002636D01*
X004703Y002144D01*
X005047Y002144D01*
X005834Y002832D02*
X005879Y002832D01*
X005834Y002832D02*
X005834Y003029D01*
X005638Y003226D01*
X005933Y003374D02*
X006917Y003374D01*
X007114Y003669D02*
X007212Y003669D01*
X007458Y003915D01*
X008049Y003915D01*
X008069Y003913D01*
X008069Y003723D02*
X008049Y003718D01*
X007508Y003718D01*
X007360Y003571D01*
X007360Y003472D01*
X006720Y002832D01*
X006479Y002832D01*
X007163Y002931D02*
X007409Y002931D01*
X007803Y003325D01*
X008049Y003325D01*
X008069Y003323D01*
X008049Y003128D02*
X007803Y003128D01*
X007508Y002832D01*
X007508Y002242D01*
X007754Y002636D02*
X008049Y002931D01*
X008069Y002933D01*
X008069Y003123D02*
X008049Y003128D01*
X007655Y003521D02*
X007606Y003472D01*
X007655Y003521D02*
X008049Y003521D01*
X008069Y003523D01*
X007557Y004210D02*
X007262Y003915D01*
X006676Y003915D01*
X006376Y003620D02*
X006376Y004555D01*
X006076Y003915D02*
X005785Y003915D01*
X005638Y003768D01*
X005145Y003768D02*
X005145Y003915D01*
X004555Y004506D01*
X004555Y006179D01*
X003423Y006769D02*
X003423Y004703D01*
X004407Y003718D01*
X004407Y003620D01*
X004358Y004112D02*
X004949Y003521D01*
X005145Y003226D02*
X004063Y003226D01*
X004014Y003177D01*
X003995Y003149D01*
X003964Y003177D01*
X003325Y003177D01*
X001947Y004555D01*
X000913Y004555D01*
X000895Y004599D01*
X004899Y007655D02*
X007508Y007655D01*
X008443Y008049D02*
X008689Y007803D01*
X008443Y008049D02*
X008443Y008147D01*
X008438Y008147D01*
X007655Y006666D02*
X007655Y006622D01*
X007409Y006376D01*
X007262Y006523D01*
X007409Y006376D02*
X007114Y006081D01*
X008935Y004752D02*
X008935Y004653D01*
X008836Y004555D01*
X008836Y004309D01*
X008835Y004289D01*
X009230Y004309D02*
X009235Y004289D01*
X009230Y004309D02*
X009230Y005145D01*
X011395Y007311D01*
X011395Y008344D01*
X012478Y008344D02*
X012478Y008197D01*
X009427Y005145D01*
X009427Y004309D01*
X009425Y004289D01*
X009870Y004752D02*
X010411Y004752D01*
X011002Y004112D02*
X011149Y004260D01*
X011149Y005392D01*
X011194Y005392D01*
X011445Y005047D02*
X012429Y005047D01*
X013118Y005736D01*
X013118Y005490D02*
X013758Y005490D01*
X013118Y005490D02*
X010559Y002931D01*
X009821Y002931D01*
X009801Y002933D01*
X009801Y003123D02*
X009821Y003128D01*
X010411Y003128D01*
X011002Y003718D01*
X010756Y003669D02*
X010756Y006130D01*
X011838Y006671D02*
X011838Y005392D01*
X011794Y005392D01*
X013266Y004506D02*
X013293Y004506D01*
X013266Y004506D02*
X013266Y002045D01*
X012872Y002045D01*
X013266Y002045D02*
X013462Y002045D01*
X010756Y003669D02*
X010362Y003275D01*
X010165Y003275D01*
X010116Y003325D01*
X009821Y003325D01*
X009801Y003323D01*
X009821Y003521D02*
X009801Y003523D01*
X009821Y003521D02*
X010264Y003521D01*
X010116Y003718D02*
X009821Y003718D01*
X009801Y003723D01*
X010116Y003718D02*
X010313Y003915D01*
X008147Y004210D02*
X007557Y004210D01*
X006573Y002045D02*
X006327Y001799D01*
X006327Y001553D01*
X011838Y006671D02*
X012823Y007655D01*
D25*
X012823Y007655D03*
X013561Y007803D03*
X014447Y006523D03*
X013758Y006031D03*
X013118Y005736D03*
X011445Y005047D03*
X010411Y004752D03*
X009870Y004752D03*
X009033Y005293D03*
X008935Y004752D03*
X008590Y004801D03*
X008147Y004555D03*
X008147Y004210D03*
X007360Y004801D03*
X006966Y004899D03*
X006376Y004555D03*
X005834Y005096D03*
X006277Y005293D03*
X005588Y005687D03*
X006474Y006622D03*
X007262Y006523D03*
X008049Y006573D03*
X008836Y006474D03*
X009624Y006671D03*
X009624Y007016D03*
X010411Y006671D03*
X010018Y006277D03*
X010756Y006130D03*
X008836Y007262D03*
X008689Y007803D03*
X007951Y007951D03*
X007508Y007655D03*
X006474Y007262D03*
X005392Y007065D03*
X004899Y007655D03*
X003423Y006769D03*
X003079Y007655D03*
X002586Y007606D03*
X001455Y007852D03*
X004358Y004112D03*
X004407Y003620D03*
X004949Y003521D03*
X005145Y003768D03*
X005638Y003768D03*
X005933Y003374D03*
X005638Y003226D03*
X005145Y003226D03*
X006376Y003620D03*
X006917Y003374D03*
X007114Y003669D03*
X007606Y003472D03*
X007163Y002931D03*
X007016Y002586D03*
X007508Y002242D03*
X007754Y002636D03*
X008984Y001701D03*
X009329Y001701D03*
X009033Y002094D03*
X008590Y001405D03*
X009919Y001061D03*
X011346Y003374D03*
X011002Y003718D03*
X011002Y004112D03*
X010313Y003915D03*
X010264Y003521D03*
X011888Y003915D03*
X006327Y001553D03*
X005047Y002144D03*
X004014Y001455D03*
X001504Y001504D03*
X002685Y003275D03*
X003177Y003768D03*
X009427Y008147D03*
D26*
X009038Y008147D01*
X007655Y007266D02*
X007655Y007262D01*
X006868Y007262D01*
X006868Y007266D01*
X006868Y007262D02*
X006474Y007262D01*
X006081Y007262D01*
X006081Y007266D01*
X005392Y007065D02*
X005392Y006676D01*
X001455Y007852D02*
X001455Y008344D01*
X001425Y008350D01*
X008935Y003423D02*
X008935Y002931D01*
X009033Y002832D01*
X009033Y002586D01*
X009035Y002557D01*
X009033Y002537D01*
X009033Y002094D01*
X009530Y001061D02*
X009919Y001061D01*
X007163Y002045D02*
X007163Y002439D01*
X007016Y002586D01*
X004014Y001947D02*
X004014Y001455D01*
X004014Y001947D02*
X003995Y001949D01*
X001504Y001504D02*
X001012Y001996D01*
X000995Y001999D01*
X010018Y006666D02*
X010018Y006671D01*
X010411Y006671D01*
X013561Y007803D02*
X013561Y008344D01*
X013758Y006573D02*
X013758Y006031D01*
X011888Y003915D02*
X011888Y003526D01*
M02*
