G75*
%MOIN*%
%OFA0B0*%
%FSLAX24Y24*%
%IPPOS*%
%LPD*%
%AMOC8*
5,1,8,0,0,1.08239X$1,22.5*
%
%ADD10C,0.0020*%
%ADD11C,0.0030*%
%ADD12C,0.0050*%
%ADD13C,0.0060*%
%ADD14R,0.0591X0.0591*%
%ADD15C,0.0080*%
%ADD16C,0.0040*%
D10*
X001145Y007624D02*
X001217Y007624D01*
X001253Y007660D01*
X001253Y007732D01*
X001181Y007732D01*
X001109Y007804D02*
X001109Y007660D01*
X001145Y007624D01*
X001326Y007624D02*
X001326Y007840D01*
X001471Y007624D01*
X001471Y007840D01*
X001544Y007840D02*
X001652Y007840D01*
X001688Y007804D01*
X001688Y007660D01*
X001652Y007624D01*
X001544Y007624D01*
X001544Y007840D01*
X001253Y007804D02*
X001217Y007840D01*
X001145Y007840D01*
X001109Y007804D01*
X002145Y007840D02*
X002145Y007624D01*
X002253Y007624D01*
X002289Y007660D01*
X002289Y007804D01*
X002253Y007840D01*
X002145Y007840D01*
X002362Y007840D02*
X002435Y007840D01*
X002399Y007840D02*
X002399Y007624D01*
X002435Y007624D02*
X002362Y007624D01*
X002508Y007660D02*
X002508Y007804D01*
X002544Y007840D01*
X002616Y007840D01*
X002652Y007804D01*
X002652Y007660D01*
X002616Y007624D01*
X002544Y007624D01*
X002508Y007660D01*
X003109Y007624D02*
X003109Y007840D01*
X003217Y007840D01*
X003253Y007804D01*
X003253Y007732D01*
X003217Y007696D01*
X003109Y007696D01*
X003181Y007696D02*
X003253Y007624D01*
X003326Y007660D02*
X003362Y007624D01*
X003434Y007624D01*
X003471Y007660D01*
X003471Y007696D01*
X003434Y007732D01*
X003362Y007732D01*
X003326Y007768D01*
X003326Y007804D01*
X003362Y007840D01*
X003434Y007840D01*
X003471Y007804D01*
X003544Y007840D02*
X003688Y007840D01*
X003616Y007840D02*
X003616Y007624D01*
X004109Y007660D02*
X004145Y007624D01*
X004217Y007624D01*
X004253Y007660D01*
X004326Y007624D02*
X004471Y007624D01*
X004544Y007624D02*
X004544Y007840D01*
X004580Y007732D02*
X004688Y007624D01*
X004544Y007696D02*
X004688Y007840D01*
X004326Y007840D02*
X004326Y007624D01*
X004253Y007804D02*
X004217Y007840D01*
X004145Y007840D01*
X004109Y007804D01*
X004109Y007660D01*
X005054Y007660D02*
X005090Y007624D01*
X005163Y007624D01*
X005199Y007660D01*
X005199Y007696D01*
X005163Y007732D01*
X005126Y007732D01*
X005163Y007732D02*
X005199Y007768D01*
X005199Y007804D01*
X005163Y007840D01*
X005090Y007840D01*
X005054Y007804D01*
X005272Y007660D02*
X005308Y007660D01*
X005308Y007624D01*
X005272Y007624D01*
X005272Y007660D01*
X005381Y007660D02*
X005417Y007624D01*
X005489Y007624D01*
X005525Y007660D01*
X005525Y007696D01*
X005489Y007732D01*
X005453Y007732D01*
X005489Y007732D02*
X005525Y007768D01*
X005525Y007804D01*
X005489Y007840D01*
X005417Y007840D01*
X005381Y007804D01*
X005598Y007840D02*
X005598Y007696D01*
X005670Y007624D01*
X005742Y007696D01*
X005742Y007840D01*
X011188Y007941D02*
X011332Y007941D01*
X011260Y007941D02*
X011260Y007724D01*
X011405Y007724D02*
X011550Y007941D01*
X011405Y007941D02*
X011550Y007724D01*
X012271Y007724D02*
X012271Y007941D01*
X012379Y007941D01*
X012415Y007905D01*
X012415Y007833D01*
X012379Y007797D01*
X012271Y007797D01*
X012343Y007797D02*
X012415Y007724D01*
X012488Y007724D02*
X012632Y007941D01*
X012488Y007941D02*
X012632Y007724D01*
X013235Y007758D02*
X013271Y007722D01*
X013343Y007722D01*
X013379Y007758D01*
X013379Y007831D01*
X013307Y007831D01*
X013379Y007903D02*
X013343Y007939D01*
X013271Y007939D01*
X013235Y007903D01*
X013235Y007758D01*
X013452Y007722D02*
X013452Y007939D01*
X013596Y007722D01*
X013596Y007939D01*
X013670Y007939D02*
X013778Y007939D01*
X013814Y007903D01*
X013814Y007758D01*
X013778Y007722D01*
X013670Y007722D01*
X013670Y007939D01*
X014298Y006660D02*
X014370Y006660D01*
X014406Y006624D01*
X014406Y006516D01*
X014406Y006588D02*
X014478Y006660D01*
X014298Y006660D02*
X014262Y006624D01*
X014262Y006516D01*
X014478Y006516D01*
X014478Y006442D02*
X014478Y006298D01*
X014262Y006298D01*
X014262Y006442D01*
X014370Y006370D02*
X014370Y006298D01*
X014298Y006225D02*
X014442Y006081D01*
X014478Y006081D01*
X014478Y006225D01*
X014298Y006225D02*
X014262Y006225D01*
X014262Y006081D01*
X014262Y006007D02*
X014298Y006007D01*
X014442Y005863D01*
X014478Y005863D01*
X014478Y006007D01*
X014262Y006007D02*
X014262Y005863D01*
X014262Y005790D02*
X014442Y005790D01*
X014478Y005754D01*
X014478Y005682D01*
X014442Y005646D01*
X014262Y005646D01*
X014298Y005572D02*
X014334Y005572D01*
X014370Y005536D01*
X014370Y005428D01*
X014478Y005428D02*
X014478Y005536D01*
X014442Y005572D01*
X014406Y005572D01*
X014370Y005536D01*
X014298Y005572D02*
X014262Y005536D01*
X014262Y005428D01*
X014478Y005428D01*
D11*
X012030Y004611D02*
X012030Y004516D01*
X011983Y004469D01*
X011792Y004659D01*
X011983Y004659D01*
X012030Y004611D01*
X011983Y004469D02*
X011792Y004469D01*
X011745Y004516D01*
X011745Y004611D01*
X011792Y004659D01*
X012030Y004369D02*
X012030Y004179D01*
X012030Y004274D02*
X011745Y004274D01*
X011840Y004179D01*
X011792Y004079D02*
X011745Y004031D01*
X011745Y003936D01*
X011792Y003889D01*
X011983Y003889D01*
X012030Y003936D01*
X012030Y004031D01*
X011983Y004079D01*
X010677Y005342D02*
X010677Y005389D01*
X010630Y005437D01*
X010487Y005437D01*
X010487Y005342D01*
X010535Y005294D01*
X010630Y005294D01*
X010677Y005342D01*
X010582Y005532D02*
X010487Y005437D01*
X010387Y005437D02*
X010387Y005532D01*
X010340Y005580D01*
X010197Y005580D01*
X010197Y005294D01*
X010197Y005389D02*
X010340Y005389D01*
X010387Y005437D01*
X010292Y005389D02*
X010387Y005294D01*
X010582Y005532D02*
X010677Y005580D01*
X010160Y005755D02*
X010160Y005850D01*
X010112Y005897D01*
X010112Y005997D02*
X010017Y005997D01*
X010017Y006140D01*
X010065Y006187D01*
X010112Y006187D01*
X010160Y006140D01*
X010160Y006045D01*
X010112Y005997D01*
X010017Y005997D02*
X009922Y006092D01*
X009875Y006187D01*
X009922Y005897D02*
X009875Y005850D01*
X009875Y005755D01*
X009922Y005707D01*
X010112Y005707D01*
X010160Y005755D01*
X009486Y005337D02*
X009344Y005195D01*
X009534Y005195D01*
X009486Y005337D02*
X009486Y005052D01*
X009244Y005052D02*
X009149Y005147D01*
X009196Y005147D02*
X009054Y005147D01*
X009054Y005052D02*
X009054Y005337D01*
X009196Y005337D01*
X009244Y005290D01*
X009244Y005195D01*
X009196Y005147D01*
X008585Y005717D02*
X008538Y005670D01*
X008348Y005670D01*
X008300Y005717D01*
X008300Y005812D01*
X008348Y005860D01*
X008443Y005960D02*
X008443Y006150D01*
X008585Y006102D02*
X008300Y006102D01*
X008443Y005960D01*
X008538Y005860D02*
X008585Y005812D01*
X008585Y005717D01*
X009087Y005755D02*
X009135Y005707D01*
X009325Y005707D01*
X009373Y005755D01*
X009373Y005850D01*
X009325Y005897D01*
X009325Y005997D02*
X009373Y006045D01*
X009373Y006140D01*
X009325Y006187D01*
X009278Y006187D01*
X009230Y006140D01*
X009230Y006092D01*
X009230Y006140D02*
X009182Y006187D01*
X009135Y006187D01*
X009087Y006140D01*
X009087Y006045D01*
X009135Y005997D01*
X009135Y005897D02*
X009087Y005850D01*
X009087Y005755D01*
X007798Y005755D02*
X007798Y005850D01*
X007750Y005897D01*
X007750Y005997D02*
X007798Y006045D01*
X007798Y006140D01*
X007750Y006187D01*
X007655Y006187D01*
X007608Y006140D01*
X007608Y006092D01*
X007655Y005997D01*
X007513Y005997D01*
X007513Y006187D01*
X007560Y005897D02*
X007513Y005850D01*
X007513Y005755D01*
X007560Y005707D01*
X007750Y005707D01*
X007798Y005755D01*
X007010Y005707D02*
X006725Y005707D01*
X006725Y005850D01*
X006773Y005897D01*
X006868Y005897D01*
X006915Y005850D01*
X006915Y005707D01*
X006915Y005802D02*
X007010Y005897D01*
X006963Y005997D02*
X007010Y006045D01*
X007010Y006140D01*
X006963Y006187D01*
X006915Y006187D01*
X006868Y006140D01*
X006868Y006092D01*
X006868Y006140D02*
X006820Y006187D01*
X006773Y006187D01*
X006725Y006140D01*
X006725Y006045D01*
X006773Y005997D01*
X006223Y005997D02*
X006033Y006187D01*
X005985Y006187D01*
X005938Y006140D01*
X005938Y006045D01*
X005985Y005997D01*
X005985Y005897D02*
X005938Y005850D01*
X005938Y005755D01*
X005985Y005707D01*
X006175Y005707D01*
X006223Y005755D01*
X006223Y005850D01*
X006175Y005897D01*
X006223Y005997D02*
X006223Y006187D01*
X005534Y005658D02*
X005534Y005468D01*
X005534Y005563D02*
X005249Y005563D01*
X005344Y005468D01*
X005296Y005368D02*
X005249Y005320D01*
X005249Y005225D01*
X005296Y005178D01*
X005486Y005178D01*
X005534Y005225D01*
X005534Y005320D01*
X005486Y005368D01*
X005707Y005337D02*
X005850Y005337D01*
X005897Y005290D01*
X005897Y005195D01*
X005850Y005147D01*
X005707Y005147D01*
X005707Y005052D02*
X005707Y005337D01*
X005802Y005147D02*
X005897Y005052D01*
X005997Y005100D02*
X006045Y005052D01*
X006140Y005052D01*
X006187Y005100D01*
X006187Y005195D01*
X006140Y005242D01*
X006092Y005242D01*
X005997Y005195D01*
X005997Y005337D01*
X006187Y005337D01*
X006987Y004058D02*
X007129Y004058D01*
X007177Y004010D01*
X007177Y003915D01*
X007129Y003868D01*
X006987Y003868D01*
X007082Y003868D02*
X007177Y003773D01*
X007277Y003773D02*
X007277Y003820D01*
X007467Y004010D01*
X007467Y004058D01*
X007277Y004058D01*
X006987Y004058D02*
X006987Y003773D01*
X005400Y002690D02*
X005210Y002690D01*
X005305Y002690D02*
X005305Y002975D01*
X005210Y002880D01*
X005110Y002833D02*
X005062Y002785D01*
X004920Y002785D01*
X005015Y002785D02*
X005110Y002690D01*
X005110Y002833D02*
X005110Y002928D01*
X005062Y002975D01*
X004920Y002975D01*
X004920Y002690D01*
X006050Y001499D02*
X006002Y001451D01*
X006002Y001404D01*
X006050Y001356D01*
X006145Y001356D01*
X006192Y001309D01*
X006192Y001261D01*
X006145Y001214D01*
X006050Y001214D01*
X006002Y001261D01*
X006192Y001451D02*
X006145Y001499D01*
X006050Y001499D01*
X006292Y001404D02*
X006387Y001499D01*
X006387Y001214D01*
X006292Y001214D02*
X006482Y001214D01*
X008069Y001156D02*
X008069Y000966D01*
X008117Y000918D01*
X008212Y000918D01*
X008259Y000966D01*
X008359Y000966D02*
X008407Y000918D01*
X008502Y000918D01*
X008549Y000966D01*
X008549Y001156D01*
X008502Y001204D01*
X008407Y001204D01*
X008359Y001156D01*
X008359Y001108D01*
X008407Y001061D01*
X008549Y001061D01*
X008259Y001156D02*
X008212Y001204D01*
X008117Y001204D01*
X008069Y001156D01*
X010229Y002257D02*
X010351Y002257D01*
X010290Y002257D02*
X010290Y002621D01*
X010229Y002621D02*
X010351Y002621D01*
X010471Y002560D02*
X010471Y002318D01*
X010532Y002257D01*
X010653Y002257D01*
X010714Y002318D01*
X010834Y002257D02*
X011076Y002257D01*
X010955Y002257D02*
X010955Y002621D01*
X010834Y002500D01*
X010714Y002560D02*
X010653Y002621D01*
X010532Y002621D01*
X010471Y002560D01*
X012302Y001451D02*
X012302Y001404D01*
X012349Y001356D01*
X012444Y001356D01*
X012492Y001309D01*
X012492Y001261D01*
X012444Y001214D01*
X012349Y001214D01*
X012302Y001261D01*
X012302Y001451D02*
X012349Y001499D01*
X012444Y001499D01*
X012492Y001451D01*
X012592Y001451D02*
X012639Y001499D01*
X012734Y001499D01*
X012782Y001451D01*
X012782Y001404D01*
X012592Y001214D01*
X012782Y001214D01*
X009880Y008005D02*
X009785Y008005D01*
X009737Y008052D01*
X009737Y008100D01*
X009785Y008148D01*
X009880Y008148D01*
X009927Y008100D01*
X009927Y008052D01*
X009880Y008005D01*
X009637Y008005D02*
X009542Y008100D01*
X009590Y008100D02*
X009447Y008100D01*
X009447Y008005D02*
X009447Y008290D01*
X009590Y008290D01*
X009637Y008243D01*
X009637Y008148D01*
X009590Y008100D01*
X009737Y008195D02*
X009737Y008243D01*
X009785Y008290D01*
X009880Y008290D01*
X009927Y008243D01*
X009927Y008195D01*
X009880Y008148D01*
X009785Y008148D02*
X009737Y008195D01*
D12*
X001445Y000899D02*
X001195Y000899D01*
X001195Y005649D01*
X003695Y005649D01*
X003695Y000899D01*
X003445Y000899D01*
X003445Y000149D01*
X001445Y000149D02*
X001445Y000899D01*
X005629Y002582D02*
X005629Y003082D01*
X006729Y003082D01*
X006729Y002582D01*
X005629Y002582D01*
X005826Y003665D02*
X005826Y004165D01*
X006926Y004165D01*
X006926Y003665D01*
X005826Y003665D01*
X006416Y004945D02*
X006416Y005445D01*
X007516Y005445D01*
X007516Y004945D01*
X006416Y004945D01*
X007754Y004604D02*
X010116Y004604D01*
X010116Y002242D01*
X007754Y002242D01*
X007754Y004604D01*
X007794Y004945D02*
X007794Y005445D01*
X008894Y005445D01*
X008894Y004945D01*
X007794Y004945D01*
X004143Y004506D02*
X004145Y004637D01*
X004151Y004767D01*
X004161Y004897D01*
X004175Y005027D01*
X004192Y005156D01*
X004214Y005285D01*
X004240Y005413D01*
X004269Y005540D01*
X004302Y005666D01*
X004340Y005791D01*
X004380Y005915D01*
X004425Y006038D01*
X004473Y006159D01*
X004525Y006279D01*
X004581Y006397D01*
X004640Y006513D01*
X004703Y006628D01*
X004769Y006740D01*
X004838Y006851D01*
X004911Y006959D01*
X004987Y007065D01*
X005067Y007169D01*
X005149Y007270D01*
X005234Y007369D01*
X005323Y007465D01*
X005414Y007558D01*
X005508Y007649D01*
X005605Y007736D01*
X005704Y007821D01*
X005806Y007902D01*
X005910Y007981D01*
X006017Y008056D01*
X006126Y008128D01*
X006237Y008197D01*
X006350Y008262D01*
X006465Y008324D01*
X006582Y008382D01*
X006700Y008437D01*
X006820Y008488D01*
X006942Y008535D01*
X007065Y008579D01*
X007189Y008619D01*
X007314Y008655D01*
X007441Y008688D01*
X007568Y008716D01*
X007696Y008741D01*
X007825Y008761D01*
X007955Y008778D01*
X008084Y008791D01*
X008215Y008800D01*
X008345Y008805D01*
X008476Y008806D01*
X008606Y008803D01*
X008736Y008796D01*
X008867Y008785D01*
X008996Y008770D01*
X009125Y008752D01*
X009254Y008729D01*
X009382Y008702D01*
X009509Y008672D01*
X009635Y008638D01*
X009759Y008600D01*
X009883Y008558D01*
X010005Y008512D01*
X010126Y008463D01*
X010245Y008410D01*
X010363Y008353D01*
X010479Y008293D01*
X010593Y008230D01*
X010705Y008163D01*
X010815Y008093D01*
X010923Y008019D01*
X011028Y007942D01*
X011131Y007862D01*
X011232Y007779D01*
X011330Y007693D01*
X011425Y007604D01*
X011518Y007512D01*
X011608Y007417D01*
X011695Y007320D01*
X011779Y007220D01*
X011859Y007117D01*
X011937Y007012D01*
X012012Y006905D01*
X012083Y006796D01*
X012150Y006684D01*
X012215Y006571D01*
X012276Y006455D01*
X012333Y006338D01*
X012387Y006219D01*
X012437Y006099D01*
X012484Y005977D01*
X012526Y005853D01*
X012565Y005729D01*
X012601Y005603D01*
X012632Y005476D01*
X012660Y005349D01*
X012683Y005221D01*
X012703Y005092D01*
X012719Y004962D01*
X012731Y004832D01*
X012739Y004702D01*
X012743Y004571D01*
X012743Y004441D01*
X012739Y004310D01*
X012731Y004180D01*
X012719Y004050D01*
X012703Y003920D01*
X012683Y003791D01*
X012660Y003663D01*
X012632Y003536D01*
X012601Y003409D01*
X012565Y003283D01*
X012526Y003159D01*
X012484Y003035D01*
X012437Y002913D01*
X012387Y002793D01*
X012333Y002674D01*
X012276Y002557D01*
X012215Y002441D01*
X012150Y002328D01*
X012083Y002216D01*
X012012Y002107D01*
X011937Y002000D01*
X011859Y001895D01*
X011779Y001792D01*
X011695Y001692D01*
X011608Y001595D01*
X011518Y001500D01*
X011425Y001408D01*
X011330Y001319D01*
X011232Y001233D01*
X011131Y001150D01*
X011028Y001070D01*
X010923Y000993D01*
X010815Y000919D01*
X010705Y000849D01*
X010593Y000782D01*
X010479Y000719D01*
X010363Y000659D01*
X010245Y000602D01*
X010126Y000549D01*
X010005Y000500D01*
X009883Y000454D01*
X009759Y000412D01*
X009635Y000374D01*
X009509Y000340D01*
X009382Y000310D01*
X009254Y000283D01*
X009125Y000260D01*
X008996Y000242D01*
X008867Y000227D01*
X008736Y000216D01*
X008606Y000209D01*
X008476Y000206D01*
X008345Y000207D01*
X008215Y000212D01*
X008084Y000221D01*
X007955Y000234D01*
X007825Y000251D01*
X007696Y000271D01*
X007568Y000296D01*
X007441Y000324D01*
X007314Y000357D01*
X007189Y000393D01*
X007065Y000433D01*
X006942Y000477D01*
X006820Y000524D01*
X006700Y000575D01*
X006582Y000630D01*
X006465Y000688D01*
X006350Y000750D01*
X006237Y000815D01*
X006126Y000884D01*
X006017Y000956D01*
X005910Y001031D01*
X005806Y001110D01*
X005704Y001191D01*
X005605Y001276D01*
X005508Y001363D01*
X005414Y001454D01*
X005323Y001547D01*
X005234Y001643D01*
X005149Y001742D01*
X005067Y001843D01*
X004987Y001947D01*
X004911Y002053D01*
X004838Y002161D01*
X004769Y002272D01*
X004703Y002384D01*
X004640Y002499D01*
X004581Y002615D01*
X004525Y002733D01*
X004473Y002853D01*
X004425Y002974D01*
X004380Y003097D01*
X004340Y003221D01*
X004302Y003346D01*
X004269Y003472D01*
X004240Y003599D01*
X004214Y003727D01*
X004192Y003856D01*
X004175Y003985D01*
X004161Y004115D01*
X004151Y004245D01*
X004145Y004375D01*
X004143Y004506D01*
X005142Y005826D02*
X005642Y005826D01*
X005642Y006926D01*
X005142Y006926D01*
X005142Y005826D01*
X005831Y006416D02*
X005831Y007516D01*
X006331Y007516D01*
X006331Y006416D01*
X005831Y006416D01*
X006618Y006416D02*
X006618Y007516D01*
X007118Y007516D01*
X007118Y006416D01*
X006618Y006416D01*
X007405Y006416D02*
X007405Y007516D01*
X007905Y007516D01*
X007905Y006416D01*
X007405Y006416D01*
X008193Y006416D02*
X008693Y006416D01*
X008693Y007516D01*
X008193Y007516D01*
X008193Y006416D01*
X008980Y006416D02*
X009480Y006416D01*
X009480Y007516D01*
X008980Y007516D01*
X008980Y006416D01*
X009768Y006416D02*
X010268Y006416D01*
X010268Y007516D01*
X009768Y007516D01*
X009768Y006416D01*
X010944Y005642D02*
X012044Y005642D01*
X012044Y005142D01*
X010944Y005142D01*
X010944Y005642D01*
X012543Y005756D02*
X014043Y005756D01*
X014043Y003256D01*
X012543Y003256D01*
X012138Y003776D02*
X012138Y002676D01*
X011638Y002676D01*
X011638Y003776D01*
X012138Y003776D01*
X009780Y001311D02*
X008680Y001311D01*
X008680Y000811D01*
X009780Y000811D01*
X009780Y001311D01*
X009288Y007897D02*
X008188Y007897D01*
X008188Y008397D01*
X009288Y008397D01*
X009288Y007897D01*
D13*
X009615Y004213D02*
X009725Y004213D01*
X009725Y004103D01*
X008255Y004213D02*
X008145Y004213D01*
X008145Y004103D01*
X008145Y002743D02*
X008145Y002633D01*
X008255Y002633D01*
X009615Y002633D02*
X009725Y002633D01*
X009725Y002743D01*
D14*
X008049Y002537D03*
D15*
X007596Y001474D02*
X007596Y001238D01*
X007340Y000844D02*
X005214Y000844D01*
X004958Y001238D02*
X004958Y001474D01*
X005687Y001868D02*
X006277Y001868D01*
X011258Y001474D02*
X011258Y001238D01*
X011514Y000844D02*
X013640Y000844D01*
X013895Y001238D02*
X013895Y001474D01*
X012577Y001868D02*
X011986Y001868D01*
D16*
X002642Y001908D02*
X002459Y001908D01*
X002551Y001908D02*
X002551Y002183D01*
X002459Y002091D01*
X002352Y002183D02*
X002260Y002183D01*
X002306Y002183D02*
X002306Y001953D01*
X002260Y001908D01*
X002215Y001908D01*
X002169Y001953D01*
M02*
