G75*
%MOIN*%
%OFA0B0*%
%FSLAX24Y24*%
%IPPOS*%
%LPD*%
%AMOC8*
5,1,8,0,0,1.08239X$1,22.5*
%
%ADD10C,0.0740*%
%ADD11R,0.0295X0.0984*%
%ADD12C,0.0088*%
%ADD13C,0.0080*%
%ADD14C,0.0060*%
%ADD15C,0.0240*%
D10*
X001425Y008375D03*
X002425Y008375D03*
X003425Y008375D03*
X004425Y008375D03*
X005425Y008375D03*
D11*
X004925Y009638D03*
X004425Y009638D03*
X003925Y009638D03*
X003425Y009638D03*
X002925Y009638D03*
X002925Y011138D03*
X003425Y011138D03*
X003925Y011138D03*
X004425Y011138D03*
X004925Y011138D03*
D12*
X001556Y010656D02*
X001556Y010394D01*
X001294Y010394D01*
X001294Y010656D01*
X001556Y010656D01*
X001556Y010481D02*
X001294Y010481D01*
X001294Y010568D02*
X001556Y010568D01*
X001556Y010655D02*
X001294Y010655D01*
X001556Y010056D02*
X001556Y009794D01*
X001294Y009794D01*
X001294Y010056D01*
X001556Y010056D01*
X001556Y009881D02*
X001294Y009881D01*
X001294Y009968D02*
X001556Y009968D01*
X001556Y010055D02*
X001294Y010055D01*
D13*
X001425Y009175D02*
X002975Y010725D01*
X002925Y011138D01*
X002925Y010825D01*
X003225Y010525D01*
X003825Y010525D01*
X004175Y010875D01*
X003925Y011125D01*
X003925Y011138D01*
X004175Y010875D02*
X004425Y011125D01*
X004425Y011138D01*
X001425Y009175D02*
X001425Y008375D01*
D14*
X001375Y007725D02*
X004775Y007725D01*
X005425Y008375D01*
X005425Y009925D01*
X004925Y010425D01*
X004925Y011138D01*
X004925Y009638D02*
X004925Y008175D01*
X004625Y007875D01*
X002925Y007875D01*
X002425Y008375D01*
X002875Y008925D02*
X002875Y009575D01*
X002925Y009638D01*
X002925Y009625D01*
X002875Y009575D01*
X002175Y009575D01*
X001825Y009925D02*
X001425Y009925D01*
X000925Y009925D02*
X000925Y008175D01*
X001375Y007725D01*
X002875Y008925D02*
X003425Y008375D01*
X004425Y008375D02*
X004425Y009638D01*
X001425Y010425D02*
X000925Y009925D01*
X001425Y010425D02*
X001425Y010525D01*
D15*
X001825Y009925D03*
X002175Y009575D03*
M02*
