G75*
%MOIN*%
%OFA0B0*%
%FSLAX25Y25*%
%IPPOS*%
%LPD*%
%AMOC8*
5,1,8,0,0,1.08239X$1,22.5*
%
%ADD10C,0.00800*%
%ADD11C,0.00400*%
%ADD12C,0.00500*%
D10*
X0011750Y0078750D02*
X0016750Y0078750D01*
X0019250Y0081250D01*
X0019250Y0086250D01*
X0016750Y0088750D01*
X0011750Y0088750D01*
X0009250Y0086250D01*
X0009250Y0081250D01*
X0011750Y0078750D01*
X0019250Y0081250D02*
X0021750Y0078750D01*
X0026750Y0078750D01*
X0029250Y0081250D01*
X0031750Y0078750D01*
X0036750Y0078750D01*
X0039250Y0081250D01*
X0039250Y0086250D01*
X0036750Y0088750D01*
X0031750Y0088750D01*
X0029250Y0086250D01*
X0029250Y0081250D01*
X0029250Y0086250D01*
X0026750Y0088750D01*
X0021750Y0088750D01*
X0019250Y0086250D01*
X0019250Y0081250D01*
X0039250Y0081250D02*
X0041750Y0078750D01*
X0046750Y0078750D01*
X0049250Y0081250D01*
X0049250Y0086250D01*
X0046750Y0088750D01*
X0041750Y0088750D01*
X0039250Y0086250D01*
X0039250Y0081250D01*
X0049250Y0081250D02*
X0051750Y0078750D01*
X0056750Y0078750D01*
X0059250Y0081250D01*
X0059250Y0086250D01*
X0056750Y0088750D01*
X0051750Y0088750D01*
X0049250Y0086250D01*
X0049250Y0081250D01*
D11*
X0024818Y0093406D02*
X0024050Y0092639D01*
X0024818Y0093406D02*
X0024818Y0094941D01*
X0024050Y0095708D01*
X0023283Y0095708D01*
X0022516Y0094941D01*
X0022516Y0093406D01*
X0021748Y0092639D01*
X0020981Y0092639D01*
X0020214Y0093406D01*
X0020214Y0094941D01*
X0020981Y0095708D01*
X0020214Y0097243D02*
X0024818Y0097243D01*
X0023283Y0098778D01*
X0024818Y0100312D01*
X0020214Y0100312D01*
X0020214Y0101847D02*
X0020214Y0104149D01*
X0020981Y0104916D01*
X0024050Y0104916D01*
X0024818Y0104149D01*
X0024818Y0101847D01*
X0020214Y0101847D01*
D12*
X0016750Y0096750D02*
X0011750Y0096750D01*
X0011750Y0107750D01*
X0016750Y0107750D01*
X0016750Y0096750D01*
X0018581Y0091455D02*
X0018581Y0112124D01*
X0018583Y0112248D01*
X0018589Y0112371D01*
X0018598Y0112495D01*
X0018612Y0112617D01*
X0018629Y0112740D01*
X0018651Y0112862D01*
X0018676Y0112983D01*
X0018705Y0113103D01*
X0018737Y0113222D01*
X0018774Y0113341D01*
X0018814Y0113458D01*
X0018857Y0113573D01*
X0018905Y0113688D01*
X0018956Y0113800D01*
X0019010Y0113911D01*
X0019068Y0114021D01*
X0019129Y0114128D01*
X0019194Y0114234D01*
X0019262Y0114337D01*
X0019333Y0114438D01*
X0019407Y0114537D01*
X0019484Y0114634D01*
X0019565Y0114728D01*
X0019648Y0114819D01*
X0019734Y0114908D01*
X0019823Y0114994D01*
X0019914Y0115077D01*
X0020008Y0115158D01*
X0020105Y0115235D01*
X0020204Y0115309D01*
X0020305Y0115380D01*
X0020408Y0115448D01*
X0020514Y0115513D01*
X0020621Y0115574D01*
X0020731Y0115632D01*
X0020842Y0115686D01*
X0020954Y0115737D01*
X0021069Y0115785D01*
X0021184Y0115828D01*
X0021301Y0115868D01*
X0021420Y0115905D01*
X0021539Y0115937D01*
X0021659Y0115966D01*
X0021780Y0115991D01*
X0021902Y0116013D01*
X0022025Y0116030D01*
X0022147Y0116044D01*
X0022271Y0116053D01*
X0022394Y0116059D01*
X0022518Y0116061D01*
X0026455Y0116061D01*
X0026455Y0091455D01*
X0018581Y0091455D01*
X0026455Y0091455D02*
X0055077Y0091455D01*
X0055201Y0091457D01*
X0055324Y0091463D01*
X0055448Y0091472D01*
X0055570Y0091486D01*
X0055693Y0091503D01*
X0055815Y0091525D01*
X0055936Y0091550D01*
X0056056Y0091579D01*
X0056175Y0091611D01*
X0056294Y0091648D01*
X0056411Y0091688D01*
X0056526Y0091731D01*
X0056641Y0091779D01*
X0056753Y0091830D01*
X0056864Y0091884D01*
X0056974Y0091942D01*
X0057081Y0092003D01*
X0057187Y0092068D01*
X0057290Y0092136D01*
X0057391Y0092207D01*
X0057490Y0092281D01*
X0057587Y0092358D01*
X0057681Y0092439D01*
X0057772Y0092522D01*
X0057861Y0092608D01*
X0057947Y0092697D01*
X0058030Y0092788D01*
X0058111Y0092882D01*
X0058188Y0092979D01*
X0058262Y0093078D01*
X0058333Y0093179D01*
X0058401Y0093282D01*
X0058466Y0093388D01*
X0058527Y0093495D01*
X0058585Y0093605D01*
X0058639Y0093716D01*
X0058690Y0093828D01*
X0058738Y0093943D01*
X0058781Y0094058D01*
X0058821Y0094175D01*
X0058858Y0094294D01*
X0058890Y0094413D01*
X0058919Y0094533D01*
X0058944Y0094654D01*
X0058966Y0094776D01*
X0058983Y0094899D01*
X0058997Y0095021D01*
X0059006Y0095145D01*
X0059012Y0095268D01*
X0059014Y0095392D01*
X0059014Y0112124D01*
X0059014Y0106219D01*
X0047124Y0106219D01*
X0047124Y0116061D01*
X0055077Y0116061D01*
X0055760Y0116001D01*
X0056423Y0115824D01*
X0057045Y0115534D01*
X0057607Y0115140D01*
X0058093Y0114655D01*
X0058486Y0114093D01*
X0058776Y0113471D01*
X0058954Y0112808D01*
X0059014Y0112124D01*
X0059014Y0111921D02*
X0047124Y0111921D01*
X0047124Y0112420D02*
X0058988Y0112420D01*
X0058924Y0112918D02*
X0047124Y0112918D01*
X0047124Y0113417D02*
X0058791Y0113417D01*
X0058569Y0113915D02*
X0047124Y0113915D01*
X0047124Y0114414D02*
X0058262Y0114414D01*
X0057835Y0114912D02*
X0047124Y0114912D01*
X0047124Y0115411D02*
X0057221Y0115411D01*
X0056104Y0115909D02*
X0047124Y0115909D01*
X0047124Y0111422D02*
X0059014Y0111422D01*
X0059014Y0110924D02*
X0047124Y0110924D01*
X0047124Y0110425D02*
X0059014Y0110425D01*
X0059014Y0109927D02*
X0047124Y0109927D01*
X0047124Y0109428D02*
X0059014Y0109428D01*
X0059014Y0108930D02*
X0047124Y0108930D01*
X0047124Y0108431D02*
X0059014Y0108431D01*
X0059014Y0107933D02*
X0047124Y0107933D01*
X0047124Y0107434D02*
X0059014Y0107434D01*
X0059014Y0106936D02*
X0047124Y0106936D01*
X0047124Y0106437D02*
X0059014Y0106437D01*
X0059014Y0112124D02*
X0059012Y0112248D01*
X0059006Y0112371D01*
X0058997Y0112495D01*
X0058983Y0112617D01*
X0058966Y0112740D01*
X0058944Y0112862D01*
X0058919Y0112983D01*
X0058890Y0113103D01*
X0058858Y0113222D01*
X0058821Y0113341D01*
X0058781Y0113458D01*
X0058738Y0113573D01*
X0058690Y0113688D01*
X0058639Y0113800D01*
X0058585Y0113911D01*
X0058527Y0114021D01*
X0058466Y0114128D01*
X0058401Y0114234D01*
X0058333Y0114337D01*
X0058262Y0114438D01*
X0058188Y0114537D01*
X0058111Y0114634D01*
X0058030Y0114728D01*
X0057947Y0114819D01*
X0057861Y0114908D01*
X0057772Y0114994D01*
X0057681Y0115077D01*
X0057587Y0115158D01*
X0057490Y0115235D01*
X0057391Y0115309D01*
X0057290Y0115380D01*
X0057187Y0115448D01*
X0057081Y0115513D01*
X0056974Y0115574D01*
X0056864Y0115632D01*
X0056753Y0115686D01*
X0056641Y0115737D01*
X0056526Y0115785D01*
X0056411Y0115828D01*
X0056294Y0115868D01*
X0056175Y0115905D01*
X0056056Y0115937D01*
X0055936Y0115966D01*
X0055815Y0115991D01*
X0055693Y0116013D01*
X0055570Y0116030D01*
X0055448Y0116044D01*
X0055324Y0116053D01*
X0055201Y0116059D01*
X0055077Y0116061D01*
X0026455Y0116061D01*
M02*
