G75*
%MOIN*%
%OFA0B0*%
%FSLAX24Y24*%
%IPPOS*%
%LPD*%
%AMOC8*
5,1,8,0,0,1.08239X$1,22.5*
%
%ADD10C,0.0030*%
D10*
X001252Y009190D02*
X001190Y009252D01*
X001190Y009375D01*
X001252Y009437D01*
X001375Y009437D01*
X001375Y009313D01*
X001252Y009190D02*
X001499Y009190D01*
X001560Y009252D01*
X001560Y009375D01*
X001499Y009437D01*
X001560Y009558D02*
X001190Y009805D01*
X001560Y009805D01*
X001560Y009927D02*
X001560Y010112D01*
X001499Y010174D01*
X001252Y010174D01*
X001190Y010112D01*
X001190Y009927D01*
X001560Y009927D01*
X001560Y009558D02*
X001190Y009558D01*
X002190Y009558D02*
X002313Y009682D01*
X002190Y009805D01*
X002560Y009805D01*
X002560Y009927D02*
X002560Y010112D01*
X002499Y010174D01*
X002252Y010174D01*
X002190Y010112D01*
X002190Y009927D01*
X002560Y009927D01*
X002560Y010295D02*
X002560Y010418D01*
X002560Y010357D02*
X002190Y010357D01*
X002190Y010418D02*
X002190Y010295D01*
X002252Y010540D02*
X002190Y010602D01*
X002190Y010726D01*
X002252Y010787D01*
X002499Y010787D01*
X002560Y010726D01*
X002560Y010602D01*
X002499Y010540D01*
X002252Y010540D01*
X003190Y010542D02*
X003190Y010295D01*
X003560Y010295D01*
X003560Y010542D01*
X003560Y010663D02*
X003560Y010910D01*
X003560Y010787D02*
X003190Y010787D01*
X003375Y010418D02*
X003375Y010295D01*
X003313Y010174D02*
X003252Y010174D01*
X003190Y010112D01*
X003190Y009988D01*
X003252Y009927D01*
X003190Y009805D02*
X003190Y009558D01*
X003560Y009558D01*
X003560Y009805D01*
X003499Y009927D02*
X003437Y009927D01*
X003375Y009988D01*
X003375Y010112D01*
X003313Y010174D01*
X003499Y010174D02*
X003560Y010112D01*
X003560Y009988D01*
X003499Y009927D01*
X003375Y009682D02*
X003375Y009558D01*
X003375Y009437D02*
X003313Y009375D01*
X003313Y009190D01*
X003190Y009190D02*
X003560Y009190D01*
X003560Y009375D01*
X003499Y009437D01*
X003375Y009437D01*
X003313Y009313D02*
X003190Y009437D01*
X002560Y009375D02*
X002560Y009252D01*
X002499Y009190D01*
X002437Y009190D01*
X002375Y009252D01*
X002375Y009375D01*
X002313Y009437D01*
X002252Y009437D01*
X002190Y009375D01*
X002190Y009252D01*
X002252Y009190D01*
X002499Y009437D02*
X002560Y009375D01*
X002560Y009558D02*
X002190Y009558D01*
X004190Y009558D02*
X004313Y009682D01*
X004190Y009805D01*
X004560Y009805D01*
X004499Y009927D02*
X004252Y009927D01*
X004190Y009988D01*
X004190Y010112D01*
X004252Y010174D01*
X004190Y010295D02*
X004190Y010542D01*
X004190Y010663D02*
X004560Y010663D01*
X004375Y010725D02*
X004190Y010910D01*
X004313Y010663D02*
X004560Y010910D01*
X005190Y010234D02*
X005313Y010358D01*
X005560Y010358D01*
X005560Y010111D02*
X005313Y010111D01*
X005190Y010234D01*
X005252Y009989D02*
X005190Y009928D01*
X005190Y009804D01*
X005252Y009742D01*
X005252Y009620D02*
X005190Y009620D01*
X005190Y009558D01*
X005252Y009558D01*
X005252Y009620D01*
X005252Y009437D02*
X005190Y009375D01*
X005190Y009252D01*
X005252Y009190D01*
X005375Y009313D02*
X005375Y009375D01*
X005313Y009437D01*
X005252Y009437D01*
X005375Y009375D02*
X005437Y009437D01*
X005499Y009437D01*
X005560Y009375D01*
X005560Y009252D01*
X005499Y009190D01*
X005499Y009742D02*
X005560Y009804D01*
X005560Y009928D01*
X005499Y009989D01*
X005437Y009989D01*
X005375Y009928D01*
X005313Y009989D01*
X005252Y009989D01*
X005375Y009928D02*
X005375Y009866D01*
X004560Y009988D02*
X004499Y009927D01*
X004560Y009988D02*
X004560Y010112D01*
X004499Y010174D01*
X004560Y010295D02*
X004190Y010295D01*
X004190Y009558D02*
X004560Y009558D01*
X004499Y009437D02*
X004560Y009375D01*
X004560Y009252D01*
X004499Y009190D01*
X004437Y009190D01*
X004375Y009252D01*
X004375Y009375D01*
X004313Y009437D01*
X004252Y009437D01*
X004190Y009375D01*
X004190Y009252D01*
X004252Y009190D01*
M02*
