G75*
%MOIN*%
%OFA0B0*%
%FSLAX25Y25*%
%IPPOS*%
%LPD*%
%AMOC8*
5,1,8,0,0,1.08239X$1,22.5*
%
%ADD10C,0.00300*%
D10*
X0012517Y0091900D02*
X0011900Y0092517D01*
X0011900Y0093752D01*
X0012517Y0094369D01*
X0013752Y0094369D01*
X0013752Y0093134D01*
X0014986Y0091900D02*
X0012517Y0091900D01*
X0014986Y0091900D02*
X0015603Y0092517D01*
X0015603Y0093752D01*
X0014986Y0094369D01*
X0015603Y0095583D02*
X0011900Y0098052D01*
X0015603Y0098052D01*
X0015603Y0099266D02*
X0015603Y0101118D01*
X0014986Y0101735D01*
X0012517Y0101735D01*
X0011900Y0101118D01*
X0011900Y0099266D01*
X0015603Y0099266D01*
X0015603Y0095583D02*
X0011900Y0095583D01*
X0021900Y0095583D02*
X0023134Y0096818D01*
X0021900Y0098052D01*
X0025603Y0098052D01*
X0025603Y0099266D02*
X0025603Y0101118D01*
X0024986Y0101735D01*
X0022517Y0101735D01*
X0021900Y0101118D01*
X0021900Y0099266D01*
X0025603Y0099266D01*
X0025603Y0095583D02*
X0021900Y0095583D01*
X0022517Y0094369D02*
X0021900Y0093752D01*
X0021900Y0092517D01*
X0022517Y0091900D01*
X0023752Y0092517D02*
X0023752Y0093752D01*
X0023134Y0094369D01*
X0022517Y0094369D01*
X0023752Y0092517D02*
X0024369Y0091900D01*
X0024986Y0091900D01*
X0025603Y0092517D01*
X0025603Y0093752D01*
X0024986Y0094369D01*
X0031900Y0094369D02*
X0033134Y0093134D01*
X0033134Y0093752D02*
X0033134Y0091900D01*
X0031900Y0091900D02*
X0035603Y0091900D01*
X0035603Y0093752D01*
X0034986Y0094369D01*
X0033752Y0094369D01*
X0033134Y0093752D01*
X0033752Y0095583D02*
X0033752Y0096818D01*
X0035603Y0098052D02*
X0035603Y0095583D01*
X0031900Y0095583D01*
X0031900Y0098052D01*
X0032517Y0099266D02*
X0031900Y0099883D01*
X0031900Y0101118D01*
X0032517Y0101735D01*
X0033134Y0101735D01*
X0033752Y0101118D01*
X0033752Y0099883D01*
X0034369Y0099266D01*
X0034986Y0099266D01*
X0035603Y0099883D01*
X0035603Y0101118D01*
X0034986Y0101735D01*
X0035603Y0102949D02*
X0031900Y0102949D01*
X0031900Y0105418D01*
X0033752Y0104184D02*
X0033752Y0102949D01*
X0035603Y0102949D02*
X0035603Y0105418D01*
X0035603Y0106633D02*
X0035603Y0109101D01*
X0035603Y0107867D02*
X0031900Y0107867D01*
X0025603Y0107256D02*
X0025603Y0106022D01*
X0024986Y0105405D01*
X0022517Y0105405D01*
X0021900Y0106022D01*
X0021900Y0107256D01*
X0022517Y0107874D01*
X0024986Y0107874D01*
X0025603Y0107256D01*
X0025603Y0104184D02*
X0025603Y0102949D01*
X0025603Y0103567D02*
X0021900Y0103567D01*
X0021900Y0104184D02*
X0021900Y0102949D01*
X0041900Y0102949D02*
X0041900Y0105418D01*
X0041900Y0106633D02*
X0045603Y0106633D01*
X0043752Y0107250D02*
X0041900Y0109101D01*
X0043134Y0106633D02*
X0045603Y0109101D01*
X0051900Y0102342D02*
X0053134Y0103577D01*
X0055603Y0103577D01*
X0055603Y0101108D02*
X0053134Y0101108D01*
X0051900Y0102342D01*
X0052517Y0099893D02*
X0051900Y0099276D01*
X0051900Y0098042D01*
X0052517Y0097425D01*
X0052517Y0096200D02*
X0051900Y0096200D01*
X0051900Y0095583D01*
X0052517Y0095583D01*
X0052517Y0096200D01*
X0052517Y0094369D02*
X0051900Y0093752D01*
X0051900Y0092517D01*
X0052517Y0091900D01*
X0053752Y0093134D02*
X0053752Y0093752D01*
X0053134Y0094369D01*
X0052517Y0094369D01*
X0053752Y0093752D02*
X0054369Y0094369D01*
X0054986Y0094369D01*
X0055603Y0093752D01*
X0055603Y0092517D01*
X0054986Y0091900D01*
X0054986Y0097425D02*
X0055603Y0098042D01*
X0055603Y0099276D01*
X0054986Y0099893D01*
X0054369Y0099893D01*
X0053752Y0099276D01*
X0053134Y0099893D01*
X0052517Y0099893D01*
X0053752Y0099276D02*
X0053752Y0098659D01*
X0045603Y0098052D02*
X0041900Y0098052D01*
X0043134Y0096818D01*
X0041900Y0095583D01*
X0045603Y0095583D01*
X0044986Y0094369D02*
X0045603Y0093752D01*
X0045603Y0092517D01*
X0044986Y0091900D01*
X0044369Y0091900D01*
X0043752Y0092517D01*
X0043752Y0093752D01*
X0043134Y0094369D01*
X0042517Y0094369D01*
X0041900Y0093752D01*
X0041900Y0092517D01*
X0042517Y0091900D01*
X0042517Y0099266D02*
X0041900Y0099883D01*
X0041900Y0101118D01*
X0042517Y0101735D01*
X0041900Y0102949D02*
X0045603Y0102949D01*
X0044986Y0101735D02*
X0045603Y0101118D01*
X0045603Y0099883D01*
X0044986Y0099266D01*
X0042517Y0099266D01*
M02*
