G75*
%MOIN*%
%OFA0B0*%
%FSLAX24Y24*%
%IPPOS*%
%LPD*%
%AMOC8*
5,1,8,0,0,1.08239X$1,22.5*
%
%ADD10C,0.0080*%
%ADD11C,0.0040*%
%ADD12C,0.0050*%
D10*
X001175Y007875D02*
X001675Y007875D01*
X001925Y008125D01*
X001925Y008625D01*
X001675Y008875D01*
X001175Y008875D01*
X000925Y008625D01*
X000925Y008125D01*
X001175Y007875D01*
X001925Y008125D02*
X002175Y007875D01*
X002675Y007875D01*
X002925Y008125D01*
X003175Y007875D01*
X003675Y007875D01*
X003925Y008125D01*
X003925Y008625D01*
X003675Y008875D01*
X003175Y008875D01*
X002925Y008625D01*
X002925Y008125D01*
X002925Y008625D01*
X002675Y008875D01*
X002175Y008875D01*
X001925Y008625D01*
X001925Y008125D01*
X003925Y008125D02*
X004175Y007875D01*
X004675Y007875D01*
X004925Y008125D01*
X004925Y008625D01*
X004675Y008875D01*
X004175Y008875D01*
X003925Y008625D01*
X003925Y008125D01*
X004925Y008125D02*
X005175Y007875D01*
X005675Y007875D01*
X005925Y008125D01*
X005925Y008625D01*
X005675Y008875D01*
X005175Y008875D01*
X004925Y008625D01*
X004925Y008125D01*
D11*
X002482Y009341D02*
X002405Y009264D01*
X002482Y009341D02*
X002482Y009494D01*
X002405Y009571D01*
X002328Y009571D01*
X002252Y009494D01*
X002252Y009341D01*
X002175Y009264D01*
X002098Y009264D01*
X002021Y009341D01*
X002021Y009494D01*
X002098Y009571D01*
X002021Y009724D02*
X002482Y009724D01*
X002328Y009878D01*
X002482Y010031D01*
X002021Y010031D01*
X002021Y010185D02*
X002021Y010415D01*
X002098Y010492D01*
X002405Y010492D01*
X002482Y010415D01*
X002482Y010185D01*
X002021Y010185D01*
D12*
X001675Y009675D02*
X001175Y009675D01*
X001175Y010775D01*
X001675Y010775D01*
X001675Y009675D01*
X001858Y009145D02*
X001858Y011212D01*
X001860Y011251D01*
X001866Y011289D01*
X001875Y011326D01*
X001888Y011363D01*
X001905Y011398D01*
X001924Y011431D01*
X001947Y011462D01*
X001973Y011491D01*
X002002Y011517D01*
X002033Y011540D01*
X002066Y011559D01*
X002101Y011576D01*
X002138Y011589D01*
X002175Y011598D01*
X002213Y011604D01*
X002252Y011606D01*
X002645Y011606D01*
X002645Y009145D01*
X001858Y009145D01*
X002645Y009145D02*
X005508Y009145D01*
X005547Y009147D01*
X005585Y009153D01*
X005622Y009162D01*
X005659Y009175D01*
X005694Y009192D01*
X005727Y009211D01*
X005758Y009234D01*
X005787Y009260D01*
X005813Y009289D01*
X005836Y009320D01*
X005855Y009353D01*
X005872Y009388D01*
X005885Y009425D01*
X005894Y009462D01*
X005900Y009500D01*
X005902Y009539D01*
X005901Y009539D02*
X005901Y011212D01*
X005901Y010622D01*
X004712Y010622D01*
X004712Y011606D01*
X005508Y011606D01*
X005576Y011600D01*
X005642Y011582D01*
X005705Y011553D01*
X005761Y011514D01*
X005809Y011465D01*
X005849Y011409D01*
X005878Y011347D01*
X005895Y011281D01*
X005901Y011212D01*
X005900Y011233D02*
X004712Y011233D01*
X004712Y011185D02*
X005901Y011185D01*
X005901Y011136D02*
X004712Y011136D01*
X004712Y011088D02*
X005901Y011088D01*
X005901Y011039D02*
X004712Y011039D01*
X004712Y010991D02*
X005901Y010991D01*
X005901Y010942D02*
X004712Y010942D01*
X004712Y010894D02*
X005901Y010894D01*
X005901Y010845D02*
X004712Y010845D01*
X004712Y010797D02*
X005901Y010797D01*
X005901Y010748D02*
X004712Y010748D01*
X004712Y010700D02*
X005901Y010700D01*
X005901Y010651D02*
X004712Y010651D01*
X004712Y011282D02*
X005895Y011282D01*
X005882Y011330D02*
X004712Y011330D01*
X004712Y011379D02*
X005863Y011379D01*
X005836Y011427D02*
X004712Y011427D01*
X004712Y011476D02*
X005799Y011476D01*
X005746Y011524D02*
X004712Y011524D01*
X004712Y011573D02*
X005663Y011573D01*
X005508Y011606D02*
X002645Y011606D01*
X005508Y011606D02*
X005547Y011604D01*
X005585Y011598D01*
X005622Y011589D01*
X005659Y011576D01*
X005694Y011559D01*
X005727Y011540D01*
X005758Y011517D01*
X005787Y011491D01*
X005813Y011462D01*
X005836Y011431D01*
X005855Y011398D01*
X005872Y011363D01*
X005885Y011326D01*
X005894Y011289D01*
X005900Y011251D01*
X005902Y011212D01*
M02*
