G75*
%MOIN*%
%OFA0B0*%
%FSLAX25Y25*%
%IPPOS*%
%LPD*%
%AMOC8*
5,1,8,0,0,1.08239X$1,22.5*
%
%ADD10C,0.00000*%
D10*
X0014250Y0074250D02*
X0054250Y0074250D01*
X0054431Y0074252D01*
X0054612Y0074259D01*
X0054793Y0074270D01*
X0054974Y0074285D01*
X0055154Y0074305D01*
X0055334Y0074329D01*
X0055513Y0074357D01*
X0055691Y0074390D01*
X0055868Y0074427D01*
X0056045Y0074468D01*
X0056220Y0074513D01*
X0056395Y0074563D01*
X0056568Y0074617D01*
X0056739Y0074675D01*
X0056910Y0074737D01*
X0057078Y0074804D01*
X0057245Y0074874D01*
X0057411Y0074948D01*
X0057574Y0075027D01*
X0057735Y0075109D01*
X0057895Y0075195D01*
X0058052Y0075285D01*
X0058207Y0075379D01*
X0058360Y0075476D01*
X0058510Y0075578D01*
X0058658Y0075682D01*
X0058804Y0075791D01*
X0058946Y0075902D01*
X0059086Y0076018D01*
X0059223Y0076136D01*
X0059358Y0076258D01*
X0059489Y0076383D01*
X0059617Y0076511D01*
X0059742Y0076642D01*
X0059864Y0076777D01*
X0059982Y0076914D01*
X0060098Y0077054D01*
X0060209Y0077196D01*
X0060318Y0077342D01*
X0060422Y0077490D01*
X0060524Y0077640D01*
X0060621Y0077793D01*
X0060715Y0077948D01*
X0060805Y0078105D01*
X0060891Y0078265D01*
X0060973Y0078426D01*
X0061052Y0078589D01*
X0061126Y0078755D01*
X0061196Y0078922D01*
X0061263Y0079090D01*
X0061325Y0079261D01*
X0061383Y0079432D01*
X0061437Y0079605D01*
X0061487Y0079780D01*
X0061532Y0079955D01*
X0061573Y0080132D01*
X0061610Y0080309D01*
X0061643Y0080487D01*
X0061671Y0080666D01*
X0061695Y0080846D01*
X0061715Y0081026D01*
X0061730Y0081207D01*
X0061741Y0081388D01*
X0061748Y0081569D01*
X0061750Y0081750D01*
X0061750Y0111750D01*
X0061748Y0111931D01*
X0061741Y0112112D01*
X0061730Y0112293D01*
X0061715Y0112474D01*
X0061695Y0112654D01*
X0061671Y0112834D01*
X0061643Y0113013D01*
X0061610Y0113191D01*
X0061573Y0113368D01*
X0061532Y0113545D01*
X0061487Y0113720D01*
X0061437Y0113895D01*
X0061383Y0114068D01*
X0061325Y0114239D01*
X0061263Y0114410D01*
X0061196Y0114578D01*
X0061126Y0114745D01*
X0061052Y0114911D01*
X0060973Y0115074D01*
X0060891Y0115235D01*
X0060805Y0115395D01*
X0060715Y0115552D01*
X0060621Y0115707D01*
X0060524Y0115860D01*
X0060422Y0116010D01*
X0060318Y0116158D01*
X0060209Y0116304D01*
X0060098Y0116446D01*
X0059982Y0116586D01*
X0059864Y0116723D01*
X0059742Y0116858D01*
X0059617Y0116989D01*
X0059489Y0117117D01*
X0059358Y0117242D01*
X0059223Y0117364D01*
X0059086Y0117482D01*
X0058946Y0117598D01*
X0058804Y0117709D01*
X0058658Y0117818D01*
X0058510Y0117922D01*
X0058360Y0118024D01*
X0058207Y0118121D01*
X0058052Y0118215D01*
X0057895Y0118305D01*
X0057735Y0118391D01*
X0057574Y0118473D01*
X0057411Y0118552D01*
X0057245Y0118626D01*
X0057078Y0118696D01*
X0056910Y0118763D01*
X0056739Y0118825D01*
X0056568Y0118883D01*
X0056395Y0118937D01*
X0056220Y0118987D01*
X0056045Y0119032D01*
X0055868Y0119073D01*
X0055691Y0119110D01*
X0055513Y0119143D01*
X0055334Y0119171D01*
X0055154Y0119195D01*
X0054974Y0119215D01*
X0054793Y0119230D01*
X0054612Y0119241D01*
X0054431Y0119248D01*
X0054250Y0119250D01*
X0014250Y0119250D01*
X0014069Y0119248D01*
X0013888Y0119241D01*
X0013707Y0119230D01*
X0013526Y0119215D01*
X0013346Y0119195D01*
X0013166Y0119171D01*
X0012987Y0119143D01*
X0012809Y0119110D01*
X0012632Y0119073D01*
X0012455Y0119032D01*
X0012280Y0118987D01*
X0012105Y0118937D01*
X0011932Y0118883D01*
X0011761Y0118825D01*
X0011590Y0118763D01*
X0011422Y0118696D01*
X0011255Y0118626D01*
X0011089Y0118552D01*
X0010926Y0118473D01*
X0010765Y0118391D01*
X0010605Y0118305D01*
X0010448Y0118215D01*
X0010293Y0118121D01*
X0010140Y0118024D01*
X0009990Y0117922D01*
X0009842Y0117818D01*
X0009696Y0117709D01*
X0009554Y0117598D01*
X0009414Y0117482D01*
X0009277Y0117364D01*
X0009142Y0117242D01*
X0009011Y0117117D01*
X0008883Y0116989D01*
X0008758Y0116858D01*
X0008636Y0116723D01*
X0008518Y0116586D01*
X0008402Y0116446D01*
X0008291Y0116304D01*
X0008182Y0116158D01*
X0008078Y0116010D01*
X0007976Y0115860D01*
X0007879Y0115707D01*
X0007785Y0115552D01*
X0007695Y0115395D01*
X0007609Y0115235D01*
X0007527Y0115074D01*
X0007448Y0114911D01*
X0007374Y0114745D01*
X0007304Y0114578D01*
X0007237Y0114410D01*
X0007175Y0114239D01*
X0007117Y0114068D01*
X0007063Y0113895D01*
X0007013Y0113720D01*
X0006968Y0113545D01*
X0006927Y0113368D01*
X0006890Y0113191D01*
X0006857Y0113013D01*
X0006829Y0112834D01*
X0006805Y0112654D01*
X0006785Y0112474D01*
X0006770Y0112293D01*
X0006759Y0112112D01*
X0006752Y0111931D01*
X0006750Y0111750D01*
X0006750Y0081750D01*
X0006752Y0081569D01*
X0006759Y0081388D01*
X0006770Y0081207D01*
X0006785Y0081026D01*
X0006805Y0080846D01*
X0006829Y0080666D01*
X0006857Y0080487D01*
X0006890Y0080309D01*
X0006927Y0080132D01*
X0006968Y0079955D01*
X0007013Y0079780D01*
X0007063Y0079605D01*
X0007117Y0079432D01*
X0007175Y0079261D01*
X0007237Y0079090D01*
X0007304Y0078922D01*
X0007374Y0078755D01*
X0007448Y0078589D01*
X0007527Y0078426D01*
X0007609Y0078265D01*
X0007695Y0078105D01*
X0007785Y0077948D01*
X0007879Y0077793D01*
X0007976Y0077640D01*
X0008078Y0077490D01*
X0008182Y0077342D01*
X0008291Y0077196D01*
X0008402Y0077054D01*
X0008518Y0076914D01*
X0008636Y0076777D01*
X0008758Y0076642D01*
X0008883Y0076511D01*
X0009011Y0076383D01*
X0009142Y0076258D01*
X0009277Y0076136D01*
X0009414Y0076018D01*
X0009554Y0075902D01*
X0009696Y0075791D01*
X0009842Y0075682D01*
X0009990Y0075578D01*
X0010140Y0075476D01*
X0010293Y0075379D01*
X0010448Y0075285D01*
X0010605Y0075195D01*
X0010765Y0075109D01*
X0010926Y0075027D01*
X0011089Y0074948D01*
X0011255Y0074874D01*
X0011422Y0074804D01*
X0011590Y0074737D01*
X0011761Y0074675D01*
X0011932Y0074617D01*
X0012105Y0074563D01*
X0012280Y0074513D01*
X0012455Y0074468D01*
X0012632Y0074427D01*
X0012809Y0074390D01*
X0012987Y0074357D01*
X0013166Y0074329D01*
X0013346Y0074305D01*
X0013526Y0074285D01*
X0013707Y0074270D01*
X0013888Y0074259D01*
X0014069Y0074252D01*
X0014250Y0074250D01*
M02*
