G75*
%MOIN*%
%OFA0B0*%
%FSLAX24Y24*%
%IPPOS*%
%LPD*%
%AMOC8*
5,1,8,0,0,1.08239X$1,22.5*
%
%ADD10C,0.0000*%
D10*
X001356Y000175D02*
X001356Y000962D01*
X001651Y000962D01*
X001848Y001455D01*
X003029Y001455D01*
X003226Y000962D01*
X003521Y000962D01*
X003521Y000175D01*
X005096Y000175D01*
X005293Y000766D01*
X007163Y000766D01*
X007360Y000175D01*
X011494Y000175D01*
X011691Y000766D01*
X013462Y000766D01*
X013659Y000175D01*
X013955Y000175D01*
X014021Y000177D01*
X014087Y000182D01*
X014153Y000192D01*
X014218Y000205D01*
X014282Y000221D01*
X014345Y000241D01*
X014407Y000265D01*
X014467Y000292D01*
X014526Y000322D01*
X014583Y000356D01*
X014638Y000393D01*
X014691Y000433D01*
X014742Y000475D01*
X014790Y000521D01*
X014836Y000569D01*
X014878Y000620D01*
X014918Y000673D01*
X014955Y000728D01*
X014989Y000785D01*
X015019Y000844D01*
X015046Y000904D01*
X015070Y000966D01*
X015090Y001029D01*
X015106Y001093D01*
X015119Y001158D01*
X015129Y001224D01*
X015134Y001290D01*
X015136Y001356D01*
X015136Y007655D01*
X015134Y007721D01*
X015129Y007787D01*
X015119Y007853D01*
X015106Y007918D01*
X015090Y007982D01*
X015070Y008045D01*
X015046Y008107D01*
X015019Y008167D01*
X014989Y008226D01*
X014955Y008283D01*
X014918Y008338D01*
X014878Y008391D01*
X014836Y008442D01*
X014790Y008490D01*
X014742Y008536D01*
X014691Y008578D01*
X014638Y008618D01*
X014583Y008655D01*
X014526Y008689D01*
X014467Y008719D01*
X014407Y008746D01*
X014345Y008770D01*
X014282Y008790D01*
X014218Y008806D01*
X014153Y008819D01*
X014087Y008829D01*
X014021Y008834D01*
X013955Y008836D01*
X001356Y008836D01*
X001290Y008834D01*
X001224Y008829D01*
X001158Y008819D01*
X001093Y008806D01*
X001029Y008790D01*
X000966Y008770D01*
X000904Y008746D01*
X000844Y008719D01*
X000785Y008689D01*
X000728Y008655D01*
X000673Y008618D01*
X000620Y008578D01*
X000569Y008536D01*
X000521Y008490D01*
X000475Y008442D01*
X000433Y008391D01*
X000393Y008338D01*
X000356Y008283D01*
X000322Y008226D01*
X000292Y008167D01*
X000265Y008107D01*
X000241Y008045D01*
X000221Y007982D01*
X000205Y007918D01*
X000192Y007853D01*
X000182Y007787D01*
X000177Y007721D01*
X000175Y007655D01*
X000175Y001356D01*
X000177Y001290D01*
X000182Y001224D01*
X000192Y001158D01*
X000205Y001093D01*
X000221Y001029D01*
X000241Y000966D01*
X000265Y000904D01*
X000292Y000844D01*
X000322Y000785D01*
X000356Y000728D01*
X000393Y000673D01*
X000433Y000620D01*
X000475Y000569D01*
X000521Y000521D01*
X000569Y000475D01*
X000620Y000433D01*
X000673Y000393D01*
X000728Y000356D01*
X000785Y000322D01*
X000844Y000292D01*
X000904Y000265D01*
X000966Y000241D01*
X001029Y000221D01*
X001093Y000205D01*
X001158Y000192D01*
X001224Y000182D01*
X001290Y000177D01*
X001356Y000175D01*
X005510Y001356D02*
X005512Y001382D01*
X005518Y001408D01*
X005528Y001433D01*
X005541Y001456D01*
X005557Y001476D01*
X005577Y001494D01*
X005599Y001509D01*
X005622Y001521D01*
X005648Y001529D01*
X005674Y001533D01*
X005700Y001533D01*
X005726Y001529D01*
X005752Y001521D01*
X005776Y001509D01*
X005797Y001494D01*
X005817Y001476D01*
X005833Y001456D01*
X005846Y001433D01*
X005856Y001408D01*
X005862Y001382D01*
X005864Y001356D01*
X005862Y001330D01*
X005856Y001304D01*
X005846Y001279D01*
X005833Y001256D01*
X005817Y001236D01*
X005797Y001218D01*
X005775Y001203D01*
X005752Y001191D01*
X005726Y001183D01*
X005700Y001179D01*
X005674Y001179D01*
X005648Y001183D01*
X005622Y001191D01*
X005598Y001203D01*
X005577Y001218D01*
X005557Y001236D01*
X005541Y001256D01*
X005528Y001279D01*
X005518Y001304D01*
X005512Y001330D01*
X005510Y001356D01*
X006691Y001356D02*
X006693Y001382D01*
X006699Y001408D01*
X006709Y001433D01*
X006722Y001456D01*
X006738Y001476D01*
X006758Y001494D01*
X006780Y001509D01*
X006803Y001521D01*
X006829Y001529D01*
X006855Y001533D01*
X006881Y001533D01*
X006907Y001529D01*
X006933Y001521D01*
X006957Y001509D01*
X006978Y001494D01*
X006998Y001476D01*
X007014Y001456D01*
X007027Y001433D01*
X007037Y001408D01*
X007043Y001382D01*
X007045Y001356D01*
X007043Y001330D01*
X007037Y001304D01*
X007027Y001279D01*
X007014Y001256D01*
X006998Y001236D01*
X006978Y001218D01*
X006956Y001203D01*
X006933Y001191D01*
X006907Y001183D01*
X006881Y001179D01*
X006855Y001179D01*
X006829Y001183D01*
X006803Y001191D01*
X006779Y001203D01*
X006758Y001218D01*
X006738Y001236D01*
X006722Y001256D01*
X006709Y001279D01*
X006699Y001304D01*
X006693Y001330D01*
X006691Y001356D01*
X011809Y001356D02*
X011811Y001382D01*
X011817Y001408D01*
X011827Y001433D01*
X011840Y001456D01*
X011856Y001476D01*
X011876Y001494D01*
X011898Y001509D01*
X011921Y001521D01*
X011947Y001529D01*
X011973Y001533D01*
X011999Y001533D01*
X012025Y001529D01*
X012051Y001521D01*
X012075Y001509D01*
X012096Y001494D01*
X012116Y001476D01*
X012132Y001456D01*
X012145Y001433D01*
X012155Y001408D01*
X012161Y001382D01*
X012163Y001356D01*
X012161Y001330D01*
X012155Y001304D01*
X012145Y001279D01*
X012132Y001256D01*
X012116Y001236D01*
X012096Y001218D01*
X012074Y001203D01*
X012051Y001191D01*
X012025Y001183D01*
X011999Y001179D01*
X011973Y001179D01*
X011947Y001183D01*
X011921Y001191D01*
X011897Y001203D01*
X011876Y001218D01*
X011856Y001236D01*
X011840Y001256D01*
X011827Y001279D01*
X011817Y001304D01*
X011811Y001330D01*
X011809Y001356D01*
X012990Y001356D02*
X012992Y001382D01*
X012998Y001408D01*
X013008Y001433D01*
X013021Y001456D01*
X013037Y001476D01*
X013057Y001494D01*
X013079Y001509D01*
X013102Y001521D01*
X013128Y001529D01*
X013154Y001533D01*
X013180Y001533D01*
X013206Y001529D01*
X013232Y001521D01*
X013256Y001509D01*
X013277Y001494D01*
X013297Y001476D01*
X013313Y001456D01*
X013326Y001433D01*
X013336Y001408D01*
X013342Y001382D01*
X013344Y001356D01*
X013342Y001330D01*
X013336Y001304D01*
X013326Y001279D01*
X013313Y001256D01*
X013297Y001236D01*
X013277Y001218D01*
X013255Y001203D01*
X013232Y001191D01*
X013206Y001183D01*
X013180Y001179D01*
X013154Y001179D01*
X013128Y001183D01*
X013102Y001191D01*
X013078Y001203D01*
X013057Y001218D01*
X013037Y001236D01*
X013021Y001256D01*
X013008Y001279D01*
X012998Y001304D01*
X012992Y001330D01*
X012990Y001356D01*
X002195Y005099D02*
X002197Y005130D01*
X002203Y005161D01*
X002213Y005191D01*
X002226Y005219D01*
X002243Y005246D01*
X002263Y005270D01*
X002286Y005292D01*
X002311Y005310D01*
X002339Y005325D01*
X002368Y005337D01*
X002398Y005345D01*
X002429Y005349D01*
X002461Y005349D01*
X002492Y005345D01*
X002522Y005337D01*
X002551Y005325D01*
X002579Y005310D01*
X002604Y005292D01*
X002627Y005270D01*
X002647Y005246D01*
X002664Y005219D01*
X002677Y005191D01*
X002687Y005161D01*
X002693Y005130D01*
X002695Y005099D01*
X002693Y005068D01*
X002687Y005037D01*
X002677Y005007D01*
X002664Y004979D01*
X002647Y004952D01*
X002627Y004928D01*
X002604Y004906D01*
X002579Y004888D01*
X002551Y004873D01*
X002522Y004861D01*
X002492Y004853D01*
X002461Y004849D01*
X002429Y004849D01*
X002398Y004853D01*
X002368Y004861D01*
X002339Y004873D01*
X002311Y004888D01*
X002286Y004906D01*
X002263Y004928D01*
X002243Y004952D01*
X002226Y004979D01*
X002213Y005007D01*
X002203Y005037D01*
X002197Y005068D01*
X002195Y005099D01*
M02*
