G75*
%MOIN*%
%OFA0B0*%
%FSLAX24Y24*%
%IPPOS*%
%LPD*%
%AMOC8*
5,1,8,0,0,1.08239X$1,22.5*
%
%ADD10R,0.0138X0.0787*%
%ADD11C,0.0075*%
%ADD12R,0.1000X0.0500*%
%ADD13C,0.0800*%
%ADD14C,0.0060*%
%ADD15C,0.0240*%
%ADD16C,0.0080*%
D10*
X005864Y005888D03*
X006140Y005888D03*
X006415Y005888D03*
X006691Y005888D03*
X006966Y005888D03*
X007242Y005888D03*
X007518Y005888D03*
X007793Y005888D03*
X008069Y005888D03*
X008344Y005888D03*
X008620Y005888D03*
X008895Y005888D03*
X009171Y005888D03*
X009447Y005888D03*
D11*
X012360Y008187D02*
X012586Y008187D01*
X012586Y007911D01*
X012360Y007911D01*
X012360Y008187D01*
X012360Y007985D02*
X012586Y007985D01*
X012586Y008059D02*
X012360Y008059D01*
X012360Y008133D02*
X012586Y008133D01*
X012960Y008187D02*
X013186Y008187D01*
X013186Y007911D01*
X012960Y007911D01*
X012960Y008187D01*
X012960Y007985D02*
X013186Y007985D01*
X013186Y008059D02*
X012960Y008059D01*
X012960Y008133D02*
X013186Y008133D01*
X008068Y008482D02*
X007842Y008482D01*
X008068Y008482D02*
X008068Y008206D01*
X007842Y008206D01*
X007842Y008482D01*
X007842Y008280D02*
X008068Y008280D01*
X008068Y008354D02*
X007842Y008354D01*
X007842Y008428D02*
X008068Y008428D01*
X007468Y008482D02*
X007242Y008482D01*
X007468Y008482D02*
X007468Y008206D01*
X007242Y008206D01*
X007242Y008482D01*
X007242Y008280D02*
X007468Y008280D01*
X007468Y008354D02*
X007242Y008354D01*
X007242Y008428D02*
X007468Y008428D01*
X002950Y008187D02*
X002724Y008187D01*
X002950Y008187D02*
X002950Y007911D01*
X002724Y007911D01*
X002724Y008187D01*
X002724Y007985D02*
X002950Y007985D01*
X002950Y008059D02*
X002724Y008059D01*
X002724Y008133D02*
X002950Y008133D01*
X002350Y008187D02*
X002124Y008187D01*
X002350Y008187D02*
X002350Y007911D01*
X002124Y007911D01*
X002124Y008187D01*
X002124Y007985D02*
X002350Y007985D01*
X002350Y008059D02*
X002124Y008059D01*
X002124Y008133D02*
X002350Y008133D01*
D12*
X000912Y007324D03*
X000912Y005624D03*
X000912Y004568D03*
X000912Y002868D03*
X004163Y002868D03*
X004163Y004568D03*
X004163Y005624D03*
X004163Y007324D03*
X011148Y007324D03*
X011148Y005624D03*
X011148Y004568D03*
X011148Y002868D03*
X014399Y002868D03*
X014399Y004568D03*
X014399Y005624D03*
X014399Y007324D03*
D13*
X013293Y004506D03*
X005293Y004506D03*
D14*
X005834Y005096D02*
X006376Y004555D01*
X006966Y004899D02*
X006671Y005195D01*
X006671Y005884D01*
X006691Y005888D01*
X006425Y005884D02*
X006415Y005888D01*
X006425Y005884D02*
X006425Y005441D01*
X006277Y005293D01*
X006966Y005490D02*
X006966Y005888D01*
X007242Y005888D02*
X007262Y005884D01*
X007262Y005490D01*
X007606Y005145D01*
X007606Y004703D01*
X007114Y004210D01*
X007114Y003669D01*
X006917Y003374D02*
X007065Y003226D01*
X009968Y003226D01*
X010264Y003521D01*
X010313Y003915D02*
X010805Y003915D01*
X011002Y004112D01*
X011002Y003718D02*
X011346Y003374D01*
X010411Y004752D02*
X010706Y005047D01*
X011445Y005047D01*
X009870Y004752D02*
X008590Y003472D01*
X007606Y003472D01*
X007163Y002931D02*
X006966Y003128D01*
X006819Y003128D01*
X006376Y003571D01*
X006376Y003620D01*
X005933Y003374D02*
X005785Y003521D01*
X004949Y003521D01*
X005145Y003768D02*
X005638Y003768D01*
X005638Y003226D02*
X005145Y003226D01*
X004407Y003620D02*
X005687Y002340D01*
X007114Y002340D01*
X007262Y002488D01*
X007606Y002488D01*
X007754Y002636D01*
X007508Y002242D02*
X007409Y002144D01*
X005047Y002144D01*
X006327Y001553D02*
X006671Y001897D01*
X008787Y001897D01*
X008984Y001701D01*
X009033Y001405D02*
X008590Y001405D01*
X009033Y001405D02*
X009329Y001701D01*
X008394Y004210D02*
X008147Y004210D01*
X008394Y004210D02*
X008935Y004752D01*
X008590Y004801D02*
X008344Y004555D01*
X008147Y004555D01*
X007360Y004801D02*
X007360Y005096D01*
X006966Y005490D01*
X007518Y005888D02*
X007508Y005933D01*
X007508Y006277D01*
X007262Y006523D01*
X008049Y006573D02*
X008344Y006277D01*
X008344Y005888D01*
X008620Y005888D02*
X008640Y005933D01*
X008640Y006277D01*
X008836Y006474D01*
X009181Y006228D02*
X009181Y005933D01*
X009171Y005888D01*
X009447Y005888D02*
X009476Y005933D01*
X009476Y006081D01*
X009870Y006474D01*
X009870Y006769D01*
X009624Y007016D01*
X009722Y007262D02*
X010018Y006966D01*
X010018Y006277D01*
X009624Y006671D02*
X009181Y006228D01*
X008895Y005888D02*
X008886Y005884D01*
X008886Y005441D01*
X009033Y005293D01*
X010756Y006130D02*
X010756Y006671D01*
X009870Y007557D01*
X007606Y007557D01*
X007508Y007655D01*
X007852Y007705D02*
X007360Y008197D01*
X007360Y008344D01*
X007355Y008344D01*
X007951Y008344D02*
X007951Y007951D01*
X007852Y007705D02*
X008590Y007705D01*
X008689Y007803D01*
X008836Y007262D02*
X009722Y007262D01*
X007955Y008344D02*
X007951Y008344D01*
X006474Y006622D02*
X006130Y006277D01*
X006130Y005933D01*
X006140Y005888D01*
X005864Y005888D02*
X005834Y005933D01*
X005588Y005687D01*
X004358Y004407D02*
X004210Y004555D01*
X004163Y004568D01*
X004358Y004407D02*
X004358Y004112D01*
X003177Y003768D02*
X002685Y003275D01*
X003423Y006769D02*
X002586Y007606D01*
X002832Y007901D02*
X002832Y008049D01*
X002837Y008049D01*
X002832Y007901D02*
X003079Y007655D01*
X004163Y007324D02*
X004210Y007360D01*
X004604Y007360D01*
X004899Y007655D01*
X012823Y007655D02*
X013069Y007901D01*
X013069Y008049D01*
X013073Y008049D01*
X014399Y007324D02*
X014447Y007311D01*
X014447Y006819D01*
X013118Y005736D02*
X014250Y004604D01*
X014397Y004604D01*
X014399Y004568D01*
D15*
X013118Y005736D03*
X013758Y006031D03*
X014447Y006819D03*
X013561Y007803D03*
X012823Y007655D03*
X010756Y006130D03*
X010411Y006671D03*
X010018Y006277D03*
X009624Y006671D03*
X009624Y007016D03*
X008836Y007262D03*
X008689Y007803D03*
X007951Y007951D03*
X007508Y007655D03*
X006474Y007262D03*
X006474Y006622D03*
X007262Y006523D03*
X008049Y006573D03*
X008836Y006474D03*
X009033Y005293D03*
X008935Y004752D03*
X008590Y004801D03*
X008147Y004555D03*
X008147Y004210D03*
X007360Y004801D03*
X006966Y004899D03*
X006376Y004555D03*
X005834Y005096D03*
X006277Y005293D03*
X005588Y005687D03*
X005392Y007065D03*
X004899Y007655D03*
X003423Y006769D03*
X003079Y007655D03*
X002586Y007606D03*
X001455Y007852D03*
X004358Y004112D03*
X004407Y003620D03*
X004949Y003521D03*
X005145Y003768D03*
X005638Y003768D03*
X005933Y003374D03*
X005638Y003226D03*
X005145Y003226D03*
X006376Y003620D03*
X006917Y003374D03*
X007114Y003669D03*
X007606Y003472D03*
X007163Y002931D03*
X007016Y002586D03*
X007508Y002242D03*
X007754Y002636D03*
X008984Y001701D03*
X009329Y001701D03*
X009033Y002094D03*
X008590Y001405D03*
X009919Y001061D03*
X011346Y003374D03*
X011002Y003718D03*
X011002Y004112D03*
X010313Y003915D03*
X010264Y003521D03*
X011888Y003915D03*
X010411Y004752D03*
X009870Y004752D03*
X011445Y005047D03*
X009427Y008147D03*
X003177Y003768D03*
X002685Y003275D03*
X005047Y002144D03*
X004014Y001455D03*
X006327Y001553D03*
X001504Y001504D03*
D16*
X000897Y000455D02*
X000641Y000641D01*
X000455Y000897D01*
X000357Y001198D01*
X000345Y001356D01*
X000345Y002495D01*
X000358Y002488D01*
X000393Y002478D01*
X000872Y002478D01*
X000872Y002828D01*
X000952Y002828D01*
X000952Y002908D01*
X001552Y002908D01*
X001552Y003137D01*
X001542Y003172D01*
X001524Y003204D01*
X001498Y003230D01*
X001466Y003249D01*
X001430Y003258D01*
X000952Y003258D01*
X000952Y002908D01*
X000872Y002908D01*
X000872Y003258D01*
X000393Y003258D01*
X000358Y003249D01*
X000345Y003242D01*
X000345Y004215D01*
X000362Y004198D01*
X001461Y004198D01*
X001532Y004269D01*
X001532Y004868D01*
X001461Y004938D01*
X000362Y004938D01*
X000345Y004921D01*
X000345Y005251D01*
X000358Y005244D01*
X000393Y005234D01*
X000872Y005234D01*
X000872Y005584D01*
X000952Y005584D01*
X000952Y005664D01*
X001552Y005664D01*
X001552Y005893D01*
X001542Y005928D01*
X001524Y005960D01*
X001498Y005986D01*
X001466Y006005D01*
X001430Y006014D01*
X000952Y006014D01*
X000952Y005664D01*
X000872Y005664D01*
X000872Y006014D01*
X000393Y006014D01*
X000358Y006005D01*
X000345Y005997D01*
X000345Y006971D01*
X000362Y006954D01*
X001461Y006954D01*
X001532Y007025D01*
X001532Y007624D01*
X001461Y007694D01*
X000362Y007694D01*
X000347Y007679D01*
X000357Y007813D01*
X000455Y008114D01*
X000641Y008370D01*
X000897Y008556D01*
X001198Y008654D01*
X001356Y008666D01*
X013955Y008666D01*
X014113Y008654D01*
X014414Y008556D01*
X014669Y008370D01*
X014855Y008114D01*
X014953Y007813D01*
X014964Y007679D01*
X014949Y007694D01*
X013849Y007694D01*
X013779Y007624D01*
X013779Y007025D01*
X013849Y006954D01*
X014243Y006954D01*
X014207Y006866D01*
X014207Y006771D01*
X014243Y006683D01*
X014311Y006615D01*
X014399Y006579D01*
X014494Y006579D01*
X014583Y006615D01*
X014650Y006683D01*
X014687Y006771D01*
X014687Y006866D01*
X014650Y006954D01*
X014949Y006954D01*
X014966Y006971D01*
X014966Y005997D01*
X014953Y006005D01*
X014917Y006014D01*
X014439Y006014D01*
X014439Y005664D01*
X014359Y005664D01*
X014359Y005584D01*
X014439Y005584D01*
X014439Y005234D01*
X014917Y005234D01*
X014953Y005244D01*
X014966Y005251D01*
X014966Y004921D01*
X014949Y004938D01*
X014128Y004938D01*
X013358Y005708D01*
X013358Y005784D01*
X013321Y005872D01*
X013254Y005939D01*
X013166Y005976D01*
X013070Y005976D01*
X012982Y005939D01*
X012914Y005872D01*
X012878Y005784D01*
X012878Y005688D01*
X012914Y005600D01*
X012982Y005533D01*
X013070Y005496D01*
X013146Y005496D01*
X013779Y004863D01*
X013779Y004690D01*
X013734Y004800D01*
X013587Y004947D01*
X013396Y005026D01*
X013189Y005026D01*
X012998Y004947D01*
X012852Y004800D01*
X012773Y004609D01*
X012773Y004402D01*
X012852Y004211D01*
X012998Y004065D01*
X013189Y003986D01*
X013396Y003986D01*
X013587Y004065D01*
X013734Y004211D01*
X013779Y004321D01*
X013779Y004269D01*
X013849Y004198D01*
X014949Y004198D01*
X014966Y004215D01*
X014966Y003242D01*
X014953Y003249D01*
X014917Y003258D01*
X014439Y003258D01*
X014439Y002908D01*
X014359Y002908D01*
X014359Y002828D01*
X014439Y002828D01*
X014439Y002478D01*
X014917Y002478D01*
X014953Y002488D01*
X014966Y002495D01*
X014966Y001356D01*
X014953Y001198D01*
X014855Y000897D01*
X014669Y000641D01*
X014414Y000455D01*
X014113Y000357D01*
X013955Y000345D01*
X013782Y000345D01*
X013632Y000793D01*
X013632Y000836D01*
X013611Y000857D01*
X013601Y000886D01*
X013563Y000905D01*
X013533Y000936D01*
X013503Y000936D01*
X013475Y000949D01*
X013435Y000936D01*
X011718Y000936D01*
X011678Y000949D01*
X011651Y000936D01*
X011620Y000936D01*
X011590Y000905D01*
X011552Y000886D01*
X011542Y000857D01*
X011521Y000836D01*
X011521Y000793D01*
X011371Y000345D01*
X007483Y000345D01*
X007333Y000793D01*
X007333Y000836D01*
X007312Y000857D01*
X007302Y000886D01*
X007264Y000905D01*
X007234Y000936D01*
X007203Y000936D01*
X007176Y000949D01*
X007136Y000936D01*
X005321Y000936D01*
X005280Y000949D01*
X005253Y000936D01*
X005223Y000936D01*
X005192Y000905D01*
X005154Y000886D01*
X005145Y000857D01*
X005123Y000836D01*
X005123Y000793D01*
X004974Y000345D01*
X003691Y000345D01*
X003691Y001033D01*
X003592Y001132D01*
X003341Y001132D01*
X003199Y001487D01*
X003199Y001525D01*
X003174Y001550D01*
X003161Y001583D01*
X003126Y001598D01*
X003100Y001625D01*
X003064Y001625D01*
X003032Y001639D01*
X002997Y001625D01*
X001881Y001625D01*
X001846Y001639D01*
X001813Y001625D01*
X001778Y001625D01*
X001751Y001598D01*
X001717Y001583D01*
X001703Y001550D01*
X001678Y001525D01*
X001678Y001487D01*
X001536Y001132D01*
X001286Y001132D01*
X001186Y001033D01*
X001186Y000361D01*
X000897Y000455D01*
X000851Y000489D02*
X001186Y000489D01*
X001186Y000411D02*
X001035Y000411D01*
X001186Y000568D02*
X000743Y000568D01*
X000638Y000646D02*
X001186Y000646D01*
X001186Y000725D02*
X000581Y000725D01*
X000524Y000803D02*
X001186Y000803D01*
X001186Y000882D02*
X000467Y000882D01*
X000435Y000960D02*
X001186Y000960D01*
X001192Y001039D02*
X000409Y001039D01*
X000384Y001117D02*
X001270Y001117D01*
X001562Y001196D02*
X000358Y001196D01*
X000351Y001274D02*
X001593Y001274D01*
X001624Y001353D02*
X000345Y001353D01*
X000345Y001431D02*
X001656Y001431D01*
X001678Y001510D02*
X000345Y001510D01*
X000345Y001588D02*
X001728Y001588D01*
X001466Y002488D02*
X001498Y002506D01*
X001524Y002532D01*
X001542Y002564D01*
X001552Y002600D01*
X001552Y002828D01*
X000952Y002828D01*
X000952Y002478D01*
X001430Y002478D01*
X001466Y002488D01*
X001521Y002530D02*
X003553Y002530D01*
X003551Y002532D02*
X003577Y002506D01*
X003609Y002488D01*
X003644Y002478D01*
X004123Y002478D01*
X004123Y002828D01*
X004203Y002828D01*
X004203Y002478D01*
X004681Y002478D01*
X004717Y002488D01*
X004749Y002506D01*
X004775Y002532D01*
X004793Y002564D01*
X004803Y002600D01*
X004803Y002828D01*
X004203Y002828D01*
X004203Y002908D01*
X004803Y002908D01*
X004803Y003012D01*
X005522Y002294D01*
X005236Y002294D01*
X005183Y002347D01*
X005095Y002384D01*
X004999Y002384D01*
X004911Y002347D01*
X004844Y002279D01*
X004807Y002191D01*
X004807Y002096D01*
X004844Y002008D01*
X004911Y001940D01*
X004999Y001904D01*
X005095Y001904D01*
X005183Y001940D01*
X005236Y001994D01*
X006555Y001994D01*
X006354Y001793D01*
X006279Y001793D01*
X006191Y001756D01*
X006123Y001689D01*
X006087Y001601D01*
X006087Y001505D01*
X006123Y001417D01*
X006191Y001349D01*
X006279Y001313D01*
X006374Y001313D01*
X006463Y001349D01*
X006521Y001408D01*
X006521Y001287D01*
X006574Y001159D01*
X006671Y001062D01*
X006799Y001009D01*
X006937Y001009D01*
X007065Y001062D01*
X007162Y001159D01*
X007215Y001287D01*
X007215Y001425D01*
X007162Y001553D01*
X007065Y001650D01*
X006937Y001703D01*
X006799Y001703D01*
X006671Y001650D01*
X006574Y001553D01*
X006567Y001536D01*
X006567Y001581D01*
X006733Y001747D01*
X008725Y001747D01*
X008744Y001728D01*
X008744Y001653D01*
X008781Y001565D01*
X008790Y001555D01*
X008780Y001555D01*
X008726Y001609D01*
X008638Y001645D01*
X008543Y001645D01*
X008454Y001609D01*
X008387Y001541D01*
X008350Y001453D01*
X008350Y001358D01*
X008387Y001269D01*
X008454Y001202D01*
X008543Y001165D01*
X008638Y001165D01*
X008726Y001202D01*
X008780Y001255D01*
X009095Y001255D01*
X009301Y001461D01*
X009376Y001461D01*
X009464Y001497D01*
X009532Y001565D01*
X009569Y001653D01*
X009569Y001748D01*
X009532Y001837D01*
X009464Y001904D01*
X009376Y001941D01*
X009281Y001941D01*
X009193Y001904D01*
X009156Y001868D01*
X009120Y001904D01*
X009032Y001941D01*
X008956Y001941D01*
X008937Y001960D01*
X008849Y002047D01*
X007653Y002047D01*
X007711Y002106D01*
X007748Y002194D01*
X007748Y002290D01*
X007711Y002378D01*
X007710Y002379D01*
X007726Y002396D01*
X007801Y002396D01*
X007890Y002432D01*
X007957Y002500D01*
X007994Y002588D01*
X007994Y002683D01*
X007957Y002772D01*
X007890Y002839D01*
X007801Y002876D01*
X007706Y002876D01*
X007618Y002839D01*
X007550Y002772D01*
X007514Y002683D01*
X007514Y002638D01*
X007199Y002638D01*
X007052Y002490D01*
X005749Y002490D01*
X005236Y003004D01*
X005281Y003023D01*
X005335Y003076D01*
X005448Y003076D01*
X005502Y003023D01*
X005590Y002986D01*
X005685Y002986D01*
X005774Y003023D01*
X005841Y003090D01*
X005863Y003143D01*
X005885Y003134D01*
X005981Y003134D01*
X006069Y003170D01*
X006136Y003238D01*
X006173Y003326D01*
X006173Y003422D01*
X006136Y003510D01*
X006069Y003577D01*
X005981Y003614D01*
X005905Y003614D01*
X005855Y003664D01*
X005878Y003720D01*
X005878Y003815D01*
X005841Y003903D01*
X005774Y003971D01*
X005685Y004008D01*
X005590Y004008D01*
X005502Y003971D01*
X005448Y003918D01*
X005335Y003918D01*
X005281Y003971D01*
X005253Y003983D01*
X005253Y004466D01*
X005333Y004466D01*
X005333Y004546D01*
X005253Y004546D01*
X005253Y005046D01*
X005250Y005046D01*
X005166Y005032D01*
X005085Y005006D01*
X005010Y004968D01*
X004941Y004918D01*
X004881Y004857D01*
X004831Y004789D01*
X004792Y004713D01*
X004783Y004684D01*
X004783Y004868D01*
X004713Y004938D01*
X003613Y004938D01*
X003543Y004868D01*
X003543Y004269D01*
X003613Y004198D01*
X004134Y004198D01*
X004118Y004160D01*
X004118Y004064D01*
X004155Y003976D01*
X004222Y003909D01*
X004310Y003872D01*
X004406Y003872D01*
X004494Y003909D01*
X004562Y003976D01*
X004598Y004064D01*
X004598Y004160D01*
X004582Y004198D01*
X004713Y004198D01*
X004783Y004269D01*
X004783Y004328D01*
X004792Y004298D01*
X004831Y004223D01*
X004881Y004154D01*
X004941Y004094D01*
X005010Y004044D01*
X005085Y004005D01*
X005089Y004004D01*
X005010Y003971D01*
X004942Y003903D01*
X004905Y003815D01*
X004905Y003761D01*
X004901Y003761D01*
X004813Y003725D01*
X004745Y003657D01*
X004709Y003569D01*
X004709Y003531D01*
X004647Y003592D01*
X004647Y003668D01*
X004611Y003756D01*
X004543Y003823D01*
X004455Y003860D01*
X004360Y003860D01*
X004271Y003823D01*
X004204Y003756D01*
X004167Y003668D01*
X004167Y003572D01*
X004204Y003484D01*
X004271Y003416D01*
X004360Y003380D01*
X004435Y003380D01*
X004557Y003258D01*
X004203Y003258D01*
X004203Y002908D01*
X004123Y002908D01*
X004123Y002828D01*
X003523Y002828D01*
X003523Y002600D01*
X003532Y002564D01*
X003551Y002532D01*
X003523Y002609D02*
X001552Y002609D01*
X001552Y002687D02*
X003523Y002687D01*
X003523Y002766D02*
X001552Y002766D01*
X001552Y002923D02*
X003523Y002923D01*
X003523Y002908D02*
X004123Y002908D01*
X004123Y003258D01*
X003644Y003258D01*
X003609Y003249D01*
X003577Y003230D01*
X003551Y003204D01*
X003532Y003172D01*
X003523Y003137D01*
X003523Y002908D01*
X003523Y003001D02*
X001552Y003001D01*
X001552Y003080D02*
X002541Y003080D01*
X002549Y003072D02*
X002637Y003035D01*
X002733Y003035D01*
X002821Y003072D01*
X002888Y003139D01*
X002925Y003228D01*
X002925Y003303D01*
X003149Y003528D01*
X003225Y003528D01*
X003313Y003564D01*
X003380Y003632D01*
X003417Y003720D01*
X003417Y003815D01*
X003380Y003903D01*
X003313Y003971D01*
X003225Y004008D01*
X003129Y004008D01*
X003041Y003971D01*
X002974Y003903D01*
X002937Y003815D01*
X002937Y003740D01*
X002713Y003515D01*
X002637Y003515D01*
X002549Y003479D01*
X002481Y003411D01*
X002445Y003323D01*
X002445Y003228D01*
X002481Y003139D01*
X002549Y003072D01*
X002474Y003158D02*
X001546Y003158D01*
X001487Y003237D02*
X002445Y003237D01*
X002445Y003315D02*
X000345Y003315D01*
X000345Y003394D02*
X002474Y003394D01*
X002542Y003472D02*
X000345Y003472D01*
X000345Y003551D02*
X002748Y003551D01*
X002826Y003629D02*
X000345Y003629D01*
X000345Y003708D02*
X002905Y003708D01*
X002937Y003786D02*
X000345Y003786D01*
X000345Y003865D02*
X002957Y003865D01*
X003013Y003943D02*
X000345Y003943D01*
X000345Y004022D02*
X004136Y004022D01*
X004118Y004100D02*
X000345Y004100D01*
X000345Y004179D02*
X004126Y004179D01*
X004188Y003943D02*
X003341Y003943D01*
X003397Y003865D02*
X004926Y003865D01*
X004905Y003786D02*
X004581Y003786D01*
X004631Y003708D02*
X004795Y003708D01*
X004733Y003629D02*
X004647Y003629D01*
X004689Y003551D02*
X004709Y003551D01*
X004500Y003315D02*
X002937Y003315D01*
X002925Y003237D02*
X003588Y003237D01*
X003528Y003158D02*
X002896Y003158D01*
X002828Y003080D02*
X003523Y003080D01*
X003094Y003472D02*
X004216Y003472D01*
X004176Y003551D02*
X003280Y003551D01*
X003378Y003629D02*
X004167Y003629D01*
X004184Y003708D02*
X003412Y003708D01*
X003417Y003786D02*
X004234Y003786D01*
X004528Y003943D02*
X004982Y003943D01*
X005054Y004022D02*
X004580Y004022D01*
X004598Y004100D02*
X004935Y004100D01*
X004863Y004179D02*
X004590Y004179D01*
X004771Y004257D02*
X004813Y004257D01*
X005253Y004257D02*
X005333Y004257D01*
X005333Y004179D02*
X005253Y004179D01*
X005253Y004100D02*
X005333Y004100D01*
X005333Y004022D02*
X005253Y004022D01*
X005309Y003943D02*
X005474Y003943D01*
X005419Y003979D02*
X005500Y004005D01*
X005576Y004044D01*
X005645Y004094D01*
X005705Y004154D01*
X005755Y004223D01*
X005793Y004298D01*
X005819Y004379D01*
X005833Y004463D01*
X005833Y004466D01*
X005333Y004466D01*
X005333Y003966D01*
X005335Y003966D01*
X005419Y003979D01*
X005532Y004022D02*
X006964Y004022D01*
X006964Y004100D02*
X005651Y004100D01*
X005722Y004179D02*
X006964Y004179D01*
X006964Y004257D02*
X005772Y004257D01*
X005805Y004336D02*
X006278Y004336D01*
X006240Y004351D02*
X006328Y004315D01*
X006424Y004315D01*
X006512Y004351D01*
X006579Y004419D01*
X006616Y004507D01*
X006616Y004603D01*
X006579Y004691D01*
X006512Y004758D01*
X006424Y004795D01*
X006348Y004795D01*
X006074Y005068D01*
X006074Y005144D01*
X006038Y005232D01*
X005970Y005300D01*
X005882Y005336D01*
X005787Y005336D01*
X005698Y005300D01*
X005631Y005232D01*
X005594Y005144D01*
X005594Y005049D01*
X005631Y004960D01*
X005698Y004893D01*
X005787Y004856D01*
X005862Y004856D01*
X006136Y004583D01*
X006136Y004507D01*
X006172Y004419D01*
X006240Y004351D01*
X006177Y004414D02*
X005825Y004414D01*
X005833Y004546D02*
X005833Y004548D01*
X005819Y004632D01*
X005793Y004713D01*
X005755Y004789D01*
X005705Y004857D01*
X005645Y004918D01*
X005576Y004968D01*
X005500Y005006D01*
X005419Y005032D01*
X005335Y005046D01*
X005333Y005046D01*
X005333Y004546D01*
X005833Y004546D01*
X005829Y004571D02*
X006136Y004571D01*
X006142Y004493D02*
X005333Y004493D01*
X005333Y004571D02*
X005253Y004571D01*
X005253Y004650D02*
X005333Y004650D01*
X005333Y004728D02*
X005253Y004728D01*
X005253Y004807D02*
X005333Y004807D01*
X005333Y004885D02*
X005253Y004885D01*
X005253Y004964D02*
X005333Y004964D01*
X005333Y005042D02*
X005253Y005042D01*
X005227Y005042D02*
X002865Y005042D01*
X002865Y005016D02*
X002801Y004861D01*
X002683Y004743D01*
X002528Y004679D01*
X002361Y004679D01*
X002207Y004743D01*
X002089Y004861D01*
X002025Y005016D01*
X002025Y005183D01*
X002089Y005337D01*
X002207Y005455D01*
X002361Y005519D01*
X002528Y005519D01*
X002683Y005455D01*
X002801Y005337D01*
X002865Y005183D01*
X002865Y005016D01*
X002843Y004964D02*
X005004Y004964D01*
X004908Y004885D02*
X004766Y004885D01*
X004783Y004807D02*
X004844Y004807D01*
X004800Y004728D02*
X004783Y004728D01*
X005253Y004414D02*
X005333Y004414D01*
X005333Y004336D02*
X005253Y004336D01*
X005786Y004728D02*
X005991Y004728D01*
X006069Y004650D02*
X005814Y004650D01*
X005742Y004807D02*
X005912Y004807D01*
X005717Y004885D02*
X005677Y004885D01*
X005630Y004964D02*
X005581Y004964D01*
X005597Y005042D02*
X005359Y005042D01*
X005594Y005121D02*
X002865Y005121D01*
X002858Y005199D02*
X005617Y005199D01*
X005676Y005278D02*
X004764Y005278D01*
X004775Y005288D02*
X004793Y005320D01*
X004803Y005356D01*
X006044Y005356D01*
X006037Y005341D02*
X006037Y005245D01*
X006074Y005157D01*
X006141Y005090D01*
X006230Y005053D01*
X006325Y005053D01*
X006413Y005090D01*
X006481Y005157D01*
X006517Y005245D01*
X006517Y005321D01*
X006521Y005325D01*
X006521Y005133D01*
X006726Y004927D01*
X006726Y004852D01*
X006763Y004763D01*
X006830Y004696D01*
X006919Y004659D01*
X007014Y004659D01*
X007102Y004696D01*
X007132Y004725D01*
X007157Y004665D01*
X007224Y004598D01*
X007270Y004579D01*
X006964Y004273D01*
X006964Y003859D01*
X006911Y003805D01*
X006874Y003717D01*
X006874Y003621D01*
X006877Y003614D01*
X006869Y003614D01*
X006781Y003577D01*
X006714Y003510D01*
X006695Y003464D01*
X006607Y003551D01*
X006616Y003572D01*
X006616Y003668D01*
X006579Y003756D01*
X006512Y003823D01*
X006424Y003860D01*
X006328Y003860D01*
X006240Y003823D01*
X006172Y003756D01*
X006136Y003668D01*
X006136Y003572D01*
X006172Y003484D01*
X006240Y003416D01*
X006328Y003380D01*
X006354Y003380D01*
X006757Y002978D01*
X006904Y002978D01*
X006923Y002959D01*
X006923Y002883D01*
X006960Y002795D01*
X007027Y002727D01*
X007115Y002691D01*
X007211Y002691D01*
X007299Y002727D01*
X007367Y002795D01*
X007403Y002883D01*
X007403Y002979D01*
X007367Y003067D01*
X007357Y003076D01*
X010030Y003076D01*
X010118Y003164D01*
X010236Y003281D01*
X010311Y003281D01*
X010400Y003318D01*
X010467Y003386D01*
X010504Y003474D01*
X010504Y003569D01*
X010467Y003657D01*
X010423Y003701D01*
X010449Y003712D01*
X010502Y003765D01*
X010762Y003765D01*
X010762Y003671D01*
X010798Y003582D01*
X010866Y003515D01*
X010954Y003478D01*
X011030Y003478D01*
X011106Y003402D01*
X011106Y003326D01*
X011143Y003238D01*
X011188Y003193D01*
X011188Y002908D01*
X011788Y002908D01*
X011788Y003137D01*
X011778Y003172D01*
X011760Y003204D01*
X011734Y003230D01*
X011702Y003249D01*
X011666Y003258D01*
X011558Y003258D01*
X011586Y003326D01*
X011586Y003422D01*
X011550Y003510D01*
X011482Y003577D01*
X011394Y003614D01*
X011318Y003614D01*
X011242Y003690D01*
X011242Y003766D01*
X011205Y003854D01*
X011144Y003915D01*
X011205Y003976D01*
X011242Y004064D01*
X011242Y004160D01*
X011226Y004198D01*
X011698Y004198D01*
X011768Y004269D01*
X011768Y004868D01*
X011698Y004938D01*
X011659Y004938D01*
X011685Y004999D01*
X011685Y005095D01*
X011648Y005183D01*
X011597Y005234D01*
X011666Y005234D01*
X011702Y005244D01*
X011734Y005262D01*
X011760Y005288D01*
X011778Y005320D01*
X011788Y005356D01*
X013286Y005356D01*
X013364Y005278D02*
X011749Y005278D01*
X011788Y005356D02*
X011788Y005584D01*
X011188Y005584D01*
X011188Y005664D01*
X011788Y005664D01*
X011788Y005893D01*
X011778Y005928D01*
X011760Y005960D01*
X011734Y005986D01*
X011702Y006005D01*
X011666Y006014D01*
X011188Y006014D01*
X011188Y005664D01*
X011108Y005664D01*
X011108Y005584D01*
X011188Y005584D01*
X011188Y005234D01*
X011292Y005234D01*
X011255Y005197D01*
X010644Y005197D01*
X010556Y005109D01*
X010439Y004992D01*
X010363Y004992D01*
X010275Y004955D01*
X010208Y004888D01*
X010171Y004800D01*
X010171Y004704D01*
X010208Y004616D01*
X010275Y004548D01*
X010363Y004512D01*
X010459Y004512D01*
X010528Y004540D01*
X010528Y004269D01*
X010598Y004198D01*
X010778Y004198D01*
X010762Y004160D01*
X010762Y004084D01*
X010743Y004065D01*
X010502Y004065D01*
X010449Y004119D01*
X010361Y004155D01*
X010265Y004155D01*
X010177Y004119D01*
X010109Y004051D01*
X010073Y003963D01*
X010073Y003867D01*
X010109Y003779D01*
X010153Y003735D01*
X010128Y003725D01*
X010060Y003657D01*
X010024Y003569D01*
X010024Y003494D01*
X009906Y003376D01*
X008706Y003376D01*
X009842Y004512D01*
X009918Y004512D01*
X010006Y004548D01*
X010073Y004616D01*
X010110Y004704D01*
X010110Y004800D01*
X010073Y004888D01*
X010006Y004955D01*
X009918Y004992D01*
X009822Y004992D01*
X009734Y004955D01*
X009666Y004888D01*
X009630Y004800D01*
X009630Y004724D01*
X008528Y003622D01*
X007796Y003622D01*
X007742Y003676D01*
X007654Y003712D01*
X007558Y003712D01*
X007470Y003676D01*
X007403Y003608D01*
X007366Y003520D01*
X007366Y003425D01*
X007386Y003376D01*
X007157Y003376D01*
X007157Y003422D01*
X007154Y003429D01*
X007162Y003429D01*
X007250Y003466D01*
X007317Y003533D01*
X007354Y003621D01*
X007354Y003717D01*
X007317Y003805D01*
X007264Y003859D01*
X007264Y004148D01*
X007668Y004553D01*
X007756Y004640D01*
X007756Y005208D01*
X007590Y005374D01*
X007636Y005374D01*
X007642Y005380D01*
X007670Y005363D01*
X007706Y005354D01*
X007793Y005354D01*
X007793Y005888D01*
X007793Y006421D01*
X007706Y006421D01*
X007670Y006412D01*
X007642Y006395D01*
X007636Y006401D01*
X007596Y006401D01*
X007502Y006496D01*
X007502Y006571D01*
X007465Y006659D01*
X007398Y006727D01*
X007309Y006763D01*
X007214Y006763D01*
X007126Y006727D01*
X007058Y006659D01*
X007022Y006571D01*
X007022Y006476D01*
X007052Y006401D01*
X006848Y006401D01*
X006829Y006382D01*
X006809Y006401D01*
X006572Y006401D01*
X006553Y006382D01*
X006544Y006391D01*
X006610Y006418D01*
X006678Y006486D01*
X006714Y006574D01*
X006714Y006670D01*
X006678Y006758D01*
X006610Y006825D01*
X006522Y006862D01*
X006426Y006862D01*
X006338Y006825D01*
X006271Y006758D01*
X006234Y006670D01*
X006234Y006594D01*
X006068Y006427D01*
X006042Y006401D01*
X006021Y006401D01*
X006002Y006382D01*
X005983Y006401D01*
X005745Y006401D01*
X005675Y006331D01*
X005675Y005986D01*
X005616Y005927D01*
X005541Y005927D01*
X005452Y005890D01*
X005385Y005823D01*
X005348Y005735D01*
X005348Y005639D01*
X005385Y005551D01*
X005452Y005483D01*
X005541Y005447D01*
X005636Y005447D01*
X005675Y005463D01*
X005675Y005444D01*
X005745Y005374D01*
X005983Y005374D01*
X006002Y005393D01*
X006021Y005374D01*
X006051Y005374D01*
X006037Y005341D01*
X006037Y005278D02*
X005993Y005278D01*
X006052Y005199D02*
X006057Y005199D01*
X006074Y005121D02*
X006111Y005121D01*
X006101Y005042D02*
X006612Y005042D01*
X006690Y004964D02*
X006179Y004964D01*
X006258Y004885D02*
X006726Y004885D01*
X006745Y004807D02*
X006336Y004807D01*
X006542Y004728D02*
X006798Y004728D01*
X006596Y004650D02*
X007172Y004650D01*
X007262Y004571D02*
X006616Y004571D01*
X006610Y004493D02*
X007184Y004493D01*
X007105Y004414D02*
X006574Y004414D01*
X006473Y004336D02*
X007027Y004336D01*
X007294Y004179D02*
X007907Y004179D01*
X007907Y004163D02*
X007944Y004074D01*
X008011Y004007D01*
X008100Y003970D01*
X008195Y003970D01*
X008283Y004007D01*
X008337Y004060D01*
X008456Y004060D01*
X008907Y004512D01*
X008983Y004512D01*
X009071Y004548D01*
X009138Y004616D01*
X009175Y004704D01*
X009175Y004800D01*
X009138Y004888D01*
X009071Y004955D01*
X008983Y004992D01*
X008887Y004992D01*
X008799Y004955D01*
X008787Y004944D01*
X008726Y005004D01*
X008638Y005041D01*
X008543Y005041D01*
X008454Y005004D01*
X008387Y004937D01*
X008350Y004849D01*
X008350Y004773D01*
X008310Y004732D01*
X008283Y004758D01*
X008195Y004795D01*
X008100Y004795D01*
X008011Y004758D01*
X007944Y004691D01*
X007907Y004603D01*
X007907Y004507D01*
X007944Y004419D01*
X007980Y004383D01*
X007944Y004346D01*
X007907Y004258D01*
X007907Y004163D01*
X007933Y004100D02*
X007264Y004100D01*
X007264Y004022D02*
X007997Y004022D01*
X007907Y004257D02*
X007373Y004257D01*
X007451Y004336D02*
X007939Y004336D01*
X007949Y004414D02*
X007530Y004414D01*
X007608Y004493D02*
X007914Y004493D01*
X007907Y004571D02*
X007687Y004571D01*
X007756Y004650D02*
X007927Y004650D01*
X007981Y004728D02*
X007756Y004728D01*
X007756Y004807D02*
X008350Y004807D01*
X008365Y004885D02*
X007756Y004885D01*
X007756Y004964D02*
X008413Y004964D01*
X008767Y004964D02*
X008819Y004964D01*
X008897Y005090D02*
X008830Y005157D01*
X008793Y005245D01*
X008793Y005321D01*
X008739Y005375D01*
X008738Y005374D01*
X008501Y005374D01*
X008482Y005393D01*
X008463Y005374D01*
X008226Y005374D01*
X008206Y005393D01*
X008187Y005374D01*
X007950Y005374D01*
X007944Y005380D01*
X007916Y005363D01*
X007880Y005354D01*
X007793Y005354D01*
X007793Y005888D01*
X007793Y005888D01*
X007793Y006421D01*
X007861Y006421D01*
X007846Y006437D01*
X007809Y006525D01*
X007809Y006620D01*
X007846Y006709D01*
X007913Y006776D01*
X008001Y006813D01*
X008097Y006813D01*
X008185Y006776D01*
X008252Y006709D01*
X008289Y006620D01*
X008289Y006545D01*
X008432Y006401D01*
X008463Y006401D01*
X008482Y006382D01*
X008501Y006401D01*
X008551Y006401D01*
X008577Y006427D01*
X008596Y006446D01*
X008596Y006522D01*
X008633Y006610D01*
X008700Y006678D01*
X008789Y006714D01*
X008884Y006714D01*
X008972Y006678D01*
X009040Y006610D01*
X009076Y006522D01*
X009076Y006426D01*
X009066Y006401D01*
X009142Y006401D01*
X009384Y006643D01*
X009384Y006719D01*
X009420Y006807D01*
X009457Y006843D01*
X009420Y006880D01*
X009384Y006968D01*
X009384Y007063D01*
X009404Y007112D01*
X009026Y007112D01*
X008972Y007058D01*
X008884Y007022D01*
X008789Y007022D01*
X008700Y007058D01*
X008633Y007126D01*
X008596Y007214D01*
X008596Y007309D01*
X008633Y007398D01*
X008642Y007407D01*
X007544Y007407D01*
X007536Y007415D01*
X007460Y007415D01*
X007372Y007452D01*
X007304Y007519D01*
X007268Y007608D01*
X007268Y007703D01*
X007304Y007791D01*
X007372Y007859D01*
X007452Y007892D01*
X007298Y008047D01*
X007295Y008049D01*
X007178Y008049D01*
X007085Y008142D01*
X007085Y008547D01*
X007178Y008639D01*
X007533Y008639D01*
X007625Y008547D01*
X007625Y008144D01*
X007728Y008041D01*
X007745Y008082D01*
X007685Y008142D01*
X007685Y008547D01*
X007778Y008639D01*
X008133Y008639D01*
X008225Y008547D01*
X008225Y008142D01*
X008159Y008075D01*
X008191Y007998D01*
X008191Y007903D01*
X008171Y007855D01*
X008450Y007855D01*
X008485Y007939D01*
X008553Y008006D01*
X008641Y008043D01*
X008737Y008043D01*
X008825Y008006D01*
X008892Y007939D01*
X008929Y007851D01*
X008929Y007755D01*
X008909Y007707D01*
X009932Y007707D01*
X010020Y007619D01*
X010528Y007111D01*
X010528Y007624D01*
X010598Y007694D01*
X011698Y007694D01*
X011768Y007624D01*
X011768Y007025D01*
X011698Y006954D01*
X010685Y006954D01*
X010906Y006733D01*
X010906Y006319D01*
X010959Y006266D01*
X010996Y006177D01*
X010996Y006082D01*
X010968Y006014D01*
X011108Y006014D01*
X011108Y005664D01*
X010508Y005664D01*
X010508Y005893D01*
X010517Y005928D01*
X010536Y005960D01*
X010561Y005985D01*
X010552Y005994D01*
X010516Y006082D01*
X010516Y006177D01*
X010552Y006266D01*
X010606Y006319D01*
X010606Y006609D01*
X009808Y007407D01*
X009789Y007407D01*
X010080Y007116D01*
X010168Y007028D01*
X010168Y006467D01*
X010221Y006413D01*
X010258Y006325D01*
X010258Y006230D01*
X010221Y006141D01*
X010153Y006074D01*
X010065Y006037D01*
X009970Y006037D01*
X009882Y006074D01*
X009814Y006141D01*
X009795Y006187D01*
X009636Y006028D01*
X009636Y005904D01*
X009636Y005903D01*
X009636Y005903D01*
X009636Y005444D01*
X009565Y005374D01*
X009328Y005374D01*
X009309Y005393D01*
X009290Y005374D01*
X009260Y005374D01*
X009273Y005341D01*
X009273Y005245D01*
X009237Y005157D01*
X009169Y005090D01*
X009081Y005053D01*
X008986Y005053D01*
X008897Y005090D01*
X008866Y005121D02*
X007756Y005121D01*
X007756Y005199D02*
X008812Y005199D01*
X008793Y005278D02*
X007686Y005278D01*
X007698Y005356D02*
X007608Y005356D01*
X007793Y005356D02*
X007793Y005356D01*
X007793Y005435D02*
X007793Y005435D01*
X007793Y005513D02*
X007793Y005513D01*
X007793Y005592D02*
X007793Y005592D01*
X007793Y005670D02*
X007793Y005670D01*
X007793Y005749D02*
X007793Y005749D01*
X007793Y005827D02*
X007793Y005827D01*
X007793Y005888D02*
X007793Y005888D01*
X007793Y005906D02*
X007793Y005906D01*
X007793Y005984D02*
X007793Y005984D01*
X007793Y006063D02*
X007793Y006063D01*
X007793Y006141D02*
X007793Y006141D01*
X007793Y006220D02*
X007793Y006220D01*
X007793Y006298D02*
X007793Y006298D01*
X007793Y006377D02*
X007793Y006377D01*
X007838Y006455D02*
X007542Y006455D01*
X007502Y006534D02*
X007809Y006534D01*
X007809Y006612D02*
X007485Y006612D01*
X007434Y006691D02*
X007838Y006691D01*
X007906Y006769D02*
X006666Y006769D01*
X006706Y006691D02*
X007089Y006691D01*
X007039Y006612D02*
X006714Y006612D01*
X006697Y006534D02*
X007022Y006534D01*
X007030Y006455D02*
X006647Y006455D01*
X006557Y006848D02*
X009452Y006848D01*
X009405Y006769D02*
X008192Y006769D01*
X008260Y006691D02*
X008731Y006691D01*
X008635Y006612D02*
X008289Y006612D01*
X008300Y006534D02*
X008601Y006534D01*
X008596Y006455D02*
X008379Y006455D01*
X008941Y006691D02*
X009384Y006691D01*
X009353Y006612D02*
X009038Y006612D01*
X009072Y006534D02*
X009274Y006534D01*
X009196Y006455D02*
X009076Y006455D01*
X009401Y006926D02*
X003606Y006926D01*
X003626Y006905D02*
X003559Y006973D01*
X003471Y007009D01*
X003395Y007009D01*
X002960Y007445D01*
X003031Y007415D01*
X003126Y007415D01*
X003214Y007452D01*
X003282Y007519D01*
X003319Y007608D01*
X003319Y007703D01*
X003282Y007791D01*
X003214Y007859D01*
X003126Y007895D01*
X003107Y007895D01*
X003107Y008252D01*
X003015Y008344D01*
X002659Y008344D01*
X002567Y008252D01*
X002567Y007846D01*
X002567Y007846D01*
X002539Y007846D01*
X002510Y007834D01*
X002515Y007843D01*
X002527Y007888D01*
X002527Y008014D01*
X002272Y008014D01*
X002272Y007734D01*
X002373Y007734D01*
X002380Y007736D01*
X002346Y007654D01*
X002346Y007558D01*
X002383Y007470D01*
X002450Y007403D01*
X002539Y007366D01*
X002614Y007366D01*
X003183Y006797D01*
X003183Y006722D01*
X003220Y006634D01*
X003287Y006566D01*
X003375Y006529D01*
X003471Y006529D01*
X003559Y006566D01*
X003626Y006634D01*
X003663Y006722D01*
X003663Y006817D01*
X003626Y006905D01*
X003613Y006954D02*
X004713Y006954D01*
X004783Y007025D01*
X004783Y007327D01*
X004872Y007415D01*
X004947Y007415D01*
X005035Y007452D01*
X005103Y007519D01*
X005139Y007608D01*
X005139Y007703D01*
X005103Y007791D01*
X005035Y007859D01*
X004947Y007895D01*
X004852Y007895D01*
X004763Y007859D01*
X004696Y007791D01*
X004659Y007703D01*
X004659Y007694D01*
X003613Y007694D01*
X003543Y007624D01*
X003543Y007025D01*
X003613Y006954D01*
X003563Y007005D02*
X003483Y007005D01*
X003543Y007083D02*
X003322Y007083D01*
X003243Y007162D02*
X003543Y007162D01*
X003543Y007240D02*
X003165Y007240D01*
X003086Y007319D02*
X003543Y007319D01*
X003543Y007397D02*
X003008Y007397D01*
X003238Y007476D02*
X003543Y007476D01*
X003543Y007554D02*
X003296Y007554D01*
X003319Y007633D02*
X003551Y007633D01*
X003315Y007711D02*
X004663Y007711D01*
X004695Y007790D02*
X003283Y007790D01*
X003192Y007868D02*
X004786Y007868D01*
X005013Y007868D02*
X007394Y007868D01*
X007398Y007947D02*
X003107Y007947D01*
X003107Y008025D02*
X007320Y008025D01*
X007123Y008104D02*
X003107Y008104D01*
X003107Y008182D02*
X007085Y008182D01*
X007085Y008261D02*
X003098Y008261D01*
X003020Y008339D02*
X007085Y008339D01*
X007085Y008418D02*
X000706Y008418D01*
X000618Y008339D02*
X002034Y008339D01*
X002016Y008329D02*
X002056Y008352D01*
X002101Y008364D01*
X002202Y008364D01*
X002202Y008084D01*
X002202Y008014D01*
X001947Y008014D01*
X001947Y007888D01*
X001959Y007843D01*
X001983Y007803D01*
X002016Y007769D01*
X002056Y007746D01*
X002101Y007734D01*
X002202Y007734D01*
X002202Y008014D01*
X002272Y008014D01*
X002272Y008084D01*
X002202Y008084D01*
X001947Y008084D01*
X001947Y008210D01*
X001959Y008255D01*
X001983Y008296D01*
X002016Y008329D01*
X001962Y008261D02*
X000561Y008261D01*
X000504Y008182D02*
X001947Y008182D01*
X001947Y008104D02*
X000452Y008104D01*
X000426Y008025D02*
X002202Y008025D01*
X002272Y008025D02*
X002567Y008025D01*
X002527Y008084D02*
X002527Y008210D01*
X002515Y008255D01*
X002492Y008296D01*
X002459Y008329D01*
X002418Y008352D01*
X002373Y008364D01*
X002272Y008364D01*
X002272Y008084D01*
X002527Y008084D01*
X002527Y008104D02*
X002567Y008104D01*
X002567Y008182D02*
X002527Y008182D01*
X002512Y008261D02*
X002576Y008261D01*
X002654Y008339D02*
X002441Y008339D01*
X002272Y008339D02*
X002202Y008339D01*
X002202Y008261D02*
X002272Y008261D01*
X002272Y008182D02*
X002202Y008182D01*
X002202Y008104D02*
X002272Y008104D01*
X002272Y007947D02*
X002202Y007947D01*
X002202Y007868D02*
X002272Y007868D01*
X002272Y007790D02*
X002202Y007790D01*
X002370Y007711D02*
X000349Y007711D01*
X000356Y007790D02*
X001996Y007790D01*
X001953Y007868D02*
X000375Y007868D01*
X000401Y007947D02*
X001947Y007947D01*
X002346Y007633D02*
X001523Y007633D01*
X001532Y007554D02*
X002348Y007554D01*
X002381Y007476D02*
X001532Y007476D01*
X001532Y007397D02*
X002464Y007397D01*
X002662Y007319D02*
X001532Y007319D01*
X001532Y007240D02*
X002740Y007240D01*
X002819Y007162D02*
X001532Y007162D01*
X001532Y007083D02*
X002897Y007083D01*
X002976Y007005D02*
X001512Y007005D01*
X000345Y006926D02*
X003054Y006926D01*
X003133Y006848D02*
X000345Y006848D01*
X000345Y006769D02*
X003183Y006769D01*
X003196Y006691D02*
X000345Y006691D01*
X000345Y006612D02*
X003241Y006612D01*
X003366Y006534D02*
X000345Y006534D01*
X000345Y006455D02*
X006095Y006455D01*
X006174Y006534D02*
X003481Y006534D01*
X003605Y006612D02*
X006234Y006612D01*
X006243Y006691D02*
X003650Y006691D01*
X003663Y006769D02*
X006282Y006769D01*
X006392Y006848D02*
X003650Y006848D01*
X003644Y006014D02*
X003609Y006005D01*
X003577Y005986D01*
X003551Y005960D01*
X003532Y005928D01*
X003523Y005893D01*
X003523Y005664D01*
X004123Y005664D01*
X004123Y005584D01*
X004203Y005584D01*
X004203Y005664D01*
X004803Y005664D01*
X004803Y005893D01*
X004793Y005928D01*
X004775Y005960D01*
X004749Y005986D01*
X004717Y006005D01*
X004681Y006014D01*
X004203Y006014D01*
X004203Y005664D01*
X004123Y005664D01*
X004123Y006014D01*
X003644Y006014D01*
X003575Y005984D02*
X001500Y005984D01*
X001548Y005906D02*
X003526Y005906D01*
X003523Y005827D02*
X001552Y005827D01*
X001552Y005749D02*
X003523Y005749D01*
X003523Y005670D02*
X001552Y005670D01*
X001552Y005584D02*
X000952Y005584D01*
X000952Y005234D01*
X001430Y005234D01*
X001466Y005244D01*
X001498Y005262D01*
X001524Y005288D01*
X001542Y005320D01*
X001552Y005356D01*
X002107Y005356D01*
X002064Y005278D02*
X001513Y005278D01*
X001552Y005356D02*
X001552Y005584D01*
X001552Y005513D02*
X002346Y005513D01*
X002186Y005435D02*
X001552Y005435D01*
X002031Y005199D02*
X000345Y005199D01*
X000345Y005121D02*
X002025Y005121D01*
X002025Y005042D02*
X000345Y005042D01*
X000345Y004964D02*
X002046Y004964D01*
X002079Y004885D02*
X001515Y004885D01*
X001532Y004807D02*
X002144Y004807D01*
X002244Y004728D02*
X001532Y004728D01*
X001532Y004650D02*
X003543Y004650D01*
X003543Y004728D02*
X002646Y004728D01*
X002746Y004807D02*
X003543Y004807D01*
X003560Y004885D02*
X002810Y004885D01*
X002826Y005278D02*
X003562Y005278D01*
X003551Y005288D02*
X003577Y005262D01*
X003609Y005244D01*
X003644Y005234D01*
X004123Y005234D01*
X004123Y005584D01*
X003523Y005584D01*
X003523Y005356D01*
X002782Y005356D01*
X002704Y005435D02*
X003523Y005435D01*
X003523Y005513D02*
X002544Y005513D01*
X003523Y005356D02*
X003532Y005320D01*
X003551Y005288D01*
X004123Y005278D02*
X004203Y005278D01*
X004203Y005234D02*
X004681Y005234D01*
X004717Y005244D01*
X004749Y005262D01*
X004775Y005288D01*
X004803Y005356D02*
X004803Y005584D01*
X004203Y005584D01*
X004203Y005234D01*
X004203Y005356D02*
X004123Y005356D01*
X004123Y005435D02*
X004203Y005435D01*
X004203Y005513D02*
X004123Y005513D01*
X004123Y005592D02*
X000952Y005592D01*
X000952Y005670D02*
X000872Y005670D01*
X000872Y005749D02*
X000952Y005749D01*
X000952Y005827D02*
X000872Y005827D01*
X000872Y005906D02*
X000952Y005906D01*
X000952Y005984D02*
X000872Y005984D01*
X000345Y006063D02*
X005675Y006063D01*
X005675Y006141D02*
X000345Y006141D01*
X000345Y006220D02*
X005675Y006220D01*
X005675Y006298D02*
X000345Y006298D01*
X000345Y006377D02*
X005721Y006377D01*
X005673Y005984D02*
X004751Y005984D01*
X004799Y005906D02*
X005489Y005906D01*
X005389Y005827D02*
X004803Y005827D01*
X004803Y005749D02*
X005354Y005749D01*
X005348Y005670D02*
X004803Y005670D01*
X004803Y005513D02*
X005423Y005513D01*
X005368Y005592D02*
X004203Y005592D01*
X004203Y005670D02*
X004123Y005670D01*
X004123Y005749D02*
X004203Y005749D01*
X004203Y005827D02*
X004123Y005827D01*
X004123Y005906D02*
X004203Y005906D01*
X004203Y005984D02*
X004123Y005984D01*
X004803Y005435D02*
X005685Y005435D01*
X006444Y005121D02*
X006533Y005121D01*
X006521Y005199D02*
X006498Y005199D01*
X006517Y005278D02*
X006521Y005278D01*
X007756Y005042D02*
X010489Y005042D01*
X010568Y005121D02*
X009200Y005121D01*
X009254Y005199D02*
X011257Y005199D01*
X011188Y005278D02*
X011108Y005278D01*
X011108Y005234D02*
X011108Y005584D01*
X010508Y005584D01*
X010508Y005356D01*
X009267Y005356D01*
X009273Y005278D02*
X010547Y005278D01*
X010536Y005288D02*
X010562Y005262D01*
X010594Y005244D01*
X010629Y005234D01*
X011108Y005234D01*
X011108Y005356D02*
X011188Y005356D01*
X011188Y005435D02*
X011108Y005435D01*
X011108Y005513D02*
X011188Y005513D01*
X011188Y005592D02*
X012923Y005592D01*
X012885Y005670D02*
X011788Y005670D01*
X011788Y005749D02*
X012878Y005749D01*
X012896Y005827D02*
X011788Y005827D01*
X011784Y005906D02*
X012948Y005906D01*
X013288Y005906D02*
X013762Y005906D01*
X013759Y005893D02*
X013759Y005664D01*
X014359Y005664D01*
X014359Y006014D01*
X013881Y006014D01*
X013845Y006005D01*
X013813Y005986D01*
X013787Y005960D01*
X013769Y005928D01*
X013759Y005893D01*
X013759Y005827D02*
X013340Y005827D01*
X013358Y005749D02*
X013759Y005749D01*
X013759Y005670D02*
X013396Y005670D01*
X013475Y005592D02*
X014359Y005592D01*
X014359Y005584D02*
X013759Y005584D01*
X013759Y005356D01*
X013710Y005356D01*
X013759Y005356D02*
X013769Y005320D01*
X013787Y005288D01*
X013813Y005262D01*
X013845Y005244D01*
X013881Y005234D01*
X014359Y005234D01*
X014359Y005584D01*
X014359Y005513D02*
X014439Y005513D01*
X014439Y005435D02*
X014359Y005435D01*
X014359Y005356D02*
X014439Y005356D01*
X014439Y005278D02*
X014359Y005278D01*
X013946Y005121D02*
X014966Y005121D01*
X014966Y005199D02*
X013867Y005199D01*
X013798Y005278D02*
X013789Y005278D01*
X013759Y005435D02*
X013632Y005435D01*
X013553Y005513D02*
X013759Y005513D01*
X013443Y005199D02*
X011632Y005199D01*
X011674Y005121D02*
X013521Y005121D01*
X013600Y005042D02*
X011685Y005042D01*
X011670Y004964D02*
X013039Y004964D01*
X012937Y004885D02*
X011751Y004885D01*
X011768Y004807D02*
X012858Y004807D01*
X012822Y004728D02*
X011768Y004728D01*
X011768Y004650D02*
X012789Y004650D01*
X012773Y004571D02*
X011768Y004571D01*
X011768Y004493D02*
X012773Y004493D01*
X012773Y004414D02*
X011768Y004414D01*
X011768Y004336D02*
X012800Y004336D01*
X012833Y004257D02*
X011756Y004257D01*
X011234Y004179D02*
X012885Y004179D01*
X012963Y004100D02*
X011242Y004100D01*
X011224Y004022D02*
X013103Y004022D01*
X013483Y004022D02*
X014966Y004022D01*
X014966Y004100D02*
X013622Y004100D01*
X013701Y004179D02*
X014966Y004179D01*
X014966Y003943D02*
X011172Y003943D01*
X011195Y003865D02*
X014966Y003865D01*
X014966Y003786D02*
X011234Y003786D01*
X011242Y003708D02*
X014966Y003708D01*
X014966Y003629D02*
X011303Y003629D01*
X011509Y003551D02*
X014966Y003551D01*
X014966Y003472D02*
X011565Y003472D01*
X011586Y003394D02*
X014966Y003394D01*
X014966Y003315D02*
X011582Y003315D01*
X011723Y003237D02*
X013824Y003237D01*
X013813Y003230D02*
X013787Y003204D01*
X013769Y003172D01*
X013759Y003137D01*
X013759Y002908D01*
X014359Y002908D01*
X014359Y003258D01*
X013881Y003258D01*
X013845Y003249D01*
X013813Y003230D01*
X013765Y003158D02*
X011782Y003158D01*
X011788Y003080D02*
X013759Y003080D01*
X013759Y003001D02*
X011788Y003001D01*
X011788Y002923D02*
X013759Y002923D01*
X013759Y002828D02*
X013759Y002600D01*
X013769Y002564D01*
X013787Y002532D01*
X013813Y002506D01*
X013845Y002488D01*
X013881Y002478D01*
X014359Y002478D01*
X014359Y002828D01*
X013759Y002828D01*
X013759Y002766D02*
X011788Y002766D01*
X011788Y002828D02*
X011188Y002828D01*
X011188Y002478D01*
X011666Y002478D01*
X011702Y002488D01*
X011734Y002506D01*
X011760Y002532D01*
X011778Y002564D01*
X011788Y002600D01*
X011788Y002828D01*
X011788Y002687D02*
X013759Y002687D01*
X013759Y002609D02*
X011788Y002609D01*
X011758Y002530D02*
X013789Y002530D01*
X014359Y002530D02*
X014439Y002530D01*
X014439Y002609D02*
X014359Y002609D01*
X014359Y002687D02*
X014439Y002687D01*
X014439Y002766D02*
X014359Y002766D01*
X014359Y002844D02*
X011188Y002844D01*
X011188Y002828D02*
X011188Y002908D01*
X011108Y002908D01*
X011108Y002828D01*
X011188Y002828D01*
X011188Y002766D02*
X011108Y002766D01*
X011108Y002828D02*
X011108Y002478D01*
X010629Y002478D01*
X010594Y002488D01*
X010562Y002506D01*
X010536Y002532D01*
X010517Y002564D01*
X010508Y002600D01*
X010508Y002828D01*
X011108Y002828D01*
X011108Y002844D02*
X007878Y002844D01*
X007960Y002766D02*
X010508Y002766D01*
X010508Y002687D02*
X007992Y002687D01*
X007994Y002609D02*
X010508Y002609D01*
X010538Y002530D02*
X007970Y002530D01*
X007909Y002452D02*
X014966Y002452D01*
X014966Y002373D02*
X007713Y002373D01*
X007746Y002295D02*
X014966Y002295D01*
X014966Y002216D02*
X007748Y002216D01*
X007724Y002138D02*
X014966Y002138D01*
X014966Y002059D02*
X007664Y002059D01*
X007127Y001588D02*
X008434Y001588D01*
X008374Y001510D02*
X007180Y001510D01*
X007213Y001431D02*
X008350Y001431D01*
X008352Y001353D02*
X007215Y001353D01*
X007210Y001274D02*
X008385Y001274D01*
X008470Y001196D02*
X007177Y001196D01*
X007120Y001117D02*
X011734Y001117D01*
X011692Y001159D02*
X011789Y001062D01*
X011917Y001009D01*
X012055Y001009D01*
X012183Y001062D01*
X012280Y001159D01*
X012333Y001287D01*
X012333Y001425D01*
X012280Y001553D01*
X012183Y001650D01*
X012055Y001703D01*
X011917Y001703D01*
X011789Y001650D01*
X011692Y001553D01*
X011639Y001425D01*
X011639Y001287D01*
X011692Y001159D01*
X011677Y001196D02*
X008711Y001196D01*
X009114Y001274D02*
X011644Y001274D01*
X011639Y001353D02*
X009193Y001353D01*
X009271Y001431D02*
X011641Y001431D01*
X011674Y001510D02*
X009477Y001510D01*
X009542Y001588D02*
X011727Y001588D01*
X011828Y001667D02*
X009569Y001667D01*
X009569Y001745D02*
X014966Y001745D01*
X014966Y001667D02*
X013325Y001667D01*
X013364Y001650D02*
X013236Y001703D01*
X013098Y001703D01*
X012970Y001650D01*
X012873Y001553D01*
X012820Y001425D01*
X012820Y001287D01*
X012873Y001159D01*
X012970Y001062D01*
X013098Y001009D01*
X013236Y001009D01*
X013364Y001062D01*
X013461Y001159D01*
X013514Y001287D01*
X013514Y001425D01*
X013461Y001553D01*
X013364Y001650D01*
X013426Y001588D02*
X014966Y001588D01*
X014966Y001510D02*
X013479Y001510D01*
X013512Y001431D02*
X014966Y001431D01*
X014965Y001353D02*
X013514Y001353D01*
X013509Y001274D02*
X014959Y001274D01*
X014952Y001196D02*
X013476Y001196D01*
X013419Y001117D02*
X014927Y001117D01*
X014901Y001039D02*
X013308Y001039D01*
X013027Y001039D02*
X012126Y001039D01*
X012238Y001117D02*
X012915Y001117D01*
X012858Y001196D02*
X012295Y001196D01*
X012328Y001274D02*
X012825Y001274D01*
X012820Y001353D02*
X012333Y001353D01*
X012331Y001431D02*
X012822Y001431D01*
X012855Y001510D02*
X012298Y001510D01*
X012245Y001588D02*
X012908Y001588D01*
X013009Y001667D02*
X012144Y001667D01*
X011846Y001039D02*
X007008Y001039D01*
X006727Y001039D02*
X005827Y001039D01*
X005883Y001062D02*
X005981Y001159D01*
X006034Y001287D01*
X006034Y001425D01*
X005981Y001553D01*
X005883Y001650D01*
X005756Y001703D01*
X005618Y001703D01*
X005490Y001650D01*
X005392Y001553D01*
X005340Y001425D01*
X005340Y001287D01*
X005392Y001159D01*
X005490Y001062D01*
X005618Y001009D01*
X005756Y001009D01*
X005883Y001062D01*
X005939Y001117D02*
X006616Y001117D01*
X006559Y001196D02*
X005996Y001196D01*
X006029Y001274D02*
X006526Y001274D01*
X006521Y001353D02*
X006466Y001353D01*
X006188Y001353D02*
X006034Y001353D01*
X006032Y001431D02*
X006117Y001431D01*
X006087Y001510D02*
X005999Y001510D01*
X005946Y001588D02*
X006087Y001588D01*
X006114Y001667D02*
X005845Y001667D01*
X005529Y001667D02*
X000345Y001667D01*
X000345Y001745D02*
X006179Y001745D01*
X006385Y001824D02*
X000345Y001824D01*
X000345Y001902D02*
X006463Y001902D01*
X006542Y001981D02*
X005223Y001981D01*
X005235Y002295D02*
X005521Y002295D01*
X005442Y002373D02*
X005120Y002373D01*
X004974Y002373D02*
X000345Y002373D01*
X000345Y002295D02*
X004859Y002295D01*
X004817Y002216D02*
X000345Y002216D01*
X000345Y002138D02*
X004807Y002138D01*
X004822Y002059D02*
X000345Y002059D01*
X000345Y001981D02*
X004871Y001981D01*
X005428Y001588D02*
X003149Y001588D01*
X003199Y001510D02*
X005375Y001510D01*
X005342Y001431D02*
X003222Y001431D01*
X003253Y001353D02*
X005340Y001353D01*
X005345Y001274D02*
X003285Y001274D01*
X003316Y001196D02*
X005378Y001196D01*
X005435Y001117D02*
X003607Y001117D01*
X003686Y001039D02*
X005546Y001039D01*
X005153Y000882D02*
X003691Y000882D01*
X003691Y000960D02*
X014876Y000960D01*
X014844Y000882D02*
X013603Y000882D01*
X013632Y000803D02*
X014787Y000803D01*
X014730Y000725D02*
X013655Y000725D01*
X013681Y000646D02*
X014673Y000646D01*
X014568Y000568D02*
X013708Y000568D01*
X013734Y000489D02*
X014460Y000489D01*
X014276Y000411D02*
X013760Y000411D01*
X014966Y001824D02*
X009537Y001824D01*
X009467Y001902D02*
X014966Y001902D01*
X014966Y001981D02*
X008916Y001981D01*
X009122Y001902D02*
X009191Y001902D01*
X008728Y001745D02*
X006731Y001745D01*
X006710Y001667D02*
X006652Y001667D01*
X006609Y001588D02*
X006574Y001588D01*
X007026Y001667D02*
X008744Y001667D01*
X008747Y001588D02*
X008771Y001588D01*
X007333Y000803D02*
X011521Y000803D01*
X011498Y000725D02*
X007356Y000725D01*
X007382Y000646D02*
X011472Y000646D01*
X011446Y000568D02*
X007408Y000568D01*
X007435Y000489D02*
X011419Y000489D01*
X011393Y000411D02*
X007461Y000411D01*
X007304Y000882D02*
X011550Y000882D01*
X011188Y002530D02*
X011108Y002530D01*
X011108Y002609D02*
X011188Y002609D01*
X011188Y002687D02*
X011108Y002687D01*
X011108Y002908D02*
X010508Y002908D01*
X010508Y003137D01*
X010517Y003172D01*
X010536Y003204D01*
X010562Y003230D01*
X010594Y003249D01*
X010629Y003258D01*
X011108Y003258D01*
X011108Y002908D01*
X011108Y002923D02*
X011188Y002923D01*
X011188Y003001D02*
X011108Y003001D01*
X011108Y003080D02*
X011188Y003080D01*
X011188Y003158D02*
X011108Y003158D01*
X011108Y003237D02*
X011144Y003237D01*
X011111Y003315D02*
X010392Y003315D01*
X010470Y003394D02*
X011106Y003394D01*
X011036Y003472D02*
X010503Y003472D01*
X010504Y003551D02*
X010830Y003551D01*
X010779Y003629D02*
X010479Y003629D01*
X010439Y003708D02*
X010762Y003708D01*
X010762Y004100D02*
X010467Y004100D01*
X010539Y004257D02*
X009587Y004257D01*
X009509Y004179D02*
X010770Y004179D01*
X010528Y004336D02*
X009666Y004336D01*
X009744Y004414D02*
X010528Y004414D01*
X010528Y004493D02*
X009823Y004493D01*
X010029Y004571D02*
X010253Y004571D01*
X010194Y004650D02*
X010087Y004650D01*
X010110Y004728D02*
X010171Y004728D01*
X010174Y004807D02*
X010107Y004807D01*
X010074Y004885D02*
X010207Y004885D01*
X010295Y004964D02*
X009986Y004964D01*
X009754Y004964D02*
X009051Y004964D01*
X009139Y004885D02*
X009665Y004885D01*
X009633Y004807D02*
X009172Y004807D01*
X009175Y004728D02*
X009630Y004728D01*
X009555Y004650D02*
X009152Y004650D01*
X009093Y004571D02*
X009477Y004571D01*
X009398Y004493D02*
X008888Y004493D01*
X008809Y004414D02*
X009320Y004414D01*
X009241Y004336D02*
X008731Y004336D01*
X008652Y004257D02*
X009163Y004257D01*
X009084Y004179D02*
X008574Y004179D01*
X008495Y004100D02*
X009006Y004100D01*
X008927Y004022D02*
X008298Y004022D01*
X008613Y003708D02*
X007665Y003708D01*
X007547Y003708D02*
X007354Y003708D01*
X007354Y003629D02*
X007423Y003629D01*
X007379Y003551D02*
X007325Y003551D01*
X007366Y003472D02*
X007256Y003472D01*
X007157Y003394D02*
X007379Y003394D01*
X007789Y003629D02*
X008535Y003629D01*
X008692Y003786D02*
X007325Y003786D01*
X007264Y003865D02*
X008770Y003865D01*
X008849Y003943D02*
X007264Y003943D01*
X006964Y003943D02*
X005802Y003943D01*
X005857Y003865D02*
X006964Y003865D01*
X006903Y003786D02*
X006549Y003786D01*
X006599Y003708D02*
X006874Y003708D01*
X006874Y003629D02*
X006616Y003629D01*
X006608Y003551D02*
X006754Y003551D01*
X006698Y003472D02*
X006687Y003472D01*
X006419Y003315D02*
X006168Y003315D01*
X006173Y003394D02*
X006295Y003394D01*
X006184Y003472D02*
X006152Y003472D01*
X006145Y003551D02*
X006096Y003551D01*
X006136Y003629D02*
X005890Y003629D01*
X005873Y003708D02*
X006152Y003708D01*
X006203Y003786D02*
X005878Y003786D01*
X006135Y003237D02*
X006498Y003237D01*
X006576Y003158D02*
X006039Y003158D01*
X005830Y003080D02*
X006655Y003080D01*
X006733Y003001D02*
X005721Y003001D01*
X005554Y003001D02*
X005238Y003001D01*
X005317Y002923D02*
X006923Y002923D01*
X006939Y002844D02*
X005395Y002844D01*
X005474Y002766D02*
X006989Y002766D01*
X007170Y002609D02*
X005631Y002609D01*
X005552Y002687D02*
X007515Y002687D01*
X007548Y002766D02*
X007337Y002766D01*
X007387Y002844D02*
X007630Y002844D01*
X007403Y002923D02*
X010508Y002923D01*
X010508Y003001D02*
X007394Y003001D01*
X007091Y002530D02*
X005709Y002530D01*
X005364Y002452D02*
X000345Y002452D01*
X000872Y002530D02*
X000952Y002530D01*
X000952Y002609D02*
X000872Y002609D01*
X000872Y002687D02*
X000952Y002687D01*
X000952Y002766D02*
X000872Y002766D01*
X000952Y002844D02*
X004123Y002844D01*
X004123Y002766D02*
X004203Y002766D01*
X004203Y002844D02*
X004971Y002844D01*
X004893Y002923D02*
X004803Y002923D01*
X004803Y003001D02*
X004814Y003001D01*
X004803Y002766D02*
X005050Y002766D01*
X005128Y002687D02*
X004803Y002687D01*
X004803Y002609D02*
X005207Y002609D01*
X005285Y002530D02*
X004772Y002530D01*
X004203Y002530D02*
X004123Y002530D01*
X004123Y002609D02*
X004203Y002609D01*
X004203Y002687D02*
X004123Y002687D01*
X004123Y002923D02*
X004203Y002923D01*
X004203Y003001D02*
X004123Y003001D01*
X004123Y003080D02*
X004203Y003080D01*
X004203Y003158D02*
X004123Y003158D01*
X004123Y003237D02*
X004203Y003237D01*
X004327Y003394D02*
X003015Y003394D01*
X003554Y004257D02*
X001520Y004257D01*
X001532Y004336D02*
X003543Y004336D01*
X003543Y004414D02*
X001532Y004414D01*
X001532Y004493D02*
X003543Y004493D01*
X003543Y004571D02*
X001532Y004571D01*
X000952Y005278D02*
X000872Y005278D01*
X000872Y005356D02*
X000952Y005356D01*
X000952Y005435D02*
X000872Y005435D01*
X000872Y005513D02*
X000952Y005513D01*
X000952Y003237D02*
X000872Y003237D01*
X000872Y003158D02*
X000952Y003158D01*
X000952Y003080D02*
X000872Y003080D01*
X000872Y003001D02*
X000952Y003001D01*
X000952Y002923D02*
X000872Y002923D01*
X003691Y000803D02*
X005123Y000803D01*
X005100Y000725D02*
X003691Y000725D01*
X003691Y000646D02*
X005074Y000646D01*
X005048Y000568D02*
X003691Y000568D01*
X003691Y000489D02*
X005022Y000489D01*
X004996Y000411D02*
X003691Y000411D01*
X008724Y003394D02*
X009924Y003394D01*
X010002Y003472D02*
X008802Y003472D01*
X008881Y003551D02*
X010024Y003551D01*
X010048Y003629D02*
X008959Y003629D01*
X009038Y003708D02*
X010110Y003708D01*
X010107Y003786D02*
X009116Y003786D01*
X009195Y003865D02*
X010074Y003865D01*
X010073Y003943D02*
X009273Y003943D01*
X009352Y004022D02*
X010097Y004022D01*
X010158Y004100D02*
X009430Y004100D01*
X010191Y003237D02*
X010573Y003237D01*
X010514Y003158D02*
X010112Y003158D01*
X010034Y003080D02*
X010508Y003080D01*
X013546Y004964D02*
X013678Y004964D01*
X013649Y004885D02*
X013757Y004885D01*
X013779Y004807D02*
X013727Y004807D01*
X013763Y004728D02*
X013779Y004728D01*
X014024Y005042D02*
X014966Y005042D01*
X014966Y004964D02*
X014103Y004964D01*
X014359Y005670D02*
X014439Y005670D01*
X014439Y005749D02*
X014359Y005749D01*
X014359Y005827D02*
X014439Y005827D01*
X014439Y005906D02*
X014359Y005906D01*
X014359Y005984D02*
X014439Y005984D01*
X014966Y006063D02*
X010988Y006063D01*
X010996Y006141D02*
X014966Y006141D01*
X014966Y006220D02*
X010978Y006220D01*
X010927Y006298D02*
X014966Y006298D01*
X014966Y006377D02*
X010906Y006377D01*
X010906Y006455D02*
X014966Y006455D01*
X014966Y006534D02*
X010906Y006534D01*
X010906Y006612D02*
X014318Y006612D01*
X014240Y006691D02*
X010906Y006691D01*
X010870Y006769D02*
X014207Y006769D01*
X014207Y006848D02*
X010791Y006848D01*
X010713Y006926D02*
X014231Y006926D01*
X014662Y006926D02*
X014966Y006926D01*
X014966Y006848D02*
X014687Y006848D01*
X014686Y006769D02*
X014966Y006769D01*
X014966Y006691D02*
X014653Y006691D01*
X014575Y006612D02*
X014966Y006612D01*
X013799Y007005D02*
X011748Y007005D01*
X011768Y007083D02*
X013779Y007083D01*
X013779Y007162D02*
X011768Y007162D01*
X011768Y007240D02*
X013779Y007240D01*
X013779Y007319D02*
X011768Y007319D01*
X011768Y007397D02*
X013779Y007397D01*
X013779Y007476D02*
X012982Y007476D01*
X012959Y007452D02*
X013026Y007519D01*
X013063Y007608D01*
X013063Y007683D01*
X013131Y007751D01*
X013133Y007754D01*
X013251Y007754D01*
X013343Y007846D01*
X013343Y008252D01*
X013251Y008344D01*
X012896Y008344D01*
X012803Y008252D01*
X012803Y007895D01*
X012775Y007895D01*
X012763Y007891D01*
X012763Y008014D01*
X012508Y008014D01*
X012508Y007734D01*
X012595Y007734D01*
X012583Y007703D01*
X012583Y007608D01*
X012619Y007519D01*
X012687Y007452D01*
X012775Y007415D01*
X012870Y007415D01*
X012959Y007452D01*
X013040Y007554D02*
X013779Y007554D01*
X013788Y007633D02*
X013063Y007633D01*
X013090Y007711D02*
X014961Y007711D01*
X014955Y007790D02*
X013287Y007790D01*
X013343Y007868D02*
X014935Y007868D01*
X014910Y007947D02*
X013343Y007947D01*
X013343Y008025D02*
X014884Y008025D01*
X014859Y008104D02*
X013343Y008104D01*
X013343Y008182D02*
X014806Y008182D01*
X014749Y008261D02*
X013335Y008261D01*
X013256Y008339D02*
X014692Y008339D01*
X014604Y008418D02*
X008225Y008418D01*
X008225Y008496D02*
X014496Y008496D01*
X014357Y008575D02*
X008198Y008575D01*
X008225Y008339D02*
X012270Y008339D01*
X012252Y008329D02*
X012292Y008352D01*
X012338Y008364D01*
X012438Y008364D01*
X012438Y008084D01*
X012438Y008014D01*
X012183Y008014D01*
X012183Y007888D01*
X012196Y007843D01*
X012219Y007803D01*
X012252Y007769D01*
X012292Y007746D01*
X012338Y007734D01*
X012438Y007734D01*
X012438Y008014D01*
X012508Y008014D01*
X012508Y008084D01*
X012438Y008084D01*
X012183Y008084D01*
X012183Y008210D01*
X012196Y008255D01*
X012219Y008296D01*
X012252Y008329D01*
X012199Y008261D02*
X008225Y008261D01*
X008225Y008182D02*
X012183Y008182D01*
X012183Y008104D02*
X008187Y008104D01*
X008180Y008025D02*
X008598Y008025D01*
X008493Y007947D02*
X008191Y007947D01*
X008176Y007868D02*
X008456Y007868D01*
X008780Y008025D02*
X012438Y008025D01*
X012508Y008025D02*
X012803Y008025D01*
X012763Y008084D02*
X012763Y008210D01*
X012751Y008255D01*
X012728Y008296D01*
X012695Y008329D01*
X012654Y008352D01*
X012609Y008364D01*
X012508Y008364D01*
X012508Y008084D01*
X012763Y008084D01*
X012763Y008104D02*
X012803Y008104D01*
X012803Y008182D02*
X012763Y008182D01*
X012748Y008261D02*
X012812Y008261D01*
X012891Y008339D02*
X012677Y008339D01*
X012508Y008339D02*
X012438Y008339D01*
X012438Y008261D02*
X012508Y008261D01*
X012508Y008182D02*
X012438Y008182D01*
X012438Y008104D02*
X012508Y008104D01*
X012508Y007947D02*
X012438Y007947D01*
X012438Y007868D02*
X012508Y007868D01*
X012508Y007790D02*
X012438Y007790D01*
X012586Y007711D02*
X008910Y007711D01*
X008929Y007790D02*
X012232Y007790D01*
X012189Y007868D02*
X008922Y007868D01*
X008885Y007947D02*
X012183Y007947D01*
X012583Y007633D02*
X011759Y007633D01*
X011768Y007554D02*
X012605Y007554D01*
X012663Y007476D02*
X011768Y007476D01*
X012763Y007947D02*
X012803Y007947D01*
X014116Y008653D02*
X001195Y008653D01*
X000953Y008575D02*
X007113Y008575D01*
X007085Y008496D02*
X000814Y008496D01*
X002527Y007947D02*
X002567Y007947D01*
X002567Y007868D02*
X002522Y007868D01*
X004783Y007319D02*
X008600Y007319D01*
X008596Y007240D02*
X004783Y007240D01*
X004783Y007162D02*
X008618Y007162D01*
X008676Y007083D02*
X004783Y007083D01*
X004763Y007005D02*
X009384Y007005D01*
X009392Y007083D02*
X008997Y007083D01*
X008633Y007397D02*
X004853Y007397D01*
X005059Y007476D02*
X007348Y007476D01*
X007290Y007554D02*
X005117Y007554D01*
X005139Y007633D02*
X007268Y007633D01*
X007271Y007711D02*
X005136Y007711D01*
X005104Y007790D02*
X007303Y007790D01*
X007665Y008104D02*
X007723Y008104D01*
X007685Y008182D02*
X007625Y008182D01*
X007625Y008261D02*
X007685Y008261D01*
X007685Y008339D02*
X007625Y008339D01*
X007625Y008418D02*
X007685Y008418D01*
X007685Y008496D02*
X007625Y008496D01*
X007598Y008575D02*
X007713Y008575D01*
X009799Y007397D02*
X009818Y007397D01*
X009877Y007319D02*
X009896Y007319D01*
X009956Y007240D02*
X009975Y007240D01*
X010034Y007162D02*
X010053Y007162D01*
X010113Y007083D02*
X010132Y007083D01*
X010168Y007005D02*
X010210Y007005D01*
X010168Y006926D02*
X010289Y006926D01*
X010367Y006848D02*
X010168Y006848D01*
X010168Y006769D02*
X010446Y006769D01*
X010524Y006691D02*
X010168Y006691D01*
X010168Y006612D02*
X010603Y006612D01*
X010606Y006534D02*
X010168Y006534D01*
X010179Y006455D02*
X010606Y006455D01*
X010606Y006377D02*
X010236Y006377D01*
X010258Y006298D02*
X010585Y006298D01*
X010533Y006220D02*
X010253Y006220D01*
X010221Y006141D02*
X010516Y006141D01*
X010524Y006063D02*
X010126Y006063D01*
X009909Y006063D02*
X009670Y006063D01*
X009636Y005984D02*
X010560Y005984D01*
X010511Y005906D02*
X009636Y005906D01*
X009636Y005827D02*
X010508Y005827D01*
X010508Y005749D02*
X009636Y005749D01*
X009636Y005670D02*
X010508Y005670D01*
X010508Y005513D02*
X009636Y005513D01*
X009636Y005592D02*
X011108Y005592D01*
X011108Y005670D02*
X011188Y005670D01*
X011188Y005749D02*
X011108Y005749D01*
X011108Y005827D02*
X011188Y005827D01*
X011188Y005906D02*
X011108Y005906D01*
X011108Y005984D02*
X011188Y005984D01*
X011736Y005984D02*
X013811Y005984D01*
X013207Y005435D02*
X011788Y005435D01*
X011788Y005513D02*
X013029Y005513D01*
X013753Y004257D02*
X013791Y004257D01*
X014359Y003237D02*
X014439Y003237D01*
X014439Y003158D02*
X014359Y003158D01*
X014359Y003080D02*
X014439Y003080D01*
X014439Y003001D02*
X014359Y003001D01*
X014359Y002923D02*
X014439Y002923D01*
X010536Y005288D02*
X010517Y005320D01*
X010508Y005356D01*
X010508Y005435D02*
X009626Y005435D01*
X008758Y005356D02*
X007888Y005356D01*
X009749Y006141D02*
X009814Y006141D01*
X010477Y007162D02*
X010528Y007162D01*
X010528Y007240D02*
X010399Y007240D01*
X010320Y007319D02*
X010528Y007319D01*
X010528Y007397D02*
X010242Y007397D01*
X010163Y007476D02*
X010528Y007476D01*
X010528Y007554D02*
X010085Y007554D01*
X010006Y007633D02*
X010536Y007633D01*
M02*
