%
M48
M72
T01C0.0120
T02C0.0354
T03C0.0500
%
T01
X9624Y7016
X8836Y7262
X10018Y6277
X9033Y5293
X9919Y1061
X11888Y3915
X5392Y7065
X9427Y8147
X10411Y6671
X9033Y2094
X7016Y2586
X1455Y7852
X13758Y6031
X13561Y7803
X6474Y7262
X4014Y1455
X1504Y1504
X6277Y5293
X5588Y5687
X6474Y6622
X9624Y6671
X8836Y6474
X7951Y7951
X7262Y6523
X8049Y6573
X8590Y4801
X8147Y4555
X7360Y4801
X6966Y4899
X7114Y3669
X11002Y4112
X10313Y3915
X12823Y7655
X5638Y3768
X5145Y3768
X3079Y7655
X8689Y7803
X10756Y6130
X7508Y7655
X4899Y7655
X8590Y1405
X9329Y1701
X14447Y6819
X7606Y3472
X9870Y4752
X10411Y4752
X11445Y5047
X13118Y5736
X10264Y3521
X6917Y3374
X5933Y3374
X4949Y3521
X4358Y4112
X7754Y2636
X4407Y3620
X3423Y6769
X2586Y7606
X7163Y2931
X6376Y3620
X6376Y4555
X5834Y5096
X7508Y2242
X5047Y2144
X2685Y3275
X3177Y3768
X5638Y3226
X5145Y3226
X11002Y3718
X11346Y3374
X8984Y1701
X6327Y1553
X8147Y4210
X8935Y4752
T02
X13167Y1356
X11986Y1356
X6868Y1356
X5687Y1356
T03
X5293Y4506
X13293Y4506
X2445Y5099
M30
