G75*
%MOIN*%
%OFA0B0*%
%FSLAX24Y24*%
%IPPOS*%
%LPD*%
%AMOC8*
5,1,8,0,0,1.08239X$1,22.5*
%
%ADD10C,0.0088*%
%ADD11R,0.0118X0.0472*%
%ADD12R,0.0472X0.0118*%
%ADD13R,0.0472X0.0120*%
%ADD14R,0.0800X0.0800*%
%ADD15R,0.0787X0.0591*%
%ADD16R,0.0276X0.0591*%
%ADD17R,0.0394X0.0236*%
%ADD18R,0.0394X0.0315*%
%ADD19R,0.1300X0.0500*%
%ADD20R,0.0900X0.0500*%
%ADD21R,0.1100X0.0500*%
D10*
X005748Y002701D02*
X006010Y002701D01*
X005748Y002701D02*
X005748Y002963D01*
X006010Y002963D01*
X006010Y002701D01*
X006010Y002788D02*
X005748Y002788D01*
X005748Y002875D02*
X006010Y002875D01*
X006010Y002962D02*
X005748Y002962D01*
X006348Y002701D02*
X006610Y002701D01*
X006348Y002701D02*
X006348Y002963D01*
X006610Y002963D01*
X006610Y002701D01*
X006610Y002788D02*
X006348Y002788D01*
X006348Y002875D02*
X006610Y002875D01*
X006610Y002962D02*
X006348Y002962D01*
X006207Y003784D02*
X005945Y003784D01*
X005945Y004046D01*
X006207Y004046D01*
X006207Y003784D01*
X006207Y003871D02*
X005945Y003871D01*
X005945Y003958D02*
X006207Y003958D01*
X006207Y004045D02*
X005945Y004045D01*
X006545Y003784D02*
X006807Y003784D01*
X006545Y003784D02*
X006545Y004046D01*
X006807Y004046D01*
X006807Y003784D01*
X006807Y003871D02*
X006545Y003871D01*
X006545Y003958D02*
X006807Y003958D01*
X006807Y004045D02*
X006545Y004045D01*
X006535Y005326D02*
X006797Y005326D01*
X006797Y005064D01*
X006535Y005064D01*
X006535Y005326D01*
X006535Y005151D02*
X006797Y005151D01*
X006797Y005238D02*
X006535Y005238D01*
X006535Y005325D02*
X006797Y005325D01*
X007135Y005326D02*
X007397Y005326D01*
X007397Y005064D01*
X007135Y005064D01*
X007135Y005326D01*
X007135Y005151D02*
X007397Y005151D01*
X007397Y005238D02*
X007135Y005238D01*
X007135Y005325D02*
X007397Y005325D01*
X007913Y005326D02*
X008175Y005326D01*
X008175Y005064D01*
X007913Y005064D01*
X007913Y005326D01*
X007913Y005151D02*
X008175Y005151D01*
X008175Y005238D02*
X007913Y005238D01*
X007913Y005325D02*
X008175Y005325D01*
X008513Y005326D02*
X008775Y005326D01*
X008775Y005064D01*
X008513Y005064D01*
X008513Y005326D01*
X008513Y005151D02*
X008775Y005151D01*
X008775Y005238D02*
X008513Y005238D01*
X008513Y005325D02*
X008775Y005325D01*
X008574Y006535D02*
X008574Y006797D01*
X008574Y006535D02*
X008312Y006535D01*
X008312Y006797D01*
X008574Y006797D01*
X008574Y006622D02*
X008312Y006622D01*
X008312Y006709D02*
X008574Y006709D01*
X008574Y006796D02*
X008312Y006796D01*
X008574Y007135D02*
X008574Y007397D01*
X008574Y007135D02*
X008312Y007135D01*
X008312Y007397D01*
X008574Y007397D01*
X008574Y007222D02*
X008312Y007222D01*
X008312Y007309D02*
X008574Y007309D01*
X008574Y007396D02*
X008312Y007396D01*
X007524Y007397D02*
X007524Y007135D01*
X007524Y007397D02*
X007786Y007397D01*
X007786Y007135D01*
X007524Y007135D01*
X007524Y007222D02*
X007786Y007222D01*
X007786Y007309D02*
X007524Y007309D01*
X007524Y007396D02*
X007786Y007396D01*
X006737Y007397D02*
X006737Y007135D01*
X006737Y007397D02*
X006999Y007397D01*
X006999Y007135D01*
X006737Y007135D01*
X006737Y007222D02*
X006999Y007222D01*
X006999Y007309D02*
X006737Y007309D01*
X006737Y007396D02*
X006999Y007396D01*
X005950Y007397D02*
X005950Y007135D01*
X005950Y007397D02*
X006212Y007397D01*
X006212Y007135D01*
X005950Y007135D01*
X005950Y007222D02*
X006212Y007222D01*
X006212Y007309D02*
X005950Y007309D01*
X005950Y007396D02*
X006212Y007396D01*
X005950Y006797D02*
X005950Y006535D01*
X005950Y006797D02*
X006212Y006797D01*
X006212Y006535D01*
X005950Y006535D01*
X005950Y006622D02*
X006212Y006622D01*
X006212Y006709D02*
X005950Y006709D01*
X005950Y006796D02*
X006212Y006796D01*
X006737Y006797D02*
X006737Y006535D01*
X006737Y006797D02*
X006999Y006797D01*
X006999Y006535D01*
X006737Y006535D01*
X006737Y006622D02*
X006999Y006622D01*
X006999Y006709D02*
X006737Y006709D01*
X006737Y006796D02*
X006999Y006796D01*
X007524Y006797D02*
X007524Y006535D01*
X007524Y006797D02*
X007786Y006797D01*
X007786Y006535D01*
X007524Y006535D01*
X007524Y006622D02*
X007786Y006622D01*
X007786Y006709D02*
X007524Y006709D01*
X007524Y006796D02*
X007786Y006796D01*
X009361Y006797D02*
X009361Y006535D01*
X009099Y006535D01*
X009099Y006797D01*
X009361Y006797D01*
X009361Y006622D02*
X009099Y006622D01*
X009099Y006709D02*
X009361Y006709D01*
X009361Y006796D02*
X009099Y006796D01*
X009361Y007135D02*
X009361Y007397D01*
X009361Y007135D02*
X009099Y007135D01*
X009099Y007397D01*
X009361Y007397D01*
X009361Y007222D02*
X009099Y007222D01*
X009099Y007309D02*
X009361Y007309D01*
X009361Y007396D02*
X009099Y007396D01*
X010149Y007397D02*
X010149Y007135D01*
X009887Y007135D01*
X009887Y007397D01*
X010149Y007397D01*
X010149Y007222D02*
X009887Y007222D01*
X009887Y007309D02*
X010149Y007309D01*
X010149Y007396D02*
X009887Y007396D01*
X010149Y006797D02*
X010149Y006535D01*
X009887Y006535D01*
X009887Y006797D01*
X010149Y006797D01*
X010149Y006622D02*
X009887Y006622D01*
X009887Y006709D02*
X010149Y006709D01*
X010149Y006796D02*
X009887Y006796D01*
X009169Y008278D02*
X008907Y008278D01*
X009169Y008278D02*
X009169Y008016D01*
X008907Y008016D01*
X008907Y008278D01*
X008907Y008103D02*
X009169Y008103D01*
X009169Y008190D02*
X008907Y008190D01*
X008907Y008277D02*
X009169Y008277D01*
X008569Y008278D02*
X008307Y008278D01*
X008569Y008278D02*
X008569Y008016D01*
X008307Y008016D01*
X008307Y008278D01*
X008307Y008103D02*
X008569Y008103D01*
X008569Y008190D02*
X008307Y008190D01*
X008307Y008277D02*
X008569Y008277D01*
X005523Y006807D02*
X005523Y006545D01*
X005261Y006545D01*
X005261Y006807D01*
X005523Y006807D01*
X005523Y006632D02*
X005261Y006632D01*
X005261Y006719D02*
X005523Y006719D01*
X005523Y006806D02*
X005261Y006806D01*
X005523Y006207D02*
X005523Y005945D01*
X005261Y005945D01*
X005261Y006207D01*
X005523Y006207D01*
X005523Y006032D02*
X005261Y006032D01*
X005261Y006119D02*
X005523Y006119D01*
X005523Y006206D02*
X005261Y006206D01*
X011063Y005523D02*
X011325Y005523D01*
X011325Y005261D01*
X011063Y005261D01*
X011063Y005523D01*
X011063Y005348D02*
X011325Y005348D01*
X011325Y005435D02*
X011063Y005435D01*
X011063Y005522D02*
X011325Y005522D01*
X011663Y005523D02*
X011925Y005523D01*
X011925Y005261D01*
X011663Y005261D01*
X011663Y005523D01*
X011663Y005348D02*
X011925Y005348D01*
X011925Y005435D02*
X011663Y005435D01*
X011663Y005522D02*
X011925Y005522D01*
X011757Y003657D02*
X011757Y003395D01*
X011757Y003657D02*
X012019Y003657D01*
X012019Y003395D01*
X011757Y003395D01*
X011757Y003482D02*
X012019Y003482D01*
X012019Y003569D02*
X011757Y003569D01*
X011757Y003656D02*
X012019Y003656D01*
X011757Y003057D02*
X011757Y002795D01*
X011757Y003057D02*
X012019Y003057D01*
X012019Y002795D01*
X011757Y002795D01*
X011757Y002882D02*
X012019Y002882D01*
X012019Y002969D02*
X011757Y002969D01*
X011757Y003056D02*
X012019Y003056D01*
X009661Y001192D02*
X009399Y001192D01*
X009661Y001192D02*
X009661Y000930D01*
X009399Y000930D01*
X009399Y001192D01*
X009399Y001017D02*
X009661Y001017D01*
X009661Y001104D02*
X009399Y001104D01*
X009399Y001191D02*
X009661Y001191D01*
X009061Y001192D02*
X008799Y001192D01*
X009061Y001192D02*
X009061Y000930D01*
X008799Y000930D01*
X008799Y001192D01*
X008799Y001017D02*
X009061Y001017D01*
X009061Y001104D02*
X008799Y001104D01*
X008799Y001191D02*
X009061Y001191D01*
D11*
X009035Y002557D03*
X009235Y002557D03*
X009425Y002557D03*
X008835Y002557D03*
X008635Y002557D03*
X008445Y002557D03*
X008445Y004289D03*
X008635Y004289D03*
X008835Y004289D03*
X009035Y004289D03*
X009235Y004289D03*
X009425Y004289D03*
D12*
X009801Y003913D03*
X009801Y003723D03*
X009801Y003523D03*
X009801Y003323D03*
X009801Y003123D03*
X009801Y002933D03*
X008069Y003323D03*
X008069Y003523D03*
X008069Y003723D03*
X008069Y003913D03*
D13*
X008069Y003123D03*
X008069Y002933D03*
D14*
X008935Y003423D03*
D15*
X013758Y005490D03*
X013758Y006573D03*
X013561Y008344D03*
X012478Y008344D03*
X011395Y008344D03*
X005425Y008350D03*
X004425Y008350D03*
X003425Y008350D03*
X002425Y008350D03*
X001425Y008350D03*
D16*
X005392Y002045D03*
X006573Y002045D03*
X007163Y002045D03*
X011691Y002045D03*
X012872Y002045D03*
X013462Y002045D03*
D17*
X014014Y000962D03*
X011140Y000962D03*
X007714Y000962D03*
X004840Y000962D03*
D18*
X004840Y001789D03*
X007714Y001789D03*
X011140Y001789D03*
X014014Y001789D03*
D19*
X001095Y005399D03*
D20*
X000895Y004599D03*
X003995Y004999D03*
X003995Y003149D03*
X003995Y001949D03*
D21*
X000995Y001999D03*
M02*
