G75*
%MOIN*%
%OFA0B0*%
%FSLAX24Y24*%
%IPPOS*%
%LPD*%
%AMOC8*
5,1,8,0,0,1.08239X$1,22.5*
%
%ADD10C,0.0098*%
%ADD11C,0.0780*%
%ADD12R,0.1024X0.0335*%
%ADD13C,0.0620*%
%ADD14C,0.0085*%
%ADD15R,0.1040X0.0540*%
%ADD16C,0.1300*%
%ADD17R,0.0540X0.0540*%
D10*
X001754Y009346D02*
X002046Y009346D01*
X002046Y009054D01*
X001754Y009054D01*
X001754Y009346D01*
X001754Y009151D02*
X002046Y009151D01*
X002046Y009248D02*
X001754Y009248D01*
X001754Y009345D02*
X002046Y009345D01*
X002354Y009346D02*
X002646Y009346D01*
X002646Y009054D01*
X002354Y009054D01*
X002354Y009346D01*
X002354Y009151D02*
X002646Y009151D01*
X002646Y009248D02*
X002354Y009248D01*
X002354Y009345D02*
X002646Y009345D01*
X007054Y012254D02*
X007054Y012546D01*
X007346Y012546D01*
X007346Y012254D01*
X007054Y012254D01*
X007054Y012351D02*
X007346Y012351D01*
X007346Y012448D02*
X007054Y012448D01*
X007054Y012545D02*
X007346Y012545D01*
X007054Y012854D02*
X007054Y013146D01*
X007346Y013146D01*
X007346Y012854D01*
X007054Y012854D01*
X007054Y012951D02*
X007346Y012951D01*
X007346Y013048D02*
X007054Y013048D01*
X007054Y013145D02*
X007346Y013145D01*
X008054Y013146D02*
X008054Y012854D01*
X008054Y013146D02*
X008346Y013146D01*
X008346Y012854D01*
X008054Y012854D01*
X008054Y012951D02*
X008346Y012951D01*
X008346Y013048D02*
X008054Y013048D01*
X008054Y013145D02*
X008346Y013145D01*
X008054Y012546D02*
X008054Y012254D01*
X008054Y012546D02*
X008346Y012546D01*
X008346Y012254D01*
X008054Y012254D01*
X008054Y012351D02*
X008346Y012351D01*
X008346Y012448D02*
X008054Y012448D01*
X008054Y012545D02*
X008346Y012545D01*
X009054Y012546D02*
X009054Y012254D01*
X009054Y012546D02*
X009346Y012546D01*
X009346Y012254D01*
X009054Y012254D01*
X009054Y012351D02*
X009346Y012351D01*
X009346Y012448D02*
X009054Y012448D01*
X009054Y012545D02*
X009346Y012545D01*
X009054Y012854D02*
X009054Y013146D01*
X009346Y013146D01*
X009346Y012854D01*
X009054Y012854D01*
X009054Y012951D02*
X009346Y012951D01*
X009346Y013048D02*
X009054Y013048D01*
X009054Y013145D02*
X009346Y013145D01*
X010054Y013146D02*
X010054Y012854D01*
X010054Y013146D02*
X010346Y013146D01*
X010346Y012854D01*
X010054Y012854D01*
X010054Y012951D02*
X010346Y012951D01*
X010346Y013048D02*
X010054Y013048D01*
X010054Y013145D02*
X010346Y013145D01*
X010054Y012546D02*
X010054Y012254D01*
X010054Y012546D02*
X010346Y012546D01*
X010346Y012254D01*
X010054Y012254D01*
X010054Y012351D02*
X010346Y012351D01*
X010346Y012448D02*
X010054Y012448D01*
X010054Y012545D02*
X010346Y012545D01*
X011054Y012546D02*
X011054Y012254D01*
X011054Y012546D02*
X011346Y012546D01*
X011346Y012254D01*
X011054Y012254D01*
X011054Y012351D02*
X011346Y012351D01*
X011346Y012448D02*
X011054Y012448D01*
X011054Y012545D02*
X011346Y012545D01*
X011054Y012854D02*
X011054Y013146D01*
X011346Y013146D01*
X011346Y012854D01*
X011054Y012854D01*
X011054Y012951D02*
X011346Y012951D01*
X011346Y013048D02*
X011054Y013048D01*
X011054Y013145D02*
X011346Y013145D01*
X008346Y010146D02*
X008346Y009854D01*
X008054Y009854D01*
X008054Y010146D01*
X008346Y010146D01*
X008346Y009951D02*
X008054Y009951D01*
X008054Y010048D02*
X008346Y010048D01*
X008346Y010145D02*
X008054Y010145D01*
X008346Y009546D02*
X008346Y009254D01*
X008054Y009254D01*
X008054Y009546D01*
X008346Y009546D01*
X008346Y009351D02*
X008054Y009351D01*
X008054Y009448D02*
X008346Y009448D01*
X008346Y009545D02*
X008054Y009545D01*
X016254Y011554D02*
X016546Y011554D01*
X016254Y011554D02*
X016254Y011846D01*
X016546Y011846D01*
X016546Y011554D01*
X016546Y011651D02*
X016254Y011651D01*
X016254Y011748D02*
X016546Y011748D01*
X016546Y011845D02*
X016254Y011845D01*
X016854Y011554D02*
X017146Y011554D01*
X016854Y011554D02*
X016854Y011846D01*
X017146Y011846D01*
X017146Y011554D01*
X017146Y011651D02*
X016854Y011651D01*
X016854Y011748D02*
X017146Y011748D01*
X017146Y011845D02*
X016854Y011845D01*
X009396Y018054D02*
X009104Y018054D01*
X009104Y018346D01*
X009396Y018346D01*
X009396Y018054D01*
X009396Y018151D02*
X009104Y018151D01*
X009104Y018248D02*
X009396Y018248D01*
X009396Y018345D02*
X009104Y018345D01*
X008796Y018054D02*
X008504Y018054D01*
X008504Y018346D01*
X008796Y018346D01*
X008796Y018054D01*
X008796Y018151D02*
X008504Y018151D01*
X008504Y018248D02*
X008796Y018248D01*
X008796Y018345D02*
X008504Y018345D01*
X007146Y018346D02*
X006854Y018346D01*
X007146Y018346D02*
X007146Y018054D01*
X006854Y018054D01*
X006854Y018346D01*
X006854Y018151D02*
X007146Y018151D01*
X007146Y018248D02*
X006854Y018248D01*
X006854Y018345D02*
X007146Y018345D01*
X006546Y018346D02*
X006254Y018346D01*
X006546Y018346D02*
X006546Y018054D01*
X006254Y018054D01*
X006254Y018346D01*
X006254Y018151D02*
X006546Y018151D01*
X006546Y018248D02*
X006254Y018248D01*
X006254Y018345D02*
X006546Y018345D01*
D11*
X006450Y010900D03*
X005450Y010900D03*
X004450Y010900D03*
X007450Y010900D03*
X008450Y010900D03*
X010250Y007750D03*
X011650Y007700D03*
X009700Y006450D03*
X009500Y005400D03*
X009600Y004550D03*
X014200Y007950D03*
X016800Y008000D03*
X016800Y009100D03*
X016600Y010900D03*
X015500Y010900D03*
X014400Y010900D03*
D12*
X002463Y007050D03*
X002463Y006550D03*
X002463Y006050D03*
X002463Y005550D03*
X002463Y005050D03*
X000963Y005050D03*
X000963Y005550D03*
X000963Y006050D03*
X000963Y006550D03*
X000963Y007050D03*
D13*
X004200Y013750D03*
X005200Y013750D03*
X006200Y013750D03*
X007200Y013750D03*
X008200Y013750D03*
X009200Y013750D03*
X010200Y013750D03*
X011200Y013750D03*
X012200Y013750D03*
X013200Y013750D03*
X014200Y013750D03*
X015200Y013750D03*
X016200Y013750D03*
X017200Y013750D03*
X017200Y019750D03*
X016200Y019750D03*
X015200Y019750D03*
X014200Y019750D03*
X013200Y019750D03*
X012200Y019750D03*
X011200Y019750D03*
X010200Y019750D03*
X009200Y019750D03*
X008200Y019750D03*
X007200Y019750D03*
X006200Y019750D03*
X005200Y019750D03*
X004200Y019750D03*
D14*
X019772Y009297D02*
X020028Y009297D01*
X019772Y009297D02*
X019772Y009603D01*
X020028Y009603D01*
X020028Y009297D01*
X020028Y009381D02*
X019772Y009381D01*
X019772Y009465D02*
X020028Y009465D01*
X020028Y009549D02*
X019772Y009549D01*
X020372Y009297D02*
X020628Y009297D01*
X020372Y009297D02*
X020372Y009603D01*
X020628Y009603D01*
X020628Y009297D01*
X020628Y009381D02*
X020372Y009381D01*
X020372Y009465D02*
X020628Y009465D01*
X020628Y009549D02*
X020372Y009549D01*
X020372Y008047D02*
X020628Y008047D01*
X020372Y008047D02*
X020372Y008353D01*
X020628Y008353D01*
X020628Y008047D01*
X020628Y008131D02*
X020372Y008131D01*
X020372Y008215D02*
X020628Y008215D01*
X020628Y008299D02*
X020372Y008299D01*
X020028Y008047D02*
X019772Y008047D01*
X019772Y008353D01*
X020028Y008353D01*
X020028Y008047D01*
X020028Y008131D02*
X019772Y008131D01*
X019772Y008215D02*
X020028Y008215D01*
X020028Y008299D02*
X019772Y008299D01*
X019772Y006797D02*
X020028Y006797D01*
X019772Y006797D02*
X019772Y007103D01*
X020028Y007103D01*
X020028Y006797D01*
X020028Y006881D02*
X019772Y006881D01*
X019772Y006965D02*
X020028Y006965D01*
X020028Y007049D02*
X019772Y007049D01*
X020372Y006797D02*
X020628Y006797D01*
X020372Y006797D02*
X020372Y007103D01*
X020628Y007103D01*
X020628Y006797D01*
X020628Y006881D02*
X020372Y006881D01*
X020372Y006965D02*
X020628Y006965D01*
X020628Y007049D02*
X020372Y007049D01*
X020372Y005547D02*
X020628Y005547D01*
X020372Y005547D02*
X020372Y005853D01*
X020628Y005853D01*
X020628Y005547D01*
X020628Y005631D02*
X020372Y005631D01*
X020372Y005715D02*
X020628Y005715D01*
X020628Y005799D02*
X020372Y005799D01*
X020028Y005547D02*
X019772Y005547D01*
X019772Y005853D01*
X020028Y005853D01*
X020028Y005547D01*
X020028Y005631D02*
X019772Y005631D01*
X019772Y005715D02*
X020028Y005715D01*
X020028Y005799D02*
X019772Y005799D01*
X019772Y004297D02*
X020028Y004297D01*
X019772Y004297D02*
X019772Y004603D01*
X020028Y004603D01*
X020028Y004297D01*
X020028Y004381D02*
X019772Y004381D01*
X019772Y004465D02*
X020028Y004465D01*
X020028Y004549D02*
X019772Y004549D01*
X020372Y004297D02*
X020628Y004297D01*
X020372Y004297D02*
X020372Y004603D01*
X020628Y004603D01*
X020628Y004297D01*
X020628Y004381D02*
X020372Y004381D01*
X020372Y004465D02*
X020628Y004465D01*
X020628Y004549D02*
X020372Y004549D01*
D15*
X015826Y002550D03*
X015826Y000850D03*
X012574Y000850D03*
X012574Y002550D03*
X009326Y002550D03*
X009326Y000850D03*
X006074Y000850D03*
X006074Y002550D03*
D16*
X001700Y001700D03*
X001700Y011700D03*
X001700Y018700D03*
X019700Y018700D03*
X019700Y011700D03*
X019700Y001700D03*
D17*
X005200Y012200D03*
X004200Y012200D03*
M02*
