G75*
%MOIN*%
%OFA0B0*%
%FSLAX24Y24*%
%IPPOS*%
%LPD*%
%AMOC8*
5,1,8,0,0,1.08239X$1,22.5*
%
%ADD10C,0.0780*%
%ADD11C,0.0620*%
%ADD12C,0.1300*%
D10*
X009500Y005400D03*
X009600Y004550D03*
X009700Y006450D03*
X010250Y007750D03*
X011650Y007700D03*
X014200Y007950D03*
X016800Y008000D03*
X016800Y009100D03*
X016600Y010900D03*
X015500Y010900D03*
X014400Y010900D03*
X008450Y010900D03*
X007450Y010900D03*
X006450Y010900D03*
X005450Y010900D03*
X004450Y010900D03*
D11*
X004200Y013750D03*
X005200Y013750D03*
X006200Y013750D03*
X007200Y013750D03*
X008200Y013750D03*
X009200Y013750D03*
X010200Y013750D03*
X011200Y013750D03*
X012200Y013750D03*
X013200Y013750D03*
X014200Y013750D03*
X015200Y013750D03*
X016200Y013750D03*
X017200Y013750D03*
X017200Y019750D03*
X016200Y019750D03*
X015200Y019750D03*
X014200Y019750D03*
X013200Y019750D03*
X012200Y019750D03*
X011200Y019750D03*
X010200Y019750D03*
X009200Y019750D03*
X008200Y019750D03*
X007200Y019750D03*
X006200Y019750D03*
X005200Y019750D03*
X004200Y019750D03*
D12*
X001700Y001700D03*
X001700Y011700D03*
X001700Y018700D03*
X019700Y018700D03*
X019700Y011700D03*
X019700Y001700D03*
M02*
