G75*
%MOIN*%
%OFA0B0*%
%FSLAX24Y24*%
%IPPOS*%
%LPD*%
%AMOC8*
5,1,8,0,0,1.08239X$1,22.5*
%
%ADD10C,0.0088*%
%ADD11R,0.0984X0.0295*%
%ADD12C,0.0075*%
%ADD13R,0.1000X0.0500*%
%ADD14R,0.0500X0.0500*%
D10*
X001769Y009331D02*
X002031Y009331D01*
X002031Y009069D01*
X001769Y009069D01*
X001769Y009331D01*
X001769Y009156D02*
X002031Y009156D01*
X002031Y009243D02*
X001769Y009243D01*
X001769Y009330D02*
X002031Y009330D01*
X002369Y009331D02*
X002631Y009331D01*
X002631Y009069D01*
X002369Y009069D01*
X002369Y009331D01*
X002369Y009156D02*
X002631Y009156D01*
X002631Y009243D02*
X002369Y009243D01*
X002369Y009330D02*
X002631Y009330D01*
X007069Y012269D02*
X007069Y012531D01*
X007331Y012531D01*
X007331Y012269D01*
X007069Y012269D01*
X007069Y012356D02*
X007331Y012356D01*
X007331Y012443D02*
X007069Y012443D01*
X007069Y012530D02*
X007331Y012530D01*
X007069Y012869D02*
X007069Y013131D01*
X007331Y013131D01*
X007331Y012869D01*
X007069Y012869D01*
X007069Y012956D02*
X007331Y012956D01*
X007331Y013043D02*
X007069Y013043D01*
X007069Y013130D02*
X007331Y013130D01*
X008069Y013131D02*
X008069Y012869D01*
X008069Y013131D02*
X008331Y013131D01*
X008331Y012869D01*
X008069Y012869D01*
X008069Y012956D02*
X008331Y012956D01*
X008331Y013043D02*
X008069Y013043D01*
X008069Y013130D02*
X008331Y013130D01*
X008069Y012531D02*
X008069Y012269D01*
X008069Y012531D02*
X008331Y012531D01*
X008331Y012269D01*
X008069Y012269D01*
X008069Y012356D02*
X008331Y012356D01*
X008331Y012443D02*
X008069Y012443D01*
X008069Y012530D02*
X008331Y012530D01*
X009069Y012531D02*
X009069Y012269D01*
X009069Y012531D02*
X009331Y012531D01*
X009331Y012269D01*
X009069Y012269D01*
X009069Y012356D02*
X009331Y012356D01*
X009331Y012443D02*
X009069Y012443D01*
X009069Y012530D02*
X009331Y012530D01*
X009069Y012869D02*
X009069Y013131D01*
X009331Y013131D01*
X009331Y012869D01*
X009069Y012869D01*
X009069Y012956D02*
X009331Y012956D01*
X009331Y013043D02*
X009069Y013043D01*
X009069Y013130D02*
X009331Y013130D01*
X010069Y013131D02*
X010069Y012869D01*
X010069Y013131D02*
X010331Y013131D01*
X010331Y012869D01*
X010069Y012869D01*
X010069Y012956D02*
X010331Y012956D01*
X010331Y013043D02*
X010069Y013043D01*
X010069Y013130D02*
X010331Y013130D01*
X010069Y012531D02*
X010069Y012269D01*
X010069Y012531D02*
X010331Y012531D01*
X010331Y012269D01*
X010069Y012269D01*
X010069Y012356D02*
X010331Y012356D01*
X010331Y012443D02*
X010069Y012443D01*
X010069Y012530D02*
X010331Y012530D01*
X011069Y012531D02*
X011069Y012269D01*
X011069Y012531D02*
X011331Y012531D01*
X011331Y012269D01*
X011069Y012269D01*
X011069Y012356D02*
X011331Y012356D01*
X011331Y012443D02*
X011069Y012443D01*
X011069Y012530D02*
X011331Y012530D01*
X011069Y012869D02*
X011069Y013131D01*
X011331Y013131D01*
X011331Y012869D01*
X011069Y012869D01*
X011069Y012956D02*
X011331Y012956D01*
X011331Y013043D02*
X011069Y013043D01*
X011069Y013130D02*
X011331Y013130D01*
X008331Y010131D02*
X008331Y009869D01*
X008069Y009869D01*
X008069Y010131D01*
X008331Y010131D01*
X008331Y009956D02*
X008069Y009956D01*
X008069Y010043D02*
X008331Y010043D01*
X008331Y010130D02*
X008069Y010130D01*
X008331Y009531D02*
X008331Y009269D01*
X008069Y009269D01*
X008069Y009531D01*
X008331Y009531D01*
X008331Y009356D02*
X008069Y009356D01*
X008069Y009443D02*
X008331Y009443D01*
X008331Y009530D02*
X008069Y009530D01*
X016269Y011569D02*
X016531Y011569D01*
X016269Y011569D02*
X016269Y011831D01*
X016531Y011831D01*
X016531Y011569D01*
X016531Y011656D02*
X016269Y011656D01*
X016269Y011743D02*
X016531Y011743D01*
X016531Y011830D02*
X016269Y011830D01*
X016869Y011569D02*
X017131Y011569D01*
X016869Y011569D02*
X016869Y011831D01*
X017131Y011831D01*
X017131Y011569D01*
X017131Y011656D02*
X016869Y011656D01*
X016869Y011743D02*
X017131Y011743D01*
X017131Y011830D02*
X016869Y011830D01*
X009381Y018069D02*
X009119Y018069D01*
X009119Y018331D01*
X009381Y018331D01*
X009381Y018069D01*
X009381Y018156D02*
X009119Y018156D01*
X009119Y018243D02*
X009381Y018243D01*
X009381Y018330D02*
X009119Y018330D01*
X008781Y018069D02*
X008519Y018069D01*
X008519Y018331D01*
X008781Y018331D01*
X008781Y018069D01*
X008781Y018156D02*
X008519Y018156D01*
X008519Y018243D02*
X008781Y018243D01*
X008781Y018330D02*
X008519Y018330D01*
X007131Y018331D02*
X006869Y018331D01*
X007131Y018331D02*
X007131Y018069D01*
X006869Y018069D01*
X006869Y018331D01*
X006869Y018156D02*
X007131Y018156D01*
X007131Y018243D02*
X006869Y018243D01*
X006869Y018330D02*
X007131Y018330D01*
X006531Y018331D02*
X006269Y018331D01*
X006531Y018331D02*
X006531Y018069D01*
X006269Y018069D01*
X006269Y018331D01*
X006269Y018156D02*
X006531Y018156D01*
X006531Y018243D02*
X006269Y018243D01*
X006269Y018330D02*
X006531Y018330D01*
D11*
X000963Y005050D03*
X000963Y005550D03*
X000963Y006050D03*
X000963Y006550D03*
X000963Y007050D03*
X002463Y007050D03*
X002463Y006550D03*
X002463Y006050D03*
X002463Y005550D03*
X002463Y005050D03*
D12*
X019787Y004312D02*
X020013Y004312D01*
X019787Y004312D02*
X019787Y004588D01*
X020013Y004588D01*
X020013Y004312D01*
X020013Y004386D02*
X019787Y004386D01*
X019787Y004460D02*
X020013Y004460D01*
X020013Y004534D02*
X019787Y004534D01*
X020387Y004312D02*
X020613Y004312D01*
X020387Y004312D02*
X020387Y004588D01*
X020613Y004588D01*
X020613Y004312D01*
X020613Y004386D02*
X020387Y004386D01*
X020387Y004460D02*
X020613Y004460D01*
X020613Y004534D02*
X020387Y004534D01*
X020387Y005562D02*
X020613Y005562D01*
X020387Y005562D02*
X020387Y005838D01*
X020613Y005838D01*
X020613Y005562D01*
X020613Y005636D02*
X020387Y005636D01*
X020387Y005710D02*
X020613Y005710D01*
X020613Y005784D02*
X020387Y005784D01*
X020013Y005562D02*
X019787Y005562D01*
X019787Y005838D01*
X020013Y005838D01*
X020013Y005562D01*
X020013Y005636D02*
X019787Y005636D01*
X019787Y005710D02*
X020013Y005710D01*
X020013Y005784D02*
X019787Y005784D01*
X019787Y006812D02*
X020013Y006812D01*
X019787Y006812D02*
X019787Y007088D01*
X020013Y007088D01*
X020013Y006812D01*
X020013Y006886D02*
X019787Y006886D01*
X019787Y006960D02*
X020013Y006960D01*
X020013Y007034D02*
X019787Y007034D01*
X020387Y006812D02*
X020613Y006812D01*
X020387Y006812D02*
X020387Y007088D01*
X020613Y007088D01*
X020613Y006812D01*
X020613Y006886D02*
X020387Y006886D01*
X020387Y006960D02*
X020613Y006960D01*
X020613Y007034D02*
X020387Y007034D01*
X020387Y008062D02*
X020613Y008062D01*
X020387Y008062D02*
X020387Y008338D01*
X020613Y008338D01*
X020613Y008062D01*
X020613Y008136D02*
X020387Y008136D01*
X020387Y008210D02*
X020613Y008210D01*
X020613Y008284D02*
X020387Y008284D01*
X020013Y008062D02*
X019787Y008062D01*
X019787Y008338D01*
X020013Y008338D01*
X020013Y008062D01*
X020013Y008136D02*
X019787Y008136D01*
X019787Y008210D02*
X020013Y008210D01*
X020013Y008284D02*
X019787Y008284D01*
X019787Y009312D02*
X020013Y009312D01*
X019787Y009312D02*
X019787Y009588D01*
X020013Y009588D01*
X020013Y009312D01*
X020013Y009386D02*
X019787Y009386D01*
X019787Y009460D02*
X020013Y009460D01*
X020013Y009534D02*
X019787Y009534D01*
X020387Y009312D02*
X020613Y009312D01*
X020387Y009312D02*
X020387Y009588D01*
X020613Y009588D01*
X020613Y009312D01*
X020613Y009386D02*
X020387Y009386D01*
X020387Y009460D02*
X020613Y009460D01*
X020613Y009534D02*
X020387Y009534D01*
D13*
X015826Y002550D03*
X015826Y000850D03*
X012574Y000850D03*
X012574Y002550D03*
X009326Y002550D03*
X009326Y000850D03*
X006074Y000850D03*
X006074Y002550D03*
D14*
X005200Y012200D03*
X004200Y012200D03*
M02*
