G75*
%MOIN*%
%OFA0B0*%
%FSLAX25Y25*%
%IPPOS*%
%LPD*%
%AMOC8*
5,1,8,0,0,1.08239X$1,22.5*
%
%ADD10C,0.00875*%
%ADD11C,0.07400*%
%ADD12R,0.09843X0.02953*%
%ADD13C,0.05800*%
%ADD14C,0.00750*%
%ADD15R,0.10000X0.05000*%
%ADD16R,0.05000X0.05000*%
%ADD17C,0.00800*%
%ADD18C,0.02400*%
%ADD19C,0.00600*%
D10*
X0017687Y0093313D02*
X0020313Y0093313D01*
X0020313Y0090687D01*
X0017687Y0090687D01*
X0017687Y0093313D01*
X0017687Y0091561D02*
X0020313Y0091561D01*
X0020313Y0092435D02*
X0017687Y0092435D01*
X0017687Y0093309D02*
X0020313Y0093309D01*
X0023687Y0093313D02*
X0026313Y0093313D01*
X0026313Y0090687D01*
X0023687Y0090687D01*
X0023687Y0093313D01*
X0023687Y0091561D02*
X0026313Y0091561D01*
X0026313Y0092435D02*
X0023687Y0092435D01*
X0023687Y0093309D02*
X0026313Y0093309D01*
X0070687Y0122687D02*
X0070687Y0125313D01*
X0073313Y0125313D01*
X0073313Y0122687D01*
X0070687Y0122687D01*
X0070687Y0123561D02*
X0073313Y0123561D01*
X0073313Y0124435D02*
X0070687Y0124435D01*
X0070687Y0125309D02*
X0073313Y0125309D01*
X0070687Y0128687D02*
X0070687Y0131313D01*
X0073313Y0131313D01*
X0073313Y0128687D01*
X0070687Y0128687D01*
X0070687Y0129561D02*
X0073313Y0129561D01*
X0073313Y0130435D02*
X0070687Y0130435D01*
X0070687Y0131309D02*
X0073313Y0131309D01*
X0080687Y0131313D02*
X0080687Y0128687D01*
X0080687Y0131313D02*
X0083313Y0131313D01*
X0083313Y0128687D01*
X0080687Y0128687D01*
X0080687Y0129561D02*
X0083313Y0129561D01*
X0083313Y0130435D02*
X0080687Y0130435D01*
X0080687Y0131309D02*
X0083313Y0131309D01*
X0080687Y0125313D02*
X0080687Y0122687D01*
X0080687Y0125313D02*
X0083313Y0125313D01*
X0083313Y0122687D01*
X0080687Y0122687D01*
X0080687Y0123561D02*
X0083313Y0123561D01*
X0083313Y0124435D02*
X0080687Y0124435D01*
X0080687Y0125309D02*
X0083313Y0125309D01*
X0090687Y0125313D02*
X0090687Y0122687D01*
X0090687Y0125313D02*
X0093313Y0125313D01*
X0093313Y0122687D01*
X0090687Y0122687D01*
X0090687Y0123561D02*
X0093313Y0123561D01*
X0093313Y0124435D02*
X0090687Y0124435D01*
X0090687Y0125309D02*
X0093313Y0125309D01*
X0090687Y0128687D02*
X0090687Y0131313D01*
X0093313Y0131313D01*
X0093313Y0128687D01*
X0090687Y0128687D01*
X0090687Y0129561D02*
X0093313Y0129561D01*
X0093313Y0130435D02*
X0090687Y0130435D01*
X0090687Y0131309D02*
X0093313Y0131309D01*
X0100687Y0131313D02*
X0100687Y0128687D01*
X0100687Y0131313D02*
X0103313Y0131313D01*
X0103313Y0128687D01*
X0100687Y0128687D01*
X0100687Y0129561D02*
X0103313Y0129561D01*
X0103313Y0130435D02*
X0100687Y0130435D01*
X0100687Y0131309D02*
X0103313Y0131309D01*
X0100687Y0125313D02*
X0100687Y0122687D01*
X0100687Y0125313D02*
X0103313Y0125313D01*
X0103313Y0122687D01*
X0100687Y0122687D01*
X0100687Y0123561D02*
X0103313Y0123561D01*
X0103313Y0124435D02*
X0100687Y0124435D01*
X0100687Y0125309D02*
X0103313Y0125309D01*
X0110687Y0125313D02*
X0110687Y0122687D01*
X0110687Y0125313D02*
X0113313Y0125313D01*
X0113313Y0122687D01*
X0110687Y0122687D01*
X0110687Y0123561D02*
X0113313Y0123561D01*
X0113313Y0124435D02*
X0110687Y0124435D01*
X0110687Y0125309D02*
X0113313Y0125309D01*
X0110687Y0128687D02*
X0110687Y0131313D01*
X0113313Y0131313D01*
X0113313Y0128687D01*
X0110687Y0128687D01*
X0110687Y0129561D02*
X0113313Y0129561D01*
X0113313Y0130435D02*
X0110687Y0130435D01*
X0110687Y0131309D02*
X0113313Y0131309D01*
X0083313Y0101313D02*
X0083313Y0098687D01*
X0080687Y0098687D01*
X0080687Y0101313D01*
X0083313Y0101313D01*
X0083313Y0099561D02*
X0080687Y0099561D01*
X0080687Y0100435D02*
X0083313Y0100435D01*
X0083313Y0101309D02*
X0080687Y0101309D01*
X0083313Y0095313D02*
X0083313Y0092687D01*
X0080687Y0092687D01*
X0080687Y0095313D01*
X0083313Y0095313D01*
X0083313Y0093561D02*
X0080687Y0093561D01*
X0080687Y0094435D02*
X0083313Y0094435D01*
X0083313Y0095309D02*
X0080687Y0095309D01*
X0162687Y0115687D02*
X0165313Y0115687D01*
X0162687Y0115687D02*
X0162687Y0118313D01*
X0165313Y0118313D01*
X0165313Y0115687D01*
X0165313Y0116561D02*
X0162687Y0116561D01*
X0162687Y0117435D02*
X0165313Y0117435D01*
X0165313Y0118309D02*
X0162687Y0118309D01*
X0168687Y0115687D02*
X0171313Y0115687D01*
X0168687Y0115687D02*
X0168687Y0118313D01*
X0171313Y0118313D01*
X0171313Y0115687D01*
X0171313Y0116561D02*
X0168687Y0116561D01*
X0168687Y0117435D02*
X0171313Y0117435D01*
X0171313Y0118309D02*
X0168687Y0118309D01*
X0093813Y0180687D02*
X0091187Y0180687D01*
X0091187Y0183313D01*
X0093813Y0183313D01*
X0093813Y0180687D01*
X0093813Y0181561D02*
X0091187Y0181561D01*
X0091187Y0182435D02*
X0093813Y0182435D01*
X0093813Y0183309D02*
X0091187Y0183309D01*
X0087813Y0180687D02*
X0085187Y0180687D01*
X0085187Y0183313D01*
X0087813Y0183313D01*
X0087813Y0180687D01*
X0087813Y0181561D02*
X0085187Y0181561D01*
X0085187Y0182435D02*
X0087813Y0182435D01*
X0087813Y0183309D02*
X0085187Y0183309D01*
X0071313Y0183313D02*
X0068687Y0183313D01*
X0071313Y0183313D02*
X0071313Y0180687D01*
X0068687Y0180687D01*
X0068687Y0183313D01*
X0068687Y0181561D02*
X0071313Y0181561D01*
X0071313Y0182435D02*
X0068687Y0182435D01*
X0068687Y0183309D02*
X0071313Y0183309D01*
X0065313Y0183313D02*
X0062687Y0183313D01*
X0065313Y0183313D02*
X0065313Y0180687D01*
X0062687Y0180687D01*
X0062687Y0183313D01*
X0062687Y0181561D02*
X0065313Y0181561D01*
X0065313Y0182435D02*
X0062687Y0182435D01*
X0062687Y0183309D02*
X0065313Y0183309D01*
D11*
X0064500Y0109000D03*
X0054500Y0109000D03*
X0044500Y0109000D03*
X0074500Y0109000D03*
X0084500Y0109000D03*
X0102500Y0077500D03*
X0116500Y0077000D03*
X0097000Y0064500D03*
X0095000Y0054000D03*
X0096000Y0045500D03*
X0142000Y0079500D03*
X0168000Y0080000D03*
X0168000Y0091000D03*
X0166000Y0109000D03*
X0155000Y0109000D03*
X0144000Y0109000D03*
D12*
X0009626Y0050500D03*
X0009626Y0055500D03*
X0009626Y0060500D03*
X0009626Y0065500D03*
X0009626Y0070500D03*
X0024626Y0070500D03*
X0024626Y0065500D03*
X0024626Y0060500D03*
X0024626Y0055500D03*
X0024626Y0050500D03*
D13*
X0042000Y0137500D03*
X0052000Y0137500D03*
X0062000Y0137500D03*
X0072000Y0137500D03*
X0082000Y0137500D03*
X0092000Y0137500D03*
X0102000Y0137500D03*
X0112000Y0137500D03*
X0122000Y0137500D03*
X0132000Y0137500D03*
X0142000Y0137500D03*
X0152000Y0137500D03*
X0162000Y0137500D03*
X0172000Y0137500D03*
X0172000Y0197500D03*
X0162000Y0197500D03*
X0152000Y0197500D03*
X0142000Y0197500D03*
X0132000Y0197500D03*
X0122000Y0197500D03*
X0112000Y0197500D03*
X0102000Y0197500D03*
X0092000Y0197500D03*
X0082000Y0197500D03*
X0072000Y0197500D03*
X0062000Y0197500D03*
X0052000Y0197500D03*
X0042000Y0197500D03*
D14*
X0197875Y0093125D02*
X0200125Y0093125D01*
X0197875Y0093125D02*
X0197875Y0095875D01*
X0200125Y0095875D01*
X0200125Y0093125D01*
X0200125Y0093874D02*
X0197875Y0093874D01*
X0197875Y0094623D02*
X0200125Y0094623D01*
X0200125Y0095372D02*
X0197875Y0095372D01*
X0203875Y0093125D02*
X0206125Y0093125D01*
X0203875Y0093125D02*
X0203875Y0095875D01*
X0206125Y0095875D01*
X0206125Y0093125D01*
X0206125Y0093874D02*
X0203875Y0093874D01*
X0203875Y0094623D02*
X0206125Y0094623D01*
X0206125Y0095372D02*
X0203875Y0095372D01*
X0203875Y0080625D02*
X0206125Y0080625D01*
X0203875Y0080625D02*
X0203875Y0083375D01*
X0206125Y0083375D01*
X0206125Y0080625D01*
X0206125Y0081374D02*
X0203875Y0081374D01*
X0203875Y0082123D02*
X0206125Y0082123D01*
X0206125Y0082872D02*
X0203875Y0082872D01*
X0200125Y0080625D02*
X0197875Y0080625D01*
X0197875Y0083375D01*
X0200125Y0083375D01*
X0200125Y0080625D01*
X0200125Y0081374D02*
X0197875Y0081374D01*
X0197875Y0082123D02*
X0200125Y0082123D01*
X0200125Y0082872D02*
X0197875Y0082872D01*
X0197875Y0068125D02*
X0200125Y0068125D01*
X0197875Y0068125D02*
X0197875Y0070875D01*
X0200125Y0070875D01*
X0200125Y0068125D01*
X0200125Y0068874D02*
X0197875Y0068874D01*
X0197875Y0069623D02*
X0200125Y0069623D01*
X0200125Y0070372D02*
X0197875Y0070372D01*
X0203875Y0068125D02*
X0206125Y0068125D01*
X0203875Y0068125D02*
X0203875Y0070875D01*
X0206125Y0070875D01*
X0206125Y0068125D01*
X0206125Y0068874D02*
X0203875Y0068874D01*
X0203875Y0069623D02*
X0206125Y0069623D01*
X0206125Y0070372D02*
X0203875Y0070372D01*
X0203875Y0055625D02*
X0206125Y0055625D01*
X0203875Y0055625D02*
X0203875Y0058375D01*
X0206125Y0058375D01*
X0206125Y0055625D01*
X0206125Y0056374D02*
X0203875Y0056374D01*
X0203875Y0057123D02*
X0206125Y0057123D01*
X0206125Y0057872D02*
X0203875Y0057872D01*
X0200125Y0055625D02*
X0197875Y0055625D01*
X0197875Y0058375D01*
X0200125Y0058375D01*
X0200125Y0055625D01*
X0200125Y0056374D02*
X0197875Y0056374D01*
X0197875Y0057123D02*
X0200125Y0057123D01*
X0200125Y0057872D02*
X0197875Y0057872D01*
X0197875Y0043125D02*
X0200125Y0043125D01*
X0197875Y0043125D02*
X0197875Y0045875D01*
X0200125Y0045875D01*
X0200125Y0043125D01*
X0200125Y0043874D02*
X0197875Y0043874D01*
X0197875Y0044623D02*
X0200125Y0044623D01*
X0200125Y0045372D02*
X0197875Y0045372D01*
X0203875Y0043125D02*
X0206125Y0043125D01*
X0203875Y0043125D02*
X0203875Y0045875D01*
X0206125Y0045875D01*
X0206125Y0043125D01*
X0206125Y0043874D02*
X0203875Y0043874D01*
X0203875Y0044623D02*
X0206125Y0044623D01*
X0206125Y0045372D02*
X0203875Y0045372D01*
D15*
X0158256Y0025500D03*
X0158256Y0008500D03*
X0125744Y0008500D03*
X0125744Y0025500D03*
X0093256Y0025500D03*
X0093256Y0008500D03*
X0060744Y0008500D03*
X0060744Y0025500D03*
D16*
X0052000Y0122000D03*
X0042000Y0122000D03*
D17*
X0037500Y0122000D01*
X0078000Y0094000D02*
X0082000Y0094000D01*
X0031500Y0058000D02*
X0025000Y0058000D01*
X0025000Y0055500D01*
X0024626Y0055500D01*
X0025000Y0058000D02*
X0025000Y0060500D01*
X0024626Y0060500D01*
X0024626Y0070500D02*
X0025000Y0070500D01*
X0025000Y0074000D01*
X0093500Y0030000D02*
X0093500Y0025500D01*
X0093256Y0025500D01*
X0093500Y0013000D02*
X0093500Y0008500D01*
X0093256Y0008500D01*
X0158256Y0008500D02*
X0158500Y0008500D01*
X0158500Y0013000D01*
X0158500Y0025500D02*
X0158256Y0025500D01*
X0158500Y0025500D02*
X0158500Y0030000D01*
X0205000Y0044500D02*
X0208500Y0044500D01*
X0208500Y0057000D02*
X0205000Y0057000D01*
X0205000Y0069500D02*
X0208500Y0069500D01*
X0208500Y0082000D02*
X0205000Y0082000D01*
X0205000Y0094500D02*
X0208500Y0094500D01*
X0164000Y0117000D02*
X0160500Y0120500D01*
D18*
X0160500Y0120500D03*
X0160500Y0126500D03*
X0155500Y0131500D03*
X0164500Y0144500D03*
X0168000Y0148000D03*
X0173500Y0125000D03*
X0178500Y0120000D03*
X0208500Y0094500D03*
X0208500Y0082000D03*
X0208500Y0069500D03*
X0208500Y0057000D03*
X0208500Y0044500D03*
X0169500Y0067000D03*
X0164000Y0072500D03*
X0153500Y0083000D03*
X0147000Y0089500D03*
X0130000Y0073000D03*
X0134500Y0068500D03*
X0138000Y0067500D03*
X0140500Y0070000D03*
X0144000Y0066500D03*
X0141500Y0064000D03*
X0137500Y0060000D03*
X0134000Y0063500D03*
X0129500Y0063500D03*
X0125000Y0068000D03*
X0125000Y0076500D03*
X0120000Y0081500D03*
X0120000Y0093500D03*
X0126000Y0099500D03*
X0101000Y0112500D03*
X0094500Y0119000D03*
X0078000Y0119000D03*
X0074500Y0115500D03*
X0068500Y0120500D03*
X0066000Y0123000D03*
X0062500Y0119500D03*
X0065000Y0117000D03*
X0064000Y0103000D03*
X0059500Y0102500D03*
X0067500Y0094500D03*
X0070000Y0097000D03*
X0078000Y0094000D03*
X0092000Y0081500D03*
X0094500Y0086500D03*
X0106500Y0059500D03*
X0116000Y0050000D03*
X0130000Y0050000D03*
X0135000Y0050000D03*
X0130000Y0033000D03*
X0133500Y0029500D03*
X0158500Y0030000D03*
X0158500Y0013000D03*
X0093500Y0013000D03*
X0093500Y0030000D03*
X0072000Y0033000D03*
X0068500Y0036500D03*
X0031500Y0058000D03*
X0025000Y0074000D03*
X0043000Y0081500D03*
X0045500Y0089500D03*
X0037500Y0122000D03*
X0084000Y0145500D03*
X0090500Y0152000D03*
X0084000Y0160500D03*
X0084000Y0164500D03*
X0090500Y0167000D03*
X0090500Y0171000D03*
X0099000Y0175500D03*
X0109500Y0175500D03*
X0114500Y0175500D03*
X0114500Y0182500D03*
X0119500Y0183000D03*
X0124500Y0178000D03*
X0128000Y0178000D03*
X0124500Y0190000D03*
X0139500Y0190000D03*
X0144500Y0190000D03*
X0149500Y0190000D03*
X0154500Y0190000D03*
X0159500Y0190000D03*
X0164500Y0190000D03*
X0139500Y0160000D03*
X0144500Y0155000D03*
X0107000Y0185500D03*
X0101500Y0186500D03*
X0097000Y0192000D03*
X0093500Y0188500D03*
X0104000Y0165500D03*
X0099000Y0160500D03*
D19*
X0090500Y0152000D01*
X0097000Y0148500D02*
X0101500Y0153000D01*
X0101500Y0186500D01*
X0104000Y0186000D02*
X0104000Y0165500D01*
X0099000Y0175500D02*
X0090500Y0167000D01*
X0086500Y0165500D02*
X0086500Y0119500D01*
X0092000Y0114000D01*
X0092000Y0081500D01*
X0094500Y0086500D02*
X0094500Y0113500D01*
X0088000Y0120000D01*
X0088000Y0180500D01*
X0086500Y0182000D01*
X0086500Y0193000D01*
X0082000Y0197500D01*
X0072000Y0197500D02*
X0070000Y0195500D01*
X0070000Y0182000D01*
X0086500Y0165500D01*
X0084000Y0164500D02*
X0057000Y0164500D01*
X0057000Y0175500D01*
X0063500Y0182000D01*
X0064000Y0182000D01*
X0064000Y0195500D01*
X0062000Y0197500D01*
X0090500Y0171000D02*
X0092500Y0173000D01*
X0092500Y0182000D01*
X0093500Y0183000D01*
X0093500Y0188500D01*
X0096000Y0189500D02*
X0092000Y0193500D01*
X0092000Y0197500D01*
X0097000Y0192000D02*
X0110500Y0192000D01*
X0119500Y0183000D01*
X0117000Y0183500D02*
X0111000Y0189500D01*
X0096000Y0189500D01*
X0104000Y0186000D02*
X0106000Y0188000D01*
X0108000Y0188000D01*
X0113500Y0182500D01*
X0114500Y0182500D01*
X0117000Y0183500D02*
X0117000Y0104500D01*
X0142000Y0079500D01*
X0144500Y0072500D02*
X0149500Y0077500D01*
X0149500Y0110500D01*
X0127000Y0133000D01*
X0127000Y0142000D01*
X0122000Y0147000D01*
X0122000Y0197500D01*
X0124500Y0190000D02*
X0139500Y0190000D01*
X0144500Y0190000D02*
X0149500Y0190000D01*
X0154500Y0190000D02*
X0159500Y0190000D01*
X0164500Y0190000D02*
X0172000Y0197500D01*
X0162000Y0197500D02*
X0162000Y0150500D01*
X0167000Y0145500D01*
X0167000Y0128000D01*
X0174000Y0121000D01*
X0174000Y0081000D01*
X0173000Y0080000D01*
X0168000Y0080000D01*
X0164000Y0072500D02*
X0153500Y0083000D01*
X0151000Y0084000D02*
X0151000Y0077000D01*
X0132500Y0058500D01*
X0132500Y0032000D01*
X0126000Y0025500D01*
X0125744Y0025500D01*
X0126000Y0025500D02*
X0126000Y0008500D01*
X0125744Y0008500D01*
X0133500Y0029500D02*
X0136500Y0032500D01*
X0179000Y0032500D01*
X0201500Y0055000D01*
X0201500Y0096500D01*
X0200500Y0097500D01*
X0193000Y0097500D01*
X0178500Y0112000D01*
X0178500Y0120000D01*
X0173500Y0125000D02*
X0172000Y0126500D01*
X0172000Y0137500D01*
X0176000Y0140000D02*
X0176000Y0081000D01*
X0161500Y0066500D01*
X0144000Y0066500D01*
X0141500Y0064000D02*
X0161000Y0064000D01*
X0191500Y0094500D01*
X0199000Y0094500D01*
X0199000Y0082000D02*
X0181000Y0082000D01*
X0159000Y0060000D01*
X0137500Y0060000D01*
X0134000Y0063500D02*
X0129500Y0063500D01*
X0125000Y0068000D02*
X0125000Y0076500D01*
X0120000Y0081500D02*
X0098500Y0103000D01*
X0098500Y0113500D01*
X0102000Y0117000D01*
X0102000Y0124000D01*
X0102000Y0130000D02*
X0102000Y0137500D01*
X0112000Y0137500D02*
X0112000Y0130000D01*
X0112000Y0124000D02*
X0112000Y0107000D01*
X0130000Y0089000D01*
X0130000Y0073000D01*
X0133000Y0072500D02*
X0144500Y0072500D01*
X0140500Y0070000D02*
X0136500Y0070000D01*
X0135500Y0071000D01*
X0133500Y0071000D01*
X0100500Y0038000D01*
X0073500Y0038000D01*
X0061000Y0025500D01*
X0060744Y0025500D01*
X0061000Y0025500D02*
X0061000Y0008500D01*
X0060744Y0008500D01*
X0055500Y0004500D02*
X0163500Y0004500D01*
X0181500Y0022500D01*
X0181500Y0027000D01*
X0199000Y0044500D01*
X0192000Y0050000D02*
X0199000Y0057000D01*
X0192000Y0050000D02*
X0135000Y0050000D01*
X0130000Y0050000D02*
X0116000Y0050000D01*
X0106500Y0059500D02*
X0095000Y0059500D01*
X0089500Y0065000D01*
X0089500Y0114500D01*
X0082000Y0122000D01*
X0082000Y0124000D01*
X0082000Y0130000D02*
X0082000Y0137500D01*
X0078000Y0139500D02*
X0078000Y0119000D01*
X0075500Y0118000D02*
X0067500Y0118000D01*
X0057000Y0128500D01*
X0057000Y0130000D01*
X0050500Y0123500D01*
X0052000Y0122000D01*
X0050500Y0123500D02*
X0019000Y0092000D01*
X0025000Y0092000D02*
X0025000Y0086000D01*
X0025063Y0085937D01*
X0025626Y0086500D01*
X0047000Y0086500D01*
X0063500Y0103000D01*
X0064000Y0103000D01*
X0063500Y0103000D02*
X0064500Y0104000D01*
X0064500Y0109000D01*
X0059500Y0111500D02*
X0059500Y0102500D01*
X0054500Y0098500D02*
X0054500Y0109000D01*
X0062500Y0117000D01*
X0062500Y0119500D01*
X0065000Y0117000D02*
X0059500Y0111500D01*
X0068500Y0120500D02*
X0072000Y0124000D01*
X0072000Y0130000D02*
X0072000Y0137500D01*
X0066000Y0137500D02*
X0066000Y0123000D01*
X0075500Y0118000D02*
X0084500Y0109000D01*
X0082000Y0106500D01*
X0082000Y0100000D01*
X0077500Y0102000D02*
X0082000Y0106500D01*
X0077500Y0102000D02*
X0071000Y0102000D01*
X0047000Y0078000D01*
X0041000Y0078000D01*
X0039000Y0076000D01*
X0039000Y0055500D01*
X0033500Y0050000D01*
X0025126Y0050000D01*
X0024626Y0050500D01*
X0018000Y0053000D02*
X0018000Y0073000D01*
X0026500Y0081500D01*
X0043000Y0081500D01*
X0048500Y0084000D02*
X0073500Y0109000D01*
X0074500Y0109000D01*
X0074500Y0115500D01*
X0092000Y0121500D02*
X0094500Y0119000D01*
X0092000Y0121500D02*
X0092000Y0124000D01*
X0092000Y0130000D02*
X0092000Y0137500D01*
X0084000Y0145500D02*
X0078000Y0139500D01*
X0066000Y0137500D02*
X0084000Y0155500D01*
X0084000Y0160500D01*
X0097000Y0148500D02*
X0097000Y0064500D01*
X0095000Y0054000D02*
X0089500Y0048500D01*
X0089500Y0043000D01*
X0093000Y0039500D01*
X0100000Y0039500D01*
X0133000Y0072500D01*
X0134500Y0068500D02*
X0137000Y0068500D01*
X0138000Y0067500D01*
X0122500Y0072000D02*
X0122500Y0094500D01*
X0107000Y0110000D01*
X0107000Y0185500D01*
X0109500Y0175500D02*
X0114500Y0175500D01*
X0124500Y0178000D02*
X0136000Y0166500D01*
X0136000Y0137500D01*
X0142000Y0131500D01*
X0155500Y0131500D01*
X0158000Y0137500D02*
X0158000Y0113000D01*
X0160000Y0111000D01*
X0160000Y0093000D01*
X0151000Y0084000D01*
X0147000Y0089500D02*
X0137000Y0099500D01*
X0126000Y0099500D01*
X0120000Y0093500D02*
X0101000Y0112500D01*
X0122000Y0131000D02*
X0144000Y0109000D01*
X0155000Y0109000D02*
X0132000Y0132000D01*
X0132000Y0137500D01*
X0122000Y0137500D02*
X0122000Y0131000D01*
X0142000Y0153500D02*
X0158000Y0137500D01*
X0162000Y0137500D02*
X0144500Y0155000D01*
X0142000Y0153500D02*
X0142000Y0197500D01*
X0152000Y0197500D02*
X0152000Y0157000D01*
X0164500Y0144500D01*
X0168000Y0148000D02*
X0176000Y0140000D01*
X0160500Y0126500D02*
X0170000Y0117000D01*
X0139500Y0160000D02*
X0139500Y0166500D01*
X0128000Y0178000D01*
X0057000Y0164500D02*
X0057000Y0130000D01*
X0054500Y0098500D02*
X0045500Y0089500D01*
X0048500Y0084000D02*
X0026500Y0084000D01*
X0016000Y0073500D01*
X0016000Y0056000D01*
X0015500Y0055500D01*
X0009626Y0055500D01*
X0009626Y0050500D02*
X0015500Y0050500D01*
X0018000Y0053000D01*
X0009626Y0070500D02*
X0025063Y0085937D01*
X0067500Y0094500D02*
X0067500Y0041500D01*
X0054500Y0028500D01*
X0054500Y0005500D01*
X0055500Y0004500D01*
X0072000Y0033000D02*
X0130000Y0033000D01*
X0096000Y0045500D02*
X0122500Y0072000D01*
X0169500Y0067000D02*
X0196500Y0067000D01*
X0199000Y0069500D01*
X0070000Y0097000D02*
X0070000Y0042000D01*
X0068500Y0040500D01*
X0068500Y0036500D01*
M02*
