G75*
%MOIN*%
%OFA0B0*%
%FSLAX25Y25*%
%IPPOS*%
%LPD*%
%AMOC8*
5,1,8,0,0,1.08239X$1,22.5*
%
%ADD10C,0.00975*%
%ADD11C,0.07800*%
%ADD12R,0.10243X0.03353*%
%ADD13C,0.06200*%
%ADD14C,0.00850*%
%ADD15R,0.10400X0.05400*%
%ADD16C,0.12998*%
%ADD17R,0.05400X0.05400*%
D10*
X0017537Y0093463D02*
X0020463Y0093463D01*
X0020463Y0090537D01*
X0017537Y0090537D01*
X0017537Y0093463D01*
X0017537Y0091511D02*
X0020463Y0091511D01*
X0020463Y0092485D02*
X0017537Y0092485D01*
X0017537Y0093459D02*
X0020463Y0093459D01*
X0023537Y0093463D02*
X0026463Y0093463D01*
X0026463Y0090537D01*
X0023537Y0090537D01*
X0023537Y0093463D01*
X0023537Y0091511D02*
X0026463Y0091511D01*
X0026463Y0092485D02*
X0023537Y0092485D01*
X0023537Y0093459D02*
X0026463Y0093459D01*
X0070537Y0122537D02*
X0070537Y0125463D01*
X0073463Y0125463D01*
X0073463Y0122537D01*
X0070537Y0122537D01*
X0070537Y0123511D02*
X0073463Y0123511D01*
X0073463Y0124485D02*
X0070537Y0124485D01*
X0070537Y0125459D02*
X0073463Y0125459D01*
X0070537Y0128537D02*
X0070537Y0131463D01*
X0073463Y0131463D01*
X0073463Y0128537D01*
X0070537Y0128537D01*
X0070537Y0129511D02*
X0073463Y0129511D01*
X0073463Y0130485D02*
X0070537Y0130485D01*
X0070537Y0131459D02*
X0073463Y0131459D01*
X0080537Y0131463D02*
X0080537Y0128537D01*
X0080537Y0131463D02*
X0083463Y0131463D01*
X0083463Y0128537D01*
X0080537Y0128537D01*
X0080537Y0129511D02*
X0083463Y0129511D01*
X0083463Y0130485D02*
X0080537Y0130485D01*
X0080537Y0131459D02*
X0083463Y0131459D01*
X0080537Y0125463D02*
X0080537Y0122537D01*
X0080537Y0125463D02*
X0083463Y0125463D01*
X0083463Y0122537D01*
X0080537Y0122537D01*
X0080537Y0123511D02*
X0083463Y0123511D01*
X0083463Y0124485D02*
X0080537Y0124485D01*
X0080537Y0125459D02*
X0083463Y0125459D01*
X0090537Y0125463D02*
X0090537Y0122537D01*
X0090537Y0125463D02*
X0093463Y0125463D01*
X0093463Y0122537D01*
X0090537Y0122537D01*
X0090537Y0123511D02*
X0093463Y0123511D01*
X0093463Y0124485D02*
X0090537Y0124485D01*
X0090537Y0125459D02*
X0093463Y0125459D01*
X0090537Y0128537D02*
X0090537Y0131463D01*
X0093463Y0131463D01*
X0093463Y0128537D01*
X0090537Y0128537D01*
X0090537Y0129511D02*
X0093463Y0129511D01*
X0093463Y0130485D02*
X0090537Y0130485D01*
X0090537Y0131459D02*
X0093463Y0131459D01*
X0100537Y0131463D02*
X0100537Y0128537D01*
X0100537Y0131463D02*
X0103463Y0131463D01*
X0103463Y0128537D01*
X0100537Y0128537D01*
X0100537Y0129511D02*
X0103463Y0129511D01*
X0103463Y0130485D02*
X0100537Y0130485D01*
X0100537Y0131459D02*
X0103463Y0131459D01*
X0100537Y0125463D02*
X0100537Y0122537D01*
X0100537Y0125463D02*
X0103463Y0125463D01*
X0103463Y0122537D01*
X0100537Y0122537D01*
X0100537Y0123511D02*
X0103463Y0123511D01*
X0103463Y0124485D02*
X0100537Y0124485D01*
X0100537Y0125459D02*
X0103463Y0125459D01*
X0110537Y0125463D02*
X0110537Y0122537D01*
X0110537Y0125463D02*
X0113463Y0125463D01*
X0113463Y0122537D01*
X0110537Y0122537D01*
X0110537Y0123511D02*
X0113463Y0123511D01*
X0113463Y0124485D02*
X0110537Y0124485D01*
X0110537Y0125459D02*
X0113463Y0125459D01*
X0110537Y0128537D02*
X0110537Y0131463D01*
X0113463Y0131463D01*
X0113463Y0128537D01*
X0110537Y0128537D01*
X0110537Y0129511D02*
X0113463Y0129511D01*
X0113463Y0130485D02*
X0110537Y0130485D01*
X0110537Y0131459D02*
X0113463Y0131459D01*
X0083463Y0101463D02*
X0083463Y0098537D01*
X0080537Y0098537D01*
X0080537Y0101463D01*
X0083463Y0101463D01*
X0083463Y0099511D02*
X0080537Y0099511D01*
X0080537Y0100485D02*
X0083463Y0100485D01*
X0083463Y0101459D02*
X0080537Y0101459D01*
X0083463Y0095463D02*
X0083463Y0092537D01*
X0080537Y0092537D01*
X0080537Y0095463D01*
X0083463Y0095463D01*
X0083463Y0093511D02*
X0080537Y0093511D01*
X0080537Y0094485D02*
X0083463Y0094485D01*
X0083463Y0095459D02*
X0080537Y0095459D01*
X0162537Y0115537D02*
X0165463Y0115537D01*
X0162537Y0115537D02*
X0162537Y0118463D01*
X0165463Y0118463D01*
X0165463Y0115537D01*
X0165463Y0116511D02*
X0162537Y0116511D01*
X0162537Y0117485D02*
X0165463Y0117485D01*
X0165463Y0118459D02*
X0162537Y0118459D01*
X0168537Y0115537D02*
X0171463Y0115537D01*
X0168537Y0115537D02*
X0168537Y0118463D01*
X0171463Y0118463D01*
X0171463Y0115537D01*
X0171463Y0116511D02*
X0168537Y0116511D01*
X0168537Y0117485D02*
X0171463Y0117485D01*
X0171463Y0118459D02*
X0168537Y0118459D01*
X0093963Y0180537D02*
X0091037Y0180537D01*
X0091037Y0183463D01*
X0093963Y0183463D01*
X0093963Y0180537D01*
X0093963Y0181511D02*
X0091037Y0181511D01*
X0091037Y0182485D02*
X0093963Y0182485D01*
X0093963Y0183459D02*
X0091037Y0183459D01*
X0087963Y0180537D02*
X0085037Y0180537D01*
X0085037Y0183463D01*
X0087963Y0183463D01*
X0087963Y0180537D01*
X0087963Y0181511D02*
X0085037Y0181511D01*
X0085037Y0182485D02*
X0087963Y0182485D01*
X0087963Y0183459D02*
X0085037Y0183459D01*
X0071463Y0183463D02*
X0068537Y0183463D01*
X0071463Y0183463D02*
X0071463Y0180537D01*
X0068537Y0180537D01*
X0068537Y0183463D01*
X0068537Y0181511D02*
X0071463Y0181511D01*
X0071463Y0182485D02*
X0068537Y0182485D01*
X0068537Y0183459D02*
X0071463Y0183459D01*
X0065463Y0183463D02*
X0062537Y0183463D01*
X0065463Y0183463D02*
X0065463Y0180537D01*
X0062537Y0180537D01*
X0062537Y0183463D01*
X0062537Y0181511D02*
X0065463Y0181511D01*
X0065463Y0182485D02*
X0062537Y0182485D01*
X0062537Y0183459D02*
X0065463Y0183459D01*
D11*
X0064500Y0109000D03*
X0054500Y0109000D03*
X0044500Y0109000D03*
X0074500Y0109000D03*
X0084500Y0109000D03*
X0102500Y0077500D03*
X0116500Y0077000D03*
X0097000Y0064500D03*
X0095000Y0054000D03*
X0096000Y0045500D03*
X0142000Y0079500D03*
X0168000Y0080000D03*
X0168000Y0091000D03*
X0166000Y0109000D03*
X0155000Y0109000D03*
X0144000Y0109000D03*
D12*
X0024626Y0070500D03*
X0024626Y0065500D03*
X0024626Y0060500D03*
X0024626Y0055500D03*
X0024626Y0050500D03*
X0009626Y0050500D03*
X0009626Y0055500D03*
X0009626Y0060500D03*
X0009626Y0065500D03*
X0009626Y0070500D03*
D13*
X0042000Y0137500D03*
X0052000Y0137500D03*
X0062000Y0137500D03*
X0072000Y0137500D03*
X0082000Y0137500D03*
X0092000Y0137500D03*
X0102000Y0137500D03*
X0112000Y0137500D03*
X0122000Y0137500D03*
X0132000Y0137500D03*
X0142000Y0137500D03*
X0152000Y0137500D03*
X0162000Y0137500D03*
X0172000Y0137500D03*
X0172000Y0197500D03*
X0162000Y0197500D03*
X0152000Y0197500D03*
X0142000Y0197500D03*
X0132000Y0197500D03*
X0122000Y0197500D03*
X0112000Y0197500D03*
X0102000Y0197500D03*
X0092000Y0197500D03*
X0082000Y0197500D03*
X0072000Y0197500D03*
X0062000Y0197500D03*
X0052000Y0197500D03*
X0042000Y0197500D03*
D14*
X0197725Y0092975D02*
X0200275Y0092975D01*
X0197725Y0092975D02*
X0197725Y0096025D01*
X0200275Y0096025D01*
X0200275Y0092975D01*
X0200275Y0093824D02*
X0197725Y0093824D01*
X0197725Y0094673D02*
X0200275Y0094673D01*
X0200275Y0095522D02*
X0197725Y0095522D01*
X0203725Y0092975D02*
X0206275Y0092975D01*
X0203725Y0092975D02*
X0203725Y0096025D01*
X0206275Y0096025D01*
X0206275Y0092975D01*
X0206275Y0093824D02*
X0203725Y0093824D01*
X0203725Y0094673D02*
X0206275Y0094673D01*
X0206275Y0095522D02*
X0203725Y0095522D01*
X0203725Y0080475D02*
X0206275Y0080475D01*
X0203725Y0080475D02*
X0203725Y0083525D01*
X0206275Y0083525D01*
X0206275Y0080475D01*
X0206275Y0081324D02*
X0203725Y0081324D01*
X0203725Y0082173D02*
X0206275Y0082173D01*
X0206275Y0083022D02*
X0203725Y0083022D01*
X0200275Y0080475D02*
X0197725Y0080475D01*
X0197725Y0083525D01*
X0200275Y0083525D01*
X0200275Y0080475D01*
X0200275Y0081324D02*
X0197725Y0081324D01*
X0197725Y0082173D02*
X0200275Y0082173D01*
X0200275Y0083022D02*
X0197725Y0083022D01*
X0197725Y0067975D02*
X0200275Y0067975D01*
X0197725Y0067975D02*
X0197725Y0071025D01*
X0200275Y0071025D01*
X0200275Y0067975D01*
X0200275Y0068824D02*
X0197725Y0068824D01*
X0197725Y0069673D02*
X0200275Y0069673D01*
X0200275Y0070522D02*
X0197725Y0070522D01*
X0203725Y0067975D02*
X0206275Y0067975D01*
X0203725Y0067975D02*
X0203725Y0071025D01*
X0206275Y0071025D01*
X0206275Y0067975D01*
X0206275Y0068824D02*
X0203725Y0068824D01*
X0203725Y0069673D02*
X0206275Y0069673D01*
X0206275Y0070522D02*
X0203725Y0070522D01*
X0203725Y0055475D02*
X0206275Y0055475D01*
X0203725Y0055475D02*
X0203725Y0058525D01*
X0206275Y0058525D01*
X0206275Y0055475D01*
X0206275Y0056324D02*
X0203725Y0056324D01*
X0203725Y0057173D02*
X0206275Y0057173D01*
X0206275Y0058022D02*
X0203725Y0058022D01*
X0200275Y0055475D02*
X0197725Y0055475D01*
X0197725Y0058525D01*
X0200275Y0058525D01*
X0200275Y0055475D01*
X0200275Y0056324D02*
X0197725Y0056324D01*
X0197725Y0057173D02*
X0200275Y0057173D01*
X0200275Y0058022D02*
X0197725Y0058022D01*
X0197725Y0042975D02*
X0200275Y0042975D01*
X0197725Y0042975D02*
X0197725Y0046025D01*
X0200275Y0046025D01*
X0200275Y0042975D01*
X0200275Y0043824D02*
X0197725Y0043824D01*
X0197725Y0044673D02*
X0200275Y0044673D01*
X0200275Y0045522D02*
X0197725Y0045522D01*
X0203725Y0042975D02*
X0206275Y0042975D01*
X0203725Y0042975D02*
X0203725Y0046025D01*
X0206275Y0046025D01*
X0206275Y0042975D01*
X0206275Y0043824D02*
X0203725Y0043824D01*
X0203725Y0044673D02*
X0206275Y0044673D01*
X0206275Y0045522D02*
X0203725Y0045522D01*
D15*
X0158256Y0025500D03*
X0158256Y0008500D03*
X0125744Y0008500D03*
X0125744Y0025500D03*
X0093256Y0025500D03*
X0093256Y0008500D03*
X0060744Y0008500D03*
X0060744Y0025500D03*
D16*
X0017000Y0017000D03*
X0017000Y0117000D03*
X0017000Y0187000D03*
X0197000Y0187000D03*
X0197000Y0117000D03*
X0197000Y0017000D03*
D17*
X0052000Y0122000D03*
X0042000Y0122000D03*
M02*
