G75*
%MOIN*%
%OFA0B0*%
%FSLAX24Y24*%
%IPPOS*%
%LPD*%
%AMOC8*
5,1,8,0,0,1.08239X$1,22.5*
%
%ADD10C,0.0740*%
%ADD11C,0.0580*%
%ADD12C,0.0100*%
%ADD13C,0.0240*%
%ADD14C,0.0060*%
D10*
X009500Y005400D03*
X009600Y004550D03*
X009700Y006450D03*
X010250Y007750D03*
X011650Y007700D03*
X014200Y007950D03*
X016800Y008000D03*
X016800Y009100D03*
X016600Y010900D03*
X015500Y010900D03*
X014400Y010900D03*
X008450Y010900D03*
X007450Y010900D03*
X006450Y010900D03*
X005450Y010900D03*
X004450Y010900D03*
D11*
X004200Y013750D03*
X005200Y013750D03*
X006200Y013750D03*
X007200Y013750D03*
X008200Y013750D03*
X009200Y013750D03*
X010200Y013750D03*
X011200Y013750D03*
X012200Y013750D03*
X013200Y013750D03*
X014200Y013750D03*
X015200Y013750D03*
X016200Y013750D03*
X017200Y013750D03*
X017200Y019750D03*
X016200Y019750D03*
X015200Y019750D03*
X014200Y019750D03*
X013200Y019750D03*
X012200Y019750D03*
X011200Y019750D03*
X010200Y019750D03*
X009200Y019750D03*
X008200Y019750D03*
X007200Y019750D03*
X006200Y019750D03*
X005200Y019750D03*
X004200Y019750D03*
D12*
X000380Y010740D02*
X000380Y002660D01*
X000490Y002822D01*
X000490Y002822D01*
X000875Y003129D01*
X000875Y003129D01*
X001333Y003309D01*
X001333Y003309D01*
X001823Y003345D01*
X001823Y003345D01*
X002303Y003236D01*
X002303Y003236D01*
X002729Y002990D01*
X002729Y002990D01*
X003063Y002629D01*
X003063Y002629D01*
X003277Y002186D01*
X003277Y002186D01*
X003350Y001700D01*
X003277Y001214D01*
X003277Y001214D01*
X003063Y000771D01*
X003063Y000771D01*
X002729Y000410D01*
X002729Y000410D01*
X002677Y000380D01*
X018738Y000380D01*
X018490Y000578D01*
X018490Y000578D01*
X018490Y000578D01*
X018213Y000984D01*
X018213Y000984D01*
X018068Y001454D01*
X018068Y001946D01*
X018213Y002416D01*
X018213Y002416D01*
X018490Y002822D01*
X018490Y002822D01*
X018490Y002822D01*
X018875Y003129D01*
X018875Y003129D01*
X019333Y003309D01*
X019333Y003309D01*
X019823Y003345D01*
X019823Y003345D01*
X020303Y003236D01*
X020303Y003236D01*
X020729Y002990D01*
X020729Y002990D01*
X021020Y002676D01*
X021020Y010724D01*
X020729Y010410D01*
X020729Y010410D01*
X020303Y010164D01*
X020303Y010164D01*
X019823Y010055D01*
X019823Y010055D01*
X019333Y010091D01*
X019333Y010091D01*
X018875Y010271D01*
X018875Y010271D01*
X018490Y010578D01*
X018490Y010578D01*
X018490Y010578D01*
X018213Y010984D01*
X018213Y010984D01*
X018068Y011454D01*
X018068Y011946D01*
X018068Y011946D01*
X018213Y012416D01*
X018490Y012822D01*
X018490Y012822D01*
X018875Y013129D01*
X019333Y013309D01*
X019333Y013309D01*
X019823Y013345D01*
X019823Y013345D01*
X020303Y013236D01*
X020303Y013236D01*
X020729Y012990D01*
X020729Y012990D01*
X021020Y012676D01*
X021020Y017724D01*
X020729Y017410D01*
X020303Y017164D01*
X020303Y017164D01*
X019823Y017055D01*
X019333Y017091D01*
X018875Y017271D01*
X018875Y017271D01*
X018490Y017578D01*
X018490Y017578D01*
X018490Y017578D01*
X018213Y017984D01*
X018213Y017984D01*
X018068Y018454D01*
X018068Y018946D01*
X018213Y019416D01*
X018213Y019416D01*
X018490Y019822D01*
X018490Y019822D01*
X018738Y020020D01*
X017524Y020020D01*
X017556Y019988D01*
X017620Y019834D01*
X017620Y019666D01*
X017556Y019512D01*
X017438Y019394D01*
X017284Y019330D01*
X017116Y019330D01*
X016962Y019394D01*
X016844Y019512D01*
X016780Y019666D01*
X016780Y019834D01*
X016844Y019988D01*
X016876Y020020D01*
X016524Y020020D01*
X016556Y019988D01*
X016620Y019834D01*
X016620Y019666D01*
X016556Y019512D01*
X016438Y019394D01*
X016284Y019330D01*
X016116Y019330D01*
X015962Y019394D01*
X015844Y019512D01*
X015780Y019666D01*
X015780Y019834D01*
X015844Y019988D01*
X015876Y020020D01*
X015524Y020020D01*
X015556Y019988D01*
X015620Y019834D01*
X015620Y019666D01*
X015556Y019512D01*
X015438Y019394D01*
X015284Y019330D01*
X015116Y019330D01*
X014962Y019394D01*
X014844Y019512D01*
X014780Y019666D01*
X014780Y019834D01*
X014844Y019988D01*
X014876Y020020D01*
X014524Y020020D01*
X014556Y019988D01*
X014620Y019834D01*
X014620Y019666D01*
X014556Y019512D01*
X014438Y019394D01*
X014284Y019330D01*
X014116Y019330D01*
X013962Y019394D01*
X013844Y019512D01*
X013780Y019666D01*
X013780Y019834D01*
X013844Y019988D01*
X013876Y020020D01*
X013524Y020020D01*
X013556Y019988D01*
X013620Y019834D01*
X013620Y019666D01*
X013556Y019512D01*
X013438Y019394D01*
X013284Y019330D01*
X013116Y019330D01*
X012962Y019394D01*
X012844Y019512D01*
X012780Y019666D01*
X012780Y019834D01*
X012844Y019988D01*
X012876Y020020D01*
X012524Y020020D01*
X012556Y019988D01*
X012620Y019834D01*
X012620Y019666D01*
X012556Y019512D01*
X012438Y019394D01*
X012284Y019330D01*
X012116Y019330D01*
X011962Y019394D01*
X011844Y019512D01*
X011780Y019666D01*
X011780Y019834D01*
X011844Y019988D01*
X011876Y020020D01*
X011524Y020020D01*
X011556Y019988D01*
X011620Y019834D01*
X011620Y019666D01*
X011556Y019512D01*
X011438Y019394D01*
X011360Y019362D01*
X011360Y018984D01*
X011266Y018890D01*
X010950Y018574D01*
X010950Y018500D01*
X010912Y018408D01*
X010842Y018338D01*
X010750Y018300D01*
X010650Y018300D01*
X010558Y018338D01*
X010488Y018408D01*
X010450Y018500D01*
X010450Y018600D01*
X010488Y018692D01*
X010558Y018762D01*
X010650Y018800D01*
X010724Y018800D01*
X011040Y019116D01*
X011040Y019362D01*
X010962Y019394D01*
X010844Y019512D01*
X010780Y019666D01*
X010780Y019834D01*
X010844Y019988D01*
X010876Y020020D01*
X010524Y020020D01*
X010556Y019988D01*
X010620Y019834D01*
X010620Y019666D01*
X010556Y019512D01*
X010438Y019394D01*
X010360Y019362D01*
X010360Y018794D01*
X010362Y018792D01*
X010400Y018700D01*
X010400Y018600D01*
X010362Y018508D01*
X010292Y018438D01*
X010200Y018400D01*
X010100Y018400D01*
X010008Y018438D01*
X009938Y018508D01*
X009900Y018600D01*
X009900Y018700D01*
X009938Y018792D01*
X010008Y018862D01*
X010040Y018875D01*
X010040Y019362D01*
X009962Y019394D01*
X009844Y019512D01*
X009780Y019666D01*
X009780Y019834D01*
X009844Y019988D01*
X009876Y020020D01*
X009524Y020020D01*
X009556Y019988D01*
X009620Y019834D01*
X009620Y019666D01*
X009556Y019512D01*
X009438Y019394D01*
X009284Y019330D01*
X009116Y019330D01*
X008962Y019394D01*
X008844Y019512D01*
X008780Y019666D01*
X008780Y019834D01*
X008844Y019988D01*
X008876Y020020D01*
X008524Y020020D01*
X008556Y019988D01*
X008620Y019834D01*
X008620Y019666D01*
X008556Y019512D01*
X008438Y019394D01*
X008284Y019330D01*
X008116Y019330D01*
X007962Y019394D01*
X007844Y019512D01*
X007780Y019666D01*
X007780Y019834D01*
X007844Y019988D01*
X007876Y020020D01*
X007524Y020020D01*
X007556Y019988D01*
X007620Y019834D01*
X007620Y019666D01*
X007556Y019512D01*
X007438Y019394D01*
X007284Y019330D01*
X007116Y019330D01*
X006962Y019394D01*
X006844Y019512D01*
X006780Y019666D01*
X006780Y019834D01*
X006844Y019988D01*
X006876Y020020D01*
X006524Y020020D01*
X006556Y019988D01*
X006620Y019834D01*
X006620Y019666D01*
X006556Y019512D01*
X006438Y019394D01*
X006284Y019330D01*
X006116Y019330D01*
X005962Y019394D01*
X005844Y019512D01*
X005780Y019666D01*
X005780Y019834D01*
X005844Y019988D01*
X005876Y020020D01*
X005548Y020020D01*
X005576Y019981D01*
X005608Y019919D01*
X005629Y019853D01*
X005638Y019795D01*
X005245Y019795D01*
X005245Y019705D01*
X005638Y019705D01*
X005629Y019647D01*
X005608Y019581D01*
X005576Y019519D01*
X005536Y019463D01*
X005487Y019414D01*
X005431Y019374D01*
X005369Y019342D01*
X005303Y019321D01*
X005245Y019312D01*
X005245Y019705D01*
X005155Y019705D01*
X005155Y019312D01*
X005097Y019321D01*
X005031Y019342D01*
X004969Y019374D01*
X004913Y019414D01*
X004864Y019463D01*
X004824Y019519D01*
X004792Y019581D01*
X004771Y019647D01*
X004762Y019705D01*
X005155Y019705D01*
X005155Y019795D01*
X005155Y020020D01*
X005245Y020020D01*
X005245Y019795D01*
X005155Y019795D01*
X004762Y019795D01*
X004771Y019853D01*
X004792Y019919D01*
X004824Y019981D01*
X004852Y020020D01*
X004524Y020020D01*
X004556Y019988D01*
X004620Y019834D01*
X004620Y019666D01*
X004556Y019512D01*
X004438Y019394D01*
X004284Y019330D01*
X004116Y019330D01*
X003962Y019394D01*
X003844Y019512D01*
X003780Y019666D01*
X003780Y019834D01*
X003844Y019988D01*
X003876Y020020D01*
X002677Y020020D01*
X002729Y019990D01*
X002729Y019990D01*
X003063Y019629D01*
X003063Y019629D01*
X003277Y019186D01*
X003277Y019186D01*
X003350Y018700D01*
X003277Y018214D01*
X003277Y018214D01*
X003063Y017771D01*
X012200Y017771D01*
X012200Y017750D02*
X012238Y017658D01*
X012308Y017588D01*
X012400Y017550D01*
X012500Y017550D01*
X012592Y017588D01*
X012662Y017658D01*
X012700Y017750D01*
X012700Y017850D01*
X012662Y017942D01*
X012592Y018012D01*
X012500Y018050D01*
X012426Y018050D01*
X012200Y018276D01*
X012200Y018350D01*
X012162Y018442D01*
X012092Y018512D01*
X012000Y018550D01*
X011900Y018550D01*
X011808Y018512D01*
X011738Y018442D01*
X011700Y018350D01*
X011700Y018250D01*
X011738Y018158D01*
X011808Y018088D01*
X011900Y018050D01*
X011974Y018050D01*
X012200Y017824D01*
X012200Y017750D01*
X012232Y017672D02*
X002972Y017672D01*
X003063Y017771D02*
X002729Y017410D01*
X002729Y017410D01*
X002729Y017410D01*
X002303Y017164D01*
X002303Y017164D01*
X001823Y017055D01*
X001823Y017055D01*
X001333Y017091D01*
X001333Y017091D01*
X000875Y017271D01*
X000875Y017271D01*
X000490Y017578D01*
X000490Y017578D01*
X000490Y017578D01*
X000380Y017740D01*
X000380Y012660D01*
X000490Y012822D01*
X000490Y012822D01*
X000490Y012822D01*
X000875Y013129D01*
X000875Y013129D01*
X001333Y013309D01*
X001333Y013309D01*
X001823Y013345D01*
X001823Y013345D01*
X002303Y013236D01*
X002303Y013236D01*
X002729Y012990D01*
X002729Y012990D01*
X003063Y012629D01*
X003277Y012186D01*
X003350Y011700D01*
X003350Y011700D01*
X003277Y011214D01*
X003277Y011214D01*
X003063Y010771D01*
X003063Y010771D01*
X002729Y010410D01*
X002729Y010410D01*
X002303Y010164D01*
X002303Y010164D01*
X001823Y010055D01*
X001823Y010055D01*
X001333Y010091D01*
X001333Y010091D01*
X000875Y010271D01*
X000875Y010271D01*
X000490Y010578D01*
X000490Y010578D01*
X000490Y010578D01*
X000380Y010740D01*
X000380Y010679D02*
X000422Y010679D01*
X000380Y010580D02*
X000489Y010580D01*
X000380Y010482D02*
X000611Y010482D01*
X000735Y010383D02*
X000380Y010383D01*
X000380Y010285D02*
X000858Y010285D01*
X001092Y010186D02*
X000380Y010186D01*
X000380Y010088D02*
X001384Y010088D01*
X001967Y010088D02*
X005759Y010088D01*
X005738Y010108D02*
X005808Y010038D01*
X005900Y010000D01*
X005974Y010000D01*
X006500Y009474D01*
X006500Y009400D01*
X006538Y009308D01*
X006608Y009238D01*
X006700Y009200D01*
X006800Y009200D01*
X006892Y009238D01*
X006962Y009308D01*
X007000Y009400D01*
X007000Y009500D01*
X006962Y009592D01*
X006892Y009662D01*
X006800Y009700D01*
X006726Y009700D01*
X006200Y010226D01*
X006200Y010300D01*
X006162Y010392D01*
X006092Y010462D01*
X006000Y010500D01*
X005900Y010500D01*
X005808Y010462D01*
X005738Y010392D01*
X005700Y010300D01*
X005700Y010200D01*
X005738Y010108D01*
X005706Y010186D02*
X002341Y010186D01*
X002511Y010285D02*
X005700Y010285D01*
X005735Y010383D02*
X004510Y010383D01*
X004500Y010383D02*
X004400Y010383D01*
X004400Y010381D02*
X004400Y010850D01*
X003931Y010850D01*
X003943Y010778D01*
X003968Y010700D01*
X004005Y010627D01*
X004053Y010561D01*
X004111Y010503D01*
X004177Y010455D01*
X004250Y010418D01*
X004328Y010393D01*
X004400Y010381D01*
X004390Y010383D02*
X002682Y010383D01*
X002795Y010482D02*
X004141Y010482D01*
X004040Y010580D02*
X002887Y010580D01*
X002978Y010679D02*
X003979Y010679D01*
X003943Y010777D02*
X003066Y010777D01*
X003114Y010876D02*
X004400Y010876D01*
X004400Y010850D02*
X004400Y010950D01*
X004400Y011419D01*
X004328Y011407D01*
X004250Y011382D01*
X004177Y011345D01*
X004111Y011297D01*
X004053Y011239D01*
X004005Y011173D01*
X003968Y011100D01*
X003943Y011022D01*
X003931Y010950D01*
X004400Y010950D01*
X004500Y010950D01*
X004500Y011419D01*
X004572Y011407D01*
X004650Y011382D01*
X004723Y011345D01*
X004789Y011297D01*
X004847Y011239D01*
X004895Y011173D01*
X004932Y011100D01*
X004957Y011022D01*
X004958Y011018D01*
X005026Y011183D01*
X005167Y011324D01*
X005351Y011400D01*
X005549Y011400D01*
X005733Y011324D01*
X005874Y011183D01*
X005950Y010999D01*
X005950Y010801D01*
X005874Y010617D01*
X005733Y010476D01*
X005549Y010400D01*
X005351Y010400D01*
X005167Y010476D01*
X005026Y010617D01*
X004958Y010782D01*
X004957Y010778D01*
X004932Y010700D01*
X004895Y010627D01*
X004847Y010561D01*
X004789Y010503D01*
X004723Y010455D01*
X004650Y010418D01*
X004572Y010393D01*
X004500Y010381D01*
X004500Y010850D01*
X004400Y010850D01*
X004400Y010777D02*
X004500Y010777D01*
X004500Y010679D02*
X004400Y010679D01*
X004400Y010580D02*
X004500Y010580D01*
X004500Y010482D02*
X004400Y010482D01*
X004759Y010482D02*
X005161Y010482D01*
X005063Y010580D02*
X004860Y010580D01*
X004921Y010679D02*
X005001Y010679D01*
X004960Y010777D02*
X004957Y010777D01*
X004941Y011073D02*
X004980Y011073D01*
X005021Y011171D02*
X004896Y011171D01*
X004816Y011270D02*
X005112Y011270D01*
X005273Y011368D02*
X004677Y011368D01*
X004500Y011368D02*
X004400Y011368D01*
X004400Y011270D02*
X004500Y011270D01*
X004500Y011171D02*
X004400Y011171D01*
X004400Y011073D02*
X004500Y011073D01*
X004500Y010974D02*
X004400Y010974D01*
X004223Y011368D02*
X003300Y011368D01*
X003285Y011270D02*
X004084Y011270D01*
X004004Y011171D02*
X003256Y011171D01*
X003209Y011073D02*
X003959Y011073D01*
X003935Y010974D02*
X003161Y010974D01*
X003315Y011467D02*
X006410Y011467D01*
X006450Y011450D02*
X006550Y011450D01*
X006642Y011488D01*
X006712Y011558D01*
X006750Y011650D01*
X006750Y011724D01*
X006826Y011800D01*
X006900Y011800D01*
X006992Y011838D01*
X007062Y011908D01*
X007100Y012000D01*
X007100Y012100D01*
X007062Y012192D01*
X006992Y012262D01*
X006900Y012300D01*
X006800Y012300D01*
X006708Y012262D01*
X006638Y012192D01*
X006600Y012100D01*
X006600Y012026D01*
X006524Y011950D01*
X006450Y011950D01*
X006358Y011912D01*
X006288Y011842D01*
X006250Y011750D01*
X006250Y011650D01*
X006288Y011558D01*
X006358Y011488D01*
X006450Y011450D01*
X006549Y011400D02*
X006351Y011400D01*
X006167Y011324D01*
X006026Y011183D01*
X005950Y010999D01*
X005950Y010801D01*
X006026Y010617D01*
X006167Y010476D01*
X006351Y010400D01*
X006549Y010400D01*
X006733Y010476D01*
X006874Y010617D01*
X006950Y010801D01*
X006950Y010999D01*
X006874Y011183D01*
X006733Y011324D01*
X006549Y011400D01*
X006590Y011467D02*
X009657Y011467D01*
X009559Y011565D02*
X006715Y011565D01*
X006750Y011664D02*
X009368Y011664D01*
X009400Y011650D02*
X009474Y011650D01*
X009850Y011274D01*
X009850Y011200D01*
X009888Y011108D01*
X009958Y011038D01*
X010050Y011000D01*
X010150Y011000D01*
X010242Y011038D01*
X010312Y011108D01*
X010350Y011200D01*
X010350Y011300D01*
X010312Y011392D01*
X010242Y011462D01*
X010150Y011500D01*
X010076Y011500D01*
X009700Y011876D01*
X009700Y011950D01*
X009662Y012042D01*
X009592Y012112D01*
X009500Y012150D01*
X009400Y012150D01*
X009308Y012112D01*
X009238Y012042D01*
X009200Y011950D01*
X009200Y011850D01*
X009238Y011758D01*
X009308Y011688D01*
X009400Y011650D01*
X009237Y011762D02*
X006788Y011762D01*
X007014Y011861D02*
X009200Y011861D01*
X009204Y011959D02*
X007083Y011959D01*
X007100Y012058D02*
X009254Y012058D01*
X009646Y012058D02*
X018103Y012058D01*
X018133Y012156D02*
X007077Y012156D01*
X006999Y012255D02*
X018164Y012255D01*
X018194Y012353D02*
X003196Y012353D01*
X003149Y012452D02*
X015895Y012452D01*
X015908Y012438D02*
X016000Y012400D01*
X016100Y012400D01*
X016192Y012438D01*
X016262Y012508D01*
X016300Y012600D01*
X016300Y012700D01*
X016262Y012792D01*
X016192Y012862D01*
X016100Y012900D01*
X016026Y012900D01*
X015800Y013126D01*
X015800Y013200D01*
X015762Y013292D01*
X015692Y013362D01*
X015600Y013400D01*
X015500Y013400D01*
X015408Y013362D01*
X015338Y013292D01*
X015300Y013200D01*
X015300Y013100D01*
X015338Y013008D01*
X015408Y012938D01*
X015500Y012900D01*
X015574Y012900D01*
X015800Y012674D01*
X015800Y012600D01*
X015838Y012508D01*
X015908Y012438D01*
X015821Y012550D02*
X003102Y012550D01*
X003046Y012649D02*
X015800Y012649D01*
X015727Y012747D02*
X002954Y012747D01*
X002863Y012846D02*
X015628Y012846D01*
X015402Y012944D02*
X002771Y012944D01*
X002638Y013043D02*
X015324Y013043D01*
X015300Y013141D02*
X002467Y013141D01*
X002287Y013240D02*
X015316Y013240D01*
X015284Y013330D02*
X015438Y013394D01*
X015556Y013512D01*
X015620Y013666D01*
X015620Y013834D01*
X015556Y013988D01*
X015438Y014106D01*
X015284Y014170D01*
X015116Y014170D01*
X014962Y014106D01*
X014844Y013988D01*
X014780Y013834D01*
X014780Y013666D01*
X014844Y013512D01*
X014962Y013394D01*
X015116Y013330D01*
X015284Y013330D01*
X015303Y013338D02*
X015384Y013338D01*
X015480Y013437D02*
X015920Y013437D01*
X015962Y013394D02*
X016116Y013330D01*
X016284Y013330D01*
X016438Y013394D01*
X016556Y013512D01*
X016620Y013666D01*
X016620Y013834D01*
X016556Y013988D01*
X016438Y014106D01*
X016284Y014170D01*
X016116Y014170D01*
X015962Y014106D01*
X015844Y013988D01*
X015780Y013834D01*
X015780Y013666D01*
X015844Y013512D01*
X015962Y013394D01*
X016097Y013338D02*
X015716Y013338D01*
X015784Y013240D02*
X019157Y013240D01*
X018906Y013141D02*
X015800Y013141D01*
X015884Y013043D02*
X018767Y013043D01*
X018643Y012944D02*
X015982Y012944D01*
X016208Y012846D02*
X018520Y012846D01*
X018439Y012747D02*
X016280Y012747D01*
X016300Y012649D02*
X018372Y012649D01*
X018305Y012550D02*
X016279Y012550D01*
X016205Y012452D02*
X018238Y012452D01*
X018072Y011959D02*
X009696Y011959D01*
X009716Y011861D02*
X018068Y011861D01*
X018068Y011762D02*
X009814Y011762D01*
X009913Y011664D02*
X018068Y011664D01*
X018068Y011565D02*
X010011Y011565D01*
X010231Y011467D02*
X018068Y011467D01*
X018095Y011368D02*
X016827Y011368D01*
X016800Y011382D02*
X016722Y011407D01*
X016650Y011419D01*
X016650Y010950D01*
X016550Y010950D01*
X016550Y011419D01*
X016478Y011407D01*
X016400Y011382D01*
X016327Y011345D01*
X016261Y011297D01*
X016203Y011239D01*
X016155Y011173D01*
X016118Y011100D01*
X016093Y011022D01*
X016081Y010950D01*
X016550Y010950D01*
X016550Y010850D01*
X016081Y010850D01*
X016093Y010778D01*
X016118Y010700D01*
X016155Y010627D01*
X016203Y010561D01*
X016261Y010503D01*
X016327Y010455D01*
X016400Y010418D01*
X016478Y010393D01*
X016550Y010381D01*
X016550Y010850D01*
X016650Y010850D01*
X016650Y010950D01*
X017119Y010950D01*
X017107Y011022D01*
X017082Y011100D01*
X017045Y011173D01*
X016997Y011239D01*
X016939Y011297D01*
X016873Y011345D01*
X016800Y011382D01*
X016650Y011368D02*
X016550Y011368D01*
X016550Y011270D02*
X016650Y011270D01*
X016650Y011171D02*
X016550Y011171D01*
X016550Y011073D02*
X016650Y011073D01*
X016650Y010974D02*
X016550Y010974D01*
X016550Y010876D02*
X016000Y010876D01*
X016000Y010801D02*
X015924Y010617D01*
X015783Y010476D01*
X015599Y010400D01*
X015401Y010400D01*
X015217Y010476D01*
X015076Y010617D01*
X015000Y010801D01*
X015000Y010999D01*
X015076Y011183D01*
X015217Y011324D01*
X015401Y011400D01*
X015599Y011400D01*
X015783Y011324D01*
X015924Y011183D01*
X016000Y010999D01*
X016000Y010801D01*
X015990Y010777D02*
X016093Y010777D01*
X016129Y010679D02*
X015949Y010679D01*
X015887Y010580D02*
X016190Y010580D01*
X016291Y010482D02*
X015789Y010482D01*
X016000Y010974D02*
X016085Y010974D01*
X016109Y011073D02*
X015970Y011073D01*
X015929Y011171D02*
X016154Y011171D01*
X016234Y011270D02*
X015838Y011270D01*
X015677Y011368D02*
X016373Y011368D01*
X016650Y010876D02*
X018287Y010876D01*
X018220Y010974D02*
X017115Y010974D01*
X017091Y011073D02*
X018186Y011073D01*
X018156Y011171D02*
X017046Y011171D01*
X016966Y011270D02*
X018125Y011270D01*
X018355Y010777D02*
X017107Y010777D01*
X017107Y010778D02*
X017119Y010850D01*
X016650Y010850D01*
X016650Y010381D01*
X016722Y010393D01*
X016800Y010418D01*
X016873Y010455D01*
X016939Y010503D01*
X016997Y010561D01*
X017045Y010627D01*
X017082Y010700D01*
X017107Y010778D01*
X017071Y010679D02*
X018422Y010679D01*
X018489Y010580D02*
X017010Y010580D01*
X016909Y010482D02*
X018611Y010482D01*
X018735Y010383D02*
X016660Y010383D01*
X016650Y010383D02*
X016550Y010383D01*
X016540Y010383D02*
X006165Y010383D01*
X006161Y010482D02*
X006044Y010482D01*
X006063Y010580D02*
X005837Y010580D01*
X005856Y010482D02*
X005739Y010482D01*
X005899Y010679D02*
X006001Y010679D01*
X005960Y010777D02*
X005940Y010777D01*
X005950Y010876D02*
X005950Y010876D01*
X005950Y010974D02*
X005950Y010974D01*
X005920Y011073D02*
X005980Y011073D01*
X006021Y011171D02*
X005879Y011171D01*
X005788Y011270D02*
X006112Y011270D01*
X006273Y011368D02*
X005627Y011368D01*
X006250Y011664D02*
X003345Y011664D01*
X003341Y011762D02*
X006255Y011762D01*
X006307Y011861D02*
X003326Y011861D01*
X003311Y011959D02*
X006533Y011959D01*
X006600Y012058D02*
X003296Y012058D01*
X003281Y012156D02*
X006623Y012156D01*
X006701Y012255D02*
X003244Y012255D01*
X003330Y011565D02*
X006285Y011565D01*
X006627Y011368D02*
X007273Y011368D01*
X007351Y011400D02*
X007167Y011324D01*
X007026Y011183D01*
X006950Y010999D01*
X006950Y010801D01*
X007026Y010617D01*
X007167Y010476D01*
X007351Y010400D01*
X007549Y010400D01*
X007733Y010476D01*
X007874Y010617D01*
X007950Y010801D01*
X007950Y010999D01*
X007874Y011183D01*
X007733Y011324D01*
X007549Y011400D01*
X007351Y011400D01*
X007627Y011368D02*
X008273Y011368D01*
X008351Y011400D02*
X008167Y011324D01*
X008026Y011183D01*
X007950Y010999D01*
X007950Y010801D01*
X008026Y010617D01*
X008167Y010476D01*
X008351Y010400D01*
X008549Y010400D01*
X008733Y010476D01*
X008874Y010617D01*
X008950Y010801D01*
X008950Y010999D01*
X008874Y011183D01*
X008733Y011324D01*
X008549Y011400D01*
X008351Y011400D01*
X008112Y011270D02*
X007788Y011270D01*
X007879Y011171D02*
X008021Y011171D01*
X007980Y011073D02*
X007920Y011073D01*
X007950Y010974D02*
X007950Y010974D01*
X007950Y010876D02*
X007950Y010876D01*
X007940Y010777D02*
X007960Y010777D01*
X008001Y010679D02*
X007899Y010679D01*
X007837Y010580D02*
X008063Y010580D01*
X008161Y010482D02*
X007739Y010482D01*
X007161Y010482D02*
X006739Y010482D01*
X006837Y010580D02*
X007063Y010580D01*
X007001Y010679D02*
X006899Y010679D01*
X006940Y010777D02*
X006960Y010777D01*
X006950Y010876D02*
X006950Y010876D01*
X006950Y010974D02*
X006950Y010974D01*
X006920Y011073D02*
X006980Y011073D01*
X007021Y011171D02*
X006879Y011171D01*
X006788Y011270D02*
X007112Y011270D01*
X006200Y010285D02*
X018858Y010285D01*
X019092Y010186D02*
X012683Y010186D01*
X012650Y010200D02*
X012550Y010200D01*
X012458Y010162D01*
X012388Y010092D01*
X012350Y010000D01*
X012350Y009926D01*
X012024Y009600D01*
X011950Y009600D01*
X011858Y009562D01*
X011788Y009492D01*
X011750Y009400D01*
X011750Y009300D01*
X011788Y009208D01*
X011858Y009138D01*
X011950Y009100D01*
X012050Y009100D01*
X012142Y009138D01*
X012212Y009208D01*
X012250Y009300D01*
X012250Y009374D01*
X012576Y009700D01*
X012650Y009700D01*
X012742Y009738D01*
X012812Y009808D01*
X012850Y009900D01*
X012850Y010000D01*
X012812Y010092D01*
X012742Y010162D01*
X012650Y010200D01*
X012517Y010186D02*
X006240Y010186D01*
X006339Y010088D02*
X012386Y010088D01*
X012350Y009989D02*
X006437Y009989D01*
X006536Y009891D02*
X012314Y009891D01*
X012216Y009792D02*
X006634Y009792D01*
X006815Y009694D02*
X012117Y009694D01*
X011938Y009595D02*
X006959Y009595D01*
X007000Y009497D02*
X011793Y009497D01*
X011750Y009398D02*
X006999Y009398D01*
X006953Y009300D02*
X011750Y009300D01*
X011795Y009201D02*
X006802Y009201D01*
X006698Y009201D02*
X000380Y009201D01*
X000380Y009103D02*
X004349Y009103D01*
X004338Y009092D02*
X004300Y009000D01*
X004300Y008900D01*
X004338Y008808D01*
X004390Y008756D01*
X004390Y008466D01*
X004324Y008400D01*
X004250Y008400D01*
X004158Y008362D01*
X004088Y008292D01*
X004050Y008200D01*
X004050Y008100D01*
X004088Y008008D01*
X004158Y007938D01*
X004250Y007900D01*
X004350Y007900D01*
X004442Y007938D01*
X004512Y008008D01*
X004550Y008100D01*
X004550Y008174D01*
X004616Y008240D01*
X004710Y008334D01*
X004710Y008756D01*
X004762Y008808D01*
X004800Y008900D01*
X004800Y009000D01*
X004762Y009092D01*
X004692Y009162D01*
X004600Y009200D01*
X004500Y009200D01*
X004408Y009162D01*
X004338Y009092D01*
X004302Y009004D02*
X000380Y009004D01*
X000380Y008906D02*
X004300Y008906D01*
X004339Y008807D02*
X000380Y008807D01*
X000380Y008709D02*
X004390Y008709D01*
X004390Y008610D02*
X000380Y008610D01*
X000380Y008512D02*
X004390Y008512D01*
X004337Y008413D02*
X000380Y008413D01*
X000380Y008315D02*
X004111Y008315D01*
X004057Y008216D02*
X000380Y008216D01*
X000380Y008118D02*
X004050Y008118D01*
X004084Y008019D02*
X000380Y008019D01*
X000380Y007921D02*
X004201Y007921D01*
X004399Y007921D02*
X009101Y007921D01*
X009058Y007938D02*
X009150Y007900D01*
X009224Y007900D01*
X009440Y007684D01*
X009440Y007684D01*
X009534Y007590D01*
X009775Y007590D01*
X009826Y007467D01*
X009967Y007326D01*
X010151Y007250D01*
X010349Y007250D01*
X010533Y007326D01*
X010674Y007467D01*
X010750Y007651D01*
X010750Y007849D01*
X010674Y008033D01*
X010533Y008174D01*
X010349Y008250D01*
X010151Y008250D01*
X009967Y008174D01*
X009826Y008033D01*
X009775Y007910D01*
X009666Y007910D01*
X009450Y008126D01*
X009450Y008200D01*
X009412Y008292D01*
X009342Y008362D01*
X009250Y008400D01*
X009150Y008400D01*
X009058Y008362D01*
X008988Y008292D01*
X008950Y008200D01*
X008950Y008100D01*
X008988Y008008D01*
X009058Y007938D01*
X008984Y008019D02*
X004516Y008019D01*
X004550Y008118D02*
X008950Y008118D01*
X008957Y008216D02*
X004592Y008216D01*
X004691Y008315D02*
X009011Y008315D01*
X009238Y008508D02*
X009308Y008438D01*
X009400Y008400D01*
X009500Y008400D01*
X009592Y008438D01*
X009644Y008490D01*
X010634Y008490D01*
X011201Y007923D01*
X011150Y007799D01*
X011150Y007601D01*
X011226Y007417D01*
X011367Y007276D01*
X011551Y007200D01*
X011749Y007200D01*
X011933Y007276D01*
X012074Y007417D01*
X012150Y007601D01*
X012150Y007774D01*
X012250Y007674D01*
X012250Y007600D01*
X012288Y007508D01*
X012358Y007438D01*
X012450Y007400D01*
X012550Y007400D01*
X012642Y007438D01*
X012712Y007508D01*
X012750Y007600D01*
X012750Y007700D01*
X012712Y007792D01*
X012642Y007862D01*
X012550Y007900D01*
X012476Y007900D01*
X012250Y008126D01*
X012250Y008200D01*
X012212Y008292D01*
X012142Y008362D01*
X012050Y008400D01*
X011950Y008400D01*
X011858Y008362D01*
X011788Y008292D01*
X011750Y008200D01*
X011749Y008200D01*
X011551Y008200D01*
X011427Y008149D01*
X010766Y008810D01*
X009644Y008810D01*
X009592Y008862D01*
X009500Y008900D01*
X009400Y008900D01*
X009308Y008862D01*
X009238Y008792D01*
X009200Y008700D01*
X009200Y008600D01*
X009238Y008508D01*
X009237Y008512D02*
X004710Y008512D01*
X004710Y008610D02*
X009200Y008610D01*
X009204Y008709D02*
X004710Y008709D01*
X004761Y008807D02*
X009253Y008807D01*
X009369Y008413D02*
X004710Y008413D01*
X004800Y008906D02*
X014450Y008906D01*
X014450Y008900D02*
X014488Y008808D01*
X014558Y008738D01*
X014650Y008700D01*
X014724Y008700D01*
X015100Y008324D01*
X015100Y008250D01*
X015138Y008158D01*
X015208Y008088D01*
X015300Y008050D01*
X015400Y008050D01*
X015492Y008088D01*
X015562Y008158D01*
X015600Y008250D01*
X015600Y008350D01*
X015562Y008442D01*
X015492Y008512D01*
X015400Y008550D01*
X015326Y008550D01*
X014950Y008926D01*
X014950Y009000D01*
X014912Y009092D01*
X014842Y009162D01*
X014750Y009200D01*
X014650Y009200D01*
X014558Y009162D01*
X014488Y009092D01*
X014450Y009000D01*
X014450Y008900D01*
X014489Y008807D02*
X010769Y008807D01*
X010868Y008709D02*
X014630Y008709D01*
X014814Y008610D02*
X010966Y008610D01*
X011065Y008512D02*
X014912Y008512D01*
X015011Y008413D02*
X014389Y008413D01*
X014299Y008450D02*
X014101Y008450D01*
X013917Y008374D01*
X013776Y008233D01*
X013700Y008049D01*
X013700Y007851D01*
X013776Y007667D01*
X013917Y007526D01*
X014101Y007450D01*
X014299Y007450D01*
X014483Y007526D01*
X014624Y007667D01*
X014700Y007851D01*
X014700Y008049D01*
X014624Y008233D01*
X014483Y008374D01*
X014299Y008450D01*
X014543Y008315D02*
X015100Y008315D01*
X015114Y008216D02*
X014631Y008216D01*
X014672Y008118D02*
X015179Y008118D01*
X015521Y008118D02*
X016307Y008118D01*
X016300Y008099D02*
X016300Y007901D01*
X016376Y007717D01*
X016517Y007576D01*
X016701Y007500D01*
X016899Y007500D01*
X017083Y007576D01*
X017224Y007717D01*
X017300Y007901D01*
X017300Y008099D01*
X017224Y008283D01*
X017083Y008424D01*
X016899Y008500D01*
X016701Y008500D01*
X016517Y008424D01*
X016376Y008283D01*
X016300Y008099D01*
X016300Y008019D02*
X014700Y008019D01*
X014700Y007921D02*
X016300Y007921D01*
X016333Y007822D02*
X014688Y007822D01*
X014647Y007724D02*
X016373Y007724D01*
X016468Y007625D02*
X014582Y007625D01*
X014484Y007527D02*
X016637Y007527D01*
X016542Y007462D02*
X016612Y007392D01*
X016650Y007300D01*
X016650Y007226D01*
X016926Y006950D01*
X017000Y006950D01*
X017092Y006912D01*
X017162Y006842D01*
X017200Y006750D01*
X017200Y006650D01*
X017162Y006558D01*
X017092Y006488D01*
X017000Y006450D01*
X016900Y006450D01*
X016808Y006488D01*
X016738Y006558D01*
X016700Y006650D01*
X016700Y006724D01*
X016424Y007000D01*
X016350Y007000D01*
X016258Y007038D01*
X016188Y007108D01*
X016150Y007200D01*
X016150Y007300D01*
X016188Y007392D01*
X016258Y007462D01*
X016350Y007500D01*
X016450Y007500D01*
X016542Y007462D01*
X016576Y007428D02*
X021020Y007428D01*
X021020Y007330D02*
X016638Y007330D01*
X016650Y007231D02*
X021020Y007231D01*
X021020Y007133D02*
X016744Y007133D01*
X016842Y007034D02*
X021020Y007034D01*
X021020Y006936D02*
X017035Y006936D01*
X017164Y006837D02*
X021020Y006837D01*
X021020Y006739D02*
X017200Y006739D01*
X017196Y006640D02*
X021020Y006640D01*
X021020Y006542D02*
X017145Y006542D01*
X016755Y006542D02*
X014626Y006542D01*
X014612Y006508D02*
X014650Y006600D01*
X014650Y006700D01*
X014612Y006792D01*
X014542Y006862D01*
X014450Y006900D01*
X014376Y006900D01*
X014300Y006976D01*
X014300Y007050D01*
X014262Y007142D01*
X014192Y007212D01*
X014100Y007250D01*
X014000Y007250D01*
X013908Y007212D01*
X013838Y007142D01*
X013800Y007050D01*
X013800Y007000D01*
X013750Y007000D01*
X013672Y006968D01*
X013662Y006992D01*
X013592Y007062D01*
X013500Y007100D01*
X013426Y007100D01*
X013250Y007276D01*
X013250Y007350D01*
X013212Y007442D01*
X013142Y007512D01*
X013050Y007550D01*
X012950Y007550D01*
X012858Y007512D01*
X012788Y007442D01*
X012750Y007350D01*
X012750Y007250D01*
X012788Y007158D01*
X012858Y007088D01*
X012950Y007050D01*
X013024Y007050D01*
X013200Y006874D01*
X013200Y006800D01*
X013238Y006708D01*
X013308Y006638D01*
X013400Y006600D01*
X013500Y006600D01*
X013578Y006632D01*
X013588Y006608D01*
X013658Y006538D01*
X013750Y006500D01*
X013824Y006500D01*
X013900Y006424D01*
X013900Y006350D01*
X013938Y006258D01*
X014008Y006188D01*
X014100Y006150D01*
X014200Y006150D01*
X014292Y006188D01*
X014362Y006258D01*
X014400Y006350D01*
X014400Y006400D01*
X014450Y006400D01*
X014542Y006438D01*
X014612Y006508D01*
X014547Y006443D02*
X021020Y006443D01*
X021020Y006345D02*
X014398Y006345D01*
X014350Y006246D02*
X021020Y006246D01*
X021020Y006148D02*
X013956Y006148D01*
X013962Y006142D02*
X013892Y006212D01*
X013800Y006250D01*
X013726Y006250D01*
X013650Y006326D01*
X013650Y006400D01*
X013612Y006492D01*
X013542Y006562D01*
X013450Y006600D01*
X013350Y006600D01*
X013258Y006562D01*
X013188Y006492D01*
X013175Y006460D01*
X013162Y006492D01*
X013092Y006562D01*
X013000Y006600D01*
X012926Y006600D01*
X012750Y006776D01*
X012750Y006850D01*
X012712Y006942D01*
X012642Y007012D01*
X012550Y007050D01*
X012450Y007050D01*
X012358Y007012D01*
X012288Y006942D01*
X012250Y006850D01*
X012250Y006750D01*
X012288Y006658D01*
X012358Y006588D01*
X012450Y006550D01*
X012524Y006550D01*
X012700Y006374D01*
X012700Y006300D01*
X012738Y006208D01*
X012808Y006138D01*
X012900Y006100D01*
X013000Y006100D01*
X013092Y006138D01*
X013162Y006208D01*
X013175Y006240D01*
X013188Y006208D01*
X013258Y006138D01*
X013350Y006100D01*
X013424Y006100D01*
X013500Y006024D01*
X013500Y005950D01*
X013538Y005858D01*
X013608Y005788D01*
X013700Y005750D01*
X013800Y005750D01*
X013892Y005788D01*
X013962Y005858D01*
X014000Y005950D01*
X014000Y006050D01*
X013962Y006142D01*
X014000Y006049D02*
X021020Y006049D01*
X021020Y005951D02*
X014000Y005951D01*
X013956Y005852D02*
X021020Y005852D01*
X021020Y005754D02*
X013808Y005754D01*
X013692Y005754D02*
X011073Y005754D01*
X010974Y005852D02*
X013544Y005852D01*
X013500Y005951D02*
X010900Y005951D01*
X010900Y005926D02*
X011576Y005250D01*
X011650Y005250D01*
X011742Y005212D01*
X011812Y005142D01*
X011850Y005050D01*
X011850Y004950D01*
X011812Y004858D01*
X011742Y004788D01*
X011650Y004750D01*
X011550Y004750D01*
X011458Y004788D01*
X011388Y004858D01*
X011350Y004950D01*
X011350Y005024D01*
X010674Y005700D01*
X010600Y005700D01*
X010508Y005738D01*
X010438Y005808D01*
X010400Y005900D01*
X010400Y006000D01*
X010438Y006092D01*
X010508Y006162D01*
X010600Y006200D01*
X010700Y006200D01*
X010792Y006162D01*
X010862Y006092D01*
X010900Y006000D01*
X010900Y005926D01*
X010880Y006049D02*
X013475Y006049D01*
X013249Y006148D02*
X013101Y006148D01*
X012799Y006148D02*
X010806Y006148D01*
X010494Y006148D02*
X010105Y006148D01*
X010124Y006167D02*
X010200Y006351D01*
X010200Y006549D01*
X010124Y006733D01*
X009983Y006874D01*
X009799Y006950D01*
X009601Y006950D01*
X009417Y006874D01*
X009276Y006733D01*
X009200Y006549D01*
X009200Y006351D01*
X009276Y006167D01*
X009417Y006026D01*
X009601Y005950D01*
X009799Y005950D01*
X009983Y006026D01*
X010124Y006167D01*
X010157Y006246D02*
X012722Y006246D01*
X012700Y006345D02*
X010197Y006345D01*
X010200Y006443D02*
X012631Y006443D01*
X012532Y006542D02*
X010200Y006542D01*
X010162Y006640D02*
X012306Y006640D01*
X012255Y006739D02*
X010119Y006739D01*
X010020Y006837D02*
X012250Y006837D01*
X012286Y006936D02*
X009834Y006936D01*
X009566Y006936D02*
X000380Y006936D01*
X000380Y007034D02*
X012412Y007034D01*
X012588Y007034D02*
X013040Y007034D01*
X013138Y006936D02*
X012714Y006936D01*
X012750Y006837D02*
X013200Y006837D01*
X013226Y006739D02*
X012788Y006739D01*
X012886Y006640D02*
X013306Y006640D01*
X013238Y006542D02*
X013112Y006542D01*
X013562Y006542D02*
X013655Y006542D01*
X013632Y006443D02*
X013881Y006443D01*
X013902Y006345D02*
X013650Y006345D01*
X013809Y006246D02*
X013950Y006246D01*
X014341Y006936D02*
X016488Y006936D01*
X016587Y006837D02*
X014567Y006837D01*
X014634Y006739D02*
X016685Y006739D01*
X016704Y006640D02*
X014650Y006640D01*
X014300Y007034D02*
X016268Y007034D01*
X016178Y007133D02*
X014266Y007133D01*
X014146Y007231D02*
X016150Y007231D01*
X016162Y007330D02*
X013250Y007330D01*
X013218Y007428D02*
X016224Y007428D01*
X016963Y007527D02*
X021020Y007527D01*
X021020Y007625D02*
X017132Y007625D01*
X017227Y007724D02*
X021020Y007724D01*
X021020Y007822D02*
X017267Y007822D01*
X017300Y007921D02*
X021020Y007921D01*
X021020Y008019D02*
X017300Y008019D01*
X017293Y008118D02*
X021020Y008118D01*
X021020Y008216D02*
X017252Y008216D01*
X017193Y008315D02*
X021020Y008315D01*
X021020Y008413D02*
X017094Y008413D01*
X017000Y008618D02*
X017073Y008655D01*
X017139Y008703D01*
X017197Y008761D01*
X017245Y008827D01*
X017282Y008900D01*
X017307Y008978D01*
X017319Y009050D01*
X016850Y009050D01*
X016850Y009150D01*
X016750Y009150D01*
X016750Y009619D01*
X016678Y009607D01*
X016600Y009582D01*
X016527Y009545D01*
X016461Y009497D01*
X016403Y009439D01*
X016355Y009373D01*
X016318Y009300D01*
X016293Y009222D01*
X016281Y009150D01*
X016750Y009150D01*
X016750Y009050D01*
X016281Y009050D01*
X016293Y008978D01*
X016318Y008900D01*
X016355Y008827D01*
X016403Y008761D01*
X016461Y008703D01*
X016527Y008655D01*
X016600Y008618D01*
X016678Y008593D01*
X016750Y008581D01*
X016750Y009050D01*
X016850Y009050D01*
X016850Y008581D01*
X016922Y008593D01*
X017000Y008618D01*
X016975Y008610D02*
X021020Y008610D01*
X021020Y008512D02*
X015492Y008512D01*
X015574Y008413D02*
X016506Y008413D01*
X016407Y008315D02*
X015600Y008315D01*
X015586Y008216D02*
X016348Y008216D01*
X016625Y008610D02*
X015266Y008610D01*
X015168Y008709D02*
X016456Y008709D01*
X016370Y008807D02*
X015069Y008807D01*
X014971Y008906D02*
X016316Y008906D01*
X016289Y009004D02*
X014948Y009004D01*
X014901Y009103D02*
X016750Y009103D01*
X016750Y009201D02*
X016850Y009201D01*
X016850Y009150D02*
X016850Y009619D01*
X016922Y009607D01*
X017000Y009582D01*
X017073Y009545D01*
X017139Y009497D01*
X017197Y009439D01*
X017245Y009373D01*
X017282Y009300D01*
X017307Y009222D01*
X017319Y009150D01*
X016850Y009150D01*
X016850Y009103D02*
X021020Y009103D01*
X021020Y009201D02*
X017310Y009201D01*
X017282Y009300D02*
X021020Y009300D01*
X021020Y009398D02*
X017226Y009398D01*
X017139Y009497D02*
X021020Y009497D01*
X021020Y009595D02*
X016959Y009595D01*
X016850Y009595D02*
X016750Y009595D01*
X016750Y009497D02*
X016850Y009497D01*
X016850Y009398D02*
X016750Y009398D01*
X016750Y009300D02*
X016850Y009300D01*
X016641Y009595D02*
X012471Y009595D01*
X012373Y009497D02*
X016461Y009497D01*
X016374Y009398D02*
X012274Y009398D01*
X012250Y009300D02*
X016318Y009300D01*
X016290Y009201D02*
X012205Y009201D01*
X012056Y009103D02*
X014499Y009103D01*
X014452Y009004D02*
X004798Y009004D01*
X004751Y009103D02*
X011944Y009103D01*
X012570Y009694D02*
X021020Y009694D01*
X021020Y009792D02*
X012796Y009792D01*
X012846Y009891D02*
X021020Y009891D01*
X021020Y009989D02*
X012850Y009989D01*
X012814Y010088D02*
X019384Y010088D01*
X019967Y010088D02*
X021020Y010088D01*
X021020Y010186D02*
X020341Y010186D01*
X020511Y010285D02*
X021020Y010285D01*
X021020Y010383D02*
X020682Y010383D01*
X020795Y010482D02*
X021020Y010482D01*
X021020Y010580D02*
X020887Y010580D01*
X020978Y010679D02*
X021020Y010679D01*
X021020Y009004D02*
X017311Y009004D01*
X017284Y008906D02*
X021020Y008906D01*
X021020Y008807D02*
X017230Y008807D01*
X017144Y008709D02*
X021020Y008709D01*
X021020Y005655D02*
X011171Y005655D01*
X011270Y005557D02*
X021020Y005557D01*
X021020Y005458D02*
X011368Y005458D01*
X011467Y005360D02*
X021020Y005360D01*
X021020Y005261D02*
X011565Y005261D01*
X011791Y005163D02*
X012809Y005163D01*
X012788Y005142D02*
X012858Y005212D01*
X012950Y005250D01*
X013050Y005250D01*
X013142Y005212D01*
X013194Y005160D01*
X013306Y005160D01*
X013358Y005212D01*
X013450Y005250D01*
X013550Y005250D01*
X013642Y005212D01*
X013712Y005142D01*
X013750Y005050D01*
X013750Y004950D01*
X013712Y004858D01*
X013642Y004788D01*
X013550Y004750D01*
X013450Y004750D01*
X013358Y004788D01*
X013306Y004840D01*
X013194Y004840D01*
X013142Y004788D01*
X013050Y004750D01*
X012950Y004750D01*
X012858Y004788D01*
X012788Y004858D01*
X012750Y004950D01*
X012750Y005050D01*
X012788Y005142D01*
X012756Y005064D02*
X011844Y005064D01*
X011850Y004966D02*
X012750Y004966D01*
X012784Y004867D02*
X011816Y004867D01*
X011694Y004769D02*
X012906Y004769D01*
X013094Y004769D02*
X013406Y004769D01*
X013594Y004769D02*
X021020Y004769D01*
X021020Y004867D02*
X013716Y004867D01*
X013750Y004966D02*
X021020Y004966D01*
X021020Y005064D02*
X013744Y005064D01*
X013691Y005163D02*
X021020Y005163D01*
X021020Y004670D02*
X010091Y004670D01*
X010100Y004649D02*
X010024Y004833D01*
X009883Y004974D01*
X009811Y005004D01*
X009924Y005117D01*
X010000Y005301D01*
X010000Y005499D01*
X009924Y005683D01*
X009783Y005824D01*
X009599Y005900D01*
X009401Y005900D01*
X009217Y005824D01*
X009076Y005683D01*
X009000Y005499D01*
X009000Y005301D01*
X009076Y005117D01*
X009217Y004976D01*
X009289Y004946D01*
X009176Y004833D01*
X009100Y004649D01*
X009100Y004451D01*
X009176Y004267D01*
X009317Y004126D01*
X009501Y004050D01*
X009699Y004050D01*
X009883Y004126D01*
X010024Y004267D01*
X010100Y004451D01*
X010100Y004649D01*
X010100Y004572D02*
X021020Y004572D01*
X021020Y004473D02*
X010100Y004473D01*
X010069Y004375D02*
X021020Y004375D01*
X021020Y004276D02*
X010028Y004276D01*
X009935Y004178D02*
X021020Y004178D01*
X021020Y004079D02*
X009769Y004079D01*
X009431Y004079D02*
X000380Y004079D01*
X000380Y003981D02*
X021020Y003981D01*
X021020Y003882D02*
X000380Y003882D01*
X000380Y003784D02*
X021020Y003784D01*
X021020Y003685D02*
X000380Y003685D01*
X000380Y003587D02*
X021020Y003587D01*
X021020Y003488D02*
X000380Y003488D01*
X000380Y003390D02*
X021020Y003390D01*
X021020Y003291D02*
X020062Y003291D01*
X020378Y003193D02*
X021020Y003193D01*
X021020Y003094D02*
X020549Y003094D01*
X020719Y002996D02*
X021020Y002996D01*
X021020Y002897D02*
X020815Y002897D01*
X020906Y002799D02*
X021020Y002799D01*
X021020Y002700D02*
X020998Y002700D01*
X019288Y003291D02*
X002062Y003291D01*
X002378Y003193D02*
X019037Y003193D01*
X018831Y003094D02*
X002549Y003094D01*
X002719Y002996D02*
X018708Y002996D01*
X018584Y002897D02*
X002815Y002897D01*
X002906Y002799D02*
X018474Y002799D01*
X018407Y002700D02*
X002998Y002700D01*
X003077Y002601D02*
X018340Y002601D01*
X018273Y002503D02*
X003124Y002503D01*
X003172Y002404D02*
X018210Y002404D01*
X018180Y002306D02*
X003219Y002306D01*
X003267Y002207D02*
X018149Y002207D01*
X018119Y002109D02*
X003288Y002109D01*
X003303Y002010D02*
X018088Y002010D01*
X018068Y001912D02*
X003318Y001912D01*
X003333Y001813D02*
X018068Y001813D01*
X018068Y001715D02*
X003348Y001715D01*
X003337Y001616D02*
X018068Y001616D01*
X018068Y001518D02*
X003323Y001518D01*
X003308Y001419D02*
X018079Y001419D01*
X018109Y001321D02*
X003293Y001321D01*
X003278Y001222D02*
X018140Y001222D01*
X018170Y001124D02*
X003234Y001124D01*
X003186Y001025D02*
X018201Y001025D01*
X018252Y000927D02*
X003139Y000927D01*
X003091Y000828D02*
X018319Y000828D01*
X018387Y000730D02*
X003026Y000730D01*
X002934Y000631D02*
X018454Y000631D01*
X018547Y000533D02*
X002843Y000533D01*
X002752Y000434D02*
X018670Y000434D01*
X013309Y005163D02*
X013191Y005163D01*
X011506Y004769D02*
X010051Y004769D01*
X009990Y004867D02*
X011384Y004867D01*
X011350Y004966D02*
X009892Y004966D01*
X009871Y005064D02*
X011310Y005064D01*
X011211Y005163D02*
X009943Y005163D01*
X009984Y005261D02*
X011113Y005261D01*
X011014Y005360D02*
X010000Y005360D01*
X010000Y005458D02*
X010916Y005458D01*
X010817Y005557D02*
X009976Y005557D01*
X009936Y005655D02*
X010719Y005655D01*
X010493Y005754D02*
X009854Y005754D01*
X009715Y005852D02*
X010420Y005852D01*
X010400Y005951D02*
X009801Y005951D01*
X009599Y005951D02*
X000380Y005951D01*
X000380Y006049D02*
X009394Y006049D01*
X009295Y006148D02*
X000380Y006148D01*
X000380Y006246D02*
X009243Y006246D01*
X009202Y006345D02*
X000380Y006345D01*
X000380Y006443D02*
X009200Y006443D01*
X009200Y006542D02*
X000380Y006542D01*
X000380Y006640D02*
X009238Y006640D01*
X009281Y006739D02*
X000380Y006739D01*
X000380Y006837D02*
X009380Y006837D01*
X009963Y007330D02*
X000380Y007330D01*
X000380Y007428D02*
X009865Y007428D01*
X009801Y007527D02*
X000380Y007527D01*
X000380Y007625D02*
X009499Y007625D01*
X009400Y007724D02*
X000380Y007724D01*
X000380Y007822D02*
X009302Y007822D01*
X009557Y008019D02*
X009820Y008019D01*
X009779Y007921D02*
X009656Y007921D01*
X009459Y008118D02*
X009910Y008118D01*
X010068Y008216D02*
X009443Y008216D01*
X009389Y008315D02*
X010809Y008315D01*
X010711Y008413D02*
X009531Y008413D01*
X010432Y008216D02*
X010908Y008216D01*
X011006Y008118D02*
X010590Y008118D01*
X010680Y008019D02*
X011105Y008019D01*
X011200Y007921D02*
X010721Y007921D01*
X010750Y007822D02*
X011159Y007822D01*
X011150Y007724D02*
X010750Y007724D01*
X010739Y007625D02*
X011150Y007625D01*
X011181Y007527D02*
X010699Y007527D01*
X010635Y007428D02*
X011221Y007428D01*
X011313Y007330D02*
X010537Y007330D01*
X011360Y008216D02*
X011757Y008216D01*
X011811Y008315D02*
X011262Y008315D01*
X011163Y008413D02*
X014011Y008413D01*
X013857Y008315D02*
X012189Y008315D01*
X012243Y008216D02*
X013769Y008216D01*
X013728Y008118D02*
X012259Y008118D01*
X012357Y008019D02*
X013700Y008019D01*
X013700Y007921D02*
X012456Y007921D01*
X012682Y007822D02*
X013712Y007822D01*
X013753Y007724D02*
X012740Y007724D01*
X012750Y007625D02*
X013818Y007625D01*
X013916Y007527D02*
X013106Y007527D01*
X012894Y007527D02*
X012719Y007527D01*
X012782Y007428D02*
X012617Y007428D01*
X012750Y007330D02*
X011987Y007330D01*
X012079Y007428D02*
X012383Y007428D01*
X012281Y007527D02*
X012119Y007527D01*
X012150Y007625D02*
X012250Y007625D01*
X012200Y007724D02*
X012150Y007724D01*
X011824Y007231D02*
X012758Y007231D01*
X012814Y007133D02*
X000380Y007133D01*
X000380Y007231D02*
X011476Y007231D01*
X010420Y006049D02*
X010006Y006049D01*
X009285Y005852D02*
X000380Y005852D01*
X000380Y005754D02*
X009146Y005754D01*
X009064Y005655D02*
X000380Y005655D01*
X000380Y005557D02*
X009024Y005557D01*
X009000Y005458D02*
X000380Y005458D01*
X000380Y005360D02*
X009000Y005360D01*
X009016Y005261D02*
X000380Y005261D01*
X000380Y005163D02*
X009057Y005163D01*
X009129Y005064D02*
X000380Y005064D01*
X000380Y004966D02*
X009242Y004966D01*
X009210Y004867D02*
X000380Y004867D01*
X000380Y004769D02*
X009149Y004769D01*
X009109Y004670D02*
X000380Y004670D01*
X000380Y004572D02*
X009100Y004572D01*
X009100Y004473D02*
X000380Y004473D01*
X000380Y004375D02*
X009131Y004375D01*
X009172Y004276D02*
X000380Y004276D01*
X000380Y004178D02*
X009265Y004178D01*
X013295Y007231D02*
X013954Y007231D01*
X013834Y007133D02*
X013394Y007133D01*
X013620Y007034D02*
X013800Y007034D01*
X016750Y008610D02*
X016850Y008610D01*
X016850Y008709D02*
X016750Y008709D01*
X016750Y008807D02*
X016850Y008807D01*
X016850Y008906D02*
X016750Y008906D01*
X016750Y009004D02*
X016850Y009004D01*
X016650Y010482D02*
X016550Y010482D01*
X016550Y010580D02*
X016650Y010580D01*
X016650Y010679D02*
X016550Y010679D01*
X016550Y010777D02*
X016650Y010777D01*
X015323Y011368D02*
X014577Y011368D01*
X014499Y011400D02*
X014301Y011400D01*
X014117Y011324D01*
X013976Y011183D01*
X013900Y010999D01*
X013900Y010801D01*
X013976Y010617D01*
X014117Y010476D01*
X014301Y010400D01*
X014499Y010400D01*
X014683Y010476D01*
X014824Y010617D01*
X014900Y010801D01*
X014900Y010999D01*
X014824Y011183D01*
X014683Y011324D01*
X014499Y011400D01*
X014738Y011270D02*
X015162Y011270D01*
X015071Y011171D02*
X014829Y011171D01*
X014870Y011073D02*
X015030Y011073D01*
X015000Y010974D02*
X014900Y010974D01*
X014900Y010876D02*
X015000Y010876D01*
X015010Y010777D02*
X014890Y010777D01*
X014849Y010679D02*
X015051Y010679D01*
X015113Y010580D02*
X014787Y010580D01*
X014689Y010482D02*
X015211Y010482D01*
X014111Y010482D02*
X008739Y010482D01*
X008837Y010580D02*
X014013Y010580D01*
X013951Y010679D02*
X008899Y010679D01*
X008940Y010777D02*
X013910Y010777D01*
X013900Y010876D02*
X008950Y010876D01*
X008950Y010974D02*
X013900Y010974D01*
X013930Y011073D02*
X010276Y011073D01*
X010338Y011171D02*
X013971Y011171D01*
X014062Y011270D02*
X010350Y011270D01*
X010322Y011368D02*
X014223Y011368D01*
X014284Y013330D02*
X014116Y013330D01*
X013962Y013394D01*
X013844Y013512D01*
X013780Y013666D01*
X013780Y013834D01*
X013844Y013988D01*
X013962Y014106D01*
X014116Y014170D01*
X014284Y014170D01*
X014438Y014106D01*
X014556Y013988D01*
X014620Y013834D01*
X014620Y013666D01*
X014556Y013512D01*
X014438Y013394D01*
X014284Y013330D01*
X014303Y013338D02*
X015097Y013338D01*
X014920Y013437D02*
X014480Y013437D01*
X014566Y013535D02*
X014834Y013535D01*
X014794Y013634D02*
X014606Y013634D01*
X014620Y013732D02*
X014780Y013732D01*
X014780Y013831D02*
X014620Y013831D01*
X014580Y013929D02*
X014820Y013929D01*
X014884Y014028D02*
X014516Y014028D01*
X014390Y014126D02*
X015010Y014126D01*
X015390Y014126D02*
X016010Y014126D01*
X015884Y014028D02*
X015516Y014028D01*
X015580Y013929D02*
X015820Y013929D01*
X015780Y013831D02*
X015620Y013831D01*
X015620Y013732D02*
X015780Y013732D01*
X015794Y013634D02*
X015606Y013634D01*
X015566Y013535D02*
X015834Y013535D01*
X016303Y013338D02*
X017097Y013338D01*
X017116Y013330D02*
X017284Y013330D01*
X017438Y013394D01*
X017556Y013512D01*
X017620Y013666D01*
X017620Y013834D01*
X017556Y013988D01*
X017438Y014106D01*
X017284Y014170D01*
X017116Y014170D01*
X016962Y014106D01*
X016844Y013988D01*
X016780Y013834D01*
X016780Y013666D01*
X016844Y013512D01*
X016962Y013394D01*
X017116Y013330D01*
X017303Y013338D02*
X019725Y013338D01*
X019856Y013338D02*
X021020Y013338D01*
X021020Y013240D02*
X020287Y013240D01*
X020467Y013141D02*
X021020Y013141D01*
X021020Y013043D02*
X020638Y013043D01*
X020771Y012944D02*
X021020Y012944D01*
X021020Y012846D02*
X020863Y012846D01*
X020954Y012747D02*
X021020Y012747D01*
X021020Y013437D02*
X017480Y013437D01*
X017566Y013535D02*
X021020Y013535D01*
X021020Y013634D02*
X017606Y013634D01*
X017620Y013732D02*
X021020Y013732D01*
X021020Y013831D02*
X017620Y013831D01*
X017580Y013929D02*
X021020Y013929D01*
X021020Y014028D02*
X017516Y014028D01*
X017390Y014126D02*
X021020Y014126D01*
X021020Y014225D02*
X016559Y014225D01*
X016592Y014238D02*
X016662Y014308D01*
X016700Y014400D01*
X016700Y014474D01*
X016776Y014550D01*
X016850Y014550D01*
X016942Y014588D01*
X017012Y014658D01*
X017050Y014750D01*
X017050Y014850D01*
X017012Y014942D01*
X016942Y015012D01*
X016850Y015050D01*
X016750Y015050D01*
X016658Y015012D01*
X016588Y014942D01*
X016550Y014850D01*
X016550Y014776D01*
X016474Y014700D01*
X016400Y014700D01*
X016308Y014662D01*
X016238Y014592D01*
X016200Y014500D01*
X016200Y014400D01*
X016238Y014308D01*
X016308Y014238D01*
X016400Y014200D01*
X016500Y014200D01*
X016592Y014238D01*
X016668Y014323D02*
X021020Y014323D01*
X021020Y014422D02*
X016700Y014422D01*
X016746Y014520D02*
X021020Y014520D01*
X021020Y014619D02*
X016972Y014619D01*
X017036Y014717D02*
X021020Y014717D01*
X021020Y014816D02*
X017050Y014816D01*
X017023Y014914D02*
X021020Y014914D01*
X021020Y015013D02*
X016940Y015013D01*
X016660Y015013D02*
X000380Y015013D01*
X000380Y015111D02*
X021020Y015111D01*
X021020Y015210D02*
X000380Y015210D01*
X000380Y015308D02*
X021020Y015308D01*
X021020Y015407D02*
X000380Y015407D01*
X000380Y015505D02*
X021020Y015505D01*
X021020Y015604D02*
X000380Y015604D01*
X000380Y015702D02*
X021020Y015702D01*
X021020Y015801D02*
X000380Y015801D01*
X000380Y015899D02*
X021020Y015899D01*
X021020Y015998D02*
X000380Y015998D01*
X000380Y016096D02*
X021020Y016096D01*
X021020Y016195D02*
X000380Y016195D01*
X000380Y016293D02*
X008203Y016293D01*
X008188Y016308D02*
X008258Y016238D01*
X008350Y016200D01*
X008450Y016200D01*
X008542Y016238D01*
X008612Y016308D01*
X008650Y016400D01*
X008650Y016474D01*
X009026Y016850D01*
X009100Y016850D01*
X009192Y016888D01*
X009262Y016958D01*
X009300Y017050D01*
X009300Y017150D01*
X009262Y017242D01*
X009192Y017312D01*
X009100Y017350D01*
X009000Y017350D01*
X008908Y017312D01*
X008838Y017242D01*
X008800Y017150D01*
X008800Y017076D01*
X008424Y016700D01*
X008350Y016700D01*
X008258Y016662D01*
X008188Y016592D01*
X008150Y016500D01*
X008150Y016400D01*
X008188Y016308D01*
X008154Y016392D02*
X000380Y016392D01*
X000380Y016490D02*
X008150Y016490D01*
X008187Y016589D02*
X000380Y016589D01*
X000380Y016687D02*
X008319Y016687D01*
X008509Y016786D02*
X000380Y016786D01*
X000380Y016884D02*
X008608Y016884D01*
X008706Y016983D02*
X000380Y016983D01*
X000380Y017081D02*
X001471Y017081D01*
X001108Y017180D02*
X000380Y017180D01*
X000380Y017278D02*
X000866Y017278D01*
X000743Y017377D02*
X000380Y017377D01*
X000380Y017475D02*
X000619Y017475D01*
X000496Y017574D02*
X000380Y017574D01*
X000380Y017672D02*
X000426Y017672D01*
X001939Y017081D02*
X008800Y017081D01*
X008812Y017180D02*
X002330Y017180D01*
X002500Y017278D02*
X008874Y017278D01*
X009226Y017278D02*
X018866Y017278D01*
X018743Y017377D02*
X002671Y017377D01*
X002789Y017475D02*
X018619Y017475D01*
X018496Y017574D02*
X012557Y017574D01*
X012668Y017672D02*
X018426Y017672D01*
X018359Y017771D02*
X012700Y017771D01*
X012692Y017869D02*
X018292Y017869D01*
X018225Y017968D02*
X012636Y017968D01*
X012410Y018066D02*
X018188Y018066D01*
X018158Y018165D02*
X012312Y018165D01*
X012213Y018263D02*
X018127Y018263D01*
X018097Y018362D02*
X012195Y018362D01*
X012144Y018460D02*
X018068Y018460D01*
X018068Y018559D02*
X010950Y018559D01*
X010933Y018460D02*
X011756Y018460D01*
X011705Y018362D02*
X010865Y018362D01*
X011033Y018657D02*
X018068Y018657D01*
X018068Y018756D02*
X011132Y018756D01*
X011230Y018854D02*
X018068Y018854D01*
X018070Y018953D02*
X011329Y018953D01*
X011360Y019051D02*
X018101Y019051D01*
X018131Y019150D02*
X011360Y019150D01*
X011360Y019248D02*
X018162Y019248D01*
X018192Y019347D02*
X017323Y019347D01*
X017489Y019445D02*
X018233Y019445D01*
X018300Y019544D02*
X017569Y019544D01*
X017610Y019642D02*
X018368Y019642D01*
X018435Y019741D02*
X017620Y019741D01*
X017618Y019839D02*
X018511Y019839D01*
X018635Y019938D02*
X017577Y019938D01*
X017077Y019347D02*
X016323Y019347D01*
X016489Y019445D02*
X016911Y019445D01*
X016831Y019544D02*
X016569Y019544D01*
X016610Y019642D02*
X016790Y019642D01*
X016780Y019741D02*
X016620Y019741D01*
X016618Y019839D02*
X016782Y019839D01*
X016823Y019938D02*
X016577Y019938D01*
X015823Y019938D02*
X015577Y019938D01*
X015618Y019839D02*
X015782Y019839D01*
X015780Y019741D02*
X015620Y019741D01*
X015610Y019642D02*
X015790Y019642D01*
X015831Y019544D02*
X015569Y019544D01*
X015489Y019445D02*
X015911Y019445D01*
X016077Y019347D02*
X015323Y019347D01*
X015077Y019347D02*
X014323Y019347D01*
X014489Y019445D02*
X014911Y019445D01*
X014831Y019544D02*
X014569Y019544D01*
X014610Y019642D02*
X014790Y019642D01*
X014780Y019741D02*
X014620Y019741D01*
X014618Y019839D02*
X014782Y019839D01*
X014823Y019938D02*
X014577Y019938D01*
X014077Y019347D02*
X013323Y019347D01*
X013489Y019445D02*
X013911Y019445D01*
X013831Y019544D02*
X013569Y019544D01*
X013610Y019642D02*
X013790Y019642D01*
X013780Y019741D02*
X013620Y019741D01*
X013618Y019839D02*
X013782Y019839D01*
X013823Y019938D02*
X013577Y019938D01*
X012823Y019938D02*
X012577Y019938D01*
X012618Y019839D02*
X012782Y019839D01*
X012780Y019741D02*
X012620Y019741D01*
X012610Y019642D02*
X012790Y019642D01*
X012831Y019544D02*
X012569Y019544D01*
X012489Y019445D02*
X012911Y019445D01*
X013077Y019347D02*
X012323Y019347D01*
X012077Y019347D02*
X011360Y019347D01*
X011489Y019445D02*
X011911Y019445D01*
X011831Y019544D02*
X011569Y019544D01*
X011610Y019642D02*
X011790Y019642D01*
X011780Y019741D02*
X011620Y019741D01*
X011618Y019839D02*
X011782Y019839D01*
X011823Y019938D02*
X011577Y019938D01*
X010823Y019938D02*
X010577Y019938D01*
X010618Y019839D02*
X010782Y019839D01*
X010780Y019741D02*
X010620Y019741D01*
X010610Y019642D02*
X010790Y019642D01*
X010831Y019544D02*
X010569Y019544D01*
X010489Y019445D02*
X010911Y019445D01*
X011040Y019347D02*
X010360Y019347D01*
X010360Y019248D02*
X011040Y019248D01*
X011040Y019150D02*
X010360Y019150D01*
X010360Y019051D02*
X010975Y019051D01*
X010876Y018953D02*
X010360Y018953D01*
X010360Y018854D02*
X010778Y018854D01*
X010552Y018756D02*
X010377Y018756D01*
X010400Y018657D02*
X010474Y018657D01*
X010450Y018559D02*
X010383Y018559D01*
X010314Y018460D02*
X010467Y018460D01*
X010535Y018362D02*
X003299Y018362D01*
X003314Y018460D02*
X009986Y018460D01*
X009917Y018559D02*
X003329Y018559D01*
X003344Y018657D02*
X009189Y018657D01*
X009208Y018638D02*
X009300Y018600D01*
X009400Y018600D01*
X009492Y018638D01*
X009562Y018708D01*
X009600Y018800D01*
X009600Y018874D01*
X009676Y018950D01*
X009750Y018950D01*
X009842Y018988D01*
X009912Y019058D01*
X009950Y019150D01*
X009950Y019250D01*
X009912Y019342D01*
X009842Y019412D01*
X009750Y019450D01*
X009650Y019450D01*
X009558Y019412D01*
X009488Y019342D01*
X009450Y019250D01*
X009450Y019176D01*
X009374Y019100D01*
X009300Y019100D01*
X009208Y019062D01*
X009138Y018992D01*
X009100Y018900D01*
X009100Y018800D01*
X009138Y018708D01*
X009208Y018638D01*
X009119Y018756D02*
X003342Y018756D01*
X003327Y018854D02*
X009100Y018854D01*
X009122Y018953D02*
X003312Y018953D01*
X003297Y019051D02*
X009197Y019051D01*
X009423Y019150D02*
X003282Y019150D01*
X003247Y019248D02*
X009450Y019248D01*
X009493Y019347D02*
X009323Y019347D01*
X009489Y019445D02*
X009638Y019445D01*
X009569Y019544D02*
X009831Y019544D01*
X009790Y019642D02*
X009610Y019642D01*
X009620Y019741D02*
X009780Y019741D01*
X009782Y019839D02*
X009618Y019839D01*
X009577Y019938D02*
X009823Y019938D01*
X009762Y019445D02*
X009911Y019445D01*
X009907Y019347D02*
X010040Y019347D01*
X010040Y019248D02*
X009950Y019248D01*
X009950Y019150D02*
X010040Y019150D01*
X010040Y019051D02*
X009905Y019051D01*
X010040Y018953D02*
X009756Y018953D01*
X009600Y018854D02*
X010000Y018854D01*
X009923Y018756D02*
X009581Y018756D01*
X009511Y018657D02*
X009900Y018657D01*
X009077Y019347D02*
X008323Y019347D01*
X008489Y019445D02*
X008911Y019445D01*
X008831Y019544D02*
X008569Y019544D01*
X008610Y019642D02*
X008790Y019642D01*
X008780Y019741D02*
X008620Y019741D01*
X008618Y019839D02*
X008782Y019839D01*
X008823Y019938D02*
X008577Y019938D01*
X007823Y019938D02*
X007577Y019938D01*
X007618Y019839D02*
X007782Y019839D01*
X007780Y019741D02*
X007620Y019741D01*
X007610Y019642D02*
X007790Y019642D01*
X007831Y019544D02*
X007569Y019544D01*
X007489Y019445D02*
X007911Y019445D01*
X008077Y019347D02*
X007323Y019347D01*
X007077Y019347D02*
X006323Y019347D01*
X006489Y019445D02*
X006911Y019445D01*
X006831Y019544D02*
X006569Y019544D01*
X006610Y019642D02*
X006790Y019642D01*
X006780Y019741D02*
X006620Y019741D01*
X006618Y019839D02*
X006782Y019839D01*
X006823Y019938D02*
X006577Y019938D01*
X006077Y019347D02*
X005377Y019347D01*
X005245Y019347D02*
X005155Y019347D01*
X005155Y019445D02*
X005245Y019445D01*
X005245Y019544D02*
X005155Y019544D01*
X005155Y019642D02*
X005245Y019642D01*
X005245Y019741D02*
X005780Y019741D01*
X005782Y019839D02*
X005631Y019839D01*
X005598Y019938D02*
X005823Y019938D01*
X005790Y019642D02*
X005628Y019642D01*
X005589Y019544D02*
X005831Y019544D01*
X005911Y019445D02*
X005517Y019445D01*
X005155Y019741D02*
X004620Y019741D01*
X004618Y019839D02*
X004769Y019839D01*
X004802Y019938D02*
X004577Y019938D01*
X004610Y019642D02*
X004772Y019642D01*
X004811Y019544D02*
X004569Y019544D01*
X004489Y019445D02*
X004883Y019445D01*
X005023Y019347D02*
X004323Y019347D01*
X004077Y019347D02*
X003200Y019347D01*
X003152Y019445D02*
X003911Y019445D01*
X003831Y019544D02*
X003105Y019544D01*
X003052Y019642D02*
X003790Y019642D01*
X003780Y019741D02*
X002960Y019741D01*
X002869Y019839D02*
X003782Y019839D01*
X003823Y019938D02*
X002777Y019938D01*
X003284Y018263D02*
X011700Y018263D01*
X011736Y018165D02*
X003253Y018165D01*
X003206Y018066D02*
X011862Y018066D01*
X012056Y017968D02*
X003158Y017968D01*
X003111Y017869D02*
X012155Y017869D01*
X012343Y017574D02*
X002881Y017574D01*
X003063Y017771D02*
X003063Y017771D01*
X005155Y019839D02*
X005245Y019839D01*
X005245Y019938D02*
X005155Y019938D01*
X008666Y016490D02*
X021020Y016490D01*
X021020Y016392D02*
X008646Y016392D01*
X008597Y016293D02*
X021020Y016293D01*
X021020Y016589D02*
X008765Y016589D01*
X008863Y016687D02*
X021020Y016687D01*
X021020Y016786D02*
X008962Y016786D01*
X009182Y016884D02*
X021020Y016884D01*
X021020Y016983D02*
X009272Y016983D01*
X009300Y017081D02*
X019471Y017081D01*
X019108Y017180D02*
X009288Y017180D01*
X009284Y014170D02*
X009116Y014170D01*
X008962Y014106D01*
X008844Y013988D01*
X008780Y013834D01*
X008780Y013666D01*
X008844Y013512D01*
X008962Y013394D01*
X009116Y013330D01*
X009284Y013330D01*
X009438Y013394D01*
X009556Y013512D01*
X009620Y013666D01*
X009620Y013834D01*
X009556Y013988D01*
X009438Y014106D01*
X009284Y014170D01*
X009390Y014126D02*
X010010Y014126D01*
X009962Y014106D02*
X009844Y013988D01*
X009780Y013834D01*
X009780Y013666D01*
X009844Y013512D01*
X009962Y013394D01*
X010116Y013330D01*
X010284Y013330D01*
X010438Y013394D01*
X010556Y013512D01*
X010620Y013666D01*
X010620Y013834D01*
X010556Y013988D01*
X010438Y014106D01*
X010284Y014170D01*
X010116Y014170D01*
X009962Y014106D01*
X009884Y014028D02*
X009516Y014028D01*
X009580Y013929D02*
X009820Y013929D01*
X009780Y013831D02*
X009620Y013831D01*
X009620Y013732D02*
X009780Y013732D01*
X009794Y013634D02*
X009606Y013634D01*
X009566Y013535D02*
X009834Y013535D01*
X009920Y013437D02*
X009480Y013437D01*
X009303Y013338D02*
X010097Y013338D01*
X010303Y013338D02*
X011097Y013338D01*
X011116Y013330D02*
X011284Y013330D01*
X011438Y013394D01*
X011556Y013512D01*
X011620Y013666D01*
X011620Y013834D01*
X011556Y013988D01*
X011438Y014106D01*
X011284Y014170D01*
X011116Y014170D01*
X010962Y014106D01*
X010844Y013988D01*
X010780Y013834D01*
X010780Y013666D01*
X010844Y013512D01*
X010962Y013394D01*
X011116Y013330D01*
X011303Y013338D02*
X012097Y013338D01*
X012116Y013330D02*
X012284Y013330D01*
X012438Y013394D01*
X012556Y013512D01*
X012620Y013666D01*
X012620Y013834D01*
X012556Y013988D01*
X012438Y014106D01*
X012284Y014170D01*
X012116Y014170D01*
X011962Y014106D01*
X011844Y013988D01*
X011780Y013834D01*
X011780Y013666D01*
X011844Y013512D01*
X011962Y013394D01*
X012116Y013330D01*
X012303Y013338D02*
X013097Y013338D01*
X013116Y013330D02*
X013284Y013330D01*
X013438Y013394D01*
X013556Y013512D01*
X013620Y013666D01*
X013620Y013834D01*
X013556Y013988D01*
X013438Y014106D01*
X013284Y014170D01*
X013116Y014170D01*
X012962Y014106D01*
X012844Y013988D01*
X012780Y013834D01*
X012780Y013666D01*
X012844Y013512D01*
X012962Y013394D01*
X013116Y013330D01*
X013303Y013338D02*
X014097Y013338D01*
X013920Y013437D02*
X013480Y013437D01*
X013566Y013535D02*
X013834Y013535D01*
X013794Y013634D02*
X013606Y013634D01*
X013620Y013732D02*
X013780Y013732D01*
X013780Y013831D02*
X013620Y013831D01*
X013580Y013929D02*
X013820Y013929D01*
X013884Y014028D02*
X013516Y014028D01*
X013390Y014126D02*
X014010Y014126D01*
X013010Y014126D02*
X012390Y014126D01*
X012516Y014028D02*
X012884Y014028D01*
X012820Y013929D02*
X012580Y013929D01*
X012620Y013831D02*
X012780Y013831D01*
X012780Y013732D02*
X012620Y013732D01*
X012606Y013634D02*
X012794Y013634D01*
X012834Y013535D02*
X012566Y013535D01*
X012480Y013437D02*
X012920Y013437D01*
X011920Y013437D02*
X011480Y013437D01*
X011566Y013535D02*
X011834Y013535D01*
X011794Y013634D02*
X011606Y013634D01*
X011620Y013732D02*
X011780Y013732D01*
X011780Y013831D02*
X011620Y013831D01*
X011580Y013929D02*
X011820Y013929D01*
X011884Y014028D02*
X011516Y014028D01*
X011390Y014126D02*
X012010Y014126D01*
X011010Y014126D02*
X010390Y014126D01*
X010516Y014028D02*
X010884Y014028D01*
X010820Y013929D02*
X010580Y013929D01*
X010620Y013831D02*
X010780Y013831D01*
X010780Y013732D02*
X010620Y013732D01*
X010606Y013634D02*
X010794Y013634D01*
X010834Y013535D02*
X010566Y013535D01*
X010480Y013437D02*
X010920Y013437D01*
X009097Y013338D02*
X008303Y013338D01*
X008284Y013330D02*
X008438Y013394D01*
X008556Y013512D01*
X008620Y013666D01*
X008620Y013834D01*
X008556Y013988D01*
X008438Y014106D01*
X008284Y014170D01*
X008116Y014170D01*
X007962Y014106D01*
X007844Y013988D01*
X007780Y013834D01*
X007780Y013666D01*
X007844Y013512D01*
X007962Y013394D01*
X008116Y013330D01*
X008284Y013330D01*
X008097Y013338D02*
X007303Y013338D01*
X007284Y013330D02*
X007438Y013394D01*
X007556Y013512D01*
X007620Y013666D01*
X007620Y013834D01*
X007556Y013988D01*
X007438Y014106D01*
X007284Y014170D01*
X007116Y014170D01*
X006962Y014106D01*
X006844Y013988D01*
X006780Y013834D01*
X006780Y013666D01*
X006844Y013512D01*
X006962Y013394D01*
X007116Y013330D01*
X007284Y013330D01*
X007097Y013338D02*
X006303Y013338D01*
X006284Y013330D02*
X006438Y013394D01*
X006556Y013512D01*
X006620Y013666D01*
X006620Y013834D01*
X006556Y013988D01*
X006438Y014106D01*
X006284Y014170D01*
X006116Y014170D01*
X005962Y014106D01*
X005844Y013988D01*
X005780Y013834D01*
X005780Y013666D01*
X005844Y013512D01*
X005962Y013394D01*
X006116Y013330D01*
X006284Y013330D01*
X006097Y013338D02*
X005303Y013338D01*
X005284Y013330D02*
X005438Y013394D01*
X005556Y013512D01*
X005620Y013666D01*
X005620Y013834D01*
X005556Y013988D01*
X005438Y014106D01*
X005284Y014170D01*
X005116Y014170D01*
X004962Y014106D01*
X004844Y013988D01*
X004780Y013834D01*
X004780Y013666D01*
X004844Y013512D01*
X004962Y013394D01*
X005116Y013330D01*
X005284Y013330D01*
X005097Y013338D02*
X004356Y013338D01*
X004369Y013342D02*
X004431Y013374D01*
X004487Y013414D01*
X004536Y013463D01*
X004576Y013519D01*
X004608Y013581D01*
X004629Y013647D01*
X004638Y013705D01*
X004245Y013705D01*
X004245Y013795D01*
X004155Y013795D01*
X004155Y014188D01*
X004097Y014179D01*
X004031Y014158D01*
X003969Y014126D01*
X000380Y014126D01*
X000380Y014028D02*
X003858Y014028D01*
X003864Y014037D02*
X003824Y013981D01*
X003792Y013919D01*
X003771Y013853D01*
X003762Y013795D01*
X004155Y013795D01*
X004155Y013705D01*
X003762Y013705D01*
X003771Y013647D01*
X003792Y013581D01*
X003824Y013519D01*
X003864Y013463D01*
X003913Y013414D01*
X003969Y013374D01*
X004031Y013342D01*
X004097Y013321D01*
X004155Y013312D01*
X004155Y013705D01*
X004245Y013705D01*
X004245Y013312D01*
X004303Y013321D01*
X004369Y013342D01*
X004245Y013338D02*
X004155Y013338D01*
X004155Y013437D02*
X004245Y013437D01*
X004245Y013535D02*
X004155Y013535D01*
X004155Y013634D02*
X004245Y013634D01*
X004245Y013732D02*
X004780Y013732D01*
X004780Y013831D02*
X004633Y013831D01*
X004629Y013853D02*
X004608Y013919D01*
X004576Y013981D01*
X004536Y014037D01*
X004487Y014086D01*
X004431Y014126D01*
X005010Y014126D01*
X004884Y014028D02*
X004542Y014028D01*
X004603Y013929D02*
X004820Y013929D01*
X004629Y013853D02*
X004638Y013795D01*
X004245Y013795D01*
X004245Y014188D01*
X004303Y014179D01*
X004369Y014158D01*
X004431Y014126D01*
X004245Y014126D02*
X004155Y014126D01*
X004155Y014028D02*
X004245Y014028D01*
X004245Y013929D02*
X004155Y013929D01*
X004155Y013831D02*
X004245Y013831D01*
X004155Y013732D02*
X000380Y013732D01*
X000380Y013634D02*
X003775Y013634D01*
X003816Y013535D02*
X000380Y013535D01*
X000380Y013437D02*
X003891Y013437D01*
X004044Y013338D02*
X001856Y013338D01*
X001725Y013338D02*
X000380Y013338D01*
X000380Y013240D02*
X001157Y013240D01*
X000906Y013141D02*
X000380Y013141D01*
X000380Y013043D02*
X000767Y013043D01*
X000643Y012944D02*
X000380Y012944D01*
X000380Y012846D02*
X000520Y012846D01*
X000439Y012747D02*
X000380Y012747D01*
X000380Y013831D02*
X003767Y013831D01*
X003797Y013929D02*
X000380Y013929D01*
X000380Y014225D02*
X016341Y014225D01*
X016390Y014126D02*
X017010Y014126D01*
X016884Y014028D02*
X016516Y014028D01*
X016580Y013929D02*
X016820Y013929D01*
X016780Y013831D02*
X016620Y013831D01*
X016620Y013732D02*
X016780Y013732D01*
X016794Y013634D02*
X016606Y013634D01*
X016566Y013535D02*
X016834Y013535D01*
X016920Y013437D02*
X016480Y013437D01*
X016232Y014323D02*
X000380Y014323D01*
X000380Y014422D02*
X016200Y014422D01*
X016208Y014520D02*
X000380Y014520D01*
X000380Y014619D02*
X016265Y014619D01*
X016491Y014717D02*
X000380Y014717D01*
X000380Y014816D02*
X016550Y014816D01*
X016577Y014914D02*
X000380Y014914D01*
X003864Y014037D02*
X003913Y014086D01*
X003969Y014126D01*
X004625Y013634D02*
X004794Y013634D01*
X004834Y013535D02*
X004584Y013535D01*
X004509Y013437D02*
X004920Y013437D01*
X005480Y013437D02*
X005920Y013437D01*
X005834Y013535D02*
X005566Y013535D01*
X005606Y013634D02*
X005794Y013634D01*
X005780Y013732D02*
X005620Y013732D01*
X005620Y013831D02*
X005780Y013831D01*
X005820Y013929D02*
X005580Y013929D01*
X005516Y014028D02*
X005884Y014028D01*
X006010Y014126D02*
X005390Y014126D01*
X006390Y014126D02*
X007010Y014126D01*
X006884Y014028D02*
X006516Y014028D01*
X006580Y013929D02*
X006820Y013929D01*
X006780Y013831D02*
X006620Y013831D01*
X006620Y013732D02*
X006780Y013732D01*
X006794Y013634D02*
X006606Y013634D01*
X006566Y013535D02*
X006834Y013535D01*
X006920Y013437D02*
X006480Y013437D01*
X007480Y013437D02*
X007920Y013437D01*
X007834Y013535D02*
X007566Y013535D01*
X007606Y013634D02*
X007794Y013634D01*
X007780Y013732D02*
X007620Y013732D01*
X007620Y013831D02*
X007780Y013831D01*
X007820Y013929D02*
X007580Y013929D01*
X007516Y014028D02*
X007884Y014028D01*
X008010Y014126D02*
X007390Y014126D01*
X008390Y014126D02*
X009010Y014126D01*
X008884Y014028D02*
X008516Y014028D01*
X008580Y013929D02*
X008820Y013929D01*
X008780Y013831D02*
X008620Y013831D01*
X008620Y013732D02*
X008780Y013732D01*
X008794Y013634D02*
X008606Y013634D01*
X008566Y013535D02*
X008834Y013535D01*
X008920Y013437D02*
X008480Y013437D01*
X008627Y011368D02*
X009756Y011368D01*
X009850Y011270D02*
X008788Y011270D01*
X008879Y011171D02*
X009862Y011171D01*
X009924Y011073D02*
X008920Y011073D01*
X006501Y009398D02*
X000380Y009398D01*
X000380Y009300D02*
X006547Y009300D01*
X006477Y009497D02*
X000380Y009497D01*
X000380Y009595D02*
X006379Y009595D01*
X006280Y009694D02*
X000380Y009694D01*
X000380Y009792D02*
X006182Y009792D01*
X006083Y009891D02*
X000380Y009891D01*
X000380Y009989D02*
X005985Y009989D01*
X001288Y003291D02*
X000380Y003291D01*
X000380Y003193D02*
X001037Y003193D01*
X000831Y003094D02*
X000380Y003094D01*
X000380Y002996D02*
X000708Y002996D01*
X000584Y002897D02*
X000380Y002897D01*
X000380Y002799D02*
X000474Y002799D01*
X000407Y002700D02*
X000380Y002700D01*
X019939Y017081D02*
X021020Y017081D01*
X021020Y017180D02*
X020330Y017180D01*
X020500Y017278D02*
X021020Y017278D01*
X021020Y017377D02*
X020671Y017377D01*
X020789Y017475D02*
X021020Y017475D01*
X021020Y017574D02*
X020881Y017574D01*
X020972Y017672D02*
X021020Y017672D01*
D13*
X016800Y014800D03*
X016450Y014450D03*
X015550Y013150D03*
X016050Y012650D03*
X016050Y012050D03*
X014700Y008950D03*
X015350Y008300D03*
X016400Y007250D03*
X016950Y006700D03*
X014400Y006650D03*
X014150Y006400D03*
X013800Y006750D03*
X013450Y006850D03*
X013000Y007300D03*
X012500Y007650D03*
X012000Y008150D03*
X012000Y009350D03*
X012600Y009950D03*
X010100Y011250D03*
X009450Y011900D03*
X006850Y012050D03*
X006500Y011700D03*
X005950Y010250D03*
X006750Y009450D03*
X007800Y009400D03*
X009200Y008150D03*
X009450Y008650D03*
X010650Y005950D03*
X011600Y005000D03*
X012950Y006350D03*
X013400Y006350D03*
X013750Y006000D03*
X014050Y007000D03*
X012500Y006800D03*
X013000Y005000D03*
X013500Y005000D03*
X015850Y003000D03*
X015850Y001300D03*
X020850Y004450D03*
X020850Y005700D03*
X020850Y006950D03*
X020850Y008200D03*
X020850Y009450D03*
X012450Y017800D03*
X011950Y018300D03*
X010700Y018550D03*
X010150Y018650D03*
X009700Y019200D03*
X009350Y018850D03*
X009050Y017100D03*
X008400Y016450D03*
X003750Y012200D03*
X004550Y008950D03*
X004300Y008150D03*
X002500Y007400D03*
X003150Y005800D03*
X009350Y003000D03*
X009350Y001300D03*
D14*
X011600Y005000D02*
X010650Y005950D01*
X012500Y006800D02*
X012950Y006350D01*
X013400Y006350D02*
X013750Y006000D01*
X014150Y006400D02*
X013800Y006750D01*
X013450Y006850D02*
X013000Y007300D01*
X012500Y007650D02*
X012000Y008150D01*
X011650Y007700D02*
X010700Y008650D01*
X009450Y008650D01*
X009200Y008150D02*
X009600Y007750D01*
X010250Y007750D01*
X012000Y009350D02*
X012600Y009950D01*
X014700Y008950D02*
X015350Y008300D01*
X016400Y007250D02*
X016950Y006700D01*
X014400Y006650D02*
X014050Y007000D01*
X013500Y005000D02*
X013000Y005000D01*
X006750Y009450D02*
X005950Y010250D01*
X004550Y008950D02*
X004550Y008400D01*
X004300Y008150D01*
X006500Y011700D02*
X006850Y012050D01*
X009450Y011900D02*
X010100Y011250D01*
X008400Y016450D02*
X009050Y017100D01*
X010150Y018650D02*
X010200Y018700D01*
X010200Y019750D01*
X009700Y019200D02*
X009350Y018850D01*
X010700Y018550D02*
X011200Y019050D01*
X011200Y019750D01*
X011950Y018300D02*
X012450Y017800D01*
X016450Y014450D02*
X016800Y014800D01*
X015550Y013150D02*
X016050Y012650D01*
M02*
