G75*
%MOIN*%
%OFA0B0*%
%FSLAX25Y25*%
%IPPOS*%
%LPD*%
%AMOC8*
5,1,8,0,0,1.08239X$1,22.5*
%
%ADD10R,0.00500X0.00500*%
%ADD11R,0.01500X0.00500*%
%ADD12R,0.04000X0.00500*%
%ADD13R,0.06000X0.00500*%
%ADD14R,0.05500X0.00500*%
%ADD15R,0.06500X0.00500*%
%ADD16R,0.09000X0.00500*%
%ADD17R,0.07000X0.00500*%
%ADD18R,0.01000X0.00500*%
%ADD19R,0.02500X0.00500*%
%ADD20R,0.07500X0.00500*%
%ADD21R,0.11500X0.00500*%
%ADD22R,0.08000X0.00500*%
%ADD23R,0.13500X0.00500*%
%ADD24R,0.15000X0.00500*%
%ADD25R,0.02000X0.00500*%
%ADD26R,0.08500X0.00500*%
%ADD27R,0.16000X0.00500*%
%ADD28R,0.17000X0.00500*%
%ADD29R,0.18000X0.00500*%
%ADD30R,0.04500X0.00500*%
%ADD31R,0.05000X0.00500*%
%ADD32R,0.09500X0.00500*%
%ADD33R,0.19000X0.00500*%
%ADD34R,0.10500X0.00500*%
%ADD35R,0.10000X0.00500*%
%ADD36R,0.11000X0.00500*%
%ADD37R,0.03500X0.00500*%
%ADD38R,0.15500X0.00500*%
%ADD39R,0.12000X0.00500*%
%ADD40R,0.16500X0.00500*%
%ADD41R,0.17500X0.00500*%
%ADD42R,0.13000X0.00500*%
%ADD43R,0.12500X0.00500*%
%ADD44R,0.03000X0.00500*%
%ADD45R,0.14500X0.00500*%
%ADD46R,0.18500X0.00500*%
%ADD47R,0.14000X0.00500*%
D10*
X0083165Y0029917D03*
X0086165Y0031417D03*
X0086165Y0031917D03*
X0089165Y0029917D03*
X0086165Y0008417D03*
D11*
X0086165Y0008917D03*
X0085165Y0027417D03*
X0085165Y0027917D03*
X0087165Y0027917D03*
X0086165Y0029917D03*
X0086165Y0030417D03*
X0086165Y0030917D03*
X0082665Y0028917D03*
X0082665Y0028417D03*
X0089665Y0028417D03*
X0089665Y0028917D03*
X0139665Y0022917D03*
D12*
X0143915Y0030417D03*
X0148415Y0014417D03*
X0088915Y0026917D03*
X0083415Y0026917D03*
X0086415Y0010917D03*
D13*
X0095915Y0018417D03*
X0095915Y0018917D03*
X0095915Y0019417D03*
X0109415Y0017417D03*
X0109415Y0016917D03*
X0108915Y0008417D03*
X0108915Y0029917D03*
X0118415Y0029917D03*
X0148915Y0013917D03*
X0072415Y0029917D03*
D14*
X0086165Y0013417D03*
X0086165Y0012917D03*
X0086165Y0012417D03*
X0096665Y0029917D03*
X0109665Y0019417D03*
X0109665Y0018917D03*
X0109665Y0018417D03*
X0109665Y0017917D03*
X0138665Y0023917D03*
D15*
X0130165Y0029917D03*
X0109165Y0016417D03*
X0109165Y0015917D03*
X0109165Y0015417D03*
X0109165Y0014917D03*
X0109165Y0008917D03*
X0102665Y0018417D03*
X0103165Y0019417D03*
X0103165Y0019917D03*
X0103665Y0020917D03*
X0096165Y0020917D03*
X0096165Y0020417D03*
X0096165Y0019917D03*
X0096165Y0021417D03*
X0096165Y0021917D03*
X0096665Y0029417D03*
X0086165Y0021417D03*
X0086165Y0020917D03*
X0086165Y0020417D03*
X0086165Y0019917D03*
X0086165Y0019417D03*
X0086165Y0018917D03*
X0086165Y0018417D03*
X0086165Y0017917D03*
X0086165Y0017417D03*
X0086165Y0013917D03*
X0096665Y0008417D03*
D16*
X0097415Y0010917D03*
X0097415Y0011417D03*
X0107915Y0026417D03*
X0107915Y0026917D03*
X0143915Y0029917D03*
X0149415Y0022417D03*
D17*
X0129415Y0016417D03*
X0129415Y0015917D03*
X0129415Y0015417D03*
X0118415Y0015417D03*
X0118415Y0014917D03*
X0118415Y0015917D03*
X0118415Y0016417D03*
X0118415Y0016917D03*
X0118415Y0017417D03*
X0118415Y0023417D03*
X0118415Y0023917D03*
X0118415Y0024417D03*
X0118415Y0024917D03*
X0118415Y0025417D03*
X0118415Y0025917D03*
X0118415Y0026417D03*
X0118415Y0026917D03*
X0118415Y0027417D03*
X0118415Y0027917D03*
X0118415Y0028417D03*
X0118415Y0028917D03*
X0118415Y0029417D03*
X0108915Y0029417D03*
X0103415Y0020417D03*
X0102915Y0018917D03*
X0096415Y0022417D03*
X0096415Y0022917D03*
X0096415Y0023417D03*
X0096415Y0023917D03*
X0096415Y0024417D03*
X0096415Y0024917D03*
X0096415Y0025417D03*
X0096415Y0025917D03*
X0096415Y0026417D03*
X0096415Y0026917D03*
X0096415Y0027417D03*
X0096415Y0027917D03*
X0096415Y0028417D03*
X0096415Y0028917D03*
X0108915Y0014417D03*
X0108915Y0013917D03*
X0108915Y0013417D03*
X0108915Y0012917D03*
X0108915Y0012417D03*
X0108915Y0011917D03*
X0108915Y0011417D03*
X0108915Y0010917D03*
X0108915Y0010417D03*
X0108915Y0009917D03*
X0108915Y0009417D03*
X0096915Y0008917D03*
X0072415Y0014917D03*
X0072415Y0015417D03*
X0072415Y0015917D03*
X0072415Y0016417D03*
X0072415Y0016917D03*
X0072415Y0017417D03*
X0072415Y0017917D03*
X0072415Y0018417D03*
X0072415Y0018917D03*
X0072415Y0019417D03*
X0072415Y0019917D03*
X0072415Y0020417D03*
X0072415Y0020917D03*
X0072415Y0021417D03*
X0072415Y0021917D03*
X0072415Y0022417D03*
X0072415Y0022917D03*
X0072415Y0023417D03*
X0072415Y0023917D03*
X0072415Y0024417D03*
X0072415Y0024917D03*
X0072415Y0025417D03*
X0072415Y0025917D03*
X0072415Y0026417D03*
X0072415Y0026917D03*
X0072415Y0027417D03*
X0072415Y0027917D03*
X0072415Y0028417D03*
X0072415Y0028917D03*
X0072415Y0029417D03*
D18*
X0082915Y0029417D03*
X0085415Y0028917D03*
X0085415Y0028417D03*
X0086915Y0028417D03*
X0086915Y0028917D03*
X0087415Y0027417D03*
X0089415Y0029417D03*
X0147915Y0015417D03*
D19*
X0148165Y0014917D03*
X0089665Y0027417D03*
X0086165Y0029417D03*
X0082665Y0027417D03*
X0084165Y0014417D03*
X0088165Y0014417D03*
X0086165Y0009917D03*
X0086165Y0009417D03*
D20*
X0108665Y0028917D03*
X0127665Y0024917D03*
X0129665Y0029417D03*
X0138665Y0024417D03*
X0138165Y0014917D03*
X0138165Y0014417D03*
X0129165Y0014917D03*
X0129165Y0016917D03*
X0150165Y0023417D03*
X0150165Y0023917D03*
D21*
X0147665Y0021917D03*
X0143665Y0029417D03*
X0144165Y0008917D03*
X0121165Y0008417D03*
X0106665Y0022417D03*
X0106665Y0022917D03*
X0098665Y0015417D03*
X0098665Y0014917D03*
D22*
X0096915Y0009417D03*
X0108415Y0027917D03*
X0108415Y0028417D03*
X0126915Y0023917D03*
X0127415Y0024417D03*
X0127915Y0025417D03*
X0128415Y0026417D03*
X0128915Y0027417D03*
X0129415Y0028417D03*
X0129415Y0028917D03*
X0128915Y0017417D03*
X0138415Y0015417D03*
X0138415Y0013917D03*
X0149915Y0022917D03*
D23*
X0146665Y0021417D03*
X0143665Y0028917D03*
X0144165Y0009417D03*
D24*
X0145915Y0020917D03*
X0143915Y0028417D03*
X0122415Y0009417D03*
D25*
X0089915Y0027917D03*
X0082415Y0027917D03*
X0083915Y0016417D03*
X0083915Y0015917D03*
X0083915Y0015417D03*
X0083915Y0014917D03*
X0088415Y0014917D03*
X0088415Y0015417D03*
X0088415Y0015917D03*
X0088415Y0016417D03*
D26*
X0086165Y0021917D03*
X0097165Y0010417D03*
X0097165Y0009917D03*
X0108165Y0027417D03*
X0126665Y0023417D03*
X0128165Y0025917D03*
X0128665Y0026917D03*
X0129165Y0027917D03*
X0149665Y0024417D03*
D27*
X0145415Y0020417D03*
X0144915Y0019917D03*
X0143415Y0017917D03*
X0143915Y0027917D03*
X0122915Y0010417D03*
D28*
X0123415Y0011417D03*
X0123415Y0020417D03*
X0143915Y0027417D03*
D29*
X0143915Y0026917D03*
X0143915Y0026417D03*
X0143915Y0013417D03*
X0123915Y0013417D03*
X0123915Y0012917D03*
X0123915Y0013917D03*
X0123915Y0014417D03*
X0123915Y0017917D03*
X0123915Y0018417D03*
X0123915Y0018917D03*
X0072415Y0013917D03*
D30*
X0086165Y0011917D03*
X0086165Y0011417D03*
X0083165Y0026417D03*
X0089165Y0026417D03*
X0144165Y0007917D03*
D31*
X0109915Y0019917D03*
X0109915Y0020417D03*
X0109915Y0020917D03*
X0088915Y0025917D03*
X0083415Y0025917D03*
D32*
X0086165Y0022917D03*
X0086165Y0022417D03*
X0097665Y0011917D03*
X0107665Y0025917D03*
X0144165Y0008417D03*
D33*
X0143915Y0024917D03*
X0143915Y0025417D03*
X0143915Y0025917D03*
D34*
X0139665Y0015917D03*
X0107165Y0023917D03*
X0107165Y0024417D03*
X0098165Y0013917D03*
X0098165Y0013417D03*
X0086165Y0023417D03*
X0086165Y0023917D03*
X0086165Y0024417D03*
X0086165Y0024917D03*
X0086165Y0025417D03*
D35*
X0097915Y0012917D03*
X0097915Y0012417D03*
X0107415Y0024917D03*
X0107415Y0025417D03*
D36*
X0106915Y0023417D03*
X0098415Y0014417D03*
D37*
X0086165Y0010417D03*
X0139165Y0023417D03*
D38*
X0142665Y0017417D03*
X0144165Y0010417D03*
X0122665Y0009917D03*
X0122665Y0021917D03*
X0122665Y0022417D03*
X0122665Y0022917D03*
D39*
X0106415Y0021917D03*
X0106415Y0021417D03*
X0098915Y0016417D03*
X0098915Y0015917D03*
D40*
X0123165Y0010917D03*
X0123165Y0020917D03*
X0123165Y0021417D03*
X0143665Y0018417D03*
X0144165Y0018917D03*
X0144665Y0019417D03*
X0144165Y0010917D03*
X0072165Y0014417D03*
D41*
X0072165Y0008417D03*
X0123665Y0011917D03*
X0123665Y0012417D03*
X0123665Y0019417D03*
X0123665Y0019917D03*
X0144165Y0011917D03*
X0144165Y0011417D03*
D42*
X0141415Y0016417D03*
X0099415Y0017917D03*
D43*
X0099165Y0017417D03*
X0099165Y0016917D03*
D44*
X0087915Y0016917D03*
X0084415Y0016917D03*
D45*
X0142165Y0016917D03*
X0144165Y0009917D03*
D46*
X0144165Y0012417D03*
X0144165Y0012917D03*
X0072165Y0012917D03*
X0072165Y0012417D03*
X0072165Y0011917D03*
X0072165Y0011417D03*
X0072165Y0010917D03*
X0072165Y0010417D03*
X0072165Y0009917D03*
X0072165Y0009417D03*
X0072165Y0008917D03*
X0072165Y0013417D03*
D47*
X0121915Y0008917D03*
M02*
