G75*
%MOIN*%
%OFA0B0*%
%FSLAX25Y25*%
%IPPOS*%
%LPD*%
%AMOC8*
5,1,8,0,0,1.08239X$1,22.5*
%
%ADD10C,0.07400*%
%ADD11C,0.05800*%
%ADD12C,0.01000*%
%ADD13C,0.02400*%
%ADD14C,0.00600*%
D10*
X0095000Y0054000D03*
X0096000Y0045500D03*
X0097000Y0064500D03*
X0102500Y0077500D03*
X0116500Y0077000D03*
X0142000Y0079500D03*
X0168000Y0080000D03*
X0168000Y0091000D03*
X0166000Y0109000D03*
X0155000Y0109000D03*
X0144000Y0109000D03*
X0084500Y0109000D03*
X0074500Y0109000D03*
X0064500Y0109000D03*
X0054500Y0109000D03*
X0044500Y0109000D03*
D11*
X0042000Y0137500D03*
X0052000Y0137500D03*
X0062000Y0137500D03*
X0072000Y0137500D03*
X0082000Y0137500D03*
X0092000Y0137500D03*
X0102000Y0137500D03*
X0112000Y0137500D03*
X0122000Y0137500D03*
X0132000Y0137500D03*
X0142000Y0137500D03*
X0152000Y0137500D03*
X0162000Y0137500D03*
X0172000Y0137500D03*
X0172000Y0197500D03*
X0162000Y0197500D03*
X0152000Y0197500D03*
X0142000Y0197500D03*
X0132000Y0197500D03*
X0122000Y0197500D03*
X0112000Y0197500D03*
X0102000Y0197500D03*
X0092000Y0197500D03*
X0082000Y0197500D03*
X0072000Y0197500D03*
X0062000Y0197500D03*
X0052000Y0197500D03*
X0042000Y0197500D03*
D12*
X0003800Y0107397D02*
X0003800Y0026603D01*
X0004905Y0028223D01*
X0004905Y0028223D01*
X0008750Y0031289D01*
X0008750Y0031289D01*
X0013328Y0033086D01*
X0013328Y0033086D01*
X0018233Y0033454D01*
X0018233Y0033454D01*
X0023028Y0032359D01*
X0023028Y0032359D01*
X0027288Y0029900D01*
X0027288Y0029900D01*
X0030633Y0026295D01*
X0030633Y0026295D01*
X0032767Y0021863D01*
X0032767Y0021863D01*
X0033500Y0017000D01*
X0032767Y0012137D01*
X0032767Y0012137D01*
X0030633Y0007705D01*
X0030633Y0007705D01*
X0027288Y0004100D01*
X0027288Y0004100D01*
X0026768Y0003800D01*
X0187384Y0003800D01*
X0184905Y0005777D01*
X0184905Y0005777D01*
X0184905Y0005777D01*
X0182134Y0009841D01*
X0182134Y0009841D01*
X0180684Y0014541D01*
X0180684Y0019459D01*
X0182134Y0024159D01*
X0182134Y0024159D01*
X0184905Y0028223D01*
X0184905Y0028223D01*
X0188750Y0031289D01*
X0188750Y0031289D01*
X0193328Y0033086D01*
X0193328Y0033086D01*
X0198233Y0033454D01*
X0198233Y0033454D01*
X0203028Y0032359D01*
X0203028Y0032359D01*
X0207288Y0029900D01*
X0207288Y0029900D01*
X0210200Y0026761D01*
X0210200Y0107239D01*
X0207288Y0104100D01*
X0207288Y0104100D01*
X0203028Y0101641D01*
X0203028Y0101641D01*
X0198233Y0100546D01*
X0198233Y0100546D01*
X0193328Y0100914D01*
X0193328Y0100914D01*
X0188750Y0102711D01*
X0188750Y0102711D01*
X0184905Y0105777D01*
X0184905Y0105777D01*
X0184905Y0105777D01*
X0182134Y0109841D01*
X0182134Y0109841D01*
X0180684Y0114541D01*
X0180684Y0118741D01*
X0180619Y0118584D01*
X0179916Y0117881D01*
X0178997Y0117500D01*
X0178003Y0117500D01*
X0177084Y0117881D01*
X0176381Y0118584D01*
X0176000Y0119503D01*
X0176000Y0120237D01*
X0173737Y0122500D01*
X0173003Y0122500D01*
X0172084Y0122881D01*
X0171381Y0123584D01*
X0171000Y0124503D01*
X0171000Y0125497D01*
X0171381Y0126416D01*
X0172084Y0127119D01*
X0173003Y0127500D01*
X0173997Y0127500D01*
X0174916Y0127119D01*
X0175619Y0126416D01*
X0176000Y0125497D01*
X0176000Y0124763D01*
X0178263Y0122500D01*
X0178997Y0122500D01*
X0179916Y0122119D01*
X0180619Y0121416D01*
X0181000Y0120497D01*
X0181000Y0120483D01*
X0182134Y0124159D01*
X0184905Y0128223D01*
X0184905Y0128223D01*
X0188750Y0131289D01*
X0193328Y0133086D01*
X0193328Y0133086D01*
X0198233Y0133454D01*
X0198233Y0133454D01*
X0203028Y0132359D01*
X0203028Y0132359D01*
X0207288Y0129900D01*
X0207288Y0129900D01*
X0210200Y0126761D01*
X0210200Y0177239D01*
X0207288Y0174100D01*
X0203028Y0171641D01*
X0203028Y0171641D01*
X0198233Y0170546D01*
X0193328Y0170914D01*
X0188750Y0172711D01*
X0188750Y0172711D01*
X0184905Y0175777D01*
X0184905Y0175777D01*
X0184905Y0175777D01*
X0182134Y0179841D01*
X0182134Y0179841D01*
X0180684Y0184541D01*
X0180684Y0189459D01*
X0182134Y0194159D01*
X0182134Y0194159D01*
X0184905Y0198223D01*
X0184905Y0198223D01*
X0187384Y0200200D01*
X0175240Y0200200D01*
X0175561Y0199879D01*
X0176200Y0198335D01*
X0176200Y0196665D01*
X0175561Y0195121D01*
X0174379Y0193939D01*
X0172835Y0193300D01*
X0171165Y0193300D01*
X0169621Y0193939D01*
X0168439Y0195121D01*
X0167800Y0196665D01*
X0167800Y0198335D01*
X0168439Y0199879D01*
X0168760Y0200200D01*
X0165240Y0200200D01*
X0165561Y0199879D01*
X0166200Y0198335D01*
X0166200Y0196665D01*
X0165561Y0195121D01*
X0164379Y0193939D01*
X0162835Y0193300D01*
X0161165Y0193300D01*
X0159621Y0193939D01*
X0158439Y0195121D01*
X0157800Y0196665D01*
X0157800Y0198335D01*
X0158439Y0199879D01*
X0158760Y0200200D01*
X0155240Y0200200D01*
X0155561Y0199879D01*
X0156200Y0198335D01*
X0156200Y0196665D01*
X0155561Y0195121D01*
X0154379Y0193939D01*
X0152835Y0193300D01*
X0151165Y0193300D01*
X0149621Y0193939D01*
X0148439Y0195121D01*
X0147800Y0196665D01*
X0147800Y0198335D01*
X0148439Y0199879D01*
X0148760Y0200200D01*
X0145240Y0200200D01*
X0145561Y0199879D01*
X0146200Y0198335D01*
X0146200Y0196665D01*
X0145561Y0195121D01*
X0144379Y0193939D01*
X0142835Y0193300D01*
X0141165Y0193300D01*
X0139621Y0193939D01*
X0138439Y0195121D01*
X0137800Y0196665D01*
X0137800Y0198335D01*
X0138439Y0199879D01*
X0138760Y0200200D01*
X0135240Y0200200D01*
X0135561Y0199879D01*
X0136200Y0198335D01*
X0136200Y0196665D01*
X0135561Y0195121D01*
X0134379Y0193939D01*
X0132835Y0193300D01*
X0131165Y0193300D01*
X0129621Y0193939D01*
X0128439Y0195121D01*
X0127800Y0196665D01*
X0127800Y0198335D01*
X0128439Y0199879D01*
X0128760Y0200200D01*
X0125240Y0200200D01*
X0125561Y0199879D01*
X0126200Y0198335D01*
X0126200Y0196665D01*
X0125561Y0195121D01*
X0124379Y0193939D01*
X0122835Y0193300D01*
X0121165Y0193300D01*
X0119621Y0193939D01*
X0118439Y0195121D01*
X0117800Y0196665D01*
X0117800Y0198335D01*
X0118439Y0199879D01*
X0118760Y0200200D01*
X0115240Y0200200D01*
X0115561Y0199879D01*
X0116200Y0198335D01*
X0116200Y0196665D01*
X0115561Y0195121D01*
X0114379Y0193939D01*
X0113600Y0193617D01*
X0113600Y0189837D01*
X0112663Y0188900D01*
X0109500Y0185737D01*
X0109500Y0185003D01*
X0109119Y0184084D01*
X0108416Y0183381D01*
X0107497Y0183000D01*
X0106503Y0183000D01*
X0105584Y0183381D01*
X0104881Y0184084D01*
X0104500Y0185003D01*
X0104500Y0185997D01*
X0104881Y0186916D01*
X0105584Y0187619D01*
X0106503Y0188000D01*
X0107237Y0188000D01*
X0110400Y0191163D01*
X0110400Y0193617D01*
X0109621Y0193939D01*
X0108439Y0195121D01*
X0107800Y0196665D01*
X0107800Y0198335D01*
X0108439Y0199879D01*
X0108760Y0200200D01*
X0105240Y0200200D01*
X0105561Y0199879D01*
X0106200Y0198335D01*
X0106200Y0196665D01*
X0105561Y0195121D01*
X0104379Y0193939D01*
X0103600Y0193617D01*
X0103600Y0187936D01*
X0103619Y0187916D01*
X0104000Y0186997D01*
X0104000Y0186003D01*
X0103619Y0185084D01*
X0102916Y0184381D01*
X0101997Y0184000D01*
X0101003Y0184000D01*
X0100084Y0184381D01*
X0099381Y0185084D01*
X0099000Y0186003D01*
X0099000Y0186997D01*
X0099381Y0187916D01*
X0100084Y0188619D01*
X0100400Y0188750D01*
X0100400Y0193617D01*
X0099621Y0193939D01*
X0098439Y0195121D01*
X0097800Y0196665D01*
X0097800Y0198335D01*
X0098439Y0199879D01*
X0098760Y0200200D01*
X0095240Y0200200D01*
X0095561Y0199879D01*
X0096200Y0198335D01*
X0096200Y0196665D01*
X0095561Y0195121D01*
X0094379Y0193939D01*
X0092835Y0193300D01*
X0091165Y0193300D01*
X0089621Y0193939D01*
X0088439Y0195121D01*
X0087800Y0196665D01*
X0087800Y0198335D01*
X0088439Y0199879D01*
X0088760Y0200200D01*
X0085240Y0200200D01*
X0085561Y0199879D01*
X0086200Y0198335D01*
X0086200Y0196665D01*
X0085561Y0195121D01*
X0084379Y0193939D01*
X0082835Y0193300D01*
X0081165Y0193300D01*
X0079621Y0193939D01*
X0078439Y0195121D01*
X0077800Y0196665D01*
X0077800Y0198335D01*
X0078439Y0199879D01*
X0078760Y0200200D01*
X0075240Y0200200D01*
X0075561Y0199879D01*
X0076200Y0198335D01*
X0076200Y0196665D01*
X0075561Y0195121D01*
X0074379Y0193939D01*
X0072835Y0193300D01*
X0071165Y0193300D01*
X0069621Y0193939D01*
X0068439Y0195121D01*
X0067800Y0196665D01*
X0067800Y0198335D01*
X0068439Y0199879D01*
X0068760Y0200200D01*
X0065240Y0200200D01*
X0065561Y0199879D01*
X0066200Y0198335D01*
X0066200Y0196665D01*
X0065561Y0195121D01*
X0064379Y0193939D01*
X0062835Y0193300D01*
X0061165Y0193300D01*
X0059621Y0193939D01*
X0058439Y0195121D01*
X0057800Y0196665D01*
X0057800Y0198335D01*
X0058439Y0199879D01*
X0058760Y0200200D01*
X0055477Y0200200D01*
X0055763Y0199806D01*
X0056078Y0199189D01*
X0056292Y0198530D01*
X0056384Y0197950D01*
X0052450Y0197950D01*
X0052450Y0197050D01*
X0056384Y0197050D01*
X0056292Y0196470D01*
X0056078Y0195811D01*
X0055763Y0195194D01*
X0055356Y0194634D01*
X0054866Y0194144D01*
X0054306Y0193737D01*
X0053689Y0193422D01*
X0053030Y0193208D01*
X0052450Y0193116D01*
X0052450Y0197050D01*
X0051550Y0197050D01*
X0051550Y0193116D01*
X0050970Y0193208D01*
X0050311Y0193422D01*
X0049694Y0193737D01*
X0049134Y0194144D01*
X0048644Y0194634D01*
X0048237Y0195194D01*
X0047922Y0195811D01*
X0047708Y0196470D01*
X0047616Y0197050D01*
X0051550Y0197050D01*
X0051550Y0197950D01*
X0047616Y0197950D01*
X0047708Y0198530D01*
X0047922Y0199189D01*
X0048237Y0199806D01*
X0048523Y0200200D01*
X0045240Y0200200D01*
X0045561Y0199879D01*
X0046200Y0198335D01*
X0046200Y0196665D01*
X0045561Y0195121D01*
X0044379Y0193939D01*
X0042835Y0193300D01*
X0041165Y0193300D01*
X0039621Y0193939D01*
X0038439Y0195121D01*
X0037800Y0196665D01*
X0037800Y0198335D01*
X0038439Y0199879D01*
X0038760Y0200200D01*
X0026768Y0200200D01*
X0027288Y0199900D01*
X0027288Y0199900D01*
X0030633Y0196295D01*
X0030633Y0196295D01*
X0032767Y0191863D01*
X0032767Y0191863D01*
X0033500Y0187000D01*
X0032767Y0182137D01*
X0032767Y0182137D01*
X0030633Y0177705D01*
X0030633Y0177705D01*
X0027288Y0174100D01*
X0027288Y0174100D01*
X0027288Y0174100D01*
X0023028Y0171641D01*
X0023028Y0171641D01*
X0018233Y0170546D01*
X0018233Y0170546D01*
X0013328Y0170914D01*
X0013328Y0170914D01*
X0008750Y0172711D01*
X0008750Y0172711D01*
X0004905Y0175777D01*
X0004905Y0175777D01*
X0004905Y0175777D01*
X0003800Y0177397D01*
X0003800Y0126603D01*
X0004905Y0128223D01*
X0004905Y0128223D01*
X0008750Y0131289D01*
X0008750Y0131289D01*
X0013328Y0133086D01*
X0013328Y0133086D01*
X0018233Y0133454D01*
X0018233Y0133454D01*
X0023028Y0132359D01*
X0023028Y0132359D01*
X0027288Y0129900D01*
X0027288Y0129900D01*
X0030633Y0126295D01*
X0032767Y0121863D01*
X0033500Y0117000D01*
X0033500Y0117000D01*
X0032767Y0112137D01*
X0032767Y0112137D01*
X0030633Y0107705D01*
X0030633Y0107705D01*
X0027288Y0104100D01*
X0027288Y0104100D01*
X0023028Y0101641D01*
X0023028Y0101641D01*
X0018233Y0100546D01*
X0018233Y0100546D01*
X0013328Y0100914D01*
X0013328Y0100914D01*
X0008750Y0102711D01*
X0008750Y0102711D01*
X0004905Y0105777D01*
X0004905Y0105777D01*
X0004905Y0105777D01*
X0003800Y0107397D01*
X0003800Y0106881D02*
X0004152Y0106881D01*
X0003800Y0105882D02*
X0004833Y0105882D01*
X0003800Y0104884D02*
X0006025Y0104884D01*
X0007277Y0103885D02*
X0003800Y0103885D01*
X0003800Y0102887D02*
X0008529Y0102887D01*
X0010845Y0101888D02*
X0003800Y0101888D01*
X0003800Y0100890D02*
X0013647Y0100890D01*
X0019739Y0100890D02*
X0057575Y0100890D01*
X0057381Y0101084D02*
X0058084Y0100381D01*
X0059003Y0100000D01*
X0059737Y0100000D01*
X0065000Y0094737D01*
X0065000Y0094003D01*
X0065381Y0093084D01*
X0066084Y0092381D01*
X0067003Y0092000D01*
X0067997Y0092000D01*
X0068916Y0092381D01*
X0069619Y0093084D01*
X0070000Y0094003D01*
X0070000Y0094500D01*
X0070497Y0094500D01*
X0071416Y0094881D01*
X0072119Y0095584D01*
X0072500Y0096503D01*
X0072500Y0097497D01*
X0072119Y0098416D01*
X0071416Y0099119D01*
X0070497Y0099500D01*
X0069763Y0099500D01*
X0066500Y0102763D01*
X0066500Y0103497D01*
X0066175Y0104282D01*
X0067332Y0104761D01*
X0068739Y0106168D01*
X0069500Y0108005D01*
X0070261Y0106168D01*
X0071668Y0104761D01*
X0073505Y0104000D01*
X0075495Y0104000D01*
X0077332Y0104761D01*
X0078739Y0106168D01*
X0079500Y0108005D01*
X0080261Y0106168D01*
X0081668Y0104761D01*
X0083505Y0104000D01*
X0085495Y0104000D01*
X0087332Y0104761D01*
X0088739Y0106168D01*
X0089500Y0108005D01*
X0089500Y0109995D01*
X0088739Y0111832D01*
X0087332Y0113239D01*
X0085495Y0114000D01*
X0083505Y0114000D01*
X0081668Y0113239D01*
X0080261Y0111832D01*
X0079500Y0109995D01*
X0079500Y0108005D01*
X0079500Y0109995D01*
X0078739Y0111832D01*
X0077332Y0113239D01*
X0076231Y0113695D01*
X0076619Y0114084D01*
X0077000Y0115003D01*
X0077000Y0115737D01*
X0077763Y0116500D01*
X0078497Y0116500D01*
X0079416Y0116881D01*
X0080119Y0117584D01*
X0080500Y0118503D01*
X0080500Y0119497D01*
X0080119Y0120416D01*
X0079416Y0121119D01*
X0078497Y0121500D01*
X0077503Y0121500D01*
X0076584Y0121119D01*
X0075881Y0120416D01*
X0075500Y0119497D01*
X0075500Y0118763D01*
X0074737Y0118000D01*
X0074003Y0118000D01*
X0073084Y0117619D01*
X0072381Y0116916D01*
X0072000Y0115997D01*
X0072000Y0115003D01*
X0072381Y0114084D01*
X0072769Y0113695D01*
X0071668Y0113239D01*
X0070261Y0111832D01*
X0069500Y0109995D01*
X0069500Y0108005D01*
X0069500Y0109995D01*
X0068739Y0111832D01*
X0067332Y0113239D01*
X0065495Y0114000D01*
X0063505Y0114000D01*
X0061668Y0113239D01*
X0060261Y0111832D01*
X0059500Y0109995D01*
X0059500Y0108005D01*
X0060261Y0106168D01*
X0061668Y0104761D01*
X0062062Y0104598D01*
X0061881Y0104416D01*
X0061646Y0103851D01*
X0061619Y0103916D01*
X0060916Y0104619D01*
X0059997Y0105000D01*
X0059003Y0105000D01*
X0058084Y0104619D01*
X0057381Y0103916D01*
X0057000Y0102997D01*
X0057000Y0102003D01*
X0057381Y0101084D01*
X0057047Y0101888D02*
X0023457Y0101888D01*
X0025187Y0102887D02*
X0057000Y0102887D01*
X0057368Y0103885D02*
X0045448Y0103885D01*
X0045718Y0103928D02*
X0046496Y0104181D01*
X0047225Y0104553D01*
X0047888Y0105034D01*
X0048466Y0105612D01*
X0048947Y0106275D01*
X0049319Y0107004D01*
X0049572Y0107782D01*
X0049578Y0107818D01*
X0050261Y0106168D01*
X0051668Y0104761D01*
X0053505Y0104000D01*
X0055495Y0104000D01*
X0057332Y0104761D01*
X0058739Y0106168D01*
X0059500Y0108005D01*
X0059500Y0109995D01*
X0058739Y0111832D01*
X0057332Y0113239D01*
X0055495Y0114000D01*
X0053505Y0114000D01*
X0051668Y0113239D01*
X0050261Y0111832D01*
X0049578Y0110182D01*
X0049572Y0110218D01*
X0049319Y0110996D01*
X0048947Y0111725D01*
X0048466Y0112388D01*
X0047888Y0112966D01*
X0047225Y0113447D01*
X0046496Y0113819D01*
X0045718Y0114072D01*
X0045000Y0114186D01*
X0045000Y0109500D01*
X0044000Y0109500D01*
X0044000Y0114186D01*
X0043282Y0114072D01*
X0042504Y0113819D01*
X0041775Y0113447D01*
X0041112Y0112966D01*
X0040534Y0112388D01*
X0040053Y0111725D01*
X0039681Y0110996D01*
X0039428Y0110218D01*
X0039314Y0109500D01*
X0044000Y0109500D01*
X0044000Y0108500D01*
X0039314Y0108500D01*
X0039428Y0107782D01*
X0039681Y0107004D01*
X0040053Y0106275D01*
X0040534Y0105612D01*
X0041112Y0105034D01*
X0041775Y0104553D01*
X0042504Y0104181D01*
X0043282Y0103928D01*
X0044000Y0103814D01*
X0044000Y0108500D01*
X0045000Y0108500D01*
X0045000Y0103814D01*
X0045718Y0103928D01*
X0045000Y0103885D02*
X0044000Y0103885D01*
X0043552Y0103885D02*
X0026916Y0103885D01*
X0028015Y0104884D02*
X0041319Y0104884D01*
X0040338Y0105882D02*
X0028942Y0105882D01*
X0029868Y0106881D02*
X0039744Y0106881D01*
X0039413Y0107879D02*
X0030717Y0107879D01*
X0031198Y0108878D02*
X0044000Y0108878D01*
X0044000Y0109876D02*
X0045000Y0109876D01*
X0045000Y0110875D02*
X0044000Y0110875D01*
X0044000Y0111873D02*
X0045000Y0111873D01*
X0045000Y0112872D02*
X0044000Y0112872D01*
X0044000Y0113870D02*
X0045000Y0113870D01*
X0046338Y0113870D02*
X0053193Y0113870D01*
X0051301Y0112872D02*
X0047982Y0112872D01*
X0048840Y0111873D02*
X0050302Y0111873D01*
X0049865Y0110875D02*
X0049358Y0110875D01*
X0049256Y0106881D02*
X0049966Y0106881D01*
X0050547Y0105882D02*
X0048662Y0105882D01*
X0047681Y0104884D02*
X0051545Y0104884D01*
X0057455Y0104884D02*
X0058722Y0104884D01*
X0058453Y0105882D02*
X0060547Y0105882D01*
X0060278Y0104884D02*
X0061545Y0104884D01*
X0061632Y0103885D02*
X0061661Y0103885D01*
X0059966Y0106881D02*
X0059034Y0106881D01*
X0059448Y0107879D02*
X0059552Y0107879D01*
X0059500Y0108878D02*
X0059500Y0108878D01*
X0059500Y0109876D02*
X0059500Y0109876D01*
X0059135Y0110875D02*
X0059865Y0110875D01*
X0060302Y0111873D02*
X0058698Y0111873D01*
X0057699Y0112872D02*
X0061301Y0112872D01*
X0063193Y0113870D02*
X0055807Y0113870D01*
X0060381Y0118084D02*
X0061084Y0117381D01*
X0062003Y0117000D01*
X0062500Y0117000D01*
X0062500Y0116503D01*
X0062881Y0115584D01*
X0063584Y0114881D01*
X0064503Y0114500D01*
X0065497Y0114500D01*
X0066416Y0114881D01*
X0067119Y0115584D01*
X0067500Y0116503D01*
X0067500Y0117237D01*
X0068263Y0118000D01*
X0068997Y0118000D01*
X0069916Y0118381D01*
X0070619Y0119084D01*
X0071000Y0120003D01*
X0071000Y0120997D01*
X0070619Y0121916D01*
X0069916Y0122619D01*
X0068997Y0123000D01*
X0068500Y0123000D01*
X0068500Y0123497D01*
X0068119Y0124416D01*
X0067416Y0125119D01*
X0066497Y0125500D01*
X0065503Y0125500D01*
X0064584Y0125119D01*
X0063881Y0124416D01*
X0063500Y0123497D01*
X0063500Y0122763D01*
X0062737Y0122000D01*
X0062003Y0122000D01*
X0061084Y0121619D01*
X0060381Y0120916D01*
X0060000Y0119997D01*
X0060000Y0119003D01*
X0060381Y0118084D01*
X0060600Y0117865D02*
X0033370Y0117865D01*
X0033480Y0116866D02*
X0062500Y0116866D01*
X0062763Y0115868D02*
X0033329Y0115868D01*
X0033179Y0114869D02*
X0063612Y0114869D01*
X0065807Y0113870D02*
X0072594Y0113870D01*
X0072055Y0114869D02*
X0066388Y0114869D01*
X0067237Y0115868D02*
X0072000Y0115868D01*
X0072360Y0116866D02*
X0067500Y0116866D01*
X0068127Y0117865D02*
X0073676Y0117865D01*
X0075500Y0118863D02*
X0070399Y0118863D01*
X0070942Y0119862D02*
X0075651Y0119862D01*
X0076325Y0120860D02*
X0071000Y0120860D01*
X0070643Y0121859D02*
X0174379Y0121859D01*
X0175377Y0120860D02*
X0096175Y0120860D01*
X0095916Y0121119D02*
X0094997Y0121500D01*
X0094003Y0121500D01*
X0093084Y0121119D01*
X0092381Y0120416D01*
X0092000Y0119497D01*
X0092000Y0118503D01*
X0092381Y0117584D01*
X0093084Y0116881D01*
X0094003Y0116500D01*
X0094737Y0116500D01*
X0098500Y0112737D01*
X0098500Y0112003D01*
X0098881Y0111084D01*
X0099584Y0110381D01*
X0100503Y0110000D01*
X0101497Y0110000D01*
X0102416Y0110381D01*
X0103119Y0111084D01*
X0103500Y0112003D01*
X0103500Y0112997D01*
X0103119Y0113916D01*
X0102416Y0114619D01*
X0101497Y0115000D01*
X0100763Y0115000D01*
X0097000Y0118763D01*
X0097000Y0119497D01*
X0096619Y0120416D01*
X0095916Y0121119D01*
X0096849Y0119862D02*
X0176000Y0119862D01*
X0176265Y0118863D02*
X0097000Y0118863D01*
X0097898Y0117865D02*
X0177123Y0117865D01*
X0179877Y0117865D02*
X0180684Y0117865D01*
X0180684Y0116866D02*
X0098897Y0116866D01*
X0099895Y0115868D02*
X0180684Y0115868D01*
X0180684Y0114869D02*
X0101814Y0114869D01*
X0103138Y0113870D02*
X0142693Y0113870D01*
X0143005Y0114000D02*
X0141168Y0113239D01*
X0139761Y0111832D01*
X0139000Y0109995D01*
X0139000Y0108005D01*
X0139761Y0106168D01*
X0141168Y0104761D01*
X0143005Y0104000D01*
X0144995Y0104000D01*
X0146832Y0104761D01*
X0148239Y0106168D01*
X0149000Y0108005D01*
X0149000Y0109995D01*
X0148239Y0111832D01*
X0146832Y0113239D01*
X0144995Y0114000D01*
X0143005Y0114000D01*
X0145307Y0113870D02*
X0153693Y0113870D01*
X0154005Y0114000D02*
X0152168Y0113239D01*
X0150761Y0111832D01*
X0150000Y0109995D01*
X0150000Y0108005D01*
X0150761Y0106168D01*
X0152168Y0104761D01*
X0154005Y0104000D01*
X0155995Y0104000D01*
X0157832Y0104761D01*
X0159239Y0106168D01*
X0160000Y0108005D01*
X0160000Y0109995D01*
X0159239Y0111832D01*
X0157832Y0113239D01*
X0155995Y0114000D01*
X0154005Y0114000D01*
X0156307Y0113870D02*
X0164162Y0113870D01*
X0164004Y0113819D02*
X0164782Y0114072D01*
X0165500Y0114186D01*
X0165500Y0109500D01*
X0166500Y0109500D01*
X0166500Y0114186D01*
X0167218Y0114072D01*
X0167996Y0113819D01*
X0168725Y0113447D01*
X0169388Y0112966D01*
X0169966Y0112388D01*
X0170447Y0111725D01*
X0170819Y0110996D01*
X0171072Y0110218D01*
X0171186Y0109500D01*
X0166500Y0109500D01*
X0166500Y0108500D01*
X0171186Y0108500D01*
X0171072Y0107782D01*
X0170819Y0107004D01*
X0170447Y0106275D01*
X0169966Y0105612D01*
X0169388Y0105034D01*
X0168725Y0104553D01*
X0167996Y0104181D01*
X0167218Y0103928D01*
X0166500Y0103814D01*
X0166500Y0108500D01*
X0165500Y0108500D01*
X0160814Y0108500D01*
X0160928Y0107782D01*
X0161181Y0107004D01*
X0161553Y0106275D01*
X0162034Y0105612D01*
X0162612Y0105034D01*
X0163275Y0104553D01*
X0164004Y0104181D01*
X0164782Y0103928D01*
X0165500Y0103814D01*
X0165500Y0108500D01*
X0165500Y0109500D01*
X0160814Y0109500D01*
X0160928Y0110218D01*
X0161181Y0110996D01*
X0161553Y0111725D01*
X0162034Y0112388D01*
X0162612Y0112966D01*
X0163275Y0113447D01*
X0164004Y0113819D01*
X0165500Y0113870D02*
X0166500Y0113870D01*
X0166500Y0112872D02*
X0165500Y0112872D01*
X0165500Y0111873D02*
X0166500Y0111873D01*
X0166500Y0110875D02*
X0165500Y0110875D01*
X0165500Y0109876D02*
X0166500Y0109876D01*
X0166500Y0108878D02*
X0182791Y0108878D01*
X0182123Y0109876D02*
X0171126Y0109876D01*
X0170858Y0110875D02*
X0181815Y0110875D01*
X0181507Y0111873D02*
X0170340Y0111873D01*
X0169482Y0112872D02*
X0181199Y0112872D01*
X0180891Y0113870D02*
X0167838Y0113870D01*
X0162518Y0112872D02*
X0158199Y0112872D01*
X0159198Y0111873D02*
X0161660Y0111873D01*
X0161142Y0110875D02*
X0159635Y0110875D01*
X0160000Y0109876D02*
X0160874Y0109876D01*
X0160000Y0108878D02*
X0165500Y0108878D01*
X0165500Y0107879D02*
X0166500Y0107879D01*
X0166500Y0106881D02*
X0165500Y0106881D01*
X0165500Y0105882D02*
X0166500Y0105882D01*
X0166500Y0104884D02*
X0165500Y0104884D01*
X0165500Y0103885D02*
X0166500Y0103885D01*
X0166948Y0103885D02*
X0187277Y0103885D01*
X0188529Y0102887D02*
X0066500Y0102887D01*
X0066339Y0103885D02*
X0165052Y0103885D01*
X0162819Y0104884D02*
X0157955Y0104884D01*
X0158953Y0105882D02*
X0161838Y0105882D01*
X0161244Y0106881D02*
X0159534Y0106881D01*
X0159948Y0107879D02*
X0160913Y0107879D01*
X0169181Y0104884D02*
X0186025Y0104884D01*
X0184833Y0105882D02*
X0170162Y0105882D01*
X0170756Y0106881D02*
X0184152Y0106881D01*
X0183471Y0107879D02*
X0171087Y0107879D01*
X0169218Y0096072D02*
X0168500Y0096186D01*
X0168500Y0091500D01*
X0167500Y0091500D01*
X0167500Y0096186D01*
X0166782Y0096072D01*
X0166004Y0095819D01*
X0165275Y0095447D01*
X0164612Y0094966D01*
X0164034Y0094388D01*
X0163553Y0093725D01*
X0163181Y0092996D01*
X0162928Y0092218D01*
X0162814Y0091500D01*
X0167500Y0091500D01*
X0167500Y0090500D01*
X0162814Y0090500D01*
X0162928Y0089782D01*
X0163181Y0089004D01*
X0163553Y0088275D01*
X0164034Y0087612D01*
X0164612Y0087034D01*
X0165275Y0086553D01*
X0166004Y0086181D01*
X0166782Y0085928D01*
X0167500Y0085814D01*
X0167500Y0090500D01*
X0168500Y0090500D01*
X0168500Y0091500D01*
X0173186Y0091500D01*
X0173072Y0092218D01*
X0172819Y0092996D01*
X0172447Y0093725D01*
X0171966Y0094388D01*
X0171388Y0094966D01*
X0170725Y0095447D01*
X0169996Y0095819D01*
X0169218Y0096072D01*
X0169755Y0095897D02*
X0210200Y0095897D01*
X0210200Y0094899D02*
X0171455Y0094899D01*
X0172320Y0093900D02*
X0210200Y0093900D01*
X0210200Y0092902D02*
X0172850Y0092902D01*
X0173122Y0091903D02*
X0210200Y0091903D01*
X0210200Y0090905D02*
X0168500Y0090905D01*
X0168500Y0090500D02*
X0173186Y0090500D01*
X0173072Y0089782D01*
X0172819Y0089004D01*
X0172447Y0088275D01*
X0171966Y0087612D01*
X0171388Y0087034D01*
X0170725Y0086553D01*
X0169996Y0086181D01*
X0169218Y0085928D01*
X0168500Y0085814D01*
X0168500Y0090500D01*
X0168500Y0089906D02*
X0167500Y0089906D01*
X0167500Y0088908D02*
X0168500Y0088908D01*
X0168500Y0087909D02*
X0167500Y0087909D01*
X0167500Y0086911D02*
X0168500Y0086911D01*
X0168500Y0085912D02*
X0167500Y0085912D01*
X0166883Y0085912D02*
X0152851Y0085912D01*
X0153263Y0085500D02*
X0149500Y0089263D01*
X0149500Y0089997D01*
X0149119Y0090916D01*
X0148416Y0091619D01*
X0147497Y0092000D01*
X0146503Y0092000D01*
X0145584Y0091619D01*
X0144881Y0090916D01*
X0144500Y0089997D01*
X0144500Y0089003D01*
X0144881Y0088084D01*
X0145584Y0087381D01*
X0146503Y0087000D01*
X0147237Y0087000D01*
X0151000Y0083237D01*
X0151000Y0082503D01*
X0151381Y0081584D01*
X0152084Y0080881D01*
X0153003Y0080500D01*
X0153997Y0080500D01*
X0154916Y0080881D01*
X0155619Y0081584D01*
X0156000Y0082503D01*
X0156000Y0083497D01*
X0155619Y0084416D01*
X0154916Y0085119D01*
X0153997Y0085500D01*
X0153263Y0085500D01*
X0155122Y0084914D02*
X0166797Y0084914D01*
X0167005Y0085000D02*
X0165168Y0084239D01*
X0163761Y0082832D01*
X0163000Y0080995D01*
X0163000Y0079005D01*
X0163761Y0077168D01*
X0165168Y0075761D01*
X0167005Y0075000D01*
X0168995Y0075000D01*
X0170832Y0075761D01*
X0172239Y0077168D01*
X0173000Y0079005D01*
X0173000Y0080995D01*
X0172239Y0082832D01*
X0170832Y0084239D01*
X0168995Y0085000D01*
X0167005Y0085000D01*
X0169203Y0084914D02*
X0210200Y0084914D01*
X0210200Y0085912D02*
X0169117Y0085912D01*
X0171218Y0086911D02*
X0210200Y0086911D01*
X0210200Y0087909D02*
X0172182Y0087909D01*
X0172770Y0088908D02*
X0210200Y0088908D01*
X0210200Y0089906D02*
X0173092Y0089906D01*
X0168500Y0091903D02*
X0167500Y0091903D01*
X0167500Y0090905D02*
X0149124Y0090905D01*
X0149500Y0089906D02*
X0162908Y0089906D01*
X0163230Y0088908D02*
X0149855Y0088908D01*
X0150854Y0087909D02*
X0163818Y0087909D01*
X0164782Y0086911D02*
X0151852Y0086911D01*
X0149324Y0084914D02*
X0110849Y0084914D01*
X0109851Y0085912D02*
X0148325Y0085912D01*
X0147327Y0086911D02*
X0108852Y0086911D01*
X0107854Y0087909D02*
X0145055Y0087909D01*
X0144539Y0088908D02*
X0095220Y0088908D01*
X0094997Y0089000D02*
X0095916Y0088619D01*
X0096436Y0088100D01*
X0107663Y0088100D01*
X0114273Y0081490D01*
X0115505Y0082000D01*
X0117495Y0082000D01*
X0117500Y0081998D01*
X0117881Y0082916D01*
X0118584Y0083619D01*
X0119503Y0084000D01*
X0120497Y0084000D01*
X0121416Y0083619D01*
X0122119Y0082916D01*
X0122500Y0081997D01*
X0122500Y0081263D01*
X0124763Y0079000D01*
X0125497Y0079000D01*
X0126416Y0078619D01*
X0127119Y0077916D01*
X0127500Y0076997D01*
X0127500Y0076003D01*
X0127119Y0075084D01*
X0126416Y0074381D01*
X0125497Y0074000D01*
X0124503Y0074000D01*
X0123584Y0074381D01*
X0122881Y0075084D01*
X0122500Y0076003D01*
X0122500Y0076737D01*
X0121500Y0077737D01*
X0121500Y0076005D01*
X0120739Y0074168D01*
X0119332Y0072761D01*
X0117495Y0072000D01*
X0115505Y0072000D01*
X0113668Y0072761D01*
X0112261Y0074168D01*
X0111500Y0076005D01*
X0111500Y0077995D01*
X0112010Y0079227D01*
X0106337Y0084900D01*
X0096436Y0084900D01*
X0095916Y0084381D01*
X0094997Y0084000D01*
X0094003Y0084000D01*
X0093084Y0084381D01*
X0092381Y0085084D01*
X0092000Y0086003D01*
X0092000Y0086997D01*
X0092381Y0087916D01*
X0093084Y0088619D01*
X0094003Y0089000D01*
X0094997Y0089000D01*
X0093780Y0088908D02*
X0047961Y0088908D01*
X0048000Y0089003D02*
X0048000Y0089997D01*
X0047619Y0090916D01*
X0046916Y0091619D01*
X0045997Y0092000D01*
X0045003Y0092000D01*
X0044084Y0091619D01*
X0043381Y0090916D01*
X0043000Y0089997D01*
X0043000Y0089003D01*
X0043381Y0088084D01*
X0043900Y0087564D01*
X0043900Y0084663D01*
X0043237Y0084000D01*
X0042503Y0084000D01*
X0041584Y0083619D01*
X0040881Y0082916D01*
X0040500Y0081997D01*
X0040500Y0081003D01*
X0040881Y0080084D01*
X0041584Y0079381D01*
X0042503Y0079000D01*
X0043497Y0079000D01*
X0044416Y0079381D01*
X0045119Y0080084D01*
X0045500Y0081003D01*
X0045500Y0081737D01*
X0046163Y0082400D01*
X0047100Y0083337D01*
X0047100Y0087564D01*
X0047619Y0088084D01*
X0048000Y0089003D01*
X0048000Y0089906D02*
X0144500Y0089906D01*
X0144876Y0090905D02*
X0047624Y0090905D01*
X0046231Y0091903D02*
X0118061Y0091903D01*
X0117881Y0092084D02*
X0118584Y0091381D01*
X0119503Y0091000D01*
X0120497Y0091000D01*
X0121416Y0091381D01*
X0122119Y0092084D01*
X0122500Y0093003D01*
X0122500Y0093737D01*
X0125763Y0097000D01*
X0126497Y0097000D01*
X0127416Y0097381D01*
X0128119Y0098084D01*
X0128500Y0099003D01*
X0128500Y0099997D01*
X0128119Y0100916D01*
X0127416Y0101619D01*
X0126497Y0102000D01*
X0125503Y0102000D01*
X0124584Y0101619D01*
X0123881Y0100916D01*
X0123500Y0099997D01*
X0123500Y0099263D01*
X0120237Y0096000D01*
X0119503Y0096000D01*
X0118584Y0095619D01*
X0117881Y0094916D01*
X0117500Y0093997D01*
X0117500Y0093003D01*
X0117881Y0092084D01*
X0117542Y0092902D02*
X0069437Y0092902D01*
X0069958Y0093900D02*
X0117500Y0093900D01*
X0117873Y0094899D02*
X0071434Y0094899D01*
X0072249Y0095897D02*
X0119255Y0095897D01*
X0121133Y0096896D02*
X0072500Y0096896D01*
X0072336Y0097894D02*
X0122132Y0097894D01*
X0123130Y0098893D02*
X0071643Y0098893D01*
X0069371Y0099891D02*
X0123500Y0099891D01*
X0123870Y0100890D02*
X0068373Y0100890D01*
X0067374Y0101888D02*
X0125233Y0101888D01*
X0126767Y0101888D02*
X0190845Y0101888D01*
X0193647Y0100890D02*
X0128130Y0100890D01*
X0128500Y0099891D02*
X0210200Y0099891D01*
X0210200Y0098893D02*
X0128454Y0098893D01*
X0127930Y0097894D02*
X0210200Y0097894D01*
X0210200Y0096896D02*
X0125659Y0096896D01*
X0124660Y0095897D02*
X0166245Y0095897D01*
X0167500Y0095897D02*
X0168500Y0095897D01*
X0168500Y0094899D02*
X0167500Y0094899D01*
X0167500Y0093900D02*
X0168500Y0093900D01*
X0168500Y0092902D02*
X0167500Y0092902D01*
X0164545Y0094899D02*
X0123661Y0094899D01*
X0122663Y0093900D02*
X0163680Y0093900D01*
X0163150Y0092902D02*
X0122458Y0092902D01*
X0121939Y0091903D02*
X0146269Y0091903D01*
X0147731Y0091903D02*
X0162878Y0091903D01*
X0164844Y0083915D02*
X0155827Y0083915D01*
X0156000Y0082917D02*
X0163846Y0082917D01*
X0163383Y0081918D02*
X0155758Y0081918D01*
X0154955Y0080920D02*
X0163000Y0080920D01*
X0163000Y0079921D02*
X0147000Y0079921D01*
X0147000Y0080495D02*
X0147000Y0078505D01*
X0146239Y0076668D01*
X0144832Y0075261D01*
X0142995Y0074500D01*
X0141005Y0074500D01*
X0139168Y0075261D01*
X0137761Y0076668D01*
X0137000Y0078505D01*
X0137000Y0080495D01*
X0137761Y0082332D01*
X0139168Y0083739D01*
X0141005Y0084500D01*
X0142995Y0084500D01*
X0144832Y0083739D01*
X0146239Y0082332D01*
X0147000Y0080495D01*
X0146824Y0080920D02*
X0152045Y0080920D01*
X0151242Y0081918D02*
X0146410Y0081918D01*
X0145654Y0082917D02*
X0151000Y0082917D01*
X0150322Y0083915D02*
X0144406Y0083915D01*
X0139594Y0083915D02*
X0120702Y0083915D01*
X0119298Y0083915D02*
X0111848Y0083915D01*
X0112846Y0082917D02*
X0117881Y0082917D01*
X0115308Y0081918D02*
X0113845Y0081918D01*
X0111316Y0079921D02*
X0106909Y0079921D01*
X0106739Y0080332D02*
X0105332Y0081739D01*
X0103495Y0082500D01*
X0101505Y0082500D01*
X0099668Y0081739D01*
X0098261Y0080332D01*
X0097751Y0079100D01*
X0096663Y0079100D01*
X0094500Y0081263D01*
X0094500Y0081997D01*
X0094119Y0082916D01*
X0093416Y0083619D01*
X0092497Y0084000D01*
X0091503Y0084000D01*
X0090584Y0083619D01*
X0089881Y0082916D01*
X0089500Y0081997D01*
X0089500Y0081003D01*
X0089881Y0080084D01*
X0090584Y0079381D01*
X0091503Y0079000D01*
X0092237Y0079000D01*
X0094400Y0076837D01*
X0095337Y0075900D01*
X0097751Y0075900D01*
X0098261Y0074668D01*
X0099668Y0073261D01*
X0101505Y0072500D01*
X0103495Y0072500D01*
X0105332Y0073261D01*
X0106739Y0074668D01*
X0107500Y0076505D01*
X0107500Y0078495D01*
X0106739Y0080332D01*
X0106151Y0080920D02*
X0110318Y0080920D01*
X0109319Y0081918D02*
X0104899Y0081918D01*
X0107322Y0083915D02*
X0092702Y0083915D01*
X0092551Y0084914D02*
X0047100Y0084914D01*
X0047100Y0085912D02*
X0092037Y0085912D01*
X0092000Y0086911D02*
X0047100Y0086911D01*
X0047445Y0087909D02*
X0092378Y0087909D01*
X0091298Y0083915D02*
X0047100Y0083915D01*
X0046679Y0082917D02*
X0089881Y0082917D01*
X0089500Y0081918D02*
X0045681Y0081918D01*
X0045466Y0080920D02*
X0089534Y0080920D01*
X0090043Y0079921D02*
X0044957Y0079921D01*
X0041043Y0079921D02*
X0003800Y0079921D01*
X0003800Y0078923D02*
X0092315Y0078923D01*
X0093313Y0077924D02*
X0003800Y0077924D01*
X0003800Y0076926D02*
X0094312Y0076926D01*
X0095310Y0075927D02*
X0003800Y0075927D01*
X0003800Y0074929D02*
X0098153Y0074929D01*
X0098999Y0073930D02*
X0003800Y0073930D01*
X0003800Y0072932D02*
X0100464Y0072932D01*
X0104536Y0072932D02*
X0113497Y0072932D01*
X0112499Y0073930D02*
X0106001Y0073930D01*
X0106847Y0074929D02*
X0111946Y0074929D01*
X0111532Y0075927D02*
X0107260Y0075927D01*
X0107500Y0076926D02*
X0111500Y0076926D01*
X0111500Y0077924D02*
X0107500Y0077924D01*
X0107323Y0078923D02*
X0111884Y0078923D01*
X0108321Y0082917D02*
X0094119Y0082917D01*
X0094500Y0081918D02*
X0100101Y0081918D01*
X0098849Y0080920D02*
X0094843Y0080920D01*
X0095842Y0079921D02*
X0098091Y0079921D01*
X0097995Y0069500D02*
X0096005Y0069500D01*
X0094168Y0068739D01*
X0092761Y0067332D01*
X0092000Y0065495D01*
X0092000Y0063505D01*
X0092761Y0061668D01*
X0094168Y0060261D01*
X0096005Y0059500D01*
X0097995Y0059500D01*
X0099832Y0060261D01*
X0101239Y0061668D01*
X0102000Y0063505D01*
X0102000Y0065495D01*
X0101239Y0067332D01*
X0099832Y0068739D01*
X0097995Y0069500D01*
X0099353Y0068937D02*
X0122682Y0068937D01*
X0122500Y0068497D02*
X0122500Y0067503D01*
X0122881Y0066584D01*
X0123584Y0065881D01*
X0124503Y0065500D01*
X0125237Y0065500D01*
X0127000Y0063737D01*
X0127000Y0063003D01*
X0127381Y0062084D01*
X0128084Y0061381D01*
X0129003Y0061000D01*
X0129997Y0061000D01*
X0130916Y0061381D01*
X0131619Y0062084D01*
X0131750Y0062399D01*
X0131881Y0062084D01*
X0132584Y0061381D01*
X0133503Y0061000D01*
X0134237Y0061000D01*
X0135000Y0060237D01*
X0135000Y0059503D01*
X0135381Y0058584D01*
X0136084Y0057881D01*
X0137003Y0057500D01*
X0137997Y0057500D01*
X0138916Y0057881D01*
X0139619Y0058584D01*
X0140000Y0059503D01*
X0140000Y0060497D01*
X0139619Y0061416D01*
X0138916Y0062119D01*
X0137997Y0062500D01*
X0137263Y0062500D01*
X0136500Y0063263D01*
X0136500Y0063997D01*
X0136119Y0064916D01*
X0135416Y0065619D01*
X0134497Y0066000D01*
X0133503Y0066000D01*
X0132584Y0065619D01*
X0131881Y0064916D01*
X0131750Y0064601D01*
X0131619Y0064916D01*
X0130916Y0065619D01*
X0129997Y0066000D01*
X0129263Y0066000D01*
X0127500Y0067763D01*
X0127500Y0068497D01*
X0127119Y0069416D01*
X0126416Y0070119D01*
X0125497Y0070500D01*
X0124503Y0070500D01*
X0123584Y0070119D01*
X0122881Y0069416D01*
X0122500Y0068497D01*
X0122500Y0067939D02*
X0100632Y0067939D01*
X0101401Y0066940D02*
X0122733Y0066940D01*
X0123523Y0065942D02*
X0101815Y0065942D01*
X0102000Y0064943D02*
X0125794Y0064943D01*
X0126792Y0063945D02*
X0102000Y0063945D01*
X0101768Y0062946D02*
X0127023Y0062946D01*
X0127517Y0061948D02*
X0107123Y0061948D01*
X0106997Y0062000D02*
X0106003Y0062000D01*
X0105084Y0061619D01*
X0104381Y0060916D01*
X0104000Y0059997D01*
X0104000Y0059003D01*
X0104381Y0058084D01*
X0105084Y0057381D01*
X0106003Y0057000D01*
X0106737Y0057000D01*
X0113500Y0050237D01*
X0113500Y0049503D01*
X0113881Y0048584D01*
X0114584Y0047881D01*
X0115503Y0047500D01*
X0116497Y0047500D01*
X0117416Y0047881D01*
X0118119Y0048584D01*
X0118500Y0049503D01*
X0118500Y0050497D01*
X0118119Y0051416D01*
X0117416Y0052119D01*
X0116497Y0052500D01*
X0115763Y0052500D01*
X0109000Y0059263D01*
X0109000Y0059997D01*
X0108619Y0060916D01*
X0107916Y0061619D01*
X0106997Y0062000D01*
X0105877Y0061948D02*
X0101355Y0061948D01*
X0100520Y0060949D02*
X0104414Y0060949D01*
X0104000Y0059951D02*
X0099083Y0059951D01*
X0097832Y0058239D02*
X0095995Y0059000D01*
X0094005Y0059000D01*
X0092168Y0058239D01*
X0090761Y0056832D01*
X0090000Y0054995D01*
X0090000Y0053005D01*
X0090761Y0051168D01*
X0092168Y0049761D01*
X0092891Y0049462D01*
X0091761Y0048332D01*
X0091000Y0046495D01*
X0091000Y0044505D01*
X0091761Y0042668D01*
X0093168Y0041261D01*
X0095005Y0040500D01*
X0096995Y0040500D01*
X0098832Y0041261D01*
X0100239Y0042668D01*
X0101000Y0044505D01*
X0101000Y0046495D01*
X0100239Y0048332D01*
X0098832Y0049739D01*
X0098109Y0050038D01*
X0099239Y0051168D01*
X0100000Y0053005D01*
X0100000Y0054995D01*
X0099239Y0056832D01*
X0097832Y0058239D01*
X0098117Y0057954D02*
X0104511Y0057954D01*
X0104021Y0058952D02*
X0096110Y0058952D01*
X0094917Y0059951D02*
X0003800Y0059951D01*
X0003800Y0060949D02*
X0093480Y0060949D01*
X0092645Y0061948D02*
X0003800Y0061948D01*
X0003800Y0062946D02*
X0092232Y0062946D01*
X0092000Y0063945D02*
X0003800Y0063945D01*
X0003800Y0064943D02*
X0092000Y0064943D01*
X0092185Y0065942D02*
X0003800Y0065942D01*
X0003800Y0066940D02*
X0092599Y0066940D01*
X0093368Y0067939D02*
X0003800Y0067939D01*
X0003800Y0068937D02*
X0094647Y0068937D01*
X0093890Y0058952D02*
X0003800Y0058952D01*
X0003800Y0057954D02*
X0091883Y0057954D01*
X0090884Y0056955D02*
X0003800Y0056955D01*
X0003800Y0055957D02*
X0090399Y0055957D01*
X0090000Y0054958D02*
X0003800Y0054958D01*
X0003800Y0053960D02*
X0090000Y0053960D01*
X0090018Y0052961D02*
X0003800Y0052961D01*
X0003800Y0051963D02*
X0090432Y0051963D01*
X0090965Y0050964D02*
X0003800Y0050964D01*
X0003800Y0049966D02*
X0091963Y0049966D01*
X0092396Y0048967D02*
X0003800Y0048967D01*
X0003800Y0047969D02*
X0091611Y0047969D01*
X0091197Y0046970D02*
X0003800Y0046970D01*
X0003800Y0045972D02*
X0091000Y0045972D01*
X0091000Y0044973D02*
X0003800Y0044973D01*
X0003800Y0043975D02*
X0091220Y0043975D01*
X0091633Y0042976D02*
X0003800Y0042976D01*
X0003800Y0041978D02*
X0092451Y0041978D01*
X0093849Y0040979D02*
X0003800Y0040979D01*
X0003800Y0039981D02*
X0210200Y0039981D01*
X0210200Y0040979D02*
X0098151Y0040979D01*
X0099549Y0041978D02*
X0210200Y0041978D01*
X0210200Y0042976D02*
X0100367Y0042976D01*
X0100780Y0043975D02*
X0210200Y0043975D01*
X0210200Y0044973D02*
X0101000Y0044973D01*
X0101000Y0045972D02*
X0210200Y0045972D01*
X0210200Y0046970D02*
X0100803Y0046970D01*
X0100389Y0047969D02*
X0114496Y0047969D01*
X0113722Y0048967D02*
X0099604Y0048967D01*
X0098284Y0049966D02*
X0113500Y0049966D01*
X0112773Y0050964D02*
X0099035Y0050964D01*
X0099568Y0051963D02*
X0111774Y0051963D01*
X0110776Y0052961D02*
X0099982Y0052961D01*
X0100000Y0053960D02*
X0109777Y0053960D01*
X0108779Y0054958D02*
X0100000Y0054958D01*
X0099601Y0055957D02*
X0107780Y0055957D01*
X0106782Y0056955D02*
X0099116Y0056955D01*
X0108586Y0060949D02*
X0134288Y0060949D01*
X0135000Y0059951D02*
X0109000Y0059951D01*
X0109310Y0058952D02*
X0135228Y0058952D01*
X0136011Y0057954D02*
X0110309Y0057954D01*
X0111307Y0056955D02*
X0210200Y0056955D01*
X0210200Y0055957D02*
X0112306Y0055957D01*
X0113304Y0054958D02*
X0210200Y0054958D01*
X0210200Y0053960D02*
X0114303Y0053960D01*
X0115301Y0052961D02*
X0210200Y0052961D01*
X0210200Y0051963D02*
X0136573Y0051963D01*
X0136416Y0052119D02*
X0135497Y0052500D01*
X0134503Y0052500D01*
X0133584Y0052119D01*
X0133064Y0051600D01*
X0131936Y0051600D01*
X0131416Y0052119D01*
X0130497Y0052500D01*
X0129503Y0052500D01*
X0128584Y0052119D01*
X0127881Y0051416D01*
X0127500Y0050497D01*
X0127500Y0049503D01*
X0127881Y0048584D01*
X0128584Y0047881D01*
X0129503Y0047500D01*
X0130497Y0047500D01*
X0131416Y0047881D01*
X0131936Y0048400D01*
X0133064Y0048400D01*
X0133584Y0047881D01*
X0134503Y0047500D01*
X0135497Y0047500D01*
X0136416Y0047881D01*
X0137119Y0048584D01*
X0137500Y0049503D01*
X0137500Y0050497D01*
X0137119Y0051416D01*
X0136416Y0052119D01*
X0137307Y0050964D02*
X0210200Y0050964D01*
X0210200Y0049966D02*
X0137500Y0049966D01*
X0137278Y0048967D02*
X0210200Y0048967D01*
X0210200Y0047969D02*
X0136504Y0047969D01*
X0133496Y0047969D02*
X0131504Y0047969D01*
X0128496Y0047969D02*
X0117504Y0047969D01*
X0118278Y0048967D02*
X0127722Y0048967D01*
X0127500Y0049966D02*
X0118500Y0049966D01*
X0118307Y0050964D02*
X0127693Y0050964D01*
X0128427Y0051963D02*
X0117573Y0051963D01*
X0131573Y0051963D02*
X0133427Y0051963D01*
X0138989Y0057954D02*
X0210200Y0057954D01*
X0210200Y0058952D02*
X0139772Y0058952D01*
X0140000Y0059951D02*
X0210200Y0059951D01*
X0210200Y0060949D02*
X0139813Y0060949D01*
X0140084Y0061881D02*
X0141003Y0061500D01*
X0141997Y0061500D01*
X0142916Y0061881D01*
X0143619Y0062584D01*
X0144000Y0063503D01*
X0144000Y0064000D01*
X0144497Y0064000D01*
X0145416Y0064381D01*
X0146119Y0065084D01*
X0146500Y0066003D01*
X0146500Y0066997D01*
X0146119Y0067916D01*
X0145416Y0068619D01*
X0144497Y0069000D01*
X0143763Y0069000D01*
X0143000Y0069763D01*
X0143000Y0070497D01*
X0142619Y0071416D01*
X0141916Y0072119D01*
X0140997Y0072500D01*
X0140003Y0072500D01*
X0139084Y0072119D01*
X0138381Y0071416D01*
X0138000Y0070497D01*
X0138000Y0070000D01*
X0137503Y0070000D01*
X0136719Y0069675D01*
X0136619Y0069916D01*
X0135916Y0070619D01*
X0134997Y0071000D01*
X0134263Y0071000D01*
X0132500Y0072763D01*
X0132500Y0073497D01*
X0132119Y0074416D01*
X0131416Y0075119D01*
X0130497Y0075500D01*
X0129503Y0075500D01*
X0128584Y0075119D01*
X0127881Y0074416D01*
X0127500Y0073497D01*
X0127500Y0072503D01*
X0127881Y0071584D01*
X0128584Y0070881D01*
X0129503Y0070500D01*
X0130237Y0070500D01*
X0132000Y0068737D01*
X0132000Y0068003D01*
X0132381Y0067084D01*
X0133084Y0066381D01*
X0134003Y0066000D01*
X0134997Y0066000D01*
X0135781Y0066325D01*
X0135881Y0066084D01*
X0136584Y0065381D01*
X0137503Y0065000D01*
X0138237Y0065000D01*
X0139000Y0064237D01*
X0139000Y0063503D01*
X0139381Y0062584D01*
X0140084Y0061881D01*
X0140017Y0061948D02*
X0139088Y0061948D01*
X0139230Y0062946D02*
X0136816Y0062946D01*
X0136500Y0063945D02*
X0139000Y0063945D01*
X0138294Y0064943D02*
X0136092Y0064943D01*
X0136023Y0065942D02*
X0134637Y0065942D01*
X0133363Y0065942D02*
X0130137Y0065942D01*
X0131592Y0064943D02*
X0131908Y0064943D01*
X0132524Y0066940D02*
X0128322Y0066940D01*
X0127500Y0067939D02*
X0132026Y0067939D01*
X0131800Y0068937D02*
X0127318Y0068937D01*
X0126600Y0069936D02*
X0130801Y0069936D01*
X0128530Y0070934D02*
X0003800Y0070934D01*
X0003800Y0069936D02*
X0123400Y0069936D01*
X0127736Y0071933D02*
X0003800Y0071933D01*
X0003800Y0080920D02*
X0040534Y0080920D01*
X0040500Y0081918D02*
X0003800Y0081918D01*
X0003800Y0082917D02*
X0040881Y0082917D01*
X0042298Y0083915D02*
X0003800Y0083915D01*
X0003800Y0084914D02*
X0043900Y0084914D01*
X0043900Y0085912D02*
X0003800Y0085912D01*
X0003800Y0086911D02*
X0043900Y0086911D01*
X0043555Y0087909D02*
X0003800Y0087909D01*
X0003800Y0088908D02*
X0043039Y0088908D01*
X0043000Y0089906D02*
X0003800Y0089906D01*
X0003800Y0090905D02*
X0043376Y0090905D01*
X0044769Y0091903D02*
X0003800Y0091903D01*
X0003800Y0092902D02*
X0065563Y0092902D01*
X0065042Y0093900D02*
X0003800Y0093900D01*
X0003800Y0094899D02*
X0064838Y0094899D01*
X0063840Y0095897D02*
X0003800Y0095897D01*
X0003800Y0096896D02*
X0062841Y0096896D01*
X0061843Y0097894D02*
X0003800Y0097894D01*
X0003800Y0098893D02*
X0060844Y0098893D01*
X0059846Y0099891D02*
X0003800Y0099891D01*
X0003800Y0126851D02*
X0003969Y0126851D01*
X0003800Y0127850D02*
X0004650Y0127850D01*
X0004905Y0128223D02*
X0004905Y0128223D01*
X0005689Y0128848D02*
X0003800Y0128848D01*
X0003800Y0129847D02*
X0006941Y0129847D01*
X0008193Y0130845D02*
X0003800Y0130845D01*
X0003800Y0131844D02*
X0010162Y0131844D01*
X0012706Y0132842D02*
X0003800Y0132842D01*
X0003800Y0133841D02*
X0039551Y0133841D01*
X0039694Y0133737D02*
X0040311Y0133422D01*
X0040970Y0133208D01*
X0041550Y0133116D01*
X0041550Y0137050D01*
X0037616Y0137050D01*
X0037708Y0136470D01*
X0037922Y0135811D01*
X0038237Y0135194D01*
X0038644Y0134634D01*
X0039134Y0134144D01*
X0039694Y0133737D01*
X0038494Y0134839D02*
X0003800Y0134839D01*
X0003800Y0135838D02*
X0037914Y0135838D01*
X0037650Y0136836D02*
X0003800Y0136836D01*
X0003800Y0137835D02*
X0041550Y0137835D01*
X0041550Y0137950D02*
X0041550Y0137050D01*
X0042450Y0137050D01*
X0042450Y0137950D01*
X0041550Y0137950D01*
X0041550Y0141884D01*
X0040970Y0141792D01*
X0040311Y0141578D01*
X0039694Y0141263D01*
X0039134Y0140856D01*
X0038644Y0140366D01*
X0038237Y0139806D01*
X0037922Y0139189D01*
X0037708Y0138530D01*
X0037616Y0137950D01*
X0041550Y0137950D01*
X0041550Y0138833D02*
X0042450Y0138833D01*
X0042450Y0137950D02*
X0042450Y0141884D01*
X0043030Y0141792D01*
X0043689Y0141578D01*
X0044306Y0141263D01*
X0044866Y0140856D01*
X0045356Y0140366D01*
X0045763Y0139806D01*
X0046078Y0139189D01*
X0046292Y0138530D01*
X0046384Y0137950D01*
X0042450Y0137950D01*
X0042450Y0137835D02*
X0047800Y0137835D01*
X0047800Y0138335D02*
X0047800Y0136665D01*
X0048439Y0135121D01*
X0049621Y0133939D01*
X0051165Y0133300D01*
X0052835Y0133300D01*
X0054379Y0133939D01*
X0055561Y0135121D01*
X0056200Y0136665D01*
X0056200Y0138335D01*
X0055561Y0139879D01*
X0054379Y0141061D01*
X0052835Y0141700D01*
X0051165Y0141700D01*
X0049621Y0141061D01*
X0048439Y0139879D01*
X0047800Y0138335D01*
X0048006Y0138833D02*
X0046193Y0138833D01*
X0045745Y0139832D02*
X0048420Y0139832D01*
X0049391Y0140830D02*
X0044892Y0140830D01*
X0042796Y0141829D02*
X0210200Y0141829D01*
X0210200Y0142827D02*
X0166363Y0142827D01*
X0166619Y0143084D02*
X0167000Y0144003D01*
X0167000Y0144737D01*
X0167763Y0145500D01*
X0168497Y0145500D01*
X0169416Y0145881D01*
X0170119Y0146584D01*
X0170500Y0147503D01*
X0170500Y0148497D01*
X0170119Y0149416D01*
X0169416Y0150119D01*
X0168497Y0150500D01*
X0167503Y0150500D01*
X0166584Y0150119D01*
X0165881Y0149416D01*
X0165500Y0148497D01*
X0165500Y0147763D01*
X0164737Y0147000D01*
X0164003Y0147000D01*
X0163084Y0146619D01*
X0162381Y0145916D01*
X0162000Y0144997D01*
X0162000Y0144003D01*
X0162381Y0143084D01*
X0163084Y0142381D01*
X0164003Y0142000D01*
X0164997Y0142000D01*
X0165916Y0142381D01*
X0166619Y0143084D01*
X0166927Y0143826D02*
X0210200Y0143826D01*
X0210200Y0144824D02*
X0167087Y0144824D01*
X0169277Y0145823D02*
X0210200Y0145823D01*
X0210200Y0146821D02*
X0170218Y0146821D01*
X0170500Y0147820D02*
X0210200Y0147820D01*
X0210200Y0148818D02*
X0170367Y0148818D01*
X0169719Y0149817D02*
X0210200Y0149817D01*
X0210200Y0150815D02*
X0092715Y0150815D01*
X0092619Y0150584D02*
X0093000Y0151503D01*
X0093000Y0152497D01*
X0092619Y0153416D01*
X0091916Y0154119D01*
X0090997Y0154500D01*
X0090003Y0154500D01*
X0089084Y0154119D01*
X0088381Y0153416D01*
X0088000Y0152497D01*
X0088000Y0151763D01*
X0084237Y0148000D01*
X0083503Y0148000D01*
X0082584Y0147619D01*
X0081881Y0146916D01*
X0081500Y0145997D01*
X0081500Y0145003D01*
X0081881Y0144084D01*
X0082584Y0143381D01*
X0083503Y0143000D01*
X0084497Y0143000D01*
X0085416Y0143381D01*
X0086119Y0144084D01*
X0086500Y0145003D01*
X0086500Y0145737D01*
X0090263Y0149500D01*
X0090997Y0149500D01*
X0091916Y0149881D01*
X0092619Y0150584D01*
X0091762Y0149817D02*
X0166281Y0149817D01*
X0165633Y0148818D02*
X0089581Y0148818D01*
X0088583Y0147820D02*
X0165500Y0147820D01*
X0163571Y0146821D02*
X0087584Y0146821D01*
X0086586Y0145823D02*
X0162342Y0145823D01*
X0162000Y0144824D02*
X0086426Y0144824D01*
X0085861Y0143826D02*
X0162073Y0143826D01*
X0162637Y0142827D02*
X0003800Y0142827D01*
X0003800Y0141829D02*
X0041204Y0141829D01*
X0041550Y0141829D02*
X0042450Y0141829D01*
X0042450Y0140830D02*
X0041550Y0140830D01*
X0041550Y0139832D02*
X0042450Y0139832D01*
X0042450Y0137050D02*
X0046384Y0137050D01*
X0046292Y0136470D01*
X0046078Y0135811D01*
X0045763Y0135194D01*
X0045356Y0134634D01*
X0044866Y0134144D01*
X0044306Y0133737D01*
X0043689Y0133422D01*
X0043030Y0133208D01*
X0042450Y0133116D01*
X0042450Y0137050D01*
X0042450Y0136836D02*
X0041550Y0136836D01*
X0041550Y0135838D02*
X0042450Y0135838D01*
X0042450Y0134839D02*
X0041550Y0134839D01*
X0041550Y0133841D02*
X0042450Y0133841D01*
X0044449Y0133841D02*
X0049859Y0133841D01*
X0048721Y0134839D02*
X0045506Y0134839D01*
X0046086Y0135838D02*
X0048142Y0135838D01*
X0047800Y0136836D02*
X0046350Y0136836D01*
X0039108Y0140830D02*
X0003800Y0140830D01*
X0003800Y0139832D02*
X0038255Y0139832D01*
X0037807Y0138833D02*
X0003800Y0138833D01*
X0003800Y0143826D02*
X0082139Y0143826D01*
X0081574Y0144824D02*
X0003800Y0144824D01*
X0003800Y0145823D02*
X0081500Y0145823D01*
X0081841Y0146821D02*
X0003800Y0146821D01*
X0003800Y0147820D02*
X0083068Y0147820D01*
X0085056Y0148818D02*
X0003800Y0148818D01*
X0003800Y0149817D02*
X0086054Y0149817D01*
X0087053Y0150815D02*
X0003800Y0150815D01*
X0003800Y0151814D02*
X0088000Y0151814D01*
X0088131Y0152812D02*
X0003800Y0152812D01*
X0003800Y0153811D02*
X0088775Y0153811D01*
X0092225Y0153811D02*
X0142287Y0153811D01*
X0142381Y0153584D02*
X0143084Y0152881D01*
X0144003Y0152500D01*
X0144997Y0152500D01*
X0145916Y0152881D01*
X0146619Y0153584D01*
X0147000Y0154503D01*
X0147000Y0155497D01*
X0146619Y0156416D01*
X0145916Y0157119D01*
X0144997Y0157500D01*
X0144263Y0157500D01*
X0142000Y0159763D01*
X0142000Y0160497D01*
X0141619Y0161416D01*
X0140916Y0162119D01*
X0139997Y0162500D01*
X0139003Y0162500D01*
X0138084Y0162119D01*
X0137381Y0161416D01*
X0137000Y0160497D01*
X0137000Y0159503D01*
X0137381Y0158584D01*
X0138084Y0157881D01*
X0139003Y0157500D01*
X0139737Y0157500D01*
X0142000Y0155237D01*
X0142000Y0154503D01*
X0142381Y0153584D01*
X0143248Y0152812D02*
X0092869Y0152812D01*
X0093000Y0151814D02*
X0210200Y0151814D01*
X0210200Y0152812D02*
X0145752Y0152812D01*
X0146713Y0153811D02*
X0210200Y0153811D01*
X0210200Y0154809D02*
X0147000Y0154809D01*
X0146871Y0155808D02*
X0210200Y0155808D01*
X0210200Y0156806D02*
X0146229Y0156806D01*
X0143958Y0157805D02*
X0210200Y0157805D01*
X0210200Y0158803D02*
X0142959Y0158803D01*
X0142000Y0159802D02*
X0210200Y0159802D01*
X0210200Y0160801D02*
X0141874Y0160801D01*
X0141236Y0161799D02*
X0210200Y0161799D01*
X0210200Y0162798D02*
X0103560Y0162798D01*
X0103763Y0163000D02*
X0101500Y0160737D01*
X0101500Y0160003D01*
X0101119Y0159084D01*
X0100416Y0158381D01*
X0099497Y0158000D01*
X0098503Y0158000D01*
X0097584Y0158381D01*
X0096881Y0159084D01*
X0096500Y0160003D01*
X0096500Y0160997D01*
X0096881Y0161916D01*
X0097584Y0162619D01*
X0098503Y0163000D01*
X0099237Y0163000D01*
X0101500Y0165263D01*
X0101500Y0165997D01*
X0101881Y0166916D01*
X0102584Y0167619D01*
X0103503Y0168000D01*
X0104497Y0168000D01*
X0105416Y0167619D01*
X0106119Y0166916D01*
X0106500Y0165997D01*
X0106500Y0165003D01*
X0106119Y0164084D01*
X0105416Y0163381D01*
X0104497Y0163000D01*
X0103763Y0163000D01*
X0102562Y0161799D02*
X0137763Y0161799D01*
X0137126Y0160801D02*
X0101563Y0160801D01*
X0101417Y0159802D02*
X0137000Y0159802D01*
X0137290Y0158803D02*
X0100839Y0158803D01*
X0097161Y0158803D02*
X0085839Y0158803D01*
X0086119Y0159084D02*
X0086500Y0160003D01*
X0086500Y0160737D01*
X0090263Y0164500D01*
X0090997Y0164500D01*
X0091916Y0164881D01*
X0092619Y0165584D01*
X0093000Y0166503D01*
X0093000Y0167497D01*
X0092619Y0168416D01*
X0092036Y0169000D01*
X0092619Y0169584D01*
X0093000Y0170503D01*
X0093000Y0171497D01*
X0092619Y0172416D01*
X0091916Y0173119D01*
X0090997Y0173500D01*
X0090003Y0173500D01*
X0089084Y0173119D01*
X0088381Y0172416D01*
X0088000Y0171497D01*
X0088000Y0170763D01*
X0084237Y0167000D01*
X0083503Y0167000D01*
X0082584Y0166619D01*
X0081881Y0165916D01*
X0081500Y0164997D01*
X0081500Y0164003D01*
X0081881Y0163084D01*
X0082464Y0162500D01*
X0081881Y0161916D01*
X0081500Y0160997D01*
X0081500Y0160003D01*
X0081881Y0159084D01*
X0082584Y0158381D01*
X0083503Y0158000D01*
X0084497Y0158000D01*
X0085416Y0158381D01*
X0086119Y0159084D01*
X0086417Y0159802D02*
X0096583Y0159802D01*
X0096500Y0160801D02*
X0086563Y0160801D01*
X0087562Y0161799D02*
X0096832Y0161799D01*
X0098014Y0162798D02*
X0088560Y0162798D01*
X0089559Y0163796D02*
X0100033Y0163796D01*
X0101032Y0164795D02*
X0091708Y0164795D01*
X0092706Y0165793D02*
X0101500Y0165793D01*
X0101829Y0166792D02*
X0093000Y0166792D01*
X0092879Y0167790D02*
X0102996Y0167790D01*
X0105004Y0167790D02*
X0210200Y0167790D01*
X0210200Y0166792D02*
X0106171Y0166792D01*
X0106500Y0165793D02*
X0210200Y0165793D01*
X0210200Y0164795D02*
X0106414Y0164795D01*
X0105832Y0163796D02*
X0210200Y0163796D01*
X0210200Y0168789D02*
X0092247Y0168789D01*
X0092704Y0169787D02*
X0210200Y0169787D01*
X0210200Y0170786D02*
X0199282Y0170786D01*
X0203277Y0171784D02*
X0210200Y0171784D01*
X0210200Y0172783D02*
X0205006Y0172783D01*
X0206736Y0173781D02*
X0210200Y0173781D01*
X0210200Y0174780D02*
X0207918Y0174780D01*
X0208845Y0175778D02*
X0210200Y0175778D01*
X0210200Y0176777D02*
X0209771Y0176777D01*
X0195037Y0170786D02*
X0093000Y0170786D01*
X0092881Y0171784D02*
X0191111Y0171784D01*
X0188660Y0172783D02*
X0092253Y0172783D01*
X0088747Y0172783D02*
X0025006Y0172783D01*
X0023277Y0171784D02*
X0088119Y0171784D01*
X0088000Y0170786D02*
X0019282Y0170786D01*
X0015037Y0170786D02*
X0003800Y0170786D01*
X0003800Y0171784D02*
X0011111Y0171784D01*
X0008660Y0172783D02*
X0003800Y0172783D01*
X0003800Y0173781D02*
X0007408Y0173781D01*
X0006155Y0174780D02*
X0003800Y0174780D01*
X0003800Y0175778D02*
X0004904Y0175778D01*
X0004223Y0176777D02*
X0003800Y0176777D01*
X0003800Y0169787D02*
X0087024Y0169787D01*
X0086026Y0168789D02*
X0003800Y0168789D01*
X0003800Y0167790D02*
X0085027Y0167790D01*
X0083000Y0166792D02*
X0003800Y0166792D01*
X0003800Y0165793D02*
X0081830Y0165793D01*
X0081500Y0164795D02*
X0003800Y0164795D01*
X0003800Y0163796D02*
X0081586Y0163796D01*
X0082167Y0162798D02*
X0003800Y0162798D01*
X0003800Y0161799D02*
X0081832Y0161799D01*
X0081500Y0160801D02*
X0003800Y0160801D01*
X0003800Y0159802D02*
X0081583Y0159802D01*
X0082161Y0158803D02*
X0003800Y0158803D01*
X0003800Y0157805D02*
X0138266Y0157805D01*
X0140431Y0156806D02*
X0003800Y0156806D01*
X0003800Y0155808D02*
X0141429Y0155808D01*
X0142000Y0154809D02*
X0003800Y0154809D01*
X0020913Y0132842D02*
X0153350Y0132842D01*
X0153381Y0132916D02*
X0153000Y0131997D01*
X0153000Y0131003D01*
X0153381Y0130084D01*
X0154084Y0129381D01*
X0155003Y0129000D01*
X0155737Y0129000D01*
X0158000Y0126737D01*
X0158000Y0126003D01*
X0158381Y0125084D01*
X0159084Y0124381D01*
X0160003Y0124000D01*
X0160997Y0124000D01*
X0161916Y0124381D01*
X0162619Y0125084D01*
X0163000Y0126003D01*
X0163000Y0126997D01*
X0162619Y0127916D01*
X0161916Y0128619D01*
X0160997Y0129000D01*
X0160263Y0129000D01*
X0158000Y0131263D01*
X0158000Y0131997D01*
X0157619Y0132916D01*
X0156916Y0133619D01*
X0155997Y0134000D01*
X0155003Y0134000D01*
X0154084Y0133619D01*
X0153381Y0132916D01*
X0152835Y0133300D02*
X0154379Y0133939D01*
X0155561Y0135121D01*
X0156200Y0136665D01*
X0156200Y0138335D01*
X0155561Y0139879D01*
X0154379Y0141061D01*
X0152835Y0141700D01*
X0151165Y0141700D01*
X0149621Y0141061D01*
X0148439Y0139879D01*
X0147800Y0138335D01*
X0147800Y0136665D01*
X0148439Y0135121D01*
X0149621Y0133939D01*
X0151165Y0133300D01*
X0152835Y0133300D01*
X0154141Y0133841D02*
X0154618Y0133841D01*
X0155279Y0134839D02*
X0158721Y0134839D01*
X0158439Y0135121D02*
X0159621Y0133939D01*
X0161165Y0133300D01*
X0162835Y0133300D01*
X0164379Y0133939D01*
X0165561Y0135121D01*
X0166200Y0136665D01*
X0166200Y0138335D01*
X0165561Y0139879D01*
X0164379Y0141061D01*
X0162835Y0141700D01*
X0161165Y0141700D01*
X0159621Y0141061D01*
X0158439Y0139879D01*
X0157800Y0138335D01*
X0157800Y0136665D01*
X0158439Y0135121D01*
X0158142Y0135838D02*
X0155858Y0135838D01*
X0156200Y0136836D02*
X0157800Y0136836D01*
X0157800Y0137835D02*
X0156200Y0137835D01*
X0155994Y0138833D02*
X0158006Y0138833D01*
X0158420Y0139832D02*
X0155580Y0139832D01*
X0154609Y0140830D02*
X0159391Y0140830D01*
X0164609Y0140830D02*
X0169391Y0140830D01*
X0169621Y0141061D02*
X0168439Y0139879D01*
X0167800Y0138335D01*
X0167800Y0136665D01*
X0168439Y0135121D01*
X0169621Y0133939D01*
X0171165Y0133300D01*
X0172835Y0133300D01*
X0174379Y0133939D01*
X0175561Y0135121D01*
X0176200Y0136665D01*
X0176200Y0138335D01*
X0175561Y0139879D01*
X0174379Y0141061D01*
X0172835Y0141700D01*
X0171165Y0141700D01*
X0169621Y0141061D01*
X0168420Y0139832D02*
X0165580Y0139832D01*
X0165994Y0138833D02*
X0168006Y0138833D01*
X0167800Y0137835D02*
X0166200Y0137835D01*
X0166200Y0136836D02*
X0167800Y0136836D01*
X0168142Y0135838D02*
X0165858Y0135838D01*
X0165279Y0134839D02*
X0168721Y0134839D01*
X0169859Y0133841D02*
X0164141Y0133841D01*
X0159859Y0133841D02*
X0156382Y0133841D01*
X0157650Y0132842D02*
X0192706Y0132842D01*
X0190162Y0131844D02*
X0158000Y0131844D01*
X0158418Y0130845D02*
X0188193Y0130845D01*
X0186941Y0129847D02*
X0159416Y0129847D01*
X0161364Y0128848D02*
X0185689Y0128848D01*
X0184650Y0127850D02*
X0162647Y0127850D01*
X0163000Y0126851D02*
X0171816Y0126851D01*
X0171147Y0125853D02*
X0162938Y0125853D01*
X0162390Y0124854D02*
X0171000Y0124854D01*
X0171268Y0123856D02*
X0068352Y0123856D01*
X0067681Y0124854D02*
X0158610Y0124854D01*
X0158062Y0125853D02*
X0030846Y0125853D01*
X0031327Y0124854D02*
X0064319Y0124854D01*
X0063648Y0123856D02*
X0031808Y0123856D01*
X0032288Y0122857D02*
X0063500Y0122857D01*
X0061661Y0121859D02*
X0032768Y0121859D01*
X0032918Y0120860D02*
X0060357Y0120860D01*
X0060000Y0119862D02*
X0033069Y0119862D01*
X0033219Y0118863D02*
X0060058Y0118863D01*
X0067699Y0112872D02*
X0071301Y0112872D01*
X0070302Y0111873D02*
X0068698Y0111873D01*
X0069135Y0110875D02*
X0069865Y0110875D01*
X0069500Y0109876D02*
X0069500Y0109876D01*
X0069500Y0108878D02*
X0069500Y0108878D01*
X0069448Y0107879D02*
X0069552Y0107879D01*
X0069966Y0106881D02*
X0069034Y0106881D01*
X0068453Y0105882D02*
X0070547Y0105882D01*
X0071545Y0104884D02*
X0067455Y0104884D01*
X0077455Y0104884D02*
X0081545Y0104884D01*
X0080547Y0105882D02*
X0078453Y0105882D01*
X0079034Y0106881D02*
X0079966Y0106881D01*
X0079552Y0107879D02*
X0079448Y0107879D01*
X0079500Y0108878D02*
X0079500Y0108878D01*
X0079500Y0109876D02*
X0079500Y0109876D01*
X0079135Y0110875D02*
X0079865Y0110875D01*
X0080302Y0111873D02*
X0078698Y0111873D01*
X0077699Y0112872D02*
X0081301Y0112872D01*
X0083193Y0113870D02*
X0076406Y0113870D01*
X0076945Y0114869D02*
X0096368Y0114869D01*
X0095370Y0115868D02*
X0077130Y0115868D01*
X0079381Y0116866D02*
X0093119Y0116866D01*
X0092264Y0117865D02*
X0080236Y0117865D01*
X0080500Y0118863D02*
X0092000Y0118863D01*
X0092151Y0119862D02*
X0080349Y0119862D01*
X0079675Y0120860D02*
X0092825Y0120860D01*
X0097367Y0113870D02*
X0085807Y0113870D01*
X0087699Y0112872D02*
X0098365Y0112872D01*
X0098554Y0111873D02*
X0088698Y0111873D01*
X0089135Y0110875D02*
X0099090Y0110875D01*
X0102910Y0110875D02*
X0139365Y0110875D01*
X0139000Y0109876D02*
X0089500Y0109876D01*
X0089500Y0108878D02*
X0139000Y0108878D01*
X0139052Y0107879D02*
X0089448Y0107879D01*
X0089034Y0106881D02*
X0139466Y0106881D01*
X0140047Y0105882D02*
X0088453Y0105882D01*
X0087455Y0104884D02*
X0141045Y0104884D01*
X0146955Y0104884D02*
X0152045Y0104884D01*
X0151047Y0105882D02*
X0147953Y0105882D01*
X0148534Y0106881D02*
X0150466Y0106881D01*
X0150052Y0107879D02*
X0148948Y0107879D01*
X0149000Y0108878D02*
X0150000Y0108878D01*
X0150000Y0109876D02*
X0149000Y0109876D01*
X0148635Y0110875D02*
X0150365Y0110875D01*
X0150802Y0111873D02*
X0148198Y0111873D01*
X0147199Y0112872D02*
X0151801Y0112872D01*
X0140801Y0112872D02*
X0103500Y0112872D01*
X0103446Y0111873D02*
X0139802Y0111873D01*
X0155889Y0128848D02*
X0028264Y0128848D01*
X0029190Y0127850D02*
X0156888Y0127850D01*
X0157886Y0126851D02*
X0030117Y0126851D01*
X0027337Y0129847D02*
X0153618Y0129847D01*
X0153065Y0130845D02*
X0025651Y0130845D01*
X0023921Y0131844D02*
X0153000Y0131844D01*
X0149859Y0133841D02*
X0144141Y0133841D01*
X0144379Y0133939D02*
X0142835Y0133300D01*
X0141165Y0133300D01*
X0139621Y0133939D01*
X0138439Y0135121D01*
X0137800Y0136665D01*
X0137800Y0138335D01*
X0138439Y0139879D01*
X0139621Y0141061D01*
X0141165Y0141700D01*
X0142835Y0141700D01*
X0144379Y0141061D01*
X0145561Y0139879D01*
X0146200Y0138335D01*
X0146200Y0136665D01*
X0145561Y0135121D01*
X0144379Y0133939D01*
X0145279Y0134839D02*
X0148721Y0134839D01*
X0148142Y0135838D02*
X0145858Y0135838D01*
X0146200Y0136836D02*
X0147800Y0136836D01*
X0147800Y0137835D02*
X0146200Y0137835D01*
X0145994Y0138833D02*
X0148006Y0138833D01*
X0148420Y0139832D02*
X0145580Y0139832D01*
X0144609Y0140830D02*
X0149391Y0140830D01*
X0139391Y0140830D02*
X0134609Y0140830D01*
X0134379Y0141061D02*
X0132835Y0141700D01*
X0131165Y0141700D01*
X0129621Y0141061D01*
X0128439Y0139879D01*
X0127800Y0138335D01*
X0127800Y0136665D01*
X0128439Y0135121D01*
X0129621Y0133939D01*
X0131165Y0133300D01*
X0132835Y0133300D01*
X0134379Y0133939D01*
X0135561Y0135121D01*
X0136200Y0136665D01*
X0136200Y0138335D01*
X0135561Y0139879D01*
X0134379Y0141061D01*
X0135580Y0139832D02*
X0138420Y0139832D01*
X0138006Y0138833D02*
X0135994Y0138833D01*
X0136200Y0137835D02*
X0137800Y0137835D01*
X0137800Y0136836D02*
X0136200Y0136836D01*
X0135858Y0135838D02*
X0138142Y0135838D01*
X0138721Y0134839D02*
X0135279Y0134839D01*
X0134141Y0133841D02*
X0139859Y0133841D01*
X0129859Y0133841D02*
X0124141Y0133841D01*
X0124379Y0133939D02*
X0125561Y0135121D01*
X0126200Y0136665D01*
X0126200Y0138335D01*
X0125561Y0139879D01*
X0124379Y0141061D01*
X0122835Y0141700D01*
X0121165Y0141700D01*
X0119621Y0141061D01*
X0118439Y0139879D01*
X0117800Y0138335D01*
X0117800Y0136665D01*
X0118439Y0135121D01*
X0119621Y0133939D01*
X0121165Y0133300D01*
X0122835Y0133300D01*
X0124379Y0133939D01*
X0125279Y0134839D02*
X0128721Y0134839D01*
X0128142Y0135838D02*
X0125858Y0135838D01*
X0126200Y0136836D02*
X0127800Y0136836D01*
X0127800Y0137835D02*
X0126200Y0137835D01*
X0125994Y0138833D02*
X0128006Y0138833D01*
X0128420Y0139832D02*
X0125580Y0139832D01*
X0124609Y0140830D02*
X0129391Y0140830D01*
X0119391Y0140830D02*
X0114609Y0140830D01*
X0114379Y0141061D02*
X0115561Y0139879D01*
X0116200Y0138335D01*
X0116200Y0136665D01*
X0115561Y0135121D01*
X0114379Y0133939D01*
X0112835Y0133300D01*
X0111165Y0133300D01*
X0109621Y0133939D01*
X0108439Y0135121D01*
X0107800Y0136665D01*
X0107800Y0138335D01*
X0108439Y0139879D01*
X0109621Y0141061D01*
X0111165Y0141700D01*
X0112835Y0141700D01*
X0114379Y0141061D01*
X0115580Y0139832D02*
X0118420Y0139832D01*
X0118006Y0138833D02*
X0115994Y0138833D01*
X0116200Y0137835D02*
X0117800Y0137835D01*
X0117800Y0136836D02*
X0116200Y0136836D01*
X0115858Y0135838D02*
X0118142Y0135838D01*
X0118721Y0134839D02*
X0115279Y0134839D01*
X0114141Y0133841D02*
X0119859Y0133841D01*
X0109859Y0133841D02*
X0104141Y0133841D01*
X0104379Y0133939D02*
X0105561Y0135121D01*
X0106200Y0136665D01*
X0106200Y0138335D01*
X0105561Y0139879D01*
X0104379Y0141061D01*
X0102835Y0141700D01*
X0101165Y0141700D01*
X0099621Y0141061D01*
X0098439Y0139879D01*
X0097800Y0138335D01*
X0097800Y0136665D01*
X0098439Y0135121D01*
X0099621Y0133939D01*
X0101165Y0133300D01*
X0102835Y0133300D01*
X0104379Y0133939D01*
X0105279Y0134839D02*
X0108721Y0134839D01*
X0108142Y0135838D02*
X0105858Y0135838D01*
X0106200Y0136836D02*
X0107800Y0136836D01*
X0107800Y0137835D02*
X0106200Y0137835D01*
X0105994Y0138833D02*
X0108006Y0138833D01*
X0108420Y0139832D02*
X0105580Y0139832D01*
X0104609Y0140830D02*
X0109391Y0140830D01*
X0099391Y0140830D02*
X0094609Y0140830D01*
X0094379Y0141061D02*
X0092835Y0141700D01*
X0091165Y0141700D01*
X0089621Y0141061D01*
X0088439Y0139879D01*
X0087800Y0138335D01*
X0087800Y0136665D01*
X0088439Y0135121D01*
X0089621Y0133939D01*
X0091165Y0133300D01*
X0092835Y0133300D01*
X0094379Y0133939D01*
X0095561Y0135121D01*
X0096200Y0136665D01*
X0096200Y0138335D01*
X0095561Y0139879D01*
X0094379Y0141061D01*
X0095580Y0139832D02*
X0098420Y0139832D01*
X0098006Y0138833D02*
X0095994Y0138833D01*
X0096200Y0137835D02*
X0097800Y0137835D01*
X0097800Y0136836D02*
X0096200Y0136836D01*
X0095858Y0135838D02*
X0098142Y0135838D01*
X0098721Y0134839D02*
X0095279Y0134839D01*
X0094141Y0133841D02*
X0099859Y0133841D01*
X0089859Y0133841D02*
X0084141Y0133841D01*
X0084379Y0133939D02*
X0082835Y0133300D01*
X0081165Y0133300D01*
X0079621Y0133939D01*
X0078439Y0135121D01*
X0077800Y0136665D01*
X0077800Y0138335D01*
X0078439Y0139879D01*
X0079621Y0141061D01*
X0081165Y0141700D01*
X0082835Y0141700D01*
X0084379Y0141061D01*
X0085561Y0139879D01*
X0086200Y0138335D01*
X0086200Y0136665D01*
X0085561Y0135121D01*
X0084379Y0133939D01*
X0085279Y0134839D02*
X0088721Y0134839D01*
X0088142Y0135838D02*
X0085858Y0135838D01*
X0086200Y0136836D02*
X0087800Y0136836D01*
X0087800Y0137835D02*
X0086200Y0137835D01*
X0085994Y0138833D02*
X0088006Y0138833D01*
X0088420Y0139832D02*
X0085580Y0139832D01*
X0084609Y0140830D02*
X0089391Y0140830D01*
X0079391Y0140830D02*
X0074609Y0140830D01*
X0074379Y0141061D02*
X0072835Y0141700D01*
X0071165Y0141700D01*
X0069621Y0141061D01*
X0068439Y0139879D01*
X0067800Y0138335D01*
X0067800Y0136665D01*
X0068439Y0135121D01*
X0069621Y0133939D01*
X0071165Y0133300D01*
X0072835Y0133300D01*
X0074379Y0133939D01*
X0075561Y0135121D01*
X0076200Y0136665D01*
X0076200Y0138335D01*
X0075561Y0139879D01*
X0074379Y0141061D01*
X0075580Y0139832D02*
X0078420Y0139832D01*
X0078006Y0138833D02*
X0075994Y0138833D01*
X0076200Y0137835D02*
X0077800Y0137835D01*
X0077800Y0136836D02*
X0076200Y0136836D01*
X0075858Y0135838D02*
X0078142Y0135838D01*
X0078721Y0134839D02*
X0075279Y0134839D01*
X0074141Y0133841D02*
X0079859Y0133841D01*
X0069859Y0133841D02*
X0064141Y0133841D01*
X0064379Y0133939D02*
X0062835Y0133300D01*
X0061165Y0133300D01*
X0059621Y0133939D01*
X0058439Y0135121D01*
X0057800Y0136665D01*
X0057800Y0138335D01*
X0058439Y0139879D01*
X0059621Y0141061D01*
X0061165Y0141700D01*
X0062835Y0141700D01*
X0064379Y0141061D01*
X0065561Y0139879D01*
X0066200Y0138335D01*
X0066200Y0136665D01*
X0065561Y0135121D01*
X0064379Y0133939D01*
X0065279Y0134839D02*
X0068721Y0134839D01*
X0068142Y0135838D02*
X0065858Y0135838D01*
X0066200Y0136836D02*
X0067800Y0136836D01*
X0067800Y0137835D02*
X0066200Y0137835D01*
X0065994Y0138833D02*
X0068006Y0138833D01*
X0068420Y0139832D02*
X0065580Y0139832D01*
X0064609Y0140830D02*
X0069391Y0140830D01*
X0059391Y0140830D02*
X0054609Y0140830D01*
X0055580Y0139832D02*
X0058420Y0139832D01*
X0058006Y0138833D02*
X0055994Y0138833D01*
X0056200Y0137835D02*
X0057800Y0137835D01*
X0057800Y0136836D02*
X0056200Y0136836D01*
X0055858Y0135838D02*
X0058142Y0135838D01*
X0058721Y0134839D02*
X0055279Y0134839D01*
X0054141Y0133841D02*
X0059859Y0133841D01*
X0069342Y0122857D02*
X0172141Y0122857D01*
X0176000Y0124854D02*
X0182608Y0124854D01*
X0182040Y0123856D02*
X0176907Y0123856D01*
X0177906Y0122857D02*
X0181732Y0122857D01*
X0181424Y0121859D02*
X0180177Y0121859D01*
X0180850Y0120860D02*
X0181116Y0120860D01*
X0183289Y0125853D02*
X0175853Y0125853D01*
X0175184Y0126851D02*
X0183969Y0126851D01*
X0175279Y0134839D02*
X0210200Y0134839D01*
X0210200Y0133841D02*
X0174141Y0133841D01*
X0175858Y0135838D02*
X0210200Y0135838D01*
X0210200Y0136836D02*
X0176200Y0136836D01*
X0176200Y0137835D02*
X0210200Y0137835D01*
X0210200Y0138833D02*
X0175994Y0138833D01*
X0175580Y0139832D02*
X0210200Y0139832D01*
X0210200Y0140830D02*
X0174609Y0140830D01*
X0200913Y0132842D02*
X0210200Y0132842D01*
X0210200Y0131844D02*
X0203921Y0131844D01*
X0205651Y0130845D02*
X0210200Y0130845D01*
X0210200Y0129847D02*
X0207337Y0129847D01*
X0208264Y0128848D02*
X0210200Y0128848D01*
X0210200Y0127850D02*
X0209190Y0127850D01*
X0210117Y0126851D02*
X0210200Y0126851D01*
X0210200Y0106881D02*
X0209868Y0106881D01*
X0210200Y0105882D02*
X0208942Y0105882D01*
X0208015Y0104884D02*
X0210200Y0104884D01*
X0210200Y0103885D02*
X0206916Y0103885D01*
X0205187Y0102887D02*
X0210200Y0102887D01*
X0210200Y0101888D02*
X0203457Y0101888D01*
X0199739Y0100890D02*
X0210200Y0100890D01*
X0210200Y0083915D02*
X0171156Y0083915D01*
X0172154Y0082917D02*
X0210200Y0082917D01*
X0210200Y0081918D02*
X0172617Y0081918D01*
X0173000Y0080920D02*
X0210200Y0080920D01*
X0210200Y0079921D02*
X0173000Y0079921D01*
X0172966Y0078923D02*
X0210200Y0078923D01*
X0210200Y0077924D02*
X0172552Y0077924D01*
X0171997Y0076926D02*
X0210200Y0076926D01*
X0210200Y0075927D02*
X0170998Y0075927D01*
X0166119Y0073916D02*
X0166500Y0072997D01*
X0166500Y0072263D01*
X0169263Y0069500D01*
X0169997Y0069500D01*
X0170916Y0069119D01*
X0171619Y0068416D01*
X0172000Y0067497D01*
X0172000Y0066503D01*
X0171619Y0065584D01*
X0170916Y0064881D01*
X0169997Y0064500D01*
X0169003Y0064500D01*
X0168084Y0064881D01*
X0167381Y0065584D01*
X0167000Y0066503D01*
X0167000Y0067237D01*
X0164237Y0070000D01*
X0163503Y0070000D01*
X0162584Y0070381D01*
X0161881Y0071084D01*
X0161500Y0072003D01*
X0161500Y0072997D01*
X0161881Y0073916D01*
X0162584Y0074619D01*
X0163503Y0075000D01*
X0164497Y0075000D01*
X0165416Y0074619D01*
X0166119Y0073916D01*
X0166105Y0073930D02*
X0210200Y0073930D01*
X0210200Y0072932D02*
X0166500Y0072932D01*
X0166830Y0071933D02*
X0210200Y0071933D01*
X0210200Y0070934D02*
X0167828Y0070934D01*
X0168827Y0069936D02*
X0210200Y0069936D01*
X0210200Y0068937D02*
X0171098Y0068937D01*
X0171817Y0067939D02*
X0210200Y0067939D01*
X0210200Y0066940D02*
X0172000Y0066940D01*
X0171768Y0065942D02*
X0210200Y0065942D01*
X0210200Y0064943D02*
X0170979Y0064943D01*
X0168021Y0064943D02*
X0145979Y0064943D01*
X0146475Y0065942D02*
X0167232Y0065942D01*
X0167000Y0066940D02*
X0146500Y0066940D01*
X0146097Y0067939D02*
X0166298Y0067939D01*
X0165300Y0068937D02*
X0144648Y0068937D01*
X0143000Y0069936D02*
X0164301Y0069936D01*
X0162030Y0070934D02*
X0142819Y0070934D01*
X0142103Y0071933D02*
X0161529Y0071933D01*
X0161500Y0072932D02*
X0132500Y0072932D01*
X0132321Y0073930D02*
X0161895Y0073930D01*
X0163330Y0074929D02*
X0144029Y0074929D01*
X0145498Y0075927D02*
X0165002Y0075927D01*
X0164670Y0074929D02*
X0210200Y0074929D01*
X0210200Y0063945D02*
X0144000Y0063945D01*
X0143770Y0062946D02*
X0210200Y0062946D01*
X0210200Y0061948D02*
X0142983Y0061948D01*
X0137348Y0069936D02*
X0136600Y0069936D01*
X0135155Y0070934D02*
X0138181Y0070934D01*
X0138897Y0071933D02*
X0133330Y0071933D01*
X0131607Y0074929D02*
X0139971Y0074929D01*
X0138502Y0075927D02*
X0127469Y0075927D01*
X0127500Y0076926D02*
X0137654Y0076926D01*
X0137241Y0077924D02*
X0127111Y0077924D01*
X0125684Y0078923D02*
X0137000Y0078923D01*
X0137000Y0079921D02*
X0123842Y0079921D01*
X0122843Y0080920D02*
X0137176Y0080920D01*
X0137590Y0081918D02*
X0122500Y0081918D01*
X0122119Y0082917D02*
X0138346Y0082917D01*
X0146759Y0077924D02*
X0163448Y0077924D01*
X0163034Y0078923D02*
X0147000Y0078923D01*
X0146346Y0076926D02*
X0164003Y0076926D01*
X0132017Y0061948D02*
X0131483Y0061948D01*
X0127500Y0072932D02*
X0119503Y0072932D01*
X0120501Y0073930D02*
X0127679Y0073930D01*
X0128393Y0074929D02*
X0126964Y0074929D01*
X0123036Y0074929D02*
X0121054Y0074929D01*
X0121468Y0075927D02*
X0122531Y0075927D01*
X0122312Y0076926D02*
X0121500Y0076926D01*
X0129503Y0035500D02*
X0128584Y0035119D01*
X0127881Y0034416D01*
X0127500Y0033497D01*
X0127500Y0032503D01*
X0127881Y0031584D01*
X0128584Y0030881D01*
X0129503Y0030500D01*
X0130237Y0030500D01*
X0131000Y0029737D01*
X0131000Y0029003D01*
X0131381Y0028084D01*
X0132084Y0027381D01*
X0133003Y0027000D01*
X0029979Y0027000D01*
X0030774Y0026001D02*
X0183390Y0026001D01*
X0182709Y0025003D02*
X0031255Y0025003D01*
X0031736Y0024004D02*
X0182086Y0024004D01*
X0181778Y0023006D02*
X0032217Y0023006D01*
X0032698Y0022007D02*
X0181470Y0022007D01*
X0181162Y0021009D02*
X0032896Y0021009D01*
X0033046Y0020010D02*
X0180854Y0020010D01*
X0180684Y0019012D02*
X0033197Y0019012D01*
X0033347Y0018013D02*
X0180684Y0018013D01*
X0180684Y0017015D02*
X0033498Y0017015D01*
X0033352Y0016016D02*
X0180684Y0016016D01*
X0180684Y0015018D02*
X0033201Y0015018D01*
X0033051Y0014019D02*
X0180845Y0014019D01*
X0181153Y0013021D02*
X0032900Y0013021D01*
X0032712Y0012022D02*
X0181461Y0012022D01*
X0181769Y0011024D02*
X0032231Y0011024D01*
X0031750Y0010025D02*
X0182077Y0010025D01*
X0182689Y0009027D02*
X0031269Y0009027D01*
X0030789Y0008028D02*
X0183370Y0008028D01*
X0184051Y0007030D02*
X0030006Y0007030D01*
X0029080Y0006031D02*
X0184731Y0006031D01*
X0185838Y0005033D02*
X0028153Y0005033D01*
X0027174Y0004034D02*
X0187090Y0004034D01*
X0184071Y0027000D02*
X0133997Y0027000D01*
X0134916Y0027381D01*
X0135619Y0028084D01*
X0136000Y0029003D01*
X0136000Y0029997D01*
X0135619Y0030916D01*
X0134916Y0031619D01*
X0133997Y0032000D01*
X0133263Y0032000D01*
X0132500Y0032763D01*
X0132500Y0033497D01*
X0132119Y0034416D01*
X0131416Y0035119D01*
X0130497Y0035500D01*
X0129503Y0035500D01*
X0128453Y0034988D02*
X0073547Y0034988D01*
X0073416Y0035119D02*
X0074119Y0034416D01*
X0074500Y0033497D01*
X0074500Y0032503D01*
X0074119Y0031584D01*
X0073416Y0030881D01*
X0072497Y0030500D01*
X0071503Y0030500D01*
X0070584Y0030881D01*
X0069881Y0031584D01*
X0069500Y0032503D01*
X0069500Y0033237D01*
X0068737Y0034000D01*
X0068003Y0034000D01*
X0067084Y0034381D01*
X0066381Y0035084D01*
X0066000Y0036003D01*
X0066000Y0036997D01*
X0066381Y0037916D01*
X0067084Y0038619D01*
X0068003Y0039000D01*
X0068997Y0039000D01*
X0069916Y0038619D01*
X0070619Y0037916D01*
X0071000Y0036997D01*
X0071000Y0036263D01*
X0071763Y0035500D01*
X0072497Y0035500D01*
X0073416Y0035119D01*
X0074296Y0033990D02*
X0127704Y0033990D01*
X0127500Y0032991D02*
X0074500Y0032991D01*
X0074289Y0031993D02*
X0127711Y0031993D01*
X0128470Y0030994D02*
X0073530Y0030994D01*
X0070470Y0030994D02*
X0025393Y0030994D01*
X0027122Y0029996D02*
X0130742Y0029996D01*
X0131002Y0028997D02*
X0028126Y0028997D01*
X0029052Y0027999D02*
X0131466Y0027999D01*
X0133003Y0027000D02*
X0133997Y0027000D01*
X0135534Y0027999D02*
X0184752Y0027999D01*
X0184905Y0028223D02*
X0184905Y0028223D01*
X0185875Y0028997D02*
X0135998Y0028997D01*
X0136000Y0029996D02*
X0187128Y0029996D01*
X0188380Y0030994D02*
X0135541Y0030994D01*
X0134015Y0031993D02*
X0190542Y0031993D01*
X0193086Y0032991D02*
X0132500Y0032991D01*
X0132296Y0033990D02*
X0210200Y0033990D01*
X0210200Y0034988D02*
X0131547Y0034988D01*
X0071276Y0035987D02*
X0210200Y0035987D01*
X0210200Y0036985D02*
X0071000Y0036985D01*
X0070552Y0037984D02*
X0210200Y0037984D01*
X0210200Y0038982D02*
X0069040Y0038982D01*
X0067960Y0038982D02*
X0003800Y0038982D01*
X0003800Y0037984D02*
X0066448Y0037984D01*
X0066000Y0036985D02*
X0003800Y0036985D01*
X0003800Y0035987D02*
X0066007Y0035987D01*
X0066476Y0034988D02*
X0003800Y0034988D01*
X0003800Y0033990D02*
X0068748Y0033990D01*
X0069500Y0032991D02*
X0020261Y0032991D01*
X0023664Y0031993D02*
X0069711Y0031993D01*
X0013086Y0032991D02*
X0003800Y0032991D01*
X0003800Y0031993D02*
X0010542Y0031993D01*
X0008380Y0030994D02*
X0003800Y0030994D01*
X0003800Y0029996D02*
X0007128Y0029996D01*
X0005875Y0028997D02*
X0003800Y0028997D01*
X0003800Y0027999D02*
X0004752Y0027999D01*
X0004071Y0027000D02*
X0003800Y0027000D01*
X0044000Y0104884D02*
X0045000Y0104884D01*
X0045000Y0105882D02*
X0044000Y0105882D01*
X0044000Y0106881D02*
X0045000Y0106881D01*
X0045000Y0107879D02*
X0044000Y0107879D01*
X0039374Y0109876D02*
X0031679Y0109876D01*
X0032159Y0110875D02*
X0039642Y0110875D01*
X0040160Y0111873D02*
X0032640Y0111873D01*
X0032878Y0112872D02*
X0041018Y0112872D01*
X0042662Y0113870D02*
X0033028Y0113870D01*
X0026736Y0173781D02*
X0097183Y0173781D01*
X0096881Y0174084D02*
X0097584Y0173381D01*
X0098503Y0173000D01*
X0099497Y0173000D01*
X0100416Y0173381D01*
X0100936Y0173900D01*
X0107564Y0173900D01*
X0108084Y0173381D01*
X0109003Y0173000D01*
X0109997Y0173000D01*
X0110916Y0173381D01*
X0111619Y0174084D01*
X0112000Y0175003D01*
X0112381Y0174084D01*
X0113084Y0173381D01*
X0114003Y0173000D01*
X0114997Y0173000D01*
X0115916Y0173381D01*
X0116436Y0173900D01*
X0126163Y0173900D01*
X0127100Y0174837D01*
X0127100Y0174837D01*
X0127763Y0175500D01*
X0128497Y0175500D01*
X0129416Y0175881D01*
X0130119Y0176584D01*
X0130500Y0177503D01*
X0130500Y0178497D01*
X0130119Y0179416D01*
X0129416Y0180119D01*
X0128497Y0180500D01*
X0127503Y0180500D01*
X0126584Y0180119D01*
X0126250Y0179786D01*
X0125916Y0180119D01*
X0124997Y0180500D01*
X0124263Y0180500D01*
X0122000Y0182763D01*
X0122000Y0183497D01*
X0121619Y0184416D01*
X0120916Y0185119D01*
X0119997Y0185500D01*
X0119763Y0185500D01*
X0122614Y0188351D01*
X0123084Y0187881D01*
X0124003Y0187500D01*
X0124997Y0187500D01*
X0125916Y0187881D01*
X0126619Y0188584D01*
X0127000Y0189503D01*
X0127000Y0190497D01*
X0126619Y0191416D01*
X0125916Y0192119D01*
X0124997Y0192500D01*
X0124003Y0192500D01*
X0123084Y0192119D01*
X0122564Y0191600D01*
X0121337Y0191600D01*
X0114737Y0185000D01*
X0114003Y0185000D01*
X0113084Y0184619D01*
X0112381Y0183916D01*
X0112000Y0182997D01*
X0112000Y0182003D01*
X0112381Y0181084D01*
X0113084Y0180381D01*
X0114003Y0180000D01*
X0114997Y0180000D01*
X0115916Y0180381D01*
X0116619Y0181084D01*
X0117000Y0182003D01*
X0117000Y0182737D01*
X0117000Y0182737D01*
X0117000Y0182503D01*
X0117381Y0181584D01*
X0118084Y0180881D01*
X0119003Y0180500D01*
X0119737Y0180500D01*
X0122000Y0178237D01*
X0122000Y0177503D01*
X0122167Y0177100D01*
X0116436Y0177100D01*
X0115916Y0177619D01*
X0114997Y0178000D01*
X0114003Y0178000D01*
X0113084Y0177619D01*
X0112381Y0176916D01*
X0112000Y0175997D01*
X0112000Y0175003D01*
X0112000Y0175997D01*
X0111619Y0176916D01*
X0110916Y0177619D01*
X0109997Y0178000D01*
X0109003Y0178000D01*
X0108084Y0177619D01*
X0107564Y0177100D01*
X0100936Y0177100D01*
X0100416Y0177619D01*
X0099497Y0178000D01*
X0098503Y0178000D01*
X0097584Y0177619D01*
X0096881Y0176916D01*
X0096500Y0175997D01*
X0096500Y0175003D01*
X0096881Y0174084D01*
X0096592Y0174780D02*
X0027918Y0174780D01*
X0028845Y0175778D02*
X0096500Y0175778D01*
X0096823Y0176777D02*
X0029771Y0176777D01*
X0030667Y0177775D02*
X0097960Y0177775D01*
X0100040Y0177775D02*
X0108460Y0177775D01*
X0110540Y0177775D02*
X0113460Y0177775D01*
X0112323Y0176777D02*
X0111677Y0176777D01*
X0112000Y0175778D02*
X0112000Y0175778D01*
X0111908Y0174780D02*
X0112092Y0174780D01*
X0112683Y0173781D02*
X0111317Y0173781D01*
X0107683Y0173781D02*
X0100817Y0173781D01*
X0105198Y0183766D02*
X0033013Y0183766D01*
X0032862Y0182768D02*
X0112000Y0182768D01*
X0112097Y0181769D02*
X0032590Y0181769D01*
X0032109Y0180771D02*
X0112694Y0180771D01*
X0116306Y0180771D02*
X0118349Y0180771D01*
X0117304Y0181769D02*
X0116903Y0181769D01*
X0120465Y0179772D02*
X0031628Y0179772D01*
X0031147Y0178774D02*
X0121464Y0178774D01*
X0122000Y0177775D02*
X0115540Y0177775D01*
X0116317Y0173781D02*
X0187408Y0173781D01*
X0186155Y0174780D02*
X0127042Y0174780D01*
X0129169Y0175778D02*
X0184904Y0175778D01*
X0184223Y0176777D02*
X0130199Y0176777D01*
X0130500Y0177775D02*
X0183542Y0177775D01*
X0182862Y0178774D02*
X0130385Y0178774D01*
X0129763Y0179772D02*
X0182181Y0179772D01*
X0181847Y0180771D02*
X0123992Y0180771D01*
X0122993Y0181769D02*
X0181539Y0181769D01*
X0181231Y0182768D02*
X0122000Y0182768D01*
X0121889Y0183766D02*
X0180923Y0183766D01*
X0180684Y0184765D02*
X0121271Y0184765D01*
X0120026Y0185763D02*
X0180684Y0185763D01*
X0180684Y0186762D02*
X0121025Y0186762D01*
X0122023Y0187760D02*
X0123374Y0187760D01*
X0125626Y0187760D02*
X0138374Y0187760D01*
X0138084Y0187881D02*
X0139003Y0187500D01*
X0139997Y0187500D01*
X0140916Y0187881D01*
X0141436Y0188400D01*
X0142564Y0188400D01*
X0143084Y0187881D01*
X0144003Y0187500D01*
X0144997Y0187500D01*
X0145916Y0187881D01*
X0146619Y0188584D01*
X0147000Y0189503D01*
X0147000Y0190497D01*
X0146619Y0191416D01*
X0145916Y0192119D01*
X0144997Y0192500D01*
X0144003Y0192500D01*
X0143084Y0192119D01*
X0142564Y0191600D01*
X0141436Y0191600D01*
X0140916Y0192119D01*
X0139997Y0192500D01*
X0139003Y0192500D01*
X0138084Y0192119D01*
X0137381Y0191416D01*
X0137000Y0190497D01*
X0137000Y0189503D01*
X0137381Y0188584D01*
X0138084Y0187881D01*
X0137308Y0188759D02*
X0126692Y0188759D01*
X0127000Y0189757D02*
X0137000Y0189757D01*
X0137107Y0190756D02*
X0126893Y0190756D01*
X0126281Y0191754D02*
X0137719Y0191754D01*
X0140075Y0193751D02*
X0133925Y0193751D01*
X0135190Y0194750D02*
X0138810Y0194750D01*
X0138179Y0195748D02*
X0135820Y0195748D01*
X0136200Y0196747D02*
X0137800Y0196747D01*
X0137800Y0197745D02*
X0136200Y0197745D01*
X0136031Y0198744D02*
X0137969Y0198744D01*
X0138383Y0199742D02*
X0135617Y0199742D01*
X0130075Y0193751D02*
X0123925Y0193751D01*
X0125190Y0194750D02*
X0128810Y0194750D01*
X0128179Y0195748D02*
X0125820Y0195748D01*
X0126200Y0196747D02*
X0127800Y0196747D01*
X0127800Y0197745D02*
X0126200Y0197745D01*
X0126031Y0198744D02*
X0127969Y0198744D01*
X0128383Y0199742D02*
X0125617Y0199742D01*
X0120075Y0193751D02*
X0113925Y0193751D01*
X0113600Y0192753D02*
X0181700Y0192753D01*
X0182008Y0193751D02*
X0173925Y0193751D01*
X0175190Y0194750D02*
X0182537Y0194750D01*
X0183218Y0195748D02*
X0175820Y0195748D01*
X0176200Y0196747D02*
X0183898Y0196747D01*
X0184579Y0197745D02*
X0176200Y0197745D01*
X0176031Y0198744D02*
X0185558Y0198744D01*
X0186810Y0199742D02*
X0175617Y0199742D01*
X0170075Y0193751D02*
X0163925Y0193751D01*
X0164003Y0192500D02*
X0163084Y0192119D01*
X0162564Y0191600D01*
X0161436Y0191600D01*
X0160916Y0192119D01*
X0159997Y0192500D01*
X0159003Y0192500D01*
X0158084Y0192119D01*
X0157381Y0191416D01*
X0157000Y0190497D01*
X0156619Y0191416D01*
X0155916Y0192119D01*
X0154997Y0192500D01*
X0154003Y0192500D01*
X0153084Y0192119D01*
X0152564Y0191600D01*
X0151436Y0191600D01*
X0150916Y0192119D01*
X0149997Y0192500D01*
X0149003Y0192500D01*
X0148084Y0192119D01*
X0147381Y0191416D01*
X0147000Y0190497D01*
X0147000Y0189503D01*
X0147381Y0188584D01*
X0148084Y0187881D01*
X0149003Y0187500D01*
X0149997Y0187500D01*
X0150916Y0187881D01*
X0151436Y0188400D01*
X0152564Y0188400D01*
X0153084Y0187881D01*
X0154003Y0187500D01*
X0154997Y0187500D01*
X0155916Y0187881D01*
X0156619Y0188584D01*
X0157000Y0189503D01*
X0157000Y0190497D01*
X0157000Y0189503D01*
X0157381Y0188584D01*
X0158084Y0187881D01*
X0159003Y0187500D01*
X0159997Y0187500D01*
X0160916Y0187881D01*
X0161436Y0188400D01*
X0162564Y0188400D01*
X0163084Y0187881D01*
X0164003Y0187500D01*
X0164997Y0187500D01*
X0165916Y0187881D01*
X0166619Y0188584D01*
X0167000Y0189503D01*
X0167000Y0190497D01*
X0166619Y0191416D01*
X0165916Y0192119D01*
X0164997Y0192500D01*
X0164003Y0192500D01*
X0162719Y0191754D02*
X0161281Y0191754D01*
X0160075Y0193751D02*
X0153925Y0193751D01*
X0155190Y0194750D02*
X0158810Y0194750D01*
X0158179Y0195748D02*
X0155820Y0195748D01*
X0156200Y0196747D02*
X0157800Y0196747D01*
X0157800Y0197745D02*
X0156200Y0197745D01*
X0156031Y0198744D02*
X0157969Y0198744D01*
X0158383Y0199742D02*
X0155617Y0199742D01*
X0156281Y0191754D02*
X0157719Y0191754D01*
X0157107Y0190756D02*
X0156893Y0190756D01*
X0157000Y0189757D02*
X0157000Y0189757D01*
X0156692Y0188759D02*
X0157308Y0188759D01*
X0158374Y0187760D02*
X0155626Y0187760D01*
X0153374Y0187760D02*
X0150626Y0187760D01*
X0148374Y0187760D02*
X0145626Y0187760D01*
X0146692Y0188759D02*
X0147308Y0188759D01*
X0147000Y0189757D02*
X0147000Y0189757D01*
X0146893Y0190756D02*
X0147107Y0190756D01*
X0147719Y0191754D02*
X0146281Y0191754D01*
X0143925Y0193751D02*
X0150075Y0193751D01*
X0148810Y0194750D02*
X0145190Y0194750D01*
X0145820Y0195748D02*
X0148179Y0195748D01*
X0147800Y0196747D02*
X0146200Y0196747D01*
X0146200Y0197745D02*
X0147800Y0197745D01*
X0147969Y0198744D02*
X0146031Y0198744D01*
X0145617Y0199742D02*
X0148383Y0199742D01*
X0151281Y0191754D02*
X0152719Y0191754D01*
X0160626Y0187760D02*
X0163374Y0187760D01*
X0165626Y0187760D02*
X0180684Y0187760D01*
X0180684Y0188759D02*
X0166692Y0188759D01*
X0167000Y0189757D02*
X0180776Y0189757D01*
X0181084Y0190756D02*
X0166893Y0190756D01*
X0166281Y0191754D02*
X0181392Y0191754D01*
X0168810Y0194750D02*
X0165190Y0194750D01*
X0165820Y0195748D02*
X0168179Y0195748D01*
X0167800Y0196747D02*
X0166200Y0196747D01*
X0166200Y0197745D02*
X0167800Y0197745D01*
X0167969Y0198744D02*
X0166031Y0198744D01*
X0165617Y0199742D02*
X0168383Y0199742D01*
X0142719Y0191754D02*
X0141281Y0191754D01*
X0140626Y0187760D02*
X0143374Y0187760D01*
X0122719Y0191754D02*
X0113600Y0191754D01*
X0113600Y0190756D02*
X0120493Y0190756D01*
X0119495Y0189757D02*
X0113520Y0189757D01*
X0112522Y0188759D02*
X0118496Y0188759D01*
X0117498Y0187760D02*
X0111523Y0187760D01*
X0110525Y0186762D02*
X0116499Y0186762D01*
X0115501Y0185763D02*
X0109526Y0185763D01*
X0109401Y0184765D02*
X0113435Y0184765D01*
X0112319Y0183766D02*
X0108802Y0183766D01*
X0104599Y0184765D02*
X0103300Y0184765D01*
X0103901Y0185763D02*
X0104500Y0185763D01*
X0104817Y0186762D02*
X0104000Y0186762D01*
X0103684Y0187760D02*
X0105924Y0187760D01*
X0107996Y0188759D02*
X0103600Y0188759D01*
X0103600Y0189757D02*
X0108995Y0189757D01*
X0109993Y0190756D02*
X0103600Y0190756D01*
X0103600Y0191754D02*
X0110400Y0191754D01*
X0110400Y0192753D02*
X0103600Y0192753D01*
X0103925Y0193751D02*
X0110075Y0193751D01*
X0108810Y0194750D02*
X0105190Y0194750D01*
X0105820Y0195748D02*
X0108179Y0195748D01*
X0107800Y0196747D02*
X0106200Y0196747D01*
X0106200Y0197745D02*
X0107800Y0197745D01*
X0107969Y0198744D02*
X0106031Y0198744D01*
X0105617Y0199742D02*
X0108383Y0199742D01*
X0115617Y0199742D02*
X0118383Y0199742D01*
X0117969Y0198744D02*
X0116031Y0198744D01*
X0116200Y0197745D02*
X0117800Y0197745D01*
X0117800Y0196747D02*
X0116200Y0196747D01*
X0115820Y0195748D02*
X0118179Y0195748D01*
X0118810Y0194750D02*
X0115190Y0194750D01*
X0100400Y0192753D02*
X0099394Y0192753D01*
X0099500Y0192497D02*
X0099119Y0193416D01*
X0098416Y0194119D01*
X0097497Y0194500D01*
X0096503Y0194500D01*
X0095584Y0194119D01*
X0094881Y0193416D01*
X0094500Y0192497D01*
X0094500Y0191763D01*
X0093737Y0191000D01*
X0093003Y0191000D01*
X0092084Y0190619D01*
X0091381Y0189916D01*
X0091000Y0188997D01*
X0091000Y0188003D01*
X0091381Y0187084D01*
X0092084Y0186381D01*
X0093003Y0186000D01*
X0093997Y0186000D01*
X0094916Y0186381D01*
X0095619Y0187084D01*
X0096000Y0188003D01*
X0096000Y0188737D01*
X0096763Y0189500D01*
X0097497Y0189500D01*
X0098416Y0189881D01*
X0099119Y0190584D01*
X0099500Y0191503D01*
X0099500Y0192497D01*
X0099500Y0191754D02*
X0100400Y0191754D01*
X0100400Y0190756D02*
X0099191Y0190756D01*
X0098119Y0189757D02*
X0100400Y0189757D01*
X0100400Y0188759D02*
X0096022Y0188759D01*
X0095900Y0187760D02*
X0099316Y0187760D01*
X0099000Y0186762D02*
X0095297Y0186762D01*
X0099099Y0185763D02*
X0033314Y0185763D01*
X0033163Y0184765D02*
X0099700Y0184765D01*
X0091703Y0186762D02*
X0033464Y0186762D01*
X0033385Y0187760D02*
X0091100Y0187760D01*
X0091000Y0188759D02*
X0033235Y0188759D01*
X0033084Y0189757D02*
X0091315Y0189757D01*
X0092413Y0190756D02*
X0032934Y0190756D01*
X0032783Y0191754D02*
X0094492Y0191754D01*
X0094606Y0192753D02*
X0032339Y0192753D01*
X0031858Y0193751D02*
X0040075Y0193751D01*
X0038810Y0194750D02*
X0031377Y0194750D01*
X0030896Y0195748D02*
X0038179Y0195748D01*
X0037800Y0196747D02*
X0030213Y0196747D01*
X0029287Y0197745D02*
X0037800Y0197745D01*
X0037969Y0198744D02*
X0028360Y0198744D01*
X0027434Y0199742D02*
X0038383Y0199742D01*
X0043925Y0193751D02*
X0049674Y0193751D01*
X0048559Y0194750D02*
X0045190Y0194750D01*
X0045820Y0195748D02*
X0047954Y0195748D01*
X0047664Y0196747D02*
X0046200Y0196747D01*
X0046200Y0197745D02*
X0051550Y0197745D01*
X0052450Y0197745D02*
X0057800Y0197745D01*
X0057800Y0196747D02*
X0056336Y0196747D01*
X0056046Y0195748D02*
X0058179Y0195748D01*
X0058810Y0194750D02*
X0055441Y0194750D01*
X0054326Y0193751D02*
X0060075Y0193751D01*
X0063925Y0193751D02*
X0070075Y0193751D01*
X0068810Y0194750D02*
X0065190Y0194750D01*
X0065820Y0195748D02*
X0068179Y0195748D01*
X0067800Y0196747D02*
X0066200Y0196747D01*
X0066200Y0197745D02*
X0067800Y0197745D01*
X0067969Y0198744D02*
X0066031Y0198744D01*
X0065617Y0199742D02*
X0068383Y0199742D01*
X0073925Y0193751D02*
X0080075Y0193751D01*
X0078810Y0194750D02*
X0075190Y0194750D01*
X0075820Y0195748D02*
X0078179Y0195748D01*
X0077800Y0196747D02*
X0076200Y0196747D01*
X0076200Y0197745D02*
X0077800Y0197745D01*
X0077969Y0198744D02*
X0076031Y0198744D01*
X0075617Y0199742D02*
X0078383Y0199742D01*
X0083925Y0193751D02*
X0090075Y0193751D01*
X0088810Y0194750D02*
X0085190Y0194750D01*
X0085820Y0195748D02*
X0088179Y0195748D01*
X0087800Y0196747D02*
X0086200Y0196747D01*
X0086200Y0197745D02*
X0087800Y0197745D01*
X0087969Y0198744D02*
X0086031Y0198744D01*
X0085617Y0199742D02*
X0088383Y0199742D01*
X0093925Y0193751D02*
X0095216Y0193751D01*
X0095190Y0194750D02*
X0098810Y0194750D01*
X0098784Y0193751D02*
X0100075Y0193751D01*
X0098179Y0195748D02*
X0095820Y0195748D01*
X0096200Y0196747D02*
X0097800Y0196747D01*
X0097800Y0197745D02*
X0096200Y0197745D01*
X0096031Y0198744D02*
X0097969Y0198744D01*
X0098383Y0199742D02*
X0095617Y0199742D01*
X0058383Y0199742D02*
X0055796Y0199742D01*
X0056222Y0198744D02*
X0057969Y0198744D01*
X0052450Y0196747D02*
X0051550Y0196747D01*
X0051550Y0195748D02*
X0052450Y0195748D01*
X0052450Y0194750D02*
X0051550Y0194750D01*
X0051550Y0193751D02*
X0052450Y0193751D01*
X0047778Y0198744D02*
X0046031Y0198744D01*
X0045617Y0199742D02*
X0048204Y0199742D01*
X0200261Y0032991D02*
X0210200Y0032991D01*
X0210200Y0031993D02*
X0203664Y0031993D01*
X0205393Y0030994D02*
X0210200Y0030994D01*
X0210200Y0029996D02*
X0207122Y0029996D01*
X0208126Y0028997D02*
X0210200Y0028997D01*
X0210200Y0027999D02*
X0209052Y0027999D01*
X0209979Y0027000D02*
X0210200Y0027000D01*
D13*
X0208500Y0044500D03*
X0208500Y0057000D03*
X0208500Y0069500D03*
X0208500Y0082000D03*
X0208500Y0094500D03*
X0178500Y0120000D03*
X0173500Y0125000D03*
X0160500Y0126500D03*
X0160500Y0120500D03*
X0155500Y0131500D03*
X0164500Y0144500D03*
X0168000Y0148000D03*
X0144500Y0155000D03*
X0139500Y0160000D03*
X0128000Y0178000D03*
X0124500Y0178000D03*
X0119500Y0183000D03*
X0114500Y0182500D03*
X0114500Y0175500D03*
X0109500Y0175500D03*
X0107000Y0185500D03*
X0101500Y0186500D03*
X0097000Y0192000D03*
X0093500Y0188500D03*
X0099000Y0175500D03*
X0090500Y0171000D03*
X0090500Y0167000D03*
X0084000Y0164500D03*
X0084000Y0160500D03*
X0090500Y0152000D03*
X0084000Y0145500D03*
X0099000Y0160500D03*
X0104000Y0165500D03*
X0124500Y0190000D03*
X0139500Y0190000D03*
X0144500Y0190000D03*
X0149500Y0190000D03*
X0154500Y0190000D03*
X0159500Y0190000D03*
X0164500Y0190000D03*
X0094500Y0119000D03*
X0101000Y0112500D03*
X0120000Y0093500D03*
X0126000Y0099500D03*
X0120000Y0081500D03*
X0125000Y0076500D03*
X0130000Y0073000D03*
X0134500Y0068500D03*
X0138000Y0067500D03*
X0140500Y0070000D03*
X0144000Y0066500D03*
X0141500Y0064000D03*
X0137500Y0060000D03*
X0134000Y0063500D03*
X0129500Y0063500D03*
X0125000Y0068000D03*
X0106500Y0059500D03*
X0116000Y0050000D03*
X0130000Y0050000D03*
X0135000Y0050000D03*
X0130000Y0033000D03*
X0133500Y0029500D03*
X0158500Y0030000D03*
X0158500Y0013000D03*
X0169500Y0067000D03*
X0164000Y0072500D03*
X0153500Y0083000D03*
X0147000Y0089500D03*
X0094500Y0086500D03*
X0092000Y0081500D03*
X0078000Y0094000D03*
X0070000Y0097000D03*
X0067500Y0094500D03*
X0059500Y0102500D03*
X0064000Y0103000D03*
X0065000Y0117000D03*
X0062500Y0119500D03*
X0066000Y0123000D03*
X0068500Y0120500D03*
X0074500Y0115500D03*
X0078000Y0119000D03*
X0045500Y0089500D03*
X0043000Y0081500D03*
X0025000Y0074000D03*
X0031500Y0058000D03*
X0068500Y0036500D03*
X0072000Y0033000D03*
X0093500Y0030000D03*
X0093500Y0013000D03*
X0037500Y0122000D03*
D14*
X0059500Y0102500D02*
X0067500Y0094500D01*
X0070000Y0097000D02*
X0064000Y0103000D01*
X0065000Y0117000D02*
X0068500Y0120500D01*
X0066000Y0123000D02*
X0062500Y0119500D01*
X0074500Y0115500D02*
X0078000Y0119000D01*
X0094500Y0119000D02*
X0101000Y0112500D01*
X0120000Y0093500D02*
X0126000Y0099500D01*
X0120000Y0081500D02*
X0125000Y0076500D01*
X0130000Y0073000D02*
X0134500Y0068500D01*
X0138000Y0067500D02*
X0141500Y0064000D01*
X0144000Y0066500D02*
X0140500Y0070000D01*
X0134000Y0063500D02*
X0137500Y0060000D01*
X0129500Y0063500D02*
X0125000Y0068000D01*
X0116500Y0077000D02*
X0107000Y0086500D01*
X0094500Y0086500D01*
X0092000Y0081500D02*
X0096000Y0077500D01*
X0102500Y0077500D01*
X0106500Y0059500D02*
X0116000Y0050000D01*
X0130000Y0050000D02*
X0135000Y0050000D01*
X0130000Y0033000D02*
X0133500Y0029500D01*
X0169500Y0067000D02*
X0164000Y0072500D01*
X0153500Y0083000D02*
X0147000Y0089500D01*
X0178500Y0120000D02*
X0173500Y0125000D01*
X0160500Y0126500D02*
X0155500Y0131500D01*
X0164500Y0144500D02*
X0168000Y0148000D01*
X0144500Y0155000D02*
X0139500Y0160000D01*
X0125500Y0175500D02*
X0114500Y0175500D01*
X0109500Y0175500D02*
X0099000Y0175500D01*
X0090500Y0171000D02*
X0084000Y0164500D01*
X0084000Y0160500D02*
X0090500Y0167000D01*
X0099000Y0160500D02*
X0104000Y0165500D01*
X0090500Y0152000D02*
X0084000Y0145500D01*
X0114500Y0182500D02*
X0122000Y0190000D01*
X0124500Y0190000D01*
X0119500Y0183000D02*
X0124500Y0178000D01*
X0125500Y0175500D02*
X0128000Y0178000D01*
X0139500Y0190000D02*
X0144500Y0190000D01*
X0149500Y0190000D02*
X0154500Y0190000D01*
X0159500Y0190000D02*
X0164500Y0190000D01*
X0112000Y0190500D02*
X0112000Y0197500D01*
X0112000Y0190500D02*
X0107000Y0185500D01*
X0102000Y0187000D02*
X0102000Y0197500D01*
X0097000Y0192000D02*
X0093500Y0188500D01*
X0101500Y0186500D02*
X0102000Y0187000D01*
X0045500Y0089500D02*
X0045500Y0084000D01*
X0043000Y0081500D01*
X0068500Y0036500D02*
X0072000Y0033000D01*
M02*
