%
M48
M72
T01C0.0120
T02C0.0380
T03C0.0400
T04C0.1260
%
T01
X20850Y4450
X20850Y5700
X20850Y6950
X20850Y8200
X20850Y9450
X2500Y7400
X9350Y1300
X9350Y3000
X15850Y1300
X15850Y3000
X3150Y5800
X7800Y9400
X16050Y12050
X3750Y12200
X9050Y17100
X8400Y16450
X16050Y12650
X15550Y13150
X12450Y17800
X11950Y18300
X9700Y19200
X9350Y18850
X4300Y8150
X4550Y8950
X14450Y15500
X13950Y16000
X12800Y17800
X11450Y17550
X10950Y17550
X9900Y17550
X9050Y16700
X8400Y16050
X6600Y12300
X6250Y11950
X16450Y19000
X15950Y19000
X15450Y19000
X14950Y19000
X14450Y19000
X13950Y19000
X12450Y19000
X11450Y18250
X10400Y16550
X9900Y16050
X9050Y15200
X8400Y14550
X7800Y11900
X7450Y11550
X17350Y12500
X17850Y12000
X13350Y2950
X13000Y3300
X7200Y3300
X6850Y3650
X7000Y9700
X6400Y10300
X9200Y8150
X9450Y8650
X10150Y18650
X10700Y18550
X6850Y12050
X6500Y11700
X5950Y10250
X6750Y9450
X10650Y5950
X11600Y5000
X13000Y5000
X13500Y5000
X9450Y11900
X10100Y11250
X12000Y9350
X12600Y9950
X14700Y8950
X15350Y8300
X16400Y7250
X16950Y6700
X12000Y8150
X12500Y7650
X12500Y6800
X12950Y6350
X13400Y6350
X13750Y6000
X13000Y7300
X13450Y6850
X13800Y6750
X14150Y6400
X16450Y14450
X16800Y14800
X14400Y6650
X14050Y7000
T02
X4200Y13750
X5200Y13750
X6200Y13750
X7200Y13750
X8200Y13750
X9200Y13750
X10200Y13750
X11200Y13750
X12200Y13750
X13200Y13750
X14200Y13750
X15200Y13750
X16200Y13750
X17200Y13750
X17200Y19750
X16200Y19750
X15200Y19750
X14200Y19750
X13200Y19750
X12200Y19750
X11200Y19750
X10200Y19750
X9200Y19750
X8200Y19750
X7200Y19750
X6200Y19750
X5200Y19750
X4200Y19750
T03
X8450Y10900
X5450Y10900
X7450Y10900
X6450Y10900
X4450Y10900
X16800Y8000
X16600Y10900
X9500Y5400
X14400Y10900
X15500Y10900
X16800Y9100
X14200Y7950
X9700Y6450
X10250Y7750
X11650Y7700
X9600Y4550
T04
X1700Y1700
X1700Y11700
X19700Y1700
X19700Y11700
X1700Y18700
X19700Y18700
M30
