G75*
%MOIN*%
%OFA0B0*%
%FSLAX24Y24*%
%IPPOS*%
%LPD*%
%AMOC8*
5,1,8,0,0,1.08239X$1,22.5*
%
%ADD10C,0.0000*%
D10*
X001700Y000200D02*
X019700Y000200D01*
X019070Y001700D02*
X019072Y001750D01*
X019078Y001800D01*
X019088Y001849D01*
X019102Y001897D01*
X019119Y001944D01*
X019140Y001989D01*
X019165Y002033D01*
X019193Y002074D01*
X019225Y002113D01*
X019259Y002150D01*
X019296Y002184D01*
X019336Y002214D01*
X019378Y002241D01*
X019422Y002265D01*
X019468Y002286D01*
X019515Y002302D01*
X019563Y002315D01*
X019613Y002324D01*
X019662Y002329D01*
X019713Y002330D01*
X019763Y002327D01*
X019812Y002320D01*
X019861Y002309D01*
X019909Y002294D01*
X019955Y002276D01*
X020000Y002254D01*
X020043Y002228D01*
X020084Y002199D01*
X020123Y002167D01*
X020159Y002132D01*
X020191Y002094D01*
X020221Y002054D01*
X020248Y002011D01*
X020271Y001967D01*
X020290Y001921D01*
X020306Y001873D01*
X020318Y001824D01*
X020326Y001775D01*
X020330Y001725D01*
X020330Y001675D01*
X020326Y001625D01*
X020318Y001576D01*
X020306Y001527D01*
X020290Y001479D01*
X020271Y001433D01*
X020248Y001389D01*
X020221Y001346D01*
X020191Y001306D01*
X020159Y001268D01*
X020123Y001233D01*
X020084Y001201D01*
X020043Y001172D01*
X020000Y001146D01*
X019955Y001124D01*
X019909Y001106D01*
X019861Y001091D01*
X019812Y001080D01*
X019763Y001073D01*
X019713Y001070D01*
X019662Y001071D01*
X019613Y001076D01*
X019563Y001085D01*
X019515Y001098D01*
X019468Y001114D01*
X019422Y001135D01*
X019378Y001159D01*
X019336Y001186D01*
X019296Y001216D01*
X019259Y001250D01*
X019225Y001287D01*
X019193Y001326D01*
X019165Y001367D01*
X019140Y001411D01*
X019119Y001456D01*
X019102Y001503D01*
X019088Y001551D01*
X019078Y001600D01*
X019072Y001650D01*
X019070Y001700D01*
X019700Y000200D02*
X019776Y000202D01*
X019852Y000208D01*
X019927Y000217D01*
X020002Y000231D01*
X020076Y000248D01*
X020149Y000269D01*
X020221Y000293D01*
X020292Y000322D01*
X020361Y000353D01*
X020428Y000388D01*
X020493Y000427D01*
X020557Y000469D01*
X020618Y000514D01*
X020677Y000562D01*
X020733Y000613D01*
X020787Y000667D01*
X020838Y000723D01*
X020886Y000782D01*
X020931Y000843D01*
X020973Y000907D01*
X021012Y000972D01*
X021047Y001039D01*
X021078Y001108D01*
X021107Y001179D01*
X021131Y001251D01*
X021152Y001324D01*
X021169Y001398D01*
X021183Y001473D01*
X021192Y001548D01*
X021198Y001624D01*
X021200Y001700D01*
X021200Y018700D01*
X019070Y018700D02*
X019072Y018750D01*
X019078Y018800D01*
X019088Y018849D01*
X019102Y018897D01*
X019119Y018944D01*
X019140Y018989D01*
X019165Y019033D01*
X019193Y019074D01*
X019225Y019113D01*
X019259Y019150D01*
X019296Y019184D01*
X019336Y019214D01*
X019378Y019241D01*
X019422Y019265D01*
X019468Y019286D01*
X019515Y019302D01*
X019563Y019315D01*
X019613Y019324D01*
X019662Y019329D01*
X019713Y019330D01*
X019763Y019327D01*
X019812Y019320D01*
X019861Y019309D01*
X019909Y019294D01*
X019955Y019276D01*
X020000Y019254D01*
X020043Y019228D01*
X020084Y019199D01*
X020123Y019167D01*
X020159Y019132D01*
X020191Y019094D01*
X020221Y019054D01*
X020248Y019011D01*
X020271Y018967D01*
X020290Y018921D01*
X020306Y018873D01*
X020318Y018824D01*
X020326Y018775D01*
X020330Y018725D01*
X020330Y018675D01*
X020326Y018625D01*
X020318Y018576D01*
X020306Y018527D01*
X020290Y018479D01*
X020271Y018433D01*
X020248Y018389D01*
X020221Y018346D01*
X020191Y018306D01*
X020159Y018268D01*
X020123Y018233D01*
X020084Y018201D01*
X020043Y018172D01*
X020000Y018146D01*
X019955Y018124D01*
X019909Y018106D01*
X019861Y018091D01*
X019812Y018080D01*
X019763Y018073D01*
X019713Y018070D01*
X019662Y018071D01*
X019613Y018076D01*
X019563Y018085D01*
X019515Y018098D01*
X019468Y018114D01*
X019422Y018135D01*
X019378Y018159D01*
X019336Y018186D01*
X019296Y018216D01*
X019259Y018250D01*
X019225Y018287D01*
X019193Y018326D01*
X019165Y018367D01*
X019140Y018411D01*
X019119Y018456D01*
X019102Y018503D01*
X019088Y018551D01*
X019078Y018600D01*
X019072Y018650D01*
X019070Y018700D01*
X019700Y020200D02*
X019776Y020198D01*
X019852Y020192D01*
X019927Y020183D01*
X020002Y020169D01*
X020076Y020152D01*
X020149Y020131D01*
X020221Y020107D01*
X020292Y020078D01*
X020361Y020047D01*
X020428Y020012D01*
X020493Y019973D01*
X020557Y019931D01*
X020618Y019886D01*
X020677Y019838D01*
X020733Y019787D01*
X020787Y019733D01*
X020838Y019677D01*
X020886Y019618D01*
X020931Y019557D01*
X020973Y019493D01*
X021012Y019428D01*
X021047Y019361D01*
X021078Y019292D01*
X021107Y019221D01*
X021131Y019149D01*
X021152Y019076D01*
X021169Y019002D01*
X021183Y018927D01*
X021192Y018852D01*
X021198Y018776D01*
X021200Y018700D01*
X019700Y020200D02*
X001700Y020200D01*
X001070Y018700D02*
X001072Y018750D01*
X001078Y018800D01*
X001088Y018849D01*
X001102Y018897D01*
X001119Y018944D01*
X001140Y018989D01*
X001165Y019033D01*
X001193Y019074D01*
X001225Y019113D01*
X001259Y019150D01*
X001296Y019184D01*
X001336Y019214D01*
X001378Y019241D01*
X001422Y019265D01*
X001468Y019286D01*
X001515Y019302D01*
X001563Y019315D01*
X001613Y019324D01*
X001662Y019329D01*
X001713Y019330D01*
X001763Y019327D01*
X001812Y019320D01*
X001861Y019309D01*
X001909Y019294D01*
X001955Y019276D01*
X002000Y019254D01*
X002043Y019228D01*
X002084Y019199D01*
X002123Y019167D01*
X002159Y019132D01*
X002191Y019094D01*
X002221Y019054D01*
X002248Y019011D01*
X002271Y018967D01*
X002290Y018921D01*
X002306Y018873D01*
X002318Y018824D01*
X002326Y018775D01*
X002330Y018725D01*
X002330Y018675D01*
X002326Y018625D01*
X002318Y018576D01*
X002306Y018527D01*
X002290Y018479D01*
X002271Y018433D01*
X002248Y018389D01*
X002221Y018346D01*
X002191Y018306D01*
X002159Y018268D01*
X002123Y018233D01*
X002084Y018201D01*
X002043Y018172D01*
X002000Y018146D01*
X001955Y018124D01*
X001909Y018106D01*
X001861Y018091D01*
X001812Y018080D01*
X001763Y018073D01*
X001713Y018070D01*
X001662Y018071D01*
X001613Y018076D01*
X001563Y018085D01*
X001515Y018098D01*
X001468Y018114D01*
X001422Y018135D01*
X001378Y018159D01*
X001336Y018186D01*
X001296Y018216D01*
X001259Y018250D01*
X001225Y018287D01*
X001193Y018326D01*
X001165Y018367D01*
X001140Y018411D01*
X001119Y018456D01*
X001102Y018503D01*
X001088Y018551D01*
X001078Y018600D01*
X001072Y018650D01*
X001070Y018700D01*
X000200Y018700D02*
X000202Y018776D01*
X000208Y018852D01*
X000217Y018927D01*
X000231Y019002D01*
X000248Y019076D01*
X000269Y019149D01*
X000293Y019221D01*
X000322Y019292D01*
X000353Y019361D01*
X000388Y019428D01*
X000427Y019493D01*
X000469Y019557D01*
X000514Y019618D01*
X000562Y019677D01*
X000613Y019733D01*
X000667Y019787D01*
X000723Y019838D01*
X000782Y019886D01*
X000843Y019931D01*
X000907Y019973D01*
X000972Y020012D01*
X001039Y020047D01*
X001108Y020078D01*
X001179Y020107D01*
X001251Y020131D01*
X001324Y020152D01*
X001398Y020169D01*
X001473Y020183D01*
X001548Y020192D01*
X001624Y020198D01*
X001700Y020200D01*
X000200Y018700D02*
X000200Y001700D01*
X001070Y001700D02*
X001072Y001750D01*
X001078Y001800D01*
X001088Y001849D01*
X001102Y001897D01*
X001119Y001944D01*
X001140Y001989D01*
X001165Y002033D01*
X001193Y002074D01*
X001225Y002113D01*
X001259Y002150D01*
X001296Y002184D01*
X001336Y002214D01*
X001378Y002241D01*
X001422Y002265D01*
X001468Y002286D01*
X001515Y002302D01*
X001563Y002315D01*
X001613Y002324D01*
X001662Y002329D01*
X001713Y002330D01*
X001763Y002327D01*
X001812Y002320D01*
X001861Y002309D01*
X001909Y002294D01*
X001955Y002276D01*
X002000Y002254D01*
X002043Y002228D01*
X002084Y002199D01*
X002123Y002167D01*
X002159Y002132D01*
X002191Y002094D01*
X002221Y002054D01*
X002248Y002011D01*
X002271Y001967D01*
X002290Y001921D01*
X002306Y001873D01*
X002318Y001824D01*
X002326Y001775D01*
X002330Y001725D01*
X002330Y001675D01*
X002326Y001625D01*
X002318Y001576D01*
X002306Y001527D01*
X002290Y001479D01*
X002271Y001433D01*
X002248Y001389D01*
X002221Y001346D01*
X002191Y001306D01*
X002159Y001268D01*
X002123Y001233D01*
X002084Y001201D01*
X002043Y001172D01*
X002000Y001146D01*
X001955Y001124D01*
X001909Y001106D01*
X001861Y001091D01*
X001812Y001080D01*
X001763Y001073D01*
X001713Y001070D01*
X001662Y001071D01*
X001613Y001076D01*
X001563Y001085D01*
X001515Y001098D01*
X001468Y001114D01*
X001422Y001135D01*
X001378Y001159D01*
X001336Y001186D01*
X001296Y001216D01*
X001259Y001250D01*
X001225Y001287D01*
X001193Y001326D01*
X001165Y001367D01*
X001140Y001411D01*
X001119Y001456D01*
X001102Y001503D01*
X001088Y001551D01*
X001078Y001600D01*
X001072Y001650D01*
X001070Y001700D01*
X000200Y001700D02*
X000202Y001624D01*
X000208Y001548D01*
X000217Y001473D01*
X000231Y001398D01*
X000248Y001324D01*
X000269Y001251D01*
X000293Y001179D01*
X000322Y001108D01*
X000353Y001039D01*
X000388Y000972D01*
X000427Y000907D01*
X000469Y000843D01*
X000514Y000782D01*
X000562Y000723D01*
X000613Y000667D01*
X000667Y000613D01*
X000723Y000562D01*
X000782Y000514D01*
X000843Y000469D01*
X000907Y000427D01*
X000972Y000388D01*
X001039Y000353D01*
X001108Y000322D01*
X001179Y000293D01*
X001251Y000269D01*
X001324Y000248D01*
X001398Y000231D01*
X001473Y000217D01*
X001548Y000208D01*
X001624Y000202D01*
X001700Y000200D01*
X001070Y011700D02*
X001072Y011750D01*
X001078Y011800D01*
X001088Y011849D01*
X001102Y011897D01*
X001119Y011944D01*
X001140Y011989D01*
X001165Y012033D01*
X001193Y012074D01*
X001225Y012113D01*
X001259Y012150D01*
X001296Y012184D01*
X001336Y012214D01*
X001378Y012241D01*
X001422Y012265D01*
X001468Y012286D01*
X001515Y012302D01*
X001563Y012315D01*
X001613Y012324D01*
X001662Y012329D01*
X001713Y012330D01*
X001763Y012327D01*
X001812Y012320D01*
X001861Y012309D01*
X001909Y012294D01*
X001955Y012276D01*
X002000Y012254D01*
X002043Y012228D01*
X002084Y012199D01*
X002123Y012167D01*
X002159Y012132D01*
X002191Y012094D01*
X002221Y012054D01*
X002248Y012011D01*
X002271Y011967D01*
X002290Y011921D01*
X002306Y011873D01*
X002318Y011824D01*
X002326Y011775D01*
X002330Y011725D01*
X002330Y011675D01*
X002326Y011625D01*
X002318Y011576D01*
X002306Y011527D01*
X002290Y011479D01*
X002271Y011433D01*
X002248Y011389D01*
X002221Y011346D01*
X002191Y011306D01*
X002159Y011268D01*
X002123Y011233D01*
X002084Y011201D01*
X002043Y011172D01*
X002000Y011146D01*
X001955Y011124D01*
X001909Y011106D01*
X001861Y011091D01*
X001812Y011080D01*
X001763Y011073D01*
X001713Y011070D01*
X001662Y011071D01*
X001613Y011076D01*
X001563Y011085D01*
X001515Y011098D01*
X001468Y011114D01*
X001422Y011135D01*
X001378Y011159D01*
X001336Y011186D01*
X001296Y011216D01*
X001259Y011250D01*
X001225Y011287D01*
X001193Y011326D01*
X001165Y011367D01*
X001140Y011411D01*
X001119Y011456D01*
X001102Y011503D01*
X001088Y011551D01*
X001078Y011600D01*
X001072Y011650D01*
X001070Y011700D01*
X019070Y011700D02*
X019072Y011750D01*
X019078Y011800D01*
X019088Y011849D01*
X019102Y011897D01*
X019119Y011944D01*
X019140Y011989D01*
X019165Y012033D01*
X019193Y012074D01*
X019225Y012113D01*
X019259Y012150D01*
X019296Y012184D01*
X019336Y012214D01*
X019378Y012241D01*
X019422Y012265D01*
X019468Y012286D01*
X019515Y012302D01*
X019563Y012315D01*
X019613Y012324D01*
X019662Y012329D01*
X019713Y012330D01*
X019763Y012327D01*
X019812Y012320D01*
X019861Y012309D01*
X019909Y012294D01*
X019955Y012276D01*
X020000Y012254D01*
X020043Y012228D01*
X020084Y012199D01*
X020123Y012167D01*
X020159Y012132D01*
X020191Y012094D01*
X020221Y012054D01*
X020248Y012011D01*
X020271Y011967D01*
X020290Y011921D01*
X020306Y011873D01*
X020318Y011824D01*
X020326Y011775D01*
X020330Y011725D01*
X020330Y011675D01*
X020326Y011625D01*
X020318Y011576D01*
X020306Y011527D01*
X020290Y011479D01*
X020271Y011433D01*
X020248Y011389D01*
X020221Y011346D01*
X020191Y011306D01*
X020159Y011268D01*
X020123Y011233D01*
X020084Y011201D01*
X020043Y011172D01*
X020000Y011146D01*
X019955Y011124D01*
X019909Y011106D01*
X019861Y011091D01*
X019812Y011080D01*
X019763Y011073D01*
X019713Y011070D01*
X019662Y011071D01*
X019613Y011076D01*
X019563Y011085D01*
X019515Y011098D01*
X019468Y011114D01*
X019422Y011135D01*
X019378Y011159D01*
X019336Y011186D01*
X019296Y011216D01*
X019259Y011250D01*
X019225Y011287D01*
X019193Y011326D01*
X019165Y011367D01*
X019140Y011411D01*
X019119Y011456D01*
X019102Y011503D01*
X019088Y011551D01*
X019078Y011600D01*
X019072Y011650D01*
X019070Y011700D01*
M02*
