G75*
%MOIN*%
%OFA0B0*%
%FSLAX25Y25*%
%IPPOS*%
%LPD*%
%AMOC8*
5,1,8,0,0,1.08239X$1,22.5*
%
%ADD10C,0.00000*%
D10*
X0017000Y0002000D02*
X0197000Y0002000D01*
X0190701Y0017000D02*
X0190703Y0017158D01*
X0190709Y0017316D01*
X0190719Y0017474D01*
X0190733Y0017632D01*
X0190751Y0017789D01*
X0190772Y0017946D01*
X0190798Y0018102D01*
X0190828Y0018258D01*
X0190861Y0018413D01*
X0190899Y0018566D01*
X0190940Y0018719D01*
X0190985Y0018871D01*
X0191034Y0019022D01*
X0191087Y0019171D01*
X0191143Y0019319D01*
X0191203Y0019465D01*
X0191267Y0019610D01*
X0191335Y0019753D01*
X0191406Y0019895D01*
X0191480Y0020035D01*
X0191558Y0020172D01*
X0191640Y0020308D01*
X0191724Y0020442D01*
X0191813Y0020573D01*
X0191904Y0020702D01*
X0191999Y0020829D01*
X0192096Y0020954D01*
X0192197Y0021076D01*
X0192301Y0021195D01*
X0192408Y0021312D01*
X0192518Y0021426D01*
X0192631Y0021537D01*
X0192746Y0021646D01*
X0192864Y0021751D01*
X0192985Y0021853D01*
X0193108Y0021953D01*
X0193234Y0022049D01*
X0193362Y0022142D01*
X0193492Y0022232D01*
X0193625Y0022318D01*
X0193760Y0022402D01*
X0193896Y0022481D01*
X0194035Y0022558D01*
X0194176Y0022630D01*
X0194318Y0022700D01*
X0194462Y0022765D01*
X0194608Y0022827D01*
X0194755Y0022885D01*
X0194904Y0022940D01*
X0195054Y0022991D01*
X0195205Y0023038D01*
X0195357Y0023081D01*
X0195510Y0023120D01*
X0195665Y0023156D01*
X0195820Y0023187D01*
X0195976Y0023215D01*
X0196132Y0023239D01*
X0196289Y0023259D01*
X0196447Y0023275D01*
X0196604Y0023287D01*
X0196763Y0023295D01*
X0196921Y0023299D01*
X0197079Y0023299D01*
X0197237Y0023295D01*
X0197396Y0023287D01*
X0197553Y0023275D01*
X0197711Y0023259D01*
X0197868Y0023239D01*
X0198024Y0023215D01*
X0198180Y0023187D01*
X0198335Y0023156D01*
X0198490Y0023120D01*
X0198643Y0023081D01*
X0198795Y0023038D01*
X0198946Y0022991D01*
X0199096Y0022940D01*
X0199245Y0022885D01*
X0199392Y0022827D01*
X0199538Y0022765D01*
X0199682Y0022700D01*
X0199824Y0022630D01*
X0199965Y0022558D01*
X0200104Y0022481D01*
X0200240Y0022402D01*
X0200375Y0022318D01*
X0200508Y0022232D01*
X0200638Y0022142D01*
X0200766Y0022049D01*
X0200892Y0021953D01*
X0201015Y0021853D01*
X0201136Y0021751D01*
X0201254Y0021646D01*
X0201369Y0021537D01*
X0201482Y0021426D01*
X0201592Y0021312D01*
X0201699Y0021195D01*
X0201803Y0021076D01*
X0201904Y0020954D01*
X0202001Y0020829D01*
X0202096Y0020702D01*
X0202187Y0020573D01*
X0202276Y0020442D01*
X0202360Y0020308D01*
X0202442Y0020172D01*
X0202520Y0020035D01*
X0202594Y0019895D01*
X0202665Y0019753D01*
X0202733Y0019610D01*
X0202797Y0019465D01*
X0202857Y0019319D01*
X0202913Y0019171D01*
X0202966Y0019022D01*
X0203015Y0018871D01*
X0203060Y0018719D01*
X0203101Y0018566D01*
X0203139Y0018413D01*
X0203172Y0018258D01*
X0203202Y0018102D01*
X0203228Y0017946D01*
X0203249Y0017789D01*
X0203267Y0017632D01*
X0203281Y0017474D01*
X0203291Y0017316D01*
X0203297Y0017158D01*
X0203299Y0017000D01*
X0203297Y0016842D01*
X0203291Y0016684D01*
X0203281Y0016526D01*
X0203267Y0016368D01*
X0203249Y0016211D01*
X0203228Y0016054D01*
X0203202Y0015898D01*
X0203172Y0015742D01*
X0203139Y0015587D01*
X0203101Y0015434D01*
X0203060Y0015281D01*
X0203015Y0015129D01*
X0202966Y0014978D01*
X0202913Y0014829D01*
X0202857Y0014681D01*
X0202797Y0014535D01*
X0202733Y0014390D01*
X0202665Y0014247D01*
X0202594Y0014105D01*
X0202520Y0013965D01*
X0202442Y0013828D01*
X0202360Y0013692D01*
X0202276Y0013558D01*
X0202187Y0013427D01*
X0202096Y0013298D01*
X0202001Y0013171D01*
X0201904Y0013046D01*
X0201803Y0012924D01*
X0201699Y0012805D01*
X0201592Y0012688D01*
X0201482Y0012574D01*
X0201369Y0012463D01*
X0201254Y0012354D01*
X0201136Y0012249D01*
X0201015Y0012147D01*
X0200892Y0012047D01*
X0200766Y0011951D01*
X0200638Y0011858D01*
X0200508Y0011768D01*
X0200375Y0011682D01*
X0200240Y0011598D01*
X0200104Y0011519D01*
X0199965Y0011442D01*
X0199824Y0011370D01*
X0199682Y0011300D01*
X0199538Y0011235D01*
X0199392Y0011173D01*
X0199245Y0011115D01*
X0199096Y0011060D01*
X0198946Y0011009D01*
X0198795Y0010962D01*
X0198643Y0010919D01*
X0198490Y0010880D01*
X0198335Y0010844D01*
X0198180Y0010813D01*
X0198024Y0010785D01*
X0197868Y0010761D01*
X0197711Y0010741D01*
X0197553Y0010725D01*
X0197396Y0010713D01*
X0197237Y0010705D01*
X0197079Y0010701D01*
X0196921Y0010701D01*
X0196763Y0010705D01*
X0196604Y0010713D01*
X0196447Y0010725D01*
X0196289Y0010741D01*
X0196132Y0010761D01*
X0195976Y0010785D01*
X0195820Y0010813D01*
X0195665Y0010844D01*
X0195510Y0010880D01*
X0195357Y0010919D01*
X0195205Y0010962D01*
X0195054Y0011009D01*
X0194904Y0011060D01*
X0194755Y0011115D01*
X0194608Y0011173D01*
X0194462Y0011235D01*
X0194318Y0011300D01*
X0194176Y0011370D01*
X0194035Y0011442D01*
X0193896Y0011519D01*
X0193760Y0011598D01*
X0193625Y0011682D01*
X0193492Y0011768D01*
X0193362Y0011858D01*
X0193234Y0011951D01*
X0193108Y0012047D01*
X0192985Y0012147D01*
X0192864Y0012249D01*
X0192746Y0012354D01*
X0192631Y0012463D01*
X0192518Y0012574D01*
X0192408Y0012688D01*
X0192301Y0012805D01*
X0192197Y0012924D01*
X0192096Y0013046D01*
X0191999Y0013171D01*
X0191904Y0013298D01*
X0191813Y0013427D01*
X0191724Y0013558D01*
X0191640Y0013692D01*
X0191558Y0013828D01*
X0191480Y0013965D01*
X0191406Y0014105D01*
X0191335Y0014247D01*
X0191267Y0014390D01*
X0191203Y0014535D01*
X0191143Y0014681D01*
X0191087Y0014829D01*
X0191034Y0014978D01*
X0190985Y0015129D01*
X0190940Y0015281D01*
X0190899Y0015434D01*
X0190861Y0015587D01*
X0190828Y0015742D01*
X0190798Y0015898D01*
X0190772Y0016054D01*
X0190751Y0016211D01*
X0190733Y0016368D01*
X0190719Y0016526D01*
X0190709Y0016684D01*
X0190703Y0016842D01*
X0190701Y0017000D01*
X0197000Y0002000D02*
X0197362Y0002004D01*
X0197725Y0002018D01*
X0198087Y0002039D01*
X0198448Y0002070D01*
X0198808Y0002109D01*
X0199167Y0002157D01*
X0199525Y0002214D01*
X0199882Y0002279D01*
X0200237Y0002353D01*
X0200590Y0002436D01*
X0200941Y0002527D01*
X0201289Y0002626D01*
X0201635Y0002734D01*
X0201979Y0002850D01*
X0202319Y0002975D01*
X0202656Y0003107D01*
X0202990Y0003248D01*
X0203321Y0003397D01*
X0203648Y0003554D01*
X0203971Y0003718D01*
X0204290Y0003890D01*
X0204604Y0004070D01*
X0204915Y0004258D01*
X0205220Y0004453D01*
X0205521Y0004655D01*
X0205817Y0004865D01*
X0206107Y0005081D01*
X0206393Y0005305D01*
X0206673Y0005535D01*
X0206947Y0005772D01*
X0207215Y0006016D01*
X0207478Y0006266D01*
X0207734Y0006522D01*
X0207984Y0006785D01*
X0208228Y0007053D01*
X0208465Y0007327D01*
X0208695Y0007607D01*
X0208919Y0007893D01*
X0209135Y0008183D01*
X0209345Y0008479D01*
X0209547Y0008780D01*
X0209742Y0009085D01*
X0209930Y0009396D01*
X0210110Y0009710D01*
X0210282Y0010029D01*
X0210446Y0010352D01*
X0210603Y0010679D01*
X0210752Y0011010D01*
X0210893Y0011344D01*
X0211025Y0011681D01*
X0211150Y0012021D01*
X0211266Y0012365D01*
X0211374Y0012711D01*
X0211473Y0013059D01*
X0211564Y0013410D01*
X0211647Y0013763D01*
X0211721Y0014118D01*
X0211786Y0014475D01*
X0211843Y0014833D01*
X0211891Y0015192D01*
X0211930Y0015552D01*
X0211961Y0015913D01*
X0211982Y0016275D01*
X0211996Y0016638D01*
X0212000Y0017000D01*
X0212000Y0187000D01*
X0190701Y0187000D02*
X0190703Y0187158D01*
X0190709Y0187316D01*
X0190719Y0187474D01*
X0190733Y0187632D01*
X0190751Y0187789D01*
X0190772Y0187946D01*
X0190798Y0188102D01*
X0190828Y0188258D01*
X0190861Y0188413D01*
X0190899Y0188566D01*
X0190940Y0188719D01*
X0190985Y0188871D01*
X0191034Y0189022D01*
X0191087Y0189171D01*
X0191143Y0189319D01*
X0191203Y0189465D01*
X0191267Y0189610D01*
X0191335Y0189753D01*
X0191406Y0189895D01*
X0191480Y0190035D01*
X0191558Y0190172D01*
X0191640Y0190308D01*
X0191724Y0190442D01*
X0191813Y0190573D01*
X0191904Y0190702D01*
X0191999Y0190829D01*
X0192096Y0190954D01*
X0192197Y0191076D01*
X0192301Y0191195D01*
X0192408Y0191312D01*
X0192518Y0191426D01*
X0192631Y0191537D01*
X0192746Y0191646D01*
X0192864Y0191751D01*
X0192985Y0191853D01*
X0193108Y0191953D01*
X0193234Y0192049D01*
X0193362Y0192142D01*
X0193492Y0192232D01*
X0193625Y0192318D01*
X0193760Y0192402D01*
X0193896Y0192481D01*
X0194035Y0192558D01*
X0194176Y0192630D01*
X0194318Y0192700D01*
X0194462Y0192765D01*
X0194608Y0192827D01*
X0194755Y0192885D01*
X0194904Y0192940D01*
X0195054Y0192991D01*
X0195205Y0193038D01*
X0195357Y0193081D01*
X0195510Y0193120D01*
X0195665Y0193156D01*
X0195820Y0193187D01*
X0195976Y0193215D01*
X0196132Y0193239D01*
X0196289Y0193259D01*
X0196447Y0193275D01*
X0196604Y0193287D01*
X0196763Y0193295D01*
X0196921Y0193299D01*
X0197079Y0193299D01*
X0197237Y0193295D01*
X0197396Y0193287D01*
X0197553Y0193275D01*
X0197711Y0193259D01*
X0197868Y0193239D01*
X0198024Y0193215D01*
X0198180Y0193187D01*
X0198335Y0193156D01*
X0198490Y0193120D01*
X0198643Y0193081D01*
X0198795Y0193038D01*
X0198946Y0192991D01*
X0199096Y0192940D01*
X0199245Y0192885D01*
X0199392Y0192827D01*
X0199538Y0192765D01*
X0199682Y0192700D01*
X0199824Y0192630D01*
X0199965Y0192558D01*
X0200104Y0192481D01*
X0200240Y0192402D01*
X0200375Y0192318D01*
X0200508Y0192232D01*
X0200638Y0192142D01*
X0200766Y0192049D01*
X0200892Y0191953D01*
X0201015Y0191853D01*
X0201136Y0191751D01*
X0201254Y0191646D01*
X0201369Y0191537D01*
X0201482Y0191426D01*
X0201592Y0191312D01*
X0201699Y0191195D01*
X0201803Y0191076D01*
X0201904Y0190954D01*
X0202001Y0190829D01*
X0202096Y0190702D01*
X0202187Y0190573D01*
X0202276Y0190442D01*
X0202360Y0190308D01*
X0202442Y0190172D01*
X0202520Y0190035D01*
X0202594Y0189895D01*
X0202665Y0189753D01*
X0202733Y0189610D01*
X0202797Y0189465D01*
X0202857Y0189319D01*
X0202913Y0189171D01*
X0202966Y0189022D01*
X0203015Y0188871D01*
X0203060Y0188719D01*
X0203101Y0188566D01*
X0203139Y0188413D01*
X0203172Y0188258D01*
X0203202Y0188102D01*
X0203228Y0187946D01*
X0203249Y0187789D01*
X0203267Y0187632D01*
X0203281Y0187474D01*
X0203291Y0187316D01*
X0203297Y0187158D01*
X0203299Y0187000D01*
X0203297Y0186842D01*
X0203291Y0186684D01*
X0203281Y0186526D01*
X0203267Y0186368D01*
X0203249Y0186211D01*
X0203228Y0186054D01*
X0203202Y0185898D01*
X0203172Y0185742D01*
X0203139Y0185587D01*
X0203101Y0185434D01*
X0203060Y0185281D01*
X0203015Y0185129D01*
X0202966Y0184978D01*
X0202913Y0184829D01*
X0202857Y0184681D01*
X0202797Y0184535D01*
X0202733Y0184390D01*
X0202665Y0184247D01*
X0202594Y0184105D01*
X0202520Y0183965D01*
X0202442Y0183828D01*
X0202360Y0183692D01*
X0202276Y0183558D01*
X0202187Y0183427D01*
X0202096Y0183298D01*
X0202001Y0183171D01*
X0201904Y0183046D01*
X0201803Y0182924D01*
X0201699Y0182805D01*
X0201592Y0182688D01*
X0201482Y0182574D01*
X0201369Y0182463D01*
X0201254Y0182354D01*
X0201136Y0182249D01*
X0201015Y0182147D01*
X0200892Y0182047D01*
X0200766Y0181951D01*
X0200638Y0181858D01*
X0200508Y0181768D01*
X0200375Y0181682D01*
X0200240Y0181598D01*
X0200104Y0181519D01*
X0199965Y0181442D01*
X0199824Y0181370D01*
X0199682Y0181300D01*
X0199538Y0181235D01*
X0199392Y0181173D01*
X0199245Y0181115D01*
X0199096Y0181060D01*
X0198946Y0181009D01*
X0198795Y0180962D01*
X0198643Y0180919D01*
X0198490Y0180880D01*
X0198335Y0180844D01*
X0198180Y0180813D01*
X0198024Y0180785D01*
X0197868Y0180761D01*
X0197711Y0180741D01*
X0197553Y0180725D01*
X0197396Y0180713D01*
X0197237Y0180705D01*
X0197079Y0180701D01*
X0196921Y0180701D01*
X0196763Y0180705D01*
X0196604Y0180713D01*
X0196447Y0180725D01*
X0196289Y0180741D01*
X0196132Y0180761D01*
X0195976Y0180785D01*
X0195820Y0180813D01*
X0195665Y0180844D01*
X0195510Y0180880D01*
X0195357Y0180919D01*
X0195205Y0180962D01*
X0195054Y0181009D01*
X0194904Y0181060D01*
X0194755Y0181115D01*
X0194608Y0181173D01*
X0194462Y0181235D01*
X0194318Y0181300D01*
X0194176Y0181370D01*
X0194035Y0181442D01*
X0193896Y0181519D01*
X0193760Y0181598D01*
X0193625Y0181682D01*
X0193492Y0181768D01*
X0193362Y0181858D01*
X0193234Y0181951D01*
X0193108Y0182047D01*
X0192985Y0182147D01*
X0192864Y0182249D01*
X0192746Y0182354D01*
X0192631Y0182463D01*
X0192518Y0182574D01*
X0192408Y0182688D01*
X0192301Y0182805D01*
X0192197Y0182924D01*
X0192096Y0183046D01*
X0191999Y0183171D01*
X0191904Y0183298D01*
X0191813Y0183427D01*
X0191724Y0183558D01*
X0191640Y0183692D01*
X0191558Y0183828D01*
X0191480Y0183965D01*
X0191406Y0184105D01*
X0191335Y0184247D01*
X0191267Y0184390D01*
X0191203Y0184535D01*
X0191143Y0184681D01*
X0191087Y0184829D01*
X0191034Y0184978D01*
X0190985Y0185129D01*
X0190940Y0185281D01*
X0190899Y0185434D01*
X0190861Y0185587D01*
X0190828Y0185742D01*
X0190798Y0185898D01*
X0190772Y0186054D01*
X0190751Y0186211D01*
X0190733Y0186368D01*
X0190719Y0186526D01*
X0190709Y0186684D01*
X0190703Y0186842D01*
X0190701Y0187000D01*
X0197000Y0202000D02*
X0197362Y0201996D01*
X0197725Y0201982D01*
X0198087Y0201961D01*
X0198448Y0201930D01*
X0198808Y0201891D01*
X0199167Y0201843D01*
X0199525Y0201786D01*
X0199882Y0201721D01*
X0200237Y0201647D01*
X0200590Y0201564D01*
X0200941Y0201473D01*
X0201289Y0201374D01*
X0201635Y0201266D01*
X0201979Y0201150D01*
X0202319Y0201025D01*
X0202656Y0200893D01*
X0202990Y0200752D01*
X0203321Y0200603D01*
X0203648Y0200446D01*
X0203971Y0200282D01*
X0204290Y0200110D01*
X0204604Y0199930D01*
X0204915Y0199742D01*
X0205220Y0199547D01*
X0205521Y0199345D01*
X0205817Y0199135D01*
X0206107Y0198919D01*
X0206393Y0198695D01*
X0206673Y0198465D01*
X0206947Y0198228D01*
X0207215Y0197984D01*
X0207478Y0197734D01*
X0207734Y0197478D01*
X0207984Y0197215D01*
X0208228Y0196947D01*
X0208465Y0196673D01*
X0208695Y0196393D01*
X0208919Y0196107D01*
X0209135Y0195817D01*
X0209345Y0195521D01*
X0209547Y0195220D01*
X0209742Y0194915D01*
X0209930Y0194604D01*
X0210110Y0194290D01*
X0210282Y0193971D01*
X0210446Y0193648D01*
X0210603Y0193321D01*
X0210752Y0192990D01*
X0210893Y0192656D01*
X0211025Y0192319D01*
X0211150Y0191979D01*
X0211266Y0191635D01*
X0211374Y0191289D01*
X0211473Y0190941D01*
X0211564Y0190590D01*
X0211647Y0190237D01*
X0211721Y0189882D01*
X0211786Y0189525D01*
X0211843Y0189167D01*
X0211891Y0188808D01*
X0211930Y0188448D01*
X0211961Y0188087D01*
X0211982Y0187725D01*
X0211996Y0187362D01*
X0212000Y0187000D01*
X0197000Y0202000D02*
X0017000Y0202000D01*
X0010701Y0187000D02*
X0010703Y0187158D01*
X0010709Y0187316D01*
X0010719Y0187474D01*
X0010733Y0187632D01*
X0010751Y0187789D01*
X0010772Y0187946D01*
X0010798Y0188102D01*
X0010828Y0188258D01*
X0010861Y0188413D01*
X0010899Y0188566D01*
X0010940Y0188719D01*
X0010985Y0188871D01*
X0011034Y0189022D01*
X0011087Y0189171D01*
X0011143Y0189319D01*
X0011203Y0189465D01*
X0011267Y0189610D01*
X0011335Y0189753D01*
X0011406Y0189895D01*
X0011480Y0190035D01*
X0011558Y0190172D01*
X0011640Y0190308D01*
X0011724Y0190442D01*
X0011813Y0190573D01*
X0011904Y0190702D01*
X0011999Y0190829D01*
X0012096Y0190954D01*
X0012197Y0191076D01*
X0012301Y0191195D01*
X0012408Y0191312D01*
X0012518Y0191426D01*
X0012631Y0191537D01*
X0012746Y0191646D01*
X0012864Y0191751D01*
X0012985Y0191853D01*
X0013108Y0191953D01*
X0013234Y0192049D01*
X0013362Y0192142D01*
X0013492Y0192232D01*
X0013625Y0192318D01*
X0013760Y0192402D01*
X0013896Y0192481D01*
X0014035Y0192558D01*
X0014176Y0192630D01*
X0014318Y0192700D01*
X0014462Y0192765D01*
X0014608Y0192827D01*
X0014755Y0192885D01*
X0014904Y0192940D01*
X0015054Y0192991D01*
X0015205Y0193038D01*
X0015357Y0193081D01*
X0015510Y0193120D01*
X0015665Y0193156D01*
X0015820Y0193187D01*
X0015976Y0193215D01*
X0016132Y0193239D01*
X0016289Y0193259D01*
X0016447Y0193275D01*
X0016604Y0193287D01*
X0016763Y0193295D01*
X0016921Y0193299D01*
X0017079Y0193299D01*
X0017237Y0193295D01*
X0017396Y0193287D01*
X0017553Y0193275D01*
X0017711Y0193259D01*
X0017868Y0193239D01*
X0018024Y0193215D01*
X0018180Y0193187D01*
X0018335Y0193156D01*
X0018490Y0193120D01*
X0018643Y0193081D01*
X0018795Y0193038D01*
X0018946Y0192991D01*
X0019096Y0192940D01*
X0019245Y0192885D01*
X0019392Y0192827D01*
X0019538Y0192765D01*
X0019682Y0192700D01*
X0019824Y0192630D01*
X0019965Y0192558D01*
X0020104Y0192481D01*
X0020240Y0192402D01*
X0020375Y0192318D01*
X0020508Y0192232D01*
X0020638Y0192142D01*
X0020766Y0192049D01*
X0020892Y0191953D01*
X0021015Y0191853D01*
X0021136Y0191751D01*
X0021254Y0191646D01*
X0021369Y0191537D01*
X0021482Y0191426D01*
X0021592Y0191312D01*
X0021699Y0191195D01*
X0021803Y0191076D01*
X0021904Y0190954D01*
X0022001Y0190829D01*
X0022096Y0190702D01*
X0022187Y0190573D01*
X0022276Y0190442D01*
X0022360Y0190308D01*
X0022442Y0190172D01*
X0022520Y0190035D01*
X0022594Y0189895D01*
X0022665Y0189753D01*
X0022733Y0189610D01*
X0022797Y0189465D01*
X0022857Y0189319D01*
X0022913Y0189171D01*
X0022966Y0189022D01*
X0023015Y0188871D01*
X0023060Y0188719D01*
X0023101Y0188566D01*
X0023139Y0188413D01*
X0023172Y0188258D01*
X0023202Y0188102D01*
X0023228Y0187946D01*
X0023249Y0187789D01*
X0023267Y0187632D01*
X0023281Y0187474D01*
X0023291Y0187316D01*
X0023297Y0187158D01*
X0023299Y0187000D01*
X0023297Y0186842D01*
X0023291Y0186684D01*
X0023281Y0186526D01*
X0023267Y0186368D01*
X0023249Y0186211D01*
X0023228Y0186054D01*
X0023202Y0185898D01*
X0023172Y0185742D01*
X0023139Y0185587D01*
X0023101Y0185434D01*
X0023060Y0185281D01*
X0023015Y0185129D01*
X0022966Y0184978D01*
X0022913Y0184829D01*
X0022857Y0184681D01*
X0022797Y0184535D01*
X0022733Y0184390D01*
X0022665Y0184247D01*
X0022594Y0184105D01*
X0022520Y0183965D01*
X0022442Y0183828D01*
X0022360Y0183692D01*
X0022276Y0183558D01*
X0022187Y0183427D01*
X0022096Y0183298D01*
X0022001Y0183171D01*
X0021904Y0183046D01*
X0021803Y0182924D01*
X0021699Y0182805D01*
X0021592Y0182688D01*
X0021482Y0182574D01*
X0021369Y0182463D01*
X0021254Y0182354D01*
X0021136Y0182249D01*
X0021015Y0182147D01*
X0020892Y0182047D01*
X0020766Y0181951D01*
X0020638Y0181858D01*
X0020508Y0181768D01*
X0020375Y0181682D01*
X0020240Y0181598D01*
X0020104Y0181519D01*
X0019965Y0181442D01*
X0019824Y0181370D01*
X0019682Y0181300D01*
X0019538Y0181235D01*
X0019392Y0181173D01*
X0019245Y0181115D01*
X0019096Y0181060D01*
X0018946Y0181009D01*
X0018795Y0180962D01*
X0018643Y0180919D01*
X0018490Y0180880D01*
X0018335Y0180844D01*
X0018180Y0180813D01*
X0018024Y0180785D01*
X0017868Y0180761D01*
X0017711Y0180741D01*
X0017553Y0180725D01*
X0017396Y0180713D01*
X0017237Y0180705D01*
X0017079Y0180701D01*
X0016921Y0180701D01*
X0016763Y0180705D01*
X0016604Y0180713D01*
X0016447Y0180725D01*
X0016289Y0180741D01*
X0016132Y0180761D01*
X0015976Y0180785D01*
X0015820Y0180813D01*
X0015665Y0180844D01*
X0015510Y0180880D01*
X0015357Y0180919D01*
X0015205Y0180962D01*
X0015054Y0181009D01*
X0014904Y0181060D01*
X0014755Y0181115D01*
X0014608Y0181173D01*
X0014462Y0181235D01*
X0014318Y0181300D01*
X0014176Y0181370D01*
X0014035Y0181442D01*
X0013896Y0181519D01*
X0013760Y0181598D01*
X0013625Y0181682D01*
X0013492Y0181768D01*
X0013362Y0181858D01*
X0013234Y0181951D01*
X0013108Y0182047D01*
X0012985Y0182147D01*
X0012864Y0182249D01*
X0012746Y0182354D01*
X0012631Y0182463D01*
X0012518Y0182574D01*
X0012408Y0182688D01*
X0012301Y0182805D01*
X0012197Y0182924D01*
X0012096Y0183046D01*
X0011999Y0183171D01*
X0011904Y0183298D01*
X0011813Y0183427D01*
X0011724Y0183558D01*
X0011640Y0183692D01*
X0011558Y0183828D01*
X0011480Y0183965D01*
X0011406Y0184105D01*
X0011335Y0184247D01*
X0011267Y0184390D01*
X0011203Y0184535D01*
X0011143Y0184681D01*
X0011087Y0184829D01*
X0011034Y0184978D01*
X0010985Y0185129D01*
X0010940Y0185281D01*
X0010899Y0185434D01*
X0010861Y0185587D01*
X0010828Y0185742D01*
X0010798Y0185898D01*
X0010772Y0186054D01*
X0010751Y0186211D01*
X0010733Y0186368D01*
X0010719Y0186526D01*
X0010709Y0186684D01*
X0010703Y0186842D01*
X0010701Y0187000D01*
X0002000Y0187000D02*
X0002004Y0187362D01*
X0002018Y0187725D01*
X0002039Y0188087D01*
X0002070Y0188448D01*
X0002109Y0188808D01*
X0002157Y0189167D01*
X0002214Y0189525D01*
X0002279Y0189882D01*
X0002353Y0190237D01*
X0002436Y0190590D01*
X0002527Y0190941D01*
X0002626Y0191289D01*
X0002734Y0191635D01*
X0002850Y0191979D01*
X0002975Y0192319D01*
X0003107Y0192656D01*
X0003248Y0192990D01*
X0003397Y0193321D01*
X0003554Y0193648D01*
X0003718Y0193971D01*
X0003890Y0194290D01*
X0004070Y0194604D01*
X0004258Y0194915D01*
X0004453Y0195220D01*
X0004655Y0195521D01*
X0004865Y0195817D01*
X0005081Y0196107D01*
X0005305Y0196393D01*
X0005535Y0196673D01*
X0005772Y0196947D01*
X0006016Y0197215D01*
X0006266Y0197478D01*
X0006522Y0197734D01*
X0006785Y0197984D01*
X0007053Y0198228D01*
X0007327Y0198465D01*
X0007607Y0198695D01*
X0007893Y0198919D01*
X0008183Y0199135D01*
X0008479Y0199345D01*
X0008780Y0199547D01*
X0009085Y0199742D01*
X0009396Y0199930D01*
X0009710Y0200110D01*
X0010029Y0200282D01*
X0010352Y0200446D01*
X0010679Y0200603D01*
X0011010Y0200752D01*
X0011344Y0200893D01*
X0011681Y0201025D01*
X0012021Y0201150D01*
X0012365Y0201266D01*
X0012711Y0201374D01*
X0013059Y0201473D01*
X0013410Y0201564D01*
X0013763Y0201647D01*
X0014118Y0201721D01*
X0014475Y0201786D01*
X0014833Y0201843D01*
X0015192Y0201891D01*
X0015552Y0201930D01*
X0015913Y0201961D01*
X0016275Y0201982D01*
X0016638Y0201996D01*
X0017000Y0202000D01*
X0002000Y0187000D02*
X0002000Y0017000D01*
X0010701Y0017000D02*
X0010703Y0017158D01*
X0010709Y0017316D01*
X0010719Y0017474D01*
X0010733Y0017632D01*
X0010751Y0017789D01*
X0010772Y0017946D01*
X0010798Y0018102D01*
X0010828Y0018258D01*
X0010861Y0018413D01*
X0010899Y0018566D01*
X0010940Y0018719D01*
X0010985Y0018871D01*
X0011034Y0019022D01*
X0011087Y0019171D01*
X0011143Y0019319D01*
X0011203Y0019465D01*
X0011267Y0019610D01*
X0011335Y0019753D01*
X0011406Y0019895D01*
X0011480Y0020035D01*
X0011558Y0020172D01*
X0011640Y0020308D01*
X0011724Y0020442D01*
X0011813Y0020573D01*
X0011904Y0020702D01*
X0011999Y0020829D01*
X0012096Y0020954D01*
X0012197Y0021076D01*
X0012301Y0021195D01*
X0012408Y0021312D01*
X0012518Y0021426D01*
X0012631Y0021537D01*
X0012746Y0021646D01*
X0012864Y0021751D01*
X0012985Y0021853D01*
X0013108Y0021953D01*
X0013234Y0022049D01*
X0013362Y0022142D01*
X0013492Y0022232D01*
X0013625Y0022318D01*
X0013760Y0022402D01*
X0013896Y0022481D01*
X0014035Y0022558D01*
X0014176Y0022630D01*
X0014318Y0022700D01*
X0014462Y0022765D01*
X0014608Y0022827D01*
X0014755Y0022885D01*
X0014904Y0022940D01*
X0015054Y0022991D01*
X0015205Y0023038D01*
X0015357Y0023081D01*
X0015510Y0023120D01*
X0015665Y0023156D01*
X0015820Y0023187D01*
X0015976Y0023215D01*
X0016132Y0023239D01*
X0016289Y0023259D01*
X0016447Y0023275D01*
X0016604Y0023287D01*
X0016763Y0023295D01*
X0016921Y0023299D01*
X0017079Y0023299D01*
X0017237Y0023295D01*
X0017396Y0023287D01*
X0017553Y0023275D01*
X0017711Y0023259D01*
X0017868Y0023239D01*
X0018024Y0023215D01*
X0018180Y0023187D01*
X0018335Y0023156D01*
X0018490Y0023120D01*
X0018643Y0023081D01*
X0018795Y0023038D01*
X0018946Y0022991D01*
X0019096Y0022940D01*
X0019245Y0022885D01*
X0019392Y0022827D01*
X0019538Y0022765D01*
X0019682Y0022700D01*
X0019824Y0022630D01*
X0019965Y0022558D01*
X0020104Y0022481D01*
X0020240Y0022402D01*
X0020375Y0022318D01*
X0020508Y0022232D01*
X0020638Y0022142D01*
X0020766Y0022049D01*
X0020892Y0021953D01*
X0021015Y0021853D01*
X0021136Y0021751D01*
X0021254Y0021646D01*
X0021369Y0021537D01*
X0021482Y0021426D01*
X0021592Y0021312D01*
X0021699Y0021195D01*
X0021803Y0021076D01*
X0021904Y0020954D01*
X0022001Y0020829D01*
X0022096Y0020702D01*
X0022187Y0020573D01*
X0022276Y0020442D01*
X0022360Y0020308D01*
X0022442Y0020172D01*
X0022520Y0020035D01*
X0022594Y0019895D01*
X0022665Y0019753D01*
X0022733Y0019610D01*
X0022797Y0019465D01*
X0022857Y0019319D01*
X0022913Y0019171D01*
X0022966Y0019022D01*
X0023015Y0018871D01*
X0023060Y0018719D01*
X0023101Y0018566D01*
X0023139Y0018413D01*
X0023172Y0018258D01*
X0023202Y0018102D01*
X0023228Y0017946D01*
X0023249Y0017789D01*
X0023267Y0017632D01*
X0023281Y0017474D01*
X0023291Y0017316D01*
X0023297Y0017158D01*
X0023299Y0017000D01*
X0023297Y0016842D01*
X0023291Y0016684D01*
X0023281Y0016526D01*
X0023267Y0016368D01*
X0023249Y0016211D01*
X0023228Y0016054D01*
X0023202Y0015898D01*
X0023172Y0015742D01*
X0023139Y0015587D01*
X0023101Y0015434D01*
X0023060Y0015281D01*
X0023015Y0015129D01*
X0022966Y0014978D01*
X0022913Y0014829D01*
X0022857Y0014681D01*
X0022797Y0014535D01*
X0022733Y0014390D01*
X0022665Y0014247D01*
X0022594Y0014105D01*
X0022520Y0013965D01*
X0022442Y0013828D01*
X0022360Y0013692D01*
X0022276Y0013558D01*
X0022187Y0013427D01*
X0022096Y0013298D01*
X0022001Y0013171D01*
X0021904Y0013046D01*
X0021803Y0012924D01*
X0021699Y0012805D01*
X0021592Y0012688D01*
X0021482Y0012574D01*
X0021369Y0012463D01*
X0021254Y0012354D01*
X0021136Y0012249D01*
X0021015Y0012147D01*
X0020892Y0012047D01*
X0020766Y0011951D01*
X0020638Y0011858D01*
X0020508Y0011768D01*
X0020375Y0011682D01*
X0020240Y0011598D01*
X0020104Y0011519D01*
X0019965Y0011442D01*
X0019824Y0011370D01*
X0019682Y0011300D01*
X0019538Y0011235D01*
X0019392Y0011173D01*
X0019245Y0011115D01*
X0019096Y0011060D01*
X0018946Y0011009D01*
X0018795Y0010962D01*
X0018643Y0010919D01*
X0018490Y0010880D01*
X0018335Y0010844D01*
X0018180Y0010813D01*
X0018024Y0010785D01*
X0017868Y0010761D01*
X0017711Y0010741D01*
X0017553Y0010725D01*
X0017396Y0010713D01*
X0017237Y0010705D01*
X0017079Y0010701D01*
X0016921Y0010701D01*
X0016763Y0010705D01*
X0016604Y0010713D01*
X0016447Y0010725D01*
X0016289Y0010741D01*
X0016132Y0010761D01*
X0015976Y0010785D01*
X0015820Y0010813D01*
X0015665Y0010844D01*
X0015510Y0010880D01*
X0015357Y0010919D01*
X0015205Y0010962D01*
X0015054Y0011009D01*
X0014904Y0011060D01*
X0014755Y0011115D01*
X0014608Y0011173D01*
X0014462Y0011235D01*
X0014318Y0011300D01*
X0014176Y0011370D01*
X0014035Y0011442D01*
X0013896Y0011519D01*
X0013760Y0011598D01*
X0013625Y0011682D01*
X0013492Y0011768D01*
X0013362Y0011858D01*
X0013234Y0011951D01*
X0013108Y0012047D01*
X0012985Y0012147D01*
X0012864Y0012249D01*
X0012746Y0012354D01*
X0012631Y0012463D01*
X0012518Y0012574D01*
X0012408Y0012688D01*
X0012301Y0012805D01*
X0012197Y0012924D01*
X0012096Y0013046D01*
X0011999Y0013171D01*
X0011904Y0013298D01*
X0011813Y0013427D01*
X0011724Y0013558D01*
X0011640Y0013692D01*
X0011558Y0013828D01*
X0011480Y0013965D01*
X0011406Y0014105D01*
X0011335Y0014247D01*
X0011267Y0014390D01*
X0011203Y0014535D01*
X0011143Y0014681D01*
X0011087Y0014829D01*
X0011034Y0014978D01*
X0010985Y0015129D01*
X0010940Y0015281D01*
X0010899Y0015434D01*
X0010861Y0015587D01*
X0010828Y0015742D01*
X0010798Y0015898D01*
X0010772Y0016054D01*
X0010751Y0016211D01*
X0010733Y0016368D01*
X0010719Y0016526D01*
X0010709Y0016684D01*
X0010703Y0016842D01*
X0010701Y0017000D01*
X0002000Y0017000D02*
X0002004Y0016638D01*
X0002018Y0016275D01*
X0002039Y0015913D01*
X0002070Y0015552D01*
X0002109Y0015192D01*
X0002157Y0014833D01*
X0002214Y0014475D01*
X0002279Y0014118D01*
X0002353Y0013763D01*
X0002436Y0013410D01*
X0002527Y0013059D01*
X0002626Y0012711D01*
X0002734Y0012365D01*
X0002850Y0012021D01*
X0002975Y0011681D01*
X0003107Y0011344D01*
X0003248Y0011010D01*
X0003397Y0010679D01*
X0003554Y0010352D01*
X0003718Y0010029D01*
X0003890Y0009710D01*
X0004070Y0009396D01*
X0004258Y0009085D01*
X0004453Y0008780D01*
X0004655Y0008479D01*
X0004865Y0008183D01*
X0005081Y0007893D01*
X0005305Y0007607D01*
X0005535Y0007327D01*
X0005772Y0007053D01*
X0006016Y0006785D01*
X0006266Y0006522D01*
X0006522Y0006266D01*
X0006785Y0006016D01*
X0007053Y0005772D01*
X0007327Y0005535D01*
X0007607Y0005305D01*
X0007893Y0005081D01*
X0008183Y0004865D01*
X0008479Y0004655D01*
X0008780Y0004453D01*
X0009085Y0004258D01*
X0009396Y0004070D01*
X0009710Y0003890D01*
X0010029Y0003718D01*
X0010352Y0003554D01*
X0010679Y0003397D01*
X0011010Y0003248D01*
X0011344Y0003107D01*
X0011681Y0002975D01*
X0012021Y0002850D01*
X0012365Y0002734D01*
X0012711Y0002626D01*
X0013059Y0002527D01*
X0013410Y0002436D01*
X0013763Y0002353D01*
X0014118Y0002279D01*
X0014475Y0002214D01*
X0014833Y0002157D01*
X0015192Y0002109D01*
X0015552Y0002070D01*
X0015913Y0002039D01*
X0016275Y0002018D01*
X0016638Y0002004D01*
X0017000Y0002000D01*
X0010701Y0117000D02*
X0010703Y0117158D01*
X0010709Y0117316D01*
X0010719Y0117474D01*
X0010733Y0117632D01*
X0010751Y0117789D01*
X0010772Y0117946D01*
X0010798Y0118102D01*
X0010828Y0118258D01*
X0010861Y0118413D01*
X0010899Y0118566D01*
X0010940Y0118719D01*
X0010985Y0118871D01*
X0011034Y0119022D01*
X0011087Y0119171D01*
X0011143Y0119319D01*
X0011203Y0119465D01*
X0011267Y0119610D01*
X0011335Y0119753D01*
X0011406Y0119895D01*
X0011480Y0120035D01*
X0011558Y0120172D01*
X0011640Y0120308D01*
X0011724Y0120442D01*
X0011813Y0120573D01*
X0011904Y0120702D01*
X0011999Y0120829D01*
X0012096Y0120954D01*
X0012197Y0121076D01*
X0012301Y0121195D01*
X0012408Y0121312D01*
X0012518Y0121426D01*
X0012631Y0121537D01*
X0012746Y0121646D01*
X0012864Y0121751D01*
X0012985Y0121853D01*
X0013108Y0121953D01*
X0013234Y0122049D01*
X0013362Y0122142D01*
X0013492Y0122232D01*
X0013625Y0122318D01*
X0013760Y0122402D01*
X0013896Y0122481D01*
X0014035Y0122558D01*
X0014176Y0122630D01*
X0014318Y0122700D01*
X0014462Y0122765D01*
X0014608Y0122827D01*
X0014755Y0122885D01*
X0014904Y0122940D01*
X0015054Y0122991D01*
X0015205Y0123038D01*
X0015357Y0123081D01*
X0015510Y0123120D01*
X0015665Y0123156D01*
X0015820Y0123187D01*
X0015976Y0123215D01*
X0016132Y0123239D01*
X0016289Y0123259D01*
X0016447Y0123275D01*
X0016604Y0123287D01*
X0016763Y0123295D01*
X0016921Y0123299D01*
X0017079Y0123299D01*
X0017237Y0123295D01*
X0017396Y0123287D01*
X0017553Y0123275D01*
X0017711Y0123259D01*
X0017868Y0123239D01*
X0018024Y0123215D01*
X0018180Y0123187D01*
X0018335Y0123156D01*
X0018490Y0123120D01*
X0018643Y0123081D01*
X0018795Y0123038D01*
X0018946Y0122991D01*
X0019096Y0122940D01*
X0019245Y0122885D01*
X0019392Y0122827D01*
X0019538Y0122765D01*
X0019682Y0122700D01*
X0019824Y0122630D01*
X0019965Y0122558D01*
X0020104Y0122481D01*
X0020240Y0122402D01*
X0020375Y0122318D01*
X0020508Y0122232D01*
X0020638Y0122142D01*
X0020766Y0122049D01*
X0020892Y0121953D01*
X0021015Y0121853D01*
X0021136Y0121751D01*
X0021254Y0121646D01*
X0021369Y0121537D01*
X0021482Y0121426D01*
X0021592Y0121312D01*
X0021699Y0121195D01*
X0021803Y0121076D01*
X0021904Y0120954D01*
X0022001Y0120829D01*
X0022096Y0120702D01*
X0022187Y0120573D01*
X0022276Y0120442D01*
X0022360Y0120308D01*
X0022442Y0120172D01*
X0022520Y0120035D01*
X0022594Y0119895D01*
X0022665Y0119753D01*
X0022733Y0119610D01*
X0022797Y0119465D01*
X0022857Y0119319D01*
X0022913Y0119171D01*
X0022966Y0119022D01*
X0023015Y0118871D01*
X0023060Y0118719D01*
X0023101Y0118566D01*
X0023139Y0118413D01*
X0023172Y0118258D01*
X0023202Y0118102D01*
X0023228Y0117946D01*
X0023249Y0117789D01*
X0023267Y0117632D01*
X0023281Y0117474D01*
X0023291Y0117316D01*
X0023297Y0117158D01*
X0023299Y0117000D01*
X0023297Y0116842D01*
X0023291Y0116684D01*
X0023281Y0116526D01*
X0023267Y0116368D01*
X0023249Y0116211D01*
X0023228Y0116054D01*
X0023202Y0115898D01*
X0023172Y0115742D01*
X0023139Y0115587D01*
X0023101Y0115434D01*
X0023060Y0115281D01*
X0023015Y0115129D01*
X0022966Y0114978D01*
X0022913Y0114829D01*
X0022857Y0114681D01*
X0022797Y0114535D01*
X0022733Y0114390D01*
X0022665Y0114247D01*
X0022594Y0114105D01*
X0022520Y0113965D01*
X0022442Y0113828D01*
X0022360Y0113692D01*
X0022276Y0113558D01*
X0022187Y0113427D01*
X0022096Y0113298D01*
X0022001Y0113171D01*
X0021904Y0113046D01*
X0021803Y0112924D01*
X0021699Y0112805D01*
X0021592Y0112688D01*
X0021482Y0112574D01*
X0021369Y0112463D01*
X0021254Y0112354D01*
X0021136Y0112249D01*
X0021015Y0112147D01*
X0020892Y0112047D01*
X0020766Y0111951D01*
X0020638Y0111858D01*
X0020508Y0111768D01*
X0020375Y0111682D01*
X0020240Y0111598D01*
X0020104Y0111519D01*
X0019965Y0111442D01*
X0019824Y0111370D01*
X0019682Y0111300D01*
X0019538Y0111235D01*
X0019392Y0111173D01*
X0019245Y0111115D01*
X0019096Y0111060D01*
X0018946Y0111009D01*
X0018795Y0110962D01*
X0018643Y0110919D01*
X0018490Y0110880D01*
X0018335Y0110844D01*
X0018180Y0110813D01*
X0018024Y0110785D01*
X0017868Y0110761D01*
X0017711Y0110741D01*
X0017553Y0110725D01*
X0017396Y0110713D01*
X0017237Y0110705D01*
X0017079Y0110701D01*
X0016921Y0110701D01*
X0016763Y0110705D01*
X0016604Y0110713D01*
X0016447Y0110725D01*
X0016289Y0110741D01*
X0016132Y0110761D01*
X0015976Y0110785D01*
X0015820Y0110813D01*
X0015665Y0110844D01*
X0015510Y0110880D01*
X0015357Y0110919D01*
X0015205Y0110962D01*
X0015054Y0111009D01*
X0014904Y0111060D01*
X0014755Y0111115D01*
X0014608Y0111173D01*
X0014462Y0111235D01*
X0014318Y0111300D01*
X0014176Y0111370D01*
X0014035Y0111442D01*
X0013896Y0111519D01*
X0013760Y0111598D01*
X0013625Y0111682D01*
X0013492Y0111768D01*
X0013362Y0111858D01*
X0013234Y0111951D01*
X0013108Y0112047D01*
X0012985Y0112147D01*
X0012864Y0112249D01*
X0012746Y0112354D01*
X0012631Y0112463D01*
X0012518Y0112574D01*
X0012408Y0112688D01*
X0012301Y0112805D01*
X0012197Y0112924D01*
X0012096Y0113046D01*
X0011999Y0113171D01*
X0011904Y0113298D01*
X0011813Y0113427D01*
X0011724Y0113558D01*
X0011640Y0113692D01*
X0011558Y0113828D01*
X0011480Y0113965D01*
X0011406Y0114105D01*
X0011335Y0114247D01*
X0011267Y0114390D01*
X0011203Y0114535D01*
X0011143Y0114681D01*
X0011087Y0114829D01*
X0011034Y0114978D01*
X0010985Y0115129D01*
X0010940Y0115281D01*
X0010899Y0115434D01*
X0010861Y0115587D01*
X0010828Y0115742D01*
X0010798Y0115898D01*
X0010772Y0116054D01*
X0010751Y0116211D01*
X0010733Y0116368D01*
X0010719Y0116526D01*
X0010709Y0116684D01*
X0010703Y0116842D01*
X0010701Y0117000D01*
X0190701Y0117000D02*
X0190703Y0117158D01*
X0190709Y0117316D01*
X0190719Y0117474D01*
X0190733Y0117632D01*
X0190751Y0117789D01*
X0190772Y0117946D01*
X0190798Y0118102D01*
X0190828Y0118258D01*
X0190861Y0118413D01*
X0190899Y0118566D01*
X0190940Y0118719D01*
X0190985Y0118871D01*
X0191034Y0119022D01*
X0191087Y0119171D01*
X0191143Y0119319D01*
X0191203Y0119465D01*
X0191267Y0119610D01*
X0191335Y0119753D01*
X0191406Y0119895D01*
X0191480Y0120035D01*
X0191558Y0120172D01*
X0191640Y0120308D01*
X0191724Y0120442D01*
X0191813Y0120573D01*
X0191904Y0120702D01*
X0191999Y0120829D01*
X0192096Y0120954D01*
X0192197Y0121076D01*
X0192301Y0121195D01*
X0192408Y0121312D01*
X0192518Y0121426D01*
X0192631Y0121537D01*
X0192746Y0121646D01*
X0192864Y0121751D01*
X0192985Y0121853D01*
X0193108Y0121953D01*
X0193234Y0122049D01*
X0193362Y0122142D01*
X0193492Y0122232D01*
X0193625Y0122318D01*
X0193760Y0122402D01*
X0193896Y0122481D01*
X0194035Y0122558D01*
X0194176Y0122630D01*
X0194318Y0122700D01*
X0194462Y0122765D01*
X0194608Y0122827D01*
X0194755Y0122885D01*
X0194904Y0122940D01*
X0195054Y0122991D01*
X0195205Y0123038D01*
X0195357Y0123081D01*
X0195510Y0123120D01*
X0195665Y0123156D01*
X0195820Y0123187D01*
X0195976Y0123215D01*
X0196132Y0123239D01*
X0196289Y0123259D01*
X0196447Y0123275D01*
X0196604Y0123287D01*
X0196763Y0123295D01*
X0196921Y0123299D01*
X0197079Y0123299D01*
X0197237Y0123295D01*
X0197396Y0123287D01*
X0197553Y0123275D01*
X0197711Y0123259D01*
X0197868Y0123239D01*
X0198024Y0123215D01*
X0198180Y0123187D01*
X0198335Y0123156D01*
X0198490Y0123120D01*
X0198643Y0123081D01*
X0198795Y0123038D01*
X0198946Y0122991D01*
X0199096Y0122940D01*
X0199245Y0122885D01*
X0199392Y0122827D01*
X0199538Y0122765D01*
X0199682Y0122700D01*
X0199824Y0122630D01*
X0199965Y0122558D01*
X0200104Y0122481D01*
X0200240Y0122402D01*
X0200375Y0122318D01*
X0200508Y0122232D01*
X0200638Y0122142D01*
X0200766Y0122049D01*
X0200892Y0121953D01*
X0201015Y0121853D01*
X0201136Y0121751D01*
X0201254Y0121646D01*
X0201369Y0121537D01*
X0201482Y0121426D01*
X0201592Y0121312D01*
X0201699Y0121195D01*
X0201803Y0121076D01*
X0201904Y0120954D01*
X0202001Y0120829D01*
X0202096Y0120702D01*
X0202187Y0120573D01*
X0202276Y0120442D01*
X0202360Y0120308D01*
X0202442Y0120172D01*
X0202520Y0120035D01*
X0202594Y0119895D01*
X0202665Y0119753D01*
X0202733Y0119610D01*
X0202797Y0119465D01*
X0202857Y0119319D01*
X0202913Y0119171D01*
X0202966Y0119022D01*
X0203015Y0118871D01*
X0203060Y0118719D01*
X0203101Y0118566D01*
X0203139Y0118413D01*
X0203172Y0118258D01*
X0203202Y0118102D01*
X0203228Y0117946D01*
X0203249Y0117789D01*
X0203267Y0117632D01*
X0203281Y0117474D01*
X0203291Y0117316D01*
X0203297Y0117158D01*
X0203299Y0117000D01*
X0203297Y0116842D01*
X0203291Y0116684D01*
X0203281Y0116526D01*
X0203267Y0116368D01*
X0203249Y0116211D01*
X0203228Y0116054D01*
X0203202Y0115898D01*
X0203172Y0115742D01*
X0203139Y0115587D01*
X0203101Y0115434D01*
X0203060Y0115281D01*
X0203015Y0115129D01*
X0202966Y0114978D01*
X0202913Y0114829D01*
X0202857Y0114681D01*
X0202797Y0114535D01*
X0202733Y0114390D01*
X0202665Y0114247D01*
X0202594Y0114105D01*
X0202520Y0113965D01*
X0202442Y0113828D01*
X0202360Y0113692D01*
X0202276Y0113558D01*
X0202187Y0113427D01*
X0202096Y0113298D01*
X0202001Y0113171D01*
X0201904Y0113046D01*
X0201803Y0112924D01*
X0201699Y0112805D01*
X0201592Y0112688D01*
X0201482Y0112574D01*
X0201369Y0112463D01*
X0201254Y0112354D01*
X0201136Y0112249D01*
X0201015Y0112147D01*
X0200892Y0112047D01*
X0200766Y0111951D01*
X0200638Y0111858D01*
X0200508Y0111768D01*
X0200375Y0111682D01*
X0200240Y0111598D01*
X0200104Y0111519D01*
X0199965Y0111442D01*
X0199824Y0111370D01*
X0199682Y0111300D01*
X0199538Y0111235D01*
X0199392Y0111173D01*
X0199245Y0111115D01*
X0199096Y0111060D01*
X0198946Y0111009D01*
X0198795Y0110962D01*
X0198643Y0110919D01*
X0198490Y0110880D01*
X0198335Y0110844D01*
X0198180Y0110813D01*
X0198024Y0110785D01*
X0197868Y0110761D01*
X0197711Y0110741D01*
X0197553Y0110725D01*
X0197396Y0110713D01*
X0197237Y0110705D01*
X0197079Y0110701D01*
X0196921Y0110701D01*
X0196763Y0110705D01*
X0196604Y0110713D01*
X0196447Y0110725D01*
X0196289Y0110741D01*
X0196132Y0110761D01*
X0195976Y0110785D01*
X0195820Y0110813D01*
X0195665Y0110844D01*
X0195510Y0110880D01*
X0195357Y0110919D01*
X0195205Y0110962D01*
X0195054Y0111009D01*
X0194904Y0111060D01*
X0194755Y0111115D01*
X0194608Y0111173D01*
X0194462Y0111235D01*
X0194318Y0111300D01*
X0194176Y0111370D01*
X0194035Y0111442D01*
X0193896Y0111519D01*
X0193760Y0111598D01*
X0193625Y0111682D01*
X0193492Y0111768D01*
X0193362Y0111858D01*
X0193234Y0111951D01*
X0193108Y0112047D01*
X0192985Y0112147D01*
X0192864Y0112249D01*
X0192746Y0112354D01*
X0192631Y0112463D01*
X0192518Y0112574D01*
X0192408Y0112688D01*
X0192301Y0112805D01*
X0192197Y0112924D01*
X0192096Y0113046D01*
X0191999Y0113171D01*
X0191904Y0113298D01*
X0191813Y0113427D01*
X0191724Y0113558D01*
X0191640Y0113692D01*
X0191558Y0113828D01*
X0191480Y0113965D01*
X0191406Y0114105D01*
X0191335Y0114247D01*
X0191267Y0114390D01*
X0191203Y0114535D01*
X0191143Y0114681D01*
X0191087Y0114829D01*
X0191034Y0114978D01*
X0190985Y0115129D01*
X0190940Y0115281D01*
X0190899Y0115434D01*
X0190861Y0115587D01*
X0190828Y0115742D01*
X0190798Y0115898D01*
X0190772Y0116054D01*
X0190751Y0116211D01*
X0190733Y0116368D01*
X0190719Y0116526D01*
X0190709Y0116684D01*
X0190703Y0116842D01*
X0190701Y0117000D01*
M02*
